<?xml version="1.0" encoding="UTF-8" standalone="no"?>
<!DOCTYPE svg PUBLIC "-//W3C//DTD SVG 20010904//EN"
              "http://www.w3.org/TR/2001/REC-SVG-20010904/DTD/svg10.dtd">

<svg xmlns="http://www.w3.org/2000/svg"
     width="12in" height="12in"
     viewBox="0 0 3600 3600">
  <path id="1 - body"
        fill="none" stroke="black" stroke-width="1"
        d="M 2066.00,157.00
           C 2066.00,157.00 2075.30,150.88 2075.30,150.88
             2075.30,150.88 2088.00,149.00 2088.00,149.00
             2088.00,149.00 2150.00,149.00 2150.00,149.00
             2150.00,149.00 2173.00,150.00 2173.00,150.00
             2173.00,150.00 2173.00,153.00 2173.00,153.00
             2173.00,153.00 2183.00,153.00 2183.00,153.00
             2183.00,153.00 2184.00,157.00 2184.00,157.00
             2194.70,154.50 2189.65,159.87 2203.00,160.00
             2203.00,160.00 2203.00,163.00 2203.00,163.00
             2203.00,163.00 2209.00,163.00 2209.00,163.00
             2209.00,163.00 2210.00,167.00 2210.00,167.00
             2210.00,167.00 2216.00,166.00 2216.00,166.00
             2216.00,166.00 2217.00,170.00 2217.00,170.00
             2221.75,168.92 2228.15,171.22 2230.00,176.00
             2230.00,176.00 2235.00,176.00 2235.00,176.00
             2235.00,176.00 2236.00,180.00 2236.00,180.00
             2236.00,180.00 2242.00,179.00 2242.00,179.00
             2242.00,179.00 2243.00,183.00 2243.00,183.00
             2250.28,181.97 2250.42,187.67 2259.00,189.00
             2259.00,189.00 2259.00,192.00 2259.00,192.00
             2259.00,192.00 2264.00,192.00 2264.00,192.00
             2264.00,192.00 2264.00,195.00 2264.00,195.00
             2264.00,195.00 2268.00,195.00 2268.00,195.00
             2271.69,201.60 2275.52,197.62 2278.00,205.00
             2278.00,205.00 2283.00,205.00 2283.00,205.00
             2283.00,205.00 2283.00,208.00 2283.00,208.00
             2290.67,209.15 2297.06,217.45 2304.00,221.00
             2304.00,221.00 2304.00,225.00 2304.00,225.00
             2304.00,225.00 2307.70,225.00 2307.70,225.00
             2307.70,225.00 2318.63,233.67 2318.63,233.67
             2318.63,233.67 2320.00,237.00 2320.00,237.00
             2320.00,237.00 2324.00,237.00 2324.00,237.00
             2324.00,237.00 2324.00,240.00 2324.00,240.00
             2324.00,240.00 2328.00,240.00 2328.00,240.00
             2330.44,244.24 2337.80,248.96 2341.80,253.61
             2347.25,259.96 2346.41,262.37 2350.22,267.00
             2350.22,267.00 2380.82,298.00 2380.82,298.00
             2380.82,298.00 2423.23,346.01 2423.23,346.01
             2423.23,346.01 2443.33,371.71 2443.33,371.71
             2443.33,371.71 2452.63,383.00 2452.63,383.00
             2452.63,383.00 2459.30,392.58 2459.30,392.58
             2459.30,392.58 2466.39,400.28 2466.39,400.28
             2471.25,406.23 2468.14,407.29 2474.03,416.00
             2474.03,416.00 2510.22,471.00 2510.22,471.00
             2549.19,533.89 2581.93,601.54 2601.74,673.00
             2601.74,673.00 2611.22,715.00 2611.22,715.00
             2611.22,715.00 2613.76,726.04 2613.76,726.04
             2613.76,726.04 2613.76,738.28 2613.76,738.28
             2614.68,745.91 2616.64,749.98 2616.18,758.00
             2616.18,758.00 2616.93,769.00 2616.93,769.00
             2616.93,769.00 2616.93,778.28 2616.93,778.28
             2616.93,778.28 2618.00,790.00 2618.00,790.00
             2618.00,790.00 2618.00,813.00 2618.00,813.00
             2618.00,813.00 2617.00,834.00 2617.00,834.00
             2617.00,834.00 2613.90,867.01 2613.90,867.01
             2613.57,879.80 2610.39,892.40 2608.28,905.00
             2608.28,905.00 2606.76,918.83 2606.76,918.83
             2606.76,918.83 2604.28,927.99 2604.28,927.99
             2604.28,927.99 2603.46,936.09 2603.46,936.09
             2603.46,936.09 2598.50,956.00 2598.50,956.00
             2598.50,956.00 2596.78,966.83 2596.78,966.83
             2596.78,966.83 2594.84,973.04 2594.84,973.04
             2594.84,973.04 2590.26,992.00 2590.26,992.00
             2590.26,992.00 2568.21,1063.00 2568.21,1063.00
             2568.21,1063.00 2560.26,1083.00 2560.26,1083.00
             2559.05,1085.81 2556.47,1090.07 2556.61,1093.00
             2556.76,1096.09 2561.32,1104.77 2562.83,1108.00
             2562.83,1108.00 2576.72,1139.00 2576.72,1139.00
             2576.72,1139.00 2606.31,1213.42 2606.31,1213.42
             2606.31,1213.42 2614.54,1239.00 2614.54,1239.00
             2614.54,1239.00 2636.70,1314.96 2636.70,1314.96
             2636.70,1314.96 2641.80,1333.17 2641.80,1333.17
             2641.80,1333.17 2643.46,1342.99 2643.46,1342.99
             2643.46,1342.99 2645.57,1349.28 2645.57,1349.28
             2645.57,1349.28 2646.70,1357.00 2646.70,1357.00
             2646.70,1357.00 2648.54,1363.00 2648.54,1363.00
             2648.54,1363.00 2649.77,1371.99 2649.77,1371.99
             2649.77,1371.99 2651.76,1379.17 2651.76,1379.17
             2651.76,1379.17 2652.43,1386.00 2652.43,1386.00
             2652.43,1386.00 2655.56,1402.00 2655.56,1402.00
             2655.56,1402.00 2656.30,1409.00 2656.30,1409.00
             2656.30,1409.00 2661.71,1443.00 2661.71,1443.00
             2661.71,1443.00 2663.17,1459.00 2663.17,1459.00
             2663.17,1459.00 2665.98,1482.00 2665.98,1482.00
             2665.98,1482.00 2665.98,1490.00 2665.98,1490.00
             2665.98,1490.00 2667.38,1496.00 2667.38,1496.00
             2667.38,1496.00 2668.04,1513.00 2668.04,1513.00
             2668.04,1513.00 2669.00,1524.00 2669.00,1524.00
             2669.00,1524.00 2669.00,1550.00 2669.00,1550.00
             2669.00,1550.00 2670.00,1567.00 2670.00,1567.00
             2670.00,1567.00 2670.00,1578.00 2670.00,1578.00
             2670.00,1578.00 2669.00,1595.00 2669.00,1595.00
             2669.00,1595.00 2669.00,1617.00 2669.00,1617.00
             2669.00,1617.00 2666.17,1652.00 2666.17,1652.00
             2666.17,1652.00 2664.68,1676.00 2664.68,1676.00
             2664.68,1676.00 2662.28,1689.00 2662.28,1689.00
             2662.28,1689.00 2660.20,1706.00 2660.20,1706.00
             2660.20,1706.00 2657.62,1726.17 2657.62,1726.17
             2657.62,1726.17 2656.09,1733.00 2656.09,1733.00
             2655.42,1737.32 2655.67,1742.15 2652.00,1745.00
             2653.95,1752.45 2649.52,1768.22 2647.42,1776.00
             2647.42,1776.00 2642.10,1799.00 2642.10,1799.00
             2642.10,1799.00 2633.39,1831.01 2633.39,1831.01
             2608.29,1917.92 2569.64,2000.80 2519.33,2076.00
             2501.27,2102.99 2481.72,2129.17 2460.73,2154.00
             2460.73,2154.00 2445.93,2171.00 2445.93,2171.00
             2443.76,2173.41 2440.24,2176.36 2441.40,2180.00
             2442.16,2182.39 2446.06,2186.03 2447.83,2188.00
             2447.83,2188.00 2461.99,2204.28 2461.99,2204.28
             2474.92,2220.96 2486.00,2238.78 2496.58,2257.00
             2520.70,2298.56 2538.36,2343.54 2553.51,2389.00
             2553.51,2389.00 2558.58,2403.28 2558.58,2403.28
             2558.58,2403.28 2563.03,2420.00 2563.03,2420.00
             2563.03,2420.00 2567.85,2435.17 2567.85,2435.17
             2567.85,2435.17 2570.04,2445.00 2570.04,2445.00
             2572.78,2454.19 2574.56,2452.24 2575.73,2456.21
             2575.73,2456.21 2577.04,2464.00 2577.04,2464.00
             2577.04,2464.00 2585.38,2499.00 2585.38,2499.00
             2588.35,2510.21 2591.67,2506.26 2592.00,2516.00
             2592.00,2516.00 2595.00,2516.00 2595.00,2516.00
             2595.00,2516.00 2595.00,2531.00 2595.00,2531.00
             2595.00,2531.00 2598.15,2531.00 2598.15,2531.00
             2598.15,2531.00 2598.15,2545.96 2598.15,2545.96
             2598.15,2545.96 2600.88,2553.09 2600.88,2553.09
             2600.88,2553.09 2602.00,2570.91 2602.00,2570.91
             2602.00,2570.91 2604.85,2577.09 2604.85,2577.09
             2604.85,2577.09 2604.85,2593.00 2604.85,2593.00
             2604.85,2593.00 2608.00,2593.00 2608.00,2593.00
             2608.00,2593.00 2608.00,2620.00 2608.00,2620.00
             2608.00,2620.00 2611.00,2620.00 2611.00,2620.00
             2611.00,2620.00 2611.00,2657.00 2611.00,2657.00
             2611.00,2657.00 2614.00,2657.00 2614.00,2657.00
             2614.00,2657.00 2614.00,2685.00 2614.00,2685.00
             2614.00,2685.00 2617.04,2705.00 2617.04,2705.00
             2617.04,2705.00 2617.04,2721.00 2617.04,2721.00
             2617.04,2721.00 2618.00,2733.00 2618.00,2733.00
             2618.00,2733.00 2618.00,2774.00 2618.00,2774.00
             2618.00,2774.00 2616.88,2791.00 2616.88,2791.00
             2616.88,2791.00 2616.88,2807.83 2616.88,2807.83
             2616.88,2807.83 2614.00,2823.00 2614.00,2823.00
             2614.00,2823.00 2614.00,2840.00 2614.00,2840.00
             2614.00,2840.00 2611.00,2855.00 2611.00,2855.00
             2611.00,2855.00 2611.00,2874.00 2611.00,2874.00
             2611.00,2874.00 2608.00,2874.00 2608.00,2874.00
             2608.00,2874.00 2608.00,2896.00 2608.00,2896.00
             2608.00,2896.00 2605.00,2896.00 2605.00,2896.00
             2605.00,2896.00 2605.00,2905.00 2605.00,2905.00
             2605.00,2905.00 2602.00,2915.09 2602.00,2915.09
             2602.00,2915.09 2601.00,2929.00 2601.00,2929.00
             2601.00,2929.00 2597.87,2929.00 2597.87,2929.00
             2597.87,2929.00 2597.87,2941.83 2597.87,2941.83
             2596.52,2947.34 2595.01,2943.02 2595.00,2955.00
             2595.00,2955.00 2591.00,2956.00 2591.00,2956.00
             2591.00,2956.00 2592.00,2966.00 2592.00,2966.00
             2592.00,2966.00 2589.00,2966.00 2589.00,2966.00
             2588.99,2970.56 2589.91,2975.08 2585.00,2977.00
             2585.00,2977.00 2585.00,2987.00 2585.00,2987.00
             2585.00,2987.00 2582.00,2987.00 2582.00,2987.00
             2582.00,2987.00 2582.00,2996.00 2582.00,2996.00
             2582.00,2996.00 2579.00,2996.00 2579.00,2996.00
             2579.00,2996.00 2579.00,3004.00 2579.00,3004.00
             2579.00,3004.00 2576.00,3004.00 2576.00,3004.00
             2576.00,3004.00 2566.00,3033.00 2566.00,3033.00
             2566.00,3033.00 2563.00,3033.00 2563.00,3033.00
             2562.63,3037.65 2557.39,3048.30 2553.00,3050.00
             2553.00,3050.00 2553.00,3056.00 2553.00,3056.00
             2553.00,3056.00 2550.00,3056.00 2550.00,3056.00
             2549.20,3061.13 2545.04,3068.17 2540.00,3070.00
             2539.60,3075.35 2538.47,3077.17 2533.00,3078.00
             2530.83,3086.25 2523.36,3094.19 2517.08,3099.71
             2513.44,3102.91 2512.92,3104.30 2508.00,3105.00
             2508.00,3105.00 2507.04,3107.29 2507.04,3107.29
             2507.04,3107.29 2496.54,3117.12 2496.54,3117.12
             2496.54,3117.12 2491.00,3118.00 2491.00,3118.00
             2491.00,3118.00 2481.00,3128.00 2481.00,3128.00
             2481.00,3128.00 2476.00,3128.00 2476.00,3128.00
             2476.00,3128.00 2476.00,3131.00 2476.00,3131.00
             2476.00,3131.00 2470.00,3131.00 2470.00,3131.00
             2470.00,3131.00 2470.00,3134.00 2470.00,3134.00
             2470.00,3134.00 2455.17,3137.96 2455.17,3137.96
             2455.17,3137.96 2449.91,3140.85 2449.91,3140.85
             2449.91,3140.85 2444.00,3140.85 2444.00,3140.85
             2444.00,3140.85 2440.00,3154.00 2440.00,3154.00
             2440.00,3154.00 2437.00,3154.00 2437.00,3154.00
             2437.00,3154.00 2437.00,3159.00 2437.00,3159.00
             2437.00,3159.00 2434.00,3159.00 2434.00,3159.00
             2434.00,3159.00 2434.00,3164.00 2434.00,3164.00
             2434.00,3164.00 2427.00,3169.00 2427.00,3169.00
             2426.43,3176.73 2421.39,3179.72 2416.12,3184.50
             2416.12,3184.50 2410.25,3191.34 2410.25,3191.34
             2406.55,3194.78 2398.52,3200.84 2396.00,3205.00
             2396.00,3205.00 2381.00,3212.00 2381.00,3212.00
             2381.00,3212.00 2381.00,3215.00 2381.00,3215.00
             2381.00,3215.00 2377.00,3215.00 2377.00,3215.00
             2377.00,3215.00 2377.00,3218.00 2377.00,3218.00
             2377.00,3218.00 2372.00,3217.00 2372.00,3217.00
             2372.00,3217.00 2371.00,3221.00 2371.00,3221.00
             2371.00,3221.00 2364.00,3221.00 2364.00,3221.00
             2364.00,3221.00 2364.00,3224.00 2364.00,3224.00
             2364.00,3224.00 2350.00,3228.00 2350.00,3228.00
             2350.38,3239.22 2362.87,3255.36 2363.00,3267.00
             2363.00,3267.00 2366.00,3267.00 2366.00,3267.00
             2366.00,3267.00 2366.00,3275.00 2366.00,3275.00
             2366.00,3275.00 2369.00,3275.00 2369.00,3275.00
             2369.00,3275.00 2373.00,3291.00 2373.00,3291.00
             2373.00,3291.00 2376.00,3291.00 2376.00,3291.00
             2376.00,3291.00 2376.00,3300.00 2376.00,3300.00
             2376.00,3300.00 2379.00,3300.00 2379.00,3300.00
             2379.00,3300.00 2379.00,3307.00 2379.00,3307.00
             2379.00,3307.00 2382.00,3307.00 2382.00,3307.00
             2382.00,3307.00 2382.00,3316.00 2382.00,3316.00
             2386.43,3317.73 2385.90,3320.71 2386.00,3325.00
             2386.00,3325.00 2389.00,3325.00 2389.00,3325.00
             2389.00,3325.00 2388.00,3332.00 2388.00,3332.00
             2388.00,3332.00 2392.00,3333.00 2392.00,3333.00
             2392.00,3333.00 2392.00,3341.00 2392.00,3341.00
             2392.00,3341.00 2395.00,3341.00 2395.00,3341.00
             2395.26,3348.67 2396.59,3346.39 2397.73,3351.17
             2397.73,3351.17 2398.58,3355.91 2398.58,3355.91
             2400.35,3360.86 2401.88,3358.03 2402.00,3367.00
             2402.00,3367.00 2405.00,3367.00 2405.00,3367.00
             2405.00,3367.00 2405.00,3376.00 2405.00,3376.00
             2405.00,3376.00 2408.00,3376.00 2408.00,3376.00
             2408.00,3376.00 2408.00,3384.00 2408.00,3384.00
             2408.00,3384.00 2411.00,3384.00 2411.00,3384.00
             2411.13,3397.06 2415.91,3391.88 2414.00,3404.00
             2418.88,3405.71 2417.98,3408.36 2418.00,3413.00
             2418.00,3413.00 2421.00,3413.00 2421.00,3413.00
             2421.00,3413.00 2421.00,3423.00 2421.00,3423.00
             2421.00,3423.00 2424.00,3423.00 2424.00,3423.00
             2424.00,3423.00 2431.00,3451.00 2431.00,3451.00
             2431.00,3451.00 1570.00,3451.00 1570.00,3451.00
             1570.00,3451.00 1570.00,3440.00 1570.00,3440.00
             1570.00,3440.00 1573.00,3440.00 1573.00,3440.00
             1573.00,3434.02 1571.50,3429.52 1577.00,3426.00
             1575.93,3421.53 1574.90,3416.99 1580.00,3415.00
             1580.00,3415.00 1580.00,3402.00 1580.00,3402.00
             1580.00,3402.00 1583.00,3402.00 1583.00,3402.00
             1583.00,3402.00 1583.00,3391.00 1583.00,3391.00
             1583.00,3391.00 1586.00,3391.00 1586.00,3391.00
             1586.00,3376.27 1587.03,3382.80 1588.71,3375.91
             1588.71,3375.91 1589.58,3371.17 1589.58,3371.17
             1591.58,3365.72 1592.99,3369.83 1593.00,3358.00
             1593.00,3358.00 1596.00,3358.00 1596.00,3358.00
             1596.00,3358.00 1596.00,3346.00 1596.00,3346.00
             1596.00,3346.00 1599.00,3346.00 1599.00,3346.00
             1599.00,3346.00 1599.00,3336.00 1599.00,3336.00
             1599.00,3336.00 1603.00,3335.00 1603.00,3335.00
             1603.00,3335.00 1602.00,3327.00 1602.00,3327.00
             1602.00,3327.00 1606.00,3324.00 1606.00,3324.00
             1606.00,3324.00 1601.00,3324.00 1601.00,3324.00
             1601.00,3324.00 1601.00,3321.00 1601.00,3321.00
             1601.00,3321.00 1591.00,3321.00 1591.00,3321.00
             1591.00,3321.00 1591.00,3318.00 1591.00,3318.00
             1591.00,3318.00 1583.00,3318.00 1583.00,3318.00
             1583.00,3318.00 1583.00,3315.00 1583.00,3315.00
             1583.00,3315.00 1561.00,3308.00 1561.00,3308.00
             1561.00,3308.00 1561.00,3305.00 1561.00,3305.00
             1561.00,3305.00 1555.00,3305.00 1555.00,3305.00
             1555.00,3305.00 1555.00,3302.00 1555.00,3302.00
             1548.70,3301.50 1549.31,3300.20 1544.57,3296.94
             1541.28,3294.67 1540.37,3295.26 1537.00,3292.35
             1537.00,3292.35 1522.95,3277.25 1522.95,3277.25
             1517.75,3272.52 1513.22,3270.71 1512.00,3263.00
             1506.89,3261.15 1506.16,3258.03 1506.00,3253.00
             1506.00,3253.00 1499.00,3248.00 1499.00,3248.00
             1497.52,3238.42 1489.27,3231.79 1489.00,3220.00
             1489.00,3220.00 1486.00,3220.00 1486.00,3220.00
             1486.00,3220.00 1486.00,3211.00 1486.00,3211.00
             1486.00,3211.00 1483.00,3211.00 1483.00,3211.00
             1483.00,3211.00 1483.00,3202.00 1483.00,3202.00
             1483.00,3202.00 1480.00,3202.00 1480.00,3202.00
             1480.00,3184.49 1474.90,3190.36 1477.00,3177.00
             1470.90,3174.62 1473.00,3164.39 1473.00,3159.00
             1473.00,3159.00 1470.00,3159.00 1470.00,3159.00
             1470.00,3159.00 1470.00,3135.00 1470.00,3135.00
             1470.00,3135.00 1467.00,3135.00 1467.00,3135.00
             1467.00,3135.00 1467.00,3126.00 1467.00,3126.00
             1467.00,3126.00 1464.00,3126.00 1464.00,3126.00
             1462.89,3118.83 1456.20,3111.14 1458.00,3104.00
             1458.00,3104.00 1454.00,3103.00 1454.00,3103.00
             1454.00,3103.00 1454.00,3096.00 1454.00,3096.00
             1454.00,3096.00 1451.00,3096.00 1451.00,3096.00
             1451.00,3096.00 1451.00,3087.00 1451.00,3087.00
             1451.00,3087.00 1448.00,3087.00 1448.00,3087.00
             1448.00,3087.00 1444.00,3071.00 1444.00,3071.00
             1444.00,3071.00 1441.00,3071.00 1441.00,3071.00
             1441.00,3071.00 1441.00,3063.00 1441.00,3063.00
             1441.00,3063.00 1438.00,3063.00 1438.00,3063.00
             1438.00,3063.00 1435.00,3046.00 1435.00,3046.00
             1430.33,3044.31 1431.04,3041.45 1431.00,3037.00
             1431.00,3037.00 1428.00,3037.00 1428.00,3037.00
             1428.00,3037.00 1428.00,3029.00 1428.00,3029.00
             1428.00,3029.00 1425.00,3029.00 1425.00,3029.00
             1425.00,3029.00 1425.00,3020.00 1425.00,3020.00
             1425.00,3020.00 1422.00,3020.00 1422.00,3020.00
             1422.00,3020.00 1422.00,3011.00 1422.00,3011.00
             1422.00,3011.00 1419.00,3011.00 1419.00,3011.00
             1419.00,3011.00 1415.00,2992.00 1415.00,2992.00
             1415.00,2992.00 1412.00,2992.00 1412.00,2992.00
             1412.00,2992.00 1412.00,2984.00 1412.00,2984.00
             1412.00,2984.00 1409.00,2984.00 1409.00,2984.00
             1409.00,2984.00 1409.00,2973.00 1409.00,2973.00
             1409.00,2973.00 1406.00,2973.00 1406.00,2973.00
             1405.75,2961.81 1399.01,2957.52 1399.00,2944.00
             1399.00,2944.00 1396.00,2944.00 1396.00,2944.00
             1396.00,2944.00 1396.00,2933.00 1396.00,2933.00
             1396.00,2933.00 1393.00,2933.00 1393.00,2933.00
             1393.00,2933.00 1393.00,2922.00 1393.00,2922.00
             1393.00,2922.00 1390.00,2922.00 1390.00,2922.00
             1390.00,2922.00 1386.54,2908.83 1386.54,2908.83
             1386.54,2908.83 1385.46,2903.17 1385.46,2903.17
             1385.46,2903.17 1383.15,2897.91 1383.15,2897.91
             1383.15,2897.91 1383.15,2890.00 1383.15,2890.00
             1383.15,2890.00 1380.00,2890.00 1380.00,2890.00
             1380.00,2874.94 1378.68,2881.20 1377.27,2874.83
             1377.27,2874.83 1376.45,2868.09 1376.45,2868.09
             1374.96,2863.46 1371.38,2862.78 1374.00,2852.00
             1374.00,2852.00 1370.00,2851.00 1370.00,2851.00
             1370.00,2851.00 1370.00,2838.00 1370.00,2838.00
             1370.00,2838.00 1367.00,2838.00 1367.00,2838.00
             1367.00,2838.00 1367.00,2826.00 1367.00,2826.00
             1367.00,2826.00 1364.00,2826.00 1364.00,2826.00
             1364.00,2826.00 1364.00,2810.00 1364.00,2810.00
             1364.00,2810.00 1361.00,2810.00 1361.00,2810.00
             1361.00,2810.00 1359.51,2796.17 1359.51,2796.17
             1359.51,2796.17 1357.11,2789.96 1357.11,2789.96
             1357.11,2789.96 1357.11,2778.00 1357.11,2778.00
             1357.11,2778.00 1354.00,2778.00 1354.00,2778.00
             1354.00,2778.00 1354.00,2760.00 1354.00,2760.00
             1354.00,2760.00 1351.00,2760.00 1351.00,2760.00
             1351.00,2760.00 1351.00,2739.00 1351.00,2739.00
             1351.00,2739.00 1348.00,2739.00 1348.00,2739.00
             1348.00,2739.00 1348.00,2725.00 1348.00,2725.00
             1347.94,2715.80 1346.06,2718.66 1344.81,2711.96
             1343.44,2706.43 1343.48,2690.35 1344.81,2685.00
             1340.66,2682.22 1341.03,2680.93 1341.14,2676.00
             1341.14,2676.00 1341.14,2648.00 1341.14,2648.00
             1341.14,2648.00 1341.14,2636.00 1341.14,2636.00
             1341.14,2636.00 1338.00,2636.00 1338.00,2636.00
             1338.00,2636.00 1338.00,2585.00 1338.00,2585.00
             1338.00,2585.00 1341.00,2585.00 1341.00,2585.00
             1341.00,2585.00 1341.00,2544.00 1341.00,2544.00
             1341.00,2544.00 1344.00,2544.00 1344.00,2544.00
             1344.00,2544.00 1344.00,2526.00 1344.00,2526.00
             1344.13,2515.55 1346.58,2516.94 1347.85,2511.96
             1347.85,2511.96 1347.85,2497.00 1347.85,2497.00
             1347.85,2497.00 1351.00,2497.00 1351.00,2497.00
             1351.00,2497.00 1351.00,2481.00 1351.00,2481.00
             1351.00,2481.00 1354.00,2481.00 1354.00,2481.00
             1354.00,2481.00 1354.00,2467.00 1354.00,2467.00
             1354.00,2467.00 1357.00,2467.00 1357.00,2467.00
             1357.00,2467.00 1357.00,2457.00 1357.00,2457.00
             1361.32,2454.77 1360.38,2449.70 1361.00,2445.00
             1361.00,2445.00 1364.00,2445.00 1364.00,2445.00
             1364.00,2445.00 1364.00,2434.00 1364.00,2434.00
             1364.00,2434.00 1367.00,2434.00 1367.00,2434.00
             1367.00,2434.00 1367.00,2425.00 1367.00,2425.00
             1367.00,2425.00 1370.00,2425.00 1370.00,2425.00
             1370.00,2425.00 1370.00,2417.00 1370.00,2417.00
             1370.00,2417.00 1374.00,2417.00 1374.00,2417.00
             1372.13,2408.45 1379.32,2402.69 1380.00,2394.00
             1380.00,2394.00 1383.00,2394.00 1383.00,2394.00
             1383.00,2394.00 1383.00,2387.00 1383.00,2387.00
             1383.00,2387.00 1386.00,2387.00 1386.00,2387.00
             1386.00,2387.00 1386.00,2382.00 1386.00,2382.00
             1389.71,2379.91 1389.66,2379.14 1390.00,2375.00
             1390.00,2375.00 1393.00,2375.00 1393.00,2375.00
             1393.00,2375.00 1393.00,2368.00 1393.00,2368.00
             1393.00,2368.00 1396.00,2368.00 1396.00,2368.00
             1396.00,2368.00 1396.00,2363.00 1396.00,2363.00
             1396.00,2363.00 1399.00,2363.00 1399.00,2363.00
             1399.62,2359.46 1399.58,2359.20 1402.92,2358.00
             1402.92,2358.00 1402.92,2354.17 1402.92,2354.17
             1402.92,2354.17 1412.00,2339.00 1412.00,2339.00
             1412.00,2339.00 1416.00,2339.00 1416.00,2339.00
             1416.48,2331.90 1419.58,2328.56 1426.00,2326.00
             1426.00,2326.00 1423.00,2319.00 1423.00,2319.00
             1423.00,2319.00 1418.00,2319.00 1418.00,2319.00
             1415.77,2315.41 1406.16,2310.16 1402.00,2309.00
             1402.00,2309.00 1402.00,2306.00 1402.00,2306.00
             1402.00,2306.00 1393.00,2303.00 1393.00,2303.00
             1393.00,2303.00 1393.00,2300.00 1393.00,2300.00
             1389.46,2299.38 1389.20,2299.42 1388.00,2296.00
             1388.00,2296.00 1378.00,2293.00 1378.00,2293.00
             1378.00,2293.00 1378.00,2289.00 1378.00,2289.00
             1372.55,2288.30 1365.98,2285.46 1364.00,2280.00
             1364.00,2280.00 1355.00,2277.00 1355.00,2277.00
             1355.00,2277.00 1355.00,2274.00 1355.00,2274.00
             1355.00,2274.00 1351.00,2274.00 1351.00,2274.00
             1351.00,2274.00 1342.00,2263.00 1342.00,2263.00
             1342.00,2263.00 1338.00,2264.00 1338.00,2264.00
             1338.00,2264.00 1334.00,2261.00 1334.00,2261.00
             1334.00,2261.00 1326.00,2251.00 1326.00,2251.00
             1326.00,2251.00 1321.00,2251.00 1321.00,2251.00
             1321.00,2251.00 1310.00,2238.00 1310.00,2238.00
             1310.00,2238.00 1306.00,2238.00 1306.00,2238.00
             1306.00,2238.00 1306.00,2235.00 1306.00,2235.00
             1296.51,2233.66 1289.07,2218.45 1280.00,2216.00
             1280.00,2216.00 1261.64,2198.41 1261.64,2198.41
             1261.64,2198.41 1252.88,2189.89 1252.88,2189.89
             1252.88,2189.89 1247.55,2183.47 1247.55,2183.47
             1247.55,2183.47 1242.46,2179.54 1242.46,2179.54
             1242.46,2179.54 1233.93,2171.08 1233.93,2171.08
             1233.93,2171.08 1228.52,2164.37 1228.52,2164.37
             1228.52,2164.37 1223.43,2160.35 1223.43,2160.35
             1223.43,2160.35 1213.76,2150.12 1213.76,2150.12
             1209.85,2146.07 1206.89,2144.88 1206.00,2139.00
             1206.00,2139.00 1196.00,2132.00 1196.00,2132.00
             1194.20,2124.86 1191.76,2125.50 1187.51,2120.71
             1183.84,2116.56 1182.14,2112.66 1177.00,2110.00
             1177.00,2110.00 1177.00,2105.00 1177.00,2105.00
             1177.00,2105.00 1164.00,2094.00 1164.00,2094.00
             1164.00,2094.00 1164.00,2090.00 1164.00,2090.00
             1158.42,2087.97 1152.75,2078.81 1152.00,2073.00
             1152.00,2073.00 1148.00,2073.00 1148.00,2073.00
             1145.07,2067.27 1142.50,2067.32 1142.00,2060.00
             1136.70,2058.43 1135.43,2056.39 1135.00,2051.00
             1135.00,2051.00 1125.00,2042.00 1125.00,2042.00
             1125.00,2042.00 1125.00,2038.00 1125.00,2038.00
             1120.37,2036.32 1119.34,2033.67 1119.00,2029.00
             1114.78,2027.40 1112.68,2023.29 1112.00,2019.00
             1112.00,2019.00 1109.00,2019.00 1109.00,2019.00
             1109.00,2019.00 1106.00,2009.00 1106.00,2009.00
             1098.27,2006.19 1102.62,2001.72 1096.00,1998.00
             1096.00,1998.00 1096.00,1994.00 1096.00,1994.00
             1096.00,1994.00 1093.00,1994.00 1093.00,1994.00
             1093.00,1994.00 1090.00,1983.00 1090.00,1983.00
             1085.06,1981.34 1083.57,1977.93 1083.00,1973.00
             1083.00,1973.00 1080.00,1973.00 1080.00,1973.00
             1080.00,1973.00 1080.00,1967.00 1080.00,1967.00
             1075.03,1965.20 1070.13,1956.06 1071.00,1951.00
             1071.00,1951.00 1067.00,1950.00 1067.00,1950.00
             1067.00,1950.00 1067.00,1945.00 1067.00,1945.00
             1067.00,1945.00 1064.00,1945.00 1064.00,1945.00
             1064.00,1945.00 1054.00,1921.00 1054.00,1921.00
             1054.00,1921.00 1051.00,1921.00 1051.00,1921.00
             1051.00,1921.00 1051.00,1916.00 1051.00,1916.00
             1051.00,1916.00 1048.00,1916.00 1048.00,1916.00
             1048.00,1916.00 1048.00,1909.00 1048.00,1909.00
             1048.00,1909.00 1045.00,1909.00 1045.00,1909.00
             1045.00,1909.00 1045.00,1902.00 1045.00,1902.00
             1041.31,1900.67 1041.45,1899.75 1041.00,1896.00
             1041.00,1896.00 1038.00,1896.00 1038.00,1896.00
             1038.00,1896.00 1038.00,1890.00 1038.00,1890.00
             1038.00,1890.00 1035.00,1890.00 1035.00,1890.00
             1035.00,1890.00 1035.00,1883.00 1035.00,1883.00
             1035.00,1883.00 1032.00,1883.00 1032.00,1883.00
             1032.00,1883.00 1032.00,1876.00 1032.00,1876.00
             1032.00,1876.00 1029.00,1876.00 1029.00,1876.00
             1029.00,1876.00 1022.00,1856.00 1022.00,1856.00
             1022.00,1856.00 1019.00,1856.00 1019.00,1856.00
             1019.00,1856.00 1019.00,1848.00 1019.00,1848.00
             1019.00,1848.00 1016.00,1848.00 1016.00,1848.00
             1016.00,1848.00 1016.00,1840.00 1016.00,1840.00
             1010.84,1838.14 1009.06,1829.99 1009.00,1825.00
             1009.00,1825.00 1006.00,1825.00 1006.00,1825.00
             1006.00,1825.00 1006.00,1818.00 1006.00,1818.00
             1006.00,1818.00 1003.00,1818.00 1003.00,1818.00
             1003.00,1818.00 996.00,1793.00 996.00,1793.00
             996.00,1793.00 993.00,1793.00 993.00,1793.00
             993.00,1793.00 993.00,1785.00 993.00,1785.00
             993.00,1785.00 990.00,1785.00 990.00,1785.00
             990.00,1785.00 990.00,1776.00 990.00,1776.00
             990.00,1776.00 987.00,1776.00 987.00,1776.00
             987.00,1776.00 983.00,1757.00 983.00,1757.00
             983.00,1757.00 980.00,1757.00 980.00,1757.00
             980.00,1757.00 980.00,1750.00 980.00,1750.00
             980.00,1750.00 977.00,1750.00 977.00,1750.00
             977.00,1750.00 977.00,1744.00 977.00,1744.00
             977.00,1744.00 974.00,1744.00 974.00,1744.00
             974.00,1744.00 974.00,1739.00 974.00,1739.00
             974.00,1739.00 966.00,1739.00 966.00,1739.00
             966.00,1739.00 966.00,1736.00 966.00,1736.00
             961.41,1735.99 957.78,1736.93 956.00,1732.00
             956.00,1732.00 946.00,1732.00 946.00,1732.00
             946.00,1732.00 946.00,1729.00 946.00,1729.00
             946.00,1729.00 939.00,1729.00 939.00,1729.00
             939.00,1729.00 939.00,1726.00 939.00,1726.00
             939.00,1726.00 932.00,1726.00 932.00,1726.00
             932.00,1726.00 932.00,1723.00 932.00,1723.00
             932.00,1723.00 918.00,1719.00 918.00,1719.00
             918.00,1719.00 918.00,1716.00 918.00,1716.00
             918.00,1716.00 911.00,1716.00 911.00,1716.00
             911.00,1716.00 911.00,1713.00 911.00,1713.00
             911.00,1713.00 905.00,1713.00 905.00,1713.00
             905.00,1713.00 905.00,1710.00 905.00,1710.00
             900.73,1709.33 895.53,1707.27 894.00,1703.00
             894.00,1703.00 889.00,1703.00 889.00,1703.00
             889.00,1703.00 889.00,1700.00 889.00,1700.00
             883.66,1699.94 880.03,1699.61 878.00,1694.00
             871.01,1693.45 862.93,1686.70 865.73,1679.00
             866.97,1675.60 871.49,1670.77 873.95,1668.00
             879.01,1662.31 887.15,1651.81 894.00,1649.00
             893.55,1646.50 892.83,1643.52 893.29,1641.00
             894.21,1635.97 903.82,1627.50 907.68,1623.89
             907.68,1623.89 928.34,1604.13 928.34,1604.13
             928.34,1604.13 943.28,1590.54 943.28,1590.54
             943.28,1590.54 951.33,1584.34 951.33,1584.34
             958.25,1578.15 968.51,1568.01 976.09,1563.01
             979.74,1560.61 980.95,1561.54 985.00,1558.78
             985.00,1558.78 1006.00,1543.02 1006.00,1543.02
             1025.43,1529.61 1045.36,1517.31 1066.00,1505.86
             1066.00,1505.86 1079.96,1498.42 1079.96,1498.42
             1086.85,1494.15 1082.02,1494.90 1096.00,1488.47
             1096.00,1488.47 1137.00,1471.74 1137.00,1471.74
             1137.00,1471.74 1185.00,1456.67 1185.00,1456.67
             1211.79,1447.77 1238.17,1437.55 1264.00,1426.14
             1264.00,1426.14 1307.00,1405.75 1307.00,1405.75
             1307.00,1405.75 1324.00,1396.82 1324.00,1396.82
             1324.00,1396.82 1346.00,1386.69 1346.00,1386.69
             1346.00,1386.69 1423.00,1340.12 1423.00,1340.12
             1431.94,1334.72 1434.00,1339.05 1440.09,1335.54
             1440.09,1335.54 1476.00,1310.43 1476.00,1310.43
             1505.41,1289.40 1534.04,1267.50 1562.00,1244.58
             1602.68,1211.23 1641.21,1175.44 1678.91,1138.83
             1678.91,1138.83 1686.04,1131.00 1686.04,1131.00
             1686.04,1131.00 1704.00,1113.00 1704.00,1113.00
             1704.00,1113.00 1736.58,1078.00 1736.58,1078.00
             1741.71,1072.07 1746.58,1063.68 1755.00,1063.00
             1755.00,1063.00 1755.00,1104.00 1755.00,1104.00
             1755.00,1104.00 1752.17,1135.00 1752.17,1135.00
             1752.17,1135.00 1744.55,1188.00 1744.55,1188.00
             1734.59,1237.53 1719.08,1285.62 1704.72,1334.00
             1704.72,1334.00 1687.92,1395.00 1687.92,1395.00
             1687.92,1395.00 1682.00,1418.00 1682.00,1418.00
             1687.93,1416.31 1696.02,1411.72 1702.00,1409.02
             1702.00,1409.02 1749.00,1386.42 1749.00,1386.42
             1793.18,1363.69 1836.37,1337.17 1870.96,1301.00
             1923.70,1245.86 1951.60,1179.37 1959.17,1104.00
             1959.17,1104.00 1962.00,1074.00 1962.00,1074.00
             1962.00,1074.00 1962.00,1051.00 1962.00,1051.00
             1962.00,1051.00 1963.00,1031.00 1963.00,1031.00
             1963.00,1031.00 1964.91,1011.00 1964.91,1011.00
             1967.84,968.22 1975.79,926.30 1987.26,885.00
             1995.40,855.64 2007.64,820.49 2022.58,794.00
             2034.86,772.22 2048.93,748.66 2069.00,733.12
             2075.47,728.11 2081.74,722.55 2090.00,721.00
             2090.00,721.00 2076.00,689.00 2076.00,689.00
             2076.00,689.00 2072.87,682.58 2072.87,682.58
             2072.87,682.58 2072.09,674.00 2072.09,674.00
             2072.09,674.00 2064.39,653.72 2064.39,653.72
             2064.39,653.72 2048.40,603.72 2048.40,603.72
             2048.40,603.72 2040.31,573.04 2040.31,573.04
             2040.31,573.04 2038.43,567.72 2038.43,567.72
             2038.43,567.72 2037.48,562.00 2037.48,562.00
             2037.48,562.00 2034.16,549.04 2034.16,549.04
             2034.16,549.04 2032.20,542.83 2032.20,542.83
             2032.20,542.83 2030.56,534.00 2030.56,534.00
             2030.56,534.00 2028.56,527.17 2028.56,527.17
             2028.56,527.17 2027.67,518.00 2027.67,518.00
             2027.67,518.00 2025.38,510.00 2025.38,510.00
             2025.38,510.00 2024.83,501.00 2024.83,501.00
             2024.83,501.00 2022.07,486.00 2022.07,486.00
             2022.07,486.00 2022.07,477.00 2022.07,477.00
             2022.07,477.00 2019.53,463.00 2019.53,463.00
             2019.53,463.00 2018.00,436.00 2018.00,436.00
             2018.00,436.00 2018.64,422.09 2018.64,422.09
             2018.64,422.09 2016.59,414.96 2016.59,414.96
             2016.59,414.96 2016.59,408.00 2016.59,408.00
             2016.59,408.00 2016.00,398.00 2016.00,398.00
             2016.00,398.00 2016.00,363.00 2016.00,363.00
             2016.00,363.00 2016.73,352.00 2016.73,352.00
             2016.73,352.00 2016.73,343.04 2016.73,343.04
             2016.73,343.04 2018.56,335.91 2018.56,335.91
             2018.56,335.91 2018.00,327.00 2018.00,327.00
             2018.00,327.00 2018.91,314.00 2018.91,314.00
             2018.91,314.00 2019.45,301.00 2019.45,301.00
             2019.45,301.00 2020.76,295.00 2020.76,295.00
             2020.76,295.00 2023.01,277.00 2023.01,277.00
             2023.01,277.00 2021.55,268.20 2021.55,268.20
             2021.55,268.20 2023.91,261.57 2023.91,261.57
             2023.91,261.57 2030.74,231.00 2030.74,231.00
             2030.74,231.00 2036.89,212.04 2036.89,212.04
             2036.89,212.04 2039.03,206.72 2039.03,206.72
             2039.03,206.72 2039.82,195.01 2039.82,195.01
             2039.82,195.01 2044.00,183.00 2044.00,183.00
             2044.00,183.00 2047.00,183.00 2047.00,183.00
             2047.00,183.00 2047.00,178.00 2047.00,178.00
             2047.00,178.00 2057.00,170.00 2057.00,170.00
             2057.00,170.00 2057.00,166.00 2057.00,166.00
             2060.73,164.07 2064.07,160.73 2066.00,157.00 Z
           M 688.00,750.00
           C 688.00,750.00 691.22,746.60 691.22,746.60
             691.22,746.60 713.00,746.00 713.00,746.00
             714.24,748.77 716.72,751.32 716.77,754.09
             716.86,758.60 706.92,772.53 704.00,777.00
             704.00,777.00 675.40,824.00 675.40,824.00
             646.29,873.11 618.76,934.40 598.81,988.00
             598.81,988.00 581.74,1039.00 581.74,1039.00
             580.08,1044.18 576.67,1058.02 573.04,1061.41
             568.08,1066.04 568.00,1056.34 568.00,1054.00
             568.00,1054.00 568.00,990.00 568.00,990.00
             568.00,990.00 571.00,990.00 571.00,990.00
             571.00,990.00 571.00,962.00 571.00,962.00
             571.00,962.00 574.00,962.00 574.00,962.00
             574.00,962.00 574.00,938.00 574.00,938.00
             574.00,938.00 577.00,938.00 577.00,938.00
             577.00,932.66 575.20,921.34 581.00,919.00
             581.00,919.00 581.00,906.00 581.00,906.00
             581.00,906.00 584.00,906.00 584.00,906.00
             584.00,906.00 584.00,892.00 584.00,892.00
             584.00,892.00 587.00,892.00 587.00,892.00
             587.00,892.00 587.00,881.00 587.00,881.00
             587.00,881.00 590.00,881.00 590.00,881.00
             590.00,881.00 590.00,871.00 590.00,871.00
             590.00,871.00 593.00,871.00 593.00,871.00
             593.00,871.00 597.00,853.00 597.00,853.00
             597.00,853.00 600.00,853.00 600.00,853.00
             600.00,853.00 600.00,845.00 600.00,845.00
             600.00,845.00 603.00,845.00 603.00,845.00
             603.00,845.00 603.00,838.00 603.00,838.00
             603.00,838.00 607.00,838.00 607.00,838.00
             607.00,838.00 606.00,832.00 606.00,832.00
             609.71,829.91 609.66,829.14 610.00,825.00
             610.00,825.00 613.00,825.00 613.00,825.00
             613.00,825.00 613.00,818.00 613.00,818.00
             613.00,818.00 616.00,818.00 616.00,818.00
             616.00,818.00 616.00,813.00 616.00,813.00
             616.00,813.00 619.00,813.00 619.00,813.00
             619.62,809.46 619.58,809.20 623.00,808.00
             622.10,802.79 624.04,800.47 629.00,799.00
             629.81,787.12 642.52,784.15 645.00,775.00
             645.00,775.00 648.00,772.00 648.00,772.00
             653.94,770.40 656.56,765.90 660.89,761.84
             663.39,759.49 665.11,759.02 667.00,756.00
             667.00,756.00 671.00,757.00 671.00,757.00
             673.95,750.40 681.35,748.12 688.00,750.00 Z
           M 597.00,1290.00
           C 597.00,1285.50 596.58,1279.13 598.14,1275.00
             600.72,1268.20 612.78,1257.28 618.42,1252.26
             618.42,1252.26 647.01,1226.29 647.01,1226.29
             647.01,1226.29 664.00,1211.28 664.00,1211.28
             664.00,1211.28 698.73,1183.16 698.73,1183.16
             698.73,1183.16 703.54,1178.51 703.54,1178.51
             722.26,1163.04 745.16,1150.68 766.00,1138.20
             766.00,1138.20 802.00,1119.36 802.00,1119.36
             809.14,1115.99 816.11,1112.22 824.00,1111.00
             823.58,1118.47 820.54,1121.76 816.80,1128.00
             816.80,1128.00 800.80,1154.00 800.80,1154.00
             783.95,1182.14 768.48,1210.73 753.75,1240.00
             753.75,1240.00 741.75,1263.00 741.75,1263.00
             739.48,1267.46 737.72,1268.96 737.00,1274.00
             733.07,1276.44 731.77,1280.90 729.83,1285.00
             729.83,1285.00 718.69,1309.00 718.69,1309.00
             708.43,1331.35 698.24,1353.86 689.86,1377.00
             689.86,1377.00 685.77,1391.00 685.77,1391.00
             685.77,1391.00 677.88,1413.00 677.88,1413.00
             677.88,1413.00 668.43,1443.00 668.43,1443.00
             667.47,1446.37 666.03,1454.22 663.49,1456.39
             661.20,1458.35 657.73,1457.35 655.00,1457.00
             655.00,1457.00 655.00,1450.00 655.00,1450.00
             650.01,1448.21 648.17,1441.89 648.00,1437.00
             648.00,1437.00 645.00,1437.00 645.00,1437.00
             645.00,1437.00 645.00,1429.00 645.00,1429.00
             645.00,1429.00 642.00,1429.00 642.00,1429.00
             642.00,1429.00 642.00,1422.00 642.00,1422.00
             642.00,1422.00 639.00,1422.00 639.00,1422.00
             639.00,1422.00 635.00,1405.00 635.00,1405.00
             635.00,1405.00 632.00,1405.00 632.00,1405.00
             632.00,1405.00 632.00,1397.00 632.00,1397.00
             632.00,1397.00 629.00,1397.00 629.00,1397.00
             629.00,1397.00 629.00,1389.00 629.00,1389.00
             629.00,1389.00 626.00,1389.00 626.00,1389.00
             626.00,1389.00 626.00,1379.00 626.00,1379.00
             626.00,1379.00 623.31,1377.41 623.31,1377.41
             623.31,1377.41 619.18,1365.96 619.18,1365.96
             619.18,1365.96 620.00,1360.00 620.00,1360.00
             620.00,1360.00 616.00,1359.00 616.00,1359.00
             616.00,1359.00 616.00,1350.00 616.00,1350.00
             616.00,1350.00 613.00,1350.00 613.00,1350.00
             613.00,1350.00 613.00,1339.00 613.00,1339.00
             613.00,1339.00 610.00,1339.00 610.00,1339.00
             610.00,1339.00 610.00,1328.00 610.00,1328.00
             605.04,1324.82 606.00,1322.48 606.00,1317.00
             606.00,1317.00 603.00,1317.00 603.00,1317.00
             603.00,1317.00 603.00,1305.00 603.00,1305.00
             603.00,1305.00 600.00,1305.00 600.00,1305.00
             600.00,1305.00 600.00,1290.00 600.00,1290.00
             600.00,1290.00 597.00,1290.00 597.00,1290.00 Z
           M 736.00,2418.00
           C 736.00,2418.00 849.00,2418.00 849.00,2418.00
             849.00,2418.00 849.00,2585.00 849.00,2585.00
             849.00,2585.00 1018.00,2585.00 1018.00,2585.00
             1018.00,2585.00 1018.00,2699.00 1018.00,2699.00
             1018.00,2699.00 849.00,2699.00 849.00,2699.00
             849.00,2699.00 849.00,2866.00 849.00,2866.00
             849.00,2866.00 736.00,2866.00 736.00,2866.00
             736.00,2866.00 736.00,2699.00 736.00,2699.00
             736.00,2699.00 567.00,2699.00 567.00,2699.00
             567.00,2699.00 567.00,2585.00 567.00,2585.00
             567.00,2585.00 736.00,2585.00 736.00,2585.00
             736.00,2585.00 736.00,2418.00 736.00,2418.00 Z
           M 2950.00,2758.00
           C 2950.00,2758.00 3063.00,2758.00 3063.00,2758.00
             3063.00,2758.00 3063.00,2925.00 3063.00,2925.00
             3063.00,2925.00 3232.00,2925.00 3232.00,2925.00
             3232.00,2925.00 3232.00,3039.00 3232.00,3039.00
             3232.00,3039.00 3063.00,3039.00 3063.00,3039.00
             3063.00,3039.00 3063.00,3206.00 3063.00,3206.00
             3063.00,3206.00 2950.00,3206.00 2950.00,3206.00
             2950.00,3206.00 2950.00,3039.00 2950.00,3039.00
             2950.00,3039.00 2781.00,3039.00 2781.00,3039.00
             2781.00,3039.00 2781.00,2925.00 2781.00,2925.00
             2781.00,2925.00 2950.00,2925.00 2950.00,2925.00
             2950.00,2925.00 2950.00,2758.00 2950.00,2758.00 Z" />
</svg>
