<?xml version="1.0" encoding="UTF-8" standalone="no"?>
<!DOCTYPE svg PUBLIC "-//W3C//DTD SVG 20010904//EN"
              "http://www.w3.org/TR/2001/REC-SVG-20010904/DTD/svg10.dtd">

<svg xmlns="http://www.w3.org/2000/svg"
     width="12in" height="12in"
     viewBox="0 0 3600 3600">
  <path id="10 - eye mid"
        fill="none" stroke="black" stroke-width="1"
        d="M 2488.00,1401.00
           C 2468.77,1401.00 2434.53,1394.78 2414.00,1392.28
             2414.00,1392.28 2394.00,1389.75 2394.00,1389.75
             2391.00,1389.26 2386.77,1389.03 2384.39,1387.11
             2379.45,1383.13 2381.97,1375.61 2382.00,1370.00
             2382.06,1356.85 2381.43,1337.75 2379.00,1325.00
             2379.00,1325.00 2373.25,1292.00 2373.25,1292.00
             2372.01,1287.31 2368.76,1277.75 2370.74,1273.19
             2372.55,1269.00 2387.42,1262.43 2392.00,1260.08
             2392.00,1260.08 2423.00,1243.31 2423.00,1243.31
             2423.00,1243.31 2447.00,1230.20 2447.00,1230.20
             2452.09,1227.17 2464.68,1218.67 2470.57,1221.57
             2473.20,1222.86 2473.92,1228.32 2474.72,1231.00
             2474.72,1231.00 2481.47,1258.00 2481.47,1258.00
             2481.47,1258.00 2487.30,1293.00 2487.30,1293.00
             2487.30,1293.00 2488.83,1301.00 2488.83,1301.00
             2488.83,1301.00 2490.09,1323.00 2490.09,1323.00
             2490.09,1323.00 2491.00,1335.00 2491.00,1335.00
             2491.00,1335.00 2491.00,1362.00 2491.00,1362.00
             2491.00,1362.00 2490.00,1378.00 2490.00,1378.00
             2489.97,1384.37 2489.12,1394.77 2488.00,1401.00 Z
           M 1101.00,1714.00
           C 1115.41,1714.35 1131.73,1711.13 1146.00,1708.46
             1146.00,1708.46 1180.00,1703.20 1180.00,1703.20
             1180.00,1703.20 1203.00,1699.58 1203.00,1699.58
             1207.05,1698.84 1213.93,1697.23 1217.91,1698.31
             1223.14,1699.73 1228.62,1714.09 1231.43,1719.00
             1241.75,1737.04 1253.26,1753.91 1266.42,1770.00
             1270.28,1774.71 1281.34,1784.61 1279.50,1790.72
             1278.46,1794.18 1269.86,1802.16 1267.00,1805.00
             1267.00,1805.00 1231.00,1839.09 1231.00,1839.09
             1231.00,1839.09 1217.00,1852.96 1217.00,1852.96
             1217.00,1852.96 1202.00,1867.00 1202.00,1867.00
             1198.47,1870.52 1193.60,1876.84 1188.00,1875.67
             1184.45,1874.92 1182.13,1871.62 1179.92,1869.00
             1179.92,1869.00 1167.88,1854.00 1167.88,1854.00
             1152.19,1833.43 1134.02,1803.68 1123.59,1780.00
             1123.59,1780.00 1107.31,1740.00 1107.31,1740.00
             1104.12,1730.99 1101.03,1723.67 1101.00,1714.00 Z
           M 736.00,2418.00
           C 736.00,2418.00 849.00,2418.00 849.00,2418.00
             849.00,2418.00 849.00,2585.00 849.00,2585.00
             849.00,2585.00 1018.00,2585.00 1018.00,2585.00
             1018.00,2585.00 1018.00,2699.00 1018.00,2699.00
             1018.00,2699.00 849.00,2699.00 849.00,2699.00
             849.00,2699.00 849.00,2866.00 849.00,2866.00
             849.00,2866.00 736.00,2866.00 736.00,2866.00
             736.00,2866.00 736.00,2699.00 736.00,2699.00
             736.00,2699.00 567.00,2699.00 567.00,2699.00
             567.00,2699.00 567.00,2585.00 567.00,2585.00
             567.00,2585.00 736.00,2585.00 736.00,2585.00
             736.00,2585.00 736.00,2418.00 736.00,2418.00 Z
           M 2950.00,2758.00
           C 2950.00,2758.00 3063.00,2758.00 3063.00,2758.00
             3063.00,2758.00 3063.00,2925.00 3063.00,2925.00
             3063.00,2925.00 3232.00,2925.00 3232.00,2925.00
             3232.00,2925.00 3232.00,3039.00 3232.00,3039.00
             3232.00,3039.00 3063.00,3039.00 3063.00,3039.00
             3063.00,3039.00 3063.00,3206.00 3063.00,3206.00
             3063.00,3206.00 2950.00,3206.00 2950.00,3206.00
             2950.00,3206.00 2950.00,3039.00 2950.00,3039.00
             2950.00,3039.00 2781.00,3039.00 2781.00,3039.00
             2781.00,3039.00 2781.00,2925.00 2781.00,2925.00
             2781.00,2925.00 2950.00,2925.00 2950.00,2925.00
             2950.00,2925.00 2950.00,2758.00 2950.00,2758.00 Z" />
</svg>
