<?xml version="1.0" encoding="UTF-8" standalone="no"?>
<!DOCTYPE svg PUBLIC "-//W3C//DTD SVG 20010904//EN"
              "http://www.w3.org/TR/2001/REC-SVG-20010904/DTD/svg10.dtd">

<svg xmlns="http://www.w3.org/2000/svg"
     width="12in" height="12in"
     viewBox="0 0 3600 3600">
  <path id="11 - eye light"
        fill="none" stroke="black" stroke-width="1"
        d="M 2384.00,1385.00
           C 2384.00,1385.00 2447.00,1394.28 2447.00,1394.28
             2447.00,1394.28 2488.00,1399.00 2488.00,1399.00
             2488.00,1399.00 2481.42,1433.00 2481.42,1433.00
             2481.42,1433.00 2471.00,1470.00 2471.00,1470.00
             2462.92,1469.55 2451.68,1463.60 2444.00,1460.28
             2444.00,1460.28 2400.00,1441.70 2400.00,1441.70
             2400.00,1441.70 2385.00,1435.24 2385.00,1435.24
             2382.78,1434.42 2379.88,1434.02 2378.87,1431.71
             2377.27,1428.75 2378.54,1422.27 2378.87,1419.00
             2378.87,1419.00 2381.83,1401.00 2381.83,1401.00
             2382.54,1393.59 2380.78,1392.61 2384.00,1385.00 Z
           M 1188.00,1878.00
           C 1189.99,1871.76 1204.83,1859.44 1210.28,1854.49
             1210.28,1854.49 1227.00,1838.04 1227.00,1838.04
             1227.00,1838.04 1257.44,1809.33 1257.44,1809.33
             1257.44,1809.33 1271.96,1795.02 1271.96,1795.02
             1274.67,1792.30 1276.75,1789.49 1281.01,1790.32
             1284.46,1790.98 1286.69,1793.81 1289.17,1796.03
             1289.17,1796.03 1307.01,1812.18 1307.01,1812.18
             1310.16,1814.76 1313.56,1816.30 1312.68,1821.02
             1312.20,1823.59 1309.58,1827.50 1308.26,1830.00
             1308.26,1830.00 1297.43,1849.00 1297.43,1849.00
             1297.43,1849.00 1266.00,1905.00 1266.00,1905.00
             1266.00,1905.00 1255.30,1924.00 1255.30,1924.00
             1254.14,1926.05 1252.77,1929.40 1249.90,1929.10
             1247.59,1928.86 1235.56,1919.62 1233.00,1917.65
             1233.00,1917.65 1204.00,1892.91 1204.00,1892.91
             1198.66,1887.93 1193.96,1882.27 1188.00,1878.00 Z
           M 736.00,2418.00
           C 736.00,2418.00 849.00,2418.00 849.00,2418.00
             849.00,2418.00 849.00,2585.00 849.00,2585.00
             849.00,2585.00 1018.00,2585.00 1018.00,2585.00
             1018.00,2585.00 1018.00,2699.00 1018.00,2699.00
             1018.00,2699.00 849.00,2699.00 849.00,2699.00
             849.00,2699.00 849.00,2866.00 849.00,2866.00
             849.00,2866.00 736.00,2866.00 736.00,2866.00
             736.00,2866.00 736.00,2699.00 736.00,2699.00
             736.00,2699.00 567.00,2699.00 567.00,2699.00
             567.00,2699.00 567.00,2585.00 567.00,2585.00
             567.00,2585.00 736.00,2585.00 736.00,2585.00
             736.00,2585.00 736.00,2418.00 736.00,2418.00 Z
           M 2950.00,2758.00
           C 2950.00,2758.00 3063.00,2758.00 3063.00,2758.00
             3063.00,2758.00 3063.00,2925.00 3063.00,2925.00
             3063.00,2925.00 3232.00,2925.00 3232.00,2925.00
             3232.00,2925.00 3232.00,3039.00 3232.00,3039.00
             3232.00,3039.00 3063.00,3039.00 3063.00,3039.00
             3063.00,3039.00 3063.00,3206.00 3063.00,3206.00
             3063.00,3206.00 2950.00,3206.00 2950.00,3206.00
             2950.00,3206.00 2950.00,3039.00 2950.00,3039.00
             2950.00,3039.00 2781.00,3039.00 2781.00,3039.00
             2781.00,3039.00 2781.00,2925.00 2781.00,2925.00
             2781.00,2925.00 2950.00,2925.00 2950.00,2925.00
             2950.00,2925.00 2950.00,2758.00 2950.00,2758.00 Z" />
</svg>
