<?xml version="1.0" encoding="UTF-8" standalone="no"?>
<!DOCTYPE svg PUBLIC "-//W3C//DTD SVG 20010904//EN"
              "http://www.w3.org/TR/2001/REC-SVG-20010904/DTD/svg10.dtd">

<svg xmlns="http://www.w3.org/2000/svg"
     width="12in" height="12in"
     viewBox="0 0 3600 3600">
  <path id="12 - blacks"
        fill="none" stroke="black" stroke-width="1"
        d="M 2320.00,692.00
           C 2329.67,693.09 2344.30,706.93 2350.91,714.00
             2381.54,746.73 2385.25,784.59 2371.91,826.00
             2367.97,838.26 2362.90,850.34 2357.46,862.00
             2355.98,865.18 2351.26,872.59 2352.87,875.83
             2354.01,878.12 2358.81,881.01 2361.00,882.50
             2361.00,882.50 2379.00,896.00 2379.00,896.00
             2379.00,896.00 2397.87,913.37 2397.87,913.37
             2399.87,915.36 2403.16,919.43 2406.04,919.62
             2409.05,919.81 2414.56,915.35 2417.00,913.53
             2426.48,906.42 2432.81,900.70 2440.91,892.00
             2476.64,853.64 2480.24,803.85 2489.00,755.00
             2495.91,755.57 2496.72,759.17 2499.46,765.00
             2504.75,776.25 2506.80,782.01 2509.99,794.00
             2512.63,803.95 2513.12,816.69 2513.00,827.00
             2512.58,862.86 2490.42,895.15 2464.83,918.46
             2455.63,926.85 2446.23,934.90 2436.00,942.02
             2432.44,944.50 2427.19,947.10 2430.49,951.97
             2432.14,954.40 2439.34,959.95 2442.00,962.29
             2446.75,966.45 2450.56,971.00 2454.38,976.00
             2457.25,979.76 2459.20,985.60 2464.00,986.67
             2467.75,987.51 2470.08,985.63 2473.28,984.36
             2478.90,982.14 2483.52,981.00 2489.00,977.99
             2512.50,965.07 2529.61,942.60 2543.20,920.00
             2543.20,920.00 2561.26,886.00 2561.26,886.00
             2562.51,883.43 2565.08,875.51 2568.87,877.17
             2572.90,878.93 2572.90,884.37 2573.01,888.00
             2573.01,888.00 2575.00,914.00 2575.00,914.00
             2574.78,932.52 2569.22,948.96 2560.28,965.00
             2560.28,965.00 2554.63,975.00 2554.63,975.00
             2544.98,988.38 2526.17,1004.23 2512.00,1012.78
             2512.00,1012.78 2501.00,1018.13 2501.00,1018.13
             2501.00,1018.13 2492.72,1022.86 2492.72,1022.86
             2492.72,1022.86 2476.09,1030.42 2476.09,1030.42
             2472.86,1032.13 2466.71,1035.60 2463.04,1034.73
             2460.04,1034.03 2456.81,1030.04 2454.70,1027.83
             2454.70,1027.83 2438.02,1010.09 2438.02,1010.09
             2423.45,995.59 2393.89,971.50 2377.00,959.43
             2377.00,959.43 2343.00,936.23 2343.00,936.23
             2312.44,916.98 2267.59,895.04 2232.00,888.46
             2210.28,884.45 2199.74,884.75 2178.00,885.00
             2172.14,885.07 2167.65,886.18 2162.00,887.34
             2143.13,891.21 2126.31,897.33 2110.00,907.86
             2085.84,923.47 2069.70,943.60 2052.44,966.04
             2048.91,970.63 2039.78,988.12 2037.18,994.00
             2030.61,1008.81 2024.20,1023.48 2019.45,1039.00
             2019.45,1039.00 2012.00,1064.00 2012.00,1064.00
             2012.00,1064.00 2036.00,1046.92 2036.00,1046.92
             2047.69,1039.92 2072.54,1029.06 2086.00,1029.00
             2086.00,1029.00 2096.00,1029.00 2096.00,1029.00
             2094.85,1035.13 2091.88,1039.29 2089.95,1045.00
             2088.00,1050.81 2085.67,1065.82 2086.09,1072.00
             2086.09,1072.00 2088.54,1087.00 2088.54,1087.00
             2088.54,1087.00 2089.53,1094.00 2089.53,1094.00
             2093.94,1113.27 2104.66,1133.98 2116.09,1150.00
             2143.32,1188.15 2186.17,1222.67 2232.00,1235.22
             2232.00,1235.22 2239.00,1236.38 2239.00,1236.38
             2239.00,1236.38 2247.00,1238.79 2247.00,1238.79
             2247.00,1238.79 2266.00,1239.99 2266.00,1239.99
             2284.58,1240.41 2304.32,1235.04 2318.00,1221.96
             2324.14,1216.09 2327.18,1212.36 2331.38,1205.00
             2335.13,1198.44 2333.51,1196.95 2339.00,1196.00
             2340.09,1200.08 2343.65,1204.67 2345.74,1209.00
             2345.74,1209.00 2356.17,1233.00 2356.17,1233.00
             2356.17,1233.00 2366.38,1261.00 2366.38,1261.00
             2366.38,1261.00 2367.83,1267.00 2367.83,1267.00
             2367.83,1267.00 2372.05,1278.17 2372.05,1278.17
             2372.05,1278.17 2378.69,1307.00 2378.69,1307.00
             2382.95,1329.82 2384.19,1350.85 2384.00,1374.00
             2384.00,1374.00 2384.64,1386.00 2384.64,1386.00
             2384.64,1386.00 2382.98,1393.00 2382.98,1393.00
             2382.98,1393.00 2382.98,1403.00 2382.98,1403.00
             2382.98,1403.00 2378.48,1431.00 2378.48,1431.00
             2378.48,1431.00 2373.63,1447.00 2373.63,1447.00
             2373.63,1447.00 2365.98,1471.00 2365.98,1471.00
             2365.98,1471.00 2358.27,1487.00 2358.27,1487.00
             2340.51,1521.03 2312.39,1549.80 2275.00,1561.55
             2253.76,1568.23 2242.06,1569.25 2220.00,1569.00
             2211.81,1568.90 2203.97,1567.40 2196.00,1565.81
             2161.09,1558.82 2131.75,1544.55 2103.00,1523.51
             2103.00,1523.51 2081.00,1505.83 2081.00,1505.83
             2076.22,1501.51 2072.28,1496.78 2067.00,1493.00
             2068.33,1498.06 2081.48,1523.13 2084.77,1529.00
             2084.77,1529.00 2116.61,1582.99 2116.61,1582.99
             2121.92,1591.35 2132.98,1601.75 2135.00,1610.00
             2129.41,1608.34 2126.69,1604.17 2122.92,1599.91
             2122.92,1599.91 2101.58,1574.00 2101.58,1574.00
             2073.38,1537.81 2051.19,1502.68 2030.06,1462.00
             2002.04,1408.04 1982.79,1348.61 1971.69,1289.00
             1971.69,1289.00 1966.29,1258.00 1966.29,1258.00
             1966.29,1258.00 1965.71,1249.00 1965.71,1249.00
             1965.71,1249.00 1963.08,1232.00 1963.08,1232.00
             1963.08,1232.00 1963.08,1223.00 1963.08,1223.00
             1963.08,1223.00 1962.00,1203.00 1962.00,1203.00
             1962.00,1203.00 1961.00,1187.00 1961.00,1187.00
             1961.00,1187.00 1961.00,1163.00 1961.00,1163.00
             1961.00,1163.00 1962.00,1144.00 1962.00,1144.00
             1962.00,1144.00 1963.00,1128.00 1963.00,1128.00
             1963.02,1119.78 1964.69,1113.85 1965.71,1106.00
             1965.71,1106.00 1966.29,1098.00 1966.29,1098.00
             1966.29,1098.00 1971.99,1068.00 1971.99,1068.00
             1986.11,1002.73 2014.62,936.63 2063.99,890.09
             2086.86,868.52 2113.09,851.46 2143.00,841.49
             2143.00,841.49 2158.00,836.68 2158.00,836.68
             2158.00,836.68 2166.00,835.54 2166.00,835.54
             2178.18,833.33 2173.44,833.15 2187.00,833.00
             2187.00,833.00 2207.00,832.00 2207.00,832.00
             2207.00,832.00 2224.00,833.00 2224.00,833.00
             2232.30,833.01 2235.27,834.18 2243.00,835.54
             2243.00,835.54 2252.00,836.46 2252.00,836.46
             2252.00,836.46 2288.00,846.14 2288.00,846.14
             2288.00,846.14 2309.00,853.92 2309.00,853.92
             2311.34,854.99 2316.30,857.67 2318.79,856.72
             2322.14,855.44 2327.65,840.81 2329.09,837.00
             2332.89,826.92 2336.95,808.71 2337.00,798.00
             2337.00,798.00 2337.96,783.00 2337.96,783.00
             2337.96,783.00 2337.00,768.00 2337.00,768.00
             2336.85,755.94 2330.25,729.18 2326.71,717.00
             2324.10,708.08 2320.21,701.56 2320.00,692.00 Z
           M 1201.00,1651.00
           C 1201.00,1651.00 1208.00,1651.00 1208.00,1651.00
             1217.25,1650.99 1214.96,1650.44 1223.00,1648.50
             1249.06,1642.21 1274.20,1621.93 1290.35,1601.00
             1312.36,1572.48 1326.25,1546.03 1335.04,1511.00
             1335.04,1511.00 1337.61,1503.00 1337.61,1503.00
             1337.61,1503.00 1338.46,1495.00 1338.46,1495.00
             1338.46,1495.00 1340.99,1485.00 1340.99,1485.00
             1340.99,1485.00 1340.99,1474.00 1340.99,1474.00
             1342.00,1465.32 1343.11,1463.93 1343.00,1454.00
             1343.00,1454.00 1340.68,1429.00 1340.68,1429.00
             1340.68,1429.00 1337.45,1414.00 1337.45,1414.00
             1337.45,1414.00 1333.84,1404.09 1333.84,1404.09
             1332.63,1397.71 1341.63,1394.43 1346.00,1391.96
             1346.00,1391.96 1354.00,1387.28 1354.00,1387.28
             1354.00,1387.28 1409.00,1354.50 1409.00,1354.50
             1413.63,1351.49 1427.09,1341.81 1432.00,1342.20
             1437.53,1342.64 1447.56,1353.64 1451.83,1357.54
             1468.32,1372.57 1487.27,1393.62 1501.39,1411.00
             1548.33,1468.77 1588.24,1541.60 1609.77,1613.00
             1609.77,1613.00 1618.25,1641.00 1618.25,1641.00
             1618.25,1641.00 1625.67,1673.00 1625.67,1673.00
             1625.67,1673.00 1628.25,1684.00 1628.25,1684.00
             1628.25,1684.00 1635.29,1728.00 1635.29,1728.00
             1635.29,1728.00 1636.83,1736.00 1636.83,1736.00
             1636.83,1736.00 1638.17,1754.00 1638.17,1754.00
             1638.17,1754.00 1641.00,1786.00 1641.00,1786.00
             1641.01,1789.25 1641.65,1801.14 1640.01,1803.28
             1639.10,1804.46 1638.21,1804.51 1637.00,1805.00
             1637.00,1805.00 1632.33,1778.58 1632.33,1778.58
             1632.33,1778.58 1630.61,1763.00 1630.61,1763.00
             1630.61,1763.00 1628.30,1756.00 1628.30,1756.00
             1628.30,1756.00 1626.49,1747.00 1626.49,1747.00
             1626.49,1747.00 1624.36,1740.00 1624.36,1740.00
             1622.31,1730.86 1617.52,1711.58 1613.00,1704.00
             1613.00,1704.00 1606.63,1727.00 1606.63,1727.00
             1606.63,1727.00 1605.21,1733.00 1605.21,1733.00
             1594.95,1763.88 1578.91,1793.26 1556.27,1816.87
             1537.83,1836.12 1510.70,1852.44 1485.00,1859.49
             1485.00,1859.49 1478.00,1861.62 1478.00,1861.62
             1478.00,1861.62 1472.00,1862.30 1472.00,1862.30
             1464.13,1863.50 1466.64,1864.98 1456.00,1865.00
             1456.00,1865.00 1424.00,1865.00 1424.00,1865.00
             1415.49,1864.99 1402.45,1861.63 1394.00,1859.51
             1367.15,1852.79 1342.59,1840.02 1320.00,1824.17
             1320.00,1824.17 1313.42,1820.01 1313.42,1820.01
             1303.02,1812.47 1278.79,1789.75 1270.28,1780.00
             1270.28,1780.00 1256.72,1762.46 1256.72,1762.46
             1256.72,1762.46 1248.29,1751.96 1248.29,1751.96
             1237.82,1737.60 1223.65,1713.51 1217.55,1697.00
             1217.55,1697.00 1206.59,1671.00 1206.59,1671.00
             1204.25,1665.31 1201.35,1660.09 1203.00,1654.00
             1203.00,1654.00 1201.00,1651.00 1201.00,1651.00 Z
           M 895.00,1645.00
           C 895.66,1635.86 904.90,1630.05 910.83,1623.91
             910.83,1623.91 918.01,1616.04 918.01,1616.04
             918.01,1616.04 940.00,1596.28 940.00,1596.28
             940.00,1596.28 959.00,1580.04 959.00,1580.04
             963.97,1575.28 977.02,1562.79 984.57,1566.57
             987.72,1568.15 986.94,1574.01 987.01,1577.00
             987.01,1577.00 990.09,1603.00 990.09,1603.00
             990.62,1609.89 994.56,1616.48 991.98,1620.78
             990.27,1623.61 986.87,1624.02 984.00,1624.92
             984.00,1624.92 971.00,1630.43 971.00,1630.43
             952.93,1637.87 937.30,1640.99 918.00,1643.00
             918.00,1643.00 910.00,1643.00 910.00,1643.00
             910.00,1643.00 895.00,1645.00 895.00,1645.00 Z
           M 736.00,2418.00
           C 736.00,2418.00 849.00,2418.00 849.00,2418.00
             849.00,2418.00 849.00,2585.00 849.00,2585.00
             849.00,2585.00 1018.00,2585.00 1018.00,2585.00
             1018.00,2585.00 1018.00,2699.00 1018.00,2699.00
             1018.00,2699.00 849.00,2699.00 849.00,2699.00
             849.00,2699.00 849.00,2866.00 849.00,2866.00
             849.00,2866.00 736.00,2866.00 736.00,2866.00
             736.00,2866.00 736.00,2699.00 736.00,2699.00
             736.00,2699.00 567.00,2699.00 567.00,2699.00
             567.00,2699.00 567.00,2585.00 567.00,2585.00
             567.00,2585.00 736.00,2585.00 736.00,2585.00
             736.00,2585.00 736.00,2418.00 736.00,2418.00 Z
           M 2950.00,2758.00
           C 2950.00,2758.00 3063.00,2758.00 3063.00,2758.00
             3063.00,2758.00 3063.00,2925.00 3063.00,2925.00
             3063.00,2925.00 3232.00,2925.00 3232.00,2925.00
             3232.00,2925.00 3232.00,3039.00 3232.00,3039.00
             3232.00,3039.00 3063.00,3039.00 3063.00,3039.00
             3063.00,3039.00 3063.00,3206.00 3063.00,3206.00
             3063.00,3206.00 2950.00,3206.00 2950.00,3206.00
             2950.00,3206.00 2950.00,3039.00 2950.00,3039.00
             2950.00,3039.00 2781.00,3039.00 2781.00,3039.00
             2781.00,3039.00 2781.00,2925.00 2781.00,2925.00
             2781.00,2925.00 2950.00,2925.00 2950.00,2925.00
             2950.00,2925.00 2950.00,2758.00 2950.00,2758.00 Z" />
</svg>
