<?xml version="1.0" encoding="UTF-8" standalone="no"?>
<!DOCTYPE svg PUBLIC "-//W3C//DTD SVG 20010904//EN"
              "http://www.w3.org/TR/2001/REC-SVG-20010904/DTD/svg10.dtd">

<svg xmlns="http://www.w3.org/2000/svg"
     width="12in" height="12in"
     viewBox="0 0 3600 3600">
  <path id="13 - whites"
        fill="none" stroke="black" stroke-width="1"
        d="M 2017.98,271.04
           C 2025.67,270.06 2023.40,277.89 2022.83,283.00
             2022.83,283.00 2020.94,293.00 2020.94,293.00
             2020.94,293.00 2020.94,303.00 2020.94,303.00
             2020.94,303.00 2017.96,324.00 2017.96,324.00
             2017.96,324.00 2017.96,338.00 2017.96,338.00
             2017.96,338.00 2017.00,350.00 2017.00,350.00
             2017.00,350.00 2017.00,411.00 2017.00,411.00
             2017.00,411.00 2018.08,424.00 2018.08,424.00
             2018.08,424.00 2018.08,441.00 2018.08,441.00
             2018.08,441.00 2021.00,461.00 2021.00,461.00
             2021.00,461.00 2021.00,472.00 2021.00,472.00
             2021.00,472.00 2023.71,489.00 2023.71,489.00
             2023.71,489.00 2024.29,497.00 2024.29,497.00
             2024.29,497.00 2026.68,508.00 2026.68,508.00
             2026.68,508.00 2028.09,519.00 2028.09,519.00
             2028.09,519.00 2036.49,554.00 2036.49,554.00
             2036.49,554.00 2040.78,572.00 2040.78,572.00
             2040.78,572.00 2052.98,614.00 2052.98,614.00
             2052.98,614.00 2067.42,658.00 2067.42,658.00
             2069.56,664.11 2074.35,673.64 2072.69,679.96
             2071.46,684.62 2061.17,689.22 2057.00,691.81
             2046.58,698.29 2034.39,708.91 2026.17,718.00
             1998.24,748.88 1978.86,786.41 1963.91,825.00
             1945.44,872.68 1933.14,925.35 1926.85,976.00
             1926.85,976.00 1925.29,985.00 1925.29,985.00
             1925.29,985.00 1921.00,1035.00 1921.00,1035.00
             1921.00,1035.00 1921.00,1058.00 1921.00,1058.00
             1921.00,1058.00 1919.09,1085.00 1919.09,1085.00
             1919.09,1085.00 1917.71,1107.00 1917.71,1107.00
             1917.71,1107.00 1915.30,1120.00 1915.30,1120.00
             1909.31,1160.68 1895.51,1200.65 1872.48,1235.00
             1860.30,1253.17 1846.00,1269.25 1830.00,1284.09
             1814.41,1298.54 1799.71,1309.52 1782.00,1321.17
             1778.19,1323.67 1761.28,1334.26 1758.00,1335.30
             1743.05,1340.08 1751.94,1319.92 1753.53,1314.00
             1753.53,1314.00 1773.68,1243.00 1773.68,1243.00
             1773.68,1243.00 1781.96,1210.00 1781.96,1210.00
             1781.96,1210.00 1783.67,1200.00 1783.67,1200.00
             1783.67,1200.00 1791.70,1157.00 1791.70,1157.00
             1791.70,1157.00 1793.17,1140.00 1793.17,1140.00
             1793.17,1140.00 1796.00,1114.00 1796.00,1114.00
             1796.00,1114.00 1797.00,1093.00 1797.00,1093.00
             1797.00,1093.00 1797.00,1068.00 1797.00,1068.00
             1797.00,1068.00 1796.00,1046.00 1796.00,1046.00
             1796.00,1046.00 1793.17,1021.00 1793.17,1021.00
             1793.17,1021.00 1791.84,1006.00 1791.84,1006.00
             1791.84,1006.00 1786.29,970.00 1786.29,970.00
             1786.29,970.00 1785.71,962.00 1785.71,962.00
             1785.71,962.00 1783.00,946.00 1783.00,946.00
             1783.00,946.00 1783.00,936.00 1783.00,936.00
             1783.00,936.00 1781.72,923.00 1781.72,923.00
             1780.87,915.95 1780.01,913.57 1779.96,906.00
             1779.96,906.00 1779.96,893.00 1779.96,893.00
             1779.96,893.00 1779.00,882.00 1779.00,882.00
             1779.00,882.00 1779.00,864.00 1779.00,864.00
             1779.00,864.00 1778.00,847.00 1778.00,847.00
             1778.00,847.00 1779.00,827.00 1779.00,827.00
             1779.00,827.00 1779.00,810.00 1779.00,810.00
             1779.00,810.00 1780.04,795.00 1780.04,795.00
             1780.04,795.00 1780.04,780.00 1780.04,780.00
             1780.04,780.00 1781.83,767.00 1781.83,767.00
             1781.83,767.00 1783.17,745.00 1783.17,745.00
             1783.17,745.00 1785.71,729.00 1785.71,729.00
             1785.71,729.00 1786.29,720.00 1786.29,720.00
             1786.29,720.00 1791.69,687.00 1791.69,687.00
             1791.69,687.00 1793.46,674.00 1793.46,674.00
             1793.46,674.00 1801.50,637.00 1801.50,637.00
             1801.50,637.00 1809.29,604.00 1809.29,604.00
             1826.43,540.11 1851.35,478.24 1884.58,421.00
             1905.09,385.65 1929.76,351.56 1958.04,322.00
             1958.04,322.00 1976.00,304.91 1976.00,304.91
             1985.52,296.05 2007.06,276.66 2017.98,271.04 Z
           M 2469.00,406.00
           C 2477.33,407.77 2488.36,419.60 2494.72,425.54
             2494.72,425.54 2547.17,477.00 2547.17,477.00
             2547.17,477.00 2588.57,523.00 2588.57,523.00
             2639.10,583.72 2684.26,652.17 2717.37,724.00
             2754.40,804.32 2778.47,884.33 2790.28,972.00
             2790.28,972.00 2796.00,1022.00 2796.00,1022.00
             2796.00,1022.00 2797.04,1043.00 2797.04,1043.00
             2797.04,1043.00 2798.00,1060.00 2798.00,1060.00
             2798.00,1060.00 2799.00,1075.00 2799.00,1075.00
             2799.00,1075.00 2799.00,1118.00 2799.00,1118.00
             2799.00,1118.00 2798.00,1134.00 2798.00,1134.00
             2798.00,1134.00 2796.00,1174.00 2796.00,1174.00
             2796.00,1174.00 2793.00,1200.00 2793.00,1200.00
             2793.00,1200.00 2793.00,1208.00 2793.00,1208.00
             2793.00,1208.00 2790.28,1225.00 2790.28,1225.00
             2790.28,1225.00 2784.08,1268.00 2784.08,1268.00
             2771.71,1338.57 2753.83,1407.99 2738.66,1478.00
             2738.66,1478.00 2714.54,1597.00 2714.54,1597.00
             2714.54,1597.00 2709.46,1621.00 2709.46,1621.00
             2709.46,1621.00 2693.43,1715.00 2693.43,1715.00
             2693.43,1715.00 2685.71,1771.00 2685.71,1771.00
             2685.71,1771.00 2683.28,1786.00 2683.28,1786.00
             2683.28,1786.00 2682.72,1794.00 2682.72,1794.00
             2682.72,1794.00 2680.00,1813.00 2680.00,1813.00
             2680.00,1813.00 2680.00,1821.00 2680.00,1821.00
             2680.00,1821.00 2677.17,1843.00 2677.17,1843.00
             2677.17,1843.00 2675.91,1867.00 2675.91,1867.00
             2675.91,1867.00 2674.04,1884.00 2674.04,1884.00
             2674.04,1884.00 2674.04,1898.00 2674.04,1898.00
             2674.04,1898.00 2673.00,1915.00 2673.00,1915.00
             2673.00,1915.00 2673.00,1971.00 2673.00,1971.00
             2673.00,1971.00 2673.96,1983.00 2673.96,1983.00
             2673.96,1983.00 2673.96,1994.00 2673.96,1994.00
             2673.96,1994.00 2675.83,2012.00 2675.83,2012.00
             2675.83,2012.00 2677.17,2030.00 2677.17,2030.00
             2677.17,2030.00 2679.71,2046.00 2679.71,2046.00
             2690.74,2129.77 2718.51,2201.87 2751.42,2279.00
             2751.42,2279.00 2779.58,2343.00 2779.58,2343.00
             2779.58,2343.00 2785.88,2358.00 2785.88,2358.00
             2786.64,2360.61 2786.80,2363.17 2783.85,2364.39
             2780.76,2365.66 2766.81,2361.77 2763.00,2360.71
             2741.16,2354.59 2721.58,2343.52 2704.42,2328.73
             2685.83,2312.71 2672.21,2293.93 2658.28,2274.00
             2633.91,2239.13 2613.09,2201.48 2591.20,2165.00
             2591.20,2165.00 2566.00,2124.00 2566.00,2124.00
             2566.00,2124.00 2556.58,2156.00 2556.58,2156.00
             2548.12,2184.96 2541.05,2214.68 2541.00,2245.00
             2541.00,2245.00 2540.03,2259.00 2540.03,2259.00
             2540.03,2259.00 2541.00,2273.00 2541.00,2273.00
             2541.05,2302.12 2547.44,2334.02 2555.43,2362.00
             2561.77,2384.23 2570.40,2406.04 2580.12,2427.00
             2580.12,2427.00 2594.35,2456.00 2594.35,2456.00
             2594.95,2457.98 2594.95,2459.96 2595.00,2462.00
             2589.19,2461.94 2575.15,2458.15 2571.31,2453.86
             2568.58,2450.81 2568.35,2445.90 2567.12,2442.00
             2567.12,2442.00 2557.21,2408.00 2557.21,2408.00
             2557.21,2408.00 2545.47,2372.00 2545.47,2372.00
             2527.91,2324.07 2509.84,2283.62 2483.00,2240.00
             2474.17,2225.65 2464.27,2211.89 2453.41,2199.00
             2449.74,2194.64 2439.86,2185.20 2439.15,2180.00
             2438.15,2172.63 2445.40,2166.92 2449.83,2162.00
             2449.83,2162.00 2482.69,2122.00 2482.69,2122.00
             2482.69,2122.00 2488.50,2114.00 2488.50,2114.00
             2524.64,2066.59 2555.19,2015.77 2580.90,1962.00
             2597.84,1926.55 2611.79,1890.26 2624.09,1853.00
             2624.09,1853.00 2632.22,1828.00 2632.22,1828.00
             2632.22,1828.00 2639.92,1798.00 2639.92,1798.00
             2639.92,1798.00 2649.32,1757.00 2649.32,1757.00
             2649.32,1757.00 2651.68,1748.00 2651.68,1748.00
             2651.68,1748.00 2657.87,1712.00 2657.87,1712.00
             2657.87,1712.00 2659.30,1698.00 2659.30,1698.00
             2659.30,1698.00 2661.56,1687.00 2661.56,1687.00
             2661.56,1687.00 2662.17,1678.00 2662.17,1678.00
             2662.17,1678.00 2665.00,1648.00 2665.00,1648.00
             2665.00,1648.00 2668.00,1615.00 2668.00,1615.00
             2668.00,1615.00 2668.00,1593.00 2668.00,1593.00
             2668.00,1593.00 2668.96,1576.00 2668.96,1576.00
             2668.96,1576.00 2668.96,1564.00 2668.96,1564.00
             2668.96,1564.00 2668.00,1553.00 2668.00,1553.00
             2668.00,1553.00 2668.00,1528.00 2668.00,1528.00
             2668.00,1528.00 2665.08,1500.00 2665.08,1500.00
             2665.08,1500.00 2665.08,1488.00 2665.08,1488.00
             2665.08,1488.00 2662.28,1465.00 2662.28,1465.00
             2662.28,1465.00 2661.54,1453.00 2661.54,1453.00
             2661.54,1453.00 2659.30,1443.00 2659.30,1443.00
             2659.30,1443.00 2657.86,1427.00 2657.86,1427.00
             2657.86,1427.00 2653.08,1400.00 2653.08,1400.00
             2653.08,1400.00 2651.63,1390.00 2651.63,1390.00
             2651.63,1390.00 2649.47,1382.00 2649.47,1382.00
             2649.47,1382.00 2648.54,1374.00 2648.54,1374.00
             2648.54,1374.00 2646.51,1366.00 2646.51,1366.00
             2646.51,1366.00 2641.96,1344.00 2641.96,1344.00
             2641.96,1344.00 2636.50,1323.00 2636.50,1323.00
             2628.21,1288.13 2615.38,1245.58 2602.84,1212.00
             2602.84,1212.00 2570.44,1131.00 2570.44,1131.00
             2570.44,1131.00 2560.92,1110.00 2560.92,1110.00
             2558.97,1105.99 2555.50,1099.28 2555.10,1095.00
             2554.30,1086.35 2563.27,1068.85 2566.70,1060.00
             2574.98,1038.65 2581.55,1016.11 2587.51,994.00
             2587.51,994.00 2603.19,926.00 2603.19,926.00
             2603.19,926.00 2604.52,915.00 2604.52,915.00
             2604.52,915.00 2606.68,907.00 2606.68,907.00
             2606.68,907.00 2611.16,874.00 2611.16,874.00
             2611.16,874.00 2614.00,851.00 2614.00,851.00
             2614.00,851.00 2617.00,818.00 2617.00,818.00
             2617.00,818.00 2617.00,787.00 2617.00,787.00
             2617.00,787.00 2614.08,762.00 2614.08,762.00
             2614.08,762.00 2614.08,749.00 2614.08,749.00
             2613.89,740.17 2611.96,731.66 2610.59,723.00
             2607.75,705.02 2603.74,687.45 2598.57,670.00
             2598.57,670.00 2593.41,652.00 2593.41,652.00
             2579.95,609.90 2558.65,562.91 2537.63,524.00
             2523.07,497.06 2507.54,470.44 2490.48,445.00
             2490.48,445.00 2476.40,423.00 2476.40,423.00
             2472.05,415.74 2469.23,415.15 2469.00,406.00 Z
           M 2140.00,1616.00
           C 2149.08,1616.50 2156.62,1621.04 2165.00,1623.92
             2177.31,1628.16 2190.27,1631.24 2203.00,1633.88
             2248.60,1643.33 2301.24,1636.89 2343.00,1616.19
             2400.10,1587.89 2441.03,1539.81 2464.55,1481.00
             2464.55,1481.00 2474.74,1446.00 2474.74,1446.00
             2474.74,1446.00 2479.67,1429.00 2479.67,1429.00
             2479.67,1429.00 2483.68,1409.00 2483.68,1409.00
             2483.68,1409.00 2484.27,1403.00 2484.27,1403.00
             2484.27,1403.00 2486.78,1395.00 2486.78,1395.00
             2486.78,1395.00 2489.00,1367.00 2489.00,1367.00
             2489.00,1367.00 2489.00,1331.00 2489.00,1331.00
             2489.00,1331.00 2487.00,1310.00 2487.00,1310.00
             2487.00,1310.00 2487.00,1302.00 2487.00,1302.00
             2487.00,1302.00 2485.30,1294.00 2485.30,1294.00
             2482.51,1275.07 2479.10,1256.51 2474.08,1238.00
             2474.08,1238.00 2469.29,1223.09 2469.29,1223.09
             2467.23,1219.06 2465.80,1219.31 2463.90,1214.00
             2463.90,1214.00 2455.69,1191.00 2455.69,1191.00
             2428.95,1124.30 2387.58,1064.18 2332.00,1018.25
             2291.13,984.47 2241.59,958.89 2189.00,950.41
             2189.00,950.41 2177.00,948.04 2177.00,948.04
             2177.00,948.04 2167.00,948.04 2167.00,948.04
             2167.00,948.04 2149.00,946.08 2149.00,946.08
             2149.00,946.08 2131.00,947.96 2131.00,947.96
             2110.46,948.86 2090.28,954.18 2071.00,961.18
             2071.00,961.18 2058.00,966.35 2058.00,966.35
             2056.10,966.80 2053.51,966.97 2052.70,964.69
             2051.66,961.71 2055.71,956.38 2057.35,954.00
             2061.95,947.30 2072.31,934.92 2078.04,929.00
             2099.47,906.85 2126.15,892.35 2156.00,885.50
             2156.00,885.50 2165.00,883.11 2165.00,883.11
             2165.00,883.11 2173.00,883.11 2173.00,883.11
             2173.00,883.11 2202.00,882.00 2202.00,882.00
             2202.00,882.00 2221.00,883.44 2221.00,883.44
             2221.00,883.44 2231.00,885.68 2231.00,885.68
             2276.19,893.55 2317.93,915.59 2356.00,940.50
             2378.09,954.95 2415.02,983.18 2434.01,1001.09
             2434.01,1001.09 2452.09,1020.00 2452.09,1020.00
             2452.09,1020.00 2461.00,1028.89 2461.00,1028.89
             2463.55,1031.18 2467.10,1033.00 2468.90,1035.27
             2468.90,1035.27 2486.78,1066.00 2486.78,1066.00
             2486.78,1066.00 2509.86,1113.00 2509.86,1113.00
             2535.43,1170.89 2552.13,1235.07 2558.17,1298.00
             2558.17,1298.00 2561.04,1321.00 2561.04,1321.00
             2561.04,1321.00 2561.04,1335.00 2561.04,1335.00
             2561.04,1335.00 2562.00,1347.00 2562.00,1347.00
             2562.00,1347.00 2562.00,1382.00 2562.00,1382.00
             2562.00,1382.00 2561.00,1397.00 2561.00,1397.00
             2560.79,1415.69 2560.38,1411.02 2558.29,1428.00
             2558.29,1428.00 2557.72,1437.00 2557.72,1437.00
             2557.72,1437.00 2552.46,1468.00 2552.46,1468.00
             2534.16,1565.60 2480.90,1672.15 2379.00,1702.72
             2360.78,1708.19 2341.04,1711.22 2322.00,1711.00
             2322.00,1711.00 2306.00,1709.17 2306.00,1709.17
             2306.00,1709.17 2292.00,1707.72 2292.00,1707.72
             2292.00,1707.72 2283.00,1705.51 2283.00,1705.51
             2244.39,1697.13 2209.19,1678.38 2178.00,1654.35
             2178.00,1654.35 2154.00,1634.42 2154.00,1634.42
             2147.82,1629.08 2141.97,1624.25 2140.00,1616.00 Z
           M 2154.00,998.43
           C 2154.00,998.43 2169.00,999.00 2169.00,999.00
             2186.32,999.03 2203.15,1004.20 2219.00,1011.02
             2265.16,1030.88 2306.50,1069.46 2328.06,1115.00
             2331.91,1123.13 2336.59,1135.26 2338.48,1144.00
             2338.48,1144.00 2339.46,1151.00 2339.46,1151.00
             2340.93,1159.11 2341.99,1160.00 2342.00,1169.00
             2342.04,1191.58 2335.70,1211.61 2318.00,1226.70
             2312.99,1230.97 2307.10,1234.21 2301.00,1236.65
             2290.43,1240.89 2278.33,1242.02 2267.00,1242.00
             2267.00,1242.00 2248.00,1241.00 2248.00,1241.00
             2240.30,1240.89 2241.76,1239.67 2236.00,1238.38
             2236.00,1238.38 2230.00,1237.47 2230.00,1237.47
             2220.83,1235.37 2207.61,1229.54 2199.00,1225.46
             2178.37,1215.70 2160.46,1202.78 2144.00,1187.04
             2119.65,1163.75 2104.11,1142.42 2091.71,1111.00
             2089.05,1104.26 2087.81,1097.07 2086.54,1090.00
             2084.94,1081.14 2083.99,1077.26 2084.00,1068.00
             2084.04,1042.71 2094.43,1019.79 2117.00,1007.04
             2122.33,1004.03 2135.01,999.57 2141.00,999.09
             2141.00,999.09 2154.00,998.43 2154.00,998.43 Z
           M 2116.00,1222.61
           C 2124.33,1221.03 2130.95,1222.03 2139.00,1223.96
             2157.66,1228.45 2173.59,1239.53 2182.33,1257.00
             2189.76,1271.83 2189.90,1292.68 2173.00,1301.15
             2168.84,1303.24 2157.74,1305.15 2153.00,1304.96
             2149.12,1304.80 2146.70,1303.99 2143.00,1303.21
             2143.00,1303.21 2134.00,1301.21 2134.00,1301.21
             2120.87,1296.53 2106.38,1284.93 2099.26,1273.00
             2097.46,1269.99 2095.06,1264.41 2094.38,1261.00
             2093.06,1254.36 2093.17,1240.62 2096.92,1235.00
             2102.08,1227.26 2107.66,1225.23 2116.00,1222.61 Z
           M 1328.00,1401.70
           C 1337.47,1399.70 1338.92,1407.28 1340.13,1415.00
             1340.13,1415.00 1342.92,1426.00 1342.92,1426.00
             1342.92,1426.00 1342.92,1436.00 1342.92,1436.00
             1344.24,1447.06 1345.06,1447.61 1345.00,1460.00
             1345.00,1460.00 1342.68,1489.00 1342.68,1489.00
             1342.68,1489.00 1340.46,1498.00 1340.46,1498.00
             1340.46,1498.00 1339.61,1506.00 1339.61,1506.00
             1339.61,1506.00 1337.04,1514.00 1337.04,1514.00
             1326.51,1555.97 1302.10,1601.16 1268.00,1628.40
             1253.47,1640.01 1242.95,1646.00 1225.00,1650.75
             1217.61,1652.71 1219.13,1652.99 1211.00,1653.00
             1211.00,1653.00 1199.00,1653.00 1199.00,1653.00
             1192.54,1652.92 1190.98,1652.12 1185.00,1650.19
             1163.39,1643.21 1149.53,1625.46 1141.31,1605.00
             1141.31,1605.00 1135.51,1585.00 1135.51,1585.00
             1132.87,1575.18 1131.02,1565.25 1131.00,1555.00
             1131.00,1555.00 1131.00,1540.00 1131.00,1540.00
             1131.02,1525.84 1134.40,1509.77 1137.65,1496.00
             1138.51,1492.36 1141.30,1480.78 1143.08,1478.22
             1145.96,1474.10 1153.41,1472.93 1158.00,1471.49
             1158.00,1471.49 1197.00,1458.92 1197.00,1458.92
             1224.49,1449.41 1251.61,1438.66 1278.00,1426.39
             1278.00,1426.39 1312.00,1409.92 1312.00,1409.92
             1312.00,1409.92 1328.00,1401.70 1328.00,1401.70 Z
           M 1088.00,1502.00
           C 1089.37,1506.14 1087.64,1508.82 1087.17,1513.00
             1087.17,1513.00 1084.00,1543.00 1084.00,1543.00
             1084.00,1543.00 1082.04,1564.00 1082.04,1564.00
             1082.04,1564.00 1082.04,1574.00 1082.04,1574.00
             1082.04,1574.00 1081.01,1584.00 1081.01,1584.00
             1081.01,1584.00 1082.00,1593.00 1082.00,1593.00
             1082.00,1593.00 1082.00,1603.00 1082.00,1603.00
             1082.00,1603.00 1084.00,1623.00 1084.00,1623.00
             1084.29,1647.84 1092.96,1685.68 1099.51,1710.00
             1112.73,1759.06 1134.92,1806.06 1165.12,1847.00
             1165.12,1847.00 1184.17,1871.00 1184.17,1871.00
             1184.17,1871.00 1194.00,1880.09 1194.00,1880.09
             1194.00,1880.09 1213.00,1898.07 1213.00,1898.07
             1213.00,1898.07 1246.00,1924.68 1246.00,1924.68
             1246.00,1924.68 1258.00,1934.14 1258.00,1934.14
             1279.47,1948.08 1310.05,1960.60 1335.00,1966.50
             1357.80,1971.89 1373.99,1972.04 1397.00,1972.00
             1397.00,1972.00 1415.00,1970.28 1415.00,1970.28
             1451.79,1965.74 1488.88,1950.69 1519.00,1929.09
             1552.22,1905.27 1582.84,1870.64 1602.96,1835.00
             1602.96,1835.00 1622.86,1795.00 1622.86,1795.00
             1626.06,1787.81 1627.41,1780.73 1633.00,1775.00
             1636.05,1783.13 1634.23,1782.02 1635.67,1789.00
             1636.97,1795.34 1639.41,1803.15 1639.74,1809.58
             1639.74,1809.58 1639.00,1824.00 1639.00,1824.00
             1638.97,1839.63 1631.39,1870.45 1626.77,1886.00
             1615.64,1923.50 1598.08,1959.60 1571.83,1989.00
             1539.58,2025.11 1494.89,2048.87 1447.00,2055.94
             1447.00,2055.94 1437.00,2055.94 1437.00,2055.94
             1437.00,2055.94 1423.00,2058.00 1423.00,2058.00
             1301.56,2059.42 1194.32,1981.84 1119.57,1892.00
             1103.93,1873.21 1089.14,1853.55 1075.86,1833.00
             1075.86,1833.00 1047.59,1785.00 1047.59,1785.00
             1047.59,1785.00 1034.75,1757.00 1034.75,1757.00
             1034.75,1757.00 1018.71,1725.00 1018.71,1725.00
             1010.33,1706.19 1003.83,1686.55 997.48,1667.00
             993.63,1655.13 987.02,1633.95 987.00,1622.00
             987.00,1622.00 987.00,1606.00 987.00,1606.00
             987.00,1606.00 986.00,1592.00 986.00,1592.00
             986.00,1592.00 986.00,1573.00 986.00,1573.00
             986.00,1570.54 985.79,1567.37 987.02,1565.17
             988.80,1562.00 1005.08,1550.50 1009.00,1547.84
             1030.11,1533.51 1064.48,1509.99 1088.00,1502.00 Z
           M 1380.00,1543.43
           C 1386.32,1542.65 1396.08,1542.85 1402.00,1545.21
             1414.52,1550.20 1421.84,1563.98 1422.00,1577.00
             1422.00,1577.00 1422.00,1582.00 1422.00,1582.00
             1421.97,1603.68 1408.91,1623.01 1391.00,1634.41
             1381.43,1640.51 1376.72,1643.26 1365.00,1642.99
             1351.52,1642.67 1337.22,1630.93 1333.63,1618.00
             1332.60,1614.30 1332.95,1598.78 1333.00,1594.00
             1333.10,1586.16 1335.00,1581.84 1338.64,1575.00
             1347.57,1558.20 1360.97,1546.55 1380.00,1543.43 Z
           M 1834.00,2009.00
           C 1843.25,2009.09 1850.46,2012.91 1859.00,2016.09
             1859.00,2016.09 1892.00,2026.48 1892.00,2026.48
             1892.00,2026.48 1899.00,2027.46 1899.00,2027.46
             1899.00,2027.46 1908.00,2029.68 1908.00,2029.68
             1908.00,2029.68 1935.00,2032.09 1935.00,2032.09
             1935.00,2032.09 1943.00,2032.92 1943.00,2032.92
             1943.00,2032.92 1951.00,2031.95 1951.00,2031.95
             1951.00,2031.95 1959.00,2031.95 1959.00,2031.95
             1959.00,2031.95 1966.00,2030.32 1966.00,2030.32
             1988.57,2026.40 2004.29,2022.71 2025.00,2012.05
             2057.70,1995.22 2077.75,1972.85 2098.12,1943.00
             2103.88,1934.56 2108.71,1925.21 2113.14,1916.00
             2115.85,1910.35 2115.54,1906.11 2122.00,1905.00
             2122.00,1905.00 2125.03,1912.17 2125.03,1912.17
             2125.03,1912.17 2128.92,1929.00 2128.92,1929.00
             2128.92,1929.00 2128.92,1938.00 2128.92,1938.00
             2128.92,1938.00 2131.28,1956.00 2131.28,1956.00
             2131.28,1956.00 2133.83,1972.00 2133.83,1972.00
             2133.83,1972.00 2135.00,2010.00 2135.00,2010.00
             2135.00,2010.00 2135.00,2034.00 2135.00,2034.00
             2134.97,2054.94 2126.50,2087.18 2117.24,2106.00
             2102.38,2136.23 2077.10,2158.83 2042.00,2159.00
             2042.00,2159.00 2031.00,2159.00 2031.00,2159.00
             2015.09,2158.81 1995.56,2152.56 1981.00,2146.28
             1960.37,2137.38 1936.87,2122.50 1920.00,2107.71
             1920.00,2107.71 1899.00,2087.04 1899.00,2087.04
             1899.00,2087.04 1875.58,2064.28 1875.58,2064.28
             1875.58,2064.28 1864.17,2053.00 1864.17,2053.00
             1864.17,2053.00 1845.01,2029.00 1845.01,2029.00
             1840.54,2023.21 1834.54,2016.47 1834.00,2009.00 Z
           M 736.00,2418.00
           C 736.00,2418.00 849.00,2418.00 849.00,2418.00
             849.00,2418.00 849.00,2585.00 849.00,2585.00
             849.00,2585.00 1018.00,2585.00 1018.00,2585.00
             1018.00,2585.00 1018.00,2699.00 1018.00,2699.00
             1018.00,2699.00 849.00,2699.00 849.00,2699.00
             849.00,2699.00 849.00,2866.00 849.00,2866.00
             849.00,2866.00 736.00,2866.00 736.00,2866.00
             736.00,2866.00 736.00,2699.00 736.00,2699.00
             736.00,2699.00 567.00,2699.00 567.00,2699.00
             567.00,2699.00 567.00,2585.00 567.00,2585.00
             567.00,2585.00 736.00,2585.00 736.00,2585.00
             736.00,2585.00 736.00,2418.00 736.00,2418.00 Z
           M 2950.00,2758.00
           C 2950.00,2758.00 3063.00,2758.00 3063.00,2758.00
             3063.00,2758.00 3063.00,2925.00 3063.00,2925.00
             3063.00,2925.00 3232.00,2925.00 3232.00,2925.00
             3232.00,2925.00 3232.00,3039.00 3232.00,3039.00
             3232.00,3039.00 3063.00,3039.00 3063.00,3039.00
             3063.00,3039.00 3063.00,3206.00 3063.00,3206.00
             3063.00,3206.00 2950.00,3206.00 2950.00,3206.00
             2950.00,3206.00 2950.00,3039.00 2950.00,3039.00
             2950.00,3039.00 2781.00,3039.00 2781.00,3039.00
             2781.00,3039.00 2781.00,2925.00 2781.00,2925.00
             2781.00,2925.00 2950.00,2925.00 2950.00,2925.00
             2950.00,2925.00 2950.00,2758.00 2950.00,2758.00 Z" />
</svg>
