<?xml version="1.0" encoding="UTF-8" standalone="no"?>
<!DOCTYPE svg PUBLIC "-//W3C//DTD SVG 20010904//EN"
              "http://www.w3.org/TR/2001/REC-SVG-20010904/DTD/svg10.dtd">

<svg xmlns="http://www.w3.org/2000/svg"
     width="12in" height="12in"
     viewBox="0 0 3600 3600">
  <path id="2 - body outline 1"
        fill="none" stroke="black" stroke-width="1"
        d="M 2066.00,157.00
           C 2066.00,157.00 2075.30,150.88 2075.30,150.88
             2075.30,150.88 2088.00,149.00 2088.00,149.00
             2088.00,149.00 2150.00,149.00 2150.00,149.00
             2150.00,149.00 2173.00,150.00 2173.00,150.00
             2173.00,150.00 2173.00,153.00 2173.00,153.00
             2173.00,153.00 2183.00,153.00 2183.00,153.00
             2183.00,153.00 2184.00,157.00 2184.00,157.00
             2194.70,154.50 2189.65,159.87 2203.00,160.00
             2203.00,160.00 2203.00,163.00 2203.00,163.00
             2203.00,163.00 2209.00,163.00 2209.00,163.00
             2209.00,163.00 2210.00,167.00 2210.00,167.00
             2210.00,167.00 2216.00,166.00 2216.00,166.00
             2216.00,166.00 2217.00,170.00 2217.00,170.00
             2221.75,168.92 2228.15,171.22 2230.00,176.00
             2230.00,176.00 2235.00,176.00 2235.00,176.00
             2235.00,176.00 2236.00,180.00 2236.00,180.00
             2236.00,180.00 2242.00,179.00 2242.00,179.00
             2242.00,179.00 2243.00,183.00 2243.00,183.00
             2250.28,181.97 2250.42,187.67 2259.00,189.00
             2259.00,189.00 2259.00,192.00 2259.00,192.00
             2259.00,192.00 2264.00,192.00 2264.00,192.00
             2264.00,192.00 2264.00,195.00 2264.00,195.00
             2264.00,195.00 2268.00,195.00 2268.00,195.00
             2271.69,201.60 2275.52,197.62 2278.00,205.00
             2278.00,205.00 2283.00,205.00 2283.00,205.00
             2283.00,205.00 2283.00,208.00 2283.00,208.00
             2290.67,209.15 2297.06,217.45 2304.00,221.00
             2304.00,221.00 2304.00,225.00 2304.00,225.00
             2304.00,225.00 2307.70,225.00 2307.70,225.00
             2307.70,225.00 2318.63,233.67 2318.63,233.67
             2318.63,233.67 2320.00,237.00 2320.00,237.00
             2320.00,237.00 2324.00,237.00 2324.00,237.00
             2324.00,237.00 2324.00,240.00 2324.00,240.00
             2324.00,240.00 2328.00,240.00 2328.00,240.00
             2330.49,244.32 2338.29,249.27 2342.49,254.44
             2347.25,260.30 2346.55,262.55 2350.22,267.00
             2350.22,267.00 2385.99,303.00 2385.99,303.00
             2406.21,323.72 2435.34,359.63 2453.58,383.00
             2457.43,387.94 2465.00,397.02 2467.75,402.00
             2471.05,407.97 2468.93,408.18 2473.36,415.00
             2473.36,415.00 2485.26,432.00 2485.26,432.00
             2485.26,432.00 2509.61,470.00 2509.61,470.00
             2509.61,470.00 2529.23,502.42 2529.23,502.42
             2529.23,502.42 2543.30,529.00 2543.30,529.00
             2567.79,575.35 2587.73,622.45 2601.74,673.00
             2601.74,673.00 2611.22,715.00 2611.22,715.00
             2611.22,715.00 2613.76,726.04 2613.76,726.04
             2613.76,726.04 2613.76,738.28 2613.76,738.28
             2614.68,745.91 2616.64,749.98 2616.18,758.00
             2616.18,758.00 2616.93,769.00 2616.93,769.00
             2616.93,769.00 2616.93,778.28 2616.93,778.28
             2616.93,778.28 2618.00,791.00 2618.00,791.00
             2618.00,791.00 2618.00,813.00 2618.00,813.00
             2618.00,813.00 2617.00,834.00 2617.00,834.00
             2617.00,834.00 2613.90,867.01 2613.90,867.01
             2613.57,879.80 2610.39,892.40 2608.28,905.00
             2608.28,905.00 2606.76,918.83 2606.76,918.83
             2606.76,918.83 2604.44,927.00 2604.44,927.00
             2604.44,927.00 2603.46,936.09 2603.46,936.09
             2603.46,936.09 2598.50,956.00 2598.50,956.00
             2598.50,956.00 2596.58,967.72 2596.58,967.72
             2596.58,967.72 2587.52,1002.00 2587.52,1002.00
             2583.58,1017.14 2573.12,1050.86 2567.43,1065.00
             2567.43,1065.00 2559.82,1084.00 2559.82,1084.00
             2558.41,1087.16 2556.13,1090.43 2556.74,1094.00
             2557.18,1096.60 2561.05,1104.22 2562.36,1107.00
             2562.36,1107.00 2573.72,1132.00 2573.72,1132.00
             2573.72,1132.00 2606.31,1213.42 2606.31,1213.42
             2606.31,1213.42 2614.20,1238.00 2614.20,1238.00
             2614.20,1238.00 2619.61,1253.28 2619.61,1253.28
             2619.61,1253.28 2641.59,1332.28 2641.59,1332.28
             2641.59,1332.28 2643.46,1342.99 2643.46,1342.99
             2643.46,1342.99 2645.77,1350.17 2645.77,1350.17
             2645.77,1350.17 2646.70,1357.00 2646.70,1357.00
             2646.70,1357.00 2648.54,1363.00 2648.54,1363.00
             2648.54,1363.00 2649.59,1371.00 2649.59,1371.00
             2649.59,1371.00 2651.76,1379.17 2651.76,1379.17
             2651.76,1379.17 2653.45,1392.00 2653.45,1392.00
             2653.45,1392.00 2656.46,1410.00 2656.46,1410.00
             2656.46,1410.00 2658.71,1422.00 2658.71,1422.00
             2658.71,1422.00 2659.43,1430.00 2659.43,1430.00
             2659.43,1430.00 2661.71,1443.00 2661.71,1443.00
             2661.71,1443.00 2663.28,1460.00 2663.28,1460.00
             2664.43,1468.99 2667.38,1485.63 2665.00,1494.00
             2666.11,1494.77 2666.69,1494.70 2667.24,1496.29
             2667.24,1496.29 2668.00,1515.00 2668.00,1515.00
             2668.00,1515.00 2669.00,1533.00 2669.00,1533.00
             2669.00,1533.00 2668.00,1553.00 2668.00,1553.00
             2668.00,1553.00 2669.00,1572.00 2669.00,1572.00
             2669.00,1572.00 2668.04,1587.00 2668.04,1587.00
             2668.04,1587.00 2668.04,1599.00 2668.04,1599.00
             2668.04,1599.00 2669.00,1609.00 2669.00,1609.00
             2669.00,1609.00 2668.00,1630.00 2668.00,1630.00
             2668.00,1630.00 2664.92,1664.00 2664.92,1664.00
             2664.92,1664.00 2664.92,1676.00 2664.92,1676.00
             2664.92,1676.00 2662.42,1688.00 2662.42,1688.00
             2662.42,1688.00 2660.40,1705.00 2660.40,1705.00
             2660.40,1705.00 2657.62,1726.17 2657.62,1726.17
             2657.62,1726.17 2656.09,1733.00 2656.09,1733.00
             2655.42,1737.32 2655.67,1742.15 2652.00,1745.00
             2654.21,1753.45 2648.67,1770.05 2646.66,1779.00
             2646.66,1779.00 2636.92,1818.00 2636.92,1818.00
             2636.92,1818.00 2635.58,1824.72 2635.58,1824.72
             2635.58,1824.72 2623.74,1862.00 2623.74,1862.00
             2592.97,1955.87 2543.27,2050.76 2481.60,2128.00
             2481.60,2128.00 2444.09,2173.00 2444.09,2173.00
             2444.09,2173.00 2437.73,2181.68 2437.73,2181.68
             2437.73,2181.68 2420.00,2194.71 2420.00,2194.71
             2420.00,2194.71 2403.00,2206.70 2403.00,2206.70
             2401.49,2207.17 2400.61,2207.38 2399.00,2206.70
             2399.00,2206.70 2381.00,2193.67 2381.00,2193.67
             2364.42,2182.55 2347.24,2175.03 2327.00,2175.00
             2327.00,2175.00 2296.00,2176.18 2296.00,2176.18
             2296.00,2176.18 2288.00,2177.91 2288.00,2177.91
             2254.16,2184.27 2227.94,2195.85 2200.00,2216.15
             2156.40,2247.82 2113.98,2303.15 2087.29,2350.00
             2087.29,2350.00 2057.26,2406.00 2057.26,2406.00
             2057.26,2406.00 2049.42,2422.00 2049.42,2422.00
             2048.31,2424.56 2046.56,2429.38 2044.37,2431.05
             2042.10,2432.76 2031.42,2433.65 2028.00,2434.13
             2028.00,2434.13 1985.00,2439.00 1985.00,2439.00
             1985.00,2439.00 1985.00,2438.00 1985.00,2438.00
             1985.00,2438.00 1987.00,2436.00 1987.00,2436.00
             1987.00,2436.00 1965.00,2438.83 1965.00,2438.83
             1965.00,2438.83 1946.00,2441.00 1946.00,2441.00
             1946.00,2441.00 1947.00,2444.00 1947.00,2444.00
             1947.00,2444.00 1924.00,2447.28 1924.00,2447.28
             1924.00,2447.28 1894.00,2451.00 1894.00,2451.00
             1894.00,2451.00 1881.94,2423.00 1881.94,2423.00
             1881.94,2423.00 1865.67,2390.00 1865.67,2390.00
             1850.82,2362.70 1832.06,2331.84 1807.00,2312.90
             1785.40,2296.57 1758.25,2288.52 1732.00,2283.92
             1732.00,2283.92 1723.00,2282.00 1723.00,2282.00
             1723.00,2282.00 1715.00,2282.00 1715.00,2282.00
             1715.00,2282.00 1693.00,2280.00 1693.00,2280.00
             1693.00,2280.00 1674.00,2280.00 1674.00,2280.00
             1674.00,2280.00 1652.00,2282.00 1652.00,2282.00
             1652.00,2282.00 1642.00,2282.00 1642.00,2282.00
             1642.00,2282.00 1626.00,2284.58 1626.00,2284.58
             1626.00,2284.58 1569.00,2295.50 1569.00,2295.50
             1542.40,2301.79 1523.09,2308.34 1501.00,2325.13
             1493.10,2331.14 1485.97,2337.95 1479.00,2345.00
             1477.05,2346.98 1472.51,2352.64 1469.91,2352.91
             1467.28,2353.17 1459.55,2347.94 1457.00,2346.40
             1457.00,2346.40 1425.00,2327.00 1425.00,2327.00
             1425.00,2327.00 1423.00,2319.00 1423.00,2319.00
             1423.00,2319.00 1418.00,2319.00 1418.00,2319.00
             1415.77,2315.41 1406.16,2310.16 1402.00,2309.00
             1402.00,2309.00 1402.00,2306.00 1402.00,2306.00
             1402.00,2306.00 1393.00,2303.00 1393.00,2303.00
             1393.00,2303.00 1393.00,2300.00 1393.00,2300.00
             1389.46,2299.38 1389.20,2299.42 1388.00,2296.00
             1388.00,2296.00 1378.00,2293.00 1378.00,2293.00
             1378.00,2293.00 1378.00,2289.00 1378.00,2289.00
             1372.55,2288.30 1365.98,2285.46 1364.00,2280.00
             1364.00,2280.00 1355.00,2277.00 1355.00,2277.00
             1355.00,2277.00 1355.00,2274.00 1355.00,2274.00
             1355.00,2274.00 1351.00,2274.00 1351.00,2274.00
             1351.00,2274.00 1342.00,2263.00 1342.00,2263.00
             1342.00,2263.00 1338.00,2264.00 1338.00,2264.00
             1338.00,2264.00 1334.00,2261.00 1334.00,2261.00
             1334.00,2261.00 1326.00,2251.00 1326.00,2251.00
             1326.00,2251.00 1321.00,2251.00 1321.00,2251.00
             1321.00,2251.00 1310.00,2238.00 1310.00,2238.00
             1310.00,2238.00 1306.00,2238.00 1306.00,2238.00
             1306.00,2238.00 1306.00,2235.00 1306.00,2235.00
             1296.51,2233.66 1289.07,2218.45 1280.00,2216.00
             1280.00,2216.00 1261.64,2198.41 1261.64,2198.41
             1261.64,2198.41 1252.88,2189.89 1252.88,2189.89
             1252.88,2189.89 1247.55,2183.47 1247.55,2183.47
             1247.55,2183.47 1242.46,2179.54 1242.46,2179.54
             1242.46,2179.54 1233.93,2171.08 1233.93,2171.08
             1233.93,2171.08 1228.52,2164.37 1228.52,2164.37
             1228.52,2164.37 1223.43,2160.35 1223.43,2160.35
             1223.43,2160.35 1213.76,2150.12 1213.76,2150.12
             1209.85,2146.07 1206.89,2144.88 1206.00,2139.00
             1206.00,2139.00 1196.00,2132.00 1196.00,2132.00
             1194.20,2124.86 1191.76,2125.50 1187.51,2120.71
             1183.84,2116.56 1182.14,2112.66 1177.00,2110.00
             1177.00,2110.00 1177.00,2105.00 1177.00,2105.00
             1177.00,2105.00 1164.00,2094.00 1164.00,2094.00
             1164.00,2094.00 1164.00,2090.00 1164.00,2090.00
             1158.42,2087.97 1152.75,2078.81 1152.00,2073.00
             1152.00,2073.00 1148.00,2073.00 1148.00,2073.00
             1145.07,2067.27 1142.50,2067.32 1142.00,2060.00
             1136.70,2058.43 1135.43,2056.39 1135.00,2051.00
             1135.00,2051.00 1125.00,2042.00 1125.00,2042.00
             1125.00,2042.00 1125.00,2038.00 1125.00,2038.00
             1120.37,2036.32 1119.34,2033.67 1119.00,2029.00
             1114.78,2027.40 1112.68,2023.29 1112.00,2019.00
             1112.00,2019.00 1109.00,2019.00 1109.00,2019.00
             1109.00,2019.00 1106.00,2009.00 1106.00,2009.00
             1098.27,2006.19 1102.62,2001.72 1096.00,1998.00
             1096.00,1998.00 1096.00,1994.00 1096.00,1994.00
             1096.00,1994.00 1093.00,1994.00 1093.00,1994.00
             1093.00,1994.00 1090.00,1983.00 1090.00,1983.00
             1085.06,1981.34 1083.57,1977.93 1083.00,1973.00
             1083.00,1973.00 1080.00,1973.00 1080.00,1973.00
             1080.00,1973.00 1080.00,1967.00 1080.00,1967.00
             1075.03,1965.20 1070.13,1956.06 1071.00,1951.00
             1071.00,1951.00 1067.00,1950.00 1067.00,1950.00
             1067.00,1950.00 1067.00,1945.00 1067.00,1945.00
             1067.00,1945.00 1064.00,1945.00 1064.00,1945.00
             1064.00,1945.00 1054.00,1921.00 1054.00,1921.00
             1054.00,1921.00 1051.00,1921.00 1051.00,1921.00
             1051.00,1921.00 1051.00,1916.00 1051.00,1916.00
             1051.00,1916.00 1048.00,1916.00 1048.00,1916.00
             1048.00,1916.00 1048.00,1909.00 1048.00,1909.00
             1048.00,1909.00 1045.00,1909.00 1045.00,1909.00
             1045.00,1909.00 1045.00,1902.00 1045.00,1902.00
             1041.31,1900.67 1041.45,1899.75 1041.00,1896.00
             1041.00,1896.00 1038.00,1896.00 1038.00,1896.00
             1038.00,1896.00 1038.00,1890.00 1038.00,1890.00
             1038.00,1890.00 1035.00,1890.00 1035.00,1890.00
             1035.00,1890.00 1035.00,1883.00 1035.00,1883.00
             1035.00,1883.00 1032.00,1883.00 1032.00,1883.00
             1032.00,1883.00 1032.00,1876.00 1032.00,1876.00
             1032.00,1876.00 1029.00,1876.00 1029.00,1876.00
             1029.00,1876.00 1022.00,1856.00 1022.00,1856.00
             1022.00,1856.00 1019.00,1856.00 1019.00,1856.00
             1019.00,1856.00 1019.00,1848.00 1019.00,1848.00
             1019.00,1848.00 1016.00,1848.00 1016.00,1848.00
             1016.00,1848.00 1016.00,1840.00 1016.00,1840.00
             1010.84,1838.14 1009.06,1829.99 1009.00,1825.00
             1009.00,1825.00 1006.00,1825.00 1006.00,1825.00
             1006.00,1825.00 1006.00,1818.00 1006.00,1818.00
             1006.00,1818.00 1003.00,1818.00 1003.00,1818.00
             1003.00,1818.00 996.00,1793.00 996.00,1793.00
             996.00,1793.00 993.00,1793.00 993.00,1793.00
             993.00,1793.00 993.00,1785.00 993.00,1785.00
             993.00,1785.00 990.00,1785.00 990.00,1785.00
             990.00,1785.00 990.00,1776.00 990.00,1776.00
             990.00,1776.00 987.00,1776.00 987.00,1776.00
             987.00,1776.00 983.00,1757.00 983.00,1757.00
             983.00,1757.00 980.00,1757.00 980.00,1757.00
             980.00,1757.00 980.00,1750.00 980.00,1750.00
             980.00,1750.00 977.00,1750.00 977.00,1750.00
             977.00,1750.00 977.00,1744.00 977.00,1744.00
             977.00,1744.00 974.00,1744.00 974.00,1744.00
             974.00,1744.00 974.00,1739.00 974.00,1739.00
             974.00,1739.00 966.00,1739.00 966.00,1739.00
             966.00,1739.00 966.00,1736.00 966.00,1736.00
             961.41,1735.99 957.78,1736.93 956.00,1732.00
             956.00,1732.00 946.00,1732.00 946.00,1732.00
             946.00,1732.00 946.00,1729.00 946.00,1729.00
             946.00,1729.00 939.00,1729.00 939.00,1729.00
             939.00,1729.00 939.00,1726.00 939.00,1726.00
             939.00,1726.00 932.00,1726.00 932.00,1726.00
             932.00,1726.00 932.00,1723.00 932.00,1723.00
             932.00,1723.00 918.00,1719.00 918.00,1719.00
             918.00,1719.00 918.00,1716.00 918.00,1716.00
             918.00,1716.00 911.00,1716.00 911.00,1716.00
             911.00,1716.00 911.00,1713.00 911.00,1713.00
             911.00,1713.00 905.00,1713.00 905.00,1713.00
             905.00,1713.00 905.00,1710.00 905.00,1710.00
             900.73,1709.33 895.53,1707.27 894.00,1703.00
             894.00,1703.00 889.00,1703.00 889.00,1703.00
             889.00,1703.00 889.00,1700.00 889.00,1700.00
             883.66,1699.94 880.03,1699.61 878.00,1694.00
             871.01,1693.45 862.93,1686.70 865.73,1679.00
             867.37,1674.50 880.10,1660.96 883.99,1657.00
             886.40,1654.54 892.46,1647.29 896.17,1647.81
             899.13,1648.23 909.00,1656.83 912.00,1659.12
             912.00,1659.12 948.00,1685.16 948.00,1685.16
             948.00,1685.16 995.00,1714.40 995.00,1714.40
             995.00,1714.40 1019.72,1726.92 1019.72,1726.92
             1021.19,1727.89 1024.42,1731.06 1025.63,1732.42
             1029.94,1737.31 1030.27,1741.42 1032.46,1747.00
             1032.46,1747.00 1042.86,1770.00 1042.86,1770.00
             1042.86,1770.00 1055.65,1798.00 1055.65,1798.00
             1055.65,1798.00 1058.32,1807.00 1058.32,1807.00
             1058.32,1807.00 1065.98,1824.00 1065.98,1824.00
             1065.98,1824.00 1082.30,1860.00 1082.30,1860.00
             1125.97,1952.57 1186.24,2040.18 1255.91,2115.00
             1255.91,2115.00 1292.72,2152.54 1292.72,2152.54
             1332.85,2190.07 1375.12,2224.51 1421.00,2254.83
             1421.00,2254.83 1455.00,2276.40 1455.00,2276.40
             1457.42,2277.86 1466.09,2283.52 1468.42,2283.49
             1470.73,2283.47 1474.14,2280.50 1476.00,2279.15
             1476.00,2279.15 1491.00,2269.40 1491.00,2269.40
             1505.58,2260.77 1521.72,2255.24 1538.00,2250.74
             1538.00,2250.74 1595.00,2237.46 1595.00,2237.46
             1595.00,2237.46 1609.00,2235.54 1609.00,2235.54
             1619.84,2233.59 1646.56,2230.02 1657.00,2230.00
             1657.00,2230.00 1684.00,2230.00 1684.00,2230.00
             1684.00,2230.00 1710.00,2230.00 1710.00,2230.00
             1729.67,2230.03 1766.04,2237.82 1785.00,2244.09
             1832.71,2259.85 1865.09,2290.24 1891.78,2332.00
             1891.78,2332.00 1916.75,2376.00 1916.75,2376.00
             1919.51,2381.55 1921.71,2390.59 1929.00,2391.02
             1938.57,2391.60 1943.89,2389.67 1953.00,2388.42
             1953.00,2388.42 1990.00,2382.66 1990.00,2382.66
             1995.04,2381.61 2008.08,2380.06 2011.96,2377.41
             2016.55,2374.27 2023.92,2357.80 2027.08,2352.00
             2027.08,2352.00 2059.42,2297.00 2059.42,2297.00
             2087.94,2251.44 2130.74,2201.58 2175.00,2171.02
             2211.48,2145.84 2248.00,2131.12 2292.00,2125.85
             2299.15,2124.99 2302.42,2124.01 2310.00,2124.00
             2310.00,2124.00 2332.00,2124.00 2332.00,2124.00
             2346.58,2124.02 2367.56,2128.64 2381.00,2134.28
             2381.00,2134.28 2397.00,2141.78 2397.00,2141.78
             2399.10,2142.89 2402.42,2145.16 2404.82,2144.65
             2407.12,2144.16 2411.29,2138.86 2412.95,2137.00
             2412.95,2137.00 2433.58,2113.00 2433.58,2113.00
             2458.42,2082.68 2486.89,2043.02 2506.28,2009.00
             2519.61,1985.60 2532.52,1962.37 2544.06,1938.00
             2577.62,1867.10 2601.88,1786.52 2613.30,1709.00
             2613.30,1709.00 2615.72,1695.00 2615.72,1695.00
             2615.72,1695.00 2616.43,1686.00 2616.43,1686.00
             2616.43,1686.00 2618.83,1672.00 2618.83,1672.00
             2618.83,1672.00 2620.17,1653.00 2620.17,1653.00
             2620.17,1653.00 2622.00,1630.00 2622.00,1630.00
             2622.00,1630.00 2623.04,1617.00 2623.04,1617.00
             2623.04,1617.00 2623.04,1602.00 2623.04,1602.00
             2623.04,1602.00 2624.00,1590.00 2624.00,1590.00
             2624.00,1590.00 2624.00,1558.00 2624.00,1558.00
             2624.00,1558.00 2623.00,1543.00 2623.00,1543.00
             2623.00,1543.00 2623.00,1532.00 2623.00,1532.00
             2623.00,1532.00 2622.00,1513.00 2622.00,1513.00
             2622.00,1513.00 2619.00,1483.00 2619.00,1483.00
             2619.00,1483.00 2619.00,1473.00 2619.00,1473.00
             2619.00,1473.00 2616.28,1457.00 2616.28,1457.00
             2616.28,1457.00 2610.43,1417.00 2610.43,1417.00
             2610.43,1417.00 2608.68,1404.00 2608.68,1404.00
             2608.68,1404.00 2606.42,1394.00 2606.42,1394.00
             2593.26,1321.63 2570.84,1251.13 2543.31,1183.00
             2543.31,1183.00 2537.43,1168.00 2537.43,1168.00
             2537.43,1168.00 2516.32,1121.06 2516.32,1121.06
             2513.14,1115.51 2512.47,1119.23 2508.25,1111.00
             2508.25,1111.00 2491.14,1075.00 2491.14,1075.00
             2491.14,1075.00 2475.05,1048.00 2475.05,1048.00
             2473.42,1045.40 2468.18,1037.57 2467.79,1035.04
             2467.09,1030.51 2473.69,1028.34 2477.00,1026.86
             2485.62,1023.02 2505.83,1012.46 2514.00,1012.00
             2514.00,1012.00 2525.58,1030.00 2525.58,1030.00
             2525.58,1030.00 2543.00,1058.00 2543.00,1058.00
             2543.00,1058.00 2546.13,1035.00 2546.13,1035.00
             2546.13,1035.00 2551.83,991.00 2551.83,991.00
             2551.83,991.00 2552.41,978.00 2552.41,978.00
             2552.41,978.00 2554.70,969.00 2554.70,969.00
             2554.70,969.00 2562.00,905.00 2562.00,905.00
             2562.00,905.00 2562.00,881.00 2562.00,881.00
             2562.00,881.00 2564.00,853.00 2564.00,853.00
             2564.00,853.00 2564.00,771.00 2564.00,771.00
             2564.00,771.00 2562.17,752.00 2562.17,752.00
             2562.17,752.00 2560.57,734.00 2560.57,734.00
             2556.42,705.97 2546.10,672.62 2536.16,646.00
             2505.22,563.14 2462.08,490.27 2410.08,419.00
             2390.32,391.92 2367.91,366.49 2345.09,342.00
             2303.13,296.96 2255.44,254.30 2200.00,226.58
             2177.13,215.14 2158.24,209.08 2133.00,205.42
             2125.20,204.29 2111.95,202.25 2105.01,206.73
             2100.76,209.49 2097.32,215.60 2094.86,220.00
             2088.06,232.20 2083.63,245.43 2080.58,259.00
             2076.95,275.09 2071.19,305.03 2071.00,321.00
             2071.00,321.00 2069.00,351.00 2069.00,351.00
             2069.00,351.00 2068.00,381.00 2068.00,381.00
             2068.00,381.00 2068.96,391.00 2068.96,391.00
             2068.96,391.00 2068.96,406.00 2068.96,406.00
             2068.96,406.00 2069.91,416.00 2069.91,416.00
             2069.91,416.00 2071.00,438.00 2071.00,438.00
             2071.00,438.00 2071.91,448.00 2071.91,448.00
             2071.91,448.00 2076.72,490.00 2076.72,490.00
             2076.72,490.00 2078.32,504.00 2078.32,504.00
             2078.32,504.00 2086.54,542.00 2086.54,542.00
             2086.54,542.00 2104.31,639.00 2104.31,639.00
             2109.09,664.61 2120.03,713.06 2120.96,737.00
             2121.06,739.62 2121.01,743.55 2119.69,745.85
             2115.68,752.82 2106.83,747.01 2103.18,742.98
             2099.68,739.12 2092.80,728.89 2090.95,724.00
             2090.95,724.00 2087.88,715.00 2087.88,715.00
             2087.88,715.00 2079.85,698.00 2079.85,698.00
             2079.85,698.00 2072.87,682.58 2072.87,682.58
             2071.92,679.61 2073.33,678.52 2072.09,674.00
             2072.09,674.00 2064.69,654.58 2064.69,654.58
             2064.69,654.58 2062.91,648.00 2062.91,648.00
             2062.91,648.00 2058.34,635.72 2058.34,635.72
             2058.34,635.72 2053.23,618.00 2053.23,618.00
             2053.23,618.00 2048.40,603.72 2048.40,603.72
             2048.40,603.72 2043.85,586.00 2043.85,586.00
             2043.85,586.00 2038.43,567.72 2038.43,567.72
             2038.43,567.72 2037.48,562.00 2037.48,562.00
             2037.48,562.00 2032.41,543.72 2032.41,543.72
             2032.41,543.72 2030.56,534.00 2030.56,534.00
             2030.56,534.00 2028.56,527.17 2028.56,527.17
             2028.56,527.17 2027.67,518.00 2027.67,518.00
             2027.67,518.00 2025.55,511.00 2025.55,511.00
             2025.55,511.00 2021.83,478.00 2021.83,478.00
             2021.83,478.00 2019.53,463.00 2019.53,463.00
             2019.53,463.00 2017.95,438.00 2017.95,438.00
             2017.95,438.00 2017.95,423.00 2017.95,423.00
             2017.50,418.65 2016.12,417.76 2016.16,413.00
             2016.16,413.00 2016.16,397.00 2016.16,397.00
             2016.16,397.00 2016.16,363.00 2016.16,363.00
             2016.16,363.00 2016.72,352.00 2016.72,352.00
             2016.72,352.00 2016.72,343.00 2016.72,343.00
             2016.76,338.91 2017.96,339.41 2018.00,331.00
             2018.00,331.00 2018.91,313.00 2018.91,313.00
             2018.91,313.00 2019.45,301.00 2019.45,301.00
             2019.45,301.00 2020.76,295.00 2020.76,295.00
             2020.76,295.00 2023.01,277.00 2023.01,277.00
             2023.57,271.87 2021.12,271.50 2021.55,268.20
             2021.55,268.20 2030.74,231.00 2030.74,231.00
             2030.74,231.00 2036.89,212.04 2036.89,212.04
             2036.89,212.04 2039.03,206.72 2039.03,206.72
             2039.88,203.46 2038.31,201.52 2039.82,195.01
             2041.32,188.59 2043.41,190.48 2044.00,183.00
             2044.00,183.00 2047.00,183.00 2047.00,183.00
             2047.00,183.00 2047.00,178.00 2047.00,178.00
             2047.00,178.00 2057.00,170.00 2057.00,170.00
             2057.00,170.00 2057.00,166.00 2057.00,166.00
             2060.73,164.07 2064.07,160.73 2066.00,157.00 Z
           M 2247.60,342.06
           C 2251.91,340.76 2254.58,343.16 2258.00,345.64
             2258.00,345.64 2275.00,359.00 2275.00,359.00
             2300.09,379.27 2325.55,407.24 2344.87,433.00
             2384.51,485.84 2414.23,549.75 2429.50,614.00
             2429.50,614.00 2438.57,658.00 2438.57,658.00
             2438.57,658.00 2439.29,666.00 2439.29,666.00
             2439.29,666.00 2441.72,681.00 2441.72,681.00
             2441.72,681.00 2443.00,703.00 2443.00,703.00
             2443.00,703.00 2444.00,717.00 2444.00,717.00
             2444.00,717.00 2444.00,748.00 2444.00,748.00
             2444.00,748.00 2443.09,760.00 2443.09,760.00
             2443.09,760.00 2441.83,782.00 2441.83,782.00
             2441.83,782.00 2439.30,798.00 2439.30,798.00
             2436.95,813.91 2434.10,829.48 2429.74,845.00
             2429.74,845.00 2423.00,867.00 2423.00,867.00
             2422.03,869.79 2420.44,874.42 2417.72,875.93
             2412.52,878.79 2413.00,869.56 2413.00,867.00
             2413.00,867.00 2413.00,809.00 2413.00,809.00
             2413.00,809.00 2410.17,779.00 2410.17,779.00
             2410.17,779.00 2408.83,759.00 2408.83,759.00
             2408.83,759.00 2407.29,750.00 2407.29,750.00
             2407.29,750.00 2403.44,723.00 2403.44,723.00
             2387.82,623.91 2356.67,544.83 2311.24,456.00
             2296.22,426.63 2278.32,399.13 2261.20,371.00
             2261.20,371.00 2248.88,352.00 2248.88,352.00
             2246.74,348.53 2245.01,345.67 2247.60,342.06 Z
           M 688.00,750.00
           C 690.50,746.09 691.45,746.09 696.00,746.00
             702.88,745.88 714.05,743.84 716.50,752.29
             718.05,757.62 710.64,766.44 707.81,771.00
             707.81,771.00 678.85,818.00 678.85,818.00
             647.94,871.86 622.59,924.88 600.68,983.00
             600.68,983.00 582.07,1038.00 582.07,1038.00
             580.27,1043.37 576.78,1057.91 573.04,1061.41
             568.08,1066.04 568.00,1056.34 568.00,1054.00
             568.00,1054.00 568.00,990.00 568.00,990.00
             568.00,990.00 571.00,990.00 571.00,990.00
             571.00,990.00 571.00,962.00 571.00,962.00
             571.00,962.00 574.00,962.00 574.00,962.00
             574.00,962.00 574.00,938.00 574.00,938.00
             574.00,938.00 577.00,938.00 577.00,938.00
             577.00,932.66 575.20,921.34 581.00,919.00
             581.00,919.00 581.00,906.00 581.00,906.00
             581.00,906.00 584.00,906.00 584.00,906.00
             584.00,906.00 584.00,892.00 584.00,892.00
             584.00,892.00 587.00,892.00 587.00,892.00
             587.00,892.00 587.00,881.00 587.00,881.00
             587.00,881.00 590.00,881.00 590.00,881.00
             590.00,881.00 590.00,871.00 590.00,871.00
             590.00,871.00 593.00,871.00 593.00,871.00
             593.00,871.00 597.00,853.00 597.00,853.00
             597.00,853.00 600.00,853.00 600.00,853.00
             600.00,853.00 600.00,845.00 600.00,845.00
             600.00,845.00 603.00,845.00 603.00,845.00
             603.00,845.00 603.00,838.00 603.00,838.00
             603.00,838.00 607.00,838.00 607.00,838.00
             607.00,838.00 606.00,832.00 606.00,832.00
             609.71,829.91 609.66,829.14 610.00,825.00
             610.00,825.00 613.00,825.00 613.00,825.00
             613.00,825.00 613.00,818.00 613.00,818.00
             613.00,818.00 616.00,818.00 616.00,818.00
             616.00,818.00 616.00,813.00 616.00,813.00
             616.00,813.00 619.00,813.00 619.00,813.00
             619.62,809.46 619.58,809.20 623.00,808.00
             622.10,802.79 624.04,800.47 629.00,799.00
             629.81,787.12 642.52,784.15 645.00,775.00
             645.00,775.00 648.00,772.00 648.00,772.00
             653.94,770.40 656.56,765.90 660.89,761.84
             663.39,759.49 665.11,759.02 667.00,756.00
             667.00,756.00 671.00,757.00 671.00,757.00
             673.95,750.40 681.35,748.12 688.00,750.00 Z
           M 737.00,1274.00
           C 731.24,1272.21 730.33,1268.23 728.14,1263.00
             728.14,1263.00 717.26,1235.00 717.26,1235.00
             717.26,1235.00 704.88,1196.00 704.88,1196.00
             704.12,1193.14 701.13,1183.61 701.66,1181.33
             702.25,1178.75 707.82,1175.31 710.00,1173.65
             716.64,1168.59 732.32,1156.62 740.00,1155.00
             740.00,1155.00 756.53,1200.00 756.53,1200.00
             756.53,1200.00 763.41,1220.00 763.41,1220.00
             763.41,1220.00 757.26,1233.00 757.26,1233.00
             757.26,1233.00 742.75,1261.00 742.75,1261.00
             742.75,1261.00 737.00,1274.00 737.00,1274.00 Z
           M 597.00,1290.00
           C 597.00,1285.50 596.58,1279.13 598.14,1275.00
             600.08,1269.90 603.90,1266.50 607.58,1262.72
             607.58,1262.72 628.00,1243.00 628.00,1243.00
             628.00,1243.00 639.49,1232.05 639.49,1232.05
             641.09,1230.69 643.18,1228.59 645.19,1230.65
             646.37,1231.86 648.70,1241.78 649.18,1244.00
             649.18,1244.00 656.66,1277.00 656.66,1277.00
             656.66,1277.00 665.23,1307.00 665.23,1307.00
             665.23,1307.00 676.86,1345.00 676.86,1345.00
             676.86,1345.00 684.58,1367.00 684.58,1367.00
             685.61,1369.76 688.55,1376.52 688.58,1379.00
             688.64,1384.16 682.90,1398.54 681.00,1404.00
             681.00,1404.00 669.02,1441.00 669.02,1441.00
             667.89,1444.66 666.11,1454.15 663.49,1456.39
             661.20,1458.35 657.73,1457.35 655.00,1457.00
             655.00,1457.00 655.00,1450.00 655.00,1450.00
             650.01,1448.21 648.17,1441.89 648.00,1437.00
             648.00,1437.00 645.00,1437.00 645.00,1437.00
             645.00,1437.00 645.00,1429.00 645.00,1429.00
             645.00,1429.00 642.00,1429.00 642.00,1429.00
             642.00,1429.00 642.00,1422.00 642.00,1422.00
             642.00,1422.00 639.00,1422.00 639.00,1422.00
             639.00,1422.00 635.00,1405.00 635.00,1405.00
             635.00,1405.00 632.00,1405.00 632.00,1405.00
             632.00,1405.00 632.00,1397.00 632.00,1397.00
             632.00,1397.00 629.00,1397.00 629.00,1397.00
             629.00,1397.00 629.00,1389.00 629.00,1389.00
             629.00,1389.00 626.00,1389.00 626.00,1389.00
             626.00,1389.00 626.00,1379.00 626.00,1379.00
             626.00,1379.00 623.31,1377.41 623.31,1377.41
             623.31,1377.41 619.18,1365.96 619.18,1365.96
             619.18,1365.96 620.00,1360.00 620.00,1360.00
             620.00,1360.00 616.00,1359.00 616.00,1359.00
             616.00,1359.00 616.00,1350.00 616.00,1350.00
             616.00,1350.00 613.00,1350.00 613.00,1350.00
             613.00,1350.00 613.00,1339.00 613.00,1339.00
             613.00,1339.00 610.00,1339.00 610.00,1339.00
             610.00,1339.00 610.00,1328.00 610.00,1328.00
             605.04,1324.82 606.00,1322.48 606.00,1317.00
             606.00,1317.00 603.00,1317.00 603.00,1317.00
             603.00,1317.00 603.00,1305.00 603.00,1305.00
             603.00,1305.00 600.00,1305.00 600.00,1305.00
             600.00,1305.00 600.00,1290.00 600.00,1290.00
             600.00,1290.00 597.00,1290.00 597.00,1290.00 Z
           M 1976.00,1628.00
           C 1975.70,1637.39 1970.52,1636.07 1963.00,1637.90
             1963.00,1637.90 1934.00,1645.66 1934.00,1645.66
             1934.00,1645.66 1904.00,1654.34 1904.00,1654.34
             1871.83,1664.67 1832.96,1680.95 1804.00,1698.20
             1804.00,1698.20 1771.00,1719.09 1771.00,1719.09
             1768.33,1720.98 1761.91,1725.61 1758.61,1722.97
             1754.68,1719.82 1762.62,1709.77 1764.58,1707.00
             1775.28,1691.84 1788.18,1678.35 1803.00,1667.13
             1831.06,1645.89 1862.13,1631.10 1897.00,1625.28
             1910.62,1623.01 1924.24,1622.98 1938.00,1623.00
             1938.00,1623.00 1958.00,1624.29 1958.00,1624.29
             1958.00,1624.29 1976.00,1628.00 1976.00,1628.00 Z
           M 1994.00,1667.00
           C 1996.35,1667.02 1998.74,1666.94 2001.00,1667.70
             2005.83,1669.33 2015.28,1678.17 2018.96,1682.00
             2033.35,1696.98 2048.16,1720.99 2031.70,1739.99
             2028.72,1743.42 2025.90,1745.50 2022.00,1747.77
             2013.42,1752.76 1999.83,1757.08 1990.00,1758.68
             1987.37,1759.10 1979.80,1759.88 1978.71,1756.69
             1977.91,1754.35 1979.84,1751.75 1981.14,1750.00
             1984.40,1745.61 1986.76,1742.91 1989.57,1738.00
             1997.14,1724.77 1997.17,1713.59 1997.00,1699.00
             1996.86,1687.71 1991.88,1679.04 1994.00,1667.00 Z
           M 1767.41,1771.08
           C 1773.02,1769.76 1773.76,1775.91 1775.45,1780.00
             1779.17,1789.00 1787.70,1798.03 1796.00,1802.98
             1805.41,1808.60 1814.98,1811.95 1826.00,1812.00
             1826.00,1812.00 1838.00,1811.17 1838.00,1811.17
             1842.73,1810.81 1846.64,1812.56 1843.97,1818.00
             1842.42,1821.17 1837.92,1824.51 1835.00,1826.48
             1817.72,1838.15 1785.99,1847.97 1771.60,1826.99
             1764.95,1817.30 1763.87,1802.46 1764.00,1791.00
             1764.00,1791.00 1765.74,1773.15 1765.74,1773.15
             1766.55,1771.36 1766.68,1771.86 1767.41,1771.08 Z
           M 1912.00,2027.78
           C 1908.33,2029.01 1899.04,2028.52 1895.28,2027.78
             1895.28,2027.78 1889.96,2025.71 1889.96,2025.71
             1889.96,2025.71 1882.28,2024.57 1882.28,2024.57
             1882.28,2024.57 1869.00,2020.22 1869.00,2020.22
             1869.00,2020.22 1859.28,2017.65 1859.28,2017.65
             1859.28,2017.65 1841.00,2010.36 1841.00,2010.36
             1841.00,2010.36 1833.00,2008.50 1833.00,2008.50
             1833.00,2008.50 1797.00,1988.30 1797.00,1988.30
             1797.00,1988.30 1767.26,1971.21 1767.26,1971.21
             1764.49,1968.80 1761.43,1962.43 1759.40,1959.00
             1759.40,1959.00 1743.43,1931.00 1743.43,1931.00
             1741.82,1928.19 1736.57,1919.76 1741.31,1917.61
             1744.06,1916.37 1747.66,1918.30 1750.00,1919.62
             1750.00,1919.62 1768.00,1930.20 1768.00,1930.20
             1794.10,1945.78 1817.10,1960.14 1845.00,1972.82
             1864.59,1981.73 1884.99,1987.95 1906.00,1992.28
             1906.00,1992.28 1917.00,1994.71 1917.00,1994.71
             1927.56,1996.09 1938.36,1996.02 1949.00,1996.00
             1977.88,1995.95 2008.46,1984.15 2031.00,1966.34
             2044.02,1956.04 2055.05,1943.58 2064.56,1930.00
             2077.18,1912.00 2087.45,1888.90 2094.19,1868.00
             2094.19,1868.00 2110.50,1803.00 2110.50,1803.00
             2110.50,1803.00 2114.43,1788.23 2114.43,1788.23
             2116.14,1785.22 2119.64,1784.43 2121.92,1787.32
             2121.92,1787.32 2130.43,1811.00 2130.43,1811.00
             2130.43,1811.00 2139.54,1838.00 2139.54,1838.00
             2140.90,1841.86 2143.71,1848.99 2143.49,1853.00
             2143.29,1856.63 2137.99,1868.03 2136.28,1872.00
             2136.28,1872.00 2123.10,1902.89 2123.10,1902.89
             2121.13,1906.42 2119.79,1906.11 2117.62,1909.97
             2117.62,1909.97 2106.88,1931.00 2106.88,1931.00
             2102.30,1939.55 2096.13,1949.04 2090.50,1956.96
             2072.23,1982.63 2047.49,2003.00 2019.00,2016.29
             2008.72,2021.09 1997.08,2025.01 1986.00,2027.49
             1986.00,2027.49 1977.00,2028.96 1977.00,2028.96
             1977.00,2028.96 1970.28,2030.60 1970.28,2030.60
             1970.28,2030.60 1936.00,2032.00 1936.00,2032.00
             1936.00,2032.00 1924.00,2031.01 1924.00,2031.01
             1922.04,2030.96 1915.74,2031.01 1914.21,2030.32
             1912.68,2029.63 1912.77,2029.15 1912.00,2027.78 Z
           M 736.00,2418.00
           C 736.00,2418.00 849.00,2418.00 849.00,2418.00
             849.00,2418.00 849.00,2585.00 849.00,2585.00
             849.00,2585.00 1018.00,2585.00 1018.00,2585.00
             1018.00,2585.00 1018.00,2699.00 1018.00,2699.00
             1018.00,2699.00 849.00,2699.00 849.00,2699.00
             849.00,2699.00 849.00,2866.00 849.00,2866.00
             849.00,2866.00 736.00,2866.00 736.00,2866.00
             736.00,2866.00 736.00,2699.00 736.00,2699.00
             736.00,2699.00 567.00,2699.00 567.00,2699.00
             567.00,2699.00 567.00,2585.00 567.00,2585.00
             567.00,2585.00 736.00,2585.00 736.00,2585.00
             736.00,2585.00 736.00,2418.00 736.00,2418.00 Z
           M 2950.00,2758.00
           C 2950.00,2758.00 3063.00,2758.00 3063.00,2758.00
             3063.00,2758.00 3063.00,2925.00 3063.00,2925.00
             3063.00,2925.00 3232.00,2925.00 3232.00,2925.00
             3232.00,2925.00 3232.00,3039.00 3232.00,3039.00
             3232.00,3039.00 3063.00,3039.00 3063.00,3039.00
             3063.00,3039.00 3063.00,3206.00 3063.00,3206.00
             3063.00,3206.00 2950.00,3206.00 2950.00,3206.00
             2950.00,3206.00 2950.00,3039.00 2950.00,3039.00
             2950.00,3039.00 2781.00,3039.00 2781.00,3039.00
             2781.00,3039.00 2781.00,2925.00 2781.00,2925.00
             2781.00,2925.00 2950.00,2925.00 2950.00,2925.00
             2950.00,2925.00 2950.00,2758.00 2950.00,2758.00 Z" />
</svg>
