<?xml version="1.0" encoding="UTF-8" standalone="no"?>
<!DOCTYPE svg PUBLIC "-//W3C//DTD SVG 20010904//EN"
              "http://www.w3.org/TR/2001/REC-SVG-20010904/DTD/svg10.dtd">

<svg xmlns="http://www.w3.org/2000/svg"
     width="12in" height="12in"
     viewBox="0 0 3600 3600">
  <path id="3 - mane"
        fill="none" stroke="black" stroke-width="1"
        d="M 1827.00,190.00
           C 1827.00,190.00 1892.00,190.00 1892.00,190.00
             1898.38,190.00 1917.13,189.07 1922.00,191.00
             1922.00,191.00 1900.00,192.06 1900.00,192.06
             1900.00,192.06 1918.00,192.06 1918.00,192.06
             1918.00,192.06 1925.00,193.10 1925.00,193.10
             1925.00,193.10 1951.00,193.10 1951.00,193.10
             1951.00,193.10 1976.00,194.00 1976.00,194.00
             1976.00,194.00 1974.00,195.00 1974.00,195.00
             1974.00,195.00 2023.00,196.00 2023.00,196.00
             2023.00,196.00 2022.00,199.00 2022.00,199.00
             2022.00,199.00 2030.00,199.00 2030.00,199.00
             2031.85,199.01 2035.07,198.92 2036.71,199.74
             2042.11,202.43 2036.66,213.85 2035.21,218.00
             2031.36,229.03 2026.50,246.56 2024.42,258.00
             2023.51,263.05 2021.43,267.91 2022.00,273.00
             2022.00,273.00 2017.00,275.00 2017.00,275.00
             2017.00,275.00 2020.00,274.00 2020.00,274.00
             2022.35,283.65 2019.42,284.53 2018.88,293.00
             2018.88,293.00 2018.88,302.00 2018.88,302.00
             2018.88,302.00 2015.96,323.00 2015.96,323.00
             2015.96,323.00 2015.96,337.00 2015.96,337.00
             2015.96,337.00 2015.00,349.00 2015.00,349.00
             2015.00,349.00 2015.00,410.00 2015.00,410.00
             2015.00,410.00 2016.00,426.00 2016.00,426.00
             2016.05,436.58 2015.91,441.22 2017.28,452.00
             2017.28,452.00 2019.00,462.00 2019.00,462.00
             2019.00,462.00 2019.00,473.00 2019.00,473.00
             2019.00,473.00 2021.71,490.00 2021.71,490.00
             2021.71,490.00 2022.29,498.00 2022.29,498.00
             2022.29,498.00 2024.68,509.00 2024.68,509.00
             2024.68,509.00 2026.28,521.00 2026.28,521.00
             2026.28,521.00 2034.49,555.00 2034.49,555.00
             2034.49,555.00 2055.52,630.00 2055.52,630.00
             2055.52,630.00 2065.42,659.00 2065.42,659.00
             2065.42,659.00 2070.21,672.00 2070.21,672.00
             2070.21,672.00 2071.55,678.96 2071.55,678.96
             2072.37,681.87 2073.80,683.46 2075.12,686.09
             2077.93,691.73 2089.14,716.26 2090.00,721.00
             2082.09,723.26 2076.38,728.18 2070.00,733.12
             2050.12,748.52 2035.20,772.26 2023.14,794.00
             1996.27,842.43 1979.16,907.35 1970.73,962.00
             1970.73,962.00 1966.17,994.00 1966.17,994.00
             1966.17,994.00 1964.83,1013.00 1964.83,1013.00
             1964.83,1013.00 1963.00,1032.00 1963.00,1032.00
             1963.00,1032.00 1962.00,1052.00 1962.00,1052.00
             1962.00,1052.00 1962.00,1073.00 1962.00,1073.00
             1962.00,1073.00 1959.17,1105.00 1959.17,1105.00
             1951.63,1180.09 1923.15,1248.53 1869.99,1303.00
             1839.14,1334.60 1800.94,1359.80 1762.00,1380.30
             1762.00,1380.30 1709.00,1406.30 1709.00,1406.30
             1702.12,1409.41 1688.48,1416.78 1682.00,1418.00
             1682.00,1418.00 1690.08,1387.00 1690.08,1387.00
             1690.08,1387.00 1697.74,1357.00 1697.74,1357.00
             1713.48,1300.30 1732.92,1244.80 1744.55,1187.00
             1744.55,1187.00 1752.17,1134.00 1752.17,1134.00
             1752.17,1134.00 1755.00,1103.00 1755.00,1103.00
             1755.00,1103.00 1755.00,1063.00 1755.00,1063.00
             1747.25,1064.25 1741.54,1073.28 1736.58,1079.00
             1736.58,1079.00 1700.00,1118.00 1700.00,1118.00
             1700.00,1118.00 1679.83,1138.83 1679.83,1138.83
             1679.83,1138.83 1646.00,1171.09 1646.00,1171.09
             1614.27,1200.65 1582.10,1229.90 1548.00,1256.79
             1548.00,1256.79 1477.00,1310.43 1477.00,1310.43
             1477.00,1310.43 1442.00,1334.97 1442.00,1334.97
             1434.20,1339.71 1433.36,1334.46 1424.00,1340.12
             1424.00,1340.12 1389.00,1362.26 1389.00,1362.26
             1389.00,1362.26 1348.00,1386.14 1348.00,1386.14
             1348.00,1386.14 1324.00,1397.32 1324.00,1397.32
             1324.00,1397.32 1264.00,1426.58 1264.00,1426.58
             1264.00,1426.58 1197.00,1453.00 1197.00,1453.00
             1197.00,1453.00 1137.00,1472.09 1137.00,1472.09
             1137.00,1472.09 1097.00,1488.47 1097.00,1488.47
             1084.78,1494.09 1088.88,1493.35 1080.91,1498.42
             1080.91,1498.42 1067.00,1505.86 1067.00,1505.86
             1046.36,1517.31 1026.43,1529.61 1007.00,1543.02
             1007.00,1543.02 986.00,1558.78 986.00,1558.78
             981.63,1561.76 980.64,1560.41 976.09,1563.68
             976.09,1563.68 951.33,1585.04 951.33,1585.04
             951.33,1585.04 944.17,1590.54 944.17,1590.54
             944.17,1590.54 929.12,1604.13 929.12,1604.13
             929.12,1604.13 907.68,1624.66 907.68,1624.66
             904.17,1628.03 894.68,1636.62 893.77,1641.00
             892.95,1643.32 893.68,1646.59 893.77,1649.00
             888.06,1651.81 884.95,1656.19 880.72,1661.00
             877.11,1665.09 865.85,1676.20 865.02,1681.00
             864.66,1683.10 865.41,1685.03 866.00,1687.00
             861.69,1691.26 862.08,1693.26 856.00,1696.00
             856.00,1696.00 857.00,1699.00 857.00,1699.00
             857.00,1699.00 853.00,1700.00 853.00,1700.00
             853.00,1700.00 854.00,1702.00 854.00,1702.00
             850.03,1705.70 842.36,1717.89 838.00,1719.00
             838.00,1719.00 834.00,1728.00 834.00,1728.00
             834.00,1728.00 831.00,1732.00 831.00,1732.00
             831.00,1732.00 815.00,1750.00 815.00,1750.00
             815.00,1750.00 815.00,1754.00 815.00,1754.00
             811.35,1756.22 809.14,1759.93 808.00,1764.00
             804.57,1765.17 802.92,1769.71 802.00,1773.00
             802.00,1773.00 796.00,1777.00 796.00,1777.00
             795.22,1780.39 795.33,1780.80 792.00,1782.00
             792.00,1782.00 789.00,1793.00 789.00,1793.00
             789.00,1793.00 786.00,1792.00 786.00,1792.00
             785.58,1797.32 781.18,1806.03 776.00,1808.00
             776.00,1808.00 776.00,1814.00 776.00,1814.00
             773.17,1815.03 773.41,1816.18 773.00,1819.00
             773.00,1819.00 770.00,1819.00 770.00,1819.00
             769.74,1822.09 770.16,1823.16 767.00,1824.00
             767.00,1824.00 763.00,1837.00 763.00,1837.00
             759.60,1838.21 757.52,1844.62 757.00,1848.00
             757.00,1848.00 754.00,1848.00 754.00,1848.00
             753.82,1851.08 754.27,1853.06 751.00,1854.00
             751.00,1854.00 750.00,1861.00 750.00,1861.00
             747.11,1862.20 747.26,1865.17 747.00,1868.00
             743.66,1869.21 744.10,1871.84 744.00,1875.00
             744.00,1875.00 741.00,1875.00 741.00,1875.00
             740.89,1878.22 741.44,1880.08 738.00,1881.00
             738.00,1881.00 734.00,1899.00 734.00,1899.00
             730.43,1900.30 731.04,1903.69 731.00,1907.00
             731.00,1907.00 728.00,1906.00 728.00,1906.00
             728.00,1906.00 728.00,1915.00 728.00,1915.00
             728.00,1915.00 725.00,1915.00 725.00,1915.00
             725.00,1915.00 721.00,1933.00 721.00,1933.00
             717.44,1934.38 718.35,1938.64 717.00,1942.00
             714.51,1941.56 715.01,1948.26 715.00,1950.00
             715.00,1950.00 712.00,1949.00 712.00,1949.00
             711.76,1958.32 709.13,1957.46 701.00,1956.00
             700.99,1952.44 701.90,1948.28 698.00,1947.00
             698.00,1947.00 697.00,1936.00 697.00,1936.00
             693.24,1934.92 694.47,1932.30 693.71,1929.09
             692.10,1922.31 691.00,1928.81 691.00,1914.00
             691.00,1914.00 688.00,1915.00 688.00,1915.00
             688.00,1911.36 689.05,1906.33 685.00,1905.00
             685.00,1901.43 686.04,1895.40 682.00,1894.00
             682.00,1894.00 680.46,1884.17 680.46,1884.17
             680.46,1884.17 678.54,1879.83 678.54,1879.83
             678.54,1879.83 677.45,1874.09 677.45,1874.09
             677.45,1874.09 675.27,1868.83 675.27,1868.83
             674.48,1865.26 676.24,1861.39 672.00,1860.00
             672.00,1860.00 671.00,1848.00 671.00,1848.00
             671.00,1848.00 669.00,1850.00 669.00,1850.00
             669.00,1850.00 668.00,1836.00 668.00,1836.00
             663.61,1834.74 665.00,1827.71 665.00,1824.00
             665.00,1824.00 662.00,1824.00 662.00,1824.00
             662.00,1820.28 663.18,1814.37 659.00,1813.00
             659.00,1813.00 658.00,1798.00 658.00,1798.00
             658.00,1798.00 656.00,1800.00 656.00,1800.00
             656.00,1795.89 657.55,1786.49 653.00,1785.00
             653.00,1785.00 651.71,1774.09 651.71,1774.09
             651.71,1774.09 649.15,1767.91 649.15,1767.91
             649.15,1767.91 649.15,1753.00 649.15,1753.00
             649.15,1753.00 646.00,1754.00 646.00,1754.00
             646.00,1746.69 646.86,1739.87 644.00,1733.00
             644.00,1733.00 643.00,1737.00 643.00,1737.00
             643.00,1737.00 642.00,1714.00 642.00,1714.00
             642.00,1714.00 640.00,1716.00 640.00,1716.00
             640.00,1716.00 639.04,1687.46 639.04,1687.46
             638.40,1682.50 636.02,1685.41 636.00,1673.00
             636.00,1673.00 636.00,1610.00 636.00,1610.00
             636.00,1596.69 635.26,1583.20 637.00,1570.00
             637.00,1570.00 639.00,1571.00 639.00,1571.00
             639.00,1571.00 639.91,1550.00 639.91,1550.00
             639.91,1550.00 641.00,1539.00 641.00,1539.00
             641.00,1539.00 642.00,1541.00 642.00,1541.00
             642.00,1541.00 644.00,1520.00 644.00,1520.00
             644.00,1520.00 645.00,1524.00 645.00,1524.00
             645.00,1524.00 646.00,1504.00 646.00,1504.00
             646.00,1504.00 649.15,1505.00 649.15,1505.00
             649.15,1505.00 649.15,1491.09 649.15,1491.09
             649.15,1491.09 651.46,1485.83 651.46,1485.83
             651.46,1485.83 652.83,1478.17 652.83,1478.17
             652.83,1478.17 655.59,1471.96 655.59,1471.96
             655.59,1471.96 657.00,1461.00 657.00,1461.00
             657.00,1461.00 658.00,1463.00 658.00,1463.00
             660.51,1456.66 662.94,1460.21 666.53,1451.00
             666.53,1451.00 671.74,1433.00 671.74,1433.00
             671.74,1433.00 686.56,1389.00 686.56,1389.00
             686.56,1389.00 688.87,1381.00 688.87,1381.00
             706.14,1336.08 726.57,1292.76 748.58,1250.00
             748.58,1250.00 763.90,1220.00 763.90,1220.00
             763.90,1220.00 807.80,1144.00 807.80,1144.00
             807.80,1144.00 820.40,1123.00 820.40,1123.00
             823.56,1117.77 826.28,1115.22 827.00,1109.00
             819.54,1109.68 810.80,1114.30 804.00,1117.58
             804.00,1117.58 767.00,1136.85 767.00,1136.85
             723.22,1161.84 683.18,1192.81 646.04,1226.82
             646.04,1226.82 623.00,1248.00 623.00,1248.00
             623.00,1248.00 600.51,1271.00 600.51,1271.00
             597.34,1275.45 596.89,1281.32 594.91,1284.71
             592.47,1288.88 583.36,1296.45 579.66,1300.30
             576.22,1303.88 575.00,1307.32 570.00,1309.00
             570.00,1309.00 570.00,1313.00 570.00,1313.00
             570.00,1313.00 561.09,1322.12 561.09,1322.12
             561.09,1322.12 547.00,1338.00 547.00,1338.00
             547.00,1338.00 538.00,1344.00 538.00,1344.00
             538.00,1344.00 538.00,1348.00 538.00,1348.00
             538.00,1348.00 529.00,1352.00 529.00,1352.00
             529.00,1352.00 529.00,1308.00 529.00,1308.00
             529.00,1308.00 530.00,1291.00 530.00,1291.00
             530.00,1291.00 531.00,1260.00 531.00,1260.00
             533.49,1260.44 533.00,1253.74 533.00,1252.00
             533.01,1248.71 532.34,1235.79 534.13,1233.77
             534.99,1232.78 535.39,1233.17 536.00,1233.00
             536.00,1233.00 536.00,1218.00 536.00,1218.00
             536.04,1214.86 535.55,1211.07 539.00,1210.00
             539.00,1210.00 539.91,1201.00 539.91,1201.00
             539.91,1201.00 541.00,1185.00 541.00,1185.00
             541.00,1185.00 542.00,1187.00 542.00,1187.00
             542.00,1187.00 544.00,1167.00 544.00,1167.00
             544.00,1167.00 545.00,1170.00 545.00,1170.00
             545.00,1170.00 546.00,1152.00 546.00,1152.00
             546.00,1152.00 549.11,1152.00 549.11,1152.00
             549.11,1152.00 549.11,1139.04 549.11,1139.04
             549.97,1134.63 552.37,1134.81 553.00,1121.00
             557.36,1119.31 556.00,1110.02 556.00,1106.00
             556.00,1106.00 559.00,1107.00 559.00,1107.00
             559.00,1107.00 559.00,1093.00 559.00,1093.00
             559.00,1093.00 562.00,1093.00 562.00,1093.00
             562.00,1093.00 562.00,1082.00 562.00,1082.00
             562.00,1082.00 565.00,1082.00 565.00,1082.00
             565.00,1078.38 563.77,1071.31 568.00,1070.00
             569.17,1063.23 573.08,1064.58 576.79,1056.00
             576.79,1056.00 586.50,1025.00 586.50,1025.00
             607.24,960.08 634.85,897.87 667.31,838.00
             667.31,838.00 699.23,784.00 699.23,784.00
             702.26,779.16 715.74,759.66 716.83,756.00
             716.83,756.00 716.83,745.00 716.83,745.00
             716.83,745.00 720.00,745.00 720.00,745.00
             720.00,745.00 727.00,730.00 727.00,730.00
             727.00,730.00 737.00,721.00 737.00,721.00
             737.00,721.00 736.00,718.00 736.00,718.00
             736.00,718.00 740.00,712.00 740.00,712.00
             740.00,712.00 743.00,708.00 743.00,708.00
             746.13,706.90 748.42,701.89 750.00,699.00
             750.00,699.00 756.00,696.00 756.00,696.00
             756.00,696.00 756.00,691.00 756.00,691.00
             758.18,690.21 764.39,682.32 765.00,680.00
             765.00,680.00 767.00,679.00 767.00,679.00
             767.00,679.00 768.00,680.00 768.00,680.00
             769.60,672.46 775.77,668.04 780.64,662.63
             780.64,662.63 792.21,648.37 792.21,648.37
             794.97,645.69 797.36,642.32 801.00,641.00
             801.00,641.00 801.00,637.00 801.00,637.00
             801.00,637.00 804.00,638.00 804.00,638.00
             804.00,638.00 804.00,634.00 804.00,634.00
             808.18,631.59 811.04,626.76 814.38,623.21
             814.38,623.21 834.25,602.96 834.25,602.96
             837.65,599.53 841.37,594.55 846.00,593.00
             846.00,593.00 846.00,589.00 846.00,589.00
             846.00,589.00 849.00,586.00 849.00,586.00
             849.00,586.00 853.00,586.00 853.00,586.00
             853.00,586.00 852.00,583.00 852.00,583.00
             852.00,583.00 856.00,583.00 856.00,583.00
             856.00,583.00 864.03,573.58 864.03,573.58
             864.03,573.58 886.42,551.13 886.42,551.13
             886.42,551.13 900.00,538.00 900.00,538.00
             900.00,538.00 904.00,538.00 904.00,538.00
             906.74,530.45 924.09,520.05 927.00,515.00
             929.49,514.49 929.42,514.44 930.00,512.00
             930.00,512.00 945.74,501.45 945.74,501.45
             950.78,497.24 951.60,493.62 959.00,492.00
             959.00,492.00 958.00,490.00 958.00,490.00
             958.00,490.00 959.00,489.00 959.00,489.00
             959.00,489.00 962.00,490.00 962.00,490.00
             962.00,490.00 972.00,479.00 972.00,479.00
             972.00,479.00 974.00,480.00 974.00,480.00
             976.91,475.62 982.74,470.80 988.00,470.00
             988.00,470.00 996.00,461.00 996.00,461.00
             999.18,460.06 1009.05,454.00 1010.00,451.00
             1010.00,451.00 1014.00,451.00 1014.00,451.00
             1014.00,451.00 1020.00,444.00 1020.00,444.00
             1020.00,444.00 1024.00,441.00 1024.00,441.00
             1027.32,440.08 1031.93,438.50 1033.00,435.00
             1033.00,435.00 1039.00,434.00 1039.00,434.00
             1039.70,431.71 1039.62,432.14 1042.00,432.00
             1042.00,432.00 1048.00,425.00 1048.00,425.00
             1048.00,425.00 1053.00,425.00 1053.00,425.00
             1054.25,421.83 1054.67,421.91 1058.00,422.00
             1058.00,422.00 1058.00,419.00 1058.00,419.00
             1058.00,419.00 1072.21,410.93 1072.21,410.93
             1072.21,410.93 1073.00,409.00 1073.00,409.00
             1075.97,408.64 1077.02,408.98 1078.00,406.00
             1078.00,406.00 1085.00,405.00 1085.00,405.00
             1086.10,400.76 1091.03,399.31 1095.00,399.00
             1095.00,399.00 1095.00,396.00 1095.00,396.00
             1097.97,395.64 1099.02,395.98 1100.00,393.00
             1100.00,393.00 1106.00,392.00 1106.00,392.00
             1106.00,392.00 1105.00,390.00 1105.00,390.00
             1105.00,390.00 1110.00,390.00 1110.00,390.00
             1110.00,390.00 1117.00,383.00 1117.00,383.00
             1117.00,383.00 1123.00,383.00 1123.00,383.00
             1123.00,383.00 1122.00,380.00 1122.00,380.00
             1122.00,380.00 1135.00,376.00 1135.00,376.00
             1135.94,372.73 1137.92,373.18 1141.00,373.00
             1141.00,373.00 1141.00,370.00 1141.00,370.00
             1141.00,370.00 1146.00,370.00 1146.00,370.00
             1146.00,370.00 1146.00,367.00 1146.00,367.00
             1146.00,367.00 1152.00,367.00 1152.00,367.00
             1152.00,367.00 1152.00,364.00 1152.00,364.00
             1152.00,364.00 1159.00,363.00 1159.00,363.00
             1159.00,363.00 1158.00,361.00 1158.00,361.00
             1158.00,361.00 1165.00,360.00 1165.00,360.00
             1165.00,360.00 1165.00,357.00 1165.00,357.00
             1168.12,356.81 1169.93,357.25 1171.00,354.00
             1174.12,353.81 1175.93,354.25 1177.00,351.00
             1179.98,350.72 1181.93,351.07 1183.00,348.00
             1192.37,346.43 1193.21,341.14 1204.00,341.00
             1204.00,341.00 1203.00,338.00 1203.00,338.00
             1206.27,337.92 1208.85,338.50 1210.00,335.00
             1210.00,335.00 1223.00,332.00 1223.00,332.00
             1225.56,328.01 1226.41,328.16 1231.00,328.00
             1231.00,328.00 1231.00,325.00 1231.00,325.00
             1234.12,324.81 1235.93,325.25 1237.00,322.00
             1237.00,322.00 1253.00,318.00 1253.00,318.00
             1254.01,314.49 1256.79,315.08 1260.00,315.00
             1260.00,315.00 1260.00,312.00 1260.00,312.00
             1260.00,312.00 1268.00,312.00 1268.00,312.00
             1268.00,312.00 1268.00,309.00 1268.00,309.00
             1271.27,308.92 1273.85,309.50 1275.00,306.00
             1275.00,306.00 1285.00,305.00 1285.00,305.00
             1285.98,301.61 1288.01,302.44 1291.00,303.00
             1291.00,303.00 1292.00,299.00 1292.00,299.00
             1295.27,298.92 1297.85,299.50 1299.00,296.00
             1299.00,296.00 1308.00,296.00 1308.00,296.00
             1308.00,296.00 1308.00,293.00 1308.00,293.00
             1311.41,292.97 1314.78,293.72 1316.00,290.00
             1316.00,290.00 1326.00,289.00 1326.00,289.00
             1326.00,289.00 1326.77,287.13 1326.77,287.13
             1326.77,287.13 1343.00,282.00 1343.00,282.00
             1343.00,282.00 1341.00,280.00 1341.00,280.00
             1344.64,280.00 1349.67,281.05 1351.00,277.00
             1361.57,276.97 1363.08,273.43 1372.17,270.54
             1375.56,269.46 1378.69,270.99 1380.00,267.00
             1380.00,267.00 1392.00,266.00 1392.00,266.00
             1392.00,266.00 1390.00,264.00 1390.00,264.00
             1393.48,263.99 1398.66,264.85 1400.00,261.00
             1400.00,261.00 1412.00,260.00 1412.00,260.00
             1412.00,260.00 1411.00,258.00 1411.00,258.00
             1411.00,258.00 1422.00,257.00 1422.00,257.00
             1422.00,257.00 1422.00,254.00 1422.00,254.00
             1422.00,254.00 1433.00,254.00 1433.00,254.00
             1433.00,254.00 1432.00,251.00 1432.00,251.00
             1435.79,251.00 1442.57,252.37 1444.00,248.00
             1444.00,248.00 1456.00,247.00 1456.00,247.00
             1456.00,247.00 1455.00,245.00 1455.00,245.00
             1455.00,245.00 1482.00,241.00 1482.00,241.00
             1482.00,241.00 1482.00,238.00 1482.00,238.00
             1482.00,238.00 1494.00,237.00 1494.00,237.00
             1494.00,237.00 1492.00,235.00 1492.00,235.00
             1496.02,235.00 1505.46,236.42 1507.00,232.00
             1507.00,232.00 1519.91,231.00 1519.91,231.00
             1519.91,231.00 1526.09,228.15 1526.09,228.15
             1526.09,228.15 1536.00,228.15 1536.00,228.15
             1536.00,228.15 1536.00,225.00 1536.00,225.00
             1536.00,225.00 1552.00,225.00 1552.00,225.00
             1552.00,225.00 1551.00,222.00 1551.00,222.00
             1551.00,222.00 1570.00,221.00 1570.00,221.00
             1570.00,221.00 1568.00,219.00 1568.00,219.00
             1572.01,219.00 1582.41,220.32 1584.00,216.00
             1584.00,216.00 1605.00,215.00 1605.00,215.00
             1606.61,208.98 1613.90,214.62 1625.00,210.00
             1625.00,210.00 1622.00,209.00 1622.00,209.00
             1622.00,209.00 1643.00,208.00 1643.00,208.00
             1643.00,208.00 1641.00,206.00 1641.00,206.00
             1641.00,206.00 1662.00,206.00 1662.00,206.00
             1665.22,205.96 1668.80,206.46 1670.00,203.00
             1670.00,203.00 1695.00,201.00 1695.00,201.00
             1695.00,201.00 1692.00,200.00 1692.00,200.00
             1692.00,200.00 1706.00,199.00 1706.00,199.00
             1706.00,199.00 1727.00,199.00 1727.00,199.00
             1727.00,199.00 1726.00,196.00 1726.00,196.00
             1736.09,196.00 1766.14,196.91 1774.00,195.00
             1774.00,195.00 1772.00,193.00 1772.00,193.00
             1772.00,193.00 1818.00,193.00 1818.00,193.00
             1818.00,193.00 1843.00,191.00 1843.00,191.00
             1843.00,191.00 1827.00,190.00 1827.00,190.00 Z
           M 2348.00,260.00
           C 2348.00,260.00 2358.00,264.00 2358.00,264.00
             2359.12,267.09 2361.00,266.78 2364.00,267.00
             2364.00,267.00 2364.00,270.00 2364.00,270.00
             2364.00,270.00 2385.00,280.00 2385.00,280.00
             2385.00,280.00 2385.00,283.00 2385.00,283.00
             2385.00,283.00 2395.00,287.00 2395.00,287.00
             2395.00,287.00 2394.00,289.00 2394.00,289.00
             2394.00,289.00 2404.00,293.00 2404.00,293.00
             2404.00,293.00 2413.00,302.00 2413.00,302.00
             2417.80,302.56 2421.28,304.27 2423.00,309.00
             2429.97,309.51 2429.62,312.10 2434.80,315.86
             2438.91,318.84 2443.13,319.86 2445.00,325.00
             2445.00,325.00 2449.00,325.00 2449.00,325.00
             2449.00,325.00 2449.00,328.00 2449.00,328.00
             2449.00,328.00 2462.00,335.00 2462.00,335.00
             2462.00,335.00 2462.00,338.00 2462.00,338.00
             2468.37,338.88 2468.40,341.20 2472.84,344.94
             2472.84,344.94 2483.91,353.09 2483.91,353.09
             2488.00,356.31 2489.03,358.69 2494.00,361.00
             2494.93,363.73 2498.37,365.31 2500.66,367.28
             2500.66,367.28 2508.76,374.37 2508.76,374.37
             2513.25,378.87 2513.19,381.28 2520.00,383.00
             2520.00,383.00 2519.00,386.00 2519.00,386.00
             2519.00,386.00 2520.00,387.00 2520.00,387.00
             2520.00,387.00 2523.00,386.00 2523.00,386.00
             2523.00,386.00 2544.67,406.59 2544.67,406.59
             2544.67,406.59 2579.79,441.91 2579.79,441.91
             2579.79,441.91 2592.76,456.56 2592.76,456.56
             2592.76,456.56 2600.00,463.00 2600.00,463.00
             2600.00,463.00 2600.00,467.00 2600.00,467.00
             2608.03,469.56 2616.71,485.22 2623.00,489.00
             2623.00,489.00 2623.00,493.00 2623.00,493.00
             2630.36,495.47 2634.08,505.86 2639.00,509.00
             2640.52,515.37 2647.63,516.42 2649.00,525.00
             2653.35,526.58 2657.78,532.41 2658.00,537.00
             2658.00,537.00 2671.00,550.00 2671.00,550.00
             2672.23,554.38 2674.77,557.84 2678.00,561.00
             2678.00,561.00 2677.00,563.00 2677.00,563.00
             2682.86,565.74 2687.42,576.25 2690.92,581.78
             2694.10,586.81 2696.45,585.49 2697.00,593.00
             2700.54,594.38 2700.38,595.40 2701.00,599.00
             2701.00,599.00 2703.00,598.00 2703.00,598.00
             2703.00,598.00 2707.00,608.00 2707.00,608.00
             2707.00,608.00 2710.00,608.00 2710.00,608.00
             2710.36,610.97 2710.02,612.02 2713.00,613.00
             2713.75,617.87 2718.80,627.37 2723.00,630.00
             2722.93,633.72 2722.76,634.06 2726.00,636.00
             2726.36,638.97 2726.02,640.02 2729.00,641.00
             2729.00,641.00 2730.00,648.00 2730.00,648.00
             2733.69,649.03 2735.23,653.63 2736.84,656.85
             2740.20,663.54 2748.60,677.30 2749.00,684.00
             2749.00,684.00 2752.00,684.00 2752.00,684.00
             2752.19,687.12 2751.75,688.93 2755.00,690.00
             2755.00,690.00 2759.00,704.00 2759.00,704.00
             2759.00,704.00 2761.00,703.00 2761.00,703.00
             2761.00,703.00 2762.00,711.00 2762.00,711.00
             2765.70,711.99 2764.96,714.64 2765.00,718.00
             2765.00,718.00 2768.00,718.00 2768.00,718.00
             2768.28,720.98 2767.93,722.93 2771.00,724.00
             2771.07,727.23 2770.51,730.79 2774.00,732.00
             2774.00,732.00 2775.00,741.00 2775.00,741.00
             2778.70,741.99 2777.96,744.64 2778.00,748.00
             2778.00,748.00 2781.00,748.00 2781.00,748.00
             2781.03,751.41 2780.28,754.78 2784.00,756.00
             2784.03,759.41 2783.28,762.78 2787.00,764.00
             2787.00,764.00 2791.00,783.00 2791.00,783.00
             2791.00,783.00 2794.00,783.00 2794.00,783.00
             2794.08,786.27 2793.50,788.85 2797.00,790.00
             2797.00,790.00 2797.00,800.00 2797.00,800.00
             2797.00,800.00 2800.00,800.00 2800.00,800.00
             2799.77,807.53 2797.30,809.12 2803.00,811.00
             2804.82,820.92 2805.86,819.38 2806.71,823.09
             2807.49,826.52 2805.98,829.68 2810.00,831.00
             2810.00,831.00 2810.00,843.00 2810.00,843.00
             2810.00,843.00 2813.00,841.00 2813.00,841.00
             2813.00,841.00 2814.00,854.00 2814.00,854.00
             2814.00,854.00 2816.00,852.00 2816.00,852.00
             2816.00,852.00 2817.00,867.00 2817.00,867.00
             2823.65,868.90 2815.52,875.45 2823.00,880.00
             2823.00,880.00 2824.00,894.00 2824.00,894.00
             2824.00,894.00 2826.00,892.00 2826.00,892.00
             2826.00,892.00 2827.13,908.17 2827.13,908.17
             2827.13,908.17 2828.94,909.00 2828.94,909.00
             2828.94,909.00 2828.94,916.00 2828.94,916.00
             2828.51,919.93 2826.72,923.95 2832.00,925.00
             2832.00,925.00 2833.30,940.91 2833.30,940.91
             2833.30,940.91 2836.00,951.00 2836.00,951.00
             2836.00,951.00 2836.00,969.00 2836.00,969.00
             2836.00,969.00 2839.00,968.00 2839.00,968.00
             2839.00,968.00 2840.00,990.00 2840.00,990.00
             2840.00,990.00 2842.00,988.00 2842.00,988.00
             2842.00,988.00 2842.00,1015.00 2842.00,1015.00
             2841.98,1024.10 2839.16,1027.40 2845.00,1028.00
             2845.00,1028.00 2845.00,1063.00 2845.00,1063.00
             2845.00,1063.00 2846.00,1080.00 2846.00,1080.00
             2846.00,1080.00 2846.00,1113.00 2846.00,1113.00
             2846.00,1113.00 2845.00,1128.00 2845.00,1128.00
             2845.00,1128.00 2845.00,1154.00 2845.00,1154.00
             2845.00,1154.00 2844.00,1168.00 2844.00,1168.00
             2844.00,1168.00 2843.00,1165.00 2843.00,1165.00
             2843.00,1165.00 2842.00,1192.00 2842.00,1192.00
             2842.00,1192.00 2841.00,1208.00 2841.00,1208.00
             2838.79,1207.61 2839.03,1212.40 2839.00,1214.00
             2839.00,1214.00 2839.00,1230.00 2839.00,1230.00
             2833.74,1231.78 2836.09,1243.10 2836.00,1248.00
             2835.94,1251.21 2836.39,1253.09 2833.00,1254.00
             2833.00,1254.00 2831.00,1277.00 2831.00,1277.00
             2831.00,1277.00 2830.00,1274.00 2830.00,1274.00
             2830.00,1274.00 2829.00,1293.00 2829.00,1293.00
             2829.00,1293.00 2826.84,1294.45 2826.84,1294.45
             2826.84,1294.45 2826.00,1312.00 2826.00,1312.00
             2821.53,1313.62 2823.00,1321.10 2823.00,1325.00
             2823.00,1325.00 2820.00,1325.00 2820.00,1325.00
             2820.00,1348.54 2816.00,1332.49 2816.00,1356.00
             2811.01,1357.81 2814.30,1364.21 2812.00,1370.00
             2809.13,1369.50 2810.00,1380.82 2810.00,1383.00
             2810.00,1383.00 2807.00,1383.00 2807.00,1383.00
             2807.00,1383.00 2806.32,1395.83 2806.32,1395.83
             2806.32,1395.83 2804.27,1401.09 2804.27,1401.09
             2804.27,1401.09 2803.00,1411.00 2803.00,1411.00
             2798.45,1412.65 2800.00,1422.81 2800.00,1427.00
             2796.70,1428.20 2797.06,1430.85 2797.00,1434.00
             2797.00,1434.00 2797.00,1457.00 2797.00,1457.00
             2797.00,1461.28 2797.60,1465.97 2796.00,1470.00
             2796.00,1470.00 2795.00,1459.00 2795.00,1459.00
             2795.00,1459.00 2794.00,1477.00 2794.00,1477.00
             2794.00,1477.00 2794.00,1543.00 2794.00,1543.00
             2794.00,1543.00 2794.00,1564.00 2794.00,1564.00
             2793.93,1569.94 2792.45,1570.92 2796.00,1576.00
             2796.00,1576.00 2797.00,1572.00 2797.00,1572.00
             2797.00,1572.00 2797.00,1617.00 2797.00,1617.00
             2797.00,1617.00 2798.00,1642.00 2798.00,1642.00
             2798.00,1642.00 2800.00,1639.00 2800.00,1639.00
             2800.00,1639.00 2800.00,1666.00 2800.00,1666.00
             2800.00,1672.96 2799.26,1677.40 2802.00,1684.00
             2802.00,1684.00 2802.00,1682.00 2802.00,1682.00
             2802.00,1682.00 2803.00,1682.00 2803.00,1682.00
             2803.00,1682.00 2804.27,1705.91 2804.27,1705.91
             2804.27,1705.91 2807.00,1718.00 2807.00,1718.00
             2807.00,1718.00 2807.00,1739.00 2807.00,1739.00
             2807.00,1739.00 2810.00,1738.00 2810.00,1738.00
             2810.00,1745.54 2808.62,1758.60 2812.00,1765.00
             2812.00,1765.00 2813.00,1761.00 2813.00,1761.00
             2813.00,1768.43 2812.10,1776.04 2815.00,1783.00
             2815.00,1783.00 2815.00,1781.00 2815.00,1781.00
             2815.00,1781.00 2816.00,1781.00 2816.00,1781.00
             2816.00,1781.00 2817.00,1804.00 2817.00,1804.00
             2820.65,1805.13 2819.98,1809.73 2820.00,1813.00
             2820.08,1824.86 2822.58,1818.00 2823.02,1832.00
             2823.11,1835.11 2822.82,1836.96 2826.00,1838.00
             2826.00,1838.00 2827.00,1857.00 2827.00,1857.00
             2827.00,1857.00 2829.00,1855.00 2829.00,1855.00
             2829.00,1861.84 2828.57,1864.36 2831.00,1871.00
             2831.00,1871.00 2831.00,1869.00 2831.00,1869.00
             2831.00,1869.00 2832.00,1869.00 2832.00,1869.00
             2832.00,1869.00 2833.00,1886.00 2833.00,1886.00
             2837.78,1887.28 2836.00,1895.98 2836.00,1900.00
             2836.00,1900.00 2839.00,1900.00 2839.00,1900.00
             2839.00,1903.72 2837.82,1909.63 2842.00,1911.00
             2842.00,1914.91 2840.66,1923.49 2845.00,1925.00
             2845.00,1925.00 2849.00,1951.00 2849.00,1951.00
             2849.00,1951.00 2852.00,1951.00 2852.00,1951.00
             2852.00,1951.00 2851.00,1964.00 2851.00,1964.00
             2851.00,1964.00 2855.00,1962.00 2855.00,1962.00
             2855.00,1962.00 2856.00,1975.00 2856.00,1975.00
             2856.00,1975.00 2858.00,1973.00 2858.00,1973.00
             2858.01,1976.45 2857.16,1982.58 2861.00,1984.00
             2861.61,1988.67 2860.74,1993.56 2865.00,1996.00
             2865.00,1996.00 2865.00,2007.00 2865.00,2007.00
             2865.00,2007.00 2868.00,2006.00 2868.00,2006.00
             2868.01,2009.56 2867.10,2013.72 2871.00,2015.00
             2871.01,2018.48 2870.15,2023.66 2874.00,2025.00
             2874.00,2025.00 2875.00,2036.00 2875.00,2036.00
             2878.44,2036.99 2877.48,2038.82 2878.53,2041.83
             2881.05,2049.06 2880.99,2045.02 2881.00,2054.00
             2881.00,2054.00 2884.00,2054.00 2884.00,2054.00
             2884.00,2054.00 2885.00,2063.00 2885.00,2063.00
             2885.00,2063.00 2887.00,2061.00 2887.00,2061.00
             2887.03,2064.38 2886.31,2068.72 2890.00,2070.00
             2890.00,2070.00 2891.00,2080.00 2891.00,2080.00
             2896.47,2081.46 2894.89,2093.33 2900.00,2095.00
             2900.01,2098.56 2899.10,2102.72 2903.00,2104.00
             2903.32,2113.10 2909.86,2116.11 2910.00,2127.00
             2910.00,2127.00 2913.00,2127.00 2913.00,2127.00
             2913.00,2127.00 2913.00,2134.00 2913.00,2134.00
             2913.00,2134.00 2916.00,2134.00 2916.00,2134.00
             2916.00,2134.00 2920.00,2149.00 2920.00,2149.00
             2920.00,2149.00 2923.00,2149.00 2923.00,2149.00
             2923.00,2149.00 2923.00,2156.00 2923.00,2156.00
             2923.00,2156.00 2926.00,2155.00 2926.00,2155.00
             2926.08,2158.27 2925.50,2160.85 2929.00,2162.00
             2929.00,2162.00 2932.00,2175.00 2932.00,2175.00
             2935.20,2177.08 2935.50,2177.18 2935.00,2181.00
             2935.00,2181.00 2939.00,2182.00 2939.00,2182.00
             2939.19,2185.12 2938.75,2186.93 2942.00,2188.00
             2942.00,2188.00 2942.00,2195.00 2942.00,2195.00
             2945.17,2196.25 2945.09,2196.67 2945.00,2200.00
             2948.45,2202.35 2948.51,2202.90 2949.00,2207.00
             2949.00,2207.00 2952.00,2207.00 2952.00,2207.00
             2952.93,2213.00 2954.93,2213.54 2957.18,2218.43
             2958.51,2221.32 2957.66,2222.91 2961.00,2224.00
             2961.19,2227.12 2960.75,2228.93 2964.00,2230.00
             2964.00,2230.00 2965.00,2236.00 2965.00,2236.00
             2965.00,2236.00 2968.00,2236.00 2968.00,2236.00
             2968.88,2239.17 2970.76,2244.96 2974.00,2246.00
             2974.59,2248.67 2974.33,2250.02 2977.00,2251.00
             2977.00,2251.00 2981.00,2262.00 2981.00,2262.00
             2981.00,2262.00 2984.00,2262.00 2984.00,2262.00
             2984.88,2265.17 2986.76,2270.96 2990.00,2272.00
             2990.00,2272.00 2994.00,2278.00 2994.00,2278.00
             2994.00,2278.00 2993.00,2281.00 2993.00,2281.00
             3001.17,2284.76 2998.31,2289.49 3003.00,2291.00
             3003.00,2291.00 3007.00,2301.00 3007.00,2301.00
             3007.00,2301.00 3016.00,2309.00 3016.00,2309.00
             3016.00,2309.00 3016.00,2314.00 3016.00,2314.00
             3020.57,2315.53 3022.26,2318.37 3023.00,2323.00
             3023.00,2323.00 3026.00,2323.00 3026.00,2323.00
             3026.00,2323.00 3026.00,2327.00 3026.00,2327.00
             3030.37,2328.47 3031.81,2330.66 3033.00,2335.00
             3033.00,2335.00 3035.00,2334.00 3035.00,2334.00
             3035.00,2334.00 3039.00,2339.00 3039.00,2339.00
             3040.61,2346.06 3050.52,2349.69 3052.00,2359.00
             3058.77,2361.27 3062.59,2370.72 3068.00,2374.00
             3068.00,2374.00 3068.00,2378.00 3068.00,2378.00
             3073.41,2380.11 3072.00,2387.09 3072.00,2392.00
             3072.00,2392.00 2969.00,2392.00 2969.00,2392.00
             2969.00,2392.00 2970.00,2389.00 2970.00,2389.00
             2970.00,2389.00 2947.00,2389.00 2947.00,2389.00
             2947.00,2389.00 2933.96,2386.05 2933.96,2386.05
             2933.96,2386.05 2925.00,2386.05 2925.00,2386.05
             2925.00,2386.05 2917.00,2385.00 2917.00,2385.00
             2915.09,2380.40 2901.87,2382.93 2897.00,2381.00
             2897.00,2381.00 2893.96,2379.13 2893.96,2379.13
             2893.96,2379.13 2882.00,2378.00 2882.00,2378.00
             2882.48,2375.24 2872.98,2376.00 2871.00,2376.00
             2871.00,2376.00 2871.00,2373.00 2871.00,2373.00
             2871.00,2373.00 2848.00,2369.00 2848.00,2369.00
             2846.88,2366.10 2844.85,2366.31 2842.00,2366.00
             2842.36,2368.97 2842.02,2370.02 2845.00,2371.00
             2845.03,2374.41 2844.28,2377.78 2848.00,2379.00
             2848.00,2379.00 2852.00,2394.00 2852.00,2394.00
             2852.00,2394.00 2855.00,2394.00 2855.00,2394.00
             2855.08,2397.27 2854.50,2399.85 2858.00,2401.00
             2858.03,2404.41 2857.28,2407.78 2861.00,2409.00
             2861.00,2409.00 2861.00,2414.00 2861.00,2414.00
             2861.00,2414.00 2855.76,2417.13 2855.76,2417.13
             2855.76,2417.13 2846.00,2417.13 2846.00,2417.13
             2846.00,2417.13 2845.00,2420.00 2845.00,2420.00
             2845.00,2420.00 2852.00,2423.00 2852.00,2423.00
             2853.08,2427.74 2858.75,2432.07 2862.29,2435.40
             2862.29,2435.40 2880.88,2454.27 2880.88,2454.27
             2884.11,2457.49 2888.53,2460.62 2890.00,2465.00
             2890.00,2465.00 2894.00,2465.00 2894.00,2465.00
             2897.88,2472.51 2915.98,2481.98 2919.00,2491.00
             2919.00,2491.00 2923.00,2491.00 2923.00,2491.00
             2923.00,2491.00 2923.00,2494.00 2923.00,2494.00
             2923.00,2494.00 2939.00,2504.00 2939.00,2504.00
             2939.00,2504.00 2943.00,2507.00 2943.00,2507.00
             2943.00,2507.00 2942.00,2510.00 2942.00,2510.00
             2949.03,2511.12 2949.47,2514.01 2954.45,2518.00
             2960.62,2522.95 2967.17,2525.73 2972.00,2533.00
             2972.00,2533.00 2974.00,2532.00 2974.00,2532.00
             2978.40,2536.72 2981.17,2536.72 2984.00,2543.00
             2984.00,2543.00 2987.00,2542.00 2987.00,2542.00
             2989.22,2545.67 2996.05,2550.23 3000.00,2552.00
             3001.20,2555.39 3003.34,2554.65 3004.98,2557.30
             3005.65,2558.39 3005.89,2559.72 3005.89,2560.99
             3005.89,2566.32 3002.09,2565.97 2998.00,2566.00
             2998.00,2566.00 2954.00,2566.00 2954.00,2566.00
             2948.72,2566.00 2937.44,2566.76 2933.00,2565.00
             2933.00,2565.00 2936.00,2564.00 2936.00,2564.00
             2936.00,2564.00 2914.00,2563.00 2914.00,2563.00
             2914.00,2563.00 2878.00,2563.00 2878.00,2563.00
             2878.00,2563.00 2878.00,2560.00 2878.00,2560.00
             2870.41,2560.00 2852.39,2560.54 2846.00,2558.00
             2846.00,2558.00 2850.00,2557.00 2850.00,2557.00
             2850.00,2557.00 2838.00,2556.04 2838.00,2556.04
             2838.00,2556.04 2825.00,2556.04 2825.00,2556.04
             2825.00,2556.04 2823.55,2553.84 2823.55,2553.84
             2823.55,2553.84 2805.00,2553.00 2805.00,2553.00
             2805.00,2553.00 2806.00,2550.00 2806.00,2550.00
             2806.00,2550.00 2791.00,2550.00 2791.00,2550.00
             2791.00,2550.00 2791.00,2547.00 2791.00,2547.00
             2786.98,2547.00 2777.30,2548.53 2776.00,2544.00
             2776.00,2544.00 2761.00,2543.00 2761.00,2543.00
             2759.39,2538.84 2752.69,2540.00 2749.00,2540.00
             2747.52,2535.92 2741.64,2537.00 2738.00,2537.00
             2738.00,2537.00 2739.00,2534.00 2739.00,2534.00
             2739.00,2534.00 2728.00,2534.00 2728.00,2534.00
             2728.00,2534.00 2728.00,2531.00 2728.00,2531.00
             2728.00,2531.00 2707.00,2527.00 2707.00,2527.00
             2705.63,2523.23 2701.44,2524.01 2698.00,2524.00
             2696.97,2521.17 2695.82,2521.41 2693.00,2521.00
             2693.00,2521.00 2694.00,2530.00 2694.00,2530.00
             2685.08,2531.60 2682.76,2531.16 2674.00,2530.00
             2674.00,2530.00 2675.00,2528.00 2675.00,2528.00
             2675.00,2528.00 2651.00,2527.00 2651.00,2527.00
             2648.90,2521.23 2636.10,2525.82 2629.00,2523.00
             2629.00,2523.00 2632.00,2522.00 2632.00,2522.00
             2632.00,2522.00 2616.00,2521.00 2616.00,2521.00
             2616.00,2521.00 2616.00,2518.00 2616.00,2518.00
             2612.17,2518.00 2604.30,2519.55 2603.00,2515.00
             2600.47,2514.88 2596.63,2514.70 2594.37,2513.52
             2585.08,2508.67 2583.80,2490.28 2581.53,2481.00
             2581.53,2481.00 2576.00,2456.00 2576.00,2456.00
             2578.76,2457.17 2587.66,2461.25 2589.98,2461.56
             2592.10,2461.83 2594.35,2461.36 2594.63,2458.85
             2594.89,2456.54 2592.53,2453.00 2591.43,2451.00
             2591.43,2451.00 2584.41,2437.00 2584.41,2437.00
             2576.69,2421.58 2567.67,2400.32 2562.08,2384.00
             2553.70,2359.58 2547.53,2334.54 2543.87,2309.00
             2543.87,2309.00 2542.17,2299.00 2542.17,2299.00
             2542.17,2299.00 2541.00,2274.00 2541.00,2274.00
             2541.00,2274.00 2540.02,2258.00 2540.02,2258.00
             2540.02,2258.00 2540.96,2249.00 2540.96,2249.00
             2540.96,2249.00 2540.96,2237.00 2540.96,2237.00
             2541.19,2221.10 2545.99,2193.46 2550.26,2178.00
             2550.26,2178.00 2560.58,2141.00 2560.58,2141.00
             2562.09,2135.83 2563.44,2127.85 2567.00,2124.00
             2567.00,2124.00 2599.01,2177.00 2599.01,2177.00
             2599.01,2177.00 2646.31,2255.00 2646.31,2255.00
             2662.61,2280.35 2683.82,2311.13 2707.09,2330.23
             2724.97,2344.92 2740.99,2353.54 2763.00,2360.34
             2766.75,2361.50 2780.79,2365.67 2783.82,2363.94
             2786.68,2362.30 2786.03,2359.56 2785.12,2357.00
             2785.12,2357.00 2776.98,2338.00 2776.98,2338.00
             2776.98,2338.00 2742.72,2260.00 2742.72,2260.00
             2717.34,2201.21 2695.93,2140.01 2684.09,2077.00
             2684.09,2077.00 2679.71,2047.00 2679.71,2047.00
             2679.71,2047.00 2677.28,2032.00 2677.28,2032.00
             2677.28,2032.00 2675.91,2014.00 2675.91,2014.00
             2675.91,2014.00 2673.96,1995.00 2673.96,1995.00
             2673.96,1995.00 2673.96,1984.00 2673.96,1984.00
             2673.96,1984.00 2673.00,1972.00 2673.00,1972.00
             2673.00,1972.00 2673.00,1912.00 2673.00,1912.00
             2673.00,1912.00 2673.96,1902.00 2673.96,1902.00
             2673.96,1902.00 2673.96,1887.00 2673.96,1887.00
             2673.96,1887.00 2675.83,1867.00 2675.83,1867.00
             2675.83,1867.00 2677.17,1842.00 2677.17,1842.00
             2677.17,1842.00 2680.00,1820.00 2680.00,1820.00
             2680.00,1820.00 2680.00,1812.00 2680.00,1812.00
             2680.00,1812.00 2685.71,1770.00 2685.71,1770.00
             2685.71,1770.00 2687.29,1755.00 2687.29,1755.00
             2687.29,1755.00 2695.57,1702.00 2695.57,1702.00
             2695.57,1702.00 2703.32,1654.00 2703.32,1654.00
             2703.32,1654.00 2721.54,1560.00 2721.54,1560.00
             2721.54,1560.00 2748.50,1432.00 2748.50,1432.00
             2748.50,1432.00 2767.66,1348.00 2767.66,1348.00
             2774.26,1318.50 2781.09,1288.89 2785.71,1259.00
             2785.71,1259.00 2790.28,1224.00 2790.28,1224.00
             2790.28,1224.00 2796.00,1173.00 2796.00,1173.00
             2796.00,1173.00 2797.00,1152.00 2797.00,1152.00
             2797.00,1152.00 2799.00,1117.00 2799.00,1117.00
             2799.00,1117.00 2799.00,1076.00 2799.00,1076.00
             2799.00,1076.00 2797.00,1040.00 2797.00,1040.00
             2797.00,1040.00 2796.00,1026.00 2796.00,1026.00
             2796.00,1026.00 2793.06,999.00 2793.06,999.00
             2793.06,999.00 2793.06,990.00 2793.06,990.00
             2793.06,990.00 2790.28,973.00 2790.28,973.00
             2785.83,939.96 2779.66,907.28 2771.15,875.00
             2732.00,726.40 2662.21,604.24 2559.12,490.42
             2536.71,465.68 2512.54,442.69 2488.00,420.08
             2488.00,420.08 2469.37,404.63 2469.37,404.63
             2469.37,404.63 2442.79,371.00 2442.79,371.00
             2442.79,371.00 2398.58,318.00 2398.58,318.00
             2398.58,318.00 2360.00,278.00 2360.00,278.00
             2355.47,273.45 2347.51,266.80 2348.00,260.00 Z
           M 736.00,2418.00
           C 736.00,2418.00 849.00,2418.00 849.00,2418.00
             849.00,2418.00 849.00,2585.00 849.00,2585.00
             849.00,2585.00 1018.00,2585.00 1018.00,2585.00
             1018.00,2585.00 1018.00,2699.00 1018.00,2699.00
             1018.00,2699.00 849.00,2699.00 849.00,2699.00
             849.00,2699.00 849.00,2866.00 849.00,2866.00
             849.00,2866.00 736.00,2866.00 736.00,2866.00
             736.00,2866.00 736.00,2699.00 736.00,2699.00
             736.00,2699.00 567.00,2699.00 567.00,2699.00
             567.00,2699.00 567.00,2585.00 567.00,2585.00
             567.00,2585.00 736.00,2585.00 736.00,2585.00
             736.00,2585.00 736.00,2418.00 736.00,2418.00 Z
           M 2950.00,2758.00
           C 2950.00,2758.00 3063.00,2758.00 3063.00,2758.00
             3063.00,2758.00 3063.00,2925.00 3063.00,2925.00
             3063.00,2925.00 3232.00,2925.00 3232.00,2925.00
             3232.00,2925.00 3232.00,3039.00 3232.00,3039.00
             3232.00,3039.00 3063.00,3039.00 3063.00,3039.00
             3063.00,3039.00 3063.00,3206.00 3063.00,3206.00
             3063.00,3206.00 2950.00,3206.00 2950.00,3206.00
             2950.00,3206.00 2950.00,3039.00 2950.00,3039.00
             2950.00,3039.00 2781.00,3039.00 2781.00,3039.00
             2781.00,3039.00 2781.00,2925.00 2781.00,2925.00
             2781.00,2925.00 2950.00,2925.00 2950.00,2925.00
             2950.00,2925.00 2950.00,2758.00 2950.00,2758.00 Z" />
</svg>
