<?xml version="1.0" encoding="UTF-8" standalone="no"?>
<!DOCTYPE svg PUBLIC "-//W3C//DTD SVG 20010904//EN"
              "http://www.w3.org/TR/2001/REC-SVG-20010904/DTD/svg10.dtd">

<svg xmlns="http://www.w3.org/2000/svg"
     width="12in" height="12in"
     viewBox="0 0 3600 3600">
  <path id="4 - mane outline 1"
        fill="none" stroke="black" stroke-width="1"
        d="M 825.00,1111.00
           C 798.58,1120.22 763.39,1140.76 740.00,1156.40
             740.00,1156.40 717.00,1171.43 717.00,1171.43
             691.66,1189.54 668.07,1209.97 645.00,1230.83
             645.00,1230.83 605.05,1269.00 605.05,1269.00
             597.05,1277.64 600.84,1282.07 594.36,1289.11
             594.36,1289.11 580.66,1302.88 580.66,1302.88
             580.66,1302.88 563.80,1322.55 563.80,1322.55
             563.80,1322.55 552.39,1334.13 552.39,1334.13
             552.39,1334.13 546.34,1341.12 546.34,1341.12
             544.10,1343.52 536.97,1351.78 534.83,1352.86
             531.42,1354.59 527.86,1354.19 527.05,1349.94
             527.05,1349.94 527.05,1345.00 527.05,1345.00
             527.05,1345.00 527.05,1305.00 527.05,1305.00
             527.05,1305.00 528.00,1292.00 528.00,1292.00
             528.00,1292.00 528.00,1267.00 528.00,1267.00
             528.02,1256.74 529.54,1260.13 530.85,1254.91
             530.85,1254.91 530.85,1239.00 530.85,1239.00
             531.13,1229.41 533.84,1232.14 534.00,1223.00
             534.36,1201.23 537.86,1212.16 538.00,1191.00
             538.07,1180.30 540.73,1187.31 541.00,1172.00
             541.14,1164.45 543.14,1165.98 544.08,1160.96
             544.08,1160.96 544.08,1153.09 544.08,1153.09
             544.94,1150.17 546.36,1149.45 546.86,1145.96
             546.86,1145.96 547.41,1137.00 547.41,1137.00
             547.41,1137.00 549.52,1131.00 549.52,1131.00
             549.52,1131.00 551.21,1122.09 551.21,1122.09
             551.21,1122.09 553.70,1115.91 553.70,1115.91
             553.70,1115.91 554.30,1107.09 554.30,1107.09
             554.30,1107.09 556.70,1100.91 556.70,1100.91
             556.70,1100.91 557.30,1094.09 557.30,1094.09
             557.30,1094.09 559.46,1088.83 559.46,1088.83
             559.46,1088.83 560.29,1083.09 560.29,1083.09
             560.29,1083.09 562.46,1077.83 562.46,1077.83
             563.36,1074.99 562.70,1072.60 564.23,1069.00
             567.09,1062.27 572.04,1063.24 575.54,1053.00
             575.54,1053.00 586.67,1017.00 586.67,1017.00
             586.67,1017.00 608.91,956.00 608.91,956.00
             626.90,909.71 649.58,865.19 673.96,822.00
             673.96,822.00 697.86,782.00 697.86,782.00
             697.86,782.00 713.35,758.00 713.35,758.00
             715.46,753.79 713.93,752.26 714.67,748.01
             715.22,744.85 717.66,740.68 719.45,738.00
             719.45,738.00 732.80,719.56 732.80,719.56
             732.80,719.56 746.09,701.02 746.09,701.02
             746.09,701.02 752.63,693.55 752.63,693.55
             752.63,693.55 756.42,687.80 756.42,687.80
             756.42,687.80 773.63,666.21 773.63,666.21
             773.63,666.21 779.29,660.54 779.29,660.54
             779.29,660.54 786.44,651.01 786.44,651.01
             786.44,651.01 794.71,642.58 794.71,642.58
             794.71,642.58 814.17,619.96 814.17,619.96
             814.17,619.96 840.61,592.87 840.61,592.87
             840.61,592.87 848.13,584.39 848.13,584.39
             848.13,584.39 861.31,573.03 861.31,573.03
             861.31,573.03 866.66,566.88 866.66,566.88
             866.66,566.88 883.42,550.45 883.42,550.45
             883.42,550.45 905.58,531.71 905.58,531.71
             905.58,531.71 913.04,524.28 913.04,524.28
             913.04,524.28 922.83,516.37 922.83,516.37
             922.83,516.37 935.46,505.20 935.46,505.20
             935.46,505.20 944.54,499.46 944.54,499.46
             944.54,499.46 955.09,489.82 955.09,489.82
             1012.24,444.72 1073.60,404.77 1137.71,370.23
             1137.71,370.23 1206.72,335.14 1206.72,335.14
             1206.72,335.14 1227.72,325.18 1227.72,325.18
             1227.72,325.18 1236.28,320.88 1236.28,320.88
             1236.28,320.88 1242.72,319.11 1242.72,319.11
             1242.72,319.11 1250.00,315.02 1250.00,315.02
             1250.00,315.02 1259.28,310.87 1259.28,310.87
             1259.28,310.87 1263.84,309.48 1263.84,309.48
             1263.84,309.48 1274.28,304.86 1274.28,304.86
             1274.28,304.86 1280.00,302.94 1280.00,302.94
             1280.00,302.94 1298.28,294.88 1298.28,294.88
             1298.28,294.88 1303.83,293.46 1303.83,293.46
             1303.83,293.46 1317.09,287.99 1317.09,287.99
             1317.09,287.99 1330.83,283.47 1330.83,283.47
             1330.83,283.47 1341.17,278.54 1341.17,278.54
             1341.17,278.54 1345.91,277.71 1345.91,277.71
             1345.91,277.71 1351.17,275.54 1351.17,275.54
             1351.17,275.54 1357.00,274.45 1357.00,274.45
             1357.00,274.45 1363.00,271.66 1363.00,271.66
             1363.00,271.66 1375.83,267.46 1375.83,267.46
             1375.83,267.46 1380.17,265.54 1380.17,265.54
             1380.17,265.54 1385.83,264.46 1385.83,264.46
             1385.83,264.46 1391.09,262.29 1391.09,262.29
             1391.09,262.29 1395.83,261.46 1395.83,261.46
             1395.83,261.46 1400.17,259.50 1400.17,259.50
             1400.17,259.50 1413.00,255.41 1413.00,255.41
             1413.00,255.41 1417.83,254.46 1417.83,254.46
             1417.83,254.46 1422.17,252.54 1422.17,252.54
             1422.17,252.54 1427.83,251.46 1427.83,251.46
             1427.83,251.46 1432.17,249.54 1432.17,249.54
             1432.17,249.54 1439.83,248.46 1439.83,248.46
             1439.83,248.46 1444.17,246.54 1444.17,246.54
             1444.17,246.54 1450.00,245.32 1450.00,245.32
             1450.00,245.32 1456.00,243.10 1456.00,243.10
             1456.00,243.10 1464.00,241.47 1464.00,241.47
             1464.00,241.47 1470.00,239.30 1470.00,239.30
             1470.00,239.30 1476.91,238.70 1476.91,238.70
             1470.92,240.04 1492.64,233.92 1487.83,235.46
             1487.83,235.46 1493.09,233.30 1493.09,233.30
             1493.09,233.30 1501.91,232.70 1501.91,232.70
             1501.91,232.70 1508.09,230.26 1508.09,230.26
             1508.09,230.26 1518.58,228.90 1518.58,228.90
             1518.58,228.90 1525.00,226.31 1525.00,226.31
             1525.00,226.31 1530.91,225.70 1530.91,225.70
             1533.85,225.05 1534.55,223.64 1538.04,222.92
             1538.04,222.92 1545.91,222.92 1545.91,222.92
             1545.91,222.92 1552.09,220.30 1552.09,220.30
             1552.09,220.30 1562.91,219.70 1562.91,219.70
             1562.91,219.70 1569.09,217.30 1569.09,217.30
             1569.09,217.30 1578.00,216.70 1578.00,216.70
             1578.00,216.70 1586.00,213.86 1586.00,213.86
             1591.28,212.51 1594.56,213.33 1598.00,212.86
             1601.62,212.37 1602.88,210.94 1606.00,210.30
             1606.00,210.30 1616.91,209.70 1616.91,209.70
             1616.91,209.70 1623.09,207.15 1623.09,207.15
             1624.94,206.88 1628.94,207.01 1631.00,207.15
             1640.06,206.94 1637.59,204.92 1643.04,204.07
             1643.04,204.07 1661.00,204.07 1661.00,204.07
             1668.50,203.86 1666.73,202.02 1672.04,201.13
             1672.04,201.13 1686.00,199.87 1686.00,199.87
             1686.00,199.87 1694.00,198.09 1694.00,198.09
             1704.25,196.50 1707.25,197.17 1717.00,197.00
             1726.37,196.83 1721.11,194.02 1733.00,194.00
             1733.00,194.00 1761.00,194.00 1761.00,194.00
             1773.73,193.97 1766.27,191.03 1779.00,191.00
             1779.00,191.00 1815.00,191.00 1815.00,191.00
             1827.58,190.97 1821.42,188.03 1834.00,188.00
             1834.00,188.00 1902.00,188.00 1902.00,188.00
             1905.64,188.00 1920.13,187.29 1922.41,189.02
             1923.62,189.95 1923.57,190.77 1924.00,192.00
             1929.47,190.45 1935.35,191.00 1941.00,191.00
             1941.00,191.00 1969.00,191.00 1969.00,191.00
             1981.73,191.03 1974.27,193.97 1987.00,194.00
             1987.00,194.00 2018.00,194.00 2018.00,194.00
             2025.55,194.14 2024.01,196.14 2029.04,196.86
             2032.25,197.32 2036.84,196.31 2039.42,198.74
             2044.09,203.15 2039.82,210.39 2038.18,215.00
             2038.18,215.00 2030.71,239.00 2030.71,239.00
             2030.07,241.27 2029.19,246.63 2027.42,247.98
             2025.76,249.24 2022.04,249.00 2020.00,249.00
             2020.00,249.00 1985.00,249.00 1985.00,249.00
             1973.24,248.98 1977.29,246.17 1968.00,246.00
             1968.00,246.00 1938.00,245.00 1938.00,245.00
             1938.00,245.00 1925.00,244.00 1925.00,244.00
             1925.00,244.00 1912.00,244.00 1912.00,244.00
             1912.00,244.00 1897.00,243.00 1897.00,243.00
             1897.00,243.00 1855.00,243.00 1855.00,243.00
             1855.00,243.00 1838.00,244.04 1838.00,244.04
             1838.00,244.04 1823.00,244.04 1823.00,244.04
             1823.00,244.04 1811.00,245.00 1811.00,245.00
             1811.00,245.00 1780.00,246.00 1780.00,246.00
             1780.00,246.00 1758.00,247.91 1758.00,247.91
             1758.00,247.91 1736.00,249.17 1736.00,249.17
             1736.00,249.17 1714.00,252.00 1714.00,252.00
             1714.00,252.00 1705.00,252.00 1705.00,252.00
             1705.00,252.00 1689.00,254.58 1689.00,254.58
             1689.00,254.58 1680.00,255.28 1680.00,255.28
             1680.00,255.28 1664.00,257.71 1664.00,257.71
             1618.71,263.82 1573.56,271.64 1529.00,281.89
             1496.46,289.37 1464.00,297.89 1432.00,307.44
             1432.00,307.44 1400.00,317.52 1400.00,317.52
             1400.00,317.52 1387.00,322.20 1387.00,322.20
             1384.04,322.51 1380.55,320.19 1378.00,318.84
             1378.00,318.84 1364.00,312.31 1364.00,312.31
             1352.42,307.19 1338.62,304.30 1326.00,304.01
             1315.57,303.78 1298.22,306.68 1290.04,313.39
             1282.04,319.94 1273.36,337.30 1269.28,347.00
             1269.28,347.00 1264.20,362.00 1264.20,362.00
             1263.50,364.44 1262.29,369.42 1260.42,371.08
             1260.42,371.08 1249.00,376.23 1249.00,376.23
             1249.00,376.23 1221.00,389.26 1221.00,389.26
             1192.13,403.24 1163.74,418.48 1136.00,434.58
             950.18,542.42 798.76,689.12 698.06,880.00
             675.70,922.39 655.60,967.70 639.92,1013.00
             622.59,1063.07 607.86,1113.83 598.39,1166.00
             598.39,1166.00 591.72,1204.00 591.72,1204.00
             591.72,1204.00 590.00,1215.00 590.00,1215.00
             657.76,1147.24 747.76,1081.94 840.00,1052.98
             862.62,1045.87 885.82,1039.69 909.00,1034.66
             909.00,1034.66 925.00,1031.11 925.00,1031.11
             927.46,1031.02 930.44,1031.40 931.30,1034.15
             932.47,1037.95 924.45,1048.54 922.17,1052.00
             922.17,1052.00 890.05,1101.00 890.05,1101.00
             846.11,1170.29 812.06,1227.37 775.25,1301.00
             738.99,1373.51 707.11,1458.75 694.73,1539.00
             694.73,1539.00 692.29,1553.00 692.29,1553.00
             689.83,1572.88 688.03,1592.95 688.00,1613.00
             688.00,1613.00 687.01,1628.00 687.01,1628.00
             687.01,1628.00 688.00,1641.00 688.00,1641.00
             688.00,1641.00 689.00,1670.00 689.00,1670.00
             689.00,1670.00 691.83,1696.00 691.83,1696.00
             694.50,1722.63 700.09,1748.81 705.45,1775.00
             705.45,1775.00 714.00,1812.00 714.00,1812.00
             714.00,1812.00 737.45,1773.00 737.45,1773.00
             748.94,1753.95 761.70,1734.92 774.88,1717.00
             837.74,1631.59 908.49,1556.98 997.00,1497.74
             1029.47,1476.01 1068.71,1454.96 1105.00,1440.45
             1105.00,1440.45 1184.00,1414.00 1184.00,1414.00
             1206.04,1406.50 1227.71,1397.55 1249.00,1388.14
             1303.53,1364.05 1355.21,1333.97 1405.00,1301.34
             1433.16,1282.89 1460.23,1263.30 1487.00,1242.88
             1487.00,1242.88 1519.00,1218.08 1519.00,1218.08
             1555.59,1187.71 1591.79,1157.02 1626.00,1123.96
             1626.00,1123.96 1666.96,1083.00 1666.96,1083.00
             1666.96,1083.00 1692.99,1055.00 1692.99,1055.00
             1692.99,1055.00 1731.25,1011.00 1731.25,1011.00
             1734.60,1006.97 1741.51,997.26 1746.00,995.60
             1747.93,994.89 1750.92,995.00 1753.00,995.00
             1753.00,995.00 1783.00,995.00 1783.00,995.00
             1785.12,995.00 1788.74,994.77 1790.49,996.02
             1793.34,998.06 1793.71,1008.38 1794.15,1012.00
             1794.15,1012.00 1795.83,1022.00 1795.83,1022.00
             1795.83,1022.00 1797.09,1046.00 1797.09,1046.00
             1797.09,1046.00 1798.00,1058.00 1798.00,1058.00
             1798.00,1058.00 1798.00,1071.00 1798.00,1071.00
             1798.00,1071.00 1798.82,1081.00 1798.82,1081.00
             1798.82,1081.00 1798.02,1089.00 1798.02,1089.00
             1798.02,1089.00 1798.02,1106.00 1798.02,1106.00
             1798.02,1106.00 1796.00,1129.00 1796.00,1129.00
             1796.00,1129.00 1796.00,1139.00 1796.00,1139.00
             1796.00,1139.00 1794.15,1149.00 1794.15,1149.00
             1789.62,1185.49 1782.32,1221.53 1772.58,1257.00
             1772.58,1257.00 1757.23,1310.00 1757.23,1310.00
             1755.08,1317.15 1750.14,1330.05 1750.00,1337.00
             1780.27,1320.65 1809.21,1300.92 1834.00,1276.96
             1873.00,1239.28 1899.04,1189.83 1910.49,1137.00
             1916.84,1107.70 1918.95,1077.91 1919.00,1048.00
             1919.00,1048.00 1920.00,1033.00 1920.00,1033.00
             1920.00,1033.00 1921.00,1010.00 1921.00,1010.00
             1921.00,1010.00 1922.84,994.00 1922.84,994.00
             1922.84,994.00 1924.28,978.00 1924.28,978.00
             1924.28,978.00 1926.72,963.00 1926.72,963.00
             1930.52,936.20 1935.98,910.24 1942.63,884.00
             1956.67,828.55 1982.75,763.01 2020.95,720.00
             2032.58,706.90 2039.59,700.58 2054.00,690.59
             2057.49,688.17 2066.06,682.48 2070.00,681.69
             2074.77,680.73 2076.36,684.32 2078.00,688.00
             2078.00,688.00 2089.14,712.00 2089.14,712.00
             2090.53,714.81 2092.97,719.41 2090.39,722.19
             2090.39,722.19 2075.00,732.01 2075.00,732.01
             2062.62,741.57 2057.02,747.69 2047.42,760.00
             2011.60,805.95 1988.89,878.15 1977.45,935.00
             1972.27,960.74 1968.70,986.85 1966.91,1013.00
             1966.91,1013.00 1965.00,1033.00 1965.00,1033.00
             1965.00,1033.00 1964.00,1051.00 1964.00,1051.00
             1964.00,1051.00 1964.00,1074.00 1964.00,1074.00
             1963.97,1093.36 1957.92,1134.71 1953.50,1154.00
             1945.37,1189.48 1928.73,1228.80 1908.48,1259.00
             1898.87,1273.34 1887.85,1286.01 1876.58,1299.00
             1870.83,1305.62 1864.40,1311.16 1858.00,1317.09
             1820.93,1351.45 1776.39,1376.73 1731.00,1398.36
             1731.00,1398.36 1693.00,1416.26 1693.00,1416.26
             1690.36,1417.54 1682.46,1422.27 1680.69,1417.69
             1679.95,1415.78 1681.51,1411.12 1681.99,1409.00
             1681.99,1409.00 1687.49,1388.00 1687.49,1388.00
             1687.49,1388.00 1689.58,1379.00 1689.58,1379.00
             1689.58,1379.00 1695.74,1356.00 1695.74,1356.00
             1695.74,1356.00 1707.86,1315.00 1707.86,1315.00
             1720.19,1272.12 1733.74,1229.82 1742.55,1186.00
             1742.55,1186.00 1750.17,1133.00 1750.17,1133.00
             1750.17,1133.00 1753.00,1102.00 1753.00,1102.00
             1753.00,1102.00 1753.00,1065.00 1753.00,1065.00
             1746.78,1069.49 1741.98,1076.29 1736.83,1082.00
             1736.83,1082.00 1714.83,1106.00 1714.83,1106.00
             1714.83,1106.00 1692.00,1129.00 1692.00,1129.00
             1692.00,1129.00 1681.83,1139.91 1681.83,1139.91
             1681.83,1139.91 1674.00,1147.04 1674.00,1147.04
             1674.00,1147.04 1656.00,1164.99 1656.00,1164.99
             1656.00,1164.99 1646.00,1174.04 1646.00,1174.04
             1610.29,1208.20 1572.57,1239.59 1534.00,1270.45
             1508.47,1290.87 1453.28,1331.74 1426.00,1347.58
             1426.00,1347.58 1381.00,1373.42 1381.00,1373.42
             1381.00,1373.42 1339.00,1397.69 1339.00,1397.69
             1339.00,1397.69 1294.00,1419.31 1294.00,1419.31
             1294.00,1419.31 1264.00,1433.57 1264.00,1433.57
             1264.00,1433.57 1240.00,1442.81 1240.00,1442.81
             1240.00,1442.81 1180.00,1465.31 1180.00,1465.31
             1180.00,1465.31 1143.00,1478.06 1143.00,1478.06
             1143.00,1478.06 1085.00,1503.26 1085.00,1503.26
             1071.28,1509.90 1044.30,1524.52 1032.00,1532.75
             1032.00,1532.75 1002.00,1554.13 1002.00,1554.13
             1002.00,1554.13 989.00,1564.47 989.00,1564.47
             982.28,1568.89 981.67,1564.00 975.00,1568.02
             966.62,1573.07 960.38,1580.57 953.00,1586.74
             953.00,1586.74 946.00,1592.04 946.00,1592.04
             946.00,1592.04 918.88,1616.65 918.88,1616.65
             918.88,1616.65 896.89,1639.17 896.89,1639.17
             893.78,1644.08 897.44,1646.61 894.40,1650.29
             894.40,1650.29 888.04,1656.02 888.04,1656.02
             888.04,1656.02 868.20,1678.83 868.20,1678.83
             865.06,1684.12 870.38,1684.53 864.36,1692.70
             864.36,1692.70 854.82,1704.08 854.82,1704.08
             854.82,1704.08 831.75,1733.61 831.75,1733.61
             831.75,1733.61 824.37,1742.46 824.37,1742.46
             824.37,1742.46 818.80,1751.56 818.80,1751.56
             818.80,1751.56 811.33,1761.41 811.33,1761.41
             811.33,1761.41 800.96,1777.17 800.96,1777.17
             800.96,1777.17 795.41,1784.42 795.41,1784.42
             795.41,1784.42 789.72,1794.59 789.72,1794.59
             775.41,1816.89 761.55,1839.99 750.28,1864.00
             750.28,1864.00 736.89,1894.00 736.89,1894.00
             736.89,1894.00 735.48,1898.83 735.48,1898.83
             735.48,1898.83 720.88,1936.28 720.88,1936.28
             718.35,1942.51 716.19,1958.42 707.98,1958.93
             698.63,1959.51 699.60,1954.56 698.46,1951.17
             698.46,1951.17 695.46,1943.00 695.46,1943.00
             695.46,1943.00 692.68,1936.00 692.68,1936.00
             692.68,1936.00 691.46,1930.00 691.46,1930.00
             691.46,1930.00 689.29,1924.00 689.29,1924.00
             689.29,1924.00 688.46,1919.17 688.46,1919.17
             688.46,1919.17 686.54,1914.83 686.54,1914.83
             686.54,1914.83 685.46,1909.17 685.46,1909.17
             685.46,1909.17 683.29,1903.91 683.29,1903.91
             682.73,1901.45 683.32,1900.24 682.12,1897.28
             682.12,1897.28 676.54,1881.00 676.54,1881.00
             676.54,1881.00 675.46,1875.17 675.46,1875.17
             675.46,1875.17 673.54,1870.83 673.54,1870.83
             673.54,1870.83 672.46,1864.17 672.46,1864.17
             672.46,1864.17 670.54,1859.83 670.54,1859.83
             670.54,1859.83 669.46,1854.17 669.46,1854.17
             669.46,1854.17 667.54,1849.83 667.54,1849.83
             667.54,1849.83 666.29,1843.00 666.29,1843.00
             666.29,1843.00 663.68,1836.00 663.68,1836.00
             663.68,1836.00 662.46,1828.17 662.46,1828.17
             662.46,1828.17 660.29,1822.91 660.29,1822.91
             660.29,1822.91 659.46,1817.17 659.46,1817.17
             659.46,1817.17 657.30,1811.91 657.30,1811.91
             657.30,1811.91 656.70,1805.09 656.70,1805.09
             656.70,1805.09 654.30,1798.91 654.30,1798.91
             654.30,1798.91 653.70,1790.09 653.70,1790.09
             653.70,1790.09 651.01,1783.91 651.01,1783.91
             651.01,1783.91 649.46,1775.00 649.46,1775.00
             649.46,1775.00 647.08,1769.00 647.08,1769.00
             647.08,1769.00 647.08,1760.04 647.08,1760.04
             646.36,1756.55 644.94,1755.83 644.08,1752.91
             644.08,1752.91 644.08,1743.04 644.08,1743.04
             643.36,1739.55 641.94,1738.83 641.15,1735.91
             641.15,1735.91 641.15,1726.00 641.15,1726.00
             640.94,1716.94 638.92,1719.41 638.05,1713.96
             638.05,1713.96 638.05,1707.00 638.05,1707.00
             638.05,1707.00 636.98,1699.00 636.98,1699.00
             636.98,1699.00 636.98,1690.00 636.98,1690.00
             636.19,1684.15 634.11,1684.93 634.00,1676.00
             634.00,1676.00 634.00,1581.00 634.00,1581.00
             634.02,1568.97 635.60,1571.79 636.74,1565.00
             636.74,1565.00 638.14,1541.04 638.14,1541.04
             638.64,1537.55 640.06,1536.83 640.85,1533.91
             640.85,1533.91 640.85,1525.00 640.85,1525.00
             641.14,1517.74 642.72,1519.32 643.70,1514.91
             643.70,1514.91 644.30,1505.09 644.30,1505.09
             644.30,1505.09 646.70,1498.91 646.70,1498.91
             646.70,1498.91 647.54,1489.00 647.54,1489.00
             647.54,1489.00 649.46,1484.00 649.46,1484.00
             649.46,1484.00 650.87,1477.00 650.87,1477.00
             651.74,1474.45 653.10,1472.83 653.70,1470.00
             653.70,1470.00 654.31,1462.09 654.31,1462.09
             655.48,1457.84 658.80,1458.01 661.36,1455.46
             663.16,1453.67 664.48,1450.40 665.23,1448.00
             665.23,1448.00 673.52,1420.00 673.52,1420.00
             673.52,1420.00 681.80,1396.00 681.80,1396.00
             681.80,1396.00 686.87,1380.00 686.87,1380.00
             704.14,1335.08 724.57,1291.76 746.58,1249.00
             746.58,1249.00 761.90,1219.00 761.90,1219.00
             761.90,1219.00 797.81,1156.00 797.81,1156.00
             797.81,1156.00 825.00,1111.00 825.00,1111.00 Z
           M 2348.00,260.00
           C 2352.25,261.37 2356.31,262.55 2358.00,267.00
             2358.00,267.00 2364.00,267.00 2364.00,267.00
             2364.00,267.00 2364.00,270.00 2364.00,270.00
             2364.00,270.00 2385.00,280.00 2385.00,280.00
             2385.00,280.00 2385.00,283.00 2385.00,283.00
             2390.01,283.80 2397.33,288.04 2399.00,293.00
             2399.00,293.00 2404.00,293.00 2404.00,293.00
             2404.00,293.00 2404.00,296.00 2404.00,296.00
             2408.67,296.34 2411.32,297.37 2413.00,302.00
             2417.80,302.56 2421.28,304.27 2423.00,309.00
             2429.97,309.51 2429.62,312.10 2434.80,315.86
             2438.91,318.84 2443.13,319.86 2445.00,325.00
             2445.00,325.00 2449.00,325.00 2449.00,325.00
             2449.00,325.00 2449.00,328.00 2449.00,328.00
             2449.00,328.00 2462.00,335.00 2462.00,335.00
             2462.00,335.00 2462.00,338.00 2462.00,338.00
             2468.37,338.88 2468.40,341.20 2472.84,344.94
             2478.45,349.65 2491.60,357.39 2494.00,364.00
             2504.35,365.58 2510.23,380.54 2520.00,383.00
             2522.46,387.77 2535.35,398.08 2540.03,402.36
             2540.03,402.36 2576.65,438.46 2576.65,438.46
             2576.65,438.46 2585.77,448.05 2585.77,448.05
             2590.00,452.91 2594.19,460.00 2600.00,463.00
             2600.00,463.00 2600.00,467.00 2600.00,467.00
             2608.03,469.56 2616.71,485.22 2623.00,489.00
             2623.00,489.00 2623.00,493.00 2623.00,493.00
             2628.66,494.90 2635.09,503.29 2636.00,509.00
             2636.00,509.00 2639.00,509.00 2639.00,509.00
             2639.00,509.00 2639.00,513.00 2639.00,513.00
             2644.28,514.57 2648.15,519.65 2649.00,525.00
             2654.91,527.15 2658.13,535.24 2661.88,540.00
             2665.13,544.13 2667.17,544.53 2668.00,550.00
             2668.00,550.00 2671.00,550.00 2671.00,550.00
             2672.72,556.12 2677.25,560.43 2680.87,565.41
             2680.87,565.41 2690.92,581.78 2690.92,581.78
             2694.10,586.81 2696.45,585.49 2697.00,593.00
             2701.50,594.71 2706.26,603.37 2707.00,608.00
             2707.00,608.00 2710.00,608.00 2710.00,608.00
             2710.00,608.00 2710.00,613.00 2710.00,613.00
             2710.00,613.00 2713.00,613.00 2713.00,613.00
             2713.75,617.87 2718.80,627.37 2723.00,630.00
             2722.93,633.72 2722.76,634.06 2726.00,636.00
             2726.00,636.00 2726.00,641.00 2726.00,641.00
             2730.05,642.57 2730.73,646.31 2733.00,649.92
             2733.00,649.92 2742.85,668.87 2742.85,668.87
             2745.52,674.17 2748.65,678.03 2749.00,684.00
             2749.00,684.00 2752.00,684.00 2752.00,684.00
             2752.00,684.00 2752.00,690.00 2752.00,690.00
             2752.00,690.00 2755.00,690.00 2755.00,690.00
             2755.80,700.20 2764.85,705.96 2765.00,718.00
             2765.00,718.00 2768.00,718.00 2768.00,718.00
             2768.00,718.00 2778.00,748.00 2778.00,748.00
             2778.00,748.00 2781.00,748.00 2781.00,748.00
             2781.00,748.00 2781.00,756.00 2781.00,756.00
             2781.00,756.00 2784.00,756.00 2784.00,756.00
             2784.00,756.00 2784.00,764.00 2784.00,764.00
             2784.00,764.00 2787.00,764.00 2787.00,764.00
             2787.00,764.00 2791.00,783.00 2791.00,783.00
             2791.00,783.00 2794.00,783.00 2794.00,783.00
             2794.00,783.00 2794.00,790.00 2794.00,790.00
             2794.00,790.00 2797.00,790.00 2797.00,790.00
             2797.00,790.00 2797.00,800.00 2797.00,800.00
             2797.00,800.00 2800.00,800.00 2800.00,800.00
             2799.77,807.53 2797.30,809.12 2803.00,811.00
             2803.00,811.00 2807.00,831.00 2807.00,831.00
             2807.00,831.00 2810.00,831.00 2810.00,831.00
             2810.00,831.00 2810.00,841.00 2810.00,841.00
             2810.00,841.00 2813.00,841.00 2813.00,841.00
             2813.00,841.00 2813.00,852.00 2813.00,852.00
             2813.00,852.00 2816.00,852.00 2816.00,852.00
             2816.00,854.89 2815.83,859.26 2816.55,861.96
             2816.55,861.96 2819.57,869.09 2819.57,869.09
             2820.73,874.16 2817.37,876.58 2823.00,880.00
             2823.00,880.00 2823.00,892.00 2823.00,892.00
             2823.00,892.00 2826.00,892.00 2826.00,892.00
             2826.00,892.00 2826.00,909.00 2826.00,909.00
             2826.00,909.00 2829.00,909.00 2829.00,909.00
             2829.00,909.00 2828.46,921.79 2828.46,921.79
             2829.05,923.86 2830.79,924.36 2831.80,927.21
             2833.31,931.47 2832.58,936.02 2833.14,939.96
             2834.07,946.48 2836.06,941.34 2836.00,955.00
             2835.98,960.21 2834.12,964.89 2839.00,968.00
             2839.00,968.00 2839.00,988.00 2839.00,988.00
             2839.00,988.00 2842.00,988.00 2842.00,988.00
             2842.00,988.00 2842.00,1017.00 2842.00,1017.00
             2841.88,1024.42 2839.18,1026.08 2845.00,1028.00
             2845.00,1028.00 2845.00,1063.00 2845.00,1063.00
             2845.00,1063.00 2846.00,1080.00 2846.00,1080.00
             2846.00,1080.00 2846.00,1111.00 2846.00,1111.00
             2846.00,1111.00 2845.00,1128.00 2845.00,1128.00
             2845.00,1128.00 2845.00,1160.00 2845.00,1160.00
             2845.00,1160.00 2842.00,1178.00 2842.00,1178.00
             2842.00,1178.00 2842.00,1208.00 2842.00,1208.00
             2842.00,1208.00 2839.00,1208.00 2839.00,1208.00
             2839.00,1208.00 2839.00,1230.00 2839.00,1230.00
             2833.86,1233.12 2835.97,1237.54 2836.00,1243.00
             2836.01,1245.57 2836.23,1250.56 2835.42,1252.83
             2834.73,1254.78 2833.34,1255.93 2832.89,1258.09
             2832.89,1258.09 2832.89,1266.00 2832.89,1266.00
             2832.28,1276.95 2830.27,1276.69 2829.15,1281.04
             2829.15,1281.04 2829.15,1293.00 2829.15,1293.00
             2829.15,1293.00 2826.00,1293.00 2826.00,1293.00
             2826.00,1293.00 2826.00,1312.00 2826.00,1312.00
             2826.00,1312.00 2823.00,1312.00 2823.00,1312.00
             2823.00,1312.00 2823.00,1325.00 2823.00,1325.00
             2823.00,1325.00 2820.00,1325.00 2820.00,1325.00
             2820.00,1347.41 2816.00,1334.96 2816.00,1356.00
             2816.00,1356.00 2813.00,1356.00 2813.00,1356.00
             2813.00,1356.00 2813.00,1370.00 2813.00,1370.00
             2813.00,1370.00 2810.00,1370.00 2810.00,1370.00
             2810.00,1370.00 2810.00,1383.00 2810.00,1383.00
             2810.00,1383.00 2807.00,1383.00 2807.00,1383.00
             2807.00,1383.00 2806.32,1395.83 2806.32,1395.83
             2806.32,1395.83 2804.27,1401.09 2804.27,1401.09
             2804.27,1401.09 2803.00,1411.00 2803.00,1411.00
             2803.00,1411.00 2800.00,1411.00 2800.00,1411.00
             2800.00,1411.00 2800.00,1427.00 2800.00,1427.00
             2800.00,1427.00 2797.00,1427.00 2797.00,1427.00
             2797.00,1427.00 2797.00,1439.00 2797.00,1439.00
             2790.55,1442.40 2789.60,1448.52 2787.85,1455.00
             2787.85,1455.00 2779.40,1493.00 2779.40,1493.00
             2779.40,1493.00 2753.80,1618.00 2753.80,1618.00
             2753.80,1618.00 2750.28,1638.00 2750.28,1638.00
             2750.28,1638.00 2748.79,1650.96 2748.79,1650.96
             2748.29,1653.54 2745.31,1659.68 2743.61,1669.00
             2743.61,1669.00 2732.57,1739.00 2732.57,1739.00
             2732.57,1739.00 2722.83,1814.00 2722.83,1814.00
             2722.83,1814.00 2721.29,1824.00 2721.29,1824.00
             2721.29,1824.00 2717.00,1874.00 2717.00,1874.00
             2717.00,1874.00 2716.00,1898.00 2716.00,1898.00
             2716.00,1898.00 2715.00,1914.00 2715.00,1914.00
             2715.00,1914.00 2715.00,1936.00 2715.00,1936.00
             2715.00,1936.00 2714.08,1948.00 2714.08,1948.00
             2714.08,1948.00 2715.00,1961.00 2715.00,1961.00
             2715.00,1961.00 2715.00,1973.00 2715.00,1973.00
             2715.00,1973.00 2717.00,2004.00 2717.00,2004.00
             2717.00,2004.00 2722.57,2050.00 2722.57,2050.00
             2726.41,2072.89 2730.53,2095.60 2736.74,2118.00
             2747.69,2157.45 2762.36,2195.05 2777.55,2233.00
             2777.55,2233.00 2794.14,2272.00 2794.14,2272.00
             2794.14,2272.00 2802.48,2291.00 2802.48,2291.00
             2805.38,2296.93 2807.06,2297.13 2808.69,2300.17
             2808.69,2300.17 2814.00,2315.00 2814.00,2315.00
             2814.00,2315.00 2830.44,2352.00 2830.44,2352.00
             2835.71,2363.65 2841.31,2361.71 2842.00,2371.00
             2842.00,2371.00 2845.00,2371.00 2845.00,2371.00
             2845.00,2371.00 2845.00,2379.00 2845.00,2379.00
             2850.16,2380.86 2851.94,2389.01 2852.00,2394.00
             2852.00,2394.00 2855.00,2394.00 2855.00,2394.00
             2855.00,2394.00 2855.00,2401.00 2855.00,2401.00
             2855.00,2401.00 2858.00,2401.00 2858.00,2401.00
             2858.00,2401.00 2858.00,2409.00 2858.00,2409.00
             2858.00,2409.00 2861.00,2409.00 2861.00,2409.00
             2861.00,2409.00 2861.00,2414.00 2861.00,2414.00
             2857.17,2416.03 2856.82,2417.68 2852.00,2417.96
             2840.20,2418.63 2840.33,2412.16 2827.00,2412.00
             2827.00,2412.00 2773.00,2407.73 2773.00,2407.73
             2773.00,2407.73 2759.00,2403.15 2759.00,2403.15
             2744.59,2399.25 2730.37,2394.46 2717.00,2387.73
             2683.40,2370.82 2658.79,2345.54 2636.24,2316.00
             2622.71,2298.29 2610.82,2278.99 2599.19,2260.00
             2597.21,2256.77 2588.68,2242.12 2586.74,2240.59
             2585.31,2239.47 2584.59,2239.48 2583.00,2239.00
             2578.83,2290.45 2590.50,2341.40 2609.55,2389.00
             2613.82,2399.66 2623.83,2422.84 2629.63,2431.96
             2632.93,2437.15 2635.49,2437.33 2637.01,2439.61
             2638.34,2441.60 2637.67,2443.57 2639.07,2447.00
             2639.07,2447.00 2645.40,2458.00 2645.40,2458.00
             2645.40,2458.00 2675.64,2504.00 2675.64,2504.00
             2679.85,2509.75 2685.22,2517.23 2693.00,2517.00
             2693.00,2517.00 2694.00,2530.00 2694.00,2530.00
             2694.00,2530.00 2678.04,2530.53 2678.04,2530.53
             2678.04,2530.53 2668.99,2527.17 2668.99,2527.17
             2668.99,2527.17 2651.00,2527.17 2651.00,2527.17
             2651.00,2527.17 2651.00,2524.00 2651.00,2524.00
             2651.00,2524.00 2629.00,2524.00 2629.00,2524.00
             2629.00,2524.00 2629.00,2521.00 2629.00,2521.00
             2629.00,2521.00 2616.00,2521.00 2616.00,2521.00
             2616.00,2521.00 2616.00,2518.00 2616.00,2518.00
             2603.87,2518.00 2609.28,2518.63 2598.92,2514.98
             2596.51,2514.14 2594.95,2514.25 2592.87,2512.48
             2585.55,2506.25 2584.53,2496.81 2582.58,2488.00
             2580.67,2479.41 2576.17,2463.84 2576.00,2456.00
             2582.91,2458.93 2587.35,2461.81 2595.00,2462.00
             2594.57,2454.23 2586.17,2440.56 2582.42,2433.00
             2582.42,2433.00 2562.43,2385.00 2562.43,2385.00
             2553.44,2360.04 2547.76,2334.15 2543.73,2308.00
             2543.73,2308.00 2542.17,2299.00 2542.17,2299.00
             2542.17,2299.00 2541.00,2274.00 2541.00,2274.00
             2541.00,2274.00 2540.02,2258.00 2540.02,2258.00
             2540.02,2258.00 2540.96,2249.00 2540.96,2249.00
             2540.96,2249.00 2540.96,2237.00 2540.96,2237.00
             2541.19,2221.10 2545.99,2193.46 2550.26,2178.00
             2550.26,2178.00 2560.58,2141.00 2560.58,2141.00
             2562.09,2135.83 2563.44,2127.85 2567.00,2124.00
             2567.00,2124.00 2599.01,2177.00 2599.01,2177.00
             2599.01,2177.00 2646.31,2255.00 2646.31,2255.00
             2662.61,2280.35 2683.82,2311.13 2707.09,2330.23
             2724.97,2344.92 2740.99,2353.54 2763.00,2360.34
             2766.75,2361.50 2780.79,2365.67 2783.82,2363.94
             2787.09,2362.07 2785.80,2358.73 2784.71,2356.00
             2784.71,2356.00 2776.53,2337.00 2776.53,2337.00
             2776.53,2337.00 2740.15,2254.00 2740.15,2254.00
             2711.72,2187.76 2689.13,2118.57 2679.71,2047.00
             2679.71,2047.00 2677.17,2031.00 2677.17,2031.00
             2677.17,2031.00 2675.83,2013.00 2675.83,2013.00
             2675.83,2013.00 2674.00,1989.00 2674.00,1989.00
             2674.00,1989.00 2673.00,1972.00 2673.00,1972.00
             2673.00,1972.00 2673.00,1914.00 2673.00,1914.00
             2673.00,1914.00 2674.00,1898.00 2674.00,1898.00
             2674.00,1898.00 2674.00,1886.00 2674.00,1886.00
             2674.00,1886.00 2675.83,1867.00 2675.83,1867.00
             2675.83,1867.00 2677.00,1851.00 2677.00,1851.00
             2677.00,1851.00 2677.00,1843.00 2677.00,1843.00
             2677.00,1843.00 2680.00,1820.00 2680.00,1820.00
             2680.00,1820.00 2680.00,1812.00 2680.00,1812.00
             2680.00,1812.00 2682.72,1793.00 2682.72,1793.00
             2682.72,1793.00 2683.28,1785.00 2683.28,1785.00
             2683.28,1785.00 2685.71,1770.00 2685.71,1770.00
             2685.71,1770.00 2687.29,1755.00 2687.29,1755.00
             2687.29,1755.00 2692.57,1721.00 2692.57,1721.00
             2707.98,1614.82 2731.77,1509.82 2754.51,1405.00
             2754.51,1405.00 2772.58,1327.00 2772.58,1327.00
             2778.99,1297.92 2784.37,1268.44 2788.70,1239.00
             2788.70,1239.00 2790.28,1224.00 2790.28,1224.00
             2790.28,1224.00 2793.00,1207.00 2793.00,1207.00
             2793.00,1207.00 2793.00,1198.00 2793.00,1198.00
             2793.00,1198.00 2796.00,1170.00 2796.00,1170.00
             2796.00,1170.00 2797.00,1154.00 2797.00,1154.00
             2797.00,1154.00 2798.00,1136.00 2798.00,1136.00
             2798.00,1136.00 2798.00,1132.00 2798.00,1132.00
             2798.00,1132.00 2799.00,1117.00 2799.00,1117.00
             2799.00,1117.00 2799.00,1076.00 2799.00,1076.00
             2799.00,1076.00 2798.00,1056.00 2798.00,1056.00
             2798.00,1056.00 2797.00,1043.00 2797.00,1043.00
             2797.00,1043.00 2796.00,1022.00 2796.00,1022.00
             2796.00,1022.00 2793.00,998.00 2793.00,998.00
             2793.00,998.00 2793.00,990.00 2793.00,990.00
             2793.00,990.00 2787.28,953.00 2787.28,953.00
             2787.28,953.00 2785.54,940.00 2785.54,940.00
             2775.65,885.57 2760.90,831.63 2740.94,780.00
             2701.58,678.16 2640.82,581.10 2567.83,500.00
             2546.26,476.03 2523.60,453.17 2500.04,431.17
             2500.04,431.17 2479.00,412.27 2479.00,412.27
             2479.00,412.27 2469.37,404.63 2469.37,404.63
             2465.55,400.87 2458.52,391.52 2455.13,387.00
             2431.56,355.59 2403.71,321.71 2376.00,294.00
             2376.00,294.00 2355.00,273.00 2355.00,273.00
             2350.81,268.78 2346.94,266.32 2348.00,260.00 Z
           M 1714.96,815.91
           C 1719.10,815.96 1719.35,818.29 1718.36,822.00
             1718.36,822.00 1710.08,840.00 1710.08,840.00
             1697.83,864.20 1683.98,882.94 1665.83,903.00
             1661.20,908.12 1656.11,912.56 1651.00,917.17
             1597.66,965.17 1528.56,988.83 1459.00,1001.39
             1459.00,1001.39 1407.00,1009.28 1407.00,1009.28
             1407.00,1009.28 1389.00,1011.83 1389.00,1011.83
             1389.00,1011.83 1371.02,1013.85 1371.02,1013.85
             1368.72,1013.81 1365.90,1013.01 1367.17,1010.05
             1368.38,1007.22 1372.34,1005.93 1375.00,1005.00
             1375.00,1005.00 1386.00,1000.51 1386.00,1000.51
             1386.00,1000.51 1393.00,998.64 1393.00,998.64
             1393.00,998.64 1409.00,992.68 1409.00,992.68
             1409.00,992.68 1462.00,972.58 1462.00,972.58
             1516.47,951.99 1588.97,915.18 1636.00,881.26
             1653.22,868.84 1671.40,855.28 1687.00,840.92
             1687.00,840.92 1703.00,826.00 1703.00,826.00
             1706.99,822.03 1709.66,818.03 1714.96,815.91 Z
           M 1430.00,1340.00
           C 1424.99,1341.02 1423.31,1342.11 1420.00,1346.00
             1420.00,1346.00 1430.00,1340.00 1430.00,1340.00 Z
           M 1411.00,1351.00
           C 1411.00,1351.00 1410.00,1351.00 1410.00,1351.00
             1410.00,1351.00 1411.00,1352.00 1411.00,1352.00
             1411.00,1352.00 1411.00,1351.00 1411.00,1351.00 Z
           M 1406.00,1354.00
           C 1406.00,1354.00 1405.00,1354.00 1405.00,1354.00
             1405.00,1354.00 1406.00,1355.00 1406.00,1355.00
             1406.00,1355.00 1406.00,1354.00 1406.00,1354.00 Z
           M 1403.00,1356.00
           C 1403.00,1356.00 1402.00,1356.00 1402.00,1356.00
             1402.00,1356.00 1403.00,1357.00 1403.00,1357.00
             1403.00,1357.00 1403.00,1356.00 1403.00,1356.00 Z
           M 1401.00,1357.00
           C 1401.00,1357.00 1400.00,1357.00 1400.00,1357.00
             1400.00,1357.00 1401.00,1358.00 1401.00,1358.00
             1401.00,1358.00 1401.00,1357.00 1401.00,1357.00 Z
           M 1398.00,1359.00
           C 1398.00,1359.00 1397.00,1359.00 1397.00,1359.00
             1397.00,1359.00 1398.00,1360.00 1398.00,1360.00
             1398.00,1360.00 1398.00,1359.00 1398.00,1359.00 Z
           M 1396.00,1360.00
           C 1396.00,1360.00 1395.00,1360.00 1395.00,1360.00
             1395.00,1360.00 1396.00,1361.00 1396.00,1361.00
             1396.00,1361.00 1396.00,1360.00 1396.00,1360.00 Z
           M 736.00,2418.00
           C 736.00,2418.00 849.00,2418.00 849.00,2418.00
             849.00,2418.00 849.00,2585.00 849.00,2585.00
             849.00,2585.00 1018.00,2585.00 1018.00,2585.00
             1018.00,2585.00 1018.00,2699.00 1018.00,2699.00
             1018.00,2699.00 849.00,2699.00 849.00,2699.00
             849.00,2699.00 849.00,2866.00 849.00,2866.00
             849.00,2866.00 736.00,2866.00 736.00,2866.00
             736.00,2866.00 736.00,2699.00 736.00,2699.00
             736.00,2699.00 567.00,2699.00 567.00,2699.00
             567.00,2699.00 567.00,2585.00 567.00,2585.00
             567.00,2585.00 736.00,2585.00 736.00,2585.00
             736.00,2585.00 736.00,2418.00 736.00,2418.00 Z
           M 2950.00,2758.00
           C 2950.00,2758.00 3063.00,2758.00 3063.00,2758.00
             3063.00,2758.00 3063.00,2925.00 3063.00,2925.00
             3063.00,2925.00 3232.00,2925.00 3232.00,2925.00
             3232.00,2925.00 3232.00,3039.00 3232.00,3039.00
             3232.00,3039.00 3063.00,3039.00 3063.00,3039.00
             3063.00,3039.00 3063.00,3206.00 3063.00,3206.00
             3063.00,3206.00 2950.00,3206.00 2950.00,3206.00
             2950.00,3206.00 2950.00,3039.00 2950.00,3039.00
             2950.00,3039.00 2781.00,3039.00 2781.00,3039.00
             2781.00,3039.00 2781.00,2925.00 2781.00,2925.00
             2781.00,2925.00 2950.00,2925.00 2950.00,2925.00
             2950.00,2925.00 2950.00,2758.00 2950.00,2758.00 Z" />
</svg>
