<?xml version="1.0" encoding="UTF-8" standalone="no"?>
<!DOCTYPE svg PUBLIC "-//W3C//DTD SVG 20010904//EN"
              "http://www.w3.org/TR/2001/REC-SVG-20010904/DTD/svg10.dtd">

<svg xmlns="http://www.w3.org/2000/svg"
     width="12in" height="12in"
     viewBox="0 0 3600 3600">
  <path id="5 - mane outline 2"
        fill="none" stroke="black" stroke-width="1"
        d="M 1747.00,997.00
           C 1747.00,997.00 1742.42,961.00 1742.42,961.00
             1742.42,961.00 1740.83,944.00 1740.83,944.00
             1740.83,944.00 1738.00,909.00 1738.00,909.00
             1738.00,909.00 1737.04,899.00 1737.04,899.00
             1737.04,899.00 1737.04,889.00 1737.04,889.00
             1737.04,889.00 1735.90,874.00 1735.90,874.00
             1735.90,874.00 1735.90,855.00 1735.90,855.00
             1735.90,855.00 1735.90,843.00 1735.90,843.00
             1735.90,843.00 1735.90,835.00 1735.90,835.00
             1735.90,835.00 1735.90,815.00 1735.90,815.00
             1735.90,815.00 1737.00,795.00 1737.00,795.00
             1737.00,795.00 1738.00,777.00 1738.00,777.00
             1738.00,777.00 1738.91,767.00 1738.91,767.00
             1738.91,767.00 1746.73,699.00 1746.73,699.00
             1762.77,595.00 1793.09,495.74 1845.58,404.00
             1871.50,358.70 1904.18,314.91 1942.01,278.91
             1942.01,278.91 1967.00,256.41 1967.00,256.41
             1974.65,250.05 1975.83,247.02 1986.00,247.00
             1986.00,247.00 2026.00,247.00 2026.00,247.00
             2025.91,251.17 2023.98,263.98 2021.93,267.30
             2020.21,270.10 2015.72,272.77 2013.00,274.71
             2013.00,274.71 1998.00,286.25 1998.00,286.25
             1985.03,296.96 1972.89,308.09 1961.00,320.00
             1917.69,363.38 1882.45,420.88 1856.10,476.00
             1821.84,547.67 1798.07,632.32 1787.71,711.00
             1787.71,711.00 1785.43,724.00 1785.43,724.00
             1785.43,724.00 1783.83,741.00 1783.83,741.00
             1783.83,741.00 1782.17,752.00 1782.17,752.00
             1782.17,752.00 1780.83,773.00 1780.83,773.00
             1780.83,773.00 1779.00,794.00 1779.00,794.00
             1779.00,794.00 1778.00,814.00 1778.00,814.00
             1778.00,814.00 1778.00,877.00 1778.00,877.00
             1778.00,877.00 1779.00,897.00 1779.00,897.00
             1779.00,897.00 1785.29,965.00 1785.29,965.00
             1785.29,965.00 1790.00,997.00 1790.00,997.00
             1790.00,997.00 1747.00,997.00 1747.00,997.00 Z
           M 2794.00,1438.00
           C 2794.00,1438.00 2796.00,1438.00 2796.00,1438.00
             2796.00,1438.00 2797.00,1458.00 2797.00,1458.00
             2797.00,1458.00 2796.00,1470.00 2796.00,1470.00
             2796.00,1470.00 2795.00,1459.00 2795.00,1459.00
             2795.00,1459.00 2794.00,1477.00 2794.00,1477.00
             2794.00,1477.00 2794.00,1543.00 2794.00,1543.00
             2794.00,1543.00 2794.00,1564.00 2794.00,1564.00
             2793.93,1569.94 2792.45,1570.92 2796.00,1576.00
             2796.00,1576.00 2797.00,1572.00 2797.00,1572.00
             2797.00,1572.00 2797.00,1617.00 2797.00,1617.00
             2797.00,1617.00 2798.00,1642.00 2798.00,1642.00
             2798.00,1642.00 2800.00,1639.00 2800.00,1639.00
             2800.00,1639.00 2800.00,1666.00 2800.00,1666.00
             2800.00,1672.96 2799.26,1677.40 2802.00,1684.00
             2802.00,1684.00 2802.00,1682.00 2802.00,1682.00
             2802.00,1682.00 2803.00,1682.00 2803.00,1682.00
             2803.00,1682.00 2804.27,1705.91 2804.27,1705.91
             2804.27,1705.91 2807.00,1718.00 2807.00,1718.00
             2807.00,1718.00 2807.00,1739.00 2807.00,1739.00
             2807.00,1739.00 2810.00,1738.00 2810.00,1738.00
             2810.00,1745.54 2808.62,1758.60 2812.00,1765.00
             2812.00,1765.00 2813.00,1761.00 2813.00,1761.00
             2813.00,1768.43 2812.10,1776.04 2815.00,1783.00
             2815.00,1783.00 2815.00,1781.00 2815.00,1781.00
             2815.00,1781.00 2816.00,1781.00 2816.00,1781.00
             2816.00,1781.00 2817.00,1804.00 2817.00,1804.00
             2820.65,1805.13 2819.98,1809.73 2820.00,1813.00
             2820.08,1824.86 2822.58,1818.00 2823.02,1832.00
             2823.11,1835.11 2822.82,1836.96 2826.00,1838.00
             2826.00,1838.00 2827.00,1857.00 2827.00,1857.00
             2827.00,1857.00 2829.00,1855.00 2829.00,1855.00
             2829.00,1861.84 2828.57,1864.36 2831.00,1871.00
             2831.00,1871.00 2831.00,1869.00 2831.00,1869.00
             2831.00,1869.00 2832.00,1869.00 2832.00,1869.00
             2832.00,1869.00 2833.00,1886.00 2833.00,1886.00
             2837.78,1887.28 2836.00,1895.98 2836.00,1900.00
             2836.00,1900.00 2839.00,1900.00 2839.00,1900.00
             2839.00,1903.72 2837.82,1909.63 2842.00,1911.00
             2842.00,1914.91 2840.66,1923.49 2845.00,1925.00
             2845.00,1925.00 2849.00,1951.00 2849.00,1951.00
             2849.00,1951.00 2852.00,1951.00 2852.00,1951.00
             2852.00,1951.00 2851.00,1964.00 2851.00,1964.00
             2851.00,1964.00 2855.00,1962.00 2855.00,1962.00
             2855.00,1962.00 2856.00,1975.00 2856.00,1975.00
             2856.00,1975.00 2858.00,1973.00 2858.00,1973.00
             2858.01,1976.45 2857.16,1982.58 2861.00,1984.00
             2861.61,1988.67 2860.74,1993.56 2865.00,1996.00
             2865.00,1996.00 2865.00,2007.00 2865.00,2007.00
             2865.00,2007.00 2868.00,2006.00 2868.00,2006.00
             2868.01,2009.56 2867.10,2013.72 2871.00,2015.00
             2871.01,2018.48 2870.15,2023.66 2874.00,2025.00
             2874.00,2025.00 2875.00,2036.00 2875.00,2036.00
             2878.44,2036.99 2877.48,2038.82 2878.53,2041.83
             2881.05,2049.06 2880.99,2045.02 2881.00,2054.00
             2881.00,2054.00 2884.00,2054.00 2884.00,2054.00
             2884.00,2054.00 2885.00,2063.00 2885.00,2063.00
             2885.00,2063.00 2887.00,2061.00 2887.00,2061.00
             2887.03,2064.38 2886.31,2068.72 2890.00,2070.00
             2890.00,2070.00 2891.00,2080.00 2891.00,2080.00
             2894.91,2081.04 2893.99,2084.52 2894.00,2088.00
             2894.00,2088.00 2897.00,2088.00 2897.00,2088.00
             2897.08,2091.27 2896.50,2093.85 2900.00,2095.00
             2900.01,2098.56 2899.10,2102.72 2903.00,2104.00
             2903.32,2113.10 2909.86,2116.11 2910.00,2127.00
             2910.00,2127.00 2913.00,2127.00 2913.00,2127.00
             2913.00,2127.00 2913.00,2134.00 2913.00,2134.00
             2913.00,2134.00 2916.00,2134.00 2916.00,2134.00
             2916.00,2134.00 2920.00,2149.00 2920.00,2149.00
             2920.00,2149.00 2923.00,2149.00 2923.00,2149.00
             2923.00,2149.00 2923.00,2156.00 2923.00,2156.00
             2923.00,2156.00 2926.00,2155.00 2926.00,2155.00
             2926.08,2158.27 2925.50,2160.85 2929.00,2162.00
             2929.00,2162.00 2932.00,2175.00 2932.00,2175.00
             2935.20,2177.08 2935.50,2177.18 2935.00,2181.00
             2935.00,2181.00 2939.00,2182.00 2939.00,2182.00
             2939.19,2185.12 2938.75,2186.93 2942.00,2188.00
             2942.00,2188.00 2942.00,2195.00 2942.00,2195.00
             2945.17,2196.25 2945.09,2196.67 2945.00,2200.00
             2948.45,2202.35 2948.51,2202.90 2949.00,2207.00
             2949.00,2207.00 2952.00,2207.00 2952.00,2207.00
             2952.93,2213.00 2954.93,2213.54 2957.18,2218.43
             2958.51,2221.32 2957.66,2222.91 2961.00,2224.00
             2961.19,2227.12 2960.75,2228.93 2964.00,2230.00
             2964.00,2230.00 2965.00,2236.00 2965.00,2236.00
             2965.00,2236.00 2968.00,2236.00 2968.00,2236.00
             2968.88,2239.17 2970.76,2244.96 2974.00,2246.00
             2974.59,2248.67 2974.33,2250.02 2977.00,2251.00
             2977.00,2251.00 2981.00,2262.00 2981.00,2262.00
             2981.00,2262.00 2984.00,2262.00 2984.00,2262.00
             2984.88,2265.17 2986.76,2270.96 2990.00,2272.00
             2990.00,2272.00 2994.00,2278.00 2994.00,2278.00
             2994.00,2278.00 2993.00,2281.00 2993.00,2281.00
             3001.17,2284.76 2998.31,2289.49 3003.00,2291.00
             3003.00,2291.00 3007.00,2301.00 3007.00,2301.00
             3007.00,2301.00 3016.00,2309.00 3016.00,2309.00
             3016.00,2309.00 3016.00,2314.00 3016.00,2314.00
             3020.57,2315.53 3022.26,2318.37 3023.00,2323.00
             3023.00,2323.00 3026.00,2323.00 3026.00,2323.00
             3026.00,2323.00 3026.00,2327.00 3026.00,2327.00
             3030.37,2328.47 3031.81,2330.66 3033.00,2335.00
             3033.00,2335.00 3035.00,2334.00 3035.00,2334.00
             3035.00,2334.00 3039.00,2339.00 3039.00,2339.00
             3040.61,2346.06 3050.52,2349.69 3052.00,2359.00
             3058.77,2361.27 3062.59,2370.72 3068.00,2374.00
             3068.00,2374.00 3068.00,2378.00 3068.00,2378.00
             3073.41,2380.11 3072.00,2387.09 3072.00,2392.00
             3072.00,2392.00 2969.00,2392.00 2969.00,2392.00
             2969.00,2392.00 2970.00,2389.00 2970.00,2389.00
             2970.00,2389.00 2947.00,2389.00 2947.00,2389.00
             2947.00,2389.00 2933.96,2386.05 2933.96,2386.05
             2933.96,2386.05 2925.00,2386.05 2925.00,2386.05
             2925.00,2386.05 2917.00,2385.00 2917.00,2385.00
             2915.09,2380.40 2901.87,2382.93 2897.00,2381.00
             2897.00,2381.00 2893.96,2379.13 2893.96,2379.13
             2893.96,2379.13 2882.00,2378.00 2882.00,2378.00
             2882.48,2375.24 2872.98,2376.00 2871.00,2376.00
             2871.00,2376.00 2871.00,2373.00 2871.00,2373.00
             2871.00,2373.00 2848.00,2369.00 2848.00,2369.00
             2846.60,2365.39 2843.27,2366.66 2840.29,2365.00
             2838.18,2363.82 2834.51,2359.92 2833.11,2357.91
             2833.11,2357.91 2824.74,2340.00 2824.74,2340.00
             2821.09,2332.45 2810.28,2309.07 2809.00,2302.00
             2809.00,2302.00 2852.00,2318.92 2852.00,2318.92
             2878.27,2328.02 2905.60,2333.81 2933.00,2338.25
             2933.00,2338.25 2964.00,2341.99 2964.00,2341.99
             2966.60,2342.06 2972.58,2342.70 2974.27,2340.48
             2976.63,2337.38 2969.20,2328.74 2967.28,2326.00
             2967.28,2326.00 2939.40,2284.00 2939.40,2284.00
             2939.40,2284.00 2921.85,2255.00 2921.85,2255.00
             2893.25,2204.90 2868.03,2152.00 2847.68,2098.00
             2811.24,2001.29 2785.99,1903.95 2769.56,1802.00
             2769.56,1802.00 2767.30,1791.00 2767.30,1791.00
             2767.30,1791.00 2762.85,1758.00 2762.85,1758.00
             2762.85,1758.00 2754.00,1687.00 2754.00,1687.00
             2754.00,1687.00 2754.00,1676.00 2754.00,1676.00
             2754.00,1676.00 2750.09,1639.00 2750.09,1639.00
             2750.09,1639.00 2755.55,1609.00 2755.55,1609.00
             2755.55,1609.00 2768.55,1544.00 2768.55,1544.00
             2768.55,1544.00 2781.58,1482.00 2781.58,1482.00
             2781.58,1482.00 2789.81,1447.00 2789.81,1447.00
             2789.81,1447.00 2794.00,1438.00 2794.00,1438.00 Z
           M 2775.00,2408.00
           C 2775.00,2408.00 2794.00,2409.83 2794.00,2409.83
             2794.00,2409.83 2813.00,2411.09 2813.00,2411.09
             2813.00,2411.09 2826.00,2412.00 2826.00,2412.00
             2832.58,2412.01 2837.08,2412.54 2842.76,2416.33
             2846.63,2418.92 2847.44,2422.59 2852.00,2423.00
             2853.08,2427.74 2858.75,2432.07 2862.29,2435.40
             2862.29,2435.40 2880.88,2454.27 2880.88,2454.27
             2884.11,2457.49 2888.53,2460.62 2890.00,2465.00
             2890.00,2465.00 2894.00,2465.00 2894.00,2465.00
             2897.88,2472.51 2915.98,2481.98 2919.00,2491.00
             2919.00,2491.00 2923.00,2491.00 2923.00,2491.00
             2923.00,2491.00 2923.00,2494.00 2923.00,2494.00
             2923.00,2494.00 2939.00,2504.00 2939.00,2504.00
             2939.00,2504.00 2943.00,2507.00 2943.00,2507.00
             2943.00,2507.00 2942.00,2510.00 2942.00,2510.00
             2949.03,2511.12 2949.47,2514.01 2954.45,2518.00
             2960.62,2522.95 2967.17,2525.73 2972.00,2533.00
             2972.00,2533.00 2974.00,2532.00 2974.00,2532.00
             2978.40,2536.72 2981.17,2536.72 2984.00,2543.00
             2984.00,2543.00 2987.00,2542.00 2987.00,2542.00
             2989.22,2545.67 2996.05,2550.23 3000.00,2552.00
             3001.20,2555.39 3003.34,2554.65 3004.98,2557.30
             3005.65,2558.39 3005.89,2559.72 3005.89,2560.99
             3005.89,2566.32 3002.09,2565.97 2998.00,2566.00
             2998.00,2566.00 2954.00,2566.00 2954.00,2566.00
             2948.72,2566.00 2937.44,2566.76 2933.00,2565.00
             2933.00,2565.00 2936.00,2564.00 2936.00,2564.00
             2936.00,2564.00 2914.00,2563.00 2914.00,2563.00
             2914.00,2563.00 2878.00,2563.00 2878.00,2563.00
             2878.00,2563.00 2878.00,2560.00 2878.00,2560.00
             2870.41,2560.00 2852.39,2560.54 2846.00,2558.00
             2846.00,2558.00 2850.00,2557.00 2850.00,2557.00
             2850.00,2557.00 2838.00,2556.04 2838.00,2556.04
             2838.00,2556.04 2825.00,2556.04 2825.00,2556.04
             2825.00,2556.04 2823.55,2553.84 2823.55,2553.84
             2823.55,2553.84 2805.00,2553.00 2805.00,2553.00
             2805.00,2553.00 2806.00,2550.00 2806.00,2550.00
             2806.00,2550.00 2791.00,2550.00 2791.00,2550.00
             2791.00,2550.00 2791.00,2547.00 2791.00,2547.00
             2786.98,2547.00 2777.30,2548.53 2776.00,2544.00
             2776.00,2544.00 2761.00,2543.00 2761.00,2543.00
             2759.39,2538.84 2752.69,2540.00 2749.00,2540.00
             2747.52,2535.92 2741.64,2537.00 2738.00,2537.00
             2738.00,2537.00 2739.00,2534.00 2739.00,2534.00
             2739.00,2534.00 2728.00,2534.00 2728.00,2534.00
             2728.00,2534.00 2728.00,2531.00 2728.00,2531.00
             2728.00,2531.00 2707.00,2527.00 2707.00,2527.00
             2705.63,2523.23 2701.44,2524.01 2698.00,2524.00
             2698.00,2524.00 2690.72,2519.22 2690.72,2519.22
             2690.72,2519.22 2678.67,2508.96 2678.67,2508.96
             2678.67,2508.96 2650.95,2468.00 2650.95,2468.00
             2650.95,2468.00 2637.00,2443.00 2637.00,2443.00
             2643.48,2443.89 2650.96,2449.06 2657.00,2452.08
             2657.00,2452.08 2695.00,2469.72 2695.00,2469.72
             2726.32,2482.98 2776.45,2497.92 2810.00,2503.57
             2810.00,2503.57 2853.00,2510.09 2853.00,2510.09
             2855.87,2510.30 2868.38,2513.85 2865.83,2506.99
             2864.88,2504.45 2860.12,2500.89 2858.00,2498.91
             2858.00,2498.91 2840.00,2482.00 2840.00,2482.00
             2840.00,2482.00 2796.85,2436.00 2796.85,2436.00
             2790.09,2428.32 2779.06,2416.97 2775.00,2408.00 Z
           M 736.00,2418.00
           C 736.00,2418.00 849.00,2418.00 849.00,2418.00
             849.00,2418.00 849.00,2585.00 849.00,2585.00
             849.00,2585.00 1018.00,2585.00 1018.00,2585.00
             1018.00,2585.00 1018.00,2699.00 1018.00,2699.00
             1018.00,2699.00 849.00,2699.00 849.00,2699.00
             849.00,2699.00 849.00,2866.00 849.00,2866.00
             849.00,2866.00 736.00,2866.00 736.00,2866.00
             736.00,2866.00 736.00,2699.00 736.00,2699.00
             736.00,2699.00 567.00,2699.00 567.00,2699.00
             567.00,2699.00 567.00,2585.00 567.00,2585.00
             567.00,2585.00 736.00,2585.00 736.00,2585.00
             736.00,2585.00 736.00,2418.00 736.00,2418.00 Z
           M 2950.00,2758.00
           C 2950.00,2758.00 3063.00,2758.00 3063.00,2758.00
             3063.00,2758.00 3063.00,2925.00 3063.00,2925.00
             3063.00,2925.00 3232.00,2925.00 3232.00,2925.00
             3232.00,2925.00 3232.00,3039.00 3232.00,3039.00
             3232.00,3039.00 3063.00,3039.00 3063.00,3039.00
             3063.00,3039.00 3063.00,3206.00 3063.00,3206.00
             3063.00,3206.00 2950.00,3206.00 2950.00,3206.00
             2950.00,3206.00 2950.00,3039.00 2950.00,3039.00
             2950.00,3039.00 2781.00,3039.00 2781.00,3039.00
             2781.00,3039.00 2781.00,2925.00 2781.00,2925.00
             2781.00,2925.00 2950.00,2925.00 2950.00,2925.00
             2950.00,2925.00 2950.00,2758.00 2950.00,2758.00 Z" />
</svg>
