<?xml version="1.0" encoding="UTF-8" standalone="no"?>
<!DOCTYPE svg PUBLIC "-//W3C//DTD SVG 20010904//EN"
              "http://www.w3.org/TR/2001/REC-SVG-20010904/DTD/svg10.dtd">

<svg xmlns="http://www.w3.org/2000/svg"
     width="12in" height="12in"
     viewBox="0 0 3600 3600">
  <path id="6 - horn"
        fill="none" stroke="black" stroke-width="1"
        d="M 1257.00,401.00
           C 1255.13,392.97 1258.24,383.36 1259.89,375.58
             1259.89,375.58 1261.15,367.17 1261.15,367.17
             1264.47,353.97 1269.98,340.79 1276.72,329.00
             1279.85,323.52 1284.96,315.33 1290.01,311.64
             1299.61,304.63 1316.40,302.87 1328.00,303.00
             1339.23,303.14 1352.59,306.25 1363.00,310.45
             1363.00,310.45 1385.00,320.00 1385.00,320.00
             1387.55,324.20 1392.46,325.83 1396.34,328.75
             1396.34,328.75 1406.41,335.77 1406.41,335.77
             1406.41,335.77 1425.05,350.70 1425.05,350.70
             1425.05,350.70 1436.93,361.09 1436.93,361.09
             1436.93,361.09 1442.13,366.73 1442.13,366.73
             1442.13,366.73 1451.96,375.30 1451.96,375.30
             1451.96,375.30 1459.05,384.00 1459.05,384.00
             1459.05,384.00 1468.74,393.07 1468.74,393.07
             1468.74,393.07 1485.55,412.13 1485.55,412.13
             1485.55,412.13 1498.40,427.73 1498.40,427.73
             1498.40,427.73 1523.10,458.04 1523.10,458.04
             1523.10,458.04 1537.23,477.65 1537.23,477.65
             1537.23,477.65 1547.57,491.00 1547.57,491.00
             1547.57,491.00 1572.07,527.11 1572.07,527.11
             1572.07,527.11 1623.10,607.55 1623.10,607.55
             1623.10,607.55 1634.56,626.01 1634.56,626.01
             1634.56,626.01 1639.03,634.83 1639.03,634.83
             1639.03,634.83 1644.68,644.00 1644.68,644.00
             1644.68,644.00 1647.82,650.83 1647.82,650.83
             1647.82,650.83 1653.58,660.00 1653.58,660.00
             1653.58,660.00 1661.63,675.91 1661.63,675.91
             1661.63,675.91 1682.14,717.00 1682.14,717.00
             1682.14,717.00 1700.51,771.00 1700.51,771.00
             1700.51,771.00 1705.24,787.99 1705.24,787.99
             1705.24,787.99 1706.32,794.28 1706.32,794.28
             1707.89,800.09 1710.37,806.94 1709.00,813.00
             1716.53,818.32 1703.76,826.37 1699.00,831.01
             1699.00,831.01 1695.00,834.99 1695.00,834.99
             1675.81,853.82 1653.93,869.91 1632.00,885.42
             1593.91,912.38 1546.65,936.87 1504.00,955.98
             1504.00,955.98 1452.00,977.28 1452.00,977.28
             1452.00,977.28 1404.00,995.09 1404.00,995.09
             1400.42,996.27 1389.57,1001.26 1386.47,1000.07
             1381.72,998.26 1377.89,986.89 1375.09,982.58
             1366.12,968.76 1352.29,937.02 1346.09,921.00
             1346.09,921.00 1331.37,877.00 1331.37,877.00
             1329.71,870.62 1326.82,863.65 1328.00,857.00
             1324.38,854.19 1324.14,849.23 1325.00,845.00
             1321.26,842.10 1321.41,836.34 1320.27,832.00
             1320.27,832.00 1314.11,807.00 1314.11,807.00
             1312.66,801.23 1310.57,797.02 1312.00,791.00
             1308.57,788.34 1307.60,780.32 1306.42,776.00
             1306.42,776.00 1304.90,767.58 1304.90,767.58
             1304.90,767.58 1298.58,743.00 1298.58,743.00
             1297.18,736.87 1294.71,731.36 1296.00,725.00
             1292.25,722.08 1291.53,712.75 1290.37,708.00
             1290.37,708.00 1288.90,699.58 1288.90,699.58
             1288.90,699.58 1283.68,678.01 1283.68,678.01
             1283.68,678.01 1282.73,671.72 1282.73,671.72
             1281.17,665.16 1278.23,658.77 1280.00,652.00
             1276.37,649.01 1276.65,643.36 1276.00,639.00
             1274.93,631.92 1272.25,629.90 1274.00,622.00
             1270.85,619.29 1270.59,613.29 1270.19,609.28
             1269.39,601.21 1265.25,590.12 1267.00,582.00
             1263.19,578.72 1262.90,567.69 1264.00,563.00
             1264.00,563.00 1261.13,555.00 1261.13,555.00
             1261.13,555.00 1260.00,534.00 1260.00,534.00
             1257.38,531.64 1258.12,530.18 1259.00,527.00
             1255.84,524.16 1257.60,521.76 1257.34,518.00
             1256.83,510.50 1253.92,501.32 1256.00,494.00
             1252.77,491.11 1254.44,487.84 1254.63,484.00
             1254.63,484.00 1253.00,466.00 1253.00,466.00
             1253.00,466.00 1253.82,447.00 1253.82,447.00
             1253.82,447.00 1253.00,436.00 1253.00,436.00
             1253.00,436.00 1254.18,413.00 1254.18,413.00
             1253.96,409.25 1254.09,403.59 1257.00,401.00 Z
           M 736.00,2418.00
           C 736.00,2418.00 849.00,2418.00 849.00,2418.00
             849.00,2418.00 849.00,2585.00 849.00,2585.00
             849.00,2585.00 1018.00,2585.00 1018.00,2585.00
             1018.00,2585.00 1018.00,2699.00 1018.00,2699.00
             1018.00,2699.00 849.00,2699.00 849.00,2699.00
             849.00,2699.00 849.00,2866.00 849.00,2866.00
             849.00,2866.00 736.00,2866.00 736.00,2866.00
             736.00,2866.00 736.00,2699.00 736.00,2699.00
             736.00,2699.00 567.00,2699.00 567.00,2699.00
             567.00,2699.00 567.00,2585.00 567.00,2585.00
             567.00,2585.00 736.00,2585.00 736.00,2585.00
             736.00,2585.00 736.00,2418.00 736.00,2418.00 Z
           M 2950.00,2758.00
           C 2950.00,2758.00 3063.00,2758.00 3063.00,2758.00
             3063.00,2758.00 3063.00,2925.00 3063.00,2925.00
             3063.00,2925.00 3232.00,2925.00 3232.00,2925.00
             3232.00,2925.00 3232.00,3039.00 3232.00,3039.00
             3232.00,3039.00 3063.00,3039.00 3063.00,3039.00
             3063.00,3039.00 3063.00,3206.00 3063.00,3206.00
             3063.00,3206.00 2950.00,3206.00 2950.00,3206.00
             2950.00,3206.00 2950.00,3039.00 2950.00,3039.00
             2950.00,3039.00 2781.00,3039.00 2781.00,3039.00
             2781.00,3039.00 2781.00,2925.00 2781.00,2925.00
             2781.00,2925.00 2950.00,2925.00 2950.00,2925.00
             2950.00,2925.00 2950.00,2758.00 2950.00,2758.00 Z" />
</svg>
