<?xml version="1.0" encoding="UTF-8" standalone="no"?>
<!DOCTYPE svg PUBLIC "-//W3C//DTD SVG 20010904//EN"
              "http://www.w3.org/TR/2001/REC-SVG-20010904/DTD/svg10.dtd">

<svg xmlns="http://www.w3.org/2000/svg"
     width="12in" height="12in"
     viewBox="0 0 3600 3600">
  <path id="7 - horn outline"
        fill="none" stroke="black" stroke-width="1"
        d="M 1256.07,505.00
           C 1252.39,501.76 1253.23,488.86 1253.41,484.00
             1253.41,484.00 1252.00,465.00 1252.00,465.00
             1252.00,465.00 1252.68,447.00 1252.68,447.00
             1252.68,447.00 1252.00,432.00 1252.00,432.00
             1252.00,432.00 1253.26,416.00 1253.26,416.00
             1252.92,406.52 1254.57,400.19 1255.72,391.00
             1258.03,372.42 1263.11,351.70 1271.78,335.00
             1275.26,328.30 1282.39,316.02 1288.04,311.39
             1294.62,305.99 1306.62,303.01 1315.00,303.00
             1322.50,302.99 1339.59,302.37 1346.00,303.90
             1351.42,305.19 1360.99,308.09 1366.00,310.31
             1366.00,310.31 1386.00,319.00 1386.00,319.00
             1388.49,323.11 1391.90,323.93 1395.72,326.55
             1395.72,326.55 1413.20,339.34 1413.20,339.34
             1413.20,339.34 1436.07,358.33 1436.07,358.33
             1436.07,358.33 1443.13,365.73 1443.13,365.73
             1443.13,365.73 1452.96,374.30 1452.96,374.30
             1452.96,374.30 1461.02,383.99 1461.02,383.99
             1461.02,383.99 1469.74,392.07 1469.74,392.07
             1469.74,392.07 1482.45,406.84 1482.45,406.84
             1482.45,406.84 1524.10,457.04 1524.10,457.04
             1524.10,457.04 1537.65,475.88 1537.65,475.88
             1537.65,475.88 1548.57,490.00 1548.57,490.00
             1548.57,490.00 1561.58,509.37 1561.58,509.37
             1561.58,509.37 1598.39,564.04 1598.39,564.04
             1598.39,564.04 1615.05,591.55 1615.05,591.55
             1615.05,591.55 1635.56,625.01 1635.56,625.01
             1635.56,625.01 1640.03,633.83 1640.03,633.83
             1640.03,633.83 1645.68,643.00 1645.68,643.00
             1645.68,643.00 1648.82,649.83 1648.82,649.83
             1648.82,649.83 1655.69,661.00 1655.69,661.00
             1655.69,661.00 1663.55,676.71 1663.55,676.71
             1681.79,712.28 1689.81,728.99 1700.91,768.00
             1700.91,768.00 1706.91,790.00 1706.91,790.00
             1706.91,790.00 1711.04,809.00 1711.04,809.00
             1711.87,812.53 1713.61,816.12 1712.12,819.74
             1711.02,822.41 1699.81,832.22 1697.00,835.00
             1694.10,837.87 1686.71,846.98 1682.27,845.35
             1679.17,844.21 1677.74,837.88 1676.81,835.00
             1676.81,835.00 1666.46,805.00 1666.46,805.00
             1659.74,786.01 1652.16,766.89 1642.89,749.00
             1642.89,749.00 1635.43,736.00 1635.43,736.00
             1635.43,736.00 1615.00,696.00 1615.00,696.00
             1615.00,696.00 1614.00,701.00 1614.00,701.00
             1610.27,698.60 1608.62,693.96 1606.86,690.00
             1606.86,690.00 1599.25,673.00 1599.25,673.00
             1599.25,673.00 1597.51,665.00 1597.51,665.00
             1596.26,661.03 1585.60,643.55 1582.81,639.00
             1550.49,586.24 1517.69,533.42 1479.00,485.00
             1479.00,485.00 1479.00,489.00 1479.00,489.00
             1473.74,485.24 1469.76,480.48 1465.00,476.17
             1462.43,473.84 1458.78,471.35 1457.51,468.00
             1456.63,465.18 1457.83,462.45 1457.51,460.00
             1456.65,455.74 1447.86,446.69 1444.75,443.00
             1444.75,443.00 1406.00,402.01 1406.00,402.01
             1390.17,386.40 1368.92,369.71 1349.00,359.75
             1343.37,356.94 1330.19,351.16 1324.09,353.60
             1319.88,355.29 1316.64,362.94 1315.06,367.00
             1310.93,377.59 1305.74,395.78 1304.98,407.00
             1304.98,407.00 1303.29,419.00 1303.29,419.00
             1303.29,419.00 1302.00,439.00 1302.00,439.00
             1302.00,439.00 1302.00,459.00 1302.00,459.00
             1302.00,459.00 1303.00,476.00 1303.00,476.00
             1303.00,476.00 1305.00,496.00 1305.00,496.00
             1305.00,496.00 1305.00,506.00 1305.00,506.00
             1305.00,506.00 1307.72,525.00 1307.72,525.00
             1307.72,525.00 1312.44,561.00 1312.44,561.00
             1312.44,561.00 1319.44,602.00 1319.44,602.00
             1321.09,608.34 1323.13,607.71 1324.79,615.00
             1325.46,619.46 1328.53,629.82 1324.79,633.00
             1324.79,633.00 1334.51,676.00 1334.51,676.00
             1334.51,676.00 1350.90,746.00 1350.90,746.00
             1350.90,746.00 1372.32,833.00 1372.32,833.00
             1372.32,833.00 1380.15,866.00 1380.15,866.00
             1380.15,866.00 1383.16,875.70 1383.16,875.70
             1383.16,875.70 1387.86,881.14 1387.86,881.14
             1387.86,881.14 1393.00,903.00 1393.00,903.00
             1392.87,903.10 1391.35,903.50 1390.92,905.29
             1390.49,907.07 1394.93,923.07 1395.74,926.00
             1395.74,926.00 1408.91,972.00 1408.91,972.00
             1411.45,980.85 1413.91,984.17 1414.00,994.00
             1404.97,995.70 1403.40,996.73 1395.00,999.69
             1392.14,1000.70 1388.44,1002.54 1385.47,1001.16
             1382.96,1000.00 1380.77,996.32 1379.43,994.00
             1379.43,994.00 1375.18,985.28 1375.18,985.28
             1375.18,985.28 1369.74,976.00 1369.74,976.00
             1356.92,951.10 1345.47,925.64 1336.74,899.00
             1336.74,899.00 1319.53,834.00 1319.53,834.00
             1319.53,834.00 1303.50,768.00 1303.50,768.00
             1303.50,768.00 1295.50,736.00 1295.50,736.00
             1295.50,736.00 1274.69,639.00 1274.69,639.00
             1274.69,639.00 1268.73,608.00 1268.73,608.00
             1268.73,608.00 1260.27,557.00 1260.27,557.00
             1260.27,557.00 1258.87,542.72 1258.87,542.72
             1258.87,542.72 1256.07,526.00 1256.07,526.00
             1256.07,526.00 1256.07,519.00 1256.07,519.00
             1255.70,512.59 1253.94,512.24 1256.07,505.00 Z
           M 736.00,2418.00
           C 736.00,2418.00 849.00,2418.00 849.00,2418.00
             849.00,2418.00 849.00,2585.00 849.00,2585.00
             849.00,2585.00 1018.00,2585.00 1018.00,2585.00
             1018.00,2585.00 1018.00,2699.00 1018.00,2699.00
             1018.00,2699.00 849.00,2699.00 849.00,2699.00
             849.00,2699.00 849.00,2866.00 849.00,2866.00
             849.00,2866.00 736.00,2866.00 736.00,2866.00
             736.00,2866.00 736.00,2699.00 736.00,2699.00
             736.00,2699.00 567.00,2699.00 567.00,2699.00
             567.00,2699.00 567.00,2585.00 567.00,2585.00
             567.00,2585.00 736.00,2585.00 736.00,2585.00
             736.00,2585.00 736.00,2418.00 736.00,2418.00 Z
           M 2950.00,2758.00
           C 2950.00,2758.00 3063.00,2758.00 3063.00,2758.00
             3063.00,2758.00 3063.00,2925.00 3063.00,2925.00
             3063.00,2925.00 3232.00,2925.00 3232.00,2925.00
             3232.00,2925.00 3232.00,3039.00 3232.00,3039.00
             3232.00,3039.00 3063.00,3039.00 3063.00,3039.00
             3063.00,3039.00 3063.00,3206.00 3063.00,3206.00
             3063.00,3206.00 2950.00,3206.00 2950.00,3206.00
             2950.00,3206.00 2950.00,3039.00 2950.00,3039.00
             2950.00,3039.00 2781.00,3039.00 2781.00,3039.00
             2781.00,3039.00 2781.00,2925.00 2781.00,2925.00
             2781.00,2925.00 2950.00,2925.00 2950.00,2925.00
             2950.00,2925.00 2950.00,2758.00 2950.00,2758.00 Z" />
</svg>
