<?xml version="1.0" encoding="UTF-8" standalone="no"?>
<!DOCTYPE svg PUBLIC "-//W3C//DTD SVG 20010904//EN"
              "http://www.w3.org/TR/2001/REC-SVG-20010904/DTD/svg10.dtd">

<svg xmlns="http://www.w3.org/2000/svg"
     width="12in" height="12in"
     viewBox="0 0 3600 3600">
  <path id="8 - body outline 2"
        fill="none" stroke="black" stroke-width="1"
        d="M 1457.00,469.00
           C 1461.57,472.17 1476.04,484.38 1477.68,489.00
             1478.54,491.41 1475.81,502.06 1474.96,505.00
             1470.91,519.13 1467.30,530.65 1460.94,544.00
             1443.65,580.29 1418.43,607.58 1380.00,621.56
             1366.68,626.41 1352.98,629.38 1339.00,631.56
             1339.00,631.56 1327.00,633.00 1327.00,633.00
             1327.00,633.00 1323.00,609.00 1323.00,609.00
             1323.00,609.00 1336.00,607.70 1336.00,607.70
             1336.00,607.70 1363.00,601.06 1363.00,601.06
             1400.36,587.75 1425.32,561.15 1440.67,525.00
             1440.67,525.00 1450.96,495.00 1450.96,495.00
             1450.96,495.00 1457.00,469.00 1457.00,469.00 Z
           M 1597.00,669.00
           C 1600.25,673.20 1605.20,685.55 1607.78,691.00
             1609.16,693.92 1612.14,698.96 1612.29,702.00
             1612.47,705.84 1606.96,717.10 1605.10,721.00
             1597.74,736.52 1590.17,751.41 1581.05,766.00
             1548.44,818.19 1506.15,857.71 1450.00,883.53
             1437.15,889.43 1421.60,894.97 1408.00,898.97
             1408.00,898.97 1393.00,903.00 1393.00,903.00
             1393.00,903.00 1387.00,878.00 1387.00,878.00
             1387.00,878.00 1408.00,871.48 1408.00,871.48
             1421.56,867.07 1438.52,860.44 1451.00,853.69
             1507.59,823.08 1546.59,780.32 1575.25,723.00
             1575.25,723.00 1591.05,687.00 1591.05,687.00
             1593.21,681.22 1596.05,675.06 1597.00,669.00 Z
           M 2144.00,1853.00
           C 2146.76,1858.28 2148.07,1865.33 2149.88,1871.00
             2149.88,1871.00 2162.60,1923.00 2162.60,1923.00
             2165.21,1936.07 2170.98,1973.75 2171.00,1986.00
             2171.00,1986.00 2171.00,2003.00 2171.00,2003.00
             2171.00,2003.00 2171.68,2014.00 2171.68,2014.00
             2171.68,2014.00 2171.00,2022.00 2171.00,2022.00
             2171.00,2022.00 2171.00,2034.00 2171.00,2034.00
             2171.00,2034.00 2168.28,2057.00 2168.28,2057.00
             2165.79,2077.01 2160.81,2096.58 2152.47,2115.00
             2134.80,2154.04 2108.18,2183.03 2065.00,2192.21
             2057.78,2193.75 2050.41,2194.96 2043.00,2195.00
             2043.00,2195.00 2031.00,2195.00 2031.00,2195.00
             2006.75,2194.71 1977.65,2184.81 1956.00,2174.26
             1897.78,2145.88 1852.43,2097.10 1814.13,2046.00
             1802.13,2030.00 1791.09,2013.15 1780.80,1996.00
             1776.86,1989.43 1769.15,1977.81 1767.00,1971.00
             1767.00,1971.00 1813.00,1996.85 1813.00,1996.85
             1813.00,1996.85 1835.00,2009.00 1835.00,2009.00
             1835.96,2015.85 1844.42,2025.42 1848.79,2031.00
             1860.56,2046.02 1872.48,2060.49 1886.00,2074.00
             1886.00,2074.00 1900.00,2087.04 1900.00,2087.04
             1900.00,2087.04 1918.00,2104.96 1918.00,2104.96
             1925.64,2112.27 1935.30,2118.85 1944.00,2124.88
             1962.13,2137.45 1978.78,2145.71 1999.72,2152.39
             2005.74,2154.32 2011.69,2156.62 2018.00,2157.68
             2018.00,2157.68 2029.00,2158.77 2029.00,2158.77
             2029.00,2158.77 2036.00,2158.77 2036.00,2158.77
             2036.00,2158.77 2044.00,2158.77 2044.00,2158.77
             2059.53,2158.36 2075.85,2151.91 2088.00,2142.33
             2094.98,2136.83 2103.49,2127.40 2108.48,2120.00
             2116.45,2108.17 2123.44,2092.77 2127.22,2079.00
             2127.22,2079.00 2128.43,2072.28 2128.43,2072.28
             2128.43,2072.28 2130.30,2066.96 2130.30,2066.96
             2132.29,2059.58 2134.99,2040.71 2135.00,2033.00
             2135.00,2033.00 2135.00,1992.00 2135.00,1992.00
             2134.95,1981.11 2129.98,1941.96 2127.68,1931.00
             2127.68,1931.00 2125.57,1924.17 2125.57,1924.17
             2125.57,1924.17 2124.30,1915.04 2124.30,1915.04
             2123.26,1911.28 2121.46,1909.89 2121.61,1906.96
             2121.74,1904.45 2126.54,1894.11 2127.80,1891.00
             2127.80,1891.00 2144.00,1853.00 2144.00,1853.00 Z
           M 2400.00,2208.00
           C 2400.00,2208.00 2441.00,2180.00 2441.00,2180.00
             2441.00,2180.00 2461.31,2203.42 2461.31,2203.42
             2461.31,2203.42 2484.19,2236.00 2484.19,2236.00
             2512.15,2281.05 2533.77,2329.77 2550.51,2380.00
             2550.51,2380.00 2556.46,2397.96 2556.46,2397.96
             2556.46,2397.96 2558.58,2403.28 2558.58,2403.28
             2558.58,2403.28 2563.03,2420.00 2563.03,2420.00
             2563.03,2420.00 2567.85,2435.17 2567.85,2435.17
             2567.85,2435.17 2569.74,2444.00 2569.74,2444.00
             2572.59,2454.23 2574.52,2452.10 2575.73,2456.21
             2575.73,2456.21 2577.04,2464.00 2577.04,2464.00
             2577.04,2464.00 2585.38,2499.00 2585.38,2499.00
             2588.35,2510.21 2591.67,2506.26 2592.00,2516.00
             2592.00,2516.00 2595.00,2516.00 2595.00,2516.00
             2595.00,2516.00 2595.00,2531.00 2595.00,2531.00
             2595.00,2531.00 2598.15,2531.00 2598.15,2531.00
             2598.15,2531.00 2598.15,2545.96 2598.15,2545.96
             2598.15,2545.96 2600.88,2553.09 2600.88,2553.09
             2600.88,2553.09 2602.00,2570.91 2602.00,2570.91
             2602.00,2570.91 2604.85,2577.09 2604.85,2577.09
             2604.85,2577.09 2604.85,2593.00 2604.85,2593.00
             2604.85,2593.00 2608.00,2593.00 2608.00,2593.00
             2608.00,2593.00 2608.00,2620.00 2608.00,2620.00
             2608.00,2620.00 2611.00,2620.00 2611.00,2620.00
             2611.00,2620.00 2611.00,2657.00 2611.00,2657.00
             2611.00,2657.00 2614.00,2657.00 2614.00,2657.00
             2614.00,2657.00 2614.00,2685.00 2614.00,2685.00
             2614.00,2685.00 2617.04,2705.00 2617.04,2705.00
             2617.04,2705.00 2617.04,2721.00 2617.04,2721.00
             2617.04,2721.00 2618.00,2733.00 2618.00,2733.00
             2618.00,2733.00 2618.00,2774.00 2618.00,2774.00
             2618.00,2774.00 2616.88,2791.00 2616.88,2791.00
             2616.88,2791.00 2616.88,2807.83 2616.88,2807.83
             2616.88,2807.83 2614.00,2823.00 2614.00,2823.00
             2614.00,2823.00 2614.00,2840.00 2614.00,2840.00
             2614.00,2840.00 2611.00,2855.00 2611.00,2855.00
             2611.00,2855.00 2611.00,2874.00 2611.00,2874.00
             2611.00,2874.00 2608.00,2874.00 2608.00,2874.00
             2608.00,2874.00 2608.00,2896.00 2608.00,2896.00
             2608.00,2896.00 2605.00,2896.00 2605.00,2896.00
             2605.00,2896.00 2605.00,2905.00 2605.00,2905.00
             2605.00,2905.00 2602.00,2915.09 2602.00,2915.09
             2602.00,2915.09 2601.00,2929.00 2601.00,2929.00
             2601.00,2929.00 2597.87,2929.00 2597.87,2929.00
             2597.87,2929.00 2597.87,2941.83 2597.87,2941.83
             2596.52,2947.34 2595.01,2943.02 2595.00,2955.00
             2595.00,2955.00 2591.00,2956.00 2591.00,2956.00
             2591.00,2956.00 2592.00,2966.00 2592.00,2966.00
             2592.00,2966.00 2589.00,2966.00 2589.00,2966.00
             2588.99,2970.56 2589.91,2975.08 2585.00,2977.00
             2585.00,2977.00 2585.00,2987.00 2585.00,2987.00
             2585.00,2987.00 2582.00,2987.00 2582.00,2987.00
             2582.00,2987.00 2582.00,2996.00 2582.00,2996.00
             2582.00,2996.00 2579.00,2996.00 2579.00,2996.00
             2579.00,2996.00 2579.00,3004.00 2579.00,3004.00
             2579.00,3004.00 2576.00,3004.00 2576.00,3004.00
             2576.00,3004.00 2566.00,3033.00 2566.00,3033.00
             2566.00,3033.00 2563.00,3033.00 2563.00,3033.00
             2562.63,3037.65 2557.39,3048.30 2553.00,3050.00
             2553.00,3050.00 2553.00,3056.00 2553.00,3056.00
             2553.00,3056.00 2550.00,3056.00 2550.00,3056.00
             2549.20,3061.13 2545.04,3068.17 2540.00,3070.00
             2539.60,3075.35 2538.47,3077.17 2533.00,3078.00
             2530.83,3086.25 2523.36,3094.19 2517.08,3099.71
             2513.44,3102.91 2512.92,3104.30 2508.00,3105.00
             2508.00,3105.00 2507.04,3107.29 2507.04,3107.29
             2507.04,3107.29 2496.54,3117.12 2496.54,3117.12
             2496.54,3117.12 2491.00,3118.00 2491.00,3118.00
             2491.00,3118.00 2481.00,3128.00 2481.00,3128.00
             2481.00,3128.00 2476.00,3128.00 2476.00,3128.00
             2476.00,3128.00 2476.00,3131.00 2476.00,3131.00
             2476.00,3131.00 2470.00,3131.00 2470.00,3131.00
             2470.00,3131.00 2470.00,3134.00 2470.00,3134.00
             2470.00,3134.00 2455.17,3137.96 2455.17,3137.96
             2455.17,3137.96 2449.91,3140.85 2449.91,3140.85
             2449.91,3140.85 2444.00,3140.85 2444.00,3140.85
             2444.00,3140.85 2440.00,3154.00 2440.00,3154.00
             2440.00,3154.00 2437.00,3154.00 2437.00,3154.00
             2437.00,3154.00 2437.00,3159.00 2437.00,3159.00
             2437.00,3159.00 2434.00,3159.00 2434.00,3159.00
             2434.00,3159.00 2434.00,3164.00 2434.00,3164.00
             2434.00,3164.00 2427.00,3169.00 2427.00,3169.00
             2426.43,3176.73 2421.39,3179.72 2416.12,3184.50
             2416.12,3184.50 2410.25,3191.34 2410.25,3191.34
             2406.55,3194.78 2398.52,3200.84 2396.00,3205.00
             2396.00,3205.00 2381.00,3212.00 2381.00,3212.00
             2381.00,3212.00 2381.00,3215.00 2381.00,3215.00
             2381.00,3215.00 2377.00,3215.00 2377.00,3215.00
             2377.00,3215.00 2377.00,3218.00 2377.00,3218.00
             2377.00,3218.00 2372.00,3217.00 2372.00,3217.00
             2372.00,3217.00 2371.00,3221.00 2371.00,3221.00
             2371.00,3221.00 2364.00,3221.00 2364.00,3221.00
             2364.00,3221.00 2364.00,3224.00 2364.00,3224.00
             2364.00,3224.00 2350.00,3228.00 2350.00,3228.00
             2350.38,3239.22 2362.87,3255.36 2363.00,3267.00
             2363.00,3267.00 2366.00,3267.00 2366.00,3267.00
             2366.00,3267.00 2366.00,3275.00 2366.00,3275.00
             2366.00,3275.00 2369.00,3275.00 2369.00,3275.00
             2369.00,3275.00 2373.00,3291.00 2373.00,3291.00
             2373.00,3291.00 2376.00,3291.00 2376.00,3291.00
             2376.00,3291.00 2376.00,3300.00 2376.00,3300.00
             2376.00,3300.00 2379.00,3300.00 2379.00,3300.00
             2379.00,3300.00 2379.00,3307.00 2379.00,3307.00
             2379.00,3307.00 2382.00,3307.00 2382.00,3307.00
             2382.00,3307.00 2382.00,3316.00 2382.00,3316.00
             2386.43,3317.73 2385.90,3320.71 2386.00,3325.00
             2386.00,3325.00 2389.00,3325.00 2389.00,3325.00
             2389.00,3325.00 2388.00,3332.00 2388.00,3332.00
             2388.00,3332.00 2392.00,3333.00 2392.00,3333.00
             2392.00,3333.00 2392.00,3341.00 2392.00,3341.00
             2392.00,3341.00 2395.00,3341.00 2395.00,3341.00
             2395.26,3348.67 2396.59,3346.39 2397.73,3351.17
             2397.73,3351.17 2398.58,3355.91 2398.58,3355.91
             2400.35,3360.86 2401.88,3358.03 2402.00,3367.00
             2402.00,3367.00 2405.00,3367.00 2405.00,3367.00
             2405.00,3367.00 2405.00,3376.00 2405.00,3376.00
             2405.00,3376.00 2408.00,3376.00 2408.00,3376.00
             2408.00,3376.00 2408.00,3384.00 2408.00,3384.00
             2408.00,3384.00 2411.00,3384.00 2411.00,3384.00
             2411.13,3397.06 2415.91,3391.88 2414.00,3404.00
             2418.88,3405.71 2417.98,3408.36 2418.00,3413.00
             2418.00,3413.00 2421.00,3413.00 2421.00,3413.00
             2421.00,3413.00 2421.00,3423.00 2421.00,3423.00
             2421.00,3423.00 2424.00,3423.00 2424.00,3423.00
             2424.00,3423.00 2431.00,3451.00 2431.00,3451.00
             2431.00,3451.00 2374.00,3451.00 2374.00,3451.00
             2373.42,3445.39 2370.02,3436.66 2368.19,3431.00
             2368.19,3431.00 2355.05,3393.00 2355.05,3393.00
             2355.05,3393.00 2316.42,3293.00 2316.42,3293.00
             2316.42,3293.00 2301.28,3256.00 2301.28,3256.00
             2299.97,3252.94 2296.02,3242.56 2293.89,3240.72
             2291.77,3239.14 2287.50,3240.24 2285.00,3240.72
             2285.00,3240.72 2267.00,3242.00 2267.00,3242.00
             2267.00,3242.00 2225.00,3242.00 2225.00,3242.00
             2225.00,3242.00 2191.00,3239.00 2191.00,3239.00
             2191.00,3239.00 2183.00,3239.00 2183.00,3239.00
             2183.00,3239.00 2166.00,3236.28 2166.00,3236.28
             2166.00,3236.28 2131.00,3231.39 2131.00,3231.39
             2131.00,3231.39 2098.00,3225.22 2098.00,3225.22
             2098.00,3225.22 2056.00,3209.58 2056.00,3209.58
             2056.00,3209.58 2034.00,3200.57 2034.00,3200.57
             2031.28,3199.41 2026.91,3196.77 2024.00,3197.55
             2020.95,3198.37 2010.92,3208.20 2008.00,3210.83
             2008.00,3210.83 1975.00,3237.87 1975.00,3237.87
             1942.27,3262.65 1904.13,3284.95 1866.00,3300.27
             1831.17,3314.26 1795.24,3324.64 1758.00,3329.29
             1758.00,3329.29 1723.00,3333.00 1723.00,3333.00
             1723.00,3333.00 1681.00,3333.00 1681.00,3333.00
             1675.79,3332.99 1663.09,3330.52 1659.42,3333.60
             1657.08,3335.55 1656.00,3340.14 1655.12,3343.00
             1655.12,3343.00 1648.28,3365.00 1648.28,3365.00
             1648.28,3365.00 1631.85,3423.00 1631.85,3423.00
             1631.85,3423.00 1625.00,3451.00 1625.00,3451.00
             1625.00,3451.00 1570.00,3451.00 1570.00,3451.00
             1570.00,3451.00 1570.00,3440.00 1570.00,3440.00
             1570.00,3440.00 1573.00,3440.00 1573.00,3440.00
             1573.00,3434.02 1571.50,3429.52 1577.00,3426.00
             1575.93,3421.53 1574.90,3416.99 1580.00,3415.00
             1580.00,3415.00 1580.00,3402.00 1580.00,3402.00
             1580.00,3402.00 1583.00,3402.00 1583.00,3402.00
             1583.00,3402.00 1583.00,3391.00 1583.00,3391.00
             1583.00,3391.00 1586.00,3391.00 1586.00,3391.00
             1586.00,3376.27 1587.03,3382.80 1588.71,3375.91
             1588.71,3375.91 1589.58,3371.17 1589.58,3371.17
             1591.58,3365.72 1592.99,3369.83 1593.00,3358.00
             1593.00,3358.00 1596.00,3358.00 1596.00,3358.00
             1596.00,3358.00 1596.00,3346.00 1596.00,3346.00
             1596.00,3346.00 1599.00,3346.00 1599.00,3346.00
             1599.00,3346.00 1599.00,3336.00 1599.00,3336.00
             1599.00,3336.00 1603.00,3335.00 1603.00,3335.00
             1603.00,3335.00 1602.00,3327.00 1602.00,3327.00
             1602.00,3327.00 1606.00,3324.00 1606.00,3324.00
             1606.00,3324.00 1601.00,3324.00 1601.00,3324.00
             1601.00,3324.00 1601.00,3321.00 1601.00,3321.00
             1601.00,3321.00 1591.00,3321.00 1591.00,3321.00
             1591.00,3321.00 1591.00,3318.00 1591.00,3318.00
             1591.00,3318.00 1583.00,3318.00 1583.00,3318.00
             1583.00,3318.00 1583.00,3315.00 1583.00,3315.00
             1583.00,3315.00 1561.00,3308.00 1561.00,3308.00
             1561.00,3308.00 1561.00,3305.00 1561.00,3305.00
             1561.00,3305.00 1555.00,3305.00 1555.00,3305.00
             1555.00,3305.00 1555.00,3302.00 1555.00,3302.00
             1548.70,3301.50 1549.31,3300.20 1544.57,3296.94
             1541.28,3294.67 1540.37,3295.26 1537.00,3292.35
             1537.00,3292.35 1522.95,3277.25 1522.95,3277.25
             1517.75,3272.52 1513.22,3270.71 1512.00,3263.00
             1506.89,3261.15 1506.16,3258.03 1506.00,3253.00
             1506.00,3253.00 1499.00,3248.00 1499.00,3248.00
             1497.52,3238.42 1489.27,3231.79 1489.00,3220.00
             1489.00,3220.00 1486.00,3220.00 1486.00,3220.00
             1486.00,3220.00 1486.00,3211.00 1486.00,3211.00
             1486.00,3211.00 1483.00,3211.00 1483.00,3211.00
             1483.00,3211.00 1483.00,3202.00 1483.00,3202.00
             1483.00,3202.00 1480.00,3202.00 1480.00,3202.00
             1480.00,3184.49 1474.90,3190.36 1477.00,3177.00
             1470.90,3174.62 1473.00,3164.39 1473.00,3159.00
             1473.00,3159.00 1470.00,3159.00 1470.00,3159.00
             1470.00,3159.00 1470.00,3135.00 1470.00,3135.00
             1470.00,3135.00 1467.00,3135.00 1467.00,3135.00
             1467.00,3135.00 1467.00,3126.00 1467.00,3126.00
             1467.00,3126.00 1464.00,3126.00 1464.00,3126.00
             1462.89,3118.83 1456.20,3111.14 1458.00,3104.00
             1458.00,3104.00 1454.00,3103.00 1454.00,3103.00
             1454.00,3103.00 1454.00,3096.00 1454.00,3096.00
             1454.00,3096.00 1451.00,3096.00 1451.00,3096.00
             1451.00,3096.00 1451.00,3087.00 1451.00,3087.00
             1451.00,3087.00 1448.00,3087.00 1448.00,3087.00
             1448.00,3087.00 1444.00,3071.00 1444.00,3071.00
             1444.00,3071.00 1441.00,3071.00 1441.00,3071.00
             1441.00,3071.00 1441.00,3063.00 1441.00,3063.00
             1441.00,3063.00 1438.00,3063.00 1438.00,3063.00
             1438.00,3063.00 1435.00,3046.00 1435.00,3046.00
             1430.33,3044.31 1431.04,3041.45 1431.00,3037.00
             1431.00,3037.00 1428.00,3037.00 1428.00,3037.00
             1428.00,3037.00 1428.00,3029.00 1428.00,3029.00
             1428.00,3029.00 1425.00,3029.00 1425.00,3029.00
             1425.00,3029.00 1425.00,3020.00 1425.00,3020.00
             1425.00,3020.00 1422.00,3020.00 1422.00,3020.00
             1422.00,3020.00 1422.00,3011.00 1422.00,3011.00
             1422.00,3011.00 1419.00,3011.00 1419.00,3011.00
             1419.00,3011.00 1415.00,2992.00 1415.00,2992.00
             1415.00,2992.00 1412.00,2992.00 1412.00,2992.00
             1412.00,2992.00 1412.00,2984.00 1412.00,2984.00
             1412.00,2984.00 1409.00,2984.00 1409.00,2984.00
             1409.00,2984.00 1409.00,2973.00 1409.00,2973.00
             1409.00,2973.00 1406.00,2973.00 1406.00,2973.00
             1405.75,2961.81 1399.01,2957.52 1399.00,2944.00
             1399.00,2944.00 1396.00,2944.00 1396.00,2944.00
             1396.00,2944.00 1396.00,2933.00 1396.00,2933.00
             1396.00,2933.00 1393.00,2933.00 1393.00,2933.00
             1393.00,2933.00 1393.00,2922.00 1393.00,2922.00
             1393.00,2922.00 1390.00,2922.00 1390.00,2922.00
             1390.00,2922.00 1386.54,2908.83 1386.54,2908.83
             1386.54,2908.83 1385.46,2903.17 1385.46,2903.17
             1385.46,2903.17 1383.15,2897.91 1383.15,2897.91
             1383.15,2897.91 1383.15,2890.00 1383.15,2890.00
             1383.15,2890.00 1380.00,2890.00 1380.00,2890.00
             1380.00,2874.94 1378.68,2881.20 1377.27,2874.83
             1377.27,2874.83 1376.45,2868.09 1376.45,2868.09
             1374.96,2863.46 1371.38,2862.78 1374.00,2852.00
             1374.00,2852.00 1370.00,2851.00 1370.00,2851.00
             1370.00,2851.00 1370.00,2838.00 1370.00,2838.00
             1370.00,2838.00 1367.00,2838.00 1367.00,2838.00
             1367.00,2838.00 1367.00,2826.00 1367.00,2826.00
             1367.00,2826.00 1364.00,2826.00 1364.00,2826.00
             1364.00,2826.00 1364.00,2810.00 1364.00,2810.00
             1364.00,2810.00 1361.00,2810.00 1361.00,2810.00
             1361.00,2810.00 1359.51,2796.17 1359.51,2796.17
             1359.51,2796.17 1357.11,2789.96 1357.11,2789.96
             1357.11,2789.96 1357.11,2778.00 1357.11,2778.00
             1357.11,2778.00 1354.00,2778.00 1354.00,2778.00
             1354.00,2778.00 1354.00,2760.00 1354.00,2760.00
             1354.00,2760.00 1351.00,2760.00 1351.00,2760.00
             1351.00,2760.00 1351.00,2739.00 1351.00,2739.00
             1351.00,2739.00 1348.00,2739.00 1348.00,2739.00
             1348.00,2739.00 1348.00,2725.00 1348.00,2725.00
             1347.94,2715.80 1346.06,2718.66 1344.81,2711.96
             1343.44,2706.43 1343.48,2690.35 1344.81,2685.00
             1340.66,2682.22 1341.03,2680.93 1341.14,2676.00
             1341.14,2676.00 1341.14,2648.00 1341.14,2648.00
             1341.14,2648.00 1341.14,2636.00 1341.14,2636.00
             1341.14,2636.00 1338.00,2636.00 1338.00,2636.00
             1338.00,2636.00 1338.00,2585.00 1338.00,2585.00
             1338.00,2585.00 1341.00,2585.00 1341.00,2585.00
             1341.00,2585.00 1341.00,2544.00 1341.00,2544.00
             1341.00,2544.00 1344.00,2544.00 1344.00,2544.00
             1344.00,2544.00 1344.00,2526.00 1344.00,2526.00
             1344.13,2515.55 1346.58,2516.94 1347.85,2511.96
             1347.85,2511.96 1347.85,2497.00 1347.85,2497.00
             1347.85,2497.00 1351.00,2497.00 1351.00,2497.00
             1351.00,2497.00 1351.00,2481.00 1351.00,2481.00
             1351.00,2481.00 1354.00,2481.00 1354.00,2481.00
             1354.00,2481.00 1354.00,2467.00 1354.00,2467.00
             1354.00,2467.00 1357.00,2467.00 1357.00,2467.00
             1357.00,2467.00 1357.00,2457.00 1357.00,2457.00
             1361.32,2454.77 1360.38,2449.70 1361.00,2445.00
             1361.00,2445.00 1364.00,2445.00 1364.00,2445.00
             1364.00,2445.00 1364.00,2434.00 1364.00,2434.00
             1364.00,2434.00 1367.00,2434.00 1367.00,2434.00
             1367.00,2434.00 1367.00,2425.00 1367.00,2425.00
             1367.00,2425.00 1370.00,2425.00 1370.00,2425.00
             1370.00,2425.00 1370.00,2417.00 1370.00,2417.00
             1370.00,2417.00 1374.00,2417.00 1374.00,2417.00
             1372.13,2408.45 1379.32,2402.69 1380.00,2394.00
             1380.00,2394.00 1383.00,2394.00 1383.00,2394.00
             1383.00,2394.00 1383.00,2387.00 1383.00,2387.00
             1383.00,2387.00 1386.00,2387.00 1386.00,2387.00
             1386.00,2387.00 1386.00,2382.00 1386.00,2382.00
             1389.71,2379.91 1389.66,2379.14 1390.00,2375.00
             1390.00,2375.00 1393.00,2375.00 1393.00,2375.00
             1393.00,2375.00 1393.00,2368.00 1393.00,2368.00
             1393.00,2368.00 1396.00,2368.00 1396.00,2368.00
             1396.00,2368.00 1396.00,2363.00 1396.00,2363.00
             1396.00,2363.00 1399.00,2363.00 1399.00,2363.00
             1399.62,2359.46 1399.58,2359.20 1402.92,2358.00
             1402.92,2358.00 1402.92,2354.17 1402.92,2354.17
             1402.92,2354.17 1412.00,2339.00 1412.00,2339.00
             1412.00,2339.00 1416.00,2339.00 1416.00,2339.00
             1416.29,2334.69 1418.87,2327.56 1424.17,2327.45
             1427.55,2327.38 1433.97,2331.78 1437.00,2333.60
             1444.21,2337.93 1465.42,2349.76 1470.00,2355.00
             1431.24,2402.26 1410.21,2457.12 1400.56,2517.00
             1400.56,2517.00 1398.30,2528.00 1398.30,2528.00
             1398.30,2528.00 1396.84,2543.00 1396.84,2543.00
             1396.84,2543.00 1394.04,2567.00 1394.04,2567.00
             1394.04,2567.00 1394.04,2581.00 1394.04,2581.00
             1394.04,2581.00 1393.00,2595.00 1393.00,2595.00
             1393.00,2595.00 1393.00,2629.00 1393.00,2629.00
             1393.00,2629.00 1393.96,2639.00 1393.96,2639.00
             1393.96,2639.00 1393.96,2654.00 1393.96,2654.00
             1393.96,2654.00 1394.91,2664.00 1394.91,2664.00
             1394.91,2664.00 1398.07,2694.00 1398.07,2694.00
             1398.07,2694.00 1398.07,2703.00 1398.07,2703.00
             1398.07,2703.00 1399.84,2711.00 1399.84,2711.00
             1399.84,2711.00 1404.44,2745.00 1404.44,2745.00
             1409.69,2778.33 1417.39,2811.30 1425.53,2844.00
             1425.53,2844.00 1450.98,2933.00 1450.98,2933.00
             1450.98,2933.00 1468.00,2982.00 1468.00,2982.00
             1468.00,2982.00 1469.00,2962.00 1469.00,2962.00
             1469.00,2962.00 1472.00,2908.00 1472.00,2908.00
             1472.00,2908.00 1473.83,2889.00 1473.83,2889.00
             1473.83,2889.00 1475.00,2866.00 1475.00,2866.00
             1475.00,2866.00 1478.00,2834.00 1478.00,2834.00
             1478.00,2834.00 1480.96,2798.00 1480.96,2798.00
             1480.96,2798.00 1480.96,2788.00 1480.96,2788.00
             1480.96,2788.00 1485.00,2735.00 1485.00,2735.00
             1485.00,2735.00 1486.72,2719.00 1486.72,2719.00
             1486.72,2719.00 1488.00,2698.00 1488.00,2698.00
             1488.03,2679.85 1489.87,2664.15 1496.19,2647.00
             1506.48,2619.10 1517.61,2590.98 1535.63,2567.00
             1540.66,2560.29 1547.71,2550.97 1557.00,2551.08
             1558.97,2551.11 1561.12,2551.45 1562.69,2552.74
             1566.23,2555.66 1564.63,2560.39 1563.42,2564.00
             1563.42,2564.00 1555.36,2589.00 1555.36,2589.00
             1546.03,2622.33 1539.40,2665.42 1539.00,2700.00
             1539.00,2700.00 1537.00,2726.00 1537.00,2726.00
             1537.00,2726.00 1536.00,2741.00 1536.00,2741.00
             1536.00,2741.00 1533.08,2772.00 1533.08,2772.00
             1533.08,2772.00 1533.08,2784.00 1533.08,2784.00
             1533.08,2784.00 1531.17,2803.00 1531.17,2803.00
             1531.17,2803.00 1528.91,2836.00 1528.91,2836.00
             1528.91,2836.00 1527.00,2859.00 1527.00,2859.00
             1527.00,2859.00 1525.96,2869.00 1525.96,2869.00
             1525.96,2869.00 1525.96,2878.00 1525.96,2878.00
             1525.96,2878.00 1523.00,2915.00 1523.00,2915.00
             1523.00,2915.00 1521.00,2945.00 1521.00,2945.00
             1521.00,2945.00 1520.00,2960.00 1520.00,2960.00
             1520.00,2960.00 1518.00,3008.00 1518.00,3008.00
             1518.00,3008.00 1517.00,3025.00 1517.00,3025.00
             1517.00,3025.00 1517.00,3066.00 1517.00,3066.00
             1517.00,3066.00 1518.00,3078.00 1518.00,3078.00
             1518.00,3078.00 1518.00,3087.00 1518.00,3087.00
             1518.00,3087.00 1520.04,3105.00 1520.04,3105.00
             1520.04,3105.00 1520.04,3115.00 1520.04,3115.00
             1522.80,3142.65 1528.57,3178.53 1539.43,3204.00
             1547.17,3222.17 1557.19,3238.22 1573.00,3250.49
             1584.10,3259.10 1597.74,3264.49 1611.00,3268.74
             1627.21,3273.94 1659.35,3280.97 1676.00,3281.00
             1676.00,3281.00 1686.00,3281.00 1686.00,3281.00
             1686.00,3281.00 1699.00,3281.91 1699.00,3281.91
             1699.00,3281.91 1709.00,3281.00 1709.00,3281.00
             1709.00,3281.00 1721.00,3281.00 1721.00,3281.00
             1733.66,3280.98 1753.29,3277.49 1766.00,3275.09
             1814.55,3265.96 1854.88,3250.25 1898.00,3226.27
             1916.63,3215.91 1934.21,3203.51 1951.00,3190.42
             1957.41,3185.43 1969.52,3176.19 1974.00,3170.00
             1966.37,3167.39 1959.87,3162.33 1953.00,3158.20
             1936.76,3148.43 1916.39,3133.58 1902.00,3121.27
             1875.26,3098.39 1854.92,3080.92 1840.31,3048.00
             1832.52,3030.46 1826.03,2999.17 1826.00,2980.00
             1826.00,2980.00 1826.00,2952.00 1826.00,2952.00
             1826.00,2952.00 1828.72,2923.00 1828.72,2923.00
             1828.72,2923.00 1830.30,2907.00 1830.30,2907.00
             1830.30,2907.00 1841.50,2851.00 1841.50,2851.00
             1856.07,2787.51 1876.80,2725.53 1898.08,2664.00
             1898.08,2664.00 1923.53,2594.00 1923.53,2594.00
             1923.53,2594.00 1930.57,2575.00 1930.57,2575.00
             1931.70,2572.22 1935.53,2562.45 1935.70,2560.00
             1935.93,2556.58 1933.87,2552.23 1932.68,2549.00
             1932.68,2549.00 1924.81,2528.00 1924.81,2528.00
             1924.81,2528.00 1906.09,2479.00 1906.09,2479.00
             1906.09,2479.00 1895.00,2451.00 1895.00,2451.00
             1895.00,2451.00 1947.00,2444.00 1947.00,2444.00
             1947.00,2444.00 1965.00,2487.00 1965.00,2487.00
             1965.00,2487.00 1978.85,2453.00 1978.85,2453.00
             1978.85,2453.00 1985.49,2440.02 1985.49,2440.02
             1985.49,2440.02 2002.00,2437.28 2002.00,2437.28
             2002.00,2437.28 2044.00,2432.00 2044.00,2432.00
             2044.00,2432.00 2029.86,2465.00 2029.86,2465.00
             2029.86,2465.00 2004.45,2526.00 2004.45,2526.00
             2004.45,2526.00 1977.47,2597.00 1977.47,2597.00
             1954.20,2659.45 1931.59,2722.16 1912.43,2786.00
             1901.02,2824.02 1890.85,2861.96 1883.54,2901.00
             1883.54,2901.00 1880.41,2921.00 1880.41,2921.00
             1880.41,2921.00 1878.04,2934.00 1878.04,2934.00
             1878.04,2934.00 1878.04,2944.00 1878.04,2944.00
             1878.04,2944.00 1877.00,2954.00 1877.00,2954.00
             1876.73,2977.65 1876.45,2999.49 1885.17,3022.00
             1892.74,3041.55 1900.70,3048.72 1915.00,3063.00
             1934.38,3082.35 1956.12,3098.57 1979.00,3113.50
             2008.79,3132.95 2042.84,3149.25 2076.00,3162.06
             2076.00,3162.06 2114.00,3176.25 2114.00,3176.25
             2114.00,3176.25 2163.00,3184.28 2163.00,3184.28
             2163.00,3184.28 2178.00,3186.83 2178.00,3186.83
             2178.00,3186.83 2196.00,3188.17 2196.00,3188.17
             2196.00,3188.17 2230.00,3191.00 2230.00,3191.00
             2230.00,3191.00 2261.00,3191.00 2261.00,3191.00
             2261.00,3191.00 2286.00,3188.42 2286.00,3188.42
             2286.00,3188.42 2300.00,3186.68 2300.00,3186.68
             2319.04,3183.35 2339.81,3175.85 2356.00,3165.31
             2397.58,3138.23 2412.07,3086.37 2418.70,3040.00
             2418.70,3040.00 2420.17,3023.00 2420.17,3023.00
             2420.17,3023.00 2422.00,3008.00 2422.00,3008.00
             2422.00,3008.00 2422.00,3000.00 2422.00,3000.00
             2422.00,3000.00 2423.00,2988.00 2423.00,2988.00
             2423.00,2988.00 2424.00,2958.00 2424.00,2958.00
             2424.00,2958.00 2425.00,2944.00 2425.00,2944.00
             2425.00,2944.00 2425.00,2927.00 2425.00,2927.00
             2425.00,2927.00 2426.00,2911.00 2426.00,2911.00
             2426.00,2911.00 2426.00,2766.00 2426.00,2766.00
             2426.00,2766.00 2425.00,2751.00 2425.00,2751.00
             2425.00,2751.00 2425.00,2742.00 2425.00,2742.00
             2425.00,2742.00 2423.00,2713.00 2423.00,2713.00
             2423.00,2713.00 2420.17,2679.00 2420.17,2679.00
             2420.17,2679.00 2418.83,2658.00 2418.83,2658.00
             2418.83,2658.00 2416.28,2641.00 2416.28,2641.00
             2416.28,2641.00 2414.85,2626.00 2414.85,2626.00
             2414.85,2626.00 2412.94,2616.00 2412.94,2616.00
             2412.94,2616.00 2412.94,2608.00 2412.94,2608.00
             2412.94,2608.00 2405.75,2566.00 2405.75,2566.00
             2405.75,2566.00 2394.42,2511.00 2394.42,2511.00
             2394.42,2511.00 2388.15,2483.00 2388.15,2483.00
             2388.15,2483.00 2384.43,2463.00 2384.43,2463.00
             2384.08,2460.28 2383.82,2456.79 2386.43,2455.02
             2390.16,2452.49 2395.20,2455.72 2397.99,2458.19
             2403.70,2463.24 2411.34,2474.40 2415.66,2481.00
             2430.60,2503.89 2441.70,2529.11 2450.33,2555.00
             2450.33,2555.00 2460.86,2593.00 2460.86,2593.00
             2460.86,2593.00 2466.71,2630.00 2466.71,2630.00
             2466.71,2630.00 2468.29,2649.00 2468.29,2649.00
             2468.29,2649.00 2471.00,2667.00 2471.00,2667.00
             2471.00,2667.00 2471.00,2678.00 2471.00,2678.00
             2471.00,2678.00 2474.00,2710.00 2474.00,2710.00
             2474.00,2710.00 2474.00,2721.00 2474.00,2721.00
             2474.00,2721.00 2476.00,2750.00 2476.00,2750.00
             2476.00,2750.00 2477.00,2769.00 2477.00,2769.00
             2477.00,2769.00 2477.00,2914.00 2477.00,2914.00
             2477.00,2914.00 2476.00,2929.00 2476.00,2929.00
             2476.00,2929.00 2476.00,2934.00 2476.00,2934.00
             2476.00,2934.00 2475.00,2949.00 2475.00,2949.00
             2475.00,2949.00 2474.00,2969.00 2474.00,2969.00
             2474.00,2969.00 2474.00,2988.00 2474.00,2988.00
             2474.00,2988.00 2471.00,3023.00 2471.00,3023.00
             2471.00,3023.00 2471.00,3031.00 2471.00,3031.00
             2471.00,3031.00 2468.44,3046.00 2468.44,3046.00
             2468.44,3046.00 2464.00,3072.00 2464.00,3072.00
             2500.76,3044.51 2522.03,3001.75 2535.74,2959.00
             2544.85,2930.62 2551.30,2901.54 2555.28,2872.00
             2555.28,2872.00 2558.00,2857.00 2558.00,2857.00
             2558.00,2857.00 2558.00,2848.00 2558.00,2848.00
             2558.00,2848.00 2561.00,2820.00 2561.00,2820.00
             2561.00,2820.00 2561.91,2807.00 2561.91,2807.00
             2561.91,2807.00 2563.09,2784.00 2563.09,2784.00
             2563.09,2784.00 2564.00,2772.00 2564.00,2772.00
             2564.00,2772.00 2564.00,2730.00 2564.00,2730.00
             2564.00,2730.00 2563.00,2720.00 2563.00,2720.00
             2563.00,2720.00 2563.00,2711.00 2563.00,2711.00
             2563.00,2711.00 2561.00,2678.00 2561.00,2678.00
             2561.00,2678.00 2558.00,2648.00 2558.00,2648.00
             2558.00,2648.00 2558.00,2638.00 2558.00,2638.00
             2558.00,2638.00 2555.28,2620.00 2555.28,2620.00
             2555.28,2620.00 2553.70,2604.00 2553.70,2604.00
             2553.70,2604.00 2537.72,2512.00 2537.72,2512.00
             2537.72,2512.00 2529.50,2478.00 2529.50,2478.00
             2516.27,2422.04 2491.94,2348.38 2464.69,2298.00
             2451.15,2272.96 2440.30,2255.51 2422.58,2233.00
             2422.58,2233.00 2400.00,2208.00 2400.00,2208.00 Z
           M 736.00,2418.00
           C 736.00,2418.00 849.00,2418.00 849.00,2418.00
             849.00,2418.00 849.00,2585.00 849.00,2585.00
             849.00,2585.00 1018.00,2585.00 1018.00,2585.00
             1018.00,2585.00 1018.00,2699.00 1018.00,2699.00
             1018.00,2699.00 849.00,2699.00 849.00,2699.00
             849.00,2699.00 849.00,2866.00 849.00,2866.00
             849.00,2866.00 736.00,2866.00 736.00,2866.00
             736.00,2866.00 736.00,2699.00 736.00,2699.00
             736.00,2699.00 567.00,2699.00 567.00,2699.00
             567.00,2699.00 567.00,2585.00 567.00,2585.00
             567.00,2585.00 736.00,2585.00 736.00,2585.00
             736.00,2585.00 736.00,2418.00 736.00,2418.00 Z
           M 2950.00,2758.00
           C 2950.00,2758.00 3063.00,2758.00 3063.00,2758.00
             3063.00,2758.00 3063.00,2925.00 3063.00,2925.00
             3063.00,2925.00 3232.00,2925.00 3232.00,2925.00
             3232.00,2925.00 3232.00,3039.00 3232.00,3039.00
             3232.00,3039.00 3063.00,3039.00 3063.00,3039.00
             3063.00,3039.00 3063.00,3206.00 3063.00,3206.00
             3063.00,3206.00 2950.00,3206.00 2950.00,3206.00
             2950.00,3206.00 2950.00,3039.00 2950.00,3039.00
             2950.00,3039.00 2781.00,3039.00 2781.00,3039.00
             2781.00,3039.00 2781.00,2925.00 2781.00,2925.00
             2781.00,2925.00 2950.00,2925.00 2950.00,2925.00
             2950.00,2925.00 2950.00,2758.00 2950.00,2758.00 Z" />
</svg>
