<?xml version="1.0" encoding="UTF-8" standalone="no"?>
<!DOCTYPE svg PUBLIC "-//W3C//DTD SVG 20010904//EN"
              "http://www.w3.org/TR/2001/REC-SVG-20010904/DTD/svg10.dtd">

<svg xmlns="http://www.w3.org/2000/svg"
     width="12in" height="12in"
     viewBox="0 0 3600 3600">
  <path id="9 - eye dark"
        fill="none" stroke="black" stroke-width="1"
        d="M 2054.00,966.07
           C 2056.46,962.34 2058.41,963.00 2062.15,961.49
             2062.15,961.49 2077.80,955.55 2077.80,955.55
             2090.31,951.64 2102.91,948.01 2116.00,946.43
             2116.00,946.43 2128.00,945.50 2128.00,945.50
             2128.00,945.50 2151.00,943.09 2151.00,943.09
             2151.00,943.09 2171.00,945.50 2171.00,945.50
             2171.00,945.50 2191.83,947.64 2191.83,947.64
             2226.40,954.20 2259.55,966.74 2290.00,984.41
             2313.90,998.28 2335.60,1015.90 2356.09,1034.32
             2356.09,1034.32 2374.66,1053.87 2374.66,1053.87
             2400.38,1082.14 2419.46,1109.24 2437.30,1143.00
             2461.60,1189.01 2479.38,1240.36 2486.16,1292.00
             2486.16,1292.00 2487.96,1301.00 2487.96,1301.00
             2487.96,1301.00 2487.96,1309.00 2487.96,1309.00
             2487.96,1309.00 2490.00,1332.00 2490.00,1332.00
             2490.00,1332.00 2490.00,1366.00 2490.00,1366.00
             2490.00,1366.00 2487.61,1397.00 2487.61,1397.00
             2487.61,1397.00 2484.39,1406.00 2484.39,1406.00
             2484.39,1406.00 2483.79,1412.00 2483.79,1412.00
             2483.79,1412.00 2482.19,1419.00 2482.19,1419.00
             2482.19,1419.00 2480.64,1430.00 2480.64,1430.00
             2480.64,1430.00 2475.42,1448.00 2475.42,1448.00
             2475.42,1448.00 2469.76,1467.00 2469.76,1467.00
             2469.76,1467.00 2468.05,1476.00 2468.05,1476.00
             2464.71,1486.27 2454.05,1508.42 2448.57,1518.00
             2415.12,1576.47 2363.96,1617.94 2298.00,1633.23
             2286.58,1635.88 2267.56,1638.98 2256.00,1639.00
             2256.00,1639.00 2235.00,1639.00 2235.00,1639.00
             2229.00,1638.97 2224.82,1638.05 2219.00,1637.28
             2192.97,1633.85 2167.14,1627.59 2143.01,1616.98
             2138.20,1614.87 2134.66,1610.46 2131.18,1606.58
             2128.99,1604.12 2129.44,1602.82 2126.00,1602.00
             2125.54,1597.48 2119.72,1591.23 2116.85,1587.57
             2116.85,1587.57 2108.95,1575.00 2108.95,1575.00
             2098.49,1559.58 2089.46,1543.46 2080.83,1527.00
             2080.83,1527.00 2076.32,1519.00 2076.32,1519.00
             2076.32,1519.00 2066.59,1499.00 2066.59,1499.00
             2064.80,1494.69 2064.06,1491.73 2069.00,1490.00
             2075.82,1498.27 2088.51,1508.32 2097.09,1515.24
             2123.07,1536.20 2156.35,1554.76 2189.00,1562.48
             2189.00,1562.48 2197.17,1563.64 2197.17,1563.64
             2197.17,1563.64 2206.00,1565.82 2206.00,1565.82
             2217.45,1567.22 2228.51,1567.11 2240.00,1566.56
             2247.60,1566.20 2257.66,1564.48 2265.00,1562.37
             2270.05,1560.93 2273.50,1558.87 2279.00,1559.00
             2281.91,1555.32 2288.40,1552.94 2293.00,1553.00
             2294.91,1549.96 2307.87,1542.06 2312.04,1539.02
             2320.97,1532.52 2331.66,1521.69 2338.49,1513.00
             2351.70,1496.20 2363.39,1473.79 2369.91,1453.42
             2369.91,1453.42 2374.58,1434.80 2374.58,1434.80
             2374.58,1434.80 2377.45,1428.91 2377.45,1428.91
             2377.45,1428.91 2380.83,1410.00 2380.83,1410.00
             2380.83,1410.00 2382.20,1388.00 2382.20,1388.00
             2382.20,1388.00 2381.12,1381.00 2381.12,1381.00
             2381.12,1381.00 2381.66,1373.00 2381.66,1373.00
             2381.66,1373.00 2381.04,1363.00 2381.04,1363.00
             2381.04,1363.00 2381.68,1354.00 2381.68,1354.00
             2378.48,1311.30 2371.90,1284.14 2357.61,1244.00
             2357.61,1244.00 2346.91,1218.00 2346.91,1218.00
             2344.40,1212.79 2339.74,1204.61 2338.72,1199.18
             2337.33,1191.74 2339.47,1188.92 2340.78,1182.00
             2341.19,1178.02 2341.05,1171.22 2340.78,1167.00
             2340.92,1160.59 2339.67,1155.17 2338.23,1149.00
             2333.96,1130.55 2329.63,1119.53 2320.15,1103.00
             2295.47,1059.98 2250.39,1021.66 2203.09,1006.21
             2188.66,1001.49 2180.14,999.92 2165.00,998.78
             2161.45,998.52 2159.94,997.88 2156.00,998.09
             2140.85,998.89 2125.40,1002.39 2112.91,1011.39
             2112.91,1011.39 2104.51,1018.01 2104.51,1018.01
             2100.56,1021.69 2099.10,1025.42 2093.99,1028.17
             2088.36,1031.19 2082.96,1030.88 2077.00,1032.56
             2067.05,1035.37 2057.26,1038.79 2048.00,1043.42
             2037.54,1048.65 2031.16,1053.34 2022.00,1060.42
             2020.06,1061.93 2015.22,1066.39 2012.60,1064.85
             2010.46,1063.58 2011.40,1059.88 2011.86,1058.00
             2011.86,1058.00 2016.42,1041.00 2016.42,1041.00
             2020.14,1025.71 2032.64,996.25 2040.10,982.00
             2041.72,978.92 2047.78,967.45 2050.38,966.07
             2051.91,965.36 2052.57,965.82 2054.00,966.07 Z
           M 2483.00,1279.00
           C 2483.00,1279.00 2482.00,1279.00 2482.00,1279.00
             2482.00,1279.00 2483.00,1280.00 2483.00,1280.00
             2483.00,1280.00 2483.00,1279.00 2483.00,1279.00 Z
           M 2386.00,1384.00
           C 2386.00,1384.00 2385.00,1384.00 2385.00,1384.00
             2385.00,1384.00 2386.00,1385.00 2386.00,1385.00
             2386.00,1385.00 2386.00,1384.00 2386.00,1384.00 Z
           M 2385.00,1386.00
           C 2385.00,1386.00 2384.00,1386.00 2384.00,1386.00
             2384.00,1386.00 2385.00,1387.00 2385.00,1387.00
             2385.00,1387.00 2385.00,1386.00 2385.00,1386.00 Z
           M 2487.00,1392.00
           C 2487.00,1392.00 2486.00,1392.00 2486.00,1392.00
             2486.00,1392.00 2487.00,1393.00 2487.00,1393.00
             2487.00,1393.00 2487.00,1392.00 2487.00,1392.00 Z
           M 1220.00,1700.00
           C 1223.86,1702.76 1230.87,1717.64 1233.65,1722.80
             1239.25,1733.20 1251.53,1751.52 1258.70,1761.01
             1258.70,1761.01 1267.45,1771.17 1267.45,1771.17
             1279.71,1786.39 1290.74,1799.04 1306.00,1811.54
             1313.55,1817.72 1313.75,1816.60 1320.00,1820.70
             1320.00,1820.70 1335.00,1831.10 1335.00,1831.10
             1344.15,1837.09 1354.12,1841.80 1364.00,1846.39
             1377.87,1852.83 1391.04,1857.06 1406.01,1860.04
             1413.00,1861.43 1415.20,1862.91 1423.00,1863.00
             1423.00,1863.00 1440.00,1863.66 1440.00,1863.66
             1440.00,1863.66 1449.00,1863.00 1449.00,1863.00
             1463.00,1862.84 1472.45,1860.71 1485.71,1856.75
             1529.06,1843.78 1562.29,1812.80 1584.48,1774.00
             1593.19,1758.77 1602.86,1735.06 1606.90,1718.00
             1607.56,1715.17 1610.05,1700.85 1614.62,1703.17
             1616.25,1703.99 1617.43,1707.36 1618.13,1709.00
             1618.13,1709.00 1624.08,1729.00 1624.08,1729.00
             1624.08,1729.00 1630.21,1754.04 1630.21,1754.04
             1631.33,1759.14 1633.29,1760.14 1632.86,1768.00
             1632.42,1775.83 1631.24,1774.81 1628.58,1780.83
             1628.58,1780.83 1625.02,1790.00 1625.02,1790.00
             1618.81,1804.18 1614.48,1815.63 1606.58,1829.28
             1606.58,1829.28 1585.57,1863.00 1585.57,1863.00
             1550.10,1912.64 1498.16,1952.72 1438.00,1966.50
             1414.21,1971.95 1397.11,1972.28 1373.00,1972.00
             1336.56,1971.57 1286.25,1953.35 1256.01,1933.41
             1256.01,1933.41 1246.96,1926.01 1246.96,1926.01
             1246.96,1926.01 1236.00,1917.73 1236.00,1917.73
             1223.74,1908.63 1212.05,1898.47 1201.09,1887.83
             1201.09,1887.83 1194.91,1881.17 1194.91,1881.17
             1194.91,1881.17 1184.28,1871.96 1184.28,1871.96
             1174.13,1860.94 1162.31,1844.61 1154.00,1832.00
             1132.75,1799.78 1115.45,1763.90 1104.02,1727.00
             1104.02,1727.00 1099.26,1709.00 1099.26,1709.00
             1099.26,1709.00 1090.61,1673.00 1090.61,1673.00
             1090.61,1673.00 1089.68,1665.00 1089.68,1665.00
             1089.68,1665.00 1087.30,1655.00 1087.30,1655.00
             1087.30,1655.00 1086.72,1647.00 1086.72,1647.00
             1085.52,1637.04 1084.02,1631.47 1084.00,1621.00
             1084.00,1621.00 1083.00,1605.00 1083.00,1605.00
             1083.00,1605.00 1082.00,1586.00 1082.00,1586.00
             1082.00,1586.00 1083.00,1562.00 1083.00,1562.00
             1083.00,1562.00 1084.00,1549.00 1084.00,1549.00
             1084.00,1549.00 1084.00,1540.00 1084.00,1540.00
             1084.00,1540.00 1085.72,1528.00 1085.72,1528.00
             1086.56,1521.58 1087.35,1505.06 1090.85,1500.34
             1092.85,1497.64 1100.68,1494.34 1104.00,1492.78
             1104.00,1492.78 1142.00,1478.00 1142.00,1478.00
             1142.99,1484.45 1136.21,1505.20 1135.17,1514.00
             1135.17,1514.00 1132.00,1549.00 1132.00,1549.00
             1132.19,1565.06 1136.77,1591.39 1143.31,1606.00
             1149.18,1619.11 1157.31,1631.45 1169.00,1640.08
             1176.32,1645.48 1181.43,1647.85 1190.00,1650.49
             1192.62,1651.30 1198.87,1652.23 1200.53,1653.31
             1203.14,1655.01 1205.83,1661.08 1206.91,1664.00
             1206.91,1664.00 1215.13,1685.00 1215.13,1685.00
             1217.42,1689.99 1220.67,1694.42 1220.00,1700.00 Z
           M 2320.00,1537.00
           C 2320.00,1537.00 2319.00,1537.00 2319.00,1537.00
             2319.00,1537.00 2320.00,1538.00 2320.00,1538.00
             2320.00,1538.00 2320.00,1537.00 2320.00,1537.00 Z
           M 2303.00,1549.00
           C 2303.00,1549.00 2302.00,1549.00 2302.00,1549.00
             2302.00,1549.00 2303.00,1550.00 2303.00,1550.00
             2303.00,1550.00 2303.00,1549.00 2303.00,1549.00 Z
           M 2135.00,1606.00
           C 2135.00,1606.00 2134.00,1606.00 2134.00,1606.00
             2134.00,1606.00 2135.00,1607.00 2135.00,1607.00
             2135.00,1607.00 2135.00,1606.00 2135.00,1606.00 Z
           M 2140.00,1613.00
           C 2140.00,1613.00 2139.00,1613.00 2139.00,1613.00
             2139.00,1613.00 2140.00,1614.00 2140.00,1614.00
             2140.00,1614.00 2140.00,1613.00 2140.00,1613.00 Z
           M 1221.00,1701.00
           C 1221.00,1701.00 1220.00,1701.00 1220.00,1701.00
             1220.00,1701.00 1221.00,1702.00 1221.00,1702.00
             1221.00,1702.00 1221.00,1701.00 1221.00,1701.00 Z
           M 736.00,2418.00
           C 736.00,2418.00 849.00,2418.00 849.00,2418.00
             849.00,2418.00 849.00,2585.00 849.00,2585.00
             849.00,2585.00 1018.00,2585.00 1018.00,2585.00
             1018.00,2585.00 1018.00,2699.00 1018.00,2699.00
             1018.00,2699.00 849.00,2699.00 849.00,2699.00
             849.00,2699.00 849.00,2866.00 849.00,2866.00
             849.00,2866.00 736.00,2866.00 736.00,2866.00
             736.00,2866.00 736.00,2699.00 736.00,2699.00
             736.00,2699.00 567.00,2699.00 567.00,2699.00
             567.00,2699.00 567.00,2585.00 567.00,2585.00
             567.00,2585.00 736.00,2585.00 736.00,2585.00
             736.00,2585.00 736.00,2418.00 736.00,2418.00 Z
           M 2950.00,2758.00
           C 2950.00,2758.00 3063.00,2758.00 3063.00,2758.00
             3063.00,2758.00 3063.00,2925.00 3063.00,2925.00
             3063.00,2925.00 3232.00,2925.00 3232.00,2925.00
             3232.00,2925.00 3232.00,3039.00 3232.00,3039.00
             3232.00,3039.00 3063.00,3039.00 3063.00,3039.00
             3063.00,3039.00 3063.00,3206.00 3063.00,3206.00
             3063.00,3206.00 2950.00,3206.00 2950.00,3206.00
             2950.00,3206.00 2950.00,3039.00 2950.00,3039.00
             2950.00,3039.00 2781.00,3039.00 2781.00,3039.00
             2781.00,3039.00 2781.00,2925.00 2781.00,2925.00
             2781.00,2925.00 2950.00,2925.00 2950.00,2925.00
             2950.00,2925.00 2950.00,2758.00 2950.00,2758.00 Z" />
</svg>
