<?xml version="1.0" encoding="UTF-8" standalone="no"?>
<!DOCTYPE svg PUBLIC "-//W3C//DTD SVG 20010904//EN"
              "http://www.w3.org/TR/2001/REC-SVG-20010904/DTD/svg10.dtd">

<svg xmlns="http://www.w3.org/2000/svg"
     width="12in" height="12in"
     viewBox="0 0 3600 3600">
  <path id="Lyra Mask (For back spray)"
        fill="none" stroke="black" stroke-width="1"
        d="M 582.00,1350.00
           C 582.00,1350.00 557.00,1376.37 557.00,1376.37
             545.50,1384.64 538.30,1384.17 525.00,1384.00
             508.43,1383.78 497.03,1369.91 497.00,1354.00
             497.00,1354.00 497.00,1298.00 497.00,1298.00
             497.00,1298.00 498.00,1282.00 498.00,1282.00
             498.00,1282.00 498.00,1256.00 498.00,1256.00
             498.14,1245.71 500.98,1249.78 501.11,1237.00
             501.11,1237.00 501.11,1226.00 501.11,1226.00
             502.51,1217.35 503.80,1224.58 504.00,1208.00
             504.12,1198.50 506.34,1199.01 507.81,1193.00
             508.21,1190.19 507.96,1184.17 507.81,1181.00
             508.11,1173.06 509.48,1174.36 510.61,1169.00
             510.61,1169.00 511.21,1159.00 511.21,1159.00
             511.21,1159.00 513.61,1151.00 513.61,1151.00
             513.61,1151.00 514.21,1144.00 514.21,1144.00
             514.21,1144.00 516.61,1136.00 516.61,1136.00
             516.61,1136.00 517.39,1128.00 517.39,1128.00
             517.39,1128.00 519.65,1121.00 519.65,1121.00
             519.65,1121.00 521.62,1111.00 521.62,1111.00
             521.62,1111.00 523.61,1105.00 523.61,1105.00
             523.61,1105.00 524.39,1097.00 524.39,1097.00
             524.39,1097.00 526.61,1090.00 526.61,1090.00
             526.61,1090.00 527.39,1084.00 527.39,1084.00
             527.39,1084.00 529.37,1078.00 529.37,1078.00
             529.37,1078.00 533.78,1061.00 533.78,1061.00
             536.42,1052.14 537.98,1055.62 538.00,1044.00
             538.00,1044.00 538.00,989.00 538.00,989.00
             538.02,976.22 540.86,980.29 541.10,970.00
             541.10,970.00 541.10,955.00 541.10,955.00
             542.23,948.24 543.98,951.39 544.00,940.00
             544.02,927.75 544.54,932.81 546.61,923.00
             546.61,923.00 547.47,914.00 547.47,914.00
             547.47,914.00 553.37,892.00 553.37,892.00
             553.37,892.00 554.39,884.00 554.39,884.00
             554.39,884.00 556.37,878.00 556.37,878.00
             556.37,878.00 560.62,862.00 560.62,862.00
             560.62,862.00 566.47,847.00 566.47,847.00
             575.87,821.79 587.49,797.76 603.42,776.00
             603.42,776.00 613.29,763.01 613.29,763.01
             613.29,763.01 619.41,756.72 619.41,756.72
             621.59,754.23 622.28,752.72 625.04,750.21
             625.04,750.21 632.00,744.79 632.00,744.79
             632.00,744.79 642.00,735.47 642.00,735.47
             646.91,731.47 663.09,722.05 669.00,719.96
             669.00,719.96 684.00,716.10 684.00,716.10
             687.37,715.78 692.99,716.59 695.82,714.98
             698.30,713.56 703.04,705.80 705.13,703.00
             705.13,703.00 727.67,673.00 727.67,673.00
             750.60,643.01 775.35,614.62 801.09,587.00
             801.09,587.00 815.96,572.00 815.96,572.00
             815.96,572.00 825.01,562.01 825.01,562.01
             825.01,562.01 838.72,549.72 838.72,549.72
             838.72,549.72 861.17,527.21 861.17,527.21
             861.17,527.21 868.00,521.79 868.00,521.79
             868.00,521.79 876.00,514.17 876.00,514.17
             876.00,514.17 884.00,507.70 884.00,507.70
             884.00,507.70 913.00,482.17 913.00,482.17
             913.00,482.17 922.72,475.40 922.72,475.40
             922.72,475.40 943.00,458.36 943.00,458.36
             943.00,458.36 956.00,449.11 956.00,449.11
             956.00,449.11 1001.00,416.20 1001.00,416.20
             1001.00,416.20 1038.00,392.14 1038.00,392.14
             1038.00,392.14 1054.00,381.61 1054.00,381.61
             1054.00,381.61 1064.00,376.08 1064.00,376.08
             1064.00,376.08 1101.00,353.86 1101.00,353.86
             1101.00,353.86 1115.00,346.69 1115.00,346.69
             1115.00,346.69 1190.00,307.78 1190.00,307.78
             1190.00,307.78 1204.00,301.69 1204.00,301.69
             1204.00,301.69 1225.00,291.35 1225.00,291.35
             1225.00,291.35 1233.00,288.65 1233.00,288.65
             1233.00,288.65 1249.00,280.92 1249.00,280.92
             1249.00,280.92 1264.00,274.94 1264.00,274.94
             1264.00,274.94 1271.00,272.65 1271.00,272.65
             1271.00,272.65 1287.00,265.32 1287.00,265.32
             1287.00,265.32 1320.00,253.47 1320.00,253.47
             1320.00,253.47 1330.00,248.96 1330.00,248.96
             1330.00,248.96 1347.00,244.37 1347.00,244.37
             1347.00,244.37 1361.00,238.59 1361.00,238.59
             1361.00,238.59 1396.00,228.22 1396.00,228.22
             1396.00,228.22 1422.00,219.63 1422.00,219.63
             1422.00,219.63 1429.00,218.37 1429.00,218.37
             1429.00,218.37 1459.00,209.63 1459.00,209.63
             1459.00,209.63 1467.00,208.37 1467.00,208.37
             1467.00,208.37 1483.00,203.39 1483.00,203.39
             1483.00,203.39 1491.00,202.61 1491.00,202.61
             1491.00,202.61 1498.00,200.37 1498.00,200.37
             1498.00,200.37 1508.00,198.65 1508.00,198.65
             1508.00,198.65 1515.00,196.38 1515.00,196.38
             1515.00,196.38 1521.00,195.37 1521.00,195.37
             1521.00,195.37 1527.00,193.39 1527.00,193.39
             1527.00,193.39 1535.00,192.61 1535.00,192.61
             1535.00,192.61 1543.00,190.21 1543.00,190.21
             1543.00,190.21 1552.00,189.61 1552.00,189.61
             1552.00,189.61 1560.00,187.21 1560.00,187.21
             1560.00,187.21 1568.00,186.61 1568.00,186.61
             1568.00,186.61 1578.00,183.62 1578.00,183.62
             1578.00,183.62 1589.00,182.61 1589.00,182.61
             1589.00,182.61 1597.00,180.21 1597.00,180.21
             1597.00,180.21 1606.00,179.61 1606.00,179.61
             1606.00,179.61 1614.00,177.00 1614.00,177.00
             1614.00,177.00 1624.00,177.00 1624.00,177.00
             1629.63,175.94 1628.70,174.11 1637.00,174.00
             1637.00,174.00 1647.00,174.00 1647.00,174.00
             1658.43,173.98 1655.03,172.34 1662.00,171.21
             1662.00,171.21 1677.00,169.79 1677.00,169.79
             1677.00,169.79 1683.00,168.37 1683.00,168.37
             1687.70,167.44 1693.21,167.01 1698.00,167.00
             1717.91,166.97 1711.09,164.06 1723.00,164.00
             1723.00,164.00 1751.00,164.00 1751.00,164.00
             1761.29,163.86 1757.22,161.02 1770.00,161.00
             1770.00,161.00 1804.00,161.00 1804.00,161.00
             1817.65,160.98 1811.35,158.02 1825.00,158.00
             1825.00,158.00 1924.00,158.00 1924.00,158.00
             1937.20,158.02 1932.11,160.94 1944.00,161.00
             1944.00,161.00 1978.00,161.00 1978.00,161.00
             1990.78,161.02 1986.71,163.86 1997.00,164.00
             1997.00,164.00 2011.00,164.00 2011.00,164.00
             2013.35,164.00 2016.62,164.22 2018.67,162.98
             2020.78,161.70 2022.77,158.06 2024.29,156.00
             2024.29,156.00 2034.28,144.00 2034.28,144.00
             2045.64,131.10 2060.07,119.21 2078.00,119.00
             2078.00,119.00 2159.00,119.00 2159.00,119.00
             2159.00,119.00 2181.00,120.39 2181.00,120.39
             2181.00,120.39 2187.00,122.38 2187.00,122.38
             2187.00,122.38 2206.00,129.04 2206.00,129.04
             2206.00,129.04 2214.00,131.35 2214.00,131.35
             2214.00,131.35 2238.00,142.75 2238.00,142.75
             2238.00,142.75 2261.00,154.31 2261.00,154.31
             2261.00,154.31 2272.00,161.08 2272.00,161.08
             2272.00,161.08 2283.00,167.23 2283.00,167.23
             2283.00,167.23 2322.00,194.59 2322.00,194.59
             2322.00,194.59 2358.00,224.28 2358.00,224.28
             2358.00,224.28 2368.00,233.61 2368.00,233.61
             2368.00,233.61 2384.00,242.93 2384.00,242.93
             2384.00,242.93 2393.00,249.07 2393.00,249.07
             2393.00,249.07 2404.00,255.23 2404.00,255.23
             2404.00,255.23 2420.00,266.26 2420.00,266.26
             2420.00,266.26 2449.00,285.61 2449.00,285.61
             2449.00,285.61 2456.00,291.47 2456.00,291.47
             2456.00,291.47 2471.00,302.13 2471.00,302.13
             2471.00,302.13 2520.00,341.29 2520.00,341.29
             2520.00,341.29 2536.00,355.79 2536.00,355.79
             2536.00,355.79 2543.00,361.21 2543.00,361.21
             2543.00,361.21 2552.00,369.83 2552.00,369.83
             2552.00,369.83 2566.00,382.09 2566.00,382.09
             2566.00,382.09 2574.17,390.72 2574.17,390.72
             2574.17,390.72 2602.28,418.83 2602.28,418.83
             2602.28,418.83 2608.79,425.04 2608.79,425.04
             2608.79,425.04 2614.21,432.00 2614.21,432.00
             2614.21,432.00 2634.83,454.00 2634.83,454.00
             2634.83,454.00 2651.72,474.00 2651.72,474.00
             2651.72,474.00 2677.13,506.00 2677.13,506.00
             2677.13,506.00 2685.53,518.00 2685.53,518.00
             2685.53,518.00 2693.08,527.00 2693.08,527.00
             2693.08,527.00 2699.60,537.00 2699.60,537.00
             2699.60,537.00 2727.86,579.00 2727.86,579.00
             2727.86,579.00 2734.77,589.00 2734.77,589.00
             2734.77,589.00 2741.87,602.00 2741.87,602.00
             2741.87,602.00 2747.08,610.00 2747.08,610.00
             2747.08,610.00 2760.67,634.00 2760.67,634.00
             2760.67,634.00 2772.26,657.00 2772.26,657.00
             2785.79,683.22 2798.63,709.62 2809.69,737.00
             2809.69,737.00 2817.95,760.00 2817.95,760.00
             2817.95,760.00 2826.05,780.00 2826.05,780.00
             2826.05,780.00 2830.63,797.00 2830.63,797.00
             2830.63,797.00 2836.05,811.00 2836.05,811.00
             2836.05,811.00 2845.37,843.00 2845.37,843.00
             2845.37,843.00 2846.63,852.00 2846.63,852.00
             2846.63,852.00 2849.37,859.00 2849.37,859.00
             2849.37,859.00 2850.38,865.00 2850.38,865.00
             2850.38,865.00 2852.37,871.00 2852.37,871.00
             2852.37,871.00 2853.38,877.00 2853.38,877.00
             2853.38,877.00 2855.61,884.00 2855.61,884.00
             2855.61,884.00 2856.21,893.00 2856.21,893.00
             2856.21,893.00 2858.61,901.00 2858.61,901.00
             2858.61,901.00 2859.39,910.00 2859.39,910.00
             2859.39,910.00 2861.65,917.00 2861.65,917.00
             2861.65,917.00 2863.21,929.00 2863.21,929.00
             2864.66,938.36 2865.76,929.59 2866.00,948.00
             2866.11,955.94 2867.48,954.64 2868.61,960.00
             2868.61,960.00 2869.21,972.00 2869.21,972.00
             2870.23,978.76 2871.98,975.61 2872.00,987.00
             2872.00,987.00 2872.00,1007.00 2872.00,1007.00
             2872.06,1018.89 2874.98,1013.80 2875.00,1027.00
             2875.00,1027.00 2875.00,1056.00 2875.00,1056.00
             2875.00,1056.00 2876.00,1071.00 2876.00,1071.00
             2876.00,1071.00 2876.00,1120.00 2876.00,1120.00
             2876.00,1120.00 2875.00,1137.00 2875.00,1137.00
             2875.00,1137.00 2875.00,1169.00 2875.00,1169.00
             2874.98,1182.65 2872.02,1176.35 2872.00,1190.00
             2872.00,1190.00 2872.00,1209.00 2872.00,1209.00
             2871.98,1220.39 2870.23,1217.24 2869.00,1224.00
             2869.00,1224.00 2869.00,1237.00 2869.00,1237.00
             2867.33,1246.68 2866.26,1237.19 2866.00,1257.00
             2865.89,1265.29 2864.07,1264.33 2863.21,1270.00
             2863.21,1270.00 2861.80,1284.00 2861.80,1284.00
             2861.80,1284.00 2859.39,1292.00 2859.39,1292.00
             2859.39,1292.00 2858.79,1300.00 2858.79,1300.00
             2858.79,1300.00 2856.39,1308.00 2856.39,1308.00
             2856.39,1308.00 2855.61,1320.00 2855.61,1320.00
             2855.61,1320.00 2853.63,1326.00 2853.63,1326.00
             2853.63,1326.00 2852.61,1333.00 2852.61,1333.00
             2852.61,1333.00 2850.39,1340.00 2850.39,1340.00
             2850.39,1340.00 2849.37,1347.00 2849.37,1347.00
             2849.37,1347.00 2846.53,1355.00 2846.53,1355.00
             2846.53,1355.00 2845.79,1363.00 2845.79,1363.00
             2845.79,1363.00 2843.39,1371.00 2843.39,1371.00
             2843.39,1371.00 2842.61,1378.00 2842.61,1378.00
             2842.61,1378.00 2840.63,1384.00 2840.63,1384.00
             2840.63,1384.00 2839.61,1391.00 2839.61,1391.00
             2839.61,1391.00 2837.39,1398.00 2837.39,1398.00
             2837.39,1398.00 2836.61,1404.00 2836.61,1404.00
             2836.61,1404.00 2834.63,1410.00 2834.63,1410.00
             2834.63,1410.00 2833.07,1418.00 2833.07,1418.00
             2833.07,1418.00 2830.39,1426.00 2830.39,1426.00
             2830.39,1426.00 2829.79,1434.00 2829.79,1434.00
             2828.77,1440.77 2827.02,1437.61 2827.00,1449.00
             2827.00,1449.00 2827.00,1473.00 2827.00,1473.00
             2826.86,1483.29 2824.02,1479.22 2824.00,1492.00
             2824.00,1492.00 2824.00,1550.00 2824.00,1550.00
             2824.02,1563.65 2826.98,1557.35 2827.00,1571.00
             2827.00,1571.00 2827.00,1618.00 2827.00,1618.00
             2827.06,1629.89 2829.98,1624.80 2830.00,1638.00
             2830.00,1638.00 2830.00,1660.00 2830.00,1660.00
             2830.02,1671.43 2831.66,1668.03 2832.79,1675.00
             2832.79,1675.00 2834.21,1695.00 2834.21,1695.00
             2835.20,1701.90 2836.98,1699.04 2837.11,1711.00
             2837.11,1711.00 2837.11,1722.00 2837.11,1722.00
             2838.60,1731.21 2839.76,1722.81 2840.00,1741.00
             2840.11,1749.30 2841.94,1748.37 2842.95,1754.00
             2842.95,1754.00 2842.95,1764.00 2842.95,1764.00
             2843.55,1768.59 2845.18,1769.97 2845.79,1774.00
             2845.79,1774.00 2846.30,1786.00 2846.30,1786.00
             2846.30,1786.00 2849.67,1798.00 2849.67,1798.00
             2849.67,1798.00 2850.21,1807.00 2850.21,1807.00
             2850.21,1807.00 2852.61,1815.00 2852.61,1815.00
             2852.61,1815.00 2853.39,1823.00 2853.39,1823.00
             2853.39,1823.00 2855.61,1830.00 2855.61,1830.00
             2855.61,1830.00 2856.39,1840.00 2856.39,1840.00
             2856.39,1840.00 2858.61,1847.00 2858.61,1847.00
             2858.61,1847.00 2859.39,1854.00 2859.39,1854.00
             2859.39,1854.00 2861.65,1861.00 2861.65,1861.00
             2861.65,1861.00 2863.37,1871.00 2863.37,1871.00
             2863.37,1871.00 2865.61,1878.00 2865.61,1878.00
             2865.61,1878.00 2866.39,1885.00 2866.39,1885.00
             2866.39,1885.00 2871.37,1902.00 2871.37,1902.00
             2871.37,1902.00 2872.21,1909.00 2872.21,1909.00
             2872.21,1909.00 2875.79,1925.00 2875.79,1925.00
             2875.79,1925.00 2881.37,1942.00 2881.37,1942.00
             2881.37,1942.00 2888.63,1970.00 2888.63,1970.00
             2888.63,1970.00 2894.38,1987.00 2894.38,1987.00
             2894.38,1987.00 2904.62,2021.00 2904.62,2021.00
             2904.62,2021.00 2910.07,2035.00 2910.07,2035.00
             2910.07,2035.00 2928.68,2084.00 2928.68,2084.00
             2928.68,2084.00 2931.32,2092.00 2931.32,2092.00
             2931.32,2092.00 2954.69,2144.00 2954.69,2144.00
             2970.22,2177.82 2987.93,2210.71 3008.14,2242.00
             3008.14,2242.00 3015.52,2254.00 3015.52,2254.00
             3015.52,2254.00 3023.48,2265.00 3023.48,2265.00
             3023.48,2265.00 3055.54,2309.00 3055.54,2309.00
             3055.54,2309.00 3082.42,2342.00 3082.42,2342.00
             3092.30,2353.60 3101.97,2363.92 3102.00,2380.00
             3102.00,2380.00 3102.00,2395.00 3102.00,2395.00
             3101.78,2411.30 3088.62,2421.97 3073.00,2422.00
             3073.00,2422.00 2968.00,2422.00 2968.00,2422.00
             2954.35,2421.98 2960.65,2419.02 2947.00,2418.89
             2947.00,2418.89 2932.00,2418.89 2932.00,2418.89
             2932.00,2418.89 2923.00,2416.21 2923.00,2416.21
             2923.00,2416.21 2912.00,2415.53 2912.00,2415.53
             2900.76,2413.41 2909.30,2412.00 2891.00,2412.00
             2891.29,2420.24 2894.52,2421.11 2899.72,2427.00
             2906.90,2435.14 2920.36,2446.48 2928.96,2453.66
             2928.96,2453.66 2942.00,2465.72 2942.00,2465.72
             2942.00,2465.72 2991.00,2505.49 2991.00,2505.49
             2991.00,2505.49 3001.00,2512.59 3001.00,2512.59
             3001.00,2512.59 3015.00,2523.87 3015.00,2523.87
             3025.62,2531.91 3035.80,2539.20 3036.00,2554.00
             3036.00,2554.00 3036.00,2568.00 3036.00,2568.00
             3035.78,2584.57 3021.91,2595.97 3006.00,2596.00
             3006.00,2596.00 2932.00,2596.00 2932.00,2596.00
             2918.35,2595.98 2924.65,2593.02 2911.00,2593.00
             2911.00,2593.00 2877.00,2593.00 2877.00,2593.00
             2864.22,2592.98 2868.29,2590.14 2858.00,2590.00
             2851.63,2589.92 2845.31,2589.82 2839.00,2588.79
             2830.46,2587.41 2837.21,2586.20 2822.00,2586.00
             2813.70,2585.89 2814.63,2584.06 2809.00,2583.00
             2809.00,2583.00 2798.00,2583.00 2798.00,2583.00
             2798.00,2583.00 2790.00,2580.39 2790.00,2580.39
             2790.00,2580.39 2783.00,2579.61 2783.00,2579.61
             2783.00,2579.61 2776.00,2577.39 2776.00,2577.39
             2776.00,2577.39 2769.00,2576.61 2769.00,2576.61
             2769.00,2576.61 2761.00,2574.04 2761.00,2574.04
             2761.00,2574.04 2753.00,2572.63 2753.00,2572.63
             2753.00,2572.63 2747.00,2570.63 2747.00,2570.63
             2747.00,2570.63 2741.00,2569.62 2741.00,2569.62
             2741.00,2569.62 2735.00,2567.63 2735.00,2567.63
             2735.00,2567.63 2729.00,2566.37 2729.00,2566.37
             2729.00,2566.37 2707.00,2559.33 2707.00,2559.33
             2707.00,2559.33 2692.00,2560.85 2692.00,2560.85
             2692.00,2560.85 2670.00,2560.85 2670.00,2560.85
             2660.07,2559.23 2665.27,2557.03 2650.00,2557.00
             2637.52,2556.98 2641.72,2554.54 2632.00,2554.00
             2632.10,2563.87 2633.84,2561.71 2635.00,2568.00
             2635.00,2568.00 2635.00,2577.00 2635.00,2577.00
             2635.00,2577.00 2637.90,2586.00 2637.90,2586.00
             2637.90,2586.00 2637.90,2600.00 2637.90,2600.00
             2638.14,2610.29 2640.98,2606.22 2641.11,2619.00
             2641.11,2619.00 2641.11,2641.00 2641.11,2641.00
             2642.14,2647.19 2643.95,2645.16 2644.00,2655.00
             2644.00,2655.00 2644.00,2676.00 2644.00,2676.00
             2644.02,2687.39 2645.77,2684.24 2646.79,2691.00
             2646.79,2691.00 2648.00,2724.00 2648.00,2724.00
             2648.00,2724.00 2648.00,2783.00 2648.00,2783.00
             2648.00,2783.00 2647.04,2795.00 2647.04,2795.00
             2647.04,2795.00 2647.04,2811.00 2647.04,2811.00
             2646.98,2824.65 2644.02,2818.35 2644.00,2832.00
             2644.00,2832.00 2644.00,2848.00 2644.00,2848.00
             2643.95,2857.84 2642.14,2855.81 2641.11,2862.00
             2641.11,2862.00 2641.11,2875.00 2641.11,2875.00
             2640.98,2887.78 2638.14,2883.71 2638.00,2894.00
             2637.95,2898.27 2638.37,2901.85 2637.05,2906.00
             2637.05,2906.00 2635.39,2911.00 2635.39,2911.00
             2635.39,2911.00 2634.61,2919.00 2634.61,2919.00
             2634.61,2919.00 2632.37,2926.00 2632.37,2926.00
             2632.37,2926.00 2630.37,2938.00 2630.37,2938.00
             2630.37,2938.00 2628.39,2944.00 2628.39,2944.00
             2628.39,2944.00 2627.61,2952.00 2627.61,2952.00
             2627.61,2952.00 2625.63,2958.00 2625.63,2958.00
             2625.63,2958.00 2621.37,2975.00 2621.37,2975.00
             2621.37,2975.00 2615.62,2991.00 2615.62,2991.00
             2615.62,2991.00 2608.08,3014.00 2608.08,3014.00
             2608.08,3014.00 2602.92,3025.00 2602.92,3025.00
             2602.92,3025.00 2590.69,3052.00 2590.69,3052.00
             2590.69,3052.00 2583.33,3064.00 2583.33,3064.00
             2583.33,3064.00 2577.66,3075.00 2577.66,3075.00
             2577.66,3075.00 2563.39,3096.00 2563.39,3096.00
             2563.39,3096.00 2555.61,3104.17 2555.61,3104.17
             2555.61,3104.17 2549.82,3112.00 2549.82,3112.00
             2541.51,3121.62 2535.08,3126.08 2526.00,3134.17
             2526.00,3134.17 2518.00,3141.37 2518.00,3141.37
             2518.00,3141.37 2511.00,3145.53 2511.00,3145.53
             2511.00,3145.53 2499.00,3153.39 2499.00,3153.39
             2499.00,3153.39 2480.00,3163.08 2480.00,3163.08
             2477.23,3164.20 2470.49,3166.32 2468.39,3167.92
             2466.20,3169.59 2463.38,3175.36 2461.80,3178.00
             2461.80,3178.00 2449.08,3197.00 2449.08,3197.00
             2445.05,3202.45 2443.42,3203.04 2439.18,3207.28
             2439.18,3207.28 2433.68,3213.79 2433.68,3213.79
             2433.68,3213.79 2428.09,3218.37 2428.09,3218.37
             2428.09,3218.37 2420.96,3225.38 2420.96,3225.38
             2420.96,3225.38 2410.00,3233.00 2410.00,3233.00
             2403.75,3237.44 2397.39,3242.89 2390.00,3245.00
             2390.00,3245.00 2399.92,3270.00 2399.92,3270.00
             2399.92,3270.00 2405.05,3281.00 2405.05,3281.00
             2405.05,3281.00 2413.32,3304.00 2413.32,3304.00
             2413.32,3304.00 2418.47,3316.00 2418.47,3316.00
             2418.47,3316.00 2428.95,3345.00 2428.95,3345.00
             2428.95,3345.00 2434.06,3357.00 2434.06,3357.00
             2434.06,3357.00 2441.95,3381.00 2441.95,3381.00
             2441.95,3381.00 2450.05,3403.00 2450.05,3403.00
             2450.05,3403.00 2457.37,3429.00 2457.37,3429.00
             2459.31,3436.90 2460.98,3433.23 2461.00,3445.00
             2461.01,3448.81 2461.31,3456.68 2460.37,3460.00
             2456.46,3473.75 2446.01,3480.98 2432.00,3480.90
             2432.00,3480.90 1774.00,3480.90 1774.00,3480.90
             1774.00,3480.90 1594.00,3480.90 1594.00,3480.90
             1594.00,3480.90 1562.00,3480.90 1562.00,3480.90
             1558.24,3479.80 1549.97,3475.59 1547.39,3472.79
             1545.46,3470.71 1542.99,3465.69 1541.80,3463.00
             1539.81,3458.51 1540.01,3456.75 1540.00,3452.00
             1540.00,3452.00 1540.00,3437.00 1540.00,3437.00
             1540.07,3432.38 1545.19,3413.39 1546.78,3408.00
             1546.78,3408.00 1549.37,3401.00 1549.37,3401.00
             1549.37,3401.00 1550.39,3394.00 1550.39,3394.00
             1550.39,3394.00 1555.37,3377.00 1555.37,3377.00
             1557.80,3368.46 1561.98,3351.39 1566.00,3344.00
             1566.00,3344.00 1534.00,3328.57 1534.00,3328.57
             1534.00,3328.57 1524.00,3321.95 1524.00,3321.95
             1524.00,3321.95 1517.00,3317.61 1517.00,3317.61
             1511.31,3313.15 1507.18,3307.43 1502.34,3302.21
             1502.34,3302.21 1495.09,3295.90 1495.09,3295.90
             1492.29,3293.15 1486.30,3285.39 1483.91,3282.00
             1471.09,3263.82 1456.51,3232.55 1450.63,3211.00
             1450.63,3211.00 1449.37,3203.00 1449.37,3203.00
             1449.37,3203.00 1443.53,3183.00 1443.53,3183.00
             1443.53,3183.00 1442.61,3174.00 1442.61,3174.00
             1441.48,3168.63 1440.11,3169.94 1440.00,3162.00
             1440.00,3162.00 1440.00,3156.00 1440.00,3156.00
             1439.94,3144.87 1429.15,3123.09 1424.42,3112.00
             1424.42,3112.00 1419.68,3099.00 1419.68,3099.00
             1419.68,3099.00 1412.31,3082.00 1412.31,3082.00
             1412.31,3082.00 1404.05,3059.00 1404.05,3059.00
             1404.05,3059.00 1398.53,3046.00 1398.53,3046.00
             1398.53,3046.00 1388.05,3015.00 1388.05,3015.00
             1388.05,3015.00 1379.63,2993.00 1379.63,2993.00
             1379.63,2993.00 1375.38,2977.00 1375.38,2977.00
             1375.38,2977.00 1369.59,2962.00 1369.59,2962.00
             1369.59,2962.00 1362.37,2936.00 1362.37,2936.00
             1362.37,2936.00 1350.63,2899.00 1350.63,2899.00
             1350.63,2899.00 1349.61,2892.00 1349.61,2892.00
             1349.61,2892.00 1347.63,2886.00 1347.63,2886.00
             1347.63,2886.00 1346.37,2879.00 1346.37,2879.00
             1346.37,2879.00 1343.79,2872.00 1343.79,2872.00
             1343.79,2872.00 1342.63,2866.00 1342.63,2866.00
             1342.63,2866.00 1340.63,2860.00 1340.63,2860.00
             1340.63,2860.00 1339.61,2853.00 1339.61,2853.00
             1339.61,2853.00 1337.63,2847.00 1337.63,2847.00
             1337.63,2847.00 1336.62,2841.00 1336.62,2841.00
             1336.62,2841.00 1334.39,2834.00 1334.39,2834.00
             1334.39,2834.00 1333.61,2825.00 1333.61,2825.00
             1333.61,2825.00 1331.35,2818.00 1331.35,2818.00
             1331.35,2818.00 1329.62,2807.00 1329.62,2807.00
             1329.62,2807.00 1327.39,2800.00 1327.39,2800.00
             1327.39,2800.00 1326.37,2792.00 1326.37,2792.00
             1326.37,2792.00 1324.39,2786.00 1324.39,2786.00
             1324.39,2786.00 1323.79,2776.00 1323.79,2776.00
             1322.56,2767.81 1321.20,2773.90 1321.00,2759.00
             1320.89,2751.06 1319.52,2752.36 1318.39,2747.00
             1318.39,2747.00 1317.79,2732.00 1317.79,2732.00
             1316.80,2725.42 1314.02,2725.98 1313.89,2712.00
             1313.89,2712.00 1313.89,2699.00 1313.89,2699.00
             1312.86,2692.81 1311.05,2694.84 1311.00,2685.00
             1311.00,2685.00 1311.00,2658.00 1311.00,2658.00
             1310.98,2644.35 1308.02,2650.65 1308.00,2637.00
             1308.00,2637.00 1308.00,2584.00 1308.00,2584.00
             1308.02,2570.80 1310.94,2575.89 1311.00,2564.00
             1311.00,2564.00 1311.00,2542.00 1311.00,2542.00
             1311.06,2530.22 1313.91,2536.60 1314.00,2518.00
             1314.06,2506.01 1316.80,2506.55 1318.00,2500.00
             1318.00,2500.00 1318.00,2490.00 1318.00,2490.00
             1318.00,2490.00 1320.61,2482.00 1320.61,2482.00
             1320.61,2482.00 1321.21,2474.00 1321.21,2474.00
             1321.21,2474.00 1323.61,2466.00 1323.61,2466.00
             1323.61,2466.00 1324.39,2459.00 1324.39,2459.00
             1324.39,2459.00 1326.38,2453.00 1326.38,2453.00
             1326.38,2453.00 1333.37,2431.00 1333.37,2431.00
             1333.37,2431.00 1334.63,2425.00 1334.63,2425.00
             1334.63,2425.00 1340.92,2407.00 1340.92,2407.00
             1340.92,2407.00 1346.08,2396.00 1346.08,2396.00
             1346.08,2396.00 1356.25,2372.00 1356.25,2372.00
             1356.25,2372.00 1370.01,2346.00 1370.01,2346.00
             1373.49,2340.14 1377.05,2336.69 1379.00,2330.00
             1369.38,2326.44 1359.51,2317.60 1351.00,2311.95
             1328.57,2297.03 1307.68,2280.51 1287.00,2263.28
             1287.00,2263.28 1277.04,2255.39 1277.04,2255.39
             1277.04,2255.39 1269.91,2248.51 1269.91,2248.51
             1269.91,2248.51 1237.00,2219.91 1237.00,2219.91
             1237.00,2219.91 1225.99,2208.04 1225.99,2208.04
             1225.99,2208.04 1215.00,2198.00 1215.00,2198.00
             1215.00,2198.00 1204.91,2187.09 1204.91,2187.09
             1204.91,2187.09 1195.09,2178.00 1195.09,2178.00
             1195.09,2178.00 1174.21,2155.00 1174.21,2155.00
             1174.21,2155.00 1168.80,2148.00 1168.80,2148.00
             1168.80,2148.00 1155.21,2133.00 1155.21,2133.00
             1155.21,2133.00 1149.88,2126.00 1149.88,2126.00
             1149.88,2126.00 1140.46,2115.00 1140.46,2115.00
             1140.46,2115.00 1128.41,2099.00 1128.41,2099.00
             1128.41,2099.00 1121.61,2091.00 1121.61,2091.00
             1121.61,2091.00 1117.10,2084.00 1117.10,2084.00
             1117.10,2084.00 1106.84,2070.00 1106.84,2070.00
             1106.84,2070.00 1096.20,2056.00 1096.20,2056.00
             1069.42,2017.35 1045.70,1976.31 1023.31,1935.00
             1023.31,1935.00 1016.63,1921.00 1016.63,1921.00
             1016.63,1921.00 1007.26,1903.00 1007.26,1903.00
             1007.26,1903.00 1000.69,1888.00 1000.69,1888.00
             1000.69,1888.00 990.33,1867.00 990.33,1867.00
             990.33,1867.00 984.67,1852.00 984.67,1852.00
             984.67,1852.00 974.32,1829.00 974.32,1829.00
             974.32,1829.00 967.30,1811.00 967.30,1811.00
             967.30,1811.00 955.27,1778.00 955.27,1778.00
             953.64,1773.91 952.35,1768.71 948.79,1765.96
             945.01,1763.05 935.42,1760.89 930.00,1758.58
             930.00,1758.58 893.00,1741.25 893.00,1741.25
             889.60,1739.55 877.61,1731.77 875.01,1732.44
             871.93,1733.23 866.92,1740.34 864.88,1743.00
             864.88,1743.00 848.59,1764.00 848.59,1764.00
             848.59,1764.00 842.79,1773.00 842.79,1773.00
             842.79,1773.00 821.60,1803.00 821.60,1803.00
             821.60,1803.00 815.77,1813.00 815.77,1813.00
             815.77,1813.00 806.53,1827.00 806.53,1827.00
             806.53,1827.00 789.69,1857.00 789.69,1857.00
             783.52,1868.41 770.46,1893.37 766.59,1905.00
             766.59,1905.00 758.69,1927.00 758.69,1927.00
             758.69,1927.00 753.95,1938.00 753.95,1938.00
             749.76,1949.21 747.55,1959.18 741.69,1970.00
             740.38,1972.43 737.28,1977.99 735.61,1979.90
             731.11,1985.06 721.77,1988.91 715.00,1989.00
             702.55,1989.16 696.42,1990.48 685.00,1984.75
             682.22,1983.36 679.44,1982.02 677.21,1979.79
             670.73,1973.31 664.25,1949.54 661.38,1940.00
             661.38,1940.00 653.63,1915.00 653.63,1915.00
             653.63,1915.00 652.37,1909.00 652.37,1909.00
             652.37,1909.00 643.63,1881.00 643.63,1881.00
             643.63,1881.00 642.37,1875.00 642.37,1875.00
             642.37,1875.00 637.63,1860.00 637.63,1860.00
             637.63,1860.00 636.47,1853.00 636.47,1853.00
             636.47,1853.00 633.63,1845.00 633.63,1845.00
             633.63,1845.00 632.63,1840.00 632.63,1840.00
             632.63,1840.00 627.63,1823.00 627.63,1823.00
             627.63,1823.00 626.37,1815.00 626.37,1815.00
             626.37,1815.00 624.39,1809.00 624.39,1809.00
             624.39,1809.00 623.37,1800.00 623.37,1800.00
             623.37,1800.00 620.93,1793.00 620.93,1793.00
             620.93,1793.00 619.37,1785.00 619.37,1785.00
             619.37,1785.00 617.39,1779.00 617.39,1779.00
             617.39,1779.00 616.61,1770.00 616.61,1770.00
             616.61,1770.00 614.21,1762.00 614.21,1762.00
             614.21,1762.00 613.61,1753.00 613.61,1753.00
             612.48,1747.64 611.11,1748.94 611.00,1741.00
             610.80,1725.92 608.85,1730.69 608.01,1723.00
             608.01,1723.00 608.01,1715.00 608.01,1715.00
             608.01,1715.00 606.92,1707.00 606.92,1707.00
             606.92,1707.00 606.92,1699.00 606.92,1699.00
             605.80,1692.10 604.02,1694.96 604.00,1683.00
             604.00,1683.00 604.00,1572.00 604.00,1572.00
             604.02,1559.75 606.24,1561.07 606.90,1554.00
             606.90,1554.00 608.21,1531.00 608.21,1531.00
             608.21,1531.00 610.61,1523.00 610.61,1523.00
             610.61,1523.00 611.21,1512.00 611.21,1512.00
             611.21,1512.00 613.79,1503.00 613.79,1503.00
             613.79,1503.00 614.39,1495.00 614.39,1495.00
             614.39,1495.00 616.61,1488.00 616.61,1488.00
             617.42,1484.20 616.48,1482.62 617.95,1478.00
             618.97,1474.79 622.55,1463.79 622.16,1461.00
             621.81,1458.51 618.50,1452.60 617.26,1450.00
             617.26,1450.00 609.91,1432.00 609.91,1432.00
             609.91,1432.00 596.95,1399.00 596.95,1399.00
             596.95,1399.00 595.05,1392.00 595.05,1392.00
             595.05,1392.00 589.95,1379.00 589.95,1379.00
             589.95,1379.00 588.38,1373.00 588.38,1373.00
             585.09,1362.04 584.24,1362.45 582.00,1350.00 Z" />
</svg>
