<?xml version="1.0" encoding="UTF-8" standalone="no"?>
<!DOCTYPE svg PUBLIC "-//W3C//DTD SVG 20010904//EN"
              "http://www.w3.org/TR/2001/REC-SVG-20010904/DTD/svg10.dtd">

<svg xmlns="http://www.w3.org/2000/svg"
     width="12in" height="12in"
     viewBox="0 0 3600 3600">
  <path id="0 - red"
        fill="none" stroke="black" stroke-width="1"
        d="M 659.00,1793.00
           C 659.00,1793.00 697.00,1793.00 697.00,1793.00
             697.00,1793.00 697.00,1849.00 697.00,1849.00
             697.00,1849.00 753.00,1849.00 753.00,1849.00
             753.00,1849.00 753.00,1887.00 753.00,1887.00
             753.00,1887.00 697.00,1887.00 697.00,1887.00
             697.00,1887.00 697.00,1943.00 697.00,1943.00
             697.00,1943.00 659.00,1943.00 659.00,1943.00
             659.00,1943.00 659.00,1887.00 659.00,1887.00
             659.00,1887.00 603.00,1887.00 603.00,1887.00
             603.00,1887.00 603.00,1849.00 603.00,1849.00
             603.00,1849.00 659.00,1849.00 659.00,1849.00
             659.00,1849.00 659.00,1793.00 659.00,1793.00 Z
           M 2992.00,2191.21
           C 2992.00,2191.21 3019.00,2191.21 3019.00,2191.21
             3021.87,2191.01 3025.24,2190.69 3027.61,2192.60
             3030.12,2194.63 3031.93,2200.00 3033.31,2203.00
             3033.31,2203.00 3044.86,2228.00 3044.86,2228.00
             3044.86,2228.00 3089.29,2325.00 3089.29,2325.00
             3089.29,2325.00 3098.26,2345.00 3098.26,2345.00
             3101.45,2351.59 3105.70,2358.38 3104.89,2366.00
             3104.32,2371.38 3098.51,2377.67 3095.23,2382.00
             3095.23,2382.00 3071.42,2414.00 3071.42,2414.00
             3071.42,2414.00 3038.01,2459.00 3038.01,2459.00
             3033.24,2465.17 3029.85,2473.61 3021.00,2472.82
             3021.00,2472.82 3007.00,2470.42 3007.00,2470.42
             3007.00,2470.42 2964.00,2463.46 2964.00,2463.46
             2964.00,2463.46 2949.00,2461.56 2949.00,2461.56
             2949.00,2461.56 2938.00,2459.29 2938.00,2459.29
             2938.00,2459.29 2900.00,2453.57 2900.00,2453.57
             2900.00,2453.57 2888.00,2451.29 2888.00,2451.29
             2888.00,2451.29 2874.00,2449.56 2874.00,2449.56
             2874.00,2449.56 2856.00,2446.28 2856.00,2446.28
             2856.00,2446.28 2812.00,2439.13 2812.00,2439.13
             2805.84,2438.21 2795.66,2438.16 2791.22,2433.77
             2788.05,2430.64 2781.94,2414.11 2779.78,2409.00
             2779.78,2409.00 2758.01,2358.00 2758.01,2358.00
             2755.87,2352.81 2748.49,2334.40 2745.73,2331.01
             2742.74,2327.37 2735.90,2322.41 2732.00,2318.95
             2732.00,2318.95 2694.00,2286.05 2694.00,2286.05
             2690.43,2282.88 2677.76,2272.79 2676.66,2269.00
             2674.40,2261.26 2686.02,2263.03 2690.00,2263.88
             2690.00,2263.88 2712.00,2267.32 2712.00,2267.32
             2712.00,2267.32 2727.00,2270.23 2727.00,2270.23
             2731.09,2270.75 2738.33,2272.72 2741.91,2270.23
             2744.56,2268.66 2754.48,2256.27 2757.27,2253.00
             2757.27,2253.00 2788.73,2216.00 2788.73,2216.00
             2792.58,2211.51 2802.26,2198.55 2807.00,2196.74
             2809.77,2195.68 2815.82,2196.03 2819.00,2196.00
             2819.00,2196.00 2834.00,2195.00 2834.00,2195.00
             2834.00,2195.00 2878.00,2195.00 2878.00,2195.00
             2878.00,2195.00 2893.00,2194.00 2893.00,2194.00
             2893.00,2194.00 2915.00,2194.00 2915.00,2194.00
             2915.00,2194.00 2932.00,2193.00 2932.00,2193.00
             2932.00,2193.00 2967.00,2193.00 2967.00,2193.00
             2967.00,2193.00 2979.00,2192.09 2979.00,2192.09
             2979.00,2192.09 2992.00,2191.21 2992.00,2191.21 Z
           M 2762.00,2930.00
           C 2762.00,2930.00 2800.00,2930.00 2800.00,2930.00
             2800.00,2930.00 2800.00,2986.00 2800.00,2986.00
             2800.00,2986.00 2856.00,2986.00 2856.00,2986.00
             2856.00,2986.00 2856.00,3024.00 2856.00,3024.00
             2856.00,3024.00 2800.00,3024.00 2800.00,3024.00
             2800.00,3024.00 2800.00,3080.00 2800.00,3080.00
             2800.00,3080.00 2762.00,3080.00 2762.00,3080.00
             2762.00,3080.00 2762.00,3024.00 2762.00,3024.00
             2762.00,3024.00 2706.00,3024.00 2706.00,3024.00
             2706.00,3024.00 2706.00,2986.00 2706.00,2986.00
             2706.00,2986.00 2762.00,2986.00 2762.00,2986.00
             2762.00,2986.00 2762.00,2930.00 2762.00,2930.00 Z" />
</svg>
