<?xml version="1.0" encoding="UTF-8" standalone="no"?>
<!DOCTYPE svg PUBLIC "-//W3C//DTD SVG 20010904//EN"
              "http://www.w3.org/TR/2001/REC-SVG-20010904/DTD/svg10.dtd">

<svg xmlns="http://www.w3.org/2000/svg"
     width="12in" height="12in"
     viewBox="0 0 3600 3600">
  <path id="1 - first black back"
        fill="none" stroke="black" stroke-width="1"
        d="M 1200.00,664.00
           C 1204.89,654.74 1220.36,638.30 1227.83,630.00
             1227.83,630.00 1248.09,607.00 1248.09,607.00
             1248.09,607.00 1281.33,573.33 1281.33,573.33
             1297.57,557.34 1314.12,541.99 1332.00,527.80
             1413.79,462.93 1528.59,409.36 1628.00,377.50
             1628.00,377.50 1683.00,361.55 1683.00,361.55
             1712.82,353.20 1743.45,347.42 1774.00,342.71
             1791.11,340.07 1811.83,337.03 1829.00,337.00
             1829.00,337.00 1846.00,336.00 1846.00,336.00
             1846.00,336.00 1894.00,336.84 1894.00,336.84
             1898.94,337.37 1912.50,338.66 1914.16,344.06
             1915.65,348.89 1909.50,353.60 1907.00,360.00
             1918.60,354.63 1931.54,352.85 1944.00,350.68
             1966.17,346.83 1988.45,344.74 2011.00,345.00
             2011.00,345.00 2029.00,346.30 2029.00,346.30
             2031.10,346.64 2033.77,347.29 2034.89,349.30
             2037.32,353.66 2032.67,361.60 2030.10,365.00
             2024.38,372.57 2013.42,380.50 2005.00,384.96
             2005.00,384.96 1993.00,391.00 1993.00,391.00
             1993.00,391.00 2017.00,391.00 2017.00,391.00
             2017.00,391.00 2031.00,392.00 2031.00,392.00
             2031.00,392.00 2057.00,393.17 2057.00,393.17
             2057.00,393.17 2067.00,394.83 2067.00,394.83
             2067.00,394.83 2091.00,397.30 2091.00,397.30
             2091.00,397.30 2122.00,402.68 2122.00,402.68
             2122.00,402.68 2138.00,405.36 2138.00,405.36
             2317.27,443.31 2468.54,542.87 2581.01,687.00
             2647.81,772.59 2698.09,872.66 2717.46,980.00
             2717.46,980.00 2720.68,996.00 2720.68,996.00
             2720.68,996.00 2723.29,1015.00 2723.29,1015.00
             2723.29,1015.00 2725.00,1023.00 2725.00,1023.00
             2725.00,1023.00 2725.00,1030.00 2725.00,1030.00
             2725.00,1030.00 2728.83,1055.00 2728.83,1055.00
             2728.83,1055.00 2730.14,1074.01 2730.14,1074.01
             2730.14,1074.01 2733.00,1096.00 2733.00,1096.00
             2733.00,1096.00 2734.00,1124.00 2734.00,1124.00
             2734.00,1124.00 2733.00,1139.00 2733.00,1139.00
             2733.00,1139.00 2733.00,1158.00 2733.00,1158.00
             2733.00,1158.00 2730.96,1178.00 2730.96,1178.00
             2730.96,1178.00 2730.96,1187.00 2730.96,1187.00
             2730.96,1187.00 2728.96,1203.00 2728.96,1203.00
             2728.96,1203.00 2728.96,1211.00 2728.96,1211.00
             2728.96,1211.00 2727.17,1220.00 2727.17,1220.00
             2720.84,1273.29 2706.68,1324.55 2685.78,1374.00
             2668.44,1415.00 2646.81,1454.18 2625.14,1493.00
             2606.58,1526.25 2587.19,1559.07 2571.86,1594.00
             2561.85,1616.81 2549.04,1653.18 2549.00,1678.00
             2549.00,1678.00 2549.00,1687.00 2549.00,1687.00
             2549.03,1706.74 2558.90,1733.64 2583.00,1731.82
             2593.27,1731.04 2606.09,1725.25 2615.00,1720.27
             2637.56,1707.66 2655.89,1689.11 2674.00,1671.00
             2674.00,1671.00 2694.27,1649.00 2694.27,1649.00
             2696.15,1646.84 2699.44,1642.23 2702.76,1644.07
             2706.02,1645.88 2707.48,1654.49 2707.83,1658.00
             2708.77,1667.41 2706.57,1674.06 2705.15,1683.00
             2705.15,1683.00 2705.15,1700.00 2705.15,1700.00
             2705.15,1700.00 2747.00,1689.59 2747.00,1689.59
             2747.00,1689.59 2766.00,1686.64 2766.00,1686.64
             2787.80,1683.63 2804.12,1682.89 2826.00,1686.64
             2839.90,1688.90 2854.61,1693.13 2866.00,1701.84
             2877.18,1710.39 2889.46,1728.20 2892.83,1742.00
             2894.26,1747.88 2894.99,1765.40 2895.00,1772.00
             2895.00,1772.00 2895.99,1790.00 2895.99,1790.00
             2895.99,1790.00 2895.00,1804.00 2895.00,1804.00
             2894.98,1817.60 2893.86,1833.66 2891.46,1847.00
             2890.79,1850.74 2890.83,1857.51 2888.27,1860.35
             2886.27,1862.57 2877.19,1865.72 2874.00,1867.00
             2874.00,1867.00 2877.28,1845.00 2877.28,1845.00
             2877.28,1845.00 2881.00,1805.00 2881.00,1805.00
             2881.00,1805.00 2881.00,1764.00 2881.00,1764.00
             2881.00,1764.00 2880.09,1754.00 2880.09,1754.00
             2879.19,1741.75 2878.56,1735.64 2871.40,1725.00
             2858.43,1705.70 2833.19,1699.11 2811.00,1699.00
             2811.00,1699.00 2800.00,1698.18 2800.00,1698.18
             2800.00,1698.18 2783.00,1699.17 2783.00,1699.17
             2703.48,1706.77 2615.02,1750.03 2552.00,1797.77
             2534.31,1811.17 2516.71,1825.29 2501.00,1841.00
             2496.80,1845.20 2486.81,1854.64 2483.96,1859.00
             2478.61,1867.21 2474.62,1881.19 2475.10,1891.00
             2475.10,1891.00 2476.94,1900.00 2476.94,1900.00
             2476.94,1900.00 2476.94,1909.00 2476.94,1909.00
             2476.94,1909.00 2478.83,1919.00 2478.83,1919.00
             2478.83,1919.00 2480.68,1950.00 2480.68,1950.00
             2479.61,1964.28 2478.53,1978.00 2475.13,1992.00
             2475.13,1992.00 2468.86,2016.00 2468.86,2016.00
             2468.00,2019.00 2466.37,2025.18 2464.30,2027.35
             2461.86,2029.91 2454.50,2032.18 2451.00,2033.00
             2458.60,2013.22 2463.55,1989.97 2466.28,1969.00
             2466.28,1969.00 2467.09,1957.00 2467.09,1957.00
             2467.60,1949.49 2469.23,1948.76 2466.00,1941.00
             2463.18,1950.11 2452.48,1967.01 2446.74,1975.00
             2430.32,1997.87 2410.58,2018.69 2388.00,2035.63
             2388.00,2035.63 2372.00,2046.55 2372.00,2046.55
             2372.00,2046.55 2363.04,2051.75 2363.04,2051.75
             2361.01,2053.18 2356.53,2058.56 2354.18,2055.38
             2352.48,2053.41 2353.89,2049.22 2354.18,2047.00
             2354.18,2047.00 2355.18,2037.00 2355.18,2037.00
             2355.18,2037.00 2356.83,2029.00 2356.83,2029.00
             2359.79,2008.45 2366.83,1968.19 2367.00,1949.00
             2361.02,1954.06 2355.52,1964.42 2350.50,1971.00
             2338.41,1986.83 2323.49,2002.54 2308.00,2015.00
             2299.91,2021.51 2292.34,2027.57 2282.00,2030.00
             2285.11,2035.74 2292.25,2041.99 2296.82,2046.96
             2304.29,2055.09 2318.77,2073.78 2322.00,2084.00
             2322.00,2084.00 2312.00,2088.00 2312.00,2088.00
             2301.52,2070.53 2296.78,2064.88 2283.17,2050.01
             2283.17,2050.01 2268.98,2034.61 2268.98,2034.61
             2268.98,2034.61 2254.00,2023.09 2254.00,2023.09
             2245.32,2017.27 2235.33,2012.64 2229.00,2004.00
             2232.59,2003.42 2247.54,2005.52 2244.83,1997.98
             2243.78,1995.05 2234.85,1986.60 2232.00,1984.97
             2232.00,1984.97 2226.00,1982.29 2226.00,1982.29
             2226.00,1982.29 2206.00,1970.18 2206.00,1970.18
             2206.00,1970.18 2188.04,1961.73 2188.04,1961.73
             2183.03,1959.05 2181.99,1956.17 2176.00,1954.68
             2171.03,1953.45 2164.14,1952.97 2159.00,1953.00
             2155.96,1953.02 2149.32,1952.95 2151.17,1958.02
             2152.14,1960.68 2156.79,1964.23 2159.00,1966.13
             2166.11,1972.22 2182.33,1981.41 2186.00,1989.00
             2183.08,1989.72 2175.22,1990.05 2177.17,1994.92
             2178.29,1997.72 2185.29,2001.35 2188.00,2003.19
             2195.50,2008.30 2202.27,2014.21 2208.99,2020.28
             2208.99,2020.28 2217.07,2029.00 2217.07,2029.00
             2232.91,2046.45 2238.58,2054.84 2250.15,2075.00
             2257.57,2087.93 2256.65,2084.72 2261.02,2099.00
             2262.63,2104.23 2264.67,2107.80 2259.00,2111.00
             2254.68,2105.57 2251.58,2104.03 2245.00,2102.09
             2242.21,2101.28 2238.92,2100.77 2237.64,2104.15
             2236.72,2106.56 2239.19,2114.96 2239.80,2118.00
             2239.80,2118.00 2241.71,2128.00 2241.71,2128.00
             2241.71,2128.00 2242.30,2133.96 2242.30,2133.96
             2243.55,2139.47 2245.98,2137.12 2246.00,2151.00
             2246.03,2169.69 2246.68,2183.35 2238.77,2201.00
             2236.06,2207.04 2235.26,2210.53 2230.00,2215.00
             2219.29,2199.94 2218.26,2204.03 2211.42,2194.99
             2209.81,2192.86 2206.73,2187.62 2203.41,2189.17
             2201.41,2190.10 2200.33,2194.04 2199.67,2196.00
             2199.67,2196.00 2193.58,2213.00 2193.58,2213.00
             2193.58,2213.00 2170.69,2269.00 2170.69,2269.00
             2169.17,2273.27 2164.35,2287.13 2165.64,2290.98
             2166.94,2294.89 2170.96,2296.41 2174.00,2298.63
             2177.34,2301.07 2181.93,2305.93 2185.00,2309.00
             2205.00,2328.99 2227.25,2346.40 2250.00,2363.12
             2250.00,2363.12 2268.00,2375.31 2268.00,2375.31
             2270.73,2377.07 2275.37,2379.43 2276.98,2382.18
             2278.19,2384.25 2278.79,2390.45 2279.00,2393.00
             2271.45,2389.63 2260.29,2381.53 2253.00,2376.67
             2235.39,2364.92 2212.87,2347.67 2197.00,2333.72
             2197.00,2333.72 2178.00,2316.00 2178.00,2316.00
             2173.65,2311.67 2169.61,2306.65 2164.00,2304.00
             2162.61,2311.71 2161.01,2320.20 2161.09,2328.00
             2161.09,2328.00 2161.09,2335.00 2161.09,2335.00
             2161.54,2337.96 2163.59,2343.05 2162.39,2345.69
             2160.47,2349.89 2154.76,2346.00 2151.98,2349.40
             2151.98,2349.40 2145.86,2362.00 2145.86,2362.00
             2145.86,2362.00 2131.12,2384.00 2131.12,2384.00
             2128.48,2387.96 2124.60,2392.00 2127.11,2397.00
             2130.15,2403.06 2143.41,2412.71 2149.00,2417.44
             2149.00,2417.44 2168.00,2437.44 2168.00,2437.44
             2171.30,2439.73 2181.61,2442.40 2186.00,2443.71
             2186.00,2443.71 2211.00,2452.80 2211.00,2452.80
             2264.11,2473.87 2308.23,2504.15 2366.00,2516.72
             2366.00,2516.72 2395.00,2522.71 2395.00,2522.71
             2395.00,2522.71 2443.00,2528.72 2443.00,2528.72
             2443.00,2528.72 2461.00,2531.44 2461.00,2531.44
             2462.96,2531.78 2466.56,2532.25 2467.32,2534.43
             2468.69,2538.37 2462.69,2542.79 2460.00,2544.65
             2460.00,2544.65 2429.00,2561.00 2429.00,2561.00
             2429.00,2561.00 2439.00,2562.71 2439.00,2562.71
             2439.00,2562.71 2464.00,2566.69 2464.00,2566.69
             2464.00,2566.69 2513.00,2573.17 2513.00,2573.17
             2513.00,2573.17 2524.00,2575.00 2524.00,2575.00
             2524.00,2575.00 2532.00,2575.00 2532.00,2575.00
             2532.00,2575.00 2553.00,2577.00 2553.00,2577.00
             2553.00,2577.00 2597.00,2577.00 2597.00,2577.00
             2597.00,2577.00 2626.00,2574.71 2626.00,2574.71
             2626.00,2574.71 2635.00,2573.00 2635.00,2573.00
             2635.00,2573.00 2642.00,2573.00 2642.00,2573.00
             2655.04,2571.56 2685.17,2565.81 2698.00,2562.42
             2723.31,2555.72 2747.41,2546.17 2771.00,2534.90
             2773.17,2533.86 2777.98,2531.65 2779.68,2530.31
             2781.08,2529.21 2782.92,2526.75 2784.28,2526.16
             2787.44,2524.81 2788.75,2528.56 2788.79,2531.00
             2788.86,2535.14 2784.74,2542.96 2783.00,2547.00
             2796.60,2535.14 2814.23,2509.32 2819.96,2492.00
             2822.53,2484.23 2821.67,2478.59 2822.43,2476.06
             2822.93,2474.38 2824.39,2471.99 2826.48,2473.17
             2829.46,2474.84 2828.82,2482.98 2829.18,2486.00
             2829.18,2486.00 2830.26,2491.00 2830.26,2491.00
             2833.77,2506.45 2829.73,2529.91 2825.12,2545.00
             2825.12,2545.00 2819.00,2563.00 2819.00,2563.00
             2819.00,2563.00 2834.00,2549.00 2834.00,2549.00
             2839.32,2570.87 2821.18,2588.44 2810.00,2605.00
             2814.71,2606.66 2821.24,2606.23 2825.87,2604.27
             2828.61,2603.11 2830.87,2599.22 2833.40,2601.08
             2836.05,2603.01 2832.85,2609.55 2832.00,2612.00
             2835.65,2611.43 2846.57,2606.58 2848.34,2611.31
             2849.52,2614.44 2845.97,2617.89 2844.15,2620.00
             2838.34,2626.74 2833.92,2630.65 2827.00,2636.19
             2820.36,2641.51 2809.80,2648.41 2802.00,2651.77
             2802.00,2651.77 2790.00,2656.90 2790.00,2656.90
             2790.00,2656.90 2777.00,2665.65 2777.00,2665.65
             2777.00,2665.65 2755.00,2679.15 2755.00,2679.15
             2708.33,2705.64 2647.26,2728.28 2594.00,2735.29
             2594.00,2735.29 2572.00,2738.90 2572.00,2738.90
             2572.00,2738.90 2563.00,2738.90 2563.00,2738.90
             2563.00,2738.90 2553.00,2740.00 2553.00,2740.00
             2553.00,2740.00 2526.00,2739.00 2526.00,2739.00
             2528.92,2743.18 2537.31,2757.09 2529.72,2760.87
             2527.34,2762.06 2524.24,2760.17 2522.00,2759.28
             2522.00,2759.28 2503.00,2752.83 2503.00,2752.83
             2488.42,2748.04 2473.13,2743.95 2458.00,2741.32
             2458.00,2741.32 2441.00,2738.86 2441.00,2738.86
             2441.00,2738.86 2431.00,2737.00 2431.00,2737.00
             2450.57,2756.96 2467.54,2779.70 2479.55,2805.00
             2482.56,2811.34 2489.92,2826.41 2489.74,2833.00
             2489.62,2837.44 2487.75,2841.86 2486.35,2846.00
             2482.81,2856.53 2477.57,2870.75 2467.99,2877.30
             2464.47,2879.70 2455.45,2881.88 2451.00,2883.14
             2451.00,2883.14 2420.00,2891.73 2420.00,2891.73
             2420.00,2891.73 2363.00,2905.33 2363.00,2905.33
             2363.00,2905.33 2344.00,2910.41 2344.00,2910.41
             2344.00,2910.41 2301.00,2917.00 2301.00,2917.00
             2302.14,2922.09 2306.60,2930.81 2308.91,2936.00
             2308.91,2936.00 2324.86,2973.00 2324.86,2973.00
             2337.97,3005.02 2349.51,3037.70 2358.91,3071.00
             2363.87,3088.58 2370.79,3119.10 2371.00,3137.00
             2371.11,3147.07 2371.33,3154.03 2368.96,3164.00
             2364.38,3183.32 2352.79,3200.66 2337.00,3212.53
             2334.88,3214.12 2330.25,3217.49 2328.00,3218.56
             2328.00,3218.56 2300.00,3223.30 2300.00,3223.30
             2300.00,3223.30 2282.00,3226.68 2282.00,3226.68
             2282.00,3226.68 2274.00,3227.29 2274.00,3227.29
             2274.00,3227.29 2250.00,3231.00 2250.00,3231.00
             2250.00,3231.00 2243.00,3231.00 2243.00,3231.00
             2243.00,3231.00 2220.00,3233.17 2220.00,3233.17
             2220.00,3233.17 2199.00,3235.00 2199.00,3235.00
             2199.00,3235.00 2183.00,3236.00 2183.00,3236.00
             2183.00,3236.00 2155.00,3237.00 2155.00,3237.00
             2155.00,3237.00 2140.00,3238.04 2140.00,3238.04
             2140.00,3238.04 2129.00,3238.04 2129.00,3238.04
             2129.00,3238.04 2117.00,3239.00 2117.00,3239.00
             2117.00,3239.00 2074.00,3239.00 2074.00,3239.00
             2074.00,3239.00 2054.00,3238.00 2054.00,3238.00
             2054.00,3238.00 2044.00,3237.04 2044.00,3237.04
             2044.00,3237.04 2036.00,3237.04 2036.00,3237.04
             2036.00,3237.04 2018.00,3236.00 2018.00,3236.00
             2002.43,3235.81 1961.93,3229.22 1946.00,3225.59
             1939.41,3224.09 1933.56,3226.21 1923.00,3220.42
             1907.25,3211.77 1901.70,3194.82 1899.30,3178.00
             1899.30,3178.00 1898.79,3166.00 1898.79,3166.00
             1897.66,3158.57 1895.02,3161.39 1895.00,3149.00
             1895.00,3149.00 1895.00,3138.00 1895.00,3138.00
             1895.04,3130.67 1895.91,3129.52 1896.94,3123.00
             1896.94,3123.00 1896.94,3115.00 1896.94,3115.00
             1896.94,3115.00 1899.00,3103.00 1899.00,3103.00
             1899.00,3103.00 1899.00,3093.00 1899.00,3093.00
             1899.00,3093.00 1900.70,3085.00 1900.70,3085.00
             1900.70,3085.00 1901.29,3077.00 1901.29,3077.00
             1901.29,3077.00 1903.04,3066.00 1903.04,3066.00
             1903.04,3066.00 1903.04,3058.00 1903.04,3058.00
             1903.04,3058.00 1904.83,3049.00 1904.83,3049.00
             1904.83,3049.00 1907.09,3017.00 1907.09,3017.00
             1907.09,3017.00 1908.96,2999.00 1908.96,2999.00
             1908.96,2999.00 1908.96,2985.00 1908.96,2985.00
             1908.96,2985.00 1910.00,2962.00 1910.00,2962.00
             1910.00,2962.00 1909.00,2943.00 1909.00,2943.00
             1909.00,2943.00 1882.00,2945.00 1882.00,2945.00
             1882.00,2945.00 1856.00,2945.00 1856.00,2945.00
             1856.00,2945.00 1840.00,2944.00 1840.00,2944.00
             1831.84,2943.96 1829.20,2943.88 1821.00,2942.72
             1821.00,2942.72 1812.00,2941.17 1812.00,2941.17
             1797.71,2939.67 1780.85,2937.73 1767.00,2934.14
             1767.00,2934.14 1750.00,2931.32 1750.00,2931.32
             1745.25,2930.25 1737.77,2927.38 1733.00,2927.26
             1729.77,2927.18 1723.41,2929.27 1721.90,2932.33
             1720.16,2935.84 1729.04,2945.00 1731.27,2948.00
             1731.27,2948.00 1749.30,2973.00 1749.30,2973.00
             1749.30,2973.00 1763.20,2996.00 1763.20,2996.00
             1785.56,3033.54 1798.55,3073.89 1804.70,3117.00
             1804.70,3117.00 1805.28,3126.00 1805.28,3126.00
             1805.28,3126.00 1809.28,3157.00 1809.28,3157.00
             1809.71,3160.29 1811.04,3169.19 1810.32,3172.00
             1808.01,3181.00 1793.56,3196.05 1786.42,3201.96
             1763.18,3221.22 1733.84,3235.99 1705.00,3244.75
             1705.00,3244.75 1665.00,3254.68 1665.00,3254.68
             1665.00,3254.68 1657.00,3255.46 1657.00,3255.46
             1657.00,3255.46 1633.00,3259.00 1633.00,3259.00
             1633.00,3259.00 1610.00,3261.00 1610.00,3261.00
             1610.00,3261.00 1600.00,3261.00 1600.00,3261.00
             1600.00,3261.00 1578.00,3263.04 1578.00,3263.04
             1578.00,3263.04 1566.00,3263.04 1566.00,3263.04
             1566.00,3263.04 1554.00,3263.99 1554.00,3263.99
             1554.00,3263.99 1542.00,3263.00 1542.00,3263.00
             1542.00,3263.00 1502.00,3263.00 1502.00,3263.00
             1502.00,3263.00 1485.00,3263.99 1485.00,3263.99
             1485.00,3263.99 1475.00,3263.02 1475.00,3263.02
             1475.00,3263.02 1458.00,3263.02 1458.00,3263.02
             1458.00,3263.02 1429.00,3261.00 1429.00,3261.00
             1429.00,3261.00 1412.00,3260.04 1412.00,3260.04
             1412.00,3260.04 1388.00,3258.83 1388.00,3258.83
             1388.00,3258.83 1377.00,3257.17 1377.00,3257.17
             1377.00,3257.17 1360.00,3255.72 1360.00,3255.72
             1360.00,3255.72 1332.00,3251.29 1332.00,3251.29
             1332.00,3251.29 1312.00,3248.13 1312.00,3248.13
             1305.16,3247.18 1297.76,3246.86 1292.00,3242.57
             1278.72,3232.70 1278.59,3218.03 1275.51,3203.00
             1273.71,3194.20 1274.87,3191.58 1267.71,3184.10
             1263.32,3179.52 1242.36,3170.81 1235.00,3166.98
             1208.10,3152.97 1172.71,3130.76 1162.09,3101.00
             1154.51,3079.78 1158.93,3059.00 1170.14,3040.00
             1173.22,3034.80 1184.04,3022.54 1184.60,3019.00
             1186.29,3008.31 1170.92,2990.69 1163.00,2985.00
             1158.02,2994.67 1139.04,3000.23 1129.00,3003.49
             1103.81,3011.68 1067.44,3017.88 1041.00,3018.00
             1041.00,3018.00 1024.00,3018.00 1024.00,3018.00
             1008.92,3017.83 992.42,3016.22 978.00,3011.69
             973.28,3010.22 963.89,3005.49 967.90,2999.15
             970.94,2994.34 974.22,2998.16 985.00,2994.81
             998.41,2990.64 1021.64,2984.19 1033.00,2977.00
             1033.00,2977.00 1007.00,2982.41 1007.00,2982.41
             1007.00,2982.41 978.00,2986.83 978.00,2986.83
             978.00,2986.83 955.00,2988.04 955.00,2988.04
             955.00,2988.04 944.00,2989.00 944.00,2989.00
             944.00,2989.00 918.00,2990.09 918.00,2990.09
             918.00,2990.09 906.00,2991.00 906.00,2991.00
             906.00,2991.00 862.00,2991.00 862.00,2991.00
             862.00,2991.00 837.00,2989.09 837.00,2989.09
             837.00,2989.09 815.00,2987.83 815.00,2987.83
             815.00,2987.83 797.00,2985.29 797.00,2985.29
             770.29,2981.69 745.43,2976.31 720.00,2967.12
             676.24,2951.29 635.89,2923.59 609.35,2885.00
             601.81,2874.04 597.93,2865.95 592.46,2854.00
             591.40,2851.69 587.72,2845.07 590.61,2843.08
             593.11,2841.36 598.48,2845.77 601.00,2846.95
             601.00,2846.95 611.00,2851.13 611.00,2851.13
             619.58,2855.27 623.11,2857.98 633.00,2860.00
             629.72,2854.64 622.66,2848.68 618.00,2844.00
             611.07,2837.03 605.14,2830.00 599.43,2822.00
             581.65,2797.12 569.48,2771.35 564.87,2741.00
             563.69,2733.24 563.01,2735.07 562.96,2726.00
             562.96,2726.00 562.96,2713.00 562.96,2713.00
             562.96,2713.00 562.00,2703.00 562.00,2703.00
             562.00,2703.00 562.00,2698.00 562.00,2698.00
             562.00,2698.00 563.04,2688.00 563.04,2688.00
             563.04,2688.00 563.04,2680.00 563.04,2680.00
             563.04,2680.00 564.72,2671.00 564.72,2671.00
             568.67,2643.09 573.96,2624.35 583.77,2598.00
             615.28,2513.35 675.83,2443.01 755.00,2399.54
             788.82,2380.96 826.19,2365.62 865.00,2362.91
             865.00,2362.91 874.00,2362.01 874.00,2362.01
             874.00,2362.01 906.00,2364.96 906.00,2364.96
             908.16,2364.89 913.44,2363.69 914.28,2366.44
             915.06,2368.99 910.81,2373.77 909.48,2376.00
             906.27,2381.36 903.42,2389.79 902.60,2396.00
             902.18,2399.21 902.49,2405.69 907.05,2405.82
             909.83,2405.90 920.26,2397.49 923.00,2395.48
             923.00,2395.48 957.00,2375.03 957.00,2375.03
             992.13,2356.30 1040.94,2335.38 1080.00,2328.00
             1080.00,2328.00 1078.00,2343.00 1078.00,2343.00
             1078.00,2343.00 1094.00,2332.00 1094.00,2332.00
             1098.36,2340.02 1097.00,2348.08 1097.00,2357.00
             1097.00,2357.00 1130.00,2344.04 1130.00,2344.04
             1163.15,2333.92 1211.28,2328.60 1246.00,2329.00
             1246.00,2329.00 1265.00,2331.06 1265.00,2331.06
             1265.00,2331.06 1272.00,2331.06 1272.00,2331.06
             1272.00,2331.06 1284.00,2333.00 1284.00,2333.00
             1286.98,2333.15 1294.89,2333.85 1292.83,2338.83
             1291.89,2341.12 1288.08,2343.09 1286.00,2344.28
             1280.45,2347.47 1274.40,2350.26 1270.00,2355.00
             1270.00,2355.00 1291.00,2356.62 1291.00,2356.62
             1295.20,2355.81 1303.59,2351.09 1308.00,2349.09
             1308.00,2349.09 1343.00,2334.20 1343.00,2334.20
             1343.00,2334.20 1383.00,2321.28 1383.00,2321.28
             1388.01,2319.94 1401.23,2317.08 1405.00,2314.91
             1409.19,2312.51 1422.67,2298.33 1427.00,2294.00
             1440.05,2280.95 1452.73,2267.50 1464.20,2253.00
             1464.20,2253.00 1479.00,2233.20 1479.00,2233.20
             1474.61,2233.78 1467.27,2236.74 1463.43,2233.20
             1459.87,2230.31 1461.00,2218.67 1461.00,2214.00
             1461.00,2201.26 1462.47,2176.64 1456.00,2166.00
             1453.93,2169.93 1450.54,2174.58 1447.68,2178.00
             1447.68,2178.00 1440.00,2185.91 1440.00,2185.91
             1436.70,2188.94 1431.82,2193.08 1427.00,2192.17
             1422.35,2191.30 1418.95,2186.54 1416.24,2183.00
             1416.24,2183.00 1398.00,2155.00 1398.00,2155.00
             1398.00,2170.07 1398.40,2178.99 1395.11,2194.00
             1394.26,2197.89 1393.05,2204.92 1389.66,2207.31
             1387.19,2209.14 1384.62,2207.99 1382.00,2207.31
             1382.00,2207.31 1363.00,2200.52 1363.00,2200.52
             1337.42,2190.87 1306.38,2167.45 1289.66,2146.00
             1284.23,2139.03 1276.54,2126.86 1272.31,2119.00
             1269.25,2113.32 1267.76,2107.53 1263.00,2103.00
             1263.00,2103.00 1261.00,2122.00 1261.00,2122.00
             1260.95,2134.63 1265.94,2150.14 1270.37,2162.00
             1272.58,2167.92 1280.80,2179.95 1276.98,2185.69
             1274.66,2189.16 1269.39,2187.50 1266.00,2187.17
             1253.85,2185.99 1246.48,2184.06 1235.00,2179.77
             1207.33,2169.44 1186.14,2151.36 1178.27,2122.00
             1176.27,2114.53 1175.01,2109.81 1175.00,2102.00
             1175.00,2102.00 1175.00,2091.00 1175.00,2091.00
             1175.00,2091.00 1121.00,2115.77 1121.00,2115.77
             1096.79,2124.81 1071.48,2131.34 1046.00,2135.44
             1036.64,2136.94 1027.48,2138.89 1018.00,2139.00
             1018.00,2139.00 1001.00,2140.04 1001.00,2140.04
             1001.00,2140.04 988.00,2141.00 988.00,2141.00
             988.00,2141.00 980.00,2141.00 980.00,2141.00
             980.00,2141.00 970.00,2140.09 970.00,2140.09
             955.97,2139.13 944.62,2138.98 931.00,2134.14
             926.20,2132.43 917.22,2127.41 918.74,2121.04
             919.77,2116.72 931.96,2110.83 936.00,2108.63
             936.00,2108.63 986.00,2082.00 986.00,2082.00
             986.00,2082.00 972.00,2080.33 972.00,2080.33
             959.36,2077.74 951.39,2073.33 941.00,2066.04
             938.71,2064.43 928.27,2058.89 930.17,2055.54
             931.04,2054.02 934.41,2053.51 936.00,2053.29
             936.00,2053.29 953.00,2051.75 953.00,2051.75
             972.10,2048.57 993.28,2042.50 1010.00,2032.55
             1018.41,2027.55 1025.16,2021.99 1031.99,2015.00
             1044.92,2001.76 1054.62,1980.69 1054.98,1962.00
             1055.11,1955.86 1054.34,1954.60 1053.44,1949.00
             1050.26,1929.30 1044.96,1914.52 1035.37,1897.00
             1028.50,1884.45 1012.35,1861.63 1000.00,1855.00
             997.58,1859.93 996.48,1862.35 991.00,1864.00
             991.00,1864.00 987.30,1845.00 987.30,1845.00
             987.30,1845.00 986.72,1836.00 986.72,1836.00
             986.72,1836.00 983.00,1795.00 983.00,1795.00
             983.00,1795.00 982.00,1780.00 982.00,1780.00
             982.00,1780.00 981.00,1752.00 981.00,1752.00
             981.00,1752.00 982.00,1738.00 982.00,1738.00
             982.00,1738.00 983.00,1708.00 983.00,1708.00
             983.00,1708.00 984.83,1693.00 984.83,1693.00
             988.01,1660.66 990.68,1646.93 1001.00,1616.00
             998.04,1616.40 989.79,1618.63 987.60,1616.96
             985.22,1615.16 986.59,1610.52 987.00,1608.00
             987.00,1608.00 987.00,1599.00 987.00,1599.00
             987.00,1599.00 989.43,1586.00 989.43,1586.00
             993.78,1560.13 1006.10,1529.18 1020.00,1507.00
             1007.19,1505.57 1008.67,1509.61 988.00,1503.41
             984.35,1502.32 978.70,1500.23 977.74,1496.00
             977.04,1492.90 979.94,1490.74 982.02,1489.00
             982.02,1489.00 999.00,1476.21 999.00,1476.21
             1019.85,1459.79 1039.74,1440.32 1051.22,1416.00
             1055.44,1407.05 1056.69,1401.60 1058.25,1392.00
             1058.89,1388.00 1059.73,1383.70 1057.26,1380.10
             1055.15,1377.03 1048.42,1373.65 1045.00,1371.60
             1045.00,1371.60 1019.00,1355.33 1019.00,1355.33
             993.37,1338.25 969.53,1318.90 947.00,1297.91
             947.00,1297.91 929.91,1280.00 929.91,1280.00
             912.87,1261.62 899.58,1245.66 885.28,1225.00
             852.65,1177.83 826.68,1125.21 814.12,1069.00
             814.12,1069.00 807.08,1036.00 807.08,1036.00
             807.08,1036.00 807.08,1029.00 807.08,1029.00
             807.08,1029.00 805.06,1020.00 805.06,1020.00
             805.06,1020.00 805.06,1012.00 805.06,1012.00
             804.12,1004.68 803.01,1003.75 803.00,995.00
             803.00,995.00 803.00,975.00 803.00,975.00
             803.00,975.00 802.34,965.00 802.34,965.00
             802.34,965.00 803.00,956.00 803.00,956.00
             803.00,956.00 803.00,945.00 803.00,945.00
             803.00,945.00 809.46,892.00 809.46,892.00
             812.85,873.22 817.68,854.17 823.50,836.00
             823.50,836.00 832.64,809.00 832.64,809.00
             832.64,809.00 838.03,790.00 838.03,790.00
             844.57,769.61 853.98,746.75 864.27,728.00
             877.99,703.01 893.97,679.36 919.00,664.40
             922.50,662.31 938.75,654.12 942.00,653.70
             946.29,653.15 959.56,656.95 964.00,658.53
             983.87,665.61 1000.91,676.82 1014.56,693.00
             1020.48,700.02 1026.19,707.39 1031.33,715.00
             1032.61,716.89 1035.45,721.96 1037.96,721.96
             1041.17,721.96 1043.74,712.64 1044.93,710.00
             1050.40,697.85 1057.97,687.02 1065.33,676.00
             1082.94,649.67 1110.62,622.37 1136.00,603.48
             1136.00,603.48 1166.00,583.34 1166.00,583.34
             1175.17,577.41 1184.99,572.51 1195.00,568.19
             1197.74,567.00 1203.09,563.07 1205.67,564.17
             1207.87,565.10 1209.62,568.89 1210.46,571.00
             1212.75,576.81 1213.92,583.76 1214.00,590.00
             1214.16,603.73 1212.11,620.77 1208.45,634.00
             1208.45,634.00 1200.00,664.00 1200.00,664.00 Z
           M 659.00,1793.00
           C 659.00,1793.00 697.00,1793.00 697.00,1793.00
             697.00,1793.00 697.00,1849.00 697.00,1849.00
             697.00,1849.00 753.00,1849.00 753.00,1849.00
             753.00,1849.00 753.00,1887.00 753.00,1887.00
             753.00,1887.00 697.00,1887.00 697.00,1887.00
             697.00,1887.00 697.00,1943.00 697.00,1943.00
             697.00,1943.00 659.00,1943.00 659.00,1943.00
             659.00,1943.00 659.00,1887.00 659.00,1887.00
             659.00,1887.00 603.00,1887.00 603.00,1887.00
             603.00,1887.00 603.00,1849.00 603.00,1849.00
             603.00,1849.00 659.00,1849.00 659.00,1849.00
             659.00,1849.00 659.00,1793.00 659.00,1793.00 Z
           M 2864.00,2223.00
           C 2864.00,2223.00 2944.00,2223.00 2944.00,2223.00
             2944.00,2223.00 2945.00,2243.00 2945.00,2243.00
             2945.00,2243.00 2946.00,2258.00 2946.00,2258.00
             2946.00,2258.00 2946.00,2262.00 2946.00,2262.00
             2946.06,2271.19 2949.20,2271.13 2958.00,2276.40
             2960.50,2277.89 2963.29,2279.67 2966.00,2280.67
             2966.00,2280.67 3004.00,2286.92 3004.00,2286.92
             3007.72,2287.53 3018.03,2288.41 3020.51,2290.59
             3022.90,2292.71 3027.86,2305.35 3029.42,2309.00
             3032.99,2317.37 3036.95,2323.73 3037.00,2333.00
             3037.00,2333.00 3036.00,2356.00 3036.00,2356.00
             3036.00,2356.00 3036.00,2387.00 3036.00,2387.00
             3035.90,2395.20 3034.74,2397.75 3029.41,2404.00
             3027.54,2406.18 3025.78,2408.36 3023.00,2409.40
             3021.08,2410.11 3018.07,2410.00 3016.00,2410.00
             3016.00,2410.00 3000.00,2410.00 3000.00,2410.00
             3000.00,2410.00 2984.00,2409.00 2984.00,2409.00
             2984.00,2409.00 2968.00,2409.00 2968.00,2409.00
             2968.00,2409.00 2952.00,2408.00 2952.00,2408.00
             2952.00,2408.00 2869.00,2406.00 2869.00,2406.00
             2869.00,2406.00 2854.00,2405.00 2854.00,2405.00
             2854.00,2405.00 2848.00,2405.00 2848.00,2405.00
             2845.73,2405.00 2842.34,2405.22 2840.39,2403.98
             2837.89,2402.39 2832.87,2391.30 2831.00,2388.00
             2831.00,2388.00 2814.79,2356.00 2814.79,2356.00
             2814.79,2356.00 2813.00,2333.00 2813.00,2333.00
             2813.00,2333.00 2812.00,2312.00 2812.00,2312.00
             2812.06,2303.64 2812.74,2304.46 2826.00,2300.58
             2826.00,2300.58 2851.00,2292.86 2851.00,2292.86
             2853.65,2292.10 2860.68,2290.29 2862.40,2288.44
             2864.33,2286.37 2863.99,2282.66 2864.00,2280.00
             2864.00,2280.00 2864.00,2223.00 2864.00,2223.00 Z
           M 2783.00,2547.00
           C 2783.00,2547.00 2782.00,2547.00 2782.00,2547.00
             2782.00,2547.00 2783.00,2548.00 2783.00,2548.00
             2783.00,2548.00 2783.00,2547.00 2783.00,2547.00 Z
           M 2762.00,2930.00
           C 2762.00,2930.00 2800.00,2930.00 2800.00,2930.00
             2800.00,2930.00 2800.00,2986.00 2800.00,2986.00
             2800.00,2986.00 2856.00,2986.00 2856.00,2986.00
             2856.00,2986.00 2856.00,3024.00 2856.00,3024.00
             2856.00,3024.00 2800.00,3024.00 2800.00,3024.00
             2800.00,3024.00 2800.00,3080.00 2800.00,3080.00
             2800.00,3080.00 2762.00,3080.00 2762.00,3080.00
             2762.00,3080.00 2762.00,3024.00 2762.00,3024.00
             2762.00,3024.00 2706.00,3024.00 2706.00,3024.00
             2706.00,3024.00 2706.00,2986.00 2706.00,2986.00
             2706.00,2986.00 2762.00,2986.00 2762.00,2986.00
             2762.00,2986.00 2762.00,2930.00 2762.00,2930.00 Z" />
</svg>
