<?xml version="1.0" encoding="UTF-8" standalone="no"?>
<!DOCTYPE svg PUBLIC "-//W3C//DTD SVG 20010904//EN"
              "http://www.w3.org/TR/2001/REC-SVG-20010904/DTD/svg10.dtd">

<svg xmlns="http://www.w3.org/2000/svg"
     width="12in" height="12in"
     viewBox="0 0 3600 3600">
  <path id="1 red"
        fill="none" stroke="black" stroke-width="1"
        d="M 3083.00,420.00
           C 3083.00,420.00 3159.00,420.00 3159.00,420.00
             3159.00,420.00 3159.00,531.00 3159.00,531.00
             3159.00,531.00 3272.00,531.00 3272.00,531.00
             3272.00,531.00 3272.00,607.00 3272.00,607.00
             3272.00,607.00 3159.00,607.00 3159.00,607.00
             3159.00,607.00 3159.00,718.00 3159.00,718.00
             3159.00,718.00 3083.00,718.00 3083.00,718.00
             3083.00,718.00 3083.00,607.00 3083.00,607.00
             3083.00,607.00 2972.00,607.00 2972.00,607.00
             2972.00,607.00 2972.00,531.00 2972.00,531.00
             2972.00,531.00 3083.00,531.00 3083.00,531.00
             3083.00,531.00 3083.00,420.00 3083.00,420.00 Z
           M 2393.00,817.00
           C 2393.00,817.00 2410.00,816.00 2410.00,816.00
             2410.00,816.00 2437.00,816.00 2437.00,816.00
             2437.00,816.00 2496.00,816.00 2496.00,816.00
             2496.00,816.00 2513.00,814.00 2513.00,814.00
             2513.00,814.00 2751.00,814.00 2751.00,814.00
             2751.00,814.00 2765.00,816.00 2765.00,816.00
             2766.60,820.97 2766.10,823.19 2772.00,823.00
             2776.28,832.23 2770.72,836.56 2779.00,837.00
             2783.28,846.23 2777.72,850.56 2786.00,851.00
             2790.28,860.23 2784.72,864.56 2793.00,865.00
             2798.44,876.74 2790.15,885.48 2800.00,886.00
             2804.28,895.23 2798.72,899.56 2807.00,900.00
             2811.28,909.23 2805.72,913.56 2814.00,914.00
             2818.28,923.23 2812.72,927.56 2821.00,928.00
             2825.28,937.23 2819.72,941.56 2828.00,942.00
             2832.28,951.23 2826.72,955.56 2835.00,956.00
             2840.28,968.70 2832.35,976.49 2842.00,977.00
             2845.96,986.53 2840.72,990.57 2849.00,991.00
             2852.96,1000.53 2847.72,1004.57 2856.00,1005.00
             2859.96,1014.53 2854.72,1018.57 2863.00,1019.00
             2866.96,1028.53 2861.72,1032.57 2870.00,1033.00
             2873.96,1042.53 2868.72,1046.57 2877.00,1047.00
             2882.31,1059.76 2874.08,1067.48 2884.00,1068.00
             2887.96,1077.53 2882.72,1081.57 2891.00,1082.00
             2894.96,1091.53 2889.72,1095.57 2898.00,1096.00
             2901.96,1105.53 2896.72,1109.57 2905.00,1110.00
             2910.25,1124.37 2902.13,1129.83 2912.00,1131.00
             2915.72,1141.22 2910.89,1144.03 2919.00,1145.00
             2922.72,1155.22 2917.89,1158.03 2926.00,1159.00
             2929.72,1169.22 2924.89,1172.03 2933.00,1173.00
             2936.72,1183.22 2931.89,1186.03 2940.00,1187.00
             2945.02,1202.22 2937.12,1208.33 2948.00,1208.00
             2947.83,1213.70 2949.52,1214.56 2955.00,1215.00
             2955.00,1215.00 2955.96,1227.00 2955.96,1227.00
             2955.96,1227.00 2956.52,1234.52 2956.52,1234.52
             2956.52,1234.52 2962.00,1236.00 2962.00,1236.00
             2962.18,1245.57 2961.07,1250.24 2969.00,1250.00
             2969.00,1256.83 2967.01,1264.27 2976.00,1264.00
             2976.00,1271.75 2974.11,1277.27 2983.00,1278.00
             2983.00,1281.99 2982.01,1294.82 2984.60,1297.40
             2986.10,1298.90 2988.06,1298.84 2990.00,1299.00
             2990.00,1306.75 2988.11,1312.27 2997.00,1313.00
             2997.00,1320.75 2995.11,1326.27 3004.00,1327.00
             3004.00,1334.75 3002.11,1340.27 3011.00,1341.00
             3011.00,1348.75 3009.11,1354.27 3018.00,1355.00
             3018.00,1358.99 3017.01,1371.82 3019.60,1374.40
             3021.10,1375.90 3023.06,1375.84 3025.00,1376.00
             3025.00,1383.75 3023.11,1389.27 3032.00,1390.00
             3032.00,1397.75 3030.11,1403.27 3039.00,1404.00
             3039.00,1411.75 3037.11,1417.27 3046.00,1418.00
             3046.00,1425.75 3044.11,1431.27 3053.00,1432.00
             3053.00,1439.75 3051.11,1445.27 3060.00,1446.00
             3060.00,1453.75 3058.11,1459.27 3067.00,1460.00
             3067.00,1467.75 3065.11,1473.27 3074.00,1474.00
             3074.00,1477.99 3073.01,1490.82 3075.60,1493.40
             3077.10,1494.90 3079.06,1494.84 3081.00,1495.00
             3081.00,1502.75 3079.11,1508.27 3088.00,1509.00
             3088.00,1516.75 3086.11,1522.27 3095.00,1523.00
             3095.00,1530.75 3093.11,1536.27 3102.00,1537.00
             3102.00,1540.99 3101.01,1553.82 3103.60,1556.40
             3105.10,1557.90 3107.06,1557.84 3109.00,1558.00
             3109.00,1565.75 3107.11,1571.27 3116.00,1572.00
             3116.00,1579.75 3114.11,1585.27 3123.00,1586.00
             3123.00,1593.75 3121.11,1599.27 3130.00,1600.00
             3130.00,1607.75 3128.11,1613.27 3137.00,1614.00
             3137.00,1617.99 3136.01,1630.82 3138.60,1633.40
             3140.10,1634.90 3142.06,1634.84 3144.00,1635.00
             3144.00,1642.75 3142.11,1648.27 3151.00,1649.00
             3151.00,1656.75 3149.11,1662.27 3158.00,1663.00
             3158.00,1670.75 3156.11,1676.27 3165.00,1677.00
             3165.00,1684.75 3163.11,1690.27 3172.00,1691.00
             3172.00,1694.73 3171.06,1708.08 3173.60,1710.31
             3175.05,1711.58 3176.35,1711.14 3178.00,1711.00
             3179.19,1716.09 3178.91,1718.50 3185.00,1718.00
             3185.00,1718.00 3187.60,1738.31 3187.60,1738.31
             3187.60,1738.31 3192.00,1739.00 3192.00,1739.00
             3194.38,1747.37 3190.51,1753.72 3199.00,1753.00
             3201.38,1761.37 3197.51,1767.72 3206.00,1767.00
             3208.38,1775.37 3204.51,1781.72 3213.00,1781.00
             3213.00,1781.00 3215.60,1801.31 3215.60,1801.31
             3215.60,1801.31 3220.00,1802.00 3220.00,1802.00
             3222.38,1810.37 3218.51,1816.72 3227.00,1816.00
             3229.38,1824.37 3225.51,1830.72 3234.00,1830.00
             3236.38,1838.37 3232.51,1844.72 3241.00,1844.00
             3241.00,1844.00 3243.60,1864.31 3243.60,1864.31
             3243.60,1864.31 3248.00,1865.00 3248.00,1865.00
             3250.38,1873.37 3246.51,1879.72 3255.00,1879.00
             3257.38,1887.37 3253.51,1893.72 3262.00,1893.00
             3264.38,1901.37 3260.51,1907.72 3269.00,1907.00
             3271.38,1915.37 3267.51,1921.72 3276.00,1921.00
             3278.38,1929.37 3274.51,1935.72 3283.00,1935.00
             3285.38,1943.37 3281.51,1949.72 3290.00,1949.00
             3290.00,1949.00 3292.60,1969.31 3292.60,1969.31
             3292.60,1969.31 3297.00,1970.00 3297.00,1970.00
             3298.45,1975.11 3297.59,1975.52 3298.13,1979.96
             3298.13,1979.96 3299.96,1987.09 3299.96,1987.09
             3299.96,1987.09 3299.96,2007.00 3299.96,2007.00
             3299.96,2007.00 3299.96,2055.00 3299.96,2055.00
             3299.98,2064.58 3298.81,2062.03 3298.13,2068.00
             3297.91,2069.87 3298.17,2073.08 3297.40,2074.69
             3295.46,2078.76 3291.38,2075.80 3291.00,2083.00
             3286.47,2084.66 3284.28,2084.65 3284.00,2090.00
             3279.47,2091.66 3277.28,2091.65 3277.00,2097.00
             3274.94,2097.76 3272.29,2098.38 3271.02,2100.31
             3269.17,2103.14 3270.83,2107.91 3268.98,2110.42
             3266.41,2113.90 3263.36,2111.14 3263.00,2118.00
             3260.94,2118.76 3258.29,2119.38 3257.02,2121.31
             3255.17,2124.14 3256.83,2128.91 3254.98,2131.42
             3252.41,2134.90 3249.36,2132.14 3249.00,2139.00
             3244.47,2140.66 3242.28,2140.65 3242.00,2146.00
             3237.47,2147.66 3235.28,2147.65 3235.00,2153.00
             3232.94,2153.76 3230.29,2154.38 3229.02,2156.31
             3227.17,2159.14 3228.83,2163.91 3226.98,2166.42
             3224.41,2169.90 3221.36,2167.14 3221.00,2174.00
             3218.94,2174.76 3216.29,2175.38 3215.02,2177.31
             3213.17,2180.14 3214.83,2184.91 3212.98,2187.42
             3210.41,2190.90 3207.36,2188.14 3207.00,2195.00
             3202.47,2196.66 3200.28,2196.65 3200.00,2202.00
             3197.94,2202.76 3195.29,2203.38 3194.02,2205.31
             3192.17,2208.14 3193.83,2212.91 3191.98,2215.42
             3189.41,2218.90 3186.36,2216.14 3186.00,2223.00
             3181.47,2224.66 3179.28,2224.65 3179.00,2230.00
             3176.94,2230.76 3174.29,2231.38 3173.02,2233.31
             3171.17,2236.14 3172.83,2240.91 3170.98,2243.42
             3168.41,2246.90 3165.36,2244.14 3165.00,2251.00
             3160.47,2252.66 3158.28,2252.65 3158.00,2258.00
             3153.47,2259.66 3151.28,2259.65 3151.00,2265.00
             3148.94,2265.76 3146.29,2266.38 3145.02,2268.31
             3143.17,2271.14 3144.83,2275.91 3142.98,2278.42
             3140.41,2281.90 3137.36,2279.14 3137.00,2286.00
             3134.94,2286.76 3132.29,2287.38 3131.02,2289.31
             3129.17,2292.14 3130.83,2296.91 3128.98,2299.42
             3126.41,2302.90 3123.36,2300.14 3123.00,2307.00
             3118.47,2308.66 3116.28,2308.65 3116.00,2314.00
             3113.94,2314.76 3111.29,2315.38 3110.02,2317.31
             3108.17,2320.14 3109.83,2324.91 3107.98,2327.42
             3105.41,2330.90 3102.36,2328.14 3102.00,2335.00
             3097.47,2336.66 3095.28,2336.65 3095.00,2342.00
             3093.56,2342.43 3091.27,2342.92 3090.15,2343.88
             3086.54,2346.96 3089.14,2352.49 3086.98,2355.42
             3084.41,2358.90 3081.36,2356.14 3081.00,2363.00
             3076.24,2364.75 3074.64,2364.58 3074.00,2370.00
             3074.00,2370.00 3073.00,2371.00 3073.00,2371.00
             3063.83,2371.23 3069.03,2379.27 3065.98,2383.42
             3063.54,2386.74 3060.84,2383.90 3060.00,2391.00
             3060.00,2391.00 3059.00,2392.00 3059.00,2392.00
             3049.37,2393.14 3055.30,2399.91 3051.98,2404.42
             3049.54,2407.74 3046.84,2404.90 3046.00,2412.00
             3041.24,2413.75 3039.64,2413.58 3039.00,2419.00
             3039.00,2419.00 3038.00,2420.00 3038.00,2420.00
             3028.37,2421.14 3034.30,2427.91 3030.98,2432.42
             3028.54,2435.74 3025.84,2432.90 3025.00,2440.00
             3025.00,2440.00 3024.00,2441.00 3024.00,2441.00
             3015.68,2441.99 3019.29,2446.95 3017.00,2455.00
             3012.40,2455.10 3011.08,2456.43 3011.00,2461.00
             3011.00,2461.00 3010.00,2462.00 3010.00,2462.00
             3005.40,2462.10 3004.08,2463.43 3004.00,2468.00
             3004.00,2468.00 3003.00,2469.00 3003.00,2469.00
             2998.40,2469.10 2997.08,2470.43 2997.00,2475.00
             2997.00,2475.00 2996.00,2476.00 2996.00,2476.00
             2987.68,2476.99 2991.29,2481.95 2989.00,2490.00
             2984.40,2490.10 2983.08,2491.43 2983.00,2496.00
             2983.00,2496.00 2982.00,2497.00 2982.00,2497.00
             2976.45,2497.12 2976.32,2499.30 2975.00,2504.00
             2966.86,2504.43 2970.17,2510.37 2968.00,2518.00
             2963.36,2518.50 2962.08,2519.21 2962.00,2524.00
             2962.00,2524.00 2961.00,2525.00 2961.00,2525.00
             2955.30,2525.62 2955.40,2526.98 2954.00,2532.00
             2946.37,2532.40 2950.10,2536.60 2947.00,2546.00
             2941.58,2546.64 2941.75,2548.24 2940.00,2553.00
             2932.37,2553.40 2936.10,2557.60 2933.00,2567.00
             2927.58,2567.64 2927.75,2569.24 2926.00,2574.00
             2920.58,2574.64 2920.75,2576.24 2919.00,2581.00
             2913.65,2581.28 2913.66,2583.47 2912.00,2588.00
             2905.60,2588.34 2907.11,2591.12 2906.62,2596.00
             2906.38,2598.30 2905.77,2599.87 2905.00,2602.00
             2899.10,2601.81 2899.60,2604.03 2898.00,2609.00
             2889.72,2609.43 2894.96,2613.47 2891.00,2623.00
             2885.10,2622.81 2885.60,2625.03 2884.00,2630.00
             2878.10,2629.81 2878.60,2632.03 2877.00,2637.00
             2868.72,2637.43 2873.96,2641.47 2870.00,2651.00
             2864.10,2650.81 2864.60,2653.03 2863.00,2658.00
             2857.10,2657.81 2857.60,2660.03 2856.00,2665.00
             2847.72,2665.43 2852.96,2669.47 2849.00,2679.00
             2843.10,2678.81 2843.60,2681.03 2842.00,2686.00
             2836.10,2685.81 2836.60,2688.03 2835.00,2693.00
             2829.10,2692.81 2829.60,2695.03 2828.00,2700.00
             2819.72,2700.44 2825.28,2704.77 2821.00,2714.00
             2815.10,2713.81 2815.60,2716.03 2814.00,2721.00
             2805.72,2721.44 2811.28,2725.77 2807.00,2735.00
             2801.10,2734.81 2801.60,2737.03 2800.00,2742.00
             2794.10,2741.81 2794.60,2744.03 2793.00,2749.00
             2784.72,2749.44 2790.28,2753.77 2786.00,2763.00
             2780.10,2762.81 2780.60,2765.03 2779.00,2770.00
             2773.10,2769.81 2773.60,2772.03 2772.00,2777.00
             2766.10,2776.81 2766.60,2779.03 2765.00,2784.00
             2765.00,2784.00 2751.00,2786.00 2751.00,2786.00
             2751.00,2786.00 2700.00,2786.00 2700.00,2786.00
             2700.00,2786.00 2685.00,2784.00 2685.00,2784.00
             2685.00,2784.00 2666.00,2783.00 2666.00,2783.00
             2665.78,2776.76 2663.62,2777.04 2658.00,2777.00
             2649.14,2776.94 2623.88,2777.96 2617.00,2776.00
             2616.77,2769.23 2613.79,2770.01 2608.00,2770.00
             2608.00,2770.00 2574.00,2770.00 2574.00,2770.00
             2567.77,2770.00 2559.89,2770.67 2554.00,2769.00
             2553.81,2763.39 2552.37,2763.10 2547.00,2763.00
             2539.41,2762.86 2525.68,2763.90 2519.00,2762.00
             2518.81,2756.39 2517.37,2756.10 2512.00,2756.00
             2504.41,2755.86 2490.68,2756.90 2484.00,2755.00
             2484.48,2749.31 2482.08,2749.10 2477.00,2749.00
             2467.75,2748.83 2442.13,2750.02 2435.00,2748.00
             2435.48,2742.31 2433.08,2742.10 2428.00,2742.00
             2428.00,2742.00 2397.00,2742.00 2397.00,2742.00
             2391.08,2742.00 2384.71,2742.62 2379.00,2741.00
             2379.57,2734.25 2375.32,2735.01 2370.00,2735.00
             2362.95,2734.99 2350.28,2735.78 2344.00,2734.00
             2344.57,2727.25 2340.32,2728.01 2335.00,2728.00
             2328.89,2727.99 2321.85,2728.66 2316.00,2727.00
             2316.48,2721.31 2314.08,2721.10 2309.00,2721.00
             2299.75,2720.83 2274.13,2722.02 2267.00,2720.00
             2267.53,2713.73 2264.23,2714.04 2259.00,2714.00
             2259.00,2714.00 2205.00,2714.00 2205.00,2714.00
             2205.00,2714.00 2202.69,2708.02 2202.69,2708.02
             2202.69,2708.02 2196.00,2707.00 2196.00,2707.00
             2196.00,2707.00 2170.00,2707.00 2170.00,2707.00
             2170.00,2707.00 2167.69,2701.02 2167.69,2701.02
             2167.69,2701.02 2160.00,2700.00 2160.00,2700.00
             2160.00,2700.00 2142.00,2700.00 2142.00,2700.00
             2141.50,2693.85 2140.02,2693.12 2134.00,2693.00
             2134.00,2693.00 2086.00,2693.00 2086.00,2693.00
             2085.50,2686.85 2084.02,2686.12 2078.00,2686.00
             2078.00,2686.00 2037.00,2686.00 2037.00,2686.00
             2036.77,2683.24 2036.80,2680.88 2033.85,2679.60
             2031.84,2678.72 2024.57,2679.00 2022.00,2679.00
             2022.00,2679.00 1995.00,2679.00 1995.00,2679.00
             1994.27,2670.06 1989.45,2672.03 1976.00,2672.00
             1973.90,2672.00 1970.31,2672.24 1968.58,2670.98
             1966.90,2669.75 1966.83,2667.39 1964.69,2666.02
             1962.77,2664.79 1959.25,2665.00 1957.00,2665.00
             1957.00,2665.00 1926.00,2665.00 1926.00,2665.00
             1924.08,2664.99 1921.19,2665.15 1919.58,2663.98
             1917.90,2662.75 1917.83,2660.39 1915.69,2659.02
             1913.77,2657.79 1910.25,2658.00 1908.00,2658.00
             1908.00,2658.00 1871.00,2658.00 1871.00,2658.00
             1868.90,2658.00 1865.31,2658.24 1863.58,2656.98
             1861.37,2655.36 1862.07,2652.44 1857.94,2651.16
             1857.94,2651.16 1829.00,2651.16 1829.00,2651.16
             1826.90,2651.00 1823.31,2651.24 1821.58,2649.98
             1819.61,2648.54 1819.95,2645.93 1816.86,2644.60
             1814.49,2643.58 1802.42,2644.06 1799.00,2644.00
             1790.08,2643.83 1793.78,2640.64 1789.69,2638.02
             1787.77,2636.79 1784.25,2637.00 1782.00,2637.00
             1782.00,2637.00 1753.00,2637.00 1753.00,2637.00
             1747.35,2637.00 1741.47,2637.55 1736.00,2636.00
             1736.00,2636.00 1736.00,2630.00 1736.00,2630.00
             1736.00,2630.00 1700.00,2630.00 1700.00,2630.00
             1700.00,2630.00 1680.00,2629.00 1680.00,2629.00
             1679.81,2623.39 1678.37,2623.10 1673.00,2623.00
             1665.41,2622.86 1651.68,2623.90 1645.00,2622.00
             1645.00,2622.00 1644.09,2617.60 1644.09,2617.60
             1644.09,2617.60 1636.00,2616.00 1636.00,2616.00
             1636.00,2616.00 1617.00,2615.00 1617.00,2615.00
             1616.78,2608.76 1614.62,2609.04 1609.00,2609.00
             1600.14,2608.94 1574.88,2609.96 1568.00,2608.00
             1567.77,2601.23 1564.79,2602.01 1559.00,2602.00
             1559.00,2602.00 1525.00,2602.00 1525.00,2602.00
             1518.77,2602.00 1510.89,2602.67 1505.00,2601.00
             1505.21,2594.27 1501.47,2595.01 1496.00,2595.00
             1488.95,2594.99 1476.28,2595.78 1470.00,2594.00
             1470.21,2587.27 1466.47,2588.01 1461.00,2588.00
             1454.89,2587.99 1447.85,2588.66 1442.00,2587.00
             1442.18,2581.37 1440.14,2581.10 1435.00,2581.00
             1425.75,2580.83 1400.13,2582.02 1393.00,2580.00
             1393.48,2574.31 1391.08,2574.10 1386.00,2574.00
             1386.00,2574.00 1355.00,2574.00 1355.00,2574.00
             1349.08,2574.00 1342.71,2574.62 1337.00,2573.00
             1337.48,2567.31 1335.08,2567.10 1330.00,2567.00
             1321.57,2566.85 1301.92,2567.97 1295.00,2566.00
             1295.57,2559.25 1291.32,2560.01 1286.00,2560.00
             1279.89,2559.99 1272.85,2560.66 1267.00,2559.00
             1267.48,2553.31 1265.08,2553.10 1260.00,2553.00
             1250.75,2552.83 1225.13,2554.02 1218.00,2552.00
             1218.48,2546.31 1216.08,2546.10 1211.00,2546.00
             1211.00,2546.00 1163.00,2546.00 1163.00,2546.00
             1163.00,2546.00 1160.69,2540.02 1160.69,2540.02
             1160.69,2540.02 1154.00,2539.00 1154.00,2539.00
             1154.00,2539.00 1128.00,2539.00 1128.00,2539.00
             1127.27,2530.11 1121.75,2532.00 1114.00,2532.00
             1113.55,2526.45 1112.68,2525.19 1107.00,2525.00
             1106.55,2519.45 1105.68,2518.19 1100.00,2518.00
             1099.55,2512.45 1098.68,2511.19 1093.00,2511.00
             1092.55,2505.45 1091.68,2504.19 1086.00,2504.00
             1083.55,2493.94 1088.01,2490.28 1079.00,2490.00
             1075.57,2475.90 1082.54,2469.33 1072.00,2469.00
             1068.57,2454.90 1075.54,2448.33 1065.00,2448.00
             1062.55,2437.94 1067.01,2434.28 1058.00,2434.00
             1055.55,2423.94 1060.01,2420.28 1051.00,2420.00
             1048.55,2409.94 1053.01,2406.28 1044.00,2406.00
             1040.63,2392.12 1047.50,2384.67 1037.00,2385.00
             1034.49,2374.67 1039.01,2370.72 1030.00,2371.00
             1026.63,2357.12 1033.50,2349.67 1023.00,2350.00
             1020.49,2339.67 1025.01,2335.72 1016.00,2336.00
             1012.64,2322.17 1019.43,2315.87 1009.00,2315.00
             1008.84,2312.99 1008.91,2311.18 1007.41,2309.59
             1005.61,2307.71 1003.06,2308.34 1001.74,2305.71
             1000.08,2302.40 1001.86,2291.96 1000.54,2289.31
             999.29,2286.79 996.66,2287.40 995.17,2285.43
             993.17,2282.78 994.77,2277.78 993.54,2275.31
             992.41,2273.05 990.09,2273.25 988.73,2272.03
             986.87,2270.35 987.03,2267.30 987.00,2265.00
             986.97,2262.33 987.62,2255.54 986.10,2253.59
             984.60,2251.69 982.05,2252.35 980.74,2249.71
             979.41,2247.04 980.68,2242.59 979.54,2240.31
             978.29,2237.79 975.66,2238.40 974.17,2236.43
             972.17,2233.78 973.77,2228.78 972.54,2226.31
             971.41,2224.05 969.09,2224.25 967.73,2223.03
             965.87,2221.35 966.03,2218.30 966.00,2216.00
             965.97,2213.33 966.62,2206.54 965.10,2204.59
             963.60,2202.69 961.05,2203.35 959.74,2200.71
             958.26,2197.74 960.01,2193.03 958.10,2190.59
             956.60,2188.69 954.05,2189.35 952.74,2186.71
             951.41,2184.04 952.68,2179.59 951.54,2177.31
             950.41,2175.05 948.09,2175.25 946.73,2174.03
             944.87,2172.35 945.03,2169.30 945.00,2167.00
             944.97,2164.33 945.62,2157.54 944.10,2155.59
             942.60,2153.69 940.05,2154.35 938.74,2151.71
             937.41,2149.04 938.68,2144.59 937.54,2142.31
             936.41,2140.05 934.09,2140.25 932.73,2139.03
             930.87,2137.35 931.03,2134.30 931.00,2132.00
             930.97,2129.33 931.62,2122.54 930.10,2120.59
             928.60,2118.69 926.05,2119.35 924.74,2116.71
             923.26,2113.74 925.01,2109.03 923.10,2106.59
             921.60,2104.69 919.05,2105.35 917.74,2102.71
             916.41,2100.04 917.68,2095.59 916.54,2093.31
             915.41,2091.05 913.09,2091.25 911.73,2090.03
             909.87,2088.35 910.03,2085.30 910.00,2083.00
             909.97,2080.33 910.62,2073.54 909.10,2071.59
             907.60,2069.69 905.05,2070.35 903.74,2067.71
             902.26,2064.74 904.01,2060.03 902.10,2057.59
             900.60,2055.69 898.05,2056.35 896.74,2053.71
             895.41,2051.04 896.68,2046.59 895.54,2044.31
             894.41,2042.05 892.09,2042.25 890.73,2041.03
             888.87,2039.35 889.03,2036.30 889.00,2034.00
             888.97,2031.33 889.62,2024.54 888.10,2022.59
             886.61,2020.70 884.04,2021.34 882.74,2018.71
             881.34,2015.87 882.95,2011.77 881.66,2009.31
             880.35,2006.85 877.65,2007.38 876.17,2005.43
             874.07,2002.64 876.03,1997.91 874.66,1995.31
             873.36,1992.85 870.65,1993.38 869.17,1991.43
             867.46,1989.16 868.03,1981.93 868.13,1979.00
             868.42,1970.27 864.76,1973.85 862.17,1970.43
             860.07,1967.64 862.03,1962.91 860.66,1960.31
             859.20,1957.56 856.19,1958.62 854.74,1955.71
             852.91,1952.04 854.76,1945.05 854.15,1941.06
             853.39,1936.13 849.41,1938.10 847.74,1934.71
             846.34,1931.87 847.95,1927.77 846.66,1925.31
             845.06,1922.29 841.66,1923.87 840.43,1919.87
             839.61,1917.18 840.82,1913.51 839.66,1911.31
             838.20,1908.56 835.17,1909.61 833.74,1906.71
             832.34,1903.87 833.95,1899.77 832.66,1897.31
             831.20,1894.56 828.19,1895.62 826.74,1892.71
             825.63,1890.48 826.04,1883.69 826.13,1881.00
             826.44,1871.72 821.95,1876.19 819.74,1871.71
             818.34,1868.87 819.95,1864.77 818.66,1862.31
             817.49,1860.10 815.06,1860.22 813.73,1859.03
             810.97,1856.54 812.79,1851.77 811.98,1849.15
             810.81,1845.36 807.32,1846.88 805.74,1843.71
             802.48,1837.17 809.78,1825.15 800.00,1826.00
             794.56,1814.26 802.85,1805.52 793.00,1805.00
             791.40,1800.03 791.90,1797.81 786.00,1798.00
             784.40,1793.03 784.90,1790.81 779.00,1791.00
             777.40,1786.03 777.90,1783.81 772.00,1784.00
             770.40,1779.03 770.90,1776.81 765.00,1777.00
             763.40,1772.03 763.90,1769.81 758.00,1770.00
             758.00,1770.00 757.00,1763.00 757.00,1763.00
             754.58,1763.00 747.14,1763.29 745.31,1762.40
             741.12,1760.37 744.93,1755.75 737.00,1756.00
             735.40,1751.03 735.90,1748.81 730.00,1749.00
             728.40,1744.03 728.90,1741.81 723.00,1742.00
             722.61,1740.56 722.05,1737.67 721.11,1736.60
             718.55,1733.68 712.43,1736.14 709.59,1733.98
             706.28,1731.45 709.49,1727.76 702.00,1728.00
             700.40,1723.03 700.90,1720.81 695.00,1721.00
             693.40,1716.03 693.90,1713.81 688.00,1714.00
             686.40,1709.03 686.90,1706.81 681.00,1707.00
             679.40,1702.03 679.90,1699.81 674.00,1700.00
             672.40,1695.03 672.90,1692.81 667.00,1693.00
             666.61,1691.56 666.05,1688.67 665.11,1687.60
             662.55,1684.68 656.43,1687.14 653.59,1684.98
             650.28,1682.45 653.49,1678.76 646.00,1679.00
             644.40,1674.03 644.90,1671.81 639.00,1672.00
             637.64,1667.05 638.06,1664.80 632.00,1665.00
             630.64,1660.05 631.06,1657.80 625.00,1658.00
             622.09,1647.27 620.85,1653.08 610.00,1650.00
             609.83,1645.08 609.10,1643.84 604.00,1644.00
             602.63,1638.95 602.93,1636.81 597.00,1637.00
             595.63,1631.95 595.93,1629.81 590.00,1630.00
             588.63,1624.95 588.93,1622.81 583.00,1623.00
             581.56,1617.69 582.00,1616.21 576.00,1616.00
             576.00,1616.00 575.00,1615.00 575.00,1615.00
             574.82,1609.91 574.09,1609.18 569.00,1609.00
             569.00,1609.00 568.00,1608.00 568.00,1608.00
             567.82,1602.91 567.09,1602.18 562.00,1602.00
             562.00,1602.00 561.00,1601.00 561.00,1601.00
             560.70,1592.22 555.97,1596.55 547.00,1594.00
             546.82,1588.91 546.09,1588.18 541.00,1588.00
             541.00,1588.00 540.00,1587.00 540.00,1587.00
             539.82,1581.91 539.09,1581.18 534.00,1581.00
             534.00,1581.00 533.00,1580.00 533.00,1580.00
             532.82,1574.91 532.09,1574.18 527.00,1574.00
             527.00,1574.00 526.00,1573.00 526.00,1573.00
             525.82,1567.91 525.09,1567.18 520.00,1567.00
             520.00,1567.00 519.00,1566.00 519.00,1566.00
             518.79,1560.00 517.31,1560.44 512.00,1559.00
             512.27,1550.43 506.51,1554.42 498.00,1552.00
             497.82,1546.91 497.09,1546.18 492.00,1546.00
             492.00,1546.00 491.00,1545.00 491.00,1545.00
             490.82,1539.91 490.09,1539.18 485.00,1539.00
             485.00,1539.00 484.00,1538.00 484.00,1538.00
             483.79,1532.00 482.31,1532.44 477.00,1531.00
             477.19,1525.07 475.05,1525.37 470.00,1524.00
             470.19,1518.07 468.05,1518.37 463.00,1517.00
             463.27,1508.43 457.51,1512.42 449.00,1510.00
             449.19,1504.07 447.05,1504.37 442.00,1503.00
             442.19,1497.07 440.05,1497.37 435.00,1496.00
             435.21,1489.85 433.03,1490.32 428.00,1489.00
             428.21,1482.85 426.03,1483.32 421.00,1482.00
             421.21,1475.85 419.03,1476.32 414.00,1475.00
             414.21,1468.85 412.03,1469.32 407.00,1468.00
             407.26,1459.85 403.21,1464.12 393.00,1461.00
             393.19,1455.10 390.97,1455.60 386.00,1454.00
             386.19,1448.10 383.97,1448.60 379.00,1447.00
             379.19,1441.10 376.97,1441.60 372.00,1440.00
             372.19,1434.10 369.97,1434.60 365.00,1433.00
             365.19,1427.10 362.97,1427.60 358.00,1426.00
             358.19,1420.10 355.97,1420.60 351.00,1419.00
             351.19,1413.10 348.97,1413.60 344.00,1412.00
             344.27,1403.47 340.32,1408.76 330.00,1405.00
             330.19,1399.10 327.97,1399.60 323.00,1398.00
             323.19,1392.10 320.97,1392.60 316.00,1391.00
             316.19,1385.10 313.97,1385.60 309.00,1384.00
             309.19,1378.10 306.97,1378.60 302.00,1377.00
             302.00,1377.00 300.00,1365.00 300.00,1365.00
             300.00,1365.00 300.00,1335.00 300.00,1335.00
             300.00,1335.00 302.00,1321.00 302.00,1321.00
             306.97,1319.40 309.19,1319.90 309.00,1314.00
             315.86,1310.82 324.53,1312.00 332.00,1312.00
             332.00,1312.00 378.00,1312.00 378.00,1312.00
             380.64,1312.00 385.13,1311.60 387.03,1313.74
             388.22,1315.09 388.14,1317.66 390.31,1318.91
             391.89,1319.64 396.93,1319.03 399.00,1318.91
             401.92,1318.97 411.55,1318.66 413.71,1319.74
             416.38,1321.07 415.73,1323.73 417.59,1325.32
             419.43,1326.87 426.30,1326.00 429.00,1326.00
             429.00,1326.00 457.00,1326.00 457.00,1326.00
             459.28,1326.03 462.37,1325.87 464.03,1327.74
             465.22,1329.09 465.14,1331.66 467.31,1333.08
             468.78,1333.59 475.82,1333.00 478.00,1333.08
             478.00,1333.08 503.87,1333.08 503.87,1333.08
             508.27,1334.84 506.06,1338.92 510.15,1340.04
             510.15,1340.04 519.00,1340.04 519.00,1340.04
             519.00,1340.04 553.00,1340.04 553.00,1340.04
             555.31,1340.00 559.56,1339.75 561.43,1341.17
             563.66,1342.88 562.70,1346.11 566.15,1347.12
             567.97,1347.65 578.51,1346.14 581.71,1347.74
             584.91,1349.34 583.39,1353.02 587.15,1354.04
             587.15,1354.04 595.00,1354.04 595.00,1354.04
             595.00,1354.04 623.00,1354.04 623.00,1354.04
             625.64,1354.00 630.13,1353.60 632.03,1355.74
             633.22,1357.09 633.14,1359.66 635.31,1361.08
             636.78,1361.59 643.82,1361.00 646.00,1361.08
             646.00,1361.08 671.87,1361.08 671.87,1361.08
             675.63,1362.63 674.45,1365.51 676.59,1367.24
             678.34,1368.65 682.73,1368.03 685.00,1368.00
             685.00,1368.00 715.00,1368.00 715.00,1368.00
             717.47,1368.01 721.23,1367.72 723.03,1369.74
             724.25,1371.11 724.09,1373.59 726.31,1374.92
             727.79,1375.43 732.15,1375.02 734.00,1374.92
             734.00,1374.92 750.00,1374.92 750.00,1374.92
             751.99,1375.12 754.63,1375.50 756.14,1373.88
             757.37,1372.58 757.05,1370.61 757.00,1369.00
             762.32,1368.57 763.57,1367.32 764.00,1362.00
             769.60,1361.54 770.54,1360.60 771.00,1355.00
             778.95,1354.35 776.80,1352.07 777.21,1346.00
             777.21,1346.00 778.00,1341.00 778.00,1341.00
             783.32,1340.57 784.57,1339.32 785.00,1334.00
             789.91,1333.60 791.60,1331.91 792.00,1327.00
             797.49,1326.55 798.55,1325.49 799.00,1320.00
             804.49,1319.55 805.55,1318.49 806.00,1313.00
             811.63,1312.54 812.54,1311.63 813.00,1306.00
             820.95,1305.35 818.80,1303.07 819.21,1297.00
             819.21,1297.00 820.00,1292.00 820.00,1292.00
             824.91,1291.60 826.60,1289.91 827.00,1285.00
             831.91,1284.60 833.60,1282.91 834.00,1278.00
             838.91,1277.60 840.60,1275.91 841.00,1271.00
             846.32,1270.57 847.57,1269.32 848.00,1264.00
             858.48,1264.31 851.52,1256.36 855.17,1251.57
             857.82,1248.09 861.28,1251.84 862.00,1243.00
             866.91,1242.60 868.60,1240.91 869.00,1236.00
             873.91,1235.60 875.60,1233.91 876.00,1229.00
             881.32,1228.57 882.57,1227.32 883.00,1222.00
             887.91,1221.60 889.60,1219.91 890.00,1215.00
             900.48,1215.31 893.52,1207.36 897.17,1202.57
             899.82,1199.09 903.28,1202.84 904.00,1194.00
             908.91,1193.60 910.60,1191.91 911.00,1187.00
             915.91,1186.60 917.60,1184.91 918.00,1180.00
             922.91,1179.60 924.60,1177.91 925.00,1173.00
             930.49,1172.55 931.55,1171.49 932.00,1166.00
             941.06,1165.69 936.61,1161.84 939.00,1152.00
             944.70,1152.17 945.56,1150.48 946.00,1145.00
             951.70,1145.17 952.56,1143.48 953.00,1138.00
             958.70,1138.17 959.56,1136.48 960.00,1131.00
             968.97,1131.16 964.66,1126.64 967.00,1117.00
             972.70,1117.17 973.56,1115.48 974.00,1110.00
             979.70,1110.17 980.56,1108.48 981.00,1103.00
             986.70,1103.17 987.56,1101.48 988.00,1096.00
             993.70,1096.17 994.56,1094.48 995.00,1089.00
             1000.68,1088.81 1001.55,1087.55 1002.00,1082.00
             1007.68,1081.81 1008.55,1080.55 1009.00,1075.00
             1014.68,1074.81 1015.55,1073.55 1016.00,1068.00
             1024.65,1068.15 1020.64,1063.69 1023.00,1054.00
             1028.68,1053.81 1029.55,1052.55 1030.00,1047.00
             1035.68,1046.81 1036.55,1045.55 1037.00,1040.00
             1042.68,1039.81 1043.55,1038.55 1044.00,1033.00
             1053.05,1033.25 1048.52,1029.18 1051.00,1019.00
             1056.68,1018.81 1057.55,1017.55 1058.00,1012.00
             1063.68,1011.81 1064.55,1010.55 1065.00,1005.00
             1070.68,1004.81 1071.55,1003.55 1072.00,998.00
             1077.68,997.81 1078.55,996.55 1079.00,991.00
             1084.68,990.81 1085.55,989.55 1086.00,984.00
             1094.35,984.15 1090.71,979.44 1093.00,970.00
             1098.76,970.10 1099.55,968.50 1100.00,963.00
             1105.76,963.10 1106.55,961.50 1107.00,956.00
             1112.76,956.10 1113.55,954.50 1114.00,949.00
             1119.76,949.10 1120.55,947.50 1121.00,942.00
             1126.76,942.10 1127.55,940.50 1128.00,935.00
             1136.35,935.15 1132.71,930.44 1135.00,921.00
             1140.76,921.10 1141.55,919.50 1142.00,914.00
             1147.76,914.10 1148.55,912.50 1149.00,907.00
             1154.76,907.10 1155.55,905.50 1156.00,900.00
             1164.18,900.69 1160.82,894.95 1163.00,886.00
             1168.76,886.10 1169.55,884.50 1170.00,879.00
             1175.76,879.10 1176.55,877.50 1177.00,872.00
             1182.76,872.10 1183.55,870.50 1184.00,865.00
             1189.74,865.47 1190.57,863.28 1191.00,858.00
             1196.74,858.47 1197.57,856.28 1198.00,851.00
             1205.75,851.00 1211.27,852.89 1212.00,844.00
             1212.00,844.00 1314.00,844.00 1314.00,844.00
             1314.00,844.00 1337.00,844.00 1337.00,844.00
             1342.08,843.90 1344.48,843.69 1344.00,838.00
             1344.00,838.00 1361.00,837.00 1361.00,837.00
             1361.00,837.00 1388.00,837.00 1388.00,837.00
             1388.00,837.00 1478.00,837.00 1478.00,837.00
             1478.00,837.00 1771.00,837.00 1771.00,837.00
             1771.07,835.02 1770.86,832.40 1772.60,831.02
             1774.19,829.77 1778.01,830.00 1780.00,830.00
             1780.00,830.00 1798.00,830.00 1798.00,830.00
             1798.00,830.00 1887.00,830.00 1887.00,830.00
             1887.00,830.00 2020.00,830.00 2020.00,830.00
             2022.25,830.00 2025.77,830.21 2027.69,828.98
             2029.83,827.61 2029.90,825.25 2031.58,824.02
             2033.31,822.76 2036.90,823.00 2039.00,823.00
             2039.00,823.00 2260.00,823.00 2260.00,823.00
             2260.00,823.00 2362.00,823.00 2362.00,823.00
             2362.00,823.00 2386.00,823.00 2386.00,823.00
             2391.08,822.90 2393.48,822.69 2393.00,817.00 Z
           M 613.00,3048.00
           C 613.00,3048.00 689.00,3048.00 689.00,3048.00
             689.00,3048.00 689.00,3159.00 689.00,3159.00
             689.00,3159.00 802.00,3159.00 802.00,3159.00
             802.00,3159.00 802.00,3235.00 802.00,3235.00
             802.00,3235.00 689.00,3235.00 689.00,3235.00
             689.00,3235.00 689.00,3346.00 689.00,3346.00
             689.00,3346.00 613.00,3346.00 613.00,3346.00
             613.00,3346.00 613.00,3235.00 613.00,3235.00
             613.00,3235.00 502.00,3235.00 502.00,3235.00
             502.00,3235.00 502.00,3159.00 502.00,3159.00
             502.00,3159.00 613.00,3159.00 613.00,3159.00
             613.00,3159.00 613.00,3048.00 613.00,3048.00 Z" />
</svg>
