<?xml version="1.0" encoding="UTF-8" standalone="no"?>
<!DOCTYPE svg PUBLIC "-//W3C//DTD SVG 20010904//EN"
              "http://www.w3.org/TR/2001/REC-SVG-20010904/DTD/svg10.dtd">

<svg xmlns="http://www.w3.org/2000/svg"
     width="12in" height="12in"
     viewBox="0 0 3600 3600">
  <path id="2 - second black back"
        fill="none" stroke="black" stroke-width="1"
        d="M 2289.00,2087.00
           C 2289.00,2087.00 2300.20,2117.00 2300.20,2117.00
             2307.56,2135.41 2318.76,2159.94 2331.44,2175.00
             2337.20,2181.83 2352.04,2196.17 2362.00,2194.26
             2369.09,2192.91 2376.28,2185.37 2380.60,2180.00
             2390.53,2167.65 2400.38,2147.57 2407.49,2133.00
             2407.49,2133.00 2437.78,2068.00 2437.78,2068.00
             2437.78,2068.00 2450.78,2034.22 2450.78,2034.22
             2453.76,2028.81 2461.92,2030.54 2465.73,2023.95
             2467.37,2021.09 2470.85,2008.02 2472.00,2004.00
             2476.58,1988.04 2479.34,1971.56 2480.18,1955.00
             2480.18,1955.00 2480.18,1947.00 2480.18,1947.00
             2480.18,1947.00 2480.18,1940.00 2480.18,1940.00
             2480.18,1940.00 2478.71,1919.00 2478.71,1919.00
             2478.71,1919.00 2477.00,1910.00 2477.00,1910.00
             2477.00,1910.00 2477.00,1902.00 2477.00,1902.00
             2477.00,1902.00 2475.09,1892.00 2475.09,1892.00
             2474.37,1881.52 2478.23,1866.79 2483.96,1858.00
             2486.73,1853.76 2502.58,1838.17 2507.00,1834.17
             2577.81,1770.11 2675.03,1713.35 2771.00,1700.72
             2793.01,1697.82 2816.34,1696.93 2838.00,1702.72
             2846.07,1704.88 2854.21,1707.54 2861.00,1712.61
             2868.05,1717.87 2875.13,1728.68 2878.04,1737.00
             2879.43,1740.98 2880.99,1760.16 2881.00,1765.00
             2881.00,1765.00 2881.00,1806.00 2881.00,1806.00
             2881.00,1806.00 2878.91,1835.00 2878.91,1835.00
             2878.91,1835.00 2875.00,1865.00 2875.00,1865.00
             2875.00,1865.00 2889.00,1860.00 2889.00,1860.00
             2888.92,1868.19 2883.98,1886.38 2881.73,1895.00
             2875.04,1920.64 2863.08,1949.41 2849.26,1972.00
             2849.26,1972.00 2837.76,1989.00 2837.76,1989.00
             2837.76,1989.00 2827.00,2003.00 2827.00,2003.00
             2834.47,2001.66 2854.73,1999.60 2853.69,2012.00
             2853.35,2015.95 2848.19,2023.41 2846.00,2027.00
             2851.77,2029.32 2849.77,2032.91 2846.70,2037.00
             2846.70,2037.00 2831.00,2055.00 2831.00,2055.00
             2833.64,2054.79 2842.80,2052.55 2842.80,2057.15
             2842.80,2059.64 2838.69,2063.30 2837.00,2065.00
             2837.00,2065.00 2818.09,2083.68 2818.09,2083.68
             2818.09,2083.68 2743.00,2155.00 2743.00,2155.00
             2743.00,2155.00 2723.04,2175.00 2723.04,2175.00
             2723.04,2175.00 2713.99,2185.00 2713.99,2185.00
             2713.99,2185.00 2694.19,2205.00 2694.19,2205.00
             2690.22,2209.57 2690.37,2211.37 2687.59,2215.00
             2687.59,2215.00 2674.91,2229.00 2674.91,2229.00
             2634.06,2272.85 2590.47,2314.67 2546.00,2354.83
             2526.10,2372.81 2504.74,2389.58 2483.00,2405.26
             2483.00,2405.26 2453.00,2425.00 2453.00,2425.00
             2455.14,2425.12 2465.42,2426.90 2460.39,2431.00
             2458.62,2432.44 2444.18,2433.77 2441.00,2434.15
             2434.91,2434.88 2434.19,2434.97 2428.00,2435.00
             2419.56,2435.04 2398.22,2438.62 2390.00,2441.00
             2392.12,2443.56 2396.17,2449.79 2388.98,2448.31
             2388.98,2448.31 2373.00,2442.19 2373.00,2442.19
             2354.48,2435.04 2336.62,2425.83 2319.00,2416.74
             2319.00,2416.74 2293.00,2402.14 2293.00,2402.14
             2290.20,2400.50 2282.38,2396.04 2280.31,2394.10
             2275.79,2389.87 2280.40,2385.23 2273.87,2379.78
             2273.87,2379.78 2252.00,2365.28 2252.00,2365.28
             2252.00,2365.28 2207.00,2330.27 2207.00,2330.27
             2207.00,2330.27 2177.00,2302.04 2177.00,2302.04
             2174.05,2299.26 2167.40,2295.40 2166.02,2292.90
             2164.16,2289.51 2165.72,2284.48 2166.71,2281.00
             2166.71,2281.00 2176.00,2254.00 2176.00,2254.00
             2176.00,2254.00 2196.05,2205.00 2196.05,2205.00
             2197.19,2201.89 2200.72,2189.64 2203.41,2188.63
             2207.20,2187.20 2210.31,2192.58 2212.15,2194.99
             2218.87,2203.73 2223.52,2202.42 2230.00,2215.00
             2244.98,2197.23 2246.03,2174.05 2246.00,2152.00
             2245.98,2138.16 2243.51,2140.25 2242.29,2134.91
             2242.29,2134.91 2241.71,2129.00 2241.71,2129.00
             2241.71,2129.00 2239.40,2117.00 2239.40,2117.00
             2238.72,2113.69 2236.22,2106.21 2237.60,2103.31
             2238.95,2100.48 2242.55,2101.13 2245.00,2101.78
             2251.38,2103.48 2255.67,2105.10 2259.00,2111.00
             2264.40,2106.34 2262.19,2104.05 2260.42,2098.00
             2256.99,2086.26 2256.62,2087.36 2250.72,2077.00
             2236.26,2051.63 2220.53,2030.38 2198.00,2011.44
             2198.00,2011.44 2180.06,1998.76 2180.06,1998.76
             2178.05,1997.32 2175.59,1995.10 2176.66,1992.31
             2177.64,1989.74 2183.53,1989.44 2186.00,1989.00
             2180.14,1981.00 2166.14,1973.11 2158.00,1966.13
             2155.39,1963.89 2149.12,1959.40 2150.66,1955.31
             2151.84,1952.16 2159.19,1952.99 2162.00,1953.00
             2166.34,1953.02 2176.17,1953.91 2179.96,1955.65
             2179.96,1955.65 2189.01,1961.73 2189.01,1961.73
             2189.01,1961.73 2209.00,1971.29 2209.00,1971.29
             2209.00,1971.29 2228.00,1982.79 2228.00,1982.79
             2235.75,1986.53 2235.64,1986.11 2241.94,1993.00
             2243.72,1994.94 2246.37,1997.82 2245.34,2000.72
             2243.76,2005.18 2232.93,2003.81 2229.00,2004.00
             2240.68,2015.43 2255.31,2022.75 2268.00,2033.00
             2274.61,2038.35 2272.97,2038.32 2277.64,2043.26
             2284.65,2050.66 2291.90,2057.79 2298.00,2066.00
             2302.83,2072.50 2308.53,2079.19 2311.00,2087.00
             2311.00,2087.00 2322.00,2083.00 2322.00,2083.00
             2322.00,2083.00 2326.58,2092.00 2326.58,2092.00
             2327.86,2094.93 2332.21,2102.87 2330.79,2105.51
             2328.79,2109.67 2321.85,2106.60 2319.00,2105.51
             2319.00,2105.51 2289.00,2087.00 2289.00,2087.00 Z
           M 659.00,1793.00
           C 659.00,1793.00 697.00,1793.00 697.00,1793.00
             697.00,1793.00 697.00,1849.00 697.00,1849.00
             697.00,1849.00 753.00,1849.00 753.00,1849.00
             753.00,1849.00 753.00,1887.00 753.00,1887.00
             753.00,1887.00 697.00,1887.00 697.00,1887.00
             697.00,1887.00 697.00,1943.00 697.00,1943.00
             697.00,1943.00 659.00,1943.00 659.00,1943.00
             659.00,1943.00 659.00,1887.00 659.00,1887.00
             659.00,1887.00 603.00,1887.00 603.00,1887.00
             603.00,1887.00 603.00,1849.00 603.00,1849.00
             603.00,1849.00 659.00,1849.00 659.00,1849.00
             659.00,1849.00 659.00,1793.00 659.00,1793.00 Z
           M 2289.00,2086.00
           C 2289.00,2086.00 2288.00,2086.00 2288.00,2086.00
             2288.00,2086.00 2289.00,2087.00 2289.00,2087.00
             2289.00,2087.00 2289.00,2086.00 2289.00,2086.00 Z
           M 2762.00,2930.00
           C 2762.00,2930.00 2800.00,2930.00 2800.00,2930.00
             2800.00,2930.00 2800.00,2986.00 2800.00,2986.00
             2800.00,2986.00 2856.00,2986.00 2856.00,2986.00
             2856.00,2986.00 2856.00,3024.00 2856.00,3024.00
             2856.00,3024.00 2800.00,3024.00 2800.00,3024.00
             2800.00,3024.00 2800.00,3080.00 2800.00,3080.00
             2800.00,3080.00 2762.00,3080.00 2762.00,3080.00
             2762.00,3080.00 2762.00,3024.00 2762.00,3024.00
             2762.00,3024.00 2706.00,3024.00 2706.00,3024.00
             2706.00,3024.00 2706.00,2986.00 2706.00,2986.00
             2706.00,2986.00 2762.00,2986.00 2762.00,2986.00
             2762.00,2986.00 2762.00,2930.00 2762.00,2930.00 Z" />
</svg>
