<?xml version="1.0" encoding="UTF-8" standalone="no"?>
<!DOCTYPE svg PUBLIC "-//W3C//DTD SVG 20010904//EN"
              "http://www.w3.org/TR/2001/REC-SVG-20010904/DTD/svg10.dtd">

<svg xmlns="http://www.w3.org/2000/svg"
     width="12in" height="12in"
     viewBox="0 0 3600 3600">
  <path id="2 white"
        fill="none" stroke="black" stroke-width="1"
        d="M 3083.00,420.00
           C 3083.00,420.00 3159.00,420.00 3159.00,420.00
             3159.00,420.00 3159.00,531.00 3159.00,531.00
             3159.00,531.00 3272.00,531.00 3272.00,531.00
             3272.00,531.00 3272.00,607.00 3272.00,607.00
             3272.00,607.00 3159.00,607.00 3159.00,607.00
             3159.00,607.00 3159.00,718.00 3159.00,718.00
             3159.00,718.00 3083.00,718.00 3083.00,718.00
             3083.00,718.00 3083.00,607.00 3083.00,607.00
             3083.00,607.00 2972.00,607.00 2972.00,607.00
             2972.00,607.00 2972.00,531.00 2972.00,531.00
             2972.00,531.00 3083.00,531.00 3083.00,531.00
             3083.00,531.00 3083.00,420.00 3083.00,420.00 Z
           M 899.00,1530.00
           C 899.00,1530.00 926.36,1502.59 926.36,1502.59
             926.36,1502.59 936.59,1492.63 936.59,1492.63
             940.54,1488.02 937.36,1485.35 941.39,1480.86
             941.39,1480.86 961.36,1460.59 961.36,1460.59
             961.36,1460.59 972.27,1449.79 972.27,1449.79
             974.98,1445.93 972.75,1443.74 976.27,1439.28
             976.27,1439.28 1009.59,1405.36 1009.59,1405.36
             1009.59,1405.36 1021.27,1393.79 1021.27,1393.79
             1023.98,1389.93 1021.75,1387.74 1025.27,1383.28
             1025.27,1383.28 1068.82,1339.49 1068.82,1339.49
             1072.84,1335.27 1071.28,1333.37 1072.59,1330.04
             1073.51,1327.71 1077.02,1324.25 1078.86,1322.28
             1078.86,1322.28 1114.59,1286.50 1114.59,1286.50
             1114.59,1286.50 1125.59,1275.68 1125.59,1275.68
             1129.35,1271.15 1126.51,1269.03 1130.27,1264.29
             1130.27,1264.29 1157.36,1236.74 1157.36,1236.74
             1157.36,1236.74 1167.59,1226.68 1167.59,1226.68
             1171.35,1222.15 1168.51,1220.03 1172.27,1215.29
             1172.27,1215.29 1181.64,1205.72 1181.64,1205.72
             1181.64,1205.72 1216.59,1170.68 1216.59,1170.68
             1220.35,1166.15 1217.51,1164.03 1221.27,1159.29
             1221.27,1159.29 1251.64,1128.72 1251.64,1128.72
             1251.64,1128.72 1279.59,1100.68 1279.59,1100.68
             1282.83,1096.78 1281.22,1094.49 1283.02,1091.09
             1283.72,1089.76 1288.29,1084.82 1289.59,1083.50
             1289.59,1083.50 1317.59,1055.50 1317.59,1055.50
             1317.59,1055.50 1329.27,1043.90 1329.27,1043.90
             1331.73,1040.20 1330.17,1037.77 1332.58,1034.17
             1334.48,1031.34 1340.09,1026.28 1342.64,1023.72
             1346.14,1020.20 1357.34,1008.03 1361.09,1006.59
             1362.96,1005.88 1365.97,1006.00 1368.00,1006.00
             1368.00,1006.00 1764.00,1006.00 1764.00,1006.00
             1764.00,1006.00 1940.00,1006.00 1940.00,1006.00
             1955.23,1005.81 1947.08,999.03 1962.00,999.00
             1962.00,999.00 2323.00,999.00 2323.00,999.00
             2325.80,999.00 2329.36,999.13 2331.99,998.11
             2339.42,995.22 2334.62,992.02 2347.00,992.00
             2347.00,992.00 2554.00,992.00 2554.00,992.00
             2566.38,992.02 2561.58,995.22 2569.01,998.11
             2571.64,999.13 2575.20,999.00 2578.00,999.02
             2578.00,999.02 2645.00,999.02 2645.00,999.02
             2645.00,999.02 2648.98,999.02 2648.98,999.02
             2656.86,999.77 2652.80,1007.01 2654.31,1013.00
             2655.47,1017.60 2658.96,1018.41 2660.40,1022.09
             2662.56,1027.57 2658.45,1032.50 2664.11,1038.72
             2666.53,1041.38 2673.26,1047.19 2674.40,1050.09
             2675.83,1053.72 2674.00,1060.05 2676.02,1063.96
             2676.02,1063.96 2680.98,1070.17 2680.98,1070.17
             2682.43,1072.81 2681.58,1075.18 2683.02,1077.96
             2683.02,1077.96 2687.98,1084.17 2687.98,1084.17
             2689.43,1086.81 2688.58,1089.18 2690.02,1091.96
             2690.02,1091.96 2694.98,1098.17 2694.98,1098.17
             2696.43,1100.81 2695.58,1103.18 2697.02,1105.96
             2698.47,1108.77 2701.24,1110.14 2702.40,1113.09
             2703.83,1116.72 2702.01,1123.07 2704.02,1126.96
             2704.02,1126.96 2715.98,1140.17 2715.98,1140.17
             2718.41,1144.62 2715.37,1151.06 2718.59,1155.91
             2721.12,1159.71 2728.87,1165.20 2730.40,1169.09
             2731.65,1172.26 2730.35,1178.66 2731.60,1181.99
             2732.86,1185.36 2735.55,1186.57 2736.98,1189.17
             2738.43,1191.81 2737.58,1194.18 2739.02,1196.96
             2740.47,1199.77 2743.24,1201.14 2744.40,1204.09
             2746.04,1208.26 2743.57,1214.36 2746.59,1218.91
             2746.59,1218.91 2757.98,1231.17 2757.98,1231.17
             2760.00,1234.86 2758.16,1241.16 2759.60,1244.99
             2760.86,1248.36 2763.55,1249.57 2764.98,1252.17
             2766.43,1254.81 2765.58,1257.18 2767.02,1259.96
             2768.47,1262.77 2771.24,1264.14 2772.40,1267.09
             2773.83,1270.71 2772.01,1277.10 2774.02,1280.96
             2774.02,1280.96 2785.98,1294.17 2785.98,1294.17
             2788.17,1298.22 2785.83,1304.72 2788.02,1308.96
             2788.02,1308.96 2792.98,1315.17 2792.98,1315.17
             2794.43,1317.81 2793.58,1320.18 2795.02,1322.96
             2795.02,1322.96 2799.98,1329.17 2799.98,1329.17
             2801.43,1331.81 2800.58,1334.18 2802.02,1336.96
             2802.02,1336.96 2806.98,1343.17 2806.98,1343.17
             2808.43,1345.82 2807.58,1348.19 2809.02,1350.91
             2810.49,1353.67 2813.18,1354.84 2814.40,1358.04
             2815.65,1361.30 2814.35,1367.70 2815.60,1370.96
             2816.82,1374.16 2819.51,1375.33 2820.98,1378.09
             2822.31,1380.58 2821.69,1383.42 2823.02,1385.91
             2824.30,1388.31 2826.70,1389.69 2827.98,1392.09
             2829.59,1395.13 2828.32,1397.55 2830.60,1400.83
             2835.48,1407.88 2842.81,1408.88 2843.00,1419.00
             2843.00,1419.00 2843.00,1429.00 2843.00,1429.00
             2843.19,1439.03 2850.50,1439.85 2855.42,1447.17
             2858.44,1451.67 2855.95,1457.67 2857.60,1461.96
             2859.08,1465.82 2867.88,1472.08 2869.98,1476.09
             2871.64,1479.25 2870.62,1482.90 2870.86,1486.28
             2871.36,1493.46 2875.27,1493.10 2877.26,1498.04
             2878.17,1500.29 2877.80,1502.63 2879.02,1504.91
             2880.71,1508.07 2883.75,1509.04 2884.67,1513.01
             2885.46,1516.41 2883.30,1521.26 2885.98,1525.91
             2887.69,1528.86 2895.98,1535.48 2897.83,1539.09
             2899.96,1543.27 2897.33,1546.62 2899.15,1551.99
             2900.58,1556.21 2903.13,1556.89 2904.83,1560.09
             2906.50,1563.23 2905.37,1565.51 2907.58,1568.83
             2909.04,1571.01 2911.24,1572.24 2912.22,1575.04
             2913.44,1578.50 2911.14,1582.74 2913.51,1587.96
             2915.41,1592.14 2923.69,1597.82 2925.82,1602.09
             2927.89,1606.25 2924.99,1609.49 2927.03,1614.99
             2928.55,1619.09 2931.18,1620.00 2932.83,1623.09
             2934.50,1626.23 2933.37,1628.51 2935.58,1631.83
             2937.03,1634.01 2939.24,1635.24 2940.22,1638.04
             2941.54,1641.80 2938.87,1645.66 2941.43,1650.96
             2943.75,1655.76 2953.44,1661.70 2954.56,1667.01
             2954.89,1669.71 2953.44,1672.50 2954.56,1677.00
             2956.15,1682.01 2959.02,1682.69 2960.83,1686.09
             2962.32,1688.91 2961.62,1691.26 2963.02,1693.91
             2964.44,1696.62 2966.94,1697.75 2968.26,1701.04
             2969.17,1703.27 2968.81,1705.68 2970.02,1707.90
             2971.64,1710.88 2981.50,1718.04 2982.21,1723.01
             2982.21,1723.01 2982.21,1734.00 2982.21,1734.00
             2982.27,1745.02 2986.31,1744.36 2988.80,1749.05
             2990.29,1751.88 2989.20,1753.91 2990.97,1756.95
             2992.52,1759.62 2994.97,1760.85 2996.20,1763.95
             2997.08,1766.17 2996.39,1768.31 2997.97,1770.94
             2999.30,1773.16 3008.16,1780.57 3009.74,1784.09
             3011.36,1787.68 3008.77,1792.41 3011.43,1797.96
             3012.98,1801.19 3015.40,1802.36 3016.78,1805.09
             3018.11,1807.73 3017.43,1810.18 3018.97,1812.90
             3020.48,1815.56 3022.93,1816.39 3024.08,1819.21
             3025.01,1821.49 3024.43,1824.19 3025.97,1826.90
             3027.49,1829.58 3029.98,1830.42 3031.06,1833.21
             3031.81,1835.16 3031.35,1837.63 3032.40,1839.96
             3033.80,1843.08 3036.49,1844.16 3037.67,1846.37
             3039.56,1849.91 3036.84,1854.73 3038.89,1859.98
             3040.34,1863.69 3042.80,1864.67 3044.01,1866.59
             3045.50,1868.95 3044.67,1871.73 3046.31,1874.96
             3047.96,1878.19 3050.52,1879.21 3051.67,1881.37
             3053.65,1885.08 3050.52,1890.48 3053.31,1895.96
             3055.16,1899.58 3064.04,1906.02 3065.63,1909.32
             3067.12,1912.44 3065.21,1917.30 3066.57,1922.00
             3067.88,1926.51 3070.66,1927.45 3072.01,1929.59
             3073.50,1931.96 3072.66,1934.76 3074.31,1937.91
             3075.87,1940.89 3078.37,1941.86 3079.43,1944.32
             3080.68,1947.26 3079.22,1953.77 3080.89,1957.96
             3082.41,1961.77 3089.66,1967.06 3092.47,1970.74
             3094.81,1973.82 3093.48,1976.39 3095.31,1979.91
             3096.83,1982.81 3099.33,1983.84 3100.43,1986.32
             3101.30,1988.28 3100.84,1991.09 3102.31,1993.91
             3104.08,1997.29 3106.78,1997.84 3107.71,2001.18
             3109.46,2007.55 3104.96,2011.93 3113.00,2019.00
             3113.00,2019.00 3108.88,2027.00 3108.88,2027.00
             3108.88,2027.00 3106.42,2034.72 3106.42,2034.72
             3106.42,2034.72 3083.26,2058.28 3083.26,2058.28
             3083.26,2058.28 3078.42,2069.72 3078.42,2069.72
             3078.42,2069.72 3061.51,2087.17 3061.51,2087.17
             3061.51,2087.17 3057.42,2097.72 3057.42,2097.72
             3057.42,2097.72 3040.52,2115.17 3040.52,2115.17
             3040.52,2115.17 3036.49,2125.72 3036.49,2125.72
             3036.49,2125.72 3018.89,2144.04 3018.89,2144.04
             3018.89,2144.04 3015.49,2153.72 3015.49,2153.72
             3015.49,2153.72 2998.54,2171.09 2998.54,2171.09
             2998.54,2171.09 2994.58,2181.72 2994.58,2181.72
             2994.58,2181.72 2971.30,2205.17 2971.30,2205.17
             2971.30,2205.17 2967.27,2215.72 2967.27,2215.72
             2967.27,2215.72 2950.30,2233.17 2950.30,2233.17
             2950.30,2233.17 2945.58,2244.58 2945.58,2244.58
             2945.58,2244.58 2928.59,2262.09 2928.59,2262.09
             2928.59,2262.09 2925.27,2271.72 2925.27,2271.72
             2925.27,2271.72 2914.02,2284.04 2914.02,2284.04
             2914.02,2284.04 2911.27,2292.72 2911.27,2292.72
             2911.27,2292.72 2886.59,2318.09 2886.59,2318.09
             2886.59,2318.09 2883.27,2327.72 2883.27,2327.72
             2883.27,2327.72 2865.59,2346.09 2865.59,2346.09
             2865.59,2346.09 2862.27,2355.72 2862.27,2355.72
             2862.27,2355.72 2844.59,2374.09 2844.59,2374.09
             2844.59,2374.09 2841.27,2383.72 2841.27,2383.72
             2841.27,2383.72 2824.30,2401.17 2824.30,2401.17
             2824.30,2401.17 2820.27,2411.72 2820.27,2411.72
             2820.27,2411.72 2803.30,2429.17 2803.30,2429.17
             2803.30,2429.17 2799.27,2439.72 2799.27,2439.72
             2799.27,2439.72 2782.30,2457.17 2782.30,2457.17
             2782.30,2457.17 2778.27,2467.72 2778.27,2467.72
             2778.27,2467.72 2760.59,2486.09 2760.59,2486.09
             2760.59,2486.09 2757.41,2495.72 2757.41,2495.72
             2757.41,2495.72 2746.02,2508.04 2746.02,2508.04
             2746.02,2508.04 2743.41,2516.72 2743.41,2516.72
             2743.41,2516.72 2718.59,2542.09 2718.59,2542.09
             2718.59,2542.09 2715.98,2550.83 2715.98,2550.83
             2715.98,2550.83 2698.30,2569.17 2698.30,2569.17
             2698.30,2569.17 2694.41,2579.72 2694.41,2579.72
             2694.41,2579.72 2680.72,2592.99 2680.72,2592.99
             2680.72,2592.99 2674.00,2594.88 2674.00,2594.88
             2674.00,2594.88 2666.00,2599.00 2666.00,2599.00
             2664.29,2597.17 2663.37,2596.03 2660.96,2595.01
             2656.92,2593.30 2638.55,2594.01 2633.00,2594.00
             2630.61,2594.00 2627.47,2594.23 2625.37,2592.98
             2623.21,2591.70 2622.47,2589.30 2618.96,2587.89
             2615.59,2586.54 2607.01,2587.07 2603.00,2587.00
             2594.46,2586.84 2597.08,2584.05 2591.90,2581.31
             2589.06,2579.81 2585.14,2580.00 2582.00,2580.00
             2582.00,2580.00 2562.00,2580.00 2562.00,2580.00
             2551.07,2579.93 2555.47,2575.77 2547.99,2573.57
             2544.62,2572.58 2530.53,2573.07 2526.00,2573.00
             2517.64,2572.86 2520.31,2570.13 2514.91,2567.31
             2512.04,2565.81 2508.17,2566.00 2505.00,2566.00
             2505.00,2566.00 2479.00,2566.00 2479.00,2566.00
             2476.66,2566.00 2473.57,2566.25 2471.51,2565.01
             2469.17,2563.60 2468.36,2560.85 2463.99,2559.57
             2460.88,2558.66 2448.07,2559.01 2444.00,2559.00
             2428.96,2558.97 2439.26,2552.08 2422.00,2551.81
             2419.19,2551.99 2411.38,2552.64 2409.37,2551.81
             2406.48,2550.17 2405.87,2546.55 2400.00,2545.13
             2400.00,2545.13 2373.00,2545.13 2373.00,2545.13
             2370.48,2545.00 2362.89,2545.64 2361.21,2545.13
             2358.57,2544.10 2357.65,2541.61 2354.90,2539.85
             2352.10,2538.06 2349.19,2538.04 2346.00,2538.03
             2346.00,2538.03 2324.00,2538.03 2324.00,2538.03
             2324.00,2538.03 2313.04,2538.03 2313.04,2538.03
             2309.72,2537.11 2308.47,2534.08 2304.96,2532.31
             2301.88,2530.76 2297.41,2530.97 2294.00,2531.05
             2291.80,2531.03 2286.73,2531.60 2285.04,2531.05
             2281.72,2530.11 2280.47,2527.08 2276.96,2525.31
             2273.88,2523.76 2269.41,2523.97 2266.00,2523.87
             2263.18,2524.03 2258.47,2524.83 2256.09,2523.87
             2252.65,2522.17 2251.75,2518.52 2246.00,2517.15
             2246.00,2517.15 2210.00,2517.15 2210.00,2517.15
             2207.81,2517.03 2202.73,2517.60 2201.04,2517.15
             2198.06,2516.21 2196.53,2513.49 2193.91,2511.85
             2190.56,2509.76 2186.78,2510.01 2183.00,2510.05
             2183.00,2510.05 2159.04,2510.05 2159.04,2510.05
             2156.06,2509.21 2154.53,2506.49 2151.91,2504.85
             2148.78,2502.90 2145.54,2503.02 2142.00,2503.20
             2142.00,2503.20 2125.01,2503.20 2125.01,2503.20
             2121.29,2502.73 2119.88,2499.70 2116.91,2497.85
             2113.56,2495.76 2109.78,2496.01 2106.00,2496.14
             2106.00,2496.14 2085.00,2496.14 2085.00,2496.14
             2085.00,2496.14 2076.01,2496.14 2076.01,2496.14
             2072.29,2495.73 2070.93,2492.73 2067.91,2490.93
             2064.55,2488.93 2059.82,2488.93 2056.00,2489.21
             2056.00,2489.21 2048.01,2489.21 2048.01,2489.21
             2044.29,2488.73 2042.93,2485.73 2039.91,2483.93
             2036.43,2481.86 2031.92,2482.01 2028.00,2482.14
             2028.00,2482.14 2008.00,2482.14 2008.00,2482.14
             2008.00,2482.14 1999.01,2482.14 1999.01,2482.14
             1994.96,2481.67 1993.86,2478.30 1989.96,2476.43
             1986.12,2474.59 1979.32,2474.99 1975.00,2475.20
             1975.00,2475.20 1964.01,2475.20 1964.01,2475.20
             1960.29,2474.73 1958.93,2471.73 1955.91,2469.93
             1953.23,2468.34 1950.04,2468.08 1947.00,2468.21
             1947.00,2468.21 1936.01,2468.21 1936.01,2468.21
             1930.99,2467.49 1931.00,2463.01 1924.00,2461.43
             1919.13,2460.42 1895.94,2460.96 1890.00,2461.43
             1883.16,2461.86 1883.88,2458.78 1878.96,2455.93
             1875.92,2454.17 1872.41,2454.04 1869.00,2454.24
             1869.00,2454.24 1845.04,2454.24 1845.04,2454.24
             1841.21,2453.67 1840.08,2450.35 1835.99,2448.43
             1832.04,2446.58 1824.47,2446.95 1820.00,2447.24
             1820.00,2447.24 1810.04,2447.24 1810.04,2447.24
             1806.21,2446.67 1805.08,2443.35 1800.99,2441.43
             1797.04,2439.58 1789.47,2439.95 1785.00,2440.11
             1782.11,2440.04 1776.30,2441.02 1774.09,2440.11
             1771.32,2439.22 1769.89,2436.63 1766.96,2434.93
             1763.40,2432.86 1758.98,2433.01 1755.00,2433.16
             1755.00,2433.16 1738.00,2433.16 1738.00,2433.16
             1738.00,2433.16 1726.04,2433.16 1726.04,2433.16
             1721.59,2432.53 1721.04,2428.46 1715.00,2426.72
             1710.97,2425.56 1692.36,2425.94 1687.00,2426.11
             1684.11,2426.04 1678.30,2427.02 1676.09,2426.11
             1672.44,2424.91 1671.61,2421.33 1666.00,2419.60
             1659.72,2417.92 1651.65,2420.04 1649.04,2419.60
             1644.88,2418.59 1644.08,2414.91 1639.00,2413.03
             1634.92,2411.52 1621.96,2411.95 1617.00,2412.11
             1614.14,2412.04 1608.27,2413.02 1606.10,2412.11
             1603.45,2411.25 1602.13,2408.57 1599.79,2407.13
             1596.51,2405.11 1591.75,2405.02 1588.00,2405.12
             1588.00,2405.12 1571.10,2405.12 1571.10,2405.12
             1566.83,2403.59 1567.77,2399.98 1560.00,2398.24
             1560.00,2398.24 1535.00,2398.24 1535.00,2398.24
             1531.71,2398.02 1524.44,2399.16 1522.10,2398.24
             1519.28,2397.15 1518.36,2394.71 1515.79,2393.13
             1512.51,2391.11 1507.75,2391.02 1504.00,2391.00
             1504.00,2391.00 1488.04,2391.53 1488.04,2391.53
             1484.05,2390.57 1483.66,2387.42 1479.90,2385.70
             1475.82,2383.83 1471.28,2384.90 1467.00,2384.99
             1464.29,2385.04 1460.61,2385.19 1458.21,2383.83
             1454.90,2381.96 1454.89,2378.87 1449.00,2377.96
             1449.00,2377.96 1418.00,2377.96 1418.00,2377.96
             1415.25,2378.00 1411.76,2378.24 1409.32,2376.83
             1406.38,2375.12 1405.86,2372.19 1400.99,2371.07
             1400.99,2371.07 1369.00,2371.07 1369.00,2371.07
             1366.25,2371.00 1362.76,2371.24 1360.32,2369.83
             1357.38,2368.12 1356.86,2365.19 1351.99,2364.07
             1351.99,2364.07 1333.00,2364.07 1333.00,2364.07
             1330.46,2363.99 1327.60,2364.15 1325.32,2362.83
             1322.62,2361.26 1321.90,2358.55 1317.96,2357.21
             1317.96,2357.21 1297.00,2357.21 1297.00,2357.21
             1286.66,2356.85 1290.09,2353.18 1283.96,2350.74
             1279.16,2348.82 1272.95,2351.55 1268.51,2348.28
             1267.09,2347.23 1262.24,2342.33 1261.59,2340.79
             1260.68,2338.61 1261.33,2335.87 1259.83,2333.10
             1258.30,2330.29 1255.74,2329.46 1254.60,2326.79
             1253.68,2324.64 1254.34,2321.88 1252.83,2319.10
             1251.30,2316.29 1248.74,2315.46 1247.60,2312.79
             1246.68,2310.64 1247.34,2307.88 1245.83,2305.10
             1244.29,2302.27 1241.71,2301.44 1240.60,2298.79
             1239.30,2295.72 1240.75,2288.74 1239.26,2285.04
             1237.80,2281.40 1234.86,2280.74 1233.60,2277.79
             1233.60,2277.79 1232.26,2271.04 1232.26,2271.04
             1230.78,2267.38 1227.86,2266.74 1226.60,2263.79
             1226.60,2263.79 1225.26,2257.04 1225.26,2257.04
             1223.90,2253.68 1221.33,2252.81 1220.02,2250.63
             1218.62,2248.30 1219.28,2245.55 1218.26,2243.04
             1216.90,2239.68 1214.33,2238.81 1213.02,2236.63
             1211.46,2234.03 1212.50,2231.17 1210.83,2228.10
             1209.30,2225.29 1206.74,2224.46 1205.60,2221.79
             1204.68,2219.64 1205.34,2216.88 1203.83,2214.10
             1202.29,2211.27 1199.71,2210.44 1198.60,2207.79
             1197.30,2204.72 1198.75,2197.74 1197.26,2194.04
             1195.80,2190.40 1192.86,2189.74 1191.60,2186.79
             1190.68,2184.64 1191.34,2181.88 1189.83,2179.10
             1188.30,2176.29 1185.74,2175.46 1184.60,2172.79
             1183.68,2170.64 1184.34,2167.88 1182.83,2165.10
             1181.30,2162.29 1178.74,2161.46 1177.60,2158.79
             1176.68,2156.64 1177.34,2153.88 1175.83,2151.10
             1174.29,2148.27 1171.71,2147.44 1170.60,2144.79
             1169.14,2141.33 1171.08,2134.25 1168.83,2130.10
             1167.45,2127.57 1165.17,2126.54 1164.02,2124.63
             1162.46,2122.03 1163.50,2119.17 1161.83,2116.10
             1160.44,2113.56 1158.17,2112.54 1157.02,2110.63
             1155.62,2108.30 1156.28,2105.55 1155.26,2103.04
             1153.90,2099.68 1151.33,2098.81 1150.02,2096.63
             1148.46,2094.03 1149.50,2091.17 1147.83,2088.10
             1146.29,2085.27 1143.71,2084.44 1142.60,2081.79
             1141.30,2078.72 1142.75,2071.74 1141.26,2068.04
             1139.80,2064.40 1136.86,2063.74 1135.60,2060.79
             1135.60,2060.79 1134.26,2054.04 1134.26,2054.04
             1132.90,2050.68 1130.33,2049.81 1129.02,2047.63
             1127.46,2045.03 1128.50,2042.17 1126.83,2039.10
             1125.44,2036.56 1123.17,2035.54 1122.02,2033.63
             1120.62,2031.29 1121.29,2028.57 1120.26,2026.09
             1118.95,2022.94 1116.37,2022.01 1115.02,2019.68
             1113.46,2016.99 1114.51,2014.18 1112.83,2011.18
             1111.37,2008.59 1108.75,2007.59 1107.60,2004.82
             1106.67,2002.60 1107.34,1999.89 1105.83,1997.18
             1104.37,1994.59 1101.73,1993.56 1100.60,1990.82
             1099.40,1987.92 1100.53,1981.39 1099.57,1978.04
             1098.41,1974.00 1095.57,1973.35 1094.02,1970.68
             1092.46,1967.99 1093.51,1965.18 1091.83,1962.18
             1090.37,1959.59 1087.73,1958.56 1086.60,1955.82
             1085.30,1952.67 1086.75,1945.69 1085.26,1942.09
             1083.70,1938.31 1074.36,1932.18 1072.60,1927.83
             1071.30,1924.62 1072.75,1917.69 1071.26,1914.09
             1069.97,1910.96 1067.37,1909.99 1066.02,1907.68
             1064.62,1905.27 1065.30,1902.59 1064.26,1900.09
             1062.95,1896.94 1060.37,1896.01 1059.02,1893.68
             1057.62,1891.27 1058.30,1888.59 1057.26,1886.09
             1055.95,1882.94 1053.37,1882.01 1052.02,1879.68
             1050.46,1876.99 1051.51,1874.18 1049.83,1871.18
             1048.37,1868.59 1045.73,1867.56 1044.60,1864.82
             1043.30,1861.67 1044.75,1854.65 1043.26,1851.10
             1041.97,1848.02 1039.43,1847.28 1038.02,1844.79
             1036.46,1842.05 1037.51,1839.14 1035.83,1836.21
             1034.54,1833.96 1032.24,1832.95 1031.02,1830.79
             1029.46,1828.05 1030.51,1825.14 1028.83,1822.21
             1027.54,1819.96 1025.24,1818.95 1024.02,1816.79
             1022.58,1814.26 1023.42,1811.83 1021.98,1809.04
             1021.98,1809.04 1017.02,1802.83 1017.02,1802.83
             1014.83,1798.82 1017.16,1792.26 1014.98,1788.04
             1014.98,1788.04 1003.02,1774.83 1003.02,1774.83
             1000.84,1770.85 1003.16,1764.27 1000.98,1760.04
             1000.98,1760.04 996.02,1753.83 996.02,1753.83
             994.57,1751.19 995.42,1748.82 993.98,1746.04
             993.98,1746.04 989.02,1739.83 989.02,1739.83
             987.72,1737.46 988.26,1735.25 987.40,1733.01
             986.09,1729.58 983.46,1728.47 982.02,1725.83
             980.72,1723.46 981.26,1721.25 980.40,1719.01
             977.87,1712.39 974.07,1716.02 974.00,1705.00
             974.00,1705.00 974.00,1696.00 974.00,1696.00
             973.83,1686.81 967.74,1685.07 962.30,1678.58
             958.89,1674.50 960.87,1672.68 958.98,1669.04
             957.53,1666.23 954.76,1664.86 953.60,1661.91
             952.17,1658.27 954.00,1651.95 951.98,1648.04
             951.98,1648.04 947.02,1641.83 947.02,1641.83
             945.57,1639.19 946.42,1636.82 944.98,1634.04
             944.98,1634.04 940.02,1627.83 940.02,1627.83
             938.57,1625.19 939.42,1622.82 937.98,1620.04
             937.98,1620.04 933.02,1613.83 933.02,1613.83
             931.57,1611.19 932.42,1608.82 930.98,1606.04
             930.98,1606.04 926.02,1599.83 926.02,1599.83
             924.40,1596.86 925.69,1594.55 923.41,1591.09
             921.91,1588.82 919.66,1587.62 918.60,1584.91
             917.35,1581.74 918.65,1575.34 917.40,1572.01
             916.14,1568.64 913.45,1567.43 912.02,1564.83
             910.57,1562.19 911.42,1559.82 909.98,1557.04
             908.53,1554.23 905.76,1552.86 904.60,1549.91
             903.46,1547.02 904.43,1541.04 903.69,1538.00
             902.98,1535.09 900.68,1532.47 899.00,1530.00 Z
           M 613.00,3048.00
           C 613.00,3048.00 689.00,3048.00 689.00,3048.00
             689.00,3048.00 689.00,3159.00 689.00,3159.00
             689.00,3159.00 802.00,3159.00 802.00,3159.00
             802.00,3159.00 802.00,3235.00 802.00,3235.00
             802.00,3235.00 689.00,3235.00 689.00,3235.00
             689.00,3235.00 689.00,3346.00 689.00,3346.00
             689.00,3346.00 613.00,3346.00 613.00,3346.00
             613.00,3346.00 613.00,3235.00 613.00,3235.00
             613.00,3235.00 502.00,3235.00 502.00,3235.00
             502.00,3235.00 502.00,3159.00 502.00,3159.00
             502.00,3159.00 613.00,3159.00 613.00,3159.00
             613.00,3159.00 613.00,3048.00 613.00,3048.00 Z" />
</svg>
