<?xml version="1.0" encoding="UTF-8" standalone="no"?>
<!DOCTYPE svg PUBLIC "-//W3C//DTD SVG 20010904//EN"
              "http://www.w3.org/TR/2001/REC-SVG-20010904/DTD/svg10.dtd">

<svg xmlns="http://www.w3.org/2000/svg"
     width="12in" height="12in"
     viewBox="0 0 3600 3600">
  <path id="3 - filly green"
        fill="none" stroke="black" stroke-width="1"
        d="M 1321.00,1439.00
           C 1321.00,1439.00 1303.00,1437.16 1303.00,1437.16
             1303.00,1437.16 1279.00,1434.68 1279.00,1434.68
             1279.00,1434.68 1229.00,1425.28 1229.00,1425.28
             1181.97,1415.55 1135.12,1401.06 1092.00,1379.65
             971.51,1319.83 878.38,1222.71 835.51,1094.00
             827.40,1069.64 821.96,1044.42 818.72,1019.00
             818.72,1019.00 815.00,982.00 815.00,982.00
             815.00,982.00 815.00,946.00 815.00,946.00
             815.00,946.00 816.83,925.00 816.83,925.00
             816.83,925.00 823.51,877.00 823.51,877.00
             828.05,855.72 835.29,835.58 842.11,815.00
             842.11,815.00 848.03,794.00 848.03,794.00
             854.27,774.54 864.47,749.67 874.58,732.00
             888.65,707.40 906.40,681.61 933.00,669.31
             936.37,667.75 941.37,665.42 945.00,665.11
             951.82,664.53 961.91,668.76 968.00,671.76
             985.18,680.20 995.95,687.91 1008.20,703.00
             1008.20,703.00 1026.76,727.96 1026.76,727.96
             1030.22,732.42 1031.73,732.37 1035.13,738.00
             1048.10,759.48 1061.56,792.59 1072.31,816.00
             1082.72,838.66 1095.18,860.26 1109.00,881.00
             1119.33,896.50 1132.00,913.44 1146.00,925.71
             1151.24,930.31 1157.54,936.79 1165.00,936.00
             1161.62,929.70 1155.07,923.47 1150.28,918.00
             1150.28,918.00 1127.37,890.00 1127.37,890.00
             1123.50,884.85 1117.75,879.14 1116.00,873.00
             1123.22,875.14 1131.91,887.93 1138.04,893.42
             1153.02,906.83 1170.69,919.28 1189.00,927.69
             1189.00,927.69 1237.00,945.49 1237.00,945.49
             1285.22,961.57 1344.23,979.71 1381.00,1016.01
             1392.21,1027.08 1401.61,1040.36 1409.42,1054.00
             1417.15,1067.51 1422.72,1081.89 1426.41,1097.00
             1434.77,1131.25 1433.00,1172.60 1433.00,1208.00
             1438.95,1206.99 1437.53,1205.21 1440.37,1204.15
             1444.28,1202.69 1450.93,1210.23 1453.10,1213.01
             1463.10,1225.82 1471.34,1237.35 1483.00,1249.00
             1488.49,1254.48 1502.93,1267.60 1509.00,1271.78
             1509.00,1271.78 1520.00,1278.44 1520.00,1278.44
             1520.00,1278.44 1541.00,1293.35 1541.00,1293.35
             1555.16,1301.39 1569.19,1305.16 1585.00,1308.00
             1585.00,1308.00 1580.04,1293.00 1580.04,1293.00
             1580.04,1293.00 1578.00,1283.00 1578.00,1283.00
             1578.00,1283.00 1590.00,1281.17 1590.00,1281.17
             1590.00,1281.17 1621.00,1280.00 1621.00,1280.00
             1621.00,1280.00 1635.00,1281.00 1635.00,1281.00
             1635.00,1281.00 1656.00,1281.00 1656.00,1281.00
             1654.85,1287.93 1648.54,1289.58 1643.00,1293.34
             1643.00,1293.34 1613.00,1316.08 1613.00,1316.08
             1595.24,1330.84 1570.19,1354.20 1552.00,1366.14
             1547.71,1368.95 1535.29,1377.07 1531.00,1378.35
             1528.48,1379.11 1525.62,1379.00 1523.00,1379.00
             1523.00,1379.00 1509.00,1379.00 1509.00,1379.00
             1499.88,1378.99 1497.39,1377.76 1489.00,1376.44
             1478.16,1374.73 1466.95,1373.24 1456.00,1373.00
             1460.34,1396.99 1480.77,1402.86 1492.00,1415.00
             1488.34,1415.00 1479.08,1414.43 1476.23,1416.17
             1467.16,1421.72 1480.44,1434.00 1485.00,1437.48
             1493.98,1444.34 1507.98,1449.95 1519.00,1452.50
             1519.00,1452.50 1529.00,1454.68 1529.00,1454.68
             1529.00,1454.68 1536.89,1455.41 1536.89,1455.41
             1538.46,1455.83 1538.74,1456.18 1540.00,1457.00
             1529.12,1462.78 1517.14,1465.22 1505.00,1466.71
             1500.97,1467.21 1492.34,1466.85 1489.74,1470.65
             1487.95,1473.28 1491.34,1476.20 1492.93,1478.00
             1498.54,1484.35 1502.49,1488.75 1510.00,1493.12
             1523.60,1501.04 1539.38,1504.18 1555.00,1504.00
             1559.00,1503.95 1572.11,1501.58 1574.73,1503.06
             1577.34,1504.54 1581.60,1515.74 1583.00,1519.00
             1573.96,1523.76 1566.24,1526.32 1556.00,1527.04
             1553.50,1527.21 1548.14,1528.05 1547.62,1531.17
             1547.09,1534.35 1552.71,1536.47 1555.00,1537.30
             1562.68,1540.09 1574.88,1542.96 1583.00,1543.00
             1586.32,1543.01 1594.05,1542.47 1596.70,1544.02
             1599.25,1545.51 1603.63,1552.31 1605.63,1555.00
             1605.63,1555.00 1621.28,1574.00 1621.28,1574.00
             1625.57,1578.87 1634.45,1586.04 1637.00,1591.00
             1624.51,1593.37 1613.93,1607.79 1609.40,1619.00
             1608.05,1622.36 1604.57,1633.00 1610.23,1634.47
             1612.75,1635.13 1620.35,1629.72 1623.00,1628.36
             1630.48,1624.52 1643.65,1619.70 1652.00,1619.00
             1652.00,1619.00 1643.31,1638.91 1643.31,1638.91
             1643.31,1638.91 1633.00,1657.00 1633.00,1657.00
             1633.00,1657.00 1656.00,1644.40 1656.00,1644.40
             1656.00,1644.40 1665.00,1637.34 1665.00,1637.34
             1665.00,1637.34 1682.00,1626.56 1682.00,1626.56
             1682.00,1626.56 1692.00,1624.04 1692.00,1624.04
             1692.00,1624.04 1704.00,1619.00 1704.00,1619.00
             1706.21,1628.07 1703.55,1628.08 1706.81,1641.00
             1707.25,1642.75 1708.32,1647.59 1711.12,1646.04
             1713.01,1644.99 1717.58,1636.30 1718.73,1634.00
             1723.47,1624.52 1728.64,1608.83 1738.00,1603.36
             1747.17,1598.00 1775.72,1589.61 1787.00,1586.45
             1787.00,1586.45 1822.00,1578.49 1822.00,1578.49
             1822.00,1578.49 1838.00,1575.30 1838.00,1575.30
             1838.00,1575.30 1846.00,1574.71 1846.00,1574.71
             1846.00,1574.71 1856.00,1573.00 1856.00,1573.00
             1856.00,1573.00 1867.00,1573.00 1867.00,1573.00
             1867.00,1573.00 1893.00,1571.00 1893.00,1571.00
             1893.00,1571.00 1924.00,1571.00 1924.00,1571.00
             1924.00,1571.00 1948.00,1573.00 1948.00,1573.00
             1955.28,1573.09 1954.73,1574.19 1960.00,1574.99
             1960.00,1574.99 1968.00,1574.99 1968.00,1574.99
             1968.00,1574.99 1976.00,1576.70 1976.00,1576.70
             1976.00,1576.70 2036.00,1587.74 2036.00,1587.74
             2041.35,1589.05 2046.86,1590.25 2052.00,1592.25
             2057.96,1594.57 2067.61,1598.70 2074.00,1596.26
             2080.20,1593.89 2084.58,1584.77 2087.21,1579.00
             2095.15,1561.57 2095.22,1538.81 2095.00,1520.00
             2095.00,1520.00 2093.17,1501.00 2093.17,1501.00
             2088.66,1455.94 2067.81,1412.05 2044.19,1374.00
             2035.46,1359.94 2025.33,1346.91 2015.00,1334.00
             2011.85,1330.07 2004.12,1322.32 2005.33,1317.11
             2006.24,1313.18 2014.64,1310.15 2018.00,1307.90
             2023.89,1303.96 2033.31,1294.23 2036.75,1288.00
             2038.22,1285.36 2039.78,1281.12 2039.28,1278.06
             2038.97,1276.14 2037.57,1274.05 2035.38,1275.17
             2033.55,1276.11 2032.48,1280.13 2031.45,1282.00
             2029.31,1285.84 2025.33,1289.85 2022.00,1292.70
             2007.64,1305.00 1990.08,1306.79 1972.00,1307.00
             1972.00,1307.00 1958.00,1308.00 1958.00,1308.00
             1958.00,1308.00 1932.00,1308.00 1932.00,1308.00
             1932.00,1308.00 1922.00,1307.04 1922.00,1307.04
             1922.00,1307.04 1906.00,1307.04 1906.00,1307.04
             1895.75,1306.98 1896.06,1305.58 1889.00,1304.96
             1889.00,1304.96 1880.00,1304.96 1880.00,1304.96
             1880.00,1304.96 1872.00,1303.06 1872.00,1303.06
             1872.00,1303.06 1864.00,1303.06 1864.00,1303.06
             1864.00,1303.06 1857.00,1301.32 1857.00,1301.32
             1857.00,1301.32 1850.00,1300.41 1850.00,1300.41
             1850.00,1300.41 1805.00,1288.01 1805.00,1288.01
             1805.00,1288.01 1754.00,1274.14 1754.00,1274.14
             1754.00,1274.14 1734.00,1267.35 1734.00,1267.35
             1734.00,1267.35 1716.00,1262.58 1716.00,1262.58
             1689.72,1255.26 1664.42,1249.32 1637.00,1249.00
             1637.00,1249.00 1626.00,1248.08 1626.00,1248.08
             1626.00,1248.08 1618.00,1248.96 1618.00,1248.96
             1618.00,1248.96 1609.00,1248.96 1609.00,1248.96
             1609.00,1248.96 1566.00,1254.00 1566.00,1254.00
             1566.00,1254.00 1557.47,1222.00 1557.47,1222.00
             1557.47,1222.00 1547.59,1173.00 1547.59,1173.00
             1546.27,1165.15 1544.04,1154.70 1544.00,1147.00
             1544.00,1147.00 1543.00,1127.00 1543.00,1127.00
             1543.00,1127.00 1543.00,1107.00 1543.00,1107.00
             1543.01,1103.13 1542.68,1096.39 1548.92,1098.62
             1552.78,1100.00 1562.66,1114.10 1566.17,1118.00
             1578.74,1131.97 1592.76,1144.68 1607.00,1156.87
             1649.79,1193.51 1706.65,1222.72 1760.00,1240.49
             1760.00,1240.49 1800.00,1251.37 1800.00,1251.37
             1800.00,1251.37 1842.00,1259.82 1842.00,1259.82
             1842.00,1259.82 1866.00,1261.00 1866.00,1261.00
             1875.99,1261.12 1874.23,1263.11 1886.00,1261.00
             1882.43,1253.52 1875.92,1251.82 1869.00,1248.22
             1869.00,1248.22 1838.00,1230.00 1838.00,1230.00
             1807.69,1209.80 1780.38,1185.95 1755.93,1159.00
             1755.93,1159.00 1731.35,1131.00 1731.35,1131.00
             1731.35,1131.00 1725.68,1122.00 1725.68,1122.00
             1719.81,1112.63 1712.80,1099.29 1708.81,1089.00
             1707.61,1085.90 1704.60,1078.25 1705.35,1075.25
             1706.50,1070.40 1711.63,1073.82 1714.00,1075.25
             1714.00,1075.25 1740.00,1093.00 1740.00,1093.00
             1767.85,1111.56 1805.83,1122.94 1839.00,1126.17
             1839.00,1126.17 1857.00,1128.00 1857.00,1128.00
             1857.00,1128.00 1874.00,1128.00 1874.00,1128.00
             1886.08,1127.85 1906.82,1124.66 1919.00,1122.46
             1919.00,1122.46 1929.00,1121.00 1929.00,1121.00
             1968.84,1112.93 2007.51,1099.19 2046.00,1086.35
             2103.76,1067.10 2162.30,1049.16 2222.00,1037.00
             2249.57,1031.38 2276.92,1026.83 2305.00,1024.91
             2305.00,1024.91 2314.00,1024.01 2314.00,1024.01
             2316.32,1023.96 2319.77,1023.83 2321.79,1025.02
             2324.45,1026.59 2326.38,1031.25 2327.75,1034.00
             2327.75,1034.00 2338.22,1056.00 2338.22,1056.00
             2339.96,1059.69 2344.14,1067.82 2342.40,1071.72
             2341.16,1074.50 2327.54,1078.79 2324.00,1080.51
             2310.41,1087.12 2297.90,1096.60 2287.00,1107.04
             2275.09,1118.45 2265.74,1132.15 2256.95,1146.00
             2256.95,1146.00 2238.52,1175.00 2238.52,1175.00
             2230.19,1191.43 2222.16,1217.08 2216.17,1235.00
             2216.17,1235.00 2202.20,1273.00 2202.20,1273.00
             2200.81,1276.47 2197.97,1284.34 2193.91,1285.18
             2189.13,1286.16 2186.18,1279.51 2184.89,1276.00
             2183.32,1271.75 2180.95,1259.37 2181.33,1255.00
             2181.89,1248.49 2183.21,1249.70 2182.00,1242.00
             2176.45,1244.85 2175.94,1249.22 2174.92,1255.00
             2173.23,1264.64 2174.20,1280.60 2179.56,1288.99
             2185.35,1298.05 2189.92,1294.53 2190.00,1306.00
             2190.00,1306.00 2190.00,1316.00 2190.00,1316.00
             2190.00,1316.00 2191.04,1326.00 2191.04,1326.00
             2191.04,1326.00 2191.04,1334.00 2191.04,1334.00
             2193.26,1355.88 2200.37,1383.10 2207.33,1404.00
             2210.76,1414.29 2212.56,1427.17 2220.09,1434.96
             2229.57,1444.77 2242.13,1446.15 2255.00,1446.00
             2286.03,1445.63 2316.32,1421.15 2347.00,1438.87
             2352.06,1441.80 2356.93,1445.79 2360.96,1450.00
             2377.73,1467.55 2376.70,1493.00 2371.88,1515.00
             2360.80,1565.59 2329.39,1603.83 2293.99,1640.00
             2278.59,1655.73 2259.52,1679.52 2235.00,1677.68
             2219.64,1676.52 2215.37,1670.26 2203.00,1662.75
             2192.64,1656.45 2186.54,1654.94 2175.00,1652.49
             2172.97,1652.06 2171.12,1651.37 2169.00,1651.37
             2159.16,1651.37 2139.34,1661.32 2131.00,1666.70
             2126.43,1669.64 2123.06,1672.85 2118.00,1675.00
             2119.81,1664.88 2119.71,1642.34 2106.00,1641.00
             2110.62,1648.71 2113.37,1653.66 2112.96,1663.00
             2112.77,1667.44 2111.94,1668.28 2111.32,1672.00
             2111.32,1672.00 2110.41,1679.00 2110.41,1679.00
             2107.23,1692.61 2096.77,1712.03 2089.32,1724.00
             2089.32,1724.00 2078.07,1742.00 2078.07,1742.00
             2077.31,1743.31 2074.73,1747.64 2077.42,1748.47
             2079.72,1749.18 2083.50,1745.39 2085.00,1743.96
             2090.98,1738.22 2094.47,1733.09 2098.58,1726.00
             2103.04,1718.30 2107.10,1710.20 2110.57,1702.00
             2112.23,1698.08 2114.38,1690.19 2116.70,1687.32
             2118.85,1684.66 2124.92,1681.10 2128.00,1679.19
             2136.87,1673.70 2144.11,1669.91 2154.00,1666.42
             2160.27,1664.21 2167.70,1666.92 2174.00,1668.35
             2174.00,1668.35 2183.00,1670.54 2183.00,1670.54
             2200.14,1676.47 2216.93,1690.23 2235.00,1690.96
             2251.21,1691.62 2264.61,1682.26 2278.00,1674.58
             2298.08,1663.06 2312.36,1644.07 2326.23,1626.00
             2326.23,1626.00 2340.99,1608.00 2340.99,1608.00
             2353.48,1591.99 2364.57,1574.71 2372.57,1556.00
             2376.61,1546.57 2380.17,1536.91 2382.85,1527.00
             2384.12,1522.29 2386.05,1511.52 2387.89,1508.00
             2389.24,1505.43 2395.16,1496.20 2398.09,1496.20
             2403.34,1496.20 2407.54,1507.15 2409.80,1510.98
             2413.54,1517.31 2415.52,1514.09 2417.19,1509.00
             2417.19,1509.00 2418.87,1504.00 2418.87,1504.00
             2419.07,1501.70 2419.00,1499.33 2418.87,1497.00
             2418.87,1497.00 2418.87,1491.00 2418.87,1491.00
             2418.88,1481.10 2416.07,1479.38 2413.00,1471.00
             2413.00,1471.00 2425.00,1473.30 2425.00,1473.30
             2425.00,1473.30 2430.98,1475.43 2430.98,1475.43
             2436.66,1476.67 2435.42,1471.30 2434.05,1468.00
             2430.61,1459.75 2423.05,1455.00 2421.00,1448.00
             2428.33,1450.15 2437.18,1461.75 2441.71,1468.00
             2456.42,1488.33 2463.10,1508.16 2465.08,1533.00
             2465.44,1537.49 2466.16,1538.92 2465.96,1544.00
             2464.72,1575.95 2453.39,1606.12 2438.31,1634.00
             2417.36,1672.73 2396.39,1700.73 2364.00,1730.91
             2364.00,1730.91 2355.00,1739.01 2355.00,1739.01
             2355.00,1739.01 2342.00,1751.54 2342.00,1751.54
             2313.63,1774.89 2273.47,1797.94 2240.00,1813.31
             2188.55,1836.93 2133.32,1854.52 2077.00,1861.72
             2059.87,1863.91 2042.26,1865.97 2025.00,1866.00
             2025.00,1866.00 2008.00,1867.00 2008.00,1867.00
             2008.00,1867.00 1978.00,1867.00 1978.00,1867.00
             1978.00,1867.00 1962.00,1866.00 1962.00,1866.00
             1962.00,1866.00 1946.00,1866.00 1946.00,1866.00
             1946.00,1866.00 1921.00,1864.09 1921.00,1864.09
             1921.00,1864.09 1903.00,1862.68 1903.00,1862.68
             1903.00,1862.68 1860.00,1853.00 1860.00,1853.00
             1860.82,1854.38 1860.81,1854.85 1862.29,1855.87
             1864.55,1857.41 1879.30,1860.70 1883.00,1861.63
             1904.97,1867.12 1927.40,1871.51 1950.00,1873.09
             1950.00,1873.09 1986.00,1876.00 1986.00,1876.00
             1986.00,1876.00 2003.00,1877.00 2003.00,1877.00
             2003.00,1877.00 2030.00,1877.00 2030.00,1877.00
             2030.00,1877.00 2048.00,1876.00 2048.00,1876.00
             2048.00,1876.00 2070.00,1873.72 2070.00,1873.72
             2072.86,1873.50 2078.09,1872.39 2080.73,1873.72
             2083.37,1874.81 2084.13,1878.47 2085.00,1881.00
             2086.92,1886.57 2089.55,1891.77 2092.26,1897.00
             2097.08,1906.32 2111.99,1927.34 2119.09,1935.00
             2124.20,1940.52 2134.88,1949.04 2137.00,1956.00
             2147.89,1956.00 2170.18,1955.42 2179.96,1957.47
             2183.78,1958.27 2187.28,1960.96 2191.00,1962.57
             2191.00,1962.57 2216.00,1973.43 2216.00,1973.43
             2224.98,1978.54 2231.64,1982.63 2239.00,1990.00
             2240.99,1992.00 2244.55,1995.28 2245.34,1997.98
             2247.62,2005.73 2233.14,2003.80 2229.00,2004.00
             2229.00,2004.00 2269.96,2034.61 2269.96,2034.61
             2269.96,2034.61 2283.17,2049.04 2283.17,2049.04
             2295.50,2062.20 2304.41,2072.95 2313.00,2089.00
             2313.00,2089.00 2293.00,2074.45 2293.00,2074.45
             2293.00,2074.45 2284.02,2067.96 2284.02,2067.96
             2284.02,2067.96 2274.00,2060.00 2274.00,2060.00
             2274.00,2096.05 2284.06,2130.77 2302.00,2162.00
             2306.00,2168.97 2310.13,2175.80 2315.28,2182.00
             2326.27,2195.21 2346.03,2213.46 2365.00,2206.44
             2369.58,2204.75 2380.21,2197.21 2383.71,2193.71
             2386.59,2190.84 2393.94,2181.50 2396.08,2178.00
             2396.08,2178.00 2408.25,2155.00 2408.25,2155.00
             2408.25,2155.00 2424.37,2123.00 2424.37,2123.00
             2424.37,2123.00 2452.08,2067.00 2452.08,2067.00
             2452.08,2067.00 2458.42,2045.00 2458.42,2045.00
             2469.37,2015.98 2478.72,1986.17 2480.26,1955.00
             2480.26,1955.00 2480.26,1947.00 2480.26,1947.00
             2480.26,1947.00 2478.71,1919.00 2478.71,1919.00
             2478.71,1919.00 2477.00,1910.00 2477.00,1910.00
             2477.00,1910.00 2477.00,1902.00 2477.00,1902.00
             2477.00,1902.00 2475.17,1893.00 2475.17,1893.00
             2474.68,1888.33 2476.32,1876.69 2477.51,1872.00
             2480.62,1859.75 2488.44,1852.56 2497.00,1844.00
             2511.70,1829.30 2527.61,1815.81 2544.00,1803.01
             2585.89,1770.32 2634.20,1742.37 2684.00,1723.77
             2715.47,1712.02 2748.42,1702.38 2782.00,1699.17
             2782.00,1699.17 2800.00,1698.08 2800.00,1698.08
             2800.00,1698.08 2815.00,1699.00 2815.00,1699.00
             2821.98,1699.09 2831.24,1700.91 2838.00,1702.72
             2857.55,1707.94 2871.07,1717.06 2878.04,1737.00
             2879.31,1740.65 2880.98,1759.55 2881.00,1764.00
             2881.00,1764.00 2881.00,1806.00 2881.00,1806.00
             2880.97,1822.45 2876.47,1854.28 2873.46,1871.00
             2868.79,1896.94 2864.09,1921.62 2853.57,1946.00
             2849.68,1955.02 2837.12,1975.12 2830.99,1983.00
             2826.34,1988.96 2818.62,1996.05 2819.07,2004.00
             2819.63,2013.86 2827.45,2011.54 2834.00,2011.04
             2834.00,2011.04 2844.00,2011.04 2844.00,2011.04
             2844.00,2011.04 2831.00,2033.00 2831.00,2033.00
             2831.00,2033.00 2842.00,2033.00 2842.00,2033.00
             2839.65,2040.18 2829.21,2041.84 2824.74,2049.00
             2822.14,2053.17 2822.58,2057.74 2828.02,2058.89
             2828.02,2058.89 2833.00,2058.89 2833.00,2058.89
             2831.09,2065.11 2823.88,2067.17 2819.00,2070.75
             2819.00,2070.75 2790.00,2094.95 2790.00,2094.95
             2790.00,2094.95 2741.96,2143.00 2741.96,2143.00
             2741.96,2143.00 2718.01,2167.00 2718.01,2167.00
             2718.01,2167.00 2708.96,2177.00 2708.96,2177.00
             2708.96,2177.00 2692.00,2194.00 2692.00,2194.00
             2682.64,2203.47 2685.04,2203.81 2679.79,2210.00
             2679.79,2210.00 2659.04,2232.00 2659.04,2232.00
             2659.04,2232.00 2650.96,2241.00 2650.96,2241.00
             2614.53,2279.08 2559.36,2331.99 2519.00,2365.57
             2519.00,2365.57 2496.00,2383.80 2496.00,2383.80
             2478.56,2397.75 2459.24,2411.19 2439.00,2420.67
             2439.00,2420.67 2429.00,2426.28 2429.00,2426.28
             2429.00,2426.28 2404.00,2429.32 2404.00,2429.32
             2404.00,2429.32 2390.00,2432.22 2390.00,2432.22
             2385.96,2433.46 2383.52,2435.30 2379.00,2434.78
             2374.94,2434.31 2368.00,2430.72 2364.00,2429.00
             2364.00,2429.00 2330.00,2412.42 2330.00,2412.42
             2297.09,2393.83 2266.38,2376.26 2236.00,2353.47
             2220.35,2341.74 2205.31,2329.24 2191.00,2315.91
             2191.00,2315.91 2176.00,2301.10 2176.00,2301.10
             2172.14,2297.62 2161.65,2289.85 2156.56,2294.60
             2153.39,2297.55 2153.01,2306.84 2153.00,2311.00
             2153.00,2311.00 2153.00,2328.00 2153.00,2328.00
             2152.94,2331.11 2152.68,2335.81 2148.07,2334.34
             2143.95,2333.03 2141.61,2325.98 2135.00,2321.00
             2136.95,2334.75 2142.60,2336.85 2141.52,2344.00
             2140.25,2352.33 2124.67,2372.23 2119.14,2380.00
             2109.67,2393.30 2083.54,2434.09 2076.08,2448.00
             2069.74,2459.82 2066.53,2467.68 2064.44,2481.00
             2064.44,2481.00 2062.00,2505.00 2062.00,2505.00
             2062.00,2505.00 2060.00,2505.00 2060.00,2505.00
             2056.78,2499.31 2056.03,2494.03 2050.00,2491.00
             2050.00,2491.00 2045.00,2512.00 2045.00,2512.00
             2045.00,2512.00 2031.00,2513.00 2031.00,2513.00
             2033.13,2520.46 2047.42,2546.03 2052.00,2554.00
             2069.92,2585.16 2085.20,2607.85 2107.66,2636.00
             2107.66,2636.00 2114.70,2644.00 2114.70,2644.00
             2114.70,2644.00 2122.09,2652.99 2122.09,2652.99
             2127.12,2658.28 2128.98,2658.18 2133.00,2665.00
             2131.18,2666.02 2127.49,2667.76 2128.90,2670.47
             2129.61,2671.84 2131.83,2672.20 2134.56,2676.06
             2134.56,2676.06 2151.42,2700.00 2151.42,2700.00
             2151.42,2700.00 2176.85,2733.00 2176.85,2733.00
             2195.06,2757.97 2211.66,2783.82 2228.05,2810.00
             2243.51,2834.70 2263.02,2870.65 2275.74,2897.00
             2275.74,2897.00 2280.78,2909.00 2280.78,2909.00
             2280.78,2909.00 2288.11,2923.00 2288.11,2923.00
             2303.22,2954.93 2315.92,2987.92 2328.23,3021.00
             2328.23,3021.00 2346.34,3072.00 2346.34,3072.00
             2346.34,3072.00 2352.43,3089.00 2352.43,3089.00
             2355.91,3100.56 2360.86,3129.05 2361.00,3141.00
             2361.24,3162.00 2354.49,3173.11 2341.25,3189.00
             2336.98,3194.12 2327.99,3203.11 2322.00,3205.86
             2316.98,3208.18 2305.69,3208.62 2300.00,3209.17
             2300.00,3209.17 2289.00,3211.06 2289.00,3211.06
             2289.00,3211.06 2281.00,3211.06 2281.00,3211.06
             2281.00,3211.06 2272.00,3213.00 2272.00,3213.00
             2272.00,3213.00 2261.00,3213.00 2261.00,3213.00
             2261.00,3213.00 2250.00,3215.06 2250.00,3215.06
             2250.00,3215.06 2240.00,3215.06 2240.00,3215.06
             2233.47,3216.09 2232.36,3216.96 2225.00,3217.00
             2225.00,3217.00 2205.00,3218.96 2205.00,3218.96
             2205.00,3218.96 2196.00,3218.96 2196.00,3218.96
             2196.00,3218.96 2177.00,3221.08 2177.00,3221.08
             2177.00,3221.08 2165.00,3221.08 2165.00,3221.08
             2165.00,3221.08 2145.00,3223.00 2145.00,3223.00
             2133.92,3223.02 2116.07,3224.08 2106.00,3221.00
             2105.85,3222.77 2105.96,3224.74 2104.40,3225.98
             2102.81,3227.23 2098.99,3227.00 2097.00,3227.00
             2097.00,3227.00 2078.00,3227.00 2078.00,3227.00
             2078.00,3227.00 2063.00,3228.00 2063.00,3228.00
             2063.00,3228.00 2010.00,3227.00 2010.00,3227.00
             2000.25,3226.88 1990.52,3224.40 1981.00,3222.60
             1981.00,3222.60 1973.00,3222.60 1973.00,3222.60
             1973.00,3222.60 1948.00,3217.37 1948.00,3217.37
             1937.64,3215.44 1933.13,3218.07 1923.00,3209.67
             1911.29,3199.97 1907.07,3181.65 1907.00,3167.00
             1906.93,3152.48 1902.63,3153.52 1903.04,3143.00
             1903.96,3119.06 1910.60,3095.73 1913.72,3072.00
             1913.72,3072.00 1919.00,3022.00 1919.00,3022.00
             1919.00,3022.00 1920.00,3003.00 1920.00,3003.00
             1920.00,3003.00 1920.00,2984.00 1920.00,2984.00
             1920.00,2984.00 1920.92,2973.00 1920.92,2973.00
             1920.92,2973.00 1920.00,2962.00 1920.00,2962.00
             1920.00,2962.00 1920.00,2936.00 1920.00,2936.00
             1920.00,2936.00 1916.15,2897.00 1916.15,2897.00
             1912.78,2868.76 1907.68,2840.68 1901.12,2813.00
             1901.12,2813.00 1886.14,2755.00 1886.14,2755.00
             1883.60,2746.07 1878.20,2731.71 1878.00,2723.00
             1874.66,2722.85 1869.19,2721.34 1866.65,2723.60
             1864.80,2725.24 1860.43,2737.47 1858.63,2741.00
             1858.63,2741.00 1835.72,2783.00 1835.72,2783.00
             1819.58,2810.98 1799.92,2837.38 1777.91,2861.00
             1777.91,2861.00 1750.09,2887.28 1750.09,2887.28
             1750.09,2887.28 1740.83,2897.91 1740.83,2897.91
             1740.83,2897.91 1722.00,2913.53 1722.00,2913.53
             1719.96,2915.06 1712.92,2920.31 1711.00,2921.05
             1704.81,2923.43 1699.82,2914.93 1695.99,2911.00
             1695.99,2911.00 1682.91,2897.17 1682.91,2897.17
             1682.91,2897.17 1660.00,2876.08 1660.00,2876.08
             1644.56,2861.91 1622.88,2846.71 1605.00,2835.58
             1605.00,2835.58 1571.00,2816.63 1571.00,2816.63
             1571.00,2816.63 1562.00,2813.55 1562.00,2813.55
             1562.00,2813.55 1548.00,2806.21 1548.00,2806.21
             1543.52,2804.85 1521.88,2804.93 1516.00,2805.00
             1516.00,2805.00 1500.00,2806.72 1500.00,2806.72
             1500.00,2806.72 1475.00,2810.63 1475.00,2810.63
             1475.00,2810.63 1467.00,2813.66 1467.00,2813.66
             1440.13,2823.15 1430.46,2828.61 1408.00,2846.55
             1402.39,2851.03 1396.05,2855.90 1391.04,2861.01
             1391.04,2861.01 1380.20,2874.00 1380.20,2874.00
             1380.20,2874.00 1367.90,2889.00 1367.90,2889.00
             1367.90,2889.00 1355.57,2907.00 1355.57,2907.00
             1345.63,2921.29 1333.88,2938.52 1326.12,2954.00
             1326.12,2954.00 1319.80,2970.00 1319.80,2970.00
             1319.80,2970.00 1309.72,2994.00 1309.72,2994.00
             1301.44,3013.20 1295.11,3032.87 1289.58,3053.00
             1282.64,3078.25 1277.74,3103.88 1275.91,3130.00
             1275.91,3130.00 1275.00,3140.00 1275.00,3140.00
             1275.00,3140.00 1275.00,3157.00 1275.00,3157.00
             1275.01,3160.48 1276.55,3169.23 1274.40,3171.40
             1271.19,3174.64 1265.22,3171.35 1262.00,3169.75
             1262.00,3169.75 1230.00,3152.70 1230.00,3152.70
             1207.91,3140.54 1177.44,3118.99 1169.77,3094.00
             1167.62,3087.00 1167.92,3080.22 1168.00,3073.00
             1168.14,3061.67 1173.60,3050.14 1180.04,3041.00
             1186.71,3031.55 1188.71,3032.97 1193.41,3021.00
             1195.20,3016.43 1199.64,3011.49 1198.60,3006.09
             1197.95,3002.71 1188.78,2994.78 1186.00,2992.00
             1176.31,2982.31 1166.02,2971.27 1158.20,2960.00
             1158.20,2960.00 1137.74,2923.00 1137.74,2923.00
             1125.13,2898.39 1113.33,2873.76 1103.20,2848.00
             1091.06,2817.11 1080.32,2783.69 1074.42,2751.00
             1074.42,2751.00 1068.00,2700.00 1068.00,2700.00
             1068.00,2700.00 1067.32,2686.00 1067.32,2686.00
             1067.32,2686.00 1068.00,2668.00 1068.00,2668.00
             1068.00,2668.00 1068.91,2658.00 1068.91,2658.00
             1070.71,2633.37 1074.68,2621.72 1083.39,2599.00
             1083.39,2599.00 1086.90,2589.00 1086.90,2589.00
             1086.90,2589.00 1096.22,2572.00 1096.22,2572.00
             1096.22,2572.00 1113.31,2536.00 1113.31,2536.00
             1113.31,2536.00 1127.58,2513.00 1127.58,2513.00
             1127.58,2513.00 1137.61,2497.00 1137.61,2497.00
             1140.28,2493.41 1143.85,2490.29 1146.91,2487.00
             1146.91,2487.00 1162.00,2471.09 1162.00,2471.09
             1162.00,2471.09 1177.00,2457.96 1177.00,2457.96
             1177.00,2457.96 1203.00,2432.17 1203.00,2432.17
             1225.25,2412.04 1253.25,2391.25 1279.00,2375.80
             1279.00,2375.80 1293.00,2367.71 1293.00,2367.71
             1293.00,2367.71 1304.00,2363.22 1304.00,2363.22
             1336.83,2347.72 1361.45,2337.43 1397.00,2328.77
             1397.00,2328.77 1416.00,2322.39 1416.00,2322.39
             1416.00,2322.39 1446.00,2320.00 1446.00,2320.00
             1444.60,2318.45 1443.98,2317.42 1441.91,2316.60
             1438.87,2315.39 1427.36,2317.36 1429.66,2310.07
             1430.53,2307.29 1434.78,2304.60 1437.00,2302.70
             1437.00,2302.70 1452.00,2288.00 1452.00,2288.00
             1466.82,2273.18 1479.05,2256.29 1490.81,2239.00
             1507.54,2214.40 1523.98,2181.85 1534.58,2154.00
             1534.58,2154.00 1544.36,2123.00 1544.36,2123.00
             1544.36,2123.00 1553.00,2102.00 1553.00,2102.00
             1553.00,2102.00 1543.00,2103.00 1543.00,2103.00
             1544.36,2097.41 1553.86,2079.49 1557.20,2074.00
             1560.53,2068.54 1564.84,2065.57 1564.00,2059.00
             1556.04,2062.45 1551.69,2067.15 1543.00,2064.00
             1545.01,2058.29 1553.85,2057.12 1559.00,2054.76
             1563.97,2052.48 1567.96,2048.64 1572.00,2045.05
             1572.00,2045.05 1607.00,2014.15 1607.00,2014.15
             1609.94,2011.57 1619.23,2002.52 1622.00,2001.69
             1622.00,2001.69 1644.00,2003.00 1644.00,2003.00
             1644.00,2003.00 1655.00,2003.00 1655.00,2003.00
             1655.00,2003.00 1676.00,2004.00 1676.00,2004.00
             1676.00,2004.00 1715.00,1999.63 1715.00,1999.63
             1715.00,1999.63 1725.00,1996.12 1725.00,1996.12
             1729.10,1994.81 1739.79,1991.59 1742.90,1989.64
             1746.64,1987.29 1749.47,1982.49 1752.22,1979.00
             1755.86,1974.40 1761.67,1967.92 1764.28,1962.71
             1766.61,1958.06 1769.15,1943.81 1770.42,1938.00
             1770.42,1938.00 1776.04,1912.00 1776.04,1912.00
             1777.75,1904.84 1779.91,1899.63 1780.00,1892.00
             1780.00,1892.00 1780.00,1876.00 1780.00,1876.00
             1780.00,1876.00 1781.00,1863.00 1781.00,1863.00
             1781.00,1863.00 1781.00,1840.00 1781.00,1840.00
             1780.98,1828.21 1776.69,1815.66 1774.21,1804.00
             1774.21,1804.00 1769.02,1781.04 1769.02,1781.04
             1769.02,1781.04 1756.28,1760.87 1756.28,1760.87
             1756.28,1760.87 1730.99,1723.43 1730.99,1723.43
             1730.99,1723.43 1723.12,1713.83 1723.12,1713.83
             1720.45,1709.94 1719.46,1704.92 1715.91,1700.51
             1708.81,1691.69 1691.33,1677.97 1682.00,1671.29
             1678.83,1669.02 1669.02,1661.29 1666.00,1660.46
             1661.32,1659.18 1655.37,1664.96 1651.72,1667.46
             1651.72,1667.46 1631.00,1677.31 1631.00,1677.31
             1631.00,1677.31 1622.72,1682.03 1622.72,1682.03
             1622.72,1682.03 1589.00,1697.37 1589.00,1697.37
             1589.00,1697.37 1573.00,1699.17 1573.00,1699.17
             1573.00,1699.17 1544.00,1701.96 1544.00,1701.96
             1509.09,1703.48 1473.85,1681.44 1451.72,1656.00
             1420.71,1620.35 1397.23,1567.86 1390.43,1521.00
             1390.43,1521.00 1388.83,1504.00 1388.83,1504.00
             1388.83,1504.00 1387.00,1483.00 1387.00,1483.00
             1384.71,1483.76 1380.22,1485.38 1378.01,1485.59
             1374.34,1486.03 1373.73,1484.55 1369.91,1485.59
             1369.91,1485.59 1357.00,1489.98 1357.00,1489.98
             1339.65,1495.37 1330.10,1497.10 1312.00,1497.00
             1308.55,1496.98 1307.36,1496.95 1304.00,1496.00
             1304.00,1496.00 1310.94,1485.00 1310.94,1485.00
             1310.94,1485.00 1324.00,1458.00 1324.00,1458.00
             1317.75,1461.30 1316.96,1467.26 1311.91,1469.98
             1309.54,1471.26 1305.69,1471.02 1303.00,1471.00
             1301.18,1470.99 1298.73,1471.05 1297.04,1470.40
             1292.20,1468.54 1286.06,1459.97 1285.00,1455.00
             1285.00,1455.00 1302.86,1450.44 1302.86,1450.44
             1306.24,1448.84 1305.41,1446.77 1309.14,1444.99
             1313.93,1442.71 1317.85,1444.01 1321.00,1439.00 Z
           M 2257.00,1173.00
           C 2258.38,1166.23 2266.60,1155.10 2270.67,1149.00
             2270.67,1149.00 2286.18,1126.00 2286.18,1126.00
             2295.86,1114.99 2308.14,1107.38 2321.00,1100.64
             2327.10,1097.44 2335.48,1093.13 2342.00,1091.12
             2344.80,1090.38 2349.00,1089.39 2351.66,1091.12
             2354.94,1093.03 2357.06,1100.42 2358.42,1104.00
             2358.42,1104.00 2370.42,1136.00 2370.42,1136.00
             2371.74,1139.52 2375.10,1147.10 2373.40,1150.69
             2372.00,1153.63 2366.77,1153.05 2364.00,1152.99
             2364.00,1152.99 2351.00,1151.29 2351.00,1151.29
             2351.00,1151.29 2328.00,1149.04 2328.00,1149.04
             2320.94,1148.82 2306.08,1151.88 2299.00,1153.75
             2290.77,1155.94 2279.46,1160.78 2272.00,1164.90
             2266.43,1167.96 2263.36,1171.44 2257.00,1173.00 Z
           M 1388.00,1482.00
           C 1388.00,1482.00 1387.00,1482.00 1387.00,1482.00
             1387.00,1482.00 1388.00,1483.00 1388.00,1483.00
             1388.00,1483.00 1388.00,1482.00 1388.00,1482.00 Z
           M 659.00,1793.00
           C 659.00,1793.00 697.00,1793.00 697.00,1793.00
             697.00,1793.00 697.00,1849.00 697.00,1849.00
             697.00,1849.00 753.00,1849.00 753.00,1849.00
             753.00,1849.00 753.00,1887.00 753.00,1887.00
             753.00,1887.00 697.00,1887.00 697.00,1887.00
             697.00,1887.00 697.00,1943.00 697.00,1943.00
             697.00,1943.00 659.00,1943.00 659.00,1943.00
             659.00,1943.00 659.00,1887.00 659.00,1887.00
             659.00,1887.00 603.00,1887.00 603.00,1887.00
             603.00,1887.00 603.00,1849.00 603.00,1849.00
             603.00,1849.00 659.00,1849.00 659.00,1849.00
             659.00,1849.00 659.00,1793.00 659.00,1793.00 Z
           M 2840.00,2312.00
           C 2840.00,2312.00 2863.00,2302.61 2863.00,2302.61
             2865.31,2301.75 2869.05,2300.27 2870.98,2302.61
             2871.69,2303.45 2873.02,2309.45 2873.45,2311.00
             2873.45,2311.00 2878.68,2334.00 2878.68,2334.00
             2879.42,2336.92 2882.31,2343.56 2886.27,2342.44
             2891.32,2341.00 2890.45,2335.67 2889.21,2332.00
             2886.84,2324.96 2880.72,2306.61 2881.09,2300.00
             2881.09,2300.00 2885.00,2247.00 2885.00,2247.00
             2885.03,2244.86 2884.90,2241.47 2886.74,2239.99
             2888.57,2238.53 2891.86,2239.36 2894.00,2239.16
             2894.00,2239.16 2906.00,2239.16 2906.00,2239.16
             2906.00,2239.16 2922.00,2239.16 2922.00,2239.16
             2924.51,2239.03 2929.35,2239.09 2931.25,2240.90
             2932.74,2242.33 2932.53,2244.14 2932.38,2246.00
             2932.38,2246.00 2930.04,2266.00 2930.04,2266.00
             2930.04,2266.00 2930.04,2276.00 2930.04,2276.00
             2928.69,2293.83 2927.66,2302.46 2933.51,2320.00
             2936.58,2329.22 2938.17,2334.76 2945.00,2342.00
             2947.07,2330.40 2942.47,2318.41 2940.23,2307.00
             2939.78,2303.10 2940.00,2297.13 2940.23,2293.00
             2940.23,2293.00 2969.00,2295.00 2969.00,2295.00
             2971.82,2295.25 2979.50,2295.81 2981.39,2297.74
             2983.44,2299.83 2982.04,2305.97 2982.00,2309.00
             2982.00,2309.00 2981.00,2325.00 2981.00,2325.00
             2981.00,2325.00 2981.00,2343.00 2981.00,2343.00
             2981.01,2346.24 2980.82,2352.00 2983.21,2354.48
             2987.17,2358.60 2987.97,2348.81 2988.00,2347.00
             2988.00,2347.00 2988.00,2329.00 2988.00,2329.00
             2988.00,2329.00 2990.00,2307.00 2990.00,2307.00
             2990.00,2307.00 3012.00,2308.00 3012.00,2308.00
             3012.00,2308.00 3014.17,2363.00 3014.17,2363.00
             3014.17,2363.00 3016.75,2378.00 3016.75,2378.00
             3017.32,2380.17 3018.80,2383.81 3018.50,2385.94
             3017.85,2390.57 3012.47,2389.99 3009.00,2390.04
             3009.00,2390.04 2998.00,2390.04 2998.00,2390.04
             2998.00,2390.04 2988.00,2391.00 2988.00,2391.00
             2988.00,2391.00 2925.00,2391.00 2925.00,2391.00
             2925.00,2391.00 2908.00,2390.00 2908.00,2390.00
             2908.00,2390.00 2864.00,2390.00 2864.00,2390.00
             2858.22,2389.93 2846.44,2386.38 2842.84,2381.73
             2842.84,2381.73 2831.31,2351.00 2831.31,2351.00
             2828.82,2344.02 2823.62,2331.85 2823.00,2325.00
             2823.00,2325.00 2834.00,2323.00 2834.00,2323.00
             2834.34,2338.73 2838.11,2340.35 2841.00,2353.00
             2848.07,2347.27 2845.69,2343.76 2844.44,2336.00
             2844.44,2336.00 2840.00,2312.00 2840.00,2312.00 Z
           M 2053.00,2508.00
           C 2058.63,2509.60 2062.28,2514.17 2065.40,2511.36
             2067.04,2509.88 2067.07,2506.14 2067.60,2504.00
             2067.60,2504.00 2073.42,2485.00 2073.42,2485.00
             2082.23,2461.57 2087.99,2453.03 2100.60,2432.00
             2100.60,2432.00 2112.00,2413.00 2112.00,2413.00
             2113.37,2410.82 2115.03,2407.66 2118.04,2407.82
             2121.47,2408.01 2128.11,2415.01 2131.00,2417.39
             2131.00,2417.39 2142.83,2427.17 2142.83,2427.17
             2148.71,2433.09 2158.33,2448.29 2162.24,2456.00
             2175.08,2481.25 2182.15,2503.80 2185.16,2532.00
             2185.16,2532.00 2186.68,2554.00 2186.68,2554.00
             2186.68,2554.00 2184.71,2580.00 2184.71,2580.00
             2184.71,2580.00 2179.78,2604.00 2179.78,2604.00
             2179.78,2604.00 2179.78,2614.00 2179.78,2614.00
             2178.68,2618.86 2173.92,2631.07 2171.86,2636.00
             2170.65,2638.89 2169.79,2642.17 2166.87,2644.00
             2163.78,2645.58 2151.94,2644.46 2148.00,2644.00
             2141.40,2643.72 2128.72,2647.96 2123.04,2644.98
             2120.13,2643.45 2117.76,2639.65 2115.86,2637.00
             2115.86,2637.00 2103.86,2620.00 2103.86,2620.00
             2103.86,2620.00 2074.60,2575.00 2074.60,2575.00
             2074.60,2575.00 2055.22,2541.00 2055.22,2541.00
             2053.13,2537.07 2048.61,2530.23 2048.26,2526.00
             2047.78,2520.20 2052.48,2517.33 2053.00,2508.00 Z
           M 2135.00,2657.00
           C 2142.21,2654.00 2143.05,2655.54 2150.00,2654.72
             2165.16,2652.92 2176.87,2652.98 2192.00,2653.00
             2192.00,2653.00 2216.00,2654.91 2216.00,2654.91
             2216.00,2654.91 2243.00,2657.28 2243.00,2657.28
             2296.66,2664.89 2349.64,2686.11 2393.00,2718.63
             2401.74,2725.18 2413.31,2734.34 2420.83,2742.09
             2420.83,2742.09 2430.00,2752.58 2430.00,2752.58
             2447.93,2773.05 2460.98,2789.69 2471.85,2815.00
             2471.85,2815.00 2475.41,2822.87 2475.41,2822.87
             2477.80,2826.82 2481.93,2828.43 2480.61,2836.00
             2479.23,2843.91 2472.07,2861.37 2465.70,2866.30
             2462.85,2868.51 2457.55,2869.49 2454.00,2870.37
             2454.00,2870.37 2430.00,2876.37 2430.00,2876.37
             2430.00,2876.37 2342.00,2895.80 2342.00,2895.80
             2342.00,2895.80 2307.00,2902.41 2307.00,2902.41
             2303.20,2903.02 2295.36,2904.74 2292.05,2902.98
             2288.24,2900.94 2281.85,2886.53 2279.51,2882.00
             2279.51,2882.00 2265.14,2855.00 2265.14,2855.00
             2265.14,2855.00 2255.68,2838.00 2255.68,2838.00
             2255.68,2838.00 2252.29,2828.00 2252.29,2828.00
             2252.29,2828.00 2233.42,2797.00 2233.42,2797.00
             2217.91,2772.22 2200.98,2748.05 2182.99,2725.00
             2182.99,2725.00 2149.59,2685.00 2149.59,2685.00
             2145.48,2680.12 2138.71,2674.76 2139.00,2668.00
             2139.24,2662.40 2137.23,2662.00 2135.00,2657.00 Z
           M 1870.49,2741.04
           C 1877.23,2738.91 1877.91,2746.14 1879.13,2751.00
             1879.13,2751.00 1888.65,2790.00 1888.65,2790.00
             1888.65,2790.00 1901.39,2849.00 1901.39,2849.00
             1901.39,2849.00 1907.58,2891.00 1907.58,2891.00
             1907.58,2891.00 1909.91,2917.00 1909.91,2917.00
             1910.09,2919.62 1910.37,2924.43 1908.40,2926.40
             1905.98,2928.82 1896.54,2927.96 1893.00,2928.00
             1893.00,2928.00 1883.00,2928.95 1883.00,2928.95
             1883.00,2928.95 1869.00,2928.95 1869.00,2928.95
             1869.00,2928.95 1854.00,2928.00 1854.00,2928.00
             1854.00,2928.00 1837.00,2928.00 1837.00,2928.00
             1837.00,2928.00 1825.00,2927.04 1825.00,2927.04
             1825.00,2927.04 1811.00,2927.04 1811.00,2927.04
             1811.00,2927.04 1784.00,2925.03 1784.00,2925.03
             1775.39,2924.56 1757.69,2924.48 1753.17,2915.96
             1751.23,2912.30 1751.83,2907.43 1754.43,2904.28
             1754.43,2904.28 1765.00,2894.83 1765.00,2894.83
             1765.00,2894.83 1783.00,2877.00 1783.00,2877.00
             1802.55,2857.22 1829.29,2819.68 1842.69,2795.00
             1842.69,2795.00 1861.75,2758.00 1861.75,2758.00
             1864.04,2753.42 1867.38,2744.29 1870.49,2741.04 Z
           M 1524.00,2817.42
           C 1538.08,2815.71 1551.32,2820.26 1564.00,2826.00
             1581.56,2833.94 1598.00,2844.28 1614.00,2855.00
             1639.93,2872.37 1666.66,2895.19 1687.91,2918.00
             1687.91,2918.00 1703.30,2936.00 1703.30,2936.00
             1703.30,2936.00 1712.39,2946.00 1712.39,2946.00
             1739.86,2979.34 1771.40,3029.42 1783.71,3071.00
             1791.03,3095.74 1795.02,3119.33 1797.08,3145.00
             1797.65,3152.08 1801.51,3164.76 1798.56,3171.00
             1794.21,3180.21 1787.78,3185.17 1781.09,3192.04
             1781.09,3192.04 1772.99,3200.82 1772.99,3200.82
             1761.80,3210.90 1740.16,3222.12 1726.00,3227.80
             1712.80,3233.10 1700.94,3237.53 1687.00,3240.77
             1672.19,3244.20 1657.08,3245.73 1642.00,3247.17
             1642.00,3247.17 1608.00,3250.00 1608.00,3250.00
             1608.00,3250.00 1518.00,3250.00 1518.00,3250.00
             1518.00,3250.00 1501.00,3249.00 1501.00,3249.00
             1501.00,3249.00 1478.00,3248.00 1478.00,3248.00
             1478.00,3248.00 1460.00,3247.00 1460.00,3247.00
             1460.00,3247.00 1448.00,3247.00 1448.00,3247.00
             1448.00,3247.00 1435.00,3246.00 1435.00,3246.00
             1435.00,3246.00 1405.00,3244.09 1405.00,3244.09
             1405.00,3244.09 1366.00,3241.83 1366.00,3241.83
             1366.00,3241.83 1317.00,3237.47 1317.00,3237.47
             1313.51,3236.93 1312.13,3237.58 1309.00,3237.47
             1307.56,3237.94 1305.64,3238.02 1304.30,3237.47
             1302.70,3236.67 1294.89,3225.99 1293.75,3224.00
             1284.20,3207.35 1286.97,3185.58 1287.00,3167.00
             1287.00,3167.00 1287.91,3155.00 1287.91,3155.00
             1287.91,3155.00 1289.30,3136.00 1289.30,3136.00
             1289.30,3136.00 1291.72,3125.00 1291.72,3125.00
             1291.72,3125.00 1294.14,3106.00 1294.14,3106.00
             1294.14,3106.00 1296.58,3094.00 1296.58,3094.00
             1300.89,3066.29 1306.93,3043.82 1314.58,3017.00
             1314.58,3017.00 1327.33,2976.00 1327.33,2976.00
             1335.71,2956.11 1351.99,2928.61 1364.58,2911.00
             1371.82,2900.86 1390.36,2876.89 1399.04,2869.32
             1399.04,2869.32 1411.91,2860.28 1411.91,2860.28
             1411.91,2860.28 1422.00,2852.04 1422.00,2852.04
             1442.02,2837.90 1469.03,2826.63 1493.00,2821.51
             1493.00,2821.51 1524.00,2817.42 1524.00,2817.42 Z
           M 2762.00,2930.00
           C 2762.00,2930.00 2800.00,2930.00 2800.00,2930.00
             2800.00,2930.00 2800.00,2986.00 2800.00,2986.00
             2800.00,2986.00 2856.00,2986.00 2856.00,2986.00
             2856.00,2986.00 2856.00,3024.00 2856.00,3024.00
             2856.00,3024.00 2800.00,3024.00 2800.00,3024.00
             2800.00,3024.00 2800.00,3080.00 2800.00,3080.00
             2800.00,3080.00 2762.00,3080.00 2762.00,3080.00
             2762.00,3080.00 2762.00,3024.00 2762.00,3024.00
             2762.00,3024.00 2706.00,3024.00 2706.00,3024.00
             2706.00,3024.00 2706.00,2986.00 2706.00,2986.00
             2706.00,2986.00 2762.00,2986.00 2762.00,2986.00
             2762.00,2986.00 2762.00,2930.00 2762.00,2930.00 Z" />
</svg>
