<?xml version="1.0" encoding="UTF-8" standalone="no"?>
<!DOCTYPE svg PUBLIC "-//W3C//DTD SVG 20010904//EN"
              "http://www.w3.org/TR/2001/REC-SVG-20010904/DTD/svg10.dtd">

<svg xmlns="http://www.w3.org/2000/svg"
     width="12in" height="12in"
     viewBox="0 0 3600 3600">
  <path id="3 black"
        fill="none" stroke="black" stroke-width="1"
        d="M 3083.00,420.00
           C 3083.00,420.00 3159.00,420.00 3159.00,420.00
             3159.00,420.00 3159.00,531.00 3159.00,531.00
             3159.00,531.00 3272.00,531.00 3272.00,531.00
             3272.00,531.00 3272.00,607.00 3272.00,607.00
             3272.00,607.00 3159.00,607.00 3159.00,607.00
             3159.00,607.00 3159.00,718.00 3159.00,718.00
             3159.00,718.00 3083.00,718.00 3083.00,718.00
             3083.00,718.00 3083.00,607.00 3083.00,607.00
             3083.00,607.00 2972.00,607.00 2972.00,607.00
             2972.00,607.00 2972.00,531.00 2972.00,531.00
             2972.00,531.00 3083.00,531.00 3083.00,531.00
             3083.00,531.00 3083.00,420.00 3083.00,420.00 Z
           M 1744.00,1105.00
           C 1745.04,1096.12 1748.84,1098.91 1756.00,1098.92
             1756.00,1098.92 1838.00,1098.92 1838.00,1098.92
             1838.00,1098.92 2006.00,1098.92 2006.00,1098.92
             2006.00,1098.92 2060.00,1098.92 2060.00,1098.92
             2060.00,1098.92 2082.87,1098.92 2082.87,1098.92
             2086.26,1099.30 2085.66,1102.14 2088.31,1104.15
             2090.70,1105.96 2094.14,1105.96 2097.00,1105.81
             2097.00,1105.81 2108.00,1105.81 2108.00,1105.81
             2114.93,1105.13 2112.39,1107.96 2116.29,1111.04
             2116.29,1111.04 2119.42,1112.96 2119.42,1112.96
             2119.42,1112.96 2122.58,1117.42 2122.58,1117.42
             2122.58,1117.42 2127.04,1120.58 2127.04,1120.58
             2127.04,1120.58 2129.58,1124.42 2129.58,1124.42
             2133.21,1128.06 2133.46,1123.99 2136.00,1133.00
             2144.23,1132.74 2139.22,1136.91 2143.00,1147.00
             2150.56,1146.76 2148.07,1152.48 2148.05,1158.00
             2148.05,1158.00 2148.05,1196.00 2148.05,1196.00
             2148.05,1196.00 2148.05,1211.94 2148.05,1211.94
             2147.47,1216.36 2144.11,1215.30 2142.17,1218.31
             2140.77,1220.48 2141.00,1224.45 2141.06,1227.00
             2141.06,1227.00 2141.06,1258.00 2141.06,1258.00
             2141.41,1266.38 2137.98,1262.86 2135.17,1267.30
             2133.77,1269.51 2134.00,1273.42 2134.03,1276.00
             2134.03,1276.00 2134.03,1328.00 2134.03,1328.00
             2134.03,1328.00 2134.03,1338.78 2134.03,1338.78
             2133.13,1341.56 2130.40,1341.64 2128.73,1343.56
             2126.66,1345.93 2127.00,1350.02 2127.00,1353.00
             2127.00,1353.00 2127.00,1398.00 2127.00,1398.00
             2127.00,1398.00 2127.00,1442.00 2127.00,1442.00
             2127.07,1447.52 2129.56,1453.24 2122.00,1453.00
             2120.10,1458.07 2117.69,1471.46 2123.28,1474.98
             2124.90,1476.00 2127.14,1475.96 2129.00,1476.00
             2129.00,1476.00 2183.00,1476.00 2183.00,1476.00
             2183.00,1476.00 2259.00,1476.00 2259.00,1476.00
             2261.10,1476.00 2264.69,1475.76 2266.42,1477.02
             2268.10,1478.25 2268.17,1480.61 2270.31,1481.98
             2272.23,1483.21 2275.75,1483.00 2278.00,1483.00
             2278.00,1483.00 2329.00,1483.00 2329.00,1483.00
             2331.10,1483.00 2334.69,1482.76 2336.42,1484.02
             2338.10,1485.25 2338.17,1487.61 2340.31,1488.98
             2342.23,1490.21 2345.75,1490.00 2348.00,1490.00
             2348.00,1490.00 2392.00,1490.00 2392.00,1490.00
             2394.10,1490.00 2397.69,1489.76 2399.42,1491.02
             2401.10,1492.25 2401.17,1494.61 2403.31,1495.98
             2405.23,1497.21 2408.75,1497.00 2411.00,1497.00
             2411.00,1497.00 2436.00,1497.00 2436.00,1497.00
             2438.44,1497.00 2445.83,1496.71 2447.69,1497.60
             2450.22,1498.80 2449.90,1501.43 2452.31,1502.98
             2457.48,1506.29 2463.18,1500.19 2464.00,1510.00
             2469.43,1510.65 2470.35,1511.57 2471.00,1517.00
             2476.13,1517.61 2477.39,1518.87 2478.00,1524.00
             2483.43,1524.65 2484.35,1525.57 2485.00,1531.00
             2490.42,1531.64 2491.36,1532.58 2492.00,1538.00
             2497.56,1538.46 2497.89,1539.52 2498.00,1545.00
             2498.00,1545.00 2498.00,1565.00 2498.00,1565.00
             2498.05,1567.73 2498.03,1570.47 2500.31,1572.40
             2502.56,1574.29 2506.23,1573.99 2509.00,1574.00
             2509.00,1574.00 2623.00,1574.00 2623.00,1574.00
             2625.05,1574.00 2628.60,1573.74 2630.28,1574.99
             2631.88,1576.18 2632.15,1578.62 2634.30,1579.98
             2636.25,1581.21 2639.73,1581.00 2642.00,1581.00
             2642.00,1581.00 2662.00,1581.00 2662.00,1581.00
             2664.07,1581.00 2669.95,1580.76 2671.57,1581.57
             2673.77,1582.68 2673.75,1584.89 2674.00,1587.00
             2678.74,1587.56 2680.44,1589.26 2681.00,1594.00
             2685.74,1594.56 2687.44,1596.26 2688.00,1601.00
             2693.13,1601.61 2694.39,1602.87 2695.00,1608.00
             2695.00,1608.00 2700.01,1609.74 2700.01,1609.74
             2700.01,1609.74 2701.00,1615.00 2701.00,1615.00
             2701.00,1615.00 2701.00,1638.00 2701.00,1638.00
             2701.00,1638.00 2701.00,1736.00 2701.00,1736.00
             2701.00,1736.00 2701.00,1815.00 2701.00,1815.00
             2701.00,1815.00 2702.02,1822.69 2702.02,1822.69
             2702.02,1822.69 2706.98,1826.58 2706.98,1826.58
             2706.98,1826.58 2708.00,1834.00 2708.00,1834.00
             2708.00,1834.00 2708.00,1934.00 2708.00,1934.00
             2708.00,1934.00 2709.02,1941.69 2709.02,1941.69
             2709.02,1941.69 2713.98,1945.58 2713.98,1945.58
             2713.98,1945.58 2715.00,1953.00 2715.00,1953.00
             2715.00,1953.00 2715.00,2004.00 2715.00,2004.00
             2715.00,2004.00 2716.59,2012.42 2716.59,2012.42
             2716.59,2012.42 2721.84,2017.14 2721.84,2017.14
             2721.84,2017.14 2721.84,2046.00 2721.84,2046.00
             2721.84,2046.00 2723.02,2053.69 2723.02,2053.69
             2723.02,2053.69 2727.98,2057.58 2727.98,2057.58
             2727.98,2057.58 2729.00,2065.00 2729.00,2065.00
             2729.00,2065.00 2729.00,2088.00 2729.00,2088.00
             2729.00,2088.00 2730.02,2095.69 2730.02,2095.69
             2730.02,2095.69 2734.98,2099.58 2734.98,2099.58
             2734.98,2099.58 2736.00,2106.00 2736.00,2106.00
             2736.00,2106.00 2737.02,2116.69 2737.02,2116.69
             2737.02,2116.69 2742.84,2122.14 2742.84,2122.14
             2742.84,2122.14 2742.84,2139.00 2742.84,2139.00
             2750.40,2139.87 2749.99,2142.40 2750.00,2149.00
             2750.00,2149.00 2750.00,2206.00 2750.00,2206.00
             2749.99,2211.85 2750.66,2214.88 2744.00,2216.00
             2742.93,2220.97 2742.09,2222.15 2737.00,2223.00
             2736.17,2228.09 2735.09,2229.17 2730.00,2230.00
             2729.15,2235.09 2727.97,2235.93 2723.00,2237.00
             2722.15,2242.09 2720.97,2242.93 2716.00,2244.00
             2715.15,2249.09 2713.97,2249.93 2709.00,2251.00
             2708.07,2256.57 2706.38,2256.90 2701.00,2257.00
             2701.00,2257.00 2673.00,2257.00 2673.00,2257.00
             2673.00,2257.00 2558.00,2257.00 2558.00,2257.00
             2555.73,2257.00 2552.25,2256.79 2550.30,2258.02
             2548.15,2259.38 2547.88,2261.82 2546.28,2263.01
             2544.60,2264.26 2541.05,2264.00 2539.00,2264.00
             2539.00,2264.00 2168.00,2264.00 2168.00,2264.00
             2168.00,2264.00 2035.00,2264.00 2035.00,2264.00
             2035.00,2264.00 1969.00,2264.00 1969.00,2264.00
             1959.92,2263.83 1962.76,2260.55 1958.70,2258.02
             1956.72,2256.79 1953.30,2257.00 1951.00,2257.00
             1951.00,2257.00 1713.00,2257.00 1713.00,2257.00
             1713.00,2257.00 1558.00,2257.00 1558.00,2257.00
             1555.90,2257.00 1552.31,2257.24 1550.58,2255.98
             1547.28,2253.57 1550.17,2250.17 1541.00,2250.00
             1541.00,2250.00 1535.00,2250.00 1535.00,2250.00
             1525.51,2249.82 1529.99,2245.81 1524.86,2243.60
             1522.49,2242.58 1518.44,2243.42 1516.31,2242.40
             1513.78,2241.20 1514.10,2238.57 1511.69,2237.02
             1509.07,2235.34 1504.71,2236.55 1502.31,2235.40
             1499.78,2234.20 1500.10,2231.57 1497.69,2230.02
             1495.07,2228.34 1490.71,2229.55 1488.31,2228.40
             1485.78,2227.20 1486.10,2224.57 1483.69,2223.02
             1481.07,2221.34 1476.71,2222.55 1474.31,2221.40
             1472.02,2220.31 1472.07,2218.10 1470.42,2216.59
             1468.43,2214.78 1465.50,2215.02 1463.00,2215.00
             1454.10,2214.94 1451.60,2216.16 1451.00,2209.00
             1445.49,2208.35 1444.46,2207.56 1444.00,2202.00
             1438.49,2201.35 1437.46,2200.56 1437.00,2195.00
             1431.49,2194.35 1430.46,2193.56 1430.00,2188.00
             1424.49,2187.35 1423.46,2186.56 1423.00,2181.00
             1417.49,2180.35 1416.46,2179.56 1416.00,2174.00
             1407.50,2173.30 1410.24,2169.59 1409.98,2161.00
             1409.92,2158.73 1409.87,2156.37 1408.27,2154.58
             1406.80,2152.95 1404.44,2152.80 1403.16,2150.69
             1402.41,2148.90 1403.06,2142.49 1403.16,2140.00
             1402.92,2137.73 1402.87,2135.37 1401.27,2133.58
             1398.90,2130.94 1396.15,2132.34 1395.80,2126.98
             1395.62,2124.28 1396.36,2121.92 1394.27,2119.58
             1392.81,2117.95 1390.44,2117.81 1389.16,2115.69
             1388.43,2113.93 1388.95,2110.07 1389.16,2108.00
             1389.03,2105.50 1389.20,2101.44 1387.83,2099.31
             1385.07,2095.03 1381.58,2098.64 1381.87,2090.00
             1381.98,2086.92 1382.48,2080.88 1380.83,2078.31
             1379.26,2075.86 1376.78,2076.19 1375.60,2073.69
             1374.35,2071.05 1375.58,2062.47 1374.57,2059.06
             1373.34,2054.93 1370.57,2055.57 1369.02,2053.42
             1367.56,2051.39 1368.03,2045.60 1368.00,2043.00
             1367.96,2040.47 1368.06,2037.59 1366.27,2035.58
             1364.80,2033.93 1362.66,2033.94 1361.60,2031.69
             1360.58,2029.53 1361.42,2025.73 1360.26,2023.14
             1358.88,2020.04 1356.39,2020.33 1355.02,2018.42
             1353.56,2016.39 1354.03,2010.60 1354.00,2008.00
             1353.96,2005.47 1354.06,2002.59 1352.27,2000.58
             1350.80,1998.93 1348.66,1998.94 1347.60,1996.69
             1346.35,1994.05 1347.58,1985.47 1346.57,1982.06
             1345.34,1977.93 1342.57,1978.57 1341.02,1976.42
             1339.56,1974.39 1340.03,1968.60 1340.00,1966.00
             1339.96,1963.47 1340.06,1960.59 1338.27,1958.58
             1336.80,1956.93 1334.66,1956.94 1333.60,1954.69
             1332.74,1952.87 1333.03,1947.26 1333.00,1945.00
             1332.86,1934.75 1329.42,1937.75 1327.02,1934.42
             1325.37,1932.13 1326.53,1927.98 1325.26,1925.14
             1323.88,1922.04 1321.39,1922.33 1320.02,1920.42
             1318.69,1918.57 1319.00,1914.28 1319.00,1912.00
             1318.99,1909.05 1319.34,1904.91 1317.27,1902.58
             1315.80,1900.93 1313.66,1900.94 1312.60,1898.69
             1311.35,1896.05 1312.58,1887.47 1311.57,1884.06
             1310.34,1879.93 1307.57,1880.57 1306.02,1878.42
             1304.56,1876.39 1305.03,1870.60 1305.00,1868.00
             1304.96,1865.47 1305.06,1862.59 1303.27,1860.58
             1301.80,1858.93 1299.66,1858.94 1298.60,1856.69
             1297.78,1854.96 1298.01,1850.09 1298.00,1848.00
             1297.98,1845.25 1298.22,1841.77 1296.27,1839.58
             1294.80,1837.93 1292.66,1837.94 1291.60,1835.69
             1290.58,1833.53 1291.42,1829.73 1290.26,1827.14
             1288.88,1824.04 1286.39,1824.33 1285.02,1822.42
             1283.56,1820.39 1284.03,1814.60 1284.00,1812.00
             1283.96,1809.47 1284.06,1806.59 1282.27,1804.58
             1280.80,1802.93 1278.66,1802.94 1277.60,1800.69
             1276.87,1799.15 1277.00,1795.76 1277.00,1794.00
             1277.00,1794.00 1277.00,1743.00 1277.00,1743.00
             1277.00,1729.73 1275.74,1727.61 1283.00,1727.00
             1283.45,1721.51 1284.51,1720.45 1290.00,1720.00
             1290.45,1714.44 1291.44,1713.45 1297.00,1713.00
             1297.43,1707.68 1298.68,1706.43 1304.00,1706.00
             1304.46,1700.44 1305.52,1700.11 1311.00,1700.00
             1314.12,1699.95 1320.14,1700.46 1322.69,1698.83
             1325.42,1697.08 1324.63,1694.34 1328.14,1693.31
             1331.01,1692.48 1339.66,1693.69 1342.86,1692.26
             1345.96,1690.88 1345.67,1688.39 1347.58,1687.02
             1349.33,1685.76 1352.89,1686.00 1355.00,1686.00
             1355.00,1686.00 1384.00,1686.00 1384.00,1686.00
             1394.66,1685.98 1395.98,1684.66 1395.93,1674.00
             1395.93,1674.00 1395.93,1640.06 1395.93,1640.06
             1396.44,1636.29 1398.84,1636.26 1402.00,1636.00
             1402.45,1630.51 1403.51,1629.45 1409.00,1629.00
             1409.45,1623.51 1410.51,1622.45 1416.00,1622.00
             1416.45,1616.51 1417.51,1615.45 1423.00,1615.00
             1423.81,1605.29 1429.42,1611.24 1434.69,1607.83
             1439.01,1605.03 1435.26,1601.71 1444.00,1601.00
             1444.59,1593.94 1447.12,1595.04 1455.00,1595.00
             1457.75,1594.98 1461.23,1595.22 1463.42,1593.27
             1465.07,1591.80 1465.06,1589.66 1467.31,1588.60
             1469.47,1587.58 1473.27,1588.42 1475.86,1587.26
             1478.96,1585.88 1478.67,1583.39 1480.58,1582.02
             1482.61,1580.56 1488.40,1581.03 1491.00,1581.00
             1493.53,1580.96 1496.41,1581.06 1498.42,1579.27
             1500.07,1577.80 1500.06,1575.66 1502.31,1574.60
             1503.85,1573.87 1507.24,1574.00 1509.00,1574.00
             1511.74,1573.99 1516.38,1574.31 1518.69,1572.83
             1522.80,1570.19 1519.19,1567.17 1528.00,1567.00
             1531.12,1566.95 1537.14,1567.46 1539.69,1565.83
             1542.14,1564.26 1541.81,1561.78 1544.31,1560.60
             1546.47,1559.58 1550.27,1560.42 1552.86,1559.26
             1555.96,1557.88 1555.67,1555.39 1557.58,1554.02
             1559.74,1552.46 1563.34,1553.44 1565.94,1552.40
             1571.67,1550.12 1567.67,1546.18 1577.00,1546.00
             1579.99,1545.95 1585.33,1546.42 1587.86,1544.98
             1590.63,1543.39 1590.80,1540.75 1593.30,1539.60
             1595.57,1538.55 1599.11,1539.55 1601.86,1537.98
             1606.62,1535.26 1603.20,1532.17 1612.00,1532.00
             1612.00,1532.00 1678.00,1532.00 1678.00,1532.00
             1689.32,1531.98 1689.98,1528.51 1690.00,1518.00
             1690.00,1518.00 1690.00,1446.00 1690.00,1446.00
             1689.90,1438.13 1686.77,1433.75 1696.00,1433.00
             1696.00,1433.00 1697.00,1383.00 1697.00,1383.00
             1696.90,1375.13 1693.77,1370.75 1703.00,1370.00
             1704.90,1346.52 1704.27,1322.59 1704.00,1299.00
             1703.91,1291.32 1700.72,1287.09 1710.00,1286.00
             1712.38,1256.64 1711.00,1205.57 1710.90,1174.00
             1710.90,1174.00 1710.90,1154.00 1710.90,1154.00
             1710.90,1154.00 1710.90,1142.28 1710.90,1142.28
             1711.66,1139.73 1713.79,1139.94 1716.00,1140.00
             1719.24,1128.67 1714.59,1126.70 1723.00,1126.00
             1723.91,1120.58 1724.41,1119.47 1730.00,1119.00
             1730.91,1113.58 1731.41,1112.47 1737.00,1112.00
             1737.65,1106.49 1738.44,1105.46 1744.00,1105.00 Z
           M 613.00,3048.00
           C 613.00,3048.00 689.00,3048.00 689.00,3048.00
             689.00,3048.00 689.00,3159.00 689.00,3159.00
             689.00,3159.00 802.00,3159.00 802.00,3159.00
             802.00,3159.00 802.00,3235.00 802.00,3235.00
             802.00,3235.00 689.00,3235.00 689.00,3235.00
             689.00,3235.00 689.00,3346.00 689.00,3346.00
             689.00,3346.00 613.00,3346.00 613.00,3346.00
             613.00,3346.00 613.00,3235.00 613.00,3235.00
             613.00,3235.00 502.00,3235.00 502.00,3235.00
             502.00,3235.00 502.00,3159.00 502.00,3159.00
             502.00,3159.00 613.00,3159.00 613.00,3159.00
             613.00,3159.00 613.00,3048.00 613.00,3048.00 Z" />
</svg>
