<?xml version="1.0" encoding="UTF-8" standalone="no"?>
<!DOCTYPE svg PUBLIC "-//W3C//DTD SVG 20010904//EN"
              "http://www.w3.org/TR/2001/REC-SVG-20010904/DTD/svg10.dtd">

<svg xmlns="http://www.w3.org/2000/svg"
     width="12in" height="12in"
     viewBox="0 0 3600 3600">
  <path id="4 - mane and tail"
        fill="none" stroke="black" stroke-width="1"
        d="M 1163.00,719.00
           C 1171.07,715.83 1173.56,709.92 1177.88,703.00
             1183.44,694.11 1190.54,683.25 1198.42,676.31
             1202.25,672.94 1204.40,674.41 1208.56,670.61
             1208.56,670.61 1222.29,654.00 1222.29,654.00
             1222.29,654.00 1255.17,617.00 1255.17,617.00
             1255.17,617.00 1269.91,602.00 1269.91,602.00
             1291.59,578.73 1314.76,556.11 1340.00,536.65
             1396.83,492.84 1439.65,469.66 1504.00,439.47
             1504.00,439.47 1519.00,431.95 1519.00,431.95
             1519.00,431.95 1529.00,428.37 1529.00,428.37
             1529.00,428.37 1565.00,413.60 1565.00,413.60
             1565.00,413.60 1579.00,407.74 1579.00,407.74
             1579.00,407.74 1642.00,386.95 1642.00,386.95
             1642.00,386.95 1680.00,375.45 1680.00,375.45
             1680.00,375.45 1687.00,374.40 1687.00,374.40
             1687.00,374.40 1696.00,371.46 1696.00,371.46
             1696.00,371.46 1703.00,370.41 1703.00,370.41
             1703.00,370.41 1712.00,367.71 1712.00,367.71
             1712.00,367.71 1741.00,361.26 1741.00,361.26
             1741.00,361.26 1752.00,359.26 1752.00,359.26
             1752.00,359.26 1761.00,358.39 1761.00,358.39
             1761.00,358.39 1775.00,355.26 1775.00,355.26
             1775.00,355.26 1786.00,354.71 1786.00,354.71
             1786.00,354.71 1804.00,351.62 1804.00,351.62
             1804.00,351.62 1812.00,351.62 1812.00,351.62
             1812.00,351.62 1831.00,348.46 1831.00,348.46
             1831.00,348.46 1841.00,348.99 1841.00,348.99
             1851.60,349.24 1850.21,347.32 1856.00,347.07
             1856.00,347.07 1870.00,348.00 1870.00,348.00
             1870.00,348.00 1899.00,348.00 1899.00,348.00
             1899.00,348.00 1895.41,359.00 1895.41,359.00
             1895.41,359.00 1887.00,371.00 1887.00,371.00
             1887.00,371.00 1900.00,369.35 1900.00,369.35
             1900.00,369.35 1906.00,369.91 1906.00,369.91
             1906.00,369.91 1924.00,365.73 1924.00,365.73
             1924.00,365.73 1955.00,359.32 1955.00,359.32
             1955.00,359.32 1999.00,355.00 1999.00,355.00
             1999.00,355.00 2021.00,356.00 2021.00,356.00
             2017.15,364.14 2004.95,372.06 1997.00,376.22
             1993.16,378.22 1987.51,379.78 1984.99,383.21
             1978.50,392.06 1984.29,400.85 1995.00,401.00
             1995.00,401.00 2011.00,401.00 2011.00,401.00
             2011.00,401.00 2023.00,401.96 2023.00,401.96
             2023.00,401.96 2035.00,401.96 2035.00,401.96
             2035.00,401.96 2045.00,402.91 2045.00,402.91
             2045.00,402.91 2079.00,406.72 2079.00,406.72
             2120.05,411.70 2159.34,420.72 2199.00,432.45
             2347.49,476.35 2478.44,574.82 2573.01,696.00
             2617.43,752.92 2655.47,816.86 2679.91,885.00
             2693.46,922.77 2703.82,961.48 2710.68,1001.00
             2710.68,1001.00 2713.29,1020.00 2713.29,1020.00
             2713.29,1020.00 2719.00,1064.00 2719.00,1064.00
             2719.00,1064.00 2722.92,1097.00 2722.92,1097.00
             2722.92,1097.00 2722.92,1110.00 2722.92,1110.00
             2722.92,1110.00 2723.92,1121.00 2723.92,1121.00
             2723.92,1121.00 2723.00,1134.00 2723.00,1134.00
             2723.00,1134.00 2723.00,1152.00 2723.00,1152.00
             2723.00,1152.00 2721.04,1172.00 2721.04,1172.00
             2721.04,1172.00 2721.04,1181.00 2721.04,1181.00
             2721.04,1181.00 2719.00,1197.00 2719.00,1197.00
             2719.00,1197.00 2719.00,1206.00 2719.00,1206.00
             2719.00,1206.00 2717.17,1215.00 2717.17,1215.00
             2710.97,1267.23 2697.23,1318.57 2676.57,1367.00
             2649.90,1429.52 2613.86,1487.02 2582.22,1547.00
             2559.90,1589.30 2537.43,1639.32 2538.00,1688.00
             2538.06,1692.90 2538.79,1696.24 2539.59,1701.00
             2542.48,1718.23 2549.24,1734.20 2567.00,1740.45
             2572.70,1742.46 2579.02,1742.07 2585.00,1742.00
             2597.16,1741.85 2610.57,1735.96 2621.00,1730.00
             2638.14,1720.20 2652.39,1709.51 2665.91,1695.00
             2665.91,1695.00 2683.83,1676.00 2683.83,1676.00
             2688.32,1671.04 2691.29,1665.97 2698.00,1664.00
             2697.66,1671.22 2696.16,1673.01 2695.30,1679.00
             2694.48,1684.74 2694.66,1700.48 2696.00,1706.00
             2696.00,1706.00 2670.00,1715.66 2670.00,1715.66
             2670.00,1715.66 2635.00,1731.60 2635.00,1731.60
             2593.12,1752.54 2554.20,1778.90 2519.00,1809.72
             2504.77,1822.17 2491.60,1835.05 2478.83,1849.00
             2474.30,1853.95 2468.85,1857.32 2465.11,1863.00
             2462.46,1867.02 2458.09,1877.22 2458.39,1882.00
             2458.86,1889.43 2468.02,1910.94 2466.18,1919.00
             2463.78,1929.48 2456.93,1934.73 2452.25,1944.00
             2442.08,1964.15 2432.05,1975.55 2417.17,1992.00
             2409.78,2000.17 2402.38,2008.08 2394.00,2015.27
             2386.84,2021.41 2375.61,2031.70 2367.00,2035.00
             2370.15,2022.92 2375.26,2003.14 2374.51,1991.00
             2374.51,1991.00 2375.09,1975.00 2375.09,1975.00
             2375.09,1975.00 2377.00,1951.00 2377.00,1951.00
             2377.00,1951.00 2375.08,1933.00 2375.08,1933.00
             2375.08,1933.00 2375.08,1922.00 2375.08,1922.00
             2372.98,1922.07 2371.01,1921.98 2369.18,1923.02
             2366.61,1924.49 2364.52,1928.47 2363.00,1931.00
             2363.00,1931.00 2352.19,1948.00 2352.19,1948.00
             2334.79,1973.20 2318.31,1992.05 2294.00,2010.99
             2287.36,2016.16 2286.21,2016.42 2279.00,2019.90
             2277.09,2020.82 2274.02,2022.91 2272.00,2022.93
             2268.83,2022.97 2258.43,2014.86 2256.87,2011.96
             2256.26,2010.09 2256.67,2008.87 2256.87,2007.00
             2256.43,1997.75 2242.85,1983.11 2236.00,1977.46
             2217.84,1962.50 2188.77,1950.04 2165.00,1950.00
             2165.00,1950.00 2149.00,1950.00 2149.00,1950.00
             2146.91,1950.00 2143.94,1950.12 2142.00,1949.40
             2138.10,1947.97 2128.40,1937.47 2125.01,1934.00
             2113.00,1921.69 2102.70,1907.66 2093.74,1893.00
             2093.74,1893.00 2084.00,1875.00 2084.00,1875.00
             2090.77,1871.55 2111.76,1869.18 2121.00,1867.12
             2144.06,1861.97 2166.70,1855.28 2189.00,1847.50
             2231.16,1832.78 2277.04,1810.41 2314.00,1785.41
             2314.00,1785.41 2339.00,1765.33 2339.00,1765.33
             2339.00,1765.33 2374.00,1735.91 2374.00,1735.91
             2374.00,1735.91 2390.58,1719.26 2390.58,1719.26
             2390.58,1719.26 2401.83,1709.00 2401.83,1709.00
             2408.88,1701.18 2415.10,1692.49 2421.28,1684.00
             2438.57,1660.25 2457.27,1625.13 2465.88,1597.00
             2469.28,1585.91 2474.80,1573.36 2470.00,1562.00
             2475.42,1556.20 2472.51,1549.76 2471.24,1543.00
             2471.24,1543.00 2469.47,1532.00 2469.47,1532.00
             2469.47,1532.00 2469.47,1526.00 2469.47,1526.00
             2469.47,1526.00 2467.54,1514.00 2467.54,1514.00
             2467.54,1514.00 2462.68,1499.00 2462.68,1499.00
             2462.05,1495.34 2463.31,1494.13 2462.03,1490.00
             2462.03,1490.00 2449.62,1464.00 2449.62,1464.00
             2449.62,1464.00 2439.00,1449.00 2439.00,1449.00
             2444.53,1446.32 2455.18,1445.52 2452.83,1440.26
             2451.72,1437.76 2445.52,1435.84 2443.00,1434.78
             2435.37,1431.54 2431.77,1430.28 2429.18,1422.00
             2426.44,1413.24 2427.00,1396.57 2427.00,1387.00
             2427.00,1387.00 2426.00,1340.00 2426.00,1340.00
             2426.00,1337.91 2425.89,1334.93 2426.60,1333.00
             2427.92,1329.42 2431.91,1326.43 2434.58,1323.72
             2441.25,1316.93 2445.75,1311.85 2446.00,1302.00
             2437.00,1302.20 2432.57,1305.72 2423.00,1303.00
             2426.72,1298.96 2429.83,1298.15 2434.00,1294.68
             2444.18,1286.21 2463.06,1266.74 2464.00,1253.00
             2453.27,1253.27 2452.76,1258.50 2441.00,1261.71
             2435.46,1263.23 2425.49,1265.32 2420.04,1263.11
             2416.95,1261.85 2413.64,1257.76 2415.21,1254.26
             2416.01,1252.46 2419.39,1250.41 2421.00,1249.16
             2424.55,1246.41 2426.85,1244.16 2430.00,1241.00
             2438.45,1232.49 2454.35,1210.54 2457.39,1199.00
             2458.04,1196.53 2457.98,1194.51 2458.00,1192.00
             2451.37,1193.05 2449.41,1196.57 2444.00,1200.06
             2434.77,1206.01 2421.35,1212.95 2410.00,1209.35
             2403.55,1207.30 2400.68,1201.31 2402.99,1195.00
             2402.99,1195.00 2408.49,1184.00 2408.49,1184.00
             2408.49,1184.00 2414.12,1170.00 2414.12,1170.00
             2416.97,1162.09 2420.95,1148.23 2422.00,1140.00
             2422.00,1140.00 2422.00,1132.00 2422.00,1132.00
             2422.00,1132.00 2422.97,1124.00 2422.97,1124.00
             2422.97,1124.00 2422.00,1113.00 2422.00,1113.00
             2422.00,1113.00 2417.00,1113.00 2417.00,1113.00
             2415.10,1124.68 2406.48,1136.04 2399.20,1145.00
             2396.92,1147.80 2392.54,1154.01 2388.29,1151.63
             2385.89,1150.28 2384.56,1143.63 2384.02,1141.00
             2382.68,1134.45 2378.69,1124.59 2376.25,1118.00
             2376.25,1118.00 2359.14,1075.00 2359.14,1075.00
             2359.14,1075.00 2335.00,1025.00 2335.00,1025.00
             2346.39,1021.77 2366.90,1025.94 2379.00,1026.00
             2390.16,1026.06 2386.37,1026.89 2394.00,1027.82
             2394.00,1027.82 2401.00,1028.32 2401.00,1028.32
             2401.00,1028.32 2437.00,1035.98 2437.00,1035.98
             2478.52,1046.70 2518.51,1064.01 2553.00,1089.76
             2553.00,1089.76 2563.00,1098.41 2563.00,1098.41
             2581.58,1114.08 2598.78,1130.73 2614.85,1149.00
             2629.25,1165.39 2637.25,1178.72 2647.00,1198.00
             2647.00,1198.00 2658.91,1222.79 2658.91,1222.79
             2660.54,1224.85 2661.89,1225.60 2664.00,1227.00
             2663.95,1210.43 2650.68,1186.43 2642.42,1172.00
             2628.53,1147.73 2607.20,1121.58 2586.00,1103.43
             2586.00,1103.43 2571.00,1092.20 2571.00,1092.20
             2550.09,1076.24 2538.25,1068.25 2515.00,1055.88
             2515.00,1055.88 2504.00,1049.37 2504.00,1049.37
             2504.00,1049.37 2473.00,1036.50 2473.00,1036.50
             2450.86,1028.78 2429.14,1023.28 2406.00,1019.71
             2406.00,1019.71 2398.00,1018.00 2398.00,1018.00
             2398.00,1018.00 2391.00,1018.00 2391.00,1018.00
             2391.00,1018.00 2375.00,1016.00 2375.00,1016.00
             2375.00,1016.00 2354.00,1015.00 2354.00,1015.00
             2354.00,1015.00 2331.00,1015.00 2331.00,1015.00
             2331.00,1015.00 2304.00,1017.92 2304.00,1017.92
             2304.00,1017.92 2292.00,1017.92 2292.00,1017.92
             2284.23,1018.09 2276.58,1020.21 2269.00,1021.63
             2269.00,1021.63 2258.00,1022.32 2258.00,1022.32
             2258.00,1022.32 2242.00,1025.68 2242.00,1025.68
             2190.46,1034.27 2139.77,1049.31 2090.00,1065.18
             2090.00,1065.18 2013.00,1091.27 2013.00,1091.27
             2013.00,1091.27 1994.00,1097.04 1994.00,1097.04
             1994.00,1097.04 1965.00,1107.29 1965.00,1107.29
             1965.00,1107.29 1958.00,1108.51 1958.00,1108.51
             1958.00,1108.51 1939.00,1112.66 1939.00,1112.66
             1924.46,1115.69 1899.20,1121.98 1885.00,1122.00
             1885.00,1122.00 1849.00,1122.00 1849.00,1122.00
             1849.00,1122.00 1823.00,1119.75 1823.00,1119.75
             1823.00,1119.75 1814.00,1117.40 1814.00,1117.40
             1783.62,1110.98 1770.25,1105.32 1743.00,1090.46
             1743.00,1090.46 1716.00,1072.85 1716.00,1072.85
             1710.14,1068.55 1706.46,1063.86 1699.00,1063.00
             1699.00,1063.00 1699.00,1067.00 1699.00,1067.00
             1699.10,1074.22 1700.47,1074.43 1701.99,1081.00
             1705.32,1095.39 1715.29,1117.78 1723.52,1130.00
             1723.52,1130.00 1737.13,1147.28 1737.13,1147.28
             1737.13,1147.28 1743.74,1157.00 1743.74,1157.00
             1748.73,1163.55 1768.11,1185.45 1774.00,1190.95
             1774.00,1190.95 1780.83,1196.45 1780.83,1196.45
             1786.49,1201.38 1786.48,1204.86 1797.00,1213.87
             1797.00,1213.87 1822.00,1233.65 1822.00,1233.65
             1828.09,1237.84 1837.71,1243.34 1842.00,1249.00
             1842.00,1249.00 1807.00,1243.64 1807.00,1243.64
             1807.00,1243.64 1795.00,1240.51 1795.00,1240.51
             1795.00,1240.51 1763.00,1232.16 1763.00,1232.16
             1763.00,1232.16 1744.00,1225.00 1744.00,1225.00
             1744.00,1225.00 1707.00,1211.68 1707.00,1211.68
             1707.00,1211.68 1662.00,1185.40 1662.00,1185.40
             1662.00,1185.40 1619.00,1159.71 1619.00,1159.71
             1619.00,1159.71 1579.09,1124.96 1579.09,1124.96
             1579.09,1124.96 1562.02,1106.00 1562.02,1106.00
             1562.02,1106.00 1549.18,1092.00 1549.18,1092.00
             1545.26,1087.55 1545.23,1085.03 1539.00,1084.00
             1539.00,1090.27 1538.59,1096.79 1537.70,1103.00
             1537.70,1103.00 1536.27,1110.00 1536.27,1110.00
             1536.27,1110.00 1536.27,1122.00 1536.27,1122.00
             1536.27,1122.00 1537.00,1132.00 1537.00,1132.00
             1537.00,1132.00 1538.00,1153.00 1538.00,1153.00
             1538.02,1167.02 1544.82,1202.70 1548.48,1217.00
             1548.48,1217.00 1558.34,1251.00 1558.34,1251.00
             1558.34,1251.00 1569.05,1279.00 1569.05,1279.00
             1569.05,1279.00 1572.54,1287.91 1572.54,1287.91
             1575.34,1293.38 1577.48,1292.30 1579.00,1303.00
             1579.00,1303.00 1553.00,1292.33 1553.00,1292.33
             1553.00,1292.33 1536.00,1282.05 1536.00,1282.05
             1510.20,1265.87 1491.09,1251.32 1471.00,1228.00
             1471.00,1228.00 1455.20,1209.09 1455.20,1209.09
             1448.83,1201.76 1445.78,1202.34 1446.01,1192.00
             1446.01,1192.00 1448.82,1162.00 1448.82,1162.00
             1448.82,1162.00 1448.00,1139.00 1448.00,1139.00
             1448.00,1139.00 1448.79,1126.00 1448.79,1126.00
             1448.79,1126.00 1446.28,1108.00 1446.28,1108.00
             1440.20,1071.60 1424.61,1040.39 1399.83,1013.00
             1385.64,997.32 1364.74,984.15 1346.00,974.49
             1328.26,965.34 1309.78,957.64 1291.00,950.86
             1291.00,950.86 1279.00,946.72 1279.00,946.72
             1279.00,946.72 1273.00,945.19 1273.00,945.19
             1273.00,945.19 1267.00,942.63 1267.00,942.63
             1267.00,942.63 1232.00,931.83 1232.00,931.83
             1232.00,931.83 1197.00,920.32 1197.00,920.32
             1197.00,920.32 1185.00,914.25 1185.00,914.25
             1156.72,900.10 1142.85,888.89 1120.00,867.04
             1120.00,867.04 1099.39,848.00 1099.39,848.00
             1099.39,848.00 1092.94,837.00 1092.94,837.00
             1092.94,837.00 1086.34,827.00 1086.34,827.00
             1086.34,827.00 1069.45,791.00 1069.45,791.00
             1069.45,791.00 1054.26,759.04 1054.26,759.04
             1054.26,759.04 1050.37,752.83 1050.37,752.83
             1050.37,752.83 1046.96,745.00 1046.96,745.00
             1045.95,743.07 1043.18,738.96 1043.01,737.04
             1042.68,733.21 1046.74,732.81 1049.59,727.96
             1051.96,723.93 1055.48,712.56 1062.68,701.00
             1087.32,661.46 1115.41,633.09 1153.00,605.85
             1161.56,599.64 1178.72,588.68 1188.00,583.78
             1191.09,582.15 1198.17,577.60 1201.26,580.61
             1202.92,582.22 1203.26,586.71 1203.58,589.00
             1204.78,597.82 1202.41,606.37 1201.17,615.00
             1199.37,627.50 1196.54,635.21 1192.88,647.00
             1192.88,647.00 1187.18,665.00 1187.18,665.00
             1180.54,679.06 1164.93,704.78 1163.00,719.00 Z
           M 1071.00,1388.00
           C 1071.00,1388.00 1098.00,1399.91 1098.00,1399.91
             1098.00,1399.91 1142.00,1417.10 1142.00,1417.10
             1142.00,1417.10 1183.00,1428.45 1183.00,1428.45
             1183.00,1428.45 1203.00,1433.54 1203.00,1433.54
             1203.00,1433.54 1221.83,1436.24 1221.83,1436.24
             1221.83,1436.24 1227.09,1437.74 1227.09,1437.74
             1227.09,1437.74 1261.00,1442.00 1261.00,1442.00
             1261.00,1442.00 1290.00,1442.00 1290.00,1442.00
             1286.12,1447.94 1279.25,1449.24 1277.58,1455.17
             1276.85,1457.78 1277.85,1460.61 1278.88,1463.00
             1283.32,1473.35 1291.57,1475.99 1302.00,1476.00
             1299.48,1480.56 1292.60,1492.67 1294.61,1497.81
             1297.23,1504.50 1308.43,1503.71 1314.00,1504.09
             1314.00,1504.09 1321.00,1504.89 1321.00,1504.89
             1325.53,1505.04 1326.81,1503.64 1330.00,1503.55
             1332.75,1503.24 1337.96,1504.66 1344.00,1503.55
             1344.00,1503.55 1370.91,1495.99 1370.91,1495.99
             1370.91,1495.99 1384.81,1491.00 1384.81,1491.00
             1384.81,1491.00 1384.81,1496.00 1384.81,1496.00
             1384.81,1496.00 1387.94,1519.00 1387.94,1519.00
             1387.94,1519.00 1387.94,1529.00 1387.94,1529.00
             1387.94,1529.00 1391.18,1545.00 1391.18,1545.00
             1391.18,1545.00 1392.55,1554.96 1392.55,1554.96
             1392.55,1554.96 1394.60,1560.28 1394.60,1560.28
             1394.60,1560.28 1396.33,1567.96 1396.33,1567.96
             1396.33,1567.96 1402.65,1583.00 1402.65,1583.00
             1402.65,1583.00 1405.32,1590.83 1405.32,1590.83
             1405.32,1590.83 1411.70,1604.00 1411.70,1604.00
             1428.61,1639.94 1449.79,1671.11 1484.00,1692.68
             1484.00,1692.68 1498.00,1701.10 1498.00,1701.10
             1498.00,1701.10 1516.00,1707.34 1516.00,1707.34
             1529.86,1711.69 1537.19,1715.17 1552.00,1715.00
             1552.00,1715.00 1574.00,1713.09 1574.00,1713.09
             1588.35,1712.11 1597.76,1712.01 1612.00,1708.28
             1617.38,1706.88 1619.65,1706.79 1625.00,1704.22
             1625.00,1704.22 1654.95,1685.37 1654.95,1685.37
             1657.99,1683.69 1663.60,1679.56 1667.00,1680.13
             1670.38,1680.69 1675.52,1686.52 1678.00,1689.00
             1678.00,1689.00 1701.05,1713.00 1701.05,1713.00
             1701.05,1713.00 1727.01,1748.57 1727.01,1748.57
             1727.01,1748.57 1744.57,1772.44 1744.57,1772.44
             1744.57,1772.44 1749.42,1780.72 1749.42,1780.72
             1749.42,1780.72 1755.59,1790.17 1755.59,1790.17
             1757.47,1793.90 1759.56,1806.20 1760.65,1811.00
             1762.64,1819.80 1767.91,1839.37 1768.00,1847.00
             1768.00,1847.00 1767.00,1866.00 1767.00,1866.00
             1767.00,1866.00 1767.00,1880.00 1767.00,1880.00
             1766.98,1891.16 1761.26,1909.87 1758.80,1922.00
             1757.56,1928.12 1753.89,1947.14 1751.74,1951.71
             1749.41,1956.66 1743.91,1962.92 1740.44,1967.21
             1738.74,1969.31 1736.11,1973.25 1734.22,1974.82
             1730.30,1978.05 1721.83,1980.14 1717.00,1981.95
             1700.21,1988.22 1700.44,1987.42 1683.00,1989.17
             1678.88,1989.58 1672.88,1990.97 1669.00,1990.68
             1669.00,1990.68 1649.00,1990.00 1649.00,1990.00
             1635.72,1989.84 1622.96,1985.89 1610.00,1983.46
             1610.00,1983.46 1591.00,1980.00 1591.00,1980.00
             1591.00,1980.00 1544.00,1969.15 1544.00,1969.15
             1544.00,1969.15 1528.00,1965.44 1528.00,1965.44
             1502.33,1958.03 1477.15,1945.01 1456.00,1928.77
             1430.50,1909.18 1409.70,1883.86 1392.31,1857.00
             1356.76,1802.09 1331.68,1733.60 1321.71,1669.00
             1321.71,1669.00 1318.06,1648.00 1318.06,1648.00
             1318.06,1648.00 1318.06,1640.00 1318.06,1640.00
             1318.06,1640.00 1316.00,1628.00 1316.00,1628.00
             1316.00,1628.00 1316.00,1620.00 1316.00,1620.00
             1316.00,1620.00 1314.00,1601.00 1314.00,1601.00
             1314.00,1601.00 1314.00,1552.00 1314.00,1552.00
             1314.00,1552.00 1315.00,1533.00 1315.00,1533.00
             1315.00,1533.00 1307.00,1533.00 1307.00,1533.00
             1307.00,1533.00 1306.00,1546.00 1306.00,1546.00
             1306.00,1546.00 1306.00,1562.00 1306.00,1562.00
             1306.00,1562.00 1305.00,1579.00 1305.00,1579.00
             1305.00,1579.00 1305.00,1620.00 1305.00,1620.00
             1305.00,1620.00 1306.04,1632.00 1306.04,1632.00
             1306.04,1632.00 1306.04,1642.00 1306.04,1642.00
             1306.04,1642.00 1313.54,1693.00 1313.54,1693.00
             1324.44,1751.21 1344.13,1805.96 1374.40,1857.00
             1395.90,1893.26 1426.35,1929.35 1462.00,1952.31
             1481.99,1965.19 1504.95,1975.47 1528.00,1981.42
             1528.00,1981.42 1555.00,1986.61 1555.00,1986.61
             1555.00,1986.61 1588.00,1993.58 1588.00,1993.58
             1588.00,1993.58 1608.00,1998.00 1608.00,1998.00
             1603.25,2004.63 1598.84,2007.77 1593.00,2013.07
             1593.00,2013.07 1550.00,2047.21 1550.00,2047.21
             1550.00,2047.21 1536.06,2058.71 1536.06,2058.71
             1534.21,2060.24 1532.08,2062.19 1533.17,2064.86
             1534.73,2068.68 1546.09,2071.81 1550.00,2072.00
             1548.84,2080.45 1542.32,2086.79 1538.31,2094.00
             1533.91,2101.93 1531.20,2112.94 1531.00,2122.00
             1531.00,2122.00 1537.00,2122.00 1537.00,2122.00
             1528.38,2145.08 1517.22,2167.48 1505.27,2189.00
             1497.13,2203.65 1497.52,2204.34 1484.00,2214.47
             1479.73,2217.67 1478.24,2219.33 1473.00,2221.00
             1473.00,2204.45 1474.86,2173.29 1468.15,2159.00
             1464.68,2151.60 1465.10,2141.35 1459.00,2142.74
             1455.64,2143.51 1452.08,2149.30 1449.99,2152.00
             1443.72,2160.10 1437.24,2170.10 1429.00,2176.00
             1420.91,2167.11 1417.78,2159.64 1411.68,2150.01
             1408.70,2145.32 1406.43,2144.62 1404.29,2139.00
             1401.95,2132.84 1398.08,2116.43 1398.00,2110.00
             1398.00,2110.00 1398.00,2093.00 1398.00,2093.00
             1398.00,2093.00 1403.00,2054.00 1403.00,2054.00
             1403.00,2054.00 1396.00,2054.00 1396.00,2054.00
             1395.68,2059.86 1393.46,2065.28 1392.28,2071.00
             1390.17,2081.26 1389.12,2089.53 1389.00,2100.00
             1389.00,2100.00 1388.18,2112.00 1388.18,2112.00
             1388.18,2112.00 1389.96,2127.00 1389.96,2127.00
             1389.96,2127.00 1389.96,2140.00 1389.96,2140.00
             1389.98,2155.26 1385.77,2178.10 1382.00,2193.00
             1352.87,2185.14 1316.95,2158.75 1298.90,2135.00
             1290.46,2123.90 1284.92,2113.31 1278.73,2101.00
             1273.37,2090.32 1272.28,2094.92 1267.29,2078.00
             1260.91,2056.36 1257.74,2033.56 1258.00,2011.00
             1258.10,2002.51 1261.91,1996.81 1252.00,1996.00
             1252.00,1996.00 1251.00,2009.00 1251.00,2009.00
             1251.00,2009.00 1251.00,2035.00 1251.00,2035.00
             1251.01,2044.57 1253.34,2063.55 1255.42,2073.00
             1255.42,2073.00 1260.00,2091.00 1260.00,2091.00
             1257.44,2091.76 1255.52,2092.29 1253.65,2094.39
             1249.97,2098.53 1249.01,2111.44 1249.00,2117.00
             1249.00,2117.00 1249.00,2131.00 1249.00,2131.00
             1249.13,2142.15 1256.33,2161.99 1260.00,2173.00
             1253.74,2172.66 1245.92,2169.66 1240.00,2167.39
             1219.48,2159.50 1202.18,2145.62 1193.43,2125.00
             1190.37,2117.81 1187.10,2105.78 1187.00,2098.00
             1186.93,2091.40 1188.26,2081.76 1179.98,2079.22
             1178.29,2078.95 1174.83,2078.96 1173.00,2079.22
             1165.42,2079.22 1157.67,2084.47 1151.00,2087.89
             1151.00,2087.89 1122.00,2100.99 1122.00,2100.99
             1099.52,2110.33 1075.77,2116.36 1052.00,2121.28
             1052.00,2121.28 1016.00,2127.00 1016.00,2127.00
             1016.00,2127.00 994.00,2128.09 994.00,2128.09
             994.00,2128.09 986.00,2128.96 986.00,2128.96
             986.00,2128.96 962.00,2127.17 962.00,2127.17
             955.75,2126.56 945.88,2126.14 941.00,2122.00
             959.06,2119.22 982.27,2105.45 996.00,2093.70
             999.78,2090.46 1009.19,2081.72 1010.29,2077.02
             1011.81,2070.55 1004.08,2071.12 1000.00,2070.58
             989.51,2069.18 974.89,2069.74 966.00,2064.00
             966.00,2064.00 983.00,2061.11 983.00,2061.11
             995.85,2057.88 1008.94,2052.20 1020.00,2044.92
             1028.81,2039.13 1035.43,2032.97 1042.27,2025.00
             1050.03,2015.95 1054.90,2009.05 1059.67,1998.00
             1074.81,1962.89 1065.86,1926.70 1049.24,1894.00
             1041.75,1879.25 1031.70,1864.70 1020.00,1853.00
             1014.99,1847.99 1005.82,1840.94 999.00,1839.00
             999.00,1839.00 995.00,1795.00 995.00,1795.00
             995.00,1795.00 993.18,1754.00 993.18,1754.00
             993.18,1754.00 994.00,1743.00 994.00,1743.00
             994.00,1743.00 995.08,1723.00 995.08,1723.00
             995.08,1723.00 995.08,1710.00 995.08,1710.00
             995.08,1710.00 996.83,1699.00 996.83,1699.00
             996.83,1699.00 999.18,1676.00 999.18,1676.00
             999.18,1676.00 1000.69,1669.00 1000.69,1669.00
             1000.69,1669.00 1007.86,1637.00 1007.86,1637.00
             1007.86,1637.00 1013.21,1622.00 1013.21,1622.00
             1013.21,1622.00 1014.65,1612.00 1014.65,1612.00
             1014.65,1612.00 1023.00,1594.00 1023.00,1594.00
             1014.28,1594.10 1007.74,1598.30 1000.00,1602.00
             1003.34,1576.67 1010.92,1554.02 1021.89,1531.00
             1021.89,1531.00 1031.10,1515.00 1031.10,1515.00
             1031.10,1515.00 1034.01,1507.04 1034.01,1507.04
             1038.30,1499.33 1048.75,1500.76 1050.83,1495.79
             1052.68,1491.38 1047.19,1490.16 1044.00,1490.68
             1044.00,1490.68 1036.00,1492.85 1036.00,1492.85
             1031.97,1493.25 1025.33,1492.98 1021.00,1492.85
             1012.32,1493.04 1010.52,1496.17 1002.00,1492.85
             1002.00,1492.85 1026.00,1471.99 1026.00,1471.99
             1048.74,1449.80 1070.90,1421.33 1071.00,1388.00 Z
           M 659.00,1793.00
           C 659.00,1793.00 697.00,1793.00 697.00,1793.00
             697.00,1793.00 697.00,1849.00 697.00,1849.00
             697.00,1849.00 753.00,1849.00 753.00,1849.00
             753.00,1849.00 753.00,1887.00 753.00,1887.00
             753.00,1887.00 697.00,1887.00 697.00,1887.00
             697.00,1887.00 697.00,1943.00 697.00,1943.00
             697.00,1943.00 659.00,1943.00 659.00,1943.00
             659.00,1943.00 659.00,1887.00 659.00,1887.00
             659.00,1887.00 603.00,1887.00 603.00,1887.00
             603.00,1887.00 603.00,1849.00 603.00,1849.00
             603.00,1849.00 659.00,1849.00 659.00,1849.00
             659.00,1849.00 659.00,1793.00 659.00,1793.00 Z
           M 1084.00,2373.00
           C 1091.06,2371.86 1090.11,2369.37 1095.00,2367.60
             1097.81,2366.58 1099.78,2367.57 1105.00,2365.76
             1105.00,2365.76 1135.00,2354.04 1135.00,2354.04
             1160.00,2346.41 1186.04,2342.70 1212.00,2340.91
             1212.00,2340.91 1241.00,2339.00 1241.00,2339.00
             1245.20,2339.05 1263.77,2340.72 1267.00,2342.00
             1259.46,2347.86 1262.11,2347.98 1257.73,2352.71
             1252.91,2357.92 1248.33,2359.02 1245.00,2366.00
             1245.00,2366.00 1256.00,2363.49 1256.00,2363.49
             1256.00,2363.49 1265.00,2364.54 1265.00,2364.54
             1265.00,2364.54 1279.00,2364.00 1279.00,2364.00
             1277.44,2368.58 1274.97,2368.90 1271.00,2371.37
             1271.00,2371.37 1252.00,2383.08 1252.00,2383.08
             1229.52,2397.85 1207.82,2413.85 1188.00,2432.08
             1188.00,2432.08 1166.00,2452.91 1166.00,2452.91
             1166.00,2452.91 1155.09,2463.00 1155.09,2463.00
             1142.46,2476.49 1132.41,2490.16 1121.58,2505.00
             1121.58,2505.00 1109.01,2521.00 1109.01,2521.00
             1095.76,2543.08 1088.01,2568.08 1078.94,2592.00
             1078.94,2592.00 1072.29,2608.00 1072.29,2608.00
             1072.29,2608.00 1063.49,2640.00 1063.49,2640.00
             1061.43,2649.02 1060.02,2647.10 1060.00,2658.00
             1060.00,2658.00 1059.00,2677.00 1059.00,2677.00
             1059.00,2677.00 1059.00,2706.00 1059.00,2706.00
             1059.00,2706.00 1059.96,2718.00 1059.96,2718.00
             1059.96,2718.00 1059.96,2730.00 1059.96,2730.00
             1060.04,2737.47 1065.24,2762.92 1067.29,2771.00
             1068.93,2777.43 1067.60,2780.76 1073.00,2786.00
             1071.06,2794.09 1073.27,2794.68 1075.24,2802.00
             1075.24,2802.00 1083.12,2828.00 1083.12,2828.00
             1094.71,2861.95 1102.83,2878.36 1118.65,2910.00
             1118.65,2910.00 1129.08,2931.00 1129.08,2931.00
             1134.55,2941.17 1143.04,2955.32 1150.44,2964.00
             1152.61,2966.55 1159.21,2971.33 1157.83,2974.73
             1156.95,2976.92 1151.07,2981.34 1149.00,2982.79
             1140.26,2988.89 1126.27,2992.65 1116.00,2995.58
             1116.00,2995.58 1085.00,3002.19 1085.00,3002.19
             1085.00,3002.19 1078.00,3004.02 1078.00,3004.02
             1078.00,3004.02 1069.00,3004.02 1069.00,3004.02
             1069.00,3004.02 1062.00,3006.04 1062.00,3006.04
             1062.00,3006.04 1051.00,3006.04 1051.00,3006.04
             1044.55,3007.10 1047.66,3007.98 1038.00,3008.00
             1038.00,3008.00 1027.00,3008.00 1027.00,3008.00
             1027.00,3008.00 1007.00,3006.04 1007.00,3006.04
             1007.00,3006.04 996.00,3006.04 996.00,3006.04
             996.00,3006.04 983.00,3005.00 983.00,3005.00
             983.00,3005.00 983.00,3002.00 983.00,3002.00
             996.67,3000.19 1022.06,2997.14 1033.00,2989.36
             1036.05,2987.20 1042.00,2981.79 1042.63,2978.00
             1043.80,2970.92 1031.50,2966.67 1026.00,2967.11
             1026.00,2967.11 1000.00,2972.81 1000.00,2972.81
             984.10,2975.40 960.02,2977.82 944.00,2978.00
             944.00,2978.00 934.00,2978.82 934.00,2978.82
             934.00,2978.82 922.00,2978.00 922.00,2978.00
             922.00,2978.00 893.00,2978.00 893.00,2978.00
             893.00,2978.00 881.00,2978.90 881.00,2978.90
             881.00,2978.90 859.00,2976.17 859.00,2976.17
             859.00,2976.17 819.00,2972.15 819.00,2972.15
             819.00,2972.15 778.00,2966.79 778.00,2966.79
             759.79,2962.92 737.65,2954.99 720.00,2948.69
             720.00,2948.69 683.00,2933.74 683.00,2933.74
             683.00,2933.74 673.00,2928.22 673.00,2928.22
             673.00,2928.22 666.04,2924.60 666.04,2924.60
             666.04,2924.60 658.91,2918.73 658.91,2918.73
             644.50,2907.20 638.39,2903.14 626.58,2888.00
             621.33,2881.28 614.03,2872.92 611.00,2865.00
             618.80,2866.41 622.27,2869.77 631.00,2869.99
             637.89,2870.15 642.64,2870.41 642.98,2862.00
             643.52,2848.99 635.62,2844.62 627.00,2836.00
             616.93,2825.93 611.21,2818.81 603.33,2807.00
             592.05,2790.07 582.11,2768.00 577.96,2748.00
             577.96,2748.00 575.71,2730.00 575.71,2730.00
             574.39,2720.19 572.89,2710.97 573.00,2701.00
             573.00,2701.00 574.26,2682.00 574.26,2682.00
             574.26,2682.00 577.39,2667.00 577.39,2667.00
             577.39,2667.00 578.45,2656.00 578.45,2656.00
             582.57,2636.73 589.43,2616.31 596.75,2598.00
             630.65,2513.26 685.08,2451.48 765.00,2407.14
             793.26,2391.46 824.06,2379.60 856.00,2374.56
             868.97,2372.52 884.55,2370.78 897.00,2376.00
             893.48,2384.85 890.05,2397.54 892.79,2407.00
             894.45,2412.75 898.55,2418.08 905.00,2417.89
             913.81,2417.64 917.24,2414.06 924.00,2409.34
             924.00,2409.34 949.00,2392.85 949.00,2392.85
             972.46,2379.36 1009.55,2361.41 1035.00,2352.50
             1044.05,2349.32 1058.74,2343.23 1068.00,2343.00
             1068.00,2343.00 1069.00,2357.00 1069.00,2357.00
             1069.00,2357.00 1077.09,2353.58 1077.09,2353.58
             1077.09,2353.58 1087.00,2352.00 1087.00,2352.00
             1087.00,2352.00 1085.75,2364.00 1085.75,2364.00
             1085.75,2364.00 1084.00,2373.00 1084.00,2373.00 Z
           M 2172.00,2452.00
           C 2177.42,2451.43 2182.95,2453.97 2188.00,2455.78
             2188.00,2455.78 2218.00,2467.67 2218.00,2467.67
             2254.07,2482.94 2288.25,2503.36 2325.17,2516.63
             2325.17,2516.63 2364.00,2528.41 2364.00,2528.41
             2364.00,2528.41 2371.72,2529.43 2371.72,2529.43
             2371.72,2529.43 2383.00,2532.68 2383.00,2532.68
             2383.00,2532.68 2391.83,2533.24 2391.83,2533.24
             2391.83,2533.24 2402.00,2535.46 2402.00,2535.46
             2402.00,2535.46 2411.00,2535.46 2411.00,2535.46
             2411.00,2535.46 2432.00,2537.93 2432.00,2537.93
             2435.63,2538.26 2444.00,2538.81 2447.00,2540.00
             2447.00,2540.00 2422.00,2547.51 2422.00,2547.51
             2422.00,2547.51 2410.00,2553.00 2410.00,2553.00
             2410.19,2559.02 2410.91,2563.18 2418.00,2562.00
             2419.21,2564.06 2420.60,2566.78 2422.39,2568.35
             2426.88,2572.30 2438.07,2572.87 2444.00,2574.00
             2444.00,2574.00 2454.00,2575.32 2454.00,2575.32
             2454.00,2575.32 2508.00,2583.09 2508.00,2583.09
             2508.00,2583.09 2519.00,2584.94 2519.00,2584.94
             2519.00,2584.94 2527.00,2584.94 2527.00,2584.94
             2527.00,2584.94 2549.00,2587.00 2549.00,2587.00
             2549.00,2587.00 2586.00,2587.00 2586.00,2587.00
             2586.00,2587.00 2599.00,2587.91 2599.00,2587.91
             2599.00,2587.91 2615.00,2587.00 2615.00,2587.00
             2624.21,2586.89 2628.98,2583.99 2639.00,2584.70
             2643.59,2585.03 2643.26,2584.03 2646.28,2583.49
             2646.28,2583.49 2653.00,2583.49 2653.00,2583.49
             2653.00,2583.49 2663.00,2581.37 2663.00,2581.37
             2663.00,2581.37 2669.91,2580.74 2669.91,2580.74
             2669.91,2580.74 2675.17,2578.99 2675.17,2578.99
             2675.17,2578.99 2679.91,2578.99 2679.91,2578.99
             2679.91,2578.99 2685.17,2577.23 2685.17,2577.23
             2685.17,2577.23 2697.84,2574.53 2697.84,2574.53
             2697.84,2574.53 2702.17,2572.98 2702.17,2572.98
             2702.17,2572.98 2709.00,2572.09 2709.00,2572.09
             2709.00,2572.09 2758.00,2552.99 2758.00,2552.99
             2758.00,2552.99 2772.00,2547.00 2772.00,2547.00
             2771.06,2560.66 2752.54,2565.44 2751.00,2582.00
             2752.69,2581.95 2754.35,2581.97 2756.00,2581.49
             2760.00,2580.35 2774.75,2570.88 2777.87,2567.82
             2777.87,2567.82 2784.04,2560.76 2784.04,2560.76
             2784.04,2560.76 2792.58,2553.61 2792.58,2553.61
             2797.27,2549.29 2802.19,2543.03 2806.20,2538.00
             2806.20,2538.00 2817.96,2520.57 2817.96,2520.57
             2819.16,2519.37 2819.59,2519.50 2821.00,2519.00
             2820.00,2530.93 2813.33,2544.50 2809.90,2556.00
             2809.90,2556.00 2807.00,2572.00 2807.00,2572.00
             2807.00,2572.00 2824.00,2570.00 2824.00,2570.00
             2822.23,2575.53 2819.06,2576.11 2815.09,2580.09
             2811.04,2584.14 2802.19,2595.58 2800.64,2601.00
             2798.88,2607.10 2801.51,2615.13 2809.00,2615.22
             2812.22,2615.26 2814.40,2612.70 2821.00,2612.00
             2821.00,2612.00 2819.00,2618.00 2819.00,2618.00
             2819.00,2618.00 2834.00,2618.00 2834.00,2618.00
             2832.07,2623.90 2825.01,2626.22 2820.00,2629.20
             2811.84,2634.06 2803.75,2638.81 2795.00,2642.52
             2789.27,2644.94 2779.90,2648.07 2775.13,2651.77
             2775.13,2651.77 2768.89,2657.64 2768.89,2657.64
             2745.96,2674.93 2703.42,2693.02 2676.00,2703.05
             2655.04,2710.72 2633.89,2717.04 2612.00,2721.45
             2612.00,2721.45 2597.00,2724.68 2597.00,2724.68
             2597.00,2724.68 2576.00,2727.29 2576.00,2727.29
             2564.97,2728.77 2554.17,2730.02 2543.00,2730.00
             2543.00,2730.00 2527.00,2729.04 2527.00,2729.04
             2518.36,2729.50 2521.73,2732.88 2511.00,2733.00
             2511.00,2733.00 2517.00,2746.00 2517.00,2746.00
             2517.00,2746.00 2481.00,2735.33 2481.00,2735.33
             2481.00,2735.33 2439.00,2727.55 2439.00,2727.55
             2436.26,2726.96 2431.64,2726.67 2429.00,2727.55
             2425.13,2728.95 2423.48,2732.45 2419.00,2730.64
             2416.88,2729.79 2407.50,2722.50 2405.00,2720.63
             2405.00,2720.63 2372.00,2696.87 2372.00,2696.87
             2372.00,2696.87 2336.00,2680.14 2336.00,2680.14
             2336.00,2680.14 2312.00,2669.09 2312.00,2669.09
             2312.00,2669.09 2271.00,2657.71 2271.00,2657.71
             2251.26,2652.04 2239.35,2650.11 2219.00,2648.17
             2219.00,2648.17 2203.00,2647.17 2203.00,2647.17
             2203.00,2647.17 2187.00,2646.00 2187.00,2646.00
             2184.38,2645.96 2181.11,2646.40 2179.61,2643.71
             2177.62,2640.14 2180.41,2637.61 2182.43,2635.00
             2182.43,2635.00 2190.16,2622.37 2190.16,2622.37
             2190.16,2622.37 2193.87,2617.79 2193.87,2617.79
             2195.92,2614.51 2195.54,2610.62 2196.55,2607.00
             2199.87,2595.06 2201.94,2582.47 2202.00,2570.00
             2202.00,2570.00 2200.91,2530.04 2200.91,2530.04
             2200.91,2530.04 2199.24,2523.83 2199.24,2523.83
             2199.24,2523.83 2198.63,2517.00 2198.63,2517.00
             2197.68,2512.01 2195.27,2507.61 2194.84,2505.83
             2194.84,2505.83 2194.19,2500.00 2194.19,2500.00
             2194.19,2500.00 2189.66,2487.58 2189.66,2487.58
             2185.69,2475.83 2179.81,2461.68 2172.00,2452.00 Z
           M 2762.00,2930.00
           C 2762.00,2930.00 2800.00,2930.00 2800.00,2930.00
             2800.00,2930.00 2800.00,2986.00 2800.00,2986.00
             2800.00,2986.00 2856.00,2986.00 2856.00,2986.00
             2856.00,2986.00 2856.00,3024.00 2856.00,3024.00
             2856.00,3024.00 2800.00,3024.00 2800.00,3024.00
             2800.00,3024.00 2800.00,3080.00 2800.00,3080.00
             2800.00,3080.00 2762.00,3080.00 2762.00,3080.00
             2762.00,3080.00 2762.00,3024.00 2762.00,3024.00
             2762.00,3024.00 2706.00,3024.00 2706.00,3024.00
             2706.00,3024.00 2706.00,2986.00 2706.00,2986.00
             2706.00,2986.00 2762.00,2986.00 2762.00,2986.00
             2762.00,2986.00 2762.00,2930.00 2762.00,2930.00 Z" />
</svg>
