<?xml version="1.0" encoding="UTF-8" standalone="no"?>
<!DOCTYPE svg PUBLIC "-//W3C//DTD SVG 20010904//EN"
              "http://www.w3.org/TR/2001/REC-SVG-20010904/DTD/svg10.dtd">

<svg xmlns="http://www.w3.org/2000/svg"
     width="12in" height="12in"
     viewBox="0 0 3600 3600">
  <path id="4 green"
        fill="none" stroke="black" stroke-width="1"
        d="M 3083.00,420.00
           C 3083.00,420.00 3159.00,420.00 3159.00,420.00
             3159.00,420.00 3159.00,531.00 3159.00,531.00
             3159.00,531.00 3272.00,531.00 3272.00,531.00
             3272.00,531.00 3272.00,607.00 3272.00,607.00
             3272.00,607.00 3159.00,607.00 3159.00,607.00
             3159.00,607.00 3159.00,718.00 3159.00,718.00
             3159.00,718.00 3083.00,718.00 3083.00,718.00
             3083.00,718.00 3083.00,607.00 3083.00,607.00
             3083.00,607.00 2972.00,607.00 2972.00,607.00
             2972.00,607.00 2972.00,531.00 2972.00,531.00
             2972.00,531.00 3083.00,531.00 3083.00,531.00
             3083.00,531.00 3083.00,420.00 3083.00,420.00 Z
           M 1773.31,1153.02
           C 1778.35,1151.11 1793.77,1152.00 1800.00,1152.00
             1800.00,1152.00 1856.00,1152.00 1856.00,1152.00
             1856.00,1152.00 2050.00,1152.00 2050.00,1152.00
             2065.92,1152.03 2055.73,1158.97 2072.00,1159.00
             2074.99,1159.01 2083.36,1158.50 2085.57,1160.02
             2088.30,1161.90 2087.61,1165.43 2088.59,1167.99
             2091.02,1174.27 2097.25,1174.94 2094.69,1184.99
             2093.63,1189.13 2090.71,1189.90 2089.02,1193.09
             2087.80,1195.40 2088.01,1198.44 2088.00,1201.00
             2088.00,1201.00 2088.00,1227.00 2088.00,1227.00
             2087.97,1244.39 2081.03,1233.78 2081.00,1250.00
             2081.00,1250.00 2081.00,1304.00 2081.00,1304.00
             2080.97,1321.39 2074.03,1310.78 2074.00,1327.00
             2074.00,1327.00 2074.00,1416.00 2074.00,1416.00
             2073.97,1433.15 2067.03,1422.68 2067.00,1439.00
             2067.00,1439.00 2067.00,1601.00 2067.00,1601.00
             2067.00,1603.87 2066.78,1607.31 2068.17,1609.90
             2070.95,1615.08 2073.86,1612.36 2074.00,1622.00
             2074.00,1622.00 2074.00,1638.00 2074.00,1638.00
             2074.19,1651.31 2080.82,1644.01 2081.21,1657.00
             2081.04,1660.04 2080.75,1668.58 2081.21,1670.96
             2082.64,1675.21 2085.81,1675.79 2087.26,1679.18
             2088.40,1681.85 2087.96,1690.63 2088.00,1694.00
             2088.14,1703.67 2091.18,1701.78 2093.83,1706.32
             2095.29,1708.84 2094.70,1711.42 2095.74,1713.91
             2097.01,1716.99 2099.47,1717.97 2100.83,1720.32
             2102.30,1722.86 2102.02,1727.09 2102.00,1730.00
             2101.97,1733.86 2101.24,1739.43 2103.16,1742.82
             2104.63,1745.41 2107.06,1746.39 2108.26,1749.18
             2109.30,1751.57 2108.69,1754.15 2110.17,1756.82
             2111.59,1759.37 2114.11,1760.45 2115.26,1763.18
             2116.76,1766.74 2114.82,1771.34 2116.36,1775.96
             2117.70,1780.01 2120.27,1780.64 2121.83,1783.32
             2123.47,1786.14 2122.54,1788.88 2124.17,1791.82
             2125.59,1794.37 2128.18,1795.52 2129.25,1798.18
             2130.67,1801.73 2128.33,1804.55 2129.94,1809.98
             2131.56,1815.44 2134.62,1815.20 2136.26,1819.10
             2137.30,1821.56 2136.70,1824.19 2138.17,1826.79
             2139.60,1829.32 2141.99,1830.07 2143.26,1833.10
             2144.29,1835.54 2143.71,1838.25 2145.17,1840.79
             2145.17,1840.79 2152.28,1847.95 2152.28,1847.95
             2152.28,1847.95 2169.81,1865.42 2169.81,1865.42
             2172.28,1867.96 2174.73,1872.63 2178.96,1871.34
             2184.18,1869.75 2183.56,1863.67 2184.59,1861.04
             2185.81,1857.95 2188.22,1856.76 2189.69,1853.91
             2191.19,1850.99 2190.99,1847.21 2191.00,1844.00
             2191.00,1844.00 2191.00,1812.00 2191.00,1812.00
             2190.99,1808.74 2191.18,1805.02 2189.69,1802.04
             2187.97,1798.62 2185.28,1797.68 2184.16,1793.96
             2184.16,1793.96 2184.16,1775.00 2184.16,1775.00
             2183.81,1759.76 2177.03,1768.23 2177.00,1753.00
             2177.00,1753.00 2177.00,1728.00 2177.00,1728.00
             2177.00,1725.24 2177.13,1721.61 2176.11,1719.04
             2173.49,1712.45 2170.07,1715.85 2170.00,1705.00
             2169.98,1701.33 2170.37,1694.21 2169.11,1691.04
             2167.51,1686.99 2164.39,1686.22 2163.16,1681.99
             2163.16,1681.99 2163.16,1665.00 2163.16,1665.00
             2163.00,1661.83 2163.19,1657.96 2161.69,1655.09
             2159.92,1651.72 2157.22,1651.16 2156.29,1647.82
             2155.36,1644.44 2156.89,1632.50 2155.11,1628.04
             2153.70,1624.51 2151.24,1623.57 2149.99,1621.49
             2148.75,1619.43 2149.00,1616.34 2149.00,1614.00
             2149.00,1614.00 2149.00,1550.00 2149.00,1550.00
             2149.00,1546.42 2148.07,1533.03 2150.60,1531.02
             2152.19,1529.77 2156.01,1530.00 2158.00,1530.00
             2158.00,1530.00 2232.00,1530.00 2232.00,1530.00
             2248.02,1530.03 2237.47,1536.97 2255.00,1537.00
             2255.00,1537.00 2302.00,1537.00 2302.00,1537.00
             2318.02,1537.03 2307.47,1543.97 2325.00,1544.00
             2325.00,1544.00 2365.00,1544.00 2365.00,1544.00
             2381.02,1544.03 2370.47,1550.97 2388.00,1551.00
             2388.00,1551.00 2416.00,1551.00 2416.00,1551.00
             2425.23,1551.17 2422.82,1554.81 2429.01,1557.26
             2429.01,1557.26 2434.91,1558.59 2434.91,1558.59
             2441.02,1561.07 2443.96,1566.83 2444.00,1573.00
             2444.00,1573.00 2444.00,1581.00 2444.00,1581.00
             2443.84,1589.54 2441.05,1586.92 2438.31,1592.10
             2436.81,1594.94 2437.00,1598.86 2437.00,1602.00
             2437.00,1602.00 2437.00,1692.00 2437.00,1692.00
             2436.84,1700.65 2433.98,1698.92 2431.31,1704.09
             2429.81,1707.01 2430.01,1710.79 2430.00,1714.00
             2430.00,1714.00 2430.00,1802.00 2430.00,1802.00
             2430.00,1802.00 2430.00,1930.00 2430.00,1930.00
             2430.04,1933.15 2430.04,1936.07 2431.85,1938.82
             2433.24,1940.92 2435.49,1942.14 2436.43,1944.32
             2437.57,1946.99 2436.47,1953.23 2437.57,1956.99
             2438.79,1961.13 2447.09,1968.02 2450.42,1971.51
             2452.07,1973.23 2453.60,1975.64 2456.04,1976.30
             2460.44,1977.49 2462.10,1972.93 2465.21,1971.17
             2468.32,1969.41 2471.84,1970.59 2474.57,1968.26
             2477.54,1965.74 2476.52,1962.03 2477.74,1959.09
             2479.10,1955.79 2481.97,1954.60 2483.48,1950.99
             2484.83,1947.75 2484.01,1940.84 2484.00,1937.00
             2484.00,1937.00 2484.00,1736.00 2484.00,1736.00
             2484.00,1733.25 2483.76,1729.76 2485.17,1727.32
             2486.99,1724.19 2490.14,1723.84 2491.03,1718.00
             2491.55,1715.14 2491.03,1711.06 2491.03,1708.00
             2491.03,1708.00 2491.03,1672.00 2491.03,1672.00
             2491.01,1669.46 2490.85,1666.60 2492.17,1664.32
             2493.71,1661.67 2496.39,1660.92 2497.81,1656.96
             2497.81,1656.96 2497.81,1636.00 2497.81,1636.00
             2498.05,1633.48 2497.95,1630.60 2500.31,1629.02
             2502.16,1627.79 2505.81,1628.00 2508.00,1628.00
             2508.00,1628.00 2598.00,1628.00 2598.00,1628.00
             2607.68,1628.18 2605.24,1632.70 2612.00,1634.79
             2612.00,1634.79 2639.00,1634.79 2639.00,1634.79
             2641.13,1635.02 2644.51,1634.74 2645.98,1636.60
             2647.23,1638.19 2647.00,1642.01 2647.00,1644.00
             2647.00,1644.00 2647.00,1840.00 2647.00,1840.00
             2647.19,1853.95 2653.97,1845.84 2654.00,1861.00
             2654.00,1861.00 2654.00,1957.00 2654.00,1957.00
             2654.03,1974.53 2660.97,1963.98 2661.00,1980.00
             2661.00,1980.00 2661.00,2027.00 2661.00,2027.00
             2661.03,2044.39 2667.97,2033.78 2668.21,2050.00
             2668.21,2050.00 2668.21,2075.99 2668.21,2075.99
             2670.25,2082.51 2674.81,2080.17 2675.21,2090.00
             2675.21,2090.00 2675.21,2117.99 2675.21,2117.99
             2676.78,2122.81 2680.49,2123.33 2681.69,2128.01
             2682.44,2130.99 2681.41,2136.62 2682.74,2139.96
             2684.02,2143.19 2686.60,2144.45 2687.98,2147.09
             2689.87,2150.70 2688.36,2156.15 2689.43,2159.99
             2690.67,2164.42 2693.98,2165.29 2695.40,2169.04
             2696.25,2171.28 2696.05,2179.22 2696.00,2182.00
             2695.96,2184.04 2696.01,2185.87 2694.98,2187.72
             2693.60,2190.17 2682.30,2201.40 2679.83,2202.40
             2678.05,2203.13 2674.96,2203.00 2673.00,2203.00
             2673.00,2203.00 2534.00,2203.00 2534.00,2203.00
             2517.73,2203.03 2527.92,2209.97 2512.00,2210.00
             2512.00,2210.00 2177.00,2210.00 2177.00,2210.00
             2177.00,2210.00 2056.00,2210.00 2056.00,2210.00
             2056.00,2210.00 1995.00,2210.00 1995.00,2210.00
             1986.41,2209.84 1988.63,2206.87 1983.82,2204.17
             1981.32,2202.77 1977.80,2203.00 1975.00,2203.00
             1975.00,2203.00 1585.00,2203.00 1585.00,2203.00
             1582.42,2202.99 1579.43,2203.20 1577.09,2201.98
             1574.04,2200.39 1573.12,2197.58 1568.99,2196.43
             1565.71,2195.52 1560.06,2196.55 1557.04,2195.40
             1553.95,2194.23 1552.68,2191.65 1549.91,2190.17
             1547.09,2188.68 1544.74,2189.38 1542.09,2187.98
             1542.09,2187.98 1535.91,2183.17 1535.91,2183.17
             1533.09,2181.68 1530.74,2182.38 1528.09,2180.98
             1528.09,2180.98 1521.91,2176.17 1521.91,2176.17
             1519.09,2174.68 1516.74,2175.38 1514.09,2173.98
             1514.09,2173.98 1507.91,2169.17 1507.91,2169.17
             1505.09,2167.68 1502.74,2168.38 1500.09,2166.98
             1500.09,2166.98 1493.91,2162.17 1493.91,2162.17
             1490.05,2160.13 1484.47,2161.57 1481.01,2160.69
             1477.35,2159.75 1466.90,2149.20 1464.73,2145.83
             1461.68,2141.10 1465.25,2137.18 1462.49,2131.04
             1460.86,2127.41 1457.94,2126.27 1456.78,2122.96
             1455.56,2119.51 1457.87,2115.33 1455.49,2110.04
             1454.02,2106.77 1451.65,2105.68 1450.17,2102.91
             1448.68,2100.09 1449.38,2097.74 1447.98,2095.09
             1446.58,2092.43 1443.84,2091.00 1442.78,2087.96
             1441.54,2084.45 1443.84,2081.06 1441.97,2076.01
             1440.31,2071.55 1437.04,2070.55 1435.64,2066.96
             1434.66,2063.79 1436.33,2061.26 1435.64,2057.00
             1434.29,2050.78 1430.23,2050.10 1428.78,2045.96
             1427.58,2042.57 1429.60,2039.78 1428.27,2035.00
             1426.31,2027.91 1421.13,2029.37 1421.62,2021.00
             1422.32,2008.99 1418.32,2010.83 1415.17,2004.91
             1413.68,2002.09 1414.38,1999.74 1412.98,1997.09
             1411.35,1993.99 1408.30,1992.85 1407.60,1988.99
             1407.06,1986.03 1408.77,1982.83 1406.97,1978.01
             1404.65,1971.81 1400.15,1972.97 1400.62,1965.00
             1400.83,1961.33 1401.07,1958.45 1399.07,1955.09
             1397.27,1952.07 1394.28,1950.71 1393.60,1946.99
             1393.06,1944.02 1394.77,1940.81 1392.97,1936.02
             1391.23,1931.38 1388.14,1931.00 1386.91,1927.79
             1385.58,1924.34 1387.97,1920.34 1385.97,1915.02
             1384.37,1910.75 1381.77,1910.22 1380.31,1907.63
             1378.83,1904.99 1379.72,1902.08 1378.03,1899.10
             1376.51,1896.42 1373.94,1895.47 1372.91,1892.79
             1371.58,1889.34 1373.97,1885.34 1371.97,1880.02
             1370.22,1875.35 1367.10,1875.00 1365.96,1871.79
             1364.87,1868.73 1366.94,1864.15 1364.97,1859.04
             1363.28,1854.63 1360.13,1854.18 1358.96,1850.82
             1357.91,1847.80 1359.74,1844.01 1358.28,1839.01
             1356.70,1833.61 1353.22,1833.46 1351.74,1829.82
             1350.95,1826.91 1352.54,1823.74 1351.74,1819.00
             1350.24,1813.06 1347.11,1813.08 1345.56,1809.68
             1344.64,1807.67 1344.96,1804.20 1343.07,1801.18
             1341.47,1798.64 1338.91,1797.57 1337.96,1794.82
             1336.77,1791.41 1339.20,1786.38 1336.57,1781.09
             1335.03,1778.00 1332.53,1777.01 1331.29,1774.68
             1330.52,1773.11 1330.44,1757.74 1331.29,1756.31
             1333.57,1752.30 1340.71,1755.21 1345.96,1753.11
             1349.82,1751.57 1350.57,1748.75 1353.32,1747.57
             1355.99,1746.43 1362.23,1747.53 1365.99,1746.43
             1370.77,1745.03 1371.26,1741.88 1374.32,1740.57
             1376.52,1739.63 1391.62,1739.94 1395.00,1740.00
             1402.49,1740.14 1401.99,1742.26 1402.00,1749.00
             1402.00,1749.00 1402.00,1776.00 1402.00,1776.00
             1402.19,1791.24 1408.97,1782.77 1409.00,1798.00
             1409.00,1798.00 1409.00,1825.00 1409.00,1825.00
             1409.15,1836.65 1413.29,1834.65 1415.40,1840.09
             1416.54,1843.03 1415.49,1848.30 1416.57,1851.99
             1417.92,1856.61 1421.01,1857.35 1422.40,1861.04
             1423.65,1864.34 1422.27,1869.88 1423.89,1873.96
             1425.24,1877.35 1427.56,1878.40 1428.99,1881.09
             1430.50,1883.94 1429.71,1886.47 1431.85,1889.83
             1433.31,1892.12 1435.35,1893.27 1436.40,1896.04
             1437.55,1899.07 1436.49,1904.29 1437.57,1907.99
             1438.92,1912.61 1442.01,1913.35 1443.40,1917.04
             1444.45,1919.80 1443.65,1924.68 1444.34,1928.00
             1445.40,1933.11 1448.24,1933.80 1449.99,1937.09
             1451.28,1939.52 1451.73,1952.95 1464.00,1948.93
             1467.47,1947.79 1472.98,1941.75 1475.72,1938.95
             1477.53,1937.10 1481.95,1932.93 1482.98,1930.96
             1484.37,1928.31 1483.67,1925.91 1485.17,1923.17
             1486.91,1919.99 1490.03,1918.96 1491.02,1914.00
             1491.02,1914.00 1491.02,1902.00 1491.02,1902.00
             1491.02,1902.00 1491.02,1879.00 1491.02,1879.00
             1491.02,1874.89 1491.92,1868.75 1490.30,1865.09
             1488.65,1861.38 1485.58,1860.79 1484.22,1856.91
             1483.80,1854.77 1483.98,1845.76 1484.22,1843.00
             1484.04,1839.02 1484.92,1833.74 1483.30,1830.09
             1481.90,1826.94 1479.53,1826.02 1478.17,1823.68
             1476.76,1821.24 1477.00,1817.75 1477.09,1815.00
             1477.09,1815.00 1477.09,1788.00 1477.09,1788.00
             1477.04,1784.56 1477.90,1780.06 1477.09,1777.00
             1476.01,1770.74 1472.28,1770.83 1470.75,1766.90
             1469.33,1763.25 1471.66,1760.45 1470.06,1755.02
             1468.31,1749.12 1464.58,1749.56 1463.47,1744.96
             1463.47,1744.96 1464.00,1723.00 1464.00,1723.00
             1463.99,1718.97 1464.04,1713.74 1461.87,1710.21
             1460.29,1707.64 1457.85,1706.72 1456.86,1703.90
             1455.69,1701.17 1456.84,1697.03 1456.86,1694.00
             1457.10,1690.41 1456.78,1685.32 1454.87,1682.21
             1452.33,1678.08 1449.44,1678.95 1449.18,1672.28
             1449.09,1669.95 1448.86,1666.36 1450.60,1664.60
             1453.18,1661.99 1456.80,1664.14 1461.49,1659.76
             1464.15,1657.28 1469.97,1650.17 1473.18,1649.29
             1476.21,1648.47 1482.72,1649.88 1486.91,1647.69
             1489.81,1646.17 1490.84,1643.67 1493.32,1642.57
             1495.51,1641.60 1498.53,1642.31 1501.82,1640.15
             1503.93,1638.76 1505.14,1636.51 1507.32,1635.57
             1509.99,1634.43 1516.23,1635.53 1519.99,1634.43
             1524.77,1633.03 1525.26,1629.88 1528.32,1628.57
             1530.99,1627.43 1537.23,1628.54 1540.98,1627.43
             1545.78,1626.02 1546.01,1622.94 1549.21,1621.60
             1552.28,1620.31 1558.79,1621.78 1562.96,1620.11
             1566.47,1618.70 1567.18,1616.33 1569.37,1615.02
             1571.86,1613.53 1574.81,1614.32 1577.90,1612.69
             1580.83,1611.13 1581.54,1608.75 1584.21,1607.59
             1586.47,1606.61 1589.58,1607.30 1592.79,1605.15
             1594.86,1603.76 1595.89,1601.57 1598.21,1600.60
             1601.28,1599.31 1607.79,1600.78 1611.96,1599.11
             1615.47,1597.70 1616.18,1595.33 1618.37,1594.02
             1620.86,1592.53 1623.81,1593.32 1626.90,1591.69
             1632.52,1588.71 1628.97,1586.07 1639.00,1586.00
             1642.60,1585.98 1656.41,1585.62 1658.91,1586.60
             1660.94,1587.39 1662.61,1589.20 1664.11,1590.73
             1665.46,1592.12 1666.68,1593.24 1667.40,1595.09
             1668.12,1596.93 1668.00,1599.99 1668.00,1602.00
             1668.00,1602.00 1668.00,1628.00 1668.00,1628.00
             1668.02,1640.75 1670.82,1637.35 1673.98,1643.17
             1675.56,1646.07 1674.45,1648.36 1676.73,1651.91
             1678.18,1654.16 1680.38,1655.47 1681.40,1658.09
             1682.46,1660.81 1681.95,1675.05 1682.00,1679.00
             1682.15,1689.65 1686.25,1687.56 1688.40,1693.09
             1689.66,1696.32 1688.29,1702.27 1689.74,1705.99
             1691.06,1709.38 1693.66,1710.71 1694.98,1713.17
             1696.21,1715.45 1695.99,1718.46 1696.21,1721.00
             1696.21,1721.00 1696.21,1740.00 1696.21,1740.00
             1697.60,1744.24 1700.47,1745.36 1701.98,1748.17
             1703.21,1750.45 1702.99,1753.46 1703.00,1756.00
             1703.01,1759.22 1702.68,1766.26 1703.74,1768.99
             1705.34,1773.10 1708.61,1773.91 1709.84,1778.04
             1709.84,1778.04 1709.84,1803.00 1709.84,1803.00
             1710.00,1805.95 1709.79,1809.27 1711.17,1811.96
             1712.64,1814.80 1715.29,1816.23 1716.40,1819.09
             1717.28,1821.35 1717.00,1828.24 1717.00,1831.00
             1717.02,1843.75 1719.82,1840.35 1722.98,1846.17
             1724.55,1849.05 1723.47,1851.47 1725.74,1854.91
             1725.74,1854.91 1737.72,1867.15 1737.72,1867.15
             1737.72,1867.15 1749.00,1878.04 1749.00,1878.04
             1751.58,1879.62 1753.59,1879.00 1755.95,1879.94
             1759.70,1881.43 1761.49,1885.37 1765.00,1885.37
             1768.53,1885.37 1770.29,1881.41 1774.09,1879.94
             1776.26,1879.10 1778.47,1879.45 1780.96,1878.06
             1783.00,1876.92 1788.65,1870.96 1790.58,1868.95
             1793.21,1866.22 1803.79,1856.23 1804.98,1853.96
             1805.98,1852.03 1805.96,1850.10 1806.00,1848.00
             1806.00,1848.00 1806.00,1829.00 1806.00,1829.00
             1805.82,1819.38 1801.75,1821.39 1799.60,1815.91
             1798.35,1812.74 1799.65,1806.34 1798.40,1803.01
             1797.14,1799.64 1794.45,1798.43 1793.02,1795.83
             1791.57,1793.19 1792.42,1790.82 1790.98,1788.04
             1789.53,1785.23 1786.76,1783.86 1785.60,1780.91
             1784.62,1778.42 1785.06,1769.24 1785.00,1766.00
             1784.81,1755.93 1779.92,1758.11 1778.31,1751.96
             1777.56,1749.08 1778.54,1743.06 1777.40,1740.01
             1776.04,1736.37 1772.89,1735.20 1771.60,1731.91
             1770.70,1729.62 1771.01,1721.87 1771.00,1719.00
             1770.99,1716.40 1771.20,1713.40 1769.98,1711.04
             1768.30,1707.78 1765.33,1706.87 1764.31,1702.96
             1763.43,1699.56 1764.85,1693.66 1762.98,1690.04
             1759.78,1683.84 1757.02,1687.83 1757.00,1676.00
             1757.00,1676.00 1757.00,1668.00 1757.00,1668.00
             1756.83,1659.11 1753.58,1660.50 1751.02,1655.83
             1749.57,1653.19 1750.42,1650.82 1748.98,1648.04
             1745.76,1641.82 1743.02,1645.81 1743.00,1634.00
             1743.00,1634.00 1743.00,1626.00 1743.00,1626.00
             1742.78,1614.11 1736.22,1619.54 1736.00,1608.00
             1736.00,1608.00 1736.00,1568.00 1736.00,1568.00
             1736.03,1550.68 1742.97,1562.63 1743.00,1545.00
             1743.00,1545.00 1743.00,1470.00 1743.00,1470.00
             1743.03,1452.79 1749.97,1464.86 1750.00,1447.00
             1750.00,1447.00 1750.00,1407.00 1750.00,1407.00
             1750.03,1389.79 1756.97,1401.86 1757.00,1384.00
             1757.00,1384.00 1757.00,1323.00 1757.00,1323.00
             1757.03,1307.59 1763.81,1315.85 1764.00,1302.00
             1764.00,1302.00 1764.00,1199.00 1764.00,1199.00
             1764.00,1199.00 1764.00,1179.00 1764.00,1179.00
             1764.00,1176.48 1763.77,1171.21 1764.60,1169.04
             1765.77,1165.95 1768.35,1164.68 1769.83,1161.91
             1771.92,1157.97 1769.67,1156.92 1773.31,1153.02 Z
           M 613.00,3048.00
           C 613.00,3048.00 689.00,3048.00 689.00,3048.00
             689.00,3048.00 689.00,3159.00 689.00,3159.00
             689.00,3159.00 802.00,3159.00 802.00,3159.00
             802.00,3159.00 802.00,3235.00 802.00,3235.00
             802.00,3235.00 689.00,3235.00 689.00,3235.00
             689.00,3235.00 689.00,3346.00 689.00,3346.00
             689.00,3346.00 613.00,3346.00 613.00,3346.00
             613.00,3346.00 613.00,3235.00 613.00,3235.00
             613.00,3235.00 502.00,3235.00 502.00,3235.00
             502.00,3235.00 502.00,3159.00 502.00,3159.00
             502.00,3159.00 613.00,3159.00 613.00,3159.00
             613.00,3159.00 613.00,3048.00 613.00,3048.00 Z" />
</svg>
