<?xml version="1.0" encoding="UTF-8" standalone="no"?>
<!DOCTYPE svg PUBLIC "-//W3C//DTD SVG 20010904//EN"
              "http://www.w3.org/TR/2001/REC-SVG-20010904/DTD/svg10.dtd">

<svg xmlns="http://www.w3.org/2000/svg"
     width="12in" height="12in"
     viewBox="0 0 3600 3600">
  <path id="5 - filly eyes"
        fill="none" stroke="black" stroke-width="1"
        d="M 2318.00,1247.00
           C 2323.48,1252.07 2329.34,1267.62 2332.19,1275.00
             2338.19,1290.53 2346.97,1327.67 2347.00,1344.00
             2347.00,1344.00 2347.00,1367.00 2347.00,1367.00
             2346.99,1369.72 2347.19,1372.48 2345.99,1375.00
             2343.57,1380.10 2337.84,1383.11 2337.11,1390.00
             2335.99,1400.54 2341.84,1402.03 2343.48,1408.00
             2344.34,1411.15 2342.49,1420.28 2342.00,1424.00
             2334.97,1422.74 2334.04,1421.10 2326.00,1421.16
             2323.53,1420.98 2320.40,1420.93 2318.00,1421.16
             2318.00,1421.16 2297.00,1426.41 2297.00,1426.41
             2297.00,1426.41 2281.00,1429.90 2281.00,1429.90
             2269.78,1432.68 2266.21,1436.88 2252.00,1435.91
             2252.00,1435.91 2238.00,1433.61 2238.00,1433.61
             2228.09,1431.87 2221.17,1433.06 2221.00,1420.00
             2228.82,1421.41 2243.81,1428.32 2251.00,1426.36
             2267.72,1421.81 2270.41,1404.38 2274.72,1390.00
             2284.32,1358.01 2280.99,1327.44 2276.72,1295.00
             2276.72,1295.00 2274.38,1279.00 2274.38,1279.00
             2274.38,1279.00 2272.00,1267.85 2272.00,1267.85
             2272.00,1267.85 2281.00,1267.85 2281.00,1267.85
             2293.27,1265.93 2310.71,1257.09 2318.00,1247.00 Z
           M 1819.00,1505.00
           C 1816.61,1498.53 1814.58,1497.40 1811.64,1492.00
             1809.06,1487.26 1804.52,1476.24 1802.69,1471.00
             1794.28,1446.90 1790.82,1429.12 1787.72,1404.00
             1787.72,1404.00 1786.00,1386.00 1786.00,1386.00
             1786.00,1386.00 1786.00,1366.00 1786.00,1366.00
             1786.00,1366.00 1787.04,1354.00 1787.04,1354.00
             1787.04,1354.00 1787.04,1346.00 1787.04,1346.00
             1787.04,1346.00 1790.92,1323.00 1790.92,1323.00
             1791.42,1320.38 1795.01,1308.32 1796.73,1307.00
             1799.05,1305.22 1803.49,1307.05 1806.00,1307.72
             1811.54,1309.20 1824.55,1311.88 1830.00,1312.00
             1827.60,1318.28 1824.64,1320.63 1821.99,1326.00
             1819.32,1331.43 1816.08,1346.86 1816.23,1353.00
             1815.96,1356.59 1815.84,1361.55 1816.23,1365.00
             1818.71,1377.42 1828.87,1392.11 1839.00,1399.37
             1841.59,1401.22 1846.95,1403.73 1850.00,1405.25
             1857.84,1409.15 1865.11,1411.90 1874.00,1412.00
             1889.56,1412.17 1893.89,1408.31 1907.00,1402.00
             1916.79,1430.23 1935.82,1462.61 1962.00,1478.24
             1966.46,1480.90 1974.88,1483.57 1980.00,1485.34
             1987.97,1488.11 1993.32,1490.96 2002.00,1490.83
             2002.00,1490.83 2010.00,1490.83 2010.00,1490.83
             2012.21,1491.00 2014.88,1491.09 2017.00,1490.83
             2025.87,1488.06 2033.58,1476.06 2036.99,1468.00
             2043.13,1453.47 2043.07,1445.22 2043.00,1430.00
             2042.96,1421.54 2041.85,1422.29 2041.17,1416.00
             2041.17,1416.00 2037.88,1393.00 2037.88,1393.00
             2037.88,1393.00 2036.00,1375.00 2036.00,1375.00
             2041.96,1376.96 2042.37,1381.94 2045.58,1386.83
             2045.58,1386.83 2060.37,1412.00 2060.37,1412.00
             2062.94,1416.93 2064.19,1421.84 2068.00,1426.00
             2068.00,1426.00 2070.00,1430.00 2070.00,1430.00
             2069.92,1434.22 2071.25,1437.82 2074.00,1441.00
             2074.20,1446.03 2079.36,1458.58 2081.09,1464.00
             2081.09,1464.00 2088.74,1494.00 2088.74,1494.00
             2088.74,1494.00 2090.98,1520.00 2090.98,1520.00
             2090.98,1520.00 2090.98,1544.00 2090.98,1544.00
             2090.87,1553.72 2084.54,1562.20 2079.33,1570.00
             2076.50,1574.25 2073.45,1579.41 2069.00,1582.08
             2064.10,1585.02 2052.71,1587.59 2047.00,1586.79
             2047.00,1586.79 2016.00,1578.33 2016.00,1578.33
             1986.34,1571.49 1956.28,1567.05 1926.00,1564.04
             1926.00,1564.04 1916.00,1564.04 1916.00,1564.04
             1916.00,1564.04 1906.00,1563.00 1906.00,1563.00
             1898.49,1562.92 1882.57,1563.58 1876.00,1561.45
             1869.71,1559.41 1853.38,1545.48 1848.84,1540.00
             1843.91,1534.04 1845.62,1523.02 1844.24,1518.00
             1841.19,1506.88 1828.56,1505.00 1819.00,1505.00 Z
           M 659.00,1793.00
           C 659.00,1793.00 697.00,1793.00 697.00,1793.00
             697.00,1793.00 697.00,1849.00 697.00,1849.00
             697.00,1849.00 753.00,1849.00 753.00,1849.00
             753.00,1849.00 753.00,1887.00 753.00,1887.00
             753.00,1887.00 697.00,1887.00 697.00,1887.00
             697.00,1887.00 697.00,1943.00 697.00,1943.00
             697.00,1943.00 659.00,1943.00 659.00,1943.00
             659.00,1943.00 659.00,1887.00 659.00,1887.00
             659.00,1887.00 603.00,1887.00 603.00,1887.00
             603.00,1887.00 603.00,1849.00 603.00,1849.00
             603.00,1849.00 659.00,1849.00 659.00,1849.00
             659.00,1849.00 659.00,1793.00 659.00,1793.00 Z
           M 2762.00,2930.00
           C 2762.00,2930.00 2800.00,2930.00 2800.00,2930.00
             2800.00,2930.00 2800.00,2986.00 2800.00,2986.00
             2800.00,2986.00 2856.00,2986.00 2856.00,2986.00
             2856.00,2986.00 2856.00,3024.00 2856.00,3024.00
             2856.00,3024.00 2800.00,3024.00 2800.00,3024.00
             2800.00,3024.00 2800.00,3080.00 2800.00,3080.00
             2800.00,3080.00 2762.00,3080.00 2762.00,3080.00
             2762.00,3080.00 2762.00,3024.00 2762.00,3024.00
             2762.00,3024.00 2706.00,3024.00 2706.00,3024.00
             2706.00,3024.00 2706.00,2986.00 2706.00,2986.00
             2706.00,2986.00 2762.00,2986.00 2762.00,2986.00
             2762.00,2986.00 2762.00,2930.00 2762.00,2930.00 Z" />
</svg>
