<?xml version="1.0" encoding="UTF-8" standalone="no"?>
<!DOCTYPE svg PUBLIC "-//W3C//DTD SVG 20010904//EN"
              "http://www.w3.org/TR/2001/REC-SVG-20010904/DTD/svg10.dtd">

<svg xmlns="http://www.w3.org/2000/svg"
     width="12in" height="12in"
     viewBox="0 0 3600 3600">
  <path id="5 black"
        fill="none" stroke="black" stroke-width="1"
        d="M 3083.00,420.00
           C 3083.00,420.00 3159.00,420.00 3159.00,420.00
             3159.00,420.00 3159.00,531.00 3159.00,531.00
             3159.00,531.00 3272.00,531.00 3272.00,531.00
             3272.00,531.00 3272.00,607.00 3272.00,607.00
             3272.00,607.00 3159.00,607.00 3159.00,607.00
             3159.00,607.00 3159.00,718.00 3159.00,718.00
             3159.00,718.00 3083.00,718.00 3083.00,718.00
             3083.00,718.00 3083.00,607.00 3083.00,607.00
             3083.00,607.00 2972.00,607.00 2972.00,607.00
             2972.00,607.00 2972.00,531.00 2972.00,531.00
             2972.00,531.00 3083.00,531.00 3083.00,531.00
             3083.00,531.00 3083.00,420.00 3083.00,420.00 Z
           M 1930.09,1526.02
           C 1935.22,1524.24 1941.56,1525.00 1947.00,1525.00
             1947.00,1525.00 1964.00,1525.00 1964.00,1525.00
             1972.76,1525.12 1975.82,1530.71 1981.59,1536.72
             1983.55,1538.76 1986.15,1540.40 1987.26,1543.09
             1988.14,1545.21 1988.00,1548.68 1988.00,1551.00
             1988.02,1561.84 1990.15,1565.16 1982.15,1573.15
             1980.55,1574.76 1978.92,1576.74 1976.91,1577.83
             1974.13,1579.32 1971.74,1578.62 1969.09,1580.02
             1963.04,1583.21 1966.80,1585.98 1954.00,1586.00
             1954.00,1586.00 1933.00,1586.00 1933.00,1586.00
             1924.36,1586.16 1926.29,1589.08 1920.96,1591.83
             1918.27,1593.21 1914.95,1593.00 1912.00,1593.00
             1912.00,1593.00 1849.00,1593.00 1849.00,1593.00
             1846.58,1593.00 1843.25,1593.13 1841.01,1592.26
             1838.55,1591.30 1830.78,1584.23 1829.74,1581.82
             1829.00,1580.11 1829.03,1577.83 1829.00,1576.00
             1828.96,1572.96 1828.59,1565.57 1830.02,1563.15
             1832.53,1558.91 1836.57,1561.05 1840.91,1558.28
             1840.91,1558.28 1853.17,1547.02 1853.17,1547.02
             1855.94,1545.50 1863.59,1546.01 1867.00,1546.00
             1869.60,1545.99 1872.60,1546.20 1874.96,1544.98
             1878.22,1543.30 1879.13,1540.33 1883.04,1539.31
             1886.44,1538.43 1892.34,1539.85 1895.96,1537.98
             1902.16,1534.78 1898.17,1532.02 1910.00,1532.00
             1913.49,1531.99 1921.05,1532.49 1923.91,1530.98
             1923.91,1530.98 1930.09,1526.02 1930.09,1526.02 Z
           M 613.00,3048.00
           C 613.00,3048.00 689.00,3048.00 689.00,3048.00
             689.00,3048.00 689.00,3159.00 689.00,3159.00
             689.00,3159.00 802.00,3159.00 802.00,3159.00
             802.00,3159.00 802.00,3235.00 802.00,3235.00
             802.00,3235.00 689.00,3235.00 689.00,3235.00
             689.00,3235.00 689.00,3346.00 689.00,3346.00
             689.00,3346.00 613.00,3346.00 613.00,3346.00
             613.00,3346.00 613.00,3235.00 613.00,3235.00
             613.00,3235.00 502.00,3235.00 502.00,3235.00
             502.00,3235.00 502.00,3159.00 502.00,3159.00
             502.00,3159.00 613.00,3159.00 613.00,3159.00
             613.00,3159.00 613.00,3048.00 613.00,3048.00 Z" />
</svg>
