<?xml version="1.0" encoding="UTF-8" standalone="no"?>
<!DOCTYPE svg PUBLIC "-//W3C//DTD SVG 20010904//EN"
              "http://www.w3.org/TR/2001/REC-SVG-20010904/DTD/svg10.dtd">

<svg xmlns="http://www.w3.org/2000/svg"
     width="12in" height="12in"
     viewBox="0 0 3600 3600">
  <path id="6 - Whites"
        fill="none" stroke="black" stroke-width="1"
        d="M 2388.00,1495.00
           C 2386.21,1488.70 2387.50,1485.09 2386.71,1479.00
             2385.40,1468.91 2381.82,1459.65 2376.54,1451.00
             2372.57,1444.50 2367.20,1438.47 2361.00,1434.04
             2361.00,1434.04 2348.65,1425.61 2348.65,1425.61
             2345.42,1421.47 2350.26,1415.22 2348.65,1409.04
             2347.32,1403.69 2341.84,1403.56 2340.46,1394.00
             2338.74,1382.17 2349.68,1378.58 2351.98,1374.74
             2353.21,1372.68 2353.00,1369.36 2353.00,1367.00
             2353.08,1325.92 2344.81,1282.91 2323.91,1247.00
             2322.89,1245.27 2321.28,1242.20 2318.94,1242.20
             2316.47,1242.20 2313.53,1246.30 2311.91,1247.99
             2307.76,1252.30 2303.54,1255.44 2298.00,1257.75
             2287.96,1261.92 2279.16,1265.93 2268.00,1264.90
             2249.87,1263.21 2233.51,1246.56 2234.26,1228.00
             2234.41,1224.25 2236.65,1218.60 2238.00,1215.00
             2242.01,1204.29 2244.83,1197.44 2254.09,1189.84
             2254.09,1189.84 2267.00,1181.56 2267.00,1181.56
             2267.00,1181.56 2278.00,1173.36 2278.00,1173.36
             2287.66,1167.76 2311.81,1161.14 2323.00,1161.00
             2323.00,1161.00 2331.00,1161.00 2331.00,1161.00
             2333.73,1161.00 2336.34,1160.91 2339.00,1161.61
             2356.72,1166.30 2374.78,1187.23 2384.47,1202.00
             2387.39,1206.46 2392.08,1213.28 2394.05,1218.00
             2396.58,1224.07 2399.80,1240.85 2401.28,1248.00
             2410.44,1292.24 2417.93,1337.74 2418.00,1383.00
             2418.00,1383.00 2419.00,1400.00 2419.00,1400.00
             2419.00,1400.00 2419.00,1424.00 2419.00,1424.00
             2418.97,1445.48 2401.02,1476.62 2390.00,1495.00
             2390.00,1495.00 2388.00,1495.00 2388.00,1495.00 Z
           M 1866.00,1563.00
           C 1857.83,1566.40 1855.65,1564.21 1848.00,1565.30
             1848.00,1565.30 1801.00,1573.33 1801.00,1573.33
             1778.25,1578.62 1755.57,1585.38 1734.00,1594.42
             1713.65,1602.96 1705.27,1611.16 1682.00,1608.28
             1682.00,1608.28 1676.00,1607.59 1676.00,1607.59
             1671.31,1606.40 1664.93,1600.70 1661.00,1597.65
             1650.94,1589.85 1636.89,1576.60 1628.58,1567.00
             1596.35,1529.81 1580.38,1499.39 1567.72,1452.00
             1564.33,1439.33 1559.15,1414.74 1559.00,1402.00
             1559.00,1402.00 1559.00,1389.00 1559.00,1389.00
             1559.17,1379.93 1565.35,1377.80 1572.00,1372.65
             1572.00,1372.65 1604.00,1345.41 1604.00,1345.41
             1622.60,1329.72 1645.99,1307.48 1667.00,1295.73
             1677.30,1289.97 1685.96,1284.87 1698.00,1285.00
             1706.24,1285.10 1741.56,1292.14 1751.00,1294.41
             1751.00,1294.41 1778.00,1300.72 1778.00,1300.72
             1780.63,1301.29 1787.67,1302.65 1789.37,1304.58
             1791.24,1306.74 1789.82,1309.59 1789.37,1312.00
             1789.37,1312.00 1786.34,1329.00 1786.34,1329.00
             1782.85,1345.46 1782.80,1373.68 1783.00,1391.00
             1783.00,1391.00 1785.06,1410.00 1785.06,1410.00
             1785.06,1410.00 1785.06,1418.00 1785.06,1418.00
             1787.62,1435.96 1792.10,1453.93 1798.14,1471.00
             1802.08,1482.11 1806.29,1493.39 1813.30,1503.00
             1822.35,1515.41 1827.59,1504.09 1837.85,1516.00
             1844.53,1523.75 1837.85,1531.30 1843.36,1541.00
             1848.78,1550.52 1859.71,1554.41 1866.00,1563.00 Z
           M 1834.01,1314.02
           C 1839.78,1312.13 1841.47,1313.91 1847.00,1314.70
             1847.00,1314.70 1856.00,1315.21 1856.00,1315.21
             1856.00,1315.21 1862.00,1316.63 1862.00,1316.63
             1862.00,1316.63 1872.00,1317.17 1872.00,1317.17
             1872.00,1317.17 1890.00,1319.00 1890.00,1319.00
             1900.20,1319.05 1904.73,1318.43 1915.00,1320.49
             1920.28,1321.54 1925.89,1320.26 1928.73,1322.02
             1932.41,1324.31 1934.46,1336.70 1934.81,1341.00
             1935.16,1345.24 1933.71,1348.87 1933.16,1353.00
             1932.03,1361.51 1930.09,1370.45 1925.83,1378.00
             1923.11,1382.82 1919.91,1386.15 1916.00,1389.99
             1903.91,1401.84 1891.25,1409.20 1874.00,1409.00
             1853.94,1408.76 1830.61,1393.29 1822.68,1375.00
             1818.81,1366.08 1818.96,1361.36 1819.00,1352.00
             1819.06,1340.14 1823.88,1321.08 1834.01,1314.02 Z
           M 2307.11,1336.13
           C 2313.69,1335.04 2314.25,1339.80 2313.18,1345.00
             2313.18,1345.00 2304.52,1372.00 2304.52,1372.00
             2303.38,1375.09 2301.75,1380.28 2298.79,1381.97
             2292.04,1385.84 2290.71,1377.58 2291.75,1373.00
             2294.03,1362.93 2296.54,1358.26 2299.83,1349.00
             2301.61,1343.98 2302.68,1339.43 2307.11,1336.13 Z
           M 1983.04,1462.08
           C 1993.34,1460.11 1991.15,1472.18 1988.79,1478.00
             1982.89,1492.53 1978.81,1501.73 1970.14,1515.00
             1967.82,1518.55 1962.78,1526.32 1959.00,1527.92
             1955.70,1529.32 1953.23,1527.15 1952.47,1523.98
             1951.61,1520.38 1953.97,1513.53 1955.17,1510.00
             1959.06,1498.52 1965.52,1486.20 1972.05,1476.00
             1975.21,1471.07 1978.18,1465.46 1983.04,1462.08 Z
           M 2086.00,1565.00
           C 2087.57,1569.33 2085.52,1573.00 2083.69,1577.00
             2080.06,1584.93 2074.23,1599.75 2064.00,1589.00
             2078.38,1582.80 2078.76,1577.73 2086.00,1565.00 Z
           M 659.00,1793.00
           C 659.00,1793.00 697.00,1793.00 697.00,1793.00
             697.00,1793.00 697.00,1849.00 697.00,1849.00
             697.00,1849.00 753.00,1849.00 753.00,1849.00
             753.00,1849.00 753.00,1887.00 753.00,1887.00
             753.00,1887.00 697.00,1887.00 697.00,1887.00
             697.00,1887.00 697.00,1943.00 697.00,1943.00
             697.00,1943.00 659.00,1943.00 659.00,1943.00
             659.00,1943.00 659.00,1887.00 659.00,1887.00
             659.00,1887.00 603.00,1887.00 603.00,1887.00
             603.00,1887.00 603.00,1849.00 603.00,1849.00
             603.00,1849.00 659.00,1849.00 659.00,1849.00
             659.00,1849.00 659.00,1793.00 659.00,1793.00 Z
           M 3013.00,2217.00
           C 3013.00,2217.00 3027.91,2251.00 3027.91,2251.00
             3027.91,2251.00 3061.38,2325.00 3061.38,2325.00
             3061.38,2325.00 3073.66,2352.00 3073.66,2352.00
             3075.14,2355.23 3078.62,2360.50 3077.94,2364.00
             3077.41,2366.72 3073.17,2371.61 3071.37,2374.00
             3071.37,2374.00 3053.88,2397.00 3053.88,2397.00
             3053.88,2397.00 3028.42,2431.00 3028.42,2431.00
             3026.02,2434.32 3019.24,2444.21 3015.91,2445.66
             3012.81,2447.01 3007.24,2445.35 3004.00,2444.66
             3004.00,2444.66 2978.00,2439.88 2978.00,2439.88
             2978.00,2439.88 2963.00,2437.54 2963.00,2437.54
             2963.00,2437.54 2954.00,2435.46 2954.00,2435.46
             2954.00,2435.46 2888.00,2424.00 2888.00,2424.00
             2888.00,2424.00 2872.00,2421.54 2872.00,2421.54
             2872.00,2421.54 2833.00,2414.42 2833.00,2414.42
             2827.14,2413.55 2815.82,2413.04 2812.36,2407.87
             2812.36,2407.87 2799.14,2379.00 2799.14,2379.00
             2799.14,2379.00 2774.71,2325.00 2774.71,2325.00
             2774.71,2325.00 2765.31,2304.00 2765.31,2304.00
             2764.25,2301.69 2761.79,2296.42 2762.12,2294.00
             2762.55,2290.86 2769.31,2283.71 2771.59,2281.00
             2771.59,2281.00 2797.87,2251.00 2797.87,2251.00
             2797.87,2251.00 2815.58,2231.00 2815.58,2231.00
             2822.73,2222.74 2823.87,2218.02 2835.00,2218.00
             2835.00,2218.00 2905.00,2218.00 2905.00,2218.00
             2905.00,2218.00 2920.00,2217.00 2920.00,2217.00
             2920.00,2217.00 2958.00,2217.00 2958.00,2217.00
             2958.00,2217.00 2973.00,2216.00 2973.00,2216.00
             2973.00,2216.00 2994.00,2216.00 2994.00,2216.00
             2994.00,2216.00 3013.00,2217.00 3013.00,2217.00 Z
           M 2762.00,2930.00
           C 2762.00,2930.00 2800.00,2930.00 2800.00,2930.00
             2800.00,2930.00 2800.00,2986.00 2800.00,2986.00
             2800.00,2986.00 2856.00,2986.00 2856.00,2986.00
             2856.00,2986.00 2856.00,3024.00 2856.00,3024.00
             2856.00,3024.00 2800.00,3024.00 2800.00,3024.00
             2800.00,3024.00 2800.00,3080.00 2800.00,3080.00
             2800.00,3080.00 2762.00,3080.00 2762.00,3080.00
             2762.00,3080.00 2762.00,3024.00 2762.00,3024.00
             2762.00,3024.00 2706.00,3024.00 2706.00,3024.00
             2706.00,3024.00 2706.00,2986.00 2706.00,2986.00
             2706.00,2986.00 2762.00,2986.00 2762.00,2986.00
             2762.00,2986.00 2762.00,2930.00 2762.00,2930.00 Z" />
</svg>
