<?xml version="1.0" encoding="UTF-8" standalone="no"?>
<!DOCTYPE svg PUBLIC "-//W3C//DTD SVG 20010904//EN"
              "http://www.w3.org/TR/2001/REC-SVG-20010904/DTD/svg10.dtd">

<svg xmlns="http://www.w3.org/2000/svg"
     width="12in" height="12in"
     viewBox="0 0 3600 3600">
  <path id="7 - Final Lines"
        fill="none" stroke="black" stroke-width="1"
        d="M 1217.00,1277.00
           C 1202.09,1275.79 1172.98,1269.96 1161.00,1261.37
             1143.76,1249.00 1151.44,1229.31 1168.00,1221.40
             1175.85,1217.65 1184.64,1217.13 1192.99,1215.37
             1192.99,1215.37 1201.00,1213.00 1201.00,1213.00
             1201.00,1213.00 1203.00,1218.00 1203.00,1218.00
             1195.86,1218.06 1186.89,1219.53 1180.00,1221.42
             1168.87,1224.49 1160.59,1228.64 1156.02,1240.00
             1154.29,1244.31 1154.04,1246.95 1156.70,1251.00
             1158.17,1253.23 1160.90,1255.96 1163.00,1257.61
             1173.13,1265.59 1197.07,1270.82 1210.00,1272.73
             1210.00,1272.73 1228.00,1275.04 1228.00,1275.04
             1229.77,1275.16 1232.74,1275.39 1233.51,1277.37
             1234.24,1279.25 1232.43,1280.27 1230.93,1280.69
             1227.68,1281.59 1224.34,1279.79 1219.17,1284.34
             1210.92,1291.60 1201.10,1309.02 1199.48,1320.00
             1197.81,1331.31 1209.75,1339.08 1219.00,1342.16
             1242.23,1349.90 1266.32,1345.92 1290.00,1344.00
             1288.42,1353.19 1276.60,1348.87 1272.57,1356.13
             1268.29,1363.82 1272.53,1370.73 1280.00,1373.90
             1293.29,1379.24 1299.82,1375.10 1312.00,1373.90
             1311.01,1379.76 1308.44,1380.42 1303.00,1381.00
             1305.66,1389.01 1311.31,1389.80 1319.00,1387.84
             1319.00,1387.84 1348.00,1379.00 1348.00,1379.00
             1348.55,1385.54 1341.26,1389.25 1343.94,1396.98
             1346.02,1402.97 1351.70,1403.11 1357.00,1402.99
             1374.39,1402.59 1392.65,1390.54 1403.83,1378.00
             1403.83,1378.00 1412.49,1366.02 1412.49,1366.02
             1413.73,1365.16 1414.65,1365.23 1416.00,1365.00
             1413.82,1370.46 1413.01,1372.97 1409.64,1378.00
             1397.41,1396.28 1368.83,1418.49 1346.02,1405.59
             1341.94,1403.28 1340.24,1400.66 1340.06,1396.00
             1339.93,1392.76 1341.27,1388.61 1338.65,1387.20
             1336.53,1386.07 1330.41,1388.46 1328.00,1389.14
             1321.81,1390.90 1306.75,1394.77 1301.93,1388.57
             1300.23,1386.37 1300.12,1382.67 1300.00,1380.00
             1291.97,1379.99 1276.25,1379.27 1270.80,1372.78
             1268.40,1369.92 1267.00,1365.72 1267.26,1362.00
             1267.41,1358.50 1269.31,1354.86 1267.26,1352.60
             1265.61,1350.68 1261.38,1351.00 1259.00,1351.00
             1244.31,1350.97 1221.86,1349.46 1209.00,1342.12
             1201.50,1337.84 1194.24,1330.39 1195.31,1321.00
             1196.25,1312.74 1202.05,1299.95 1206.55,1293.00
             1210.36,1287.11 1215.12,1283.93 1217.00,1277.00 Z
           M 1567.00,1254.00
           C 1567.00,1254.00 1608.00,1249.00 1608.00,1249.00
             1608.00,1249.00 1626.00,1248.03 1626.00,1248.03
             1626.00,1248.03 1638.00,1249.00 1638.00,1249.00
             1688.33,1249.59 1736.06,1269.00 1784.00,1282.45
             1784.00,1282.45 1806.00,1288.01 1806.00,1288.01
             1806.00,1288.01 1852.00,1300.63 1852.00,1300.63
             1852.00,1300.63 1858.00,1301.32 1858.00,1301.32
             1858.00,1301.32 1865.00,1303.06 1865.00,1303.06
             1865.00,1303.06 1873.00,1303.06 1873.00,1303.06
             1873.00,1303.06 1881.00,1305.00 1881.00,1305.00
             1881.00,1305.00 1891.00,1305.00 1891.00,1305.00
             1898.10,1305.88 1898.04,1306.99 1907.00,1307.04
             1907.00,1307.04 1923.00,1307.04 1923.00,1307.04
             1923.00,1307.04 1935.00,1308.00 1935.00,1308.00
             1935.00,1308.00 1956.00,1308.00 1956.00,1308.00
             1956.00,1308.00 1973.00,1307.00 1973.00,1307.00
             1987.33,1306.98 2003.90,1304.78 2016.00,1296.54
             2020.64,1293.38 2027.03,1287.58 2030.20,1283.00
             2033.11,1278.80 2033.04,1275.60 2035.38,1274.62
             2041.60,1272.03 2039.10,1283.63 2038.20,1286.00
             2035.60,1292.83 2026.72,1302.06 2021.00,1306.47
             2017.12,1309.46 2008.84,1314.07 2004.00,1314.79
             2004.00,1314.79 1996.00,1315.66 1996.00,1315.66
             1977.04,1319.47 1976.60,1319.97 1957.00,1320.00
             1957.00,1320.00 1940.00,1321.00 1940.00,1321.00
             1940.00,1321.00 1920.00,1321.00 1920.00,1321.00
             1911.31,1320.89 1912.92,1319.02 1902.00,1319.00
             1902.00,1319.00 1888.00,1319.00 1888.00,1319.00
             1888.00,1319.00 1871.00,1316.98 1871.00,1316.98
             1871.00,1316.98 1862.00,1316.98 1862.00,1316.98
             1862.00,1316.98 1855.00,1315.02 1855.00,1315.02
             1855.00,1315.02 1847.00,1315.02 1847.00,1315.02
             1847.00,1315.02 1839.00,1313.30 1839.00,1313.30
             1839.00,1313.30 1831.00,1312.72 1831.00,1312.72
             1831.00,1312.72 1813.00,1309.68 1813.00,1309.68
             1813.00,1309.68 1801.00,1306.59 1801.00,1306.59
             1801.00,1306.59 1793.00,1305.70 1793.00,1305.70
             1793.00,1305.70 1781.00,1301.58 1781.00,1301.58
             1781.00,1301.58 1746.00,1293.36 1746.00,1293.36
             1746.00,1293.36 1698.00,1285.13 1698.00,1285.13
             1698.00,1285.13 1688.00,1285.13 1688.00,1285.13
             1688.00,1285.13 1664.00,1282.17 1664.00,1282.17
             1664.00,1282.17 1636.00,1281.00 1636.00,1281.00
             1636.00,1281.00 1618.00,1280.00 1618.00,1280.00
             1618.00,1280.00 1608.00,1280.96 1608.00,1280.96
             1608.00,1280.96 1595.00,1280.96 1595.00,1280.96
             1591.10,1281.05 1581.58,1283.37 1579.39,1282.41
             1577.05,1281.40 1575.34,1277.24 1574.31,1275.00
             1571.15,1268.14 1567.64,1261.62 1567.00,1254.00 Z
           M 1458.00,1327.97
           C 1465.44,1311.58 1476.35,1305.66 1490.00,1295.96
             1490.00,1295.96 1503.00,1286.33 1503.00,1286.33
             1506.42,1284.05 1517.43,1275.57 1521.00,1276.01
             1525.49,1276.57 1533.45,1287.19 1536.00,1291.00
             1528.01,1292.23 1515.06,1297.33 1508.00,1301.33
             1508.00,1301.33 1500.00,1306.21 1500.00,1306.21
             1500.00,1306.21 1480.00,1316.79 1480.00,1316.79
             1480.00,1316.79 1461.00,1327.97 1461.00,1327.97
             1459.16,1328.41 1459.01,1328.04 1458.00,1327.97 Z
           M 2295.00,1511.61
           C 2302.22,1510.84 2304.94,1516.15 2300.85,1521.91
             2297.31,1526.89 2291.74,1529.07 2286.00,1530.41
             2280.96,1531.58 2266.59,1531.50 2264.17,1525.90
             2262.63,1522.35 2267.57,1520.76 2270.00,1519.86
             2270.00,1519.86 2295.00,1511.61 2295.00,1511.61 Z
           M 659.00,1793.00
           C 659.00,1793.00 697.00,1793.00 697.00,1793.00
             697.00,1793.00 697.00,1849.00 697.00,1849.00
             697.00,1849.00 753.00,1849.00 753.00,1849.00
             753.00,1849.00 753.00,1887.00 753.00,1887.00
             753.00,1887.00 697.00,1887.00 697.00,1887.00
             697.00,1887.00 697.00,1943.00 697.00,1943.00
             697.00,1943.00 659.00,1943.00 659.00,1943.00
             659.00,1943.00 659.00,1887.00 659.00,1887.00
             659.00,1887.00 603.00,1887.00 603.00,1887.00
             603.00,1887.00 603.00,1849.00 603.00,1849.00
             603.00,1849.00 659.00,1849.00 659.00,1849.00
             659.00,1849.00 659.00,1793.00 659.00,1793.00 Z
           M 2136.00,1959.00
           C 2139.29,1954.61 2144.93,1956.00 2150.00,1956.00
             2156.22,1969.12 2180.69,1978.01 2186.00,1989.00
             2183.08,1989.72 2175.22,1990.05 2177.17,1994.92
             2178.29,1997.72 2185.29,2001.35 2188.00,2003.19
             2195.50,2008.30 2202.27,2014.21 2208.99,2020.28
             2208.99,2020.28 2217.07,2029.00 2217.07,2029.00
             2232.91,2046.45 2238.58,2054.84 2250.15,2075.00
             2257.57,2087.93 2256.65,2084.72 2261.02,2099.00
             2262.63,2104.23 2264.67,2107.80 2259.00,2111.00
             2254.68,2105.57 2251.58,2104.03 2245.00,2102.09
             2242.21,2101.28 2238.92,2100.77 2237.64,2104.15
             2236.72,2106.56 2239.19,2114.96 2239.80,2118.00
             2239.80,2118.00 2241.71,2128.00 2241.71,2128.00
             2241.71,2128.00 2242.30,2133.96 2242.30,2133.96
             2243.55,2139.47 2245.98,2137.12 2246.00,2151.00
             2246.03,2169.69 2246.68,2183.35 2238.77,2201.00
             2236.06,2207.04 2235.26,2210.53 2230.00,2215.00
             2219.29,2199.94 2218.26,2204.03 2211.42,2194.99
             2209.81,2192.86 2206.73,2187.62 2203.41,2189.17
             2201.41,2190.10 2200.33,2194.04 2199.67,2196.00
             2199.67,2196.00 2192.80,2215.00 2192.80,2215.00
             2192.80,2215.00 2172.58,2264.00 2172.58,2264.00
             2169.31,2272.66 2165.20,2283.77 2165.00,2293.00
             2165.00,2293.00 2156.00,2293.00 2156.00,2293.00
             2160.24,2261.57 2185.76,2225.62 2195.67,2196.00
             2197.76,2189.74 2200.17,2183.71 2199.96,2177.00
             2199.71,2169.26 2196.94,2157.98 2201.00,2151.00
             2201.00,2151.00 2203.43,2166.00 2203.43,2166.00
             2207.25,2179.56 2212.46,2187.36 2221.42,2198.00
             2224.63,2201.80 2227.62,2206.69 2232.00,2209.00
             2232.00,2209.00 2238.83,2178.00 2238.83,2178.00
             2240.96,2158.16 2240.38,2137.63 2236.69,2118.00
             2236.69,2118.00 2233.51,2106.00 2233.51,2106.00
             2233.51,2106.00 2232.79,2099.00 2232.79,2099.00
             2232.79,2099.00 2231.00,2092.00 2231.00,2092.00
             2240.75,2092.45 2244.17,2094.06 2253.00,2097.00
             2251.12,2091.86 2245.70,2081.99 2242.85,2077.00
             2227.80,2050.62 2215.62,2035.37 2194.00,2014.00
             2186.42,2006.51 2178.47,2001.50 2170.00,1995.24
             2168.09,1993.82 2161.25,1990.40 2160.73,1988.81
             2159.31,1984.46 2168.68,1985.05 2173.00,1984.00
             2173.00,1984.00 2153.00,1970.12 2153.00,1970.12
             2147.56,1966.11 2142.53,1961.08 2136.00,1959.00 Z
           M 1946.00,1989.00
           C 1951.87,1990.81 1954.65,1996.49 1958.59,2000.96
             1963.34,2006.35 1969.94,2011.45 1976.00,2015.31
             1988.33,2023.15 2000.99,2027.07 2015.00,2030.53
             2015.00,2030.53 2029.00,2034.00 2029.00,2034.00
             2024.46,2043.67 2012.08,2053.54 2002.00,2057.00
             2003.55,2059.44 2005.64,2061.99 2005.53,2065.00
             2005.65,2068.99 2002.59,2070.64 2005.53,2075.00
             2006.78,2077.10 2013.65,2083.40 2020.55,2095.00
             2030.35,2111.48 2037.72,2134.16 2041.26,2153.00
             2042.22,2158.12 2045.47,2174.50 2042.83,2178.61
             2041.29,2180.99 2037.67,2182.21 2035.00,2182.79
             2033.45,2182.94 2031.57,2183.01 2030.00,2182.79
             2020.18,2182.23 2009.23,2174.04 2001.00,2169.00
             2007.44,2183.96 2013.71,2197.78 2016.74,2214.00
             2017.27,2216.86 2019.16,2226.65 2018.65,2228.95
             2017.37,2234.69 2008.64,2234.79 2004.00,2235.42
             1988.21,2237.58 1974.35,2233.10 1963.00,2222.00
             1963.00,2222.00 1965.00,2241.00 1965.00,2241.00
             1965.00,2241.00 1965.00,2249.00 1965.00,2249.00
             1965.00,2249.00 1970.71,2286.00 1970.71,2286.00
             1979.20,2341.09 1994.62,2394.98 2014.61,2447.00
             2014.61,2447.00 2043.00,2512.00 2043.00,2512.00
             2043.00,2512.00 2030.00,2514.00 2030.00,2514.00
             2030.00,2514.00 2020.30,2492.00 2020.30,2492.00
             2020.30,2492.00 2006.20,2458.00 2006.20,2458.00
             1994.30,2427.73 1984.17,2395.58 1976.37,2364.00
             1967.87,2329.53 1961.33,2294.40 1958.91,2259.00
             1958.91,2259.00 1958.00,2249.00 1958.00,2249.00
             1958.00,2249.00 1957.00,2231.00 1957.00,2231.00
             1956.95,2226.77 1957.39,2217.60 1956.37,2214.00
             1954.85,2208.66 1952.34,2207.15 1951.00,2200.00
             1958.07,2203.52 1959.55,2211.79 1970.00,2219.11
             1974.31,2222.27 1977.91,2224.42 1981.00,2219.11
             1981.00,2219.11 1991.00,2225.52 1991.00,2225.52
             1991.00,2225.52 2009.00,2229.00 2009.00,2229.00
             2006.61,2212.02 1999.03,2184.78 1990.57,2170.00
             1987.37,2164.40 1983.62,2159.01 1979.34,2154.17
             1975.86,2150.23 1972.68,2149.12 1971.00,2144.00
             1987.66,2147.01 2000.96,2163.11 2015.00,2171.60
             2020.26,2174.78 2028.60,2179.77 2035.00,2178.76
             2045.87,2177.04 2038.13,2168.67 2036.14,2163.91
             2036.14,2163.91 2032.63,2151.00 2032.63,2151.00
             2028.01,2133.00 2021.12,2110.73 2011.32,2095.00
             2007.76,2089.29 2005.69,2085.96 2000.96,2081.00
             1997.07,2076.92 1992.00,2073.40 1990.00,2068.00
             1990.00,2068.00 1996.00,2067.00 1996.00,2067.00
             1996.00,2067.00 1990.00,2058.00 1990.00,2058.00
             1990.00,2058.00 2001.41,2049.70 2001.41,2049.70
             2001.41,2049.70 2004.59,2043.84 2004.59,2043.84
             2004.59,2043.84 2014.00,2037.00 2014.00,2037.00
             1994.08,2036.99 1971.62,2024.05 1958.04,2010.00
             1952.49,2004.25 1946.48,1997.24 1946.00,1989.00 Z
           M 2874.00,2293.00
           C 2874.00,2293.00 2877.00,2243.00 2877.00,2243.00
             2877.14,2233.08 2880.75,2231.02 2890.00,2231.00
             2890.00,2231.00 2926.00,2231.00 2926.00,2231.00
             2933.86,2231.10 2940.43,2232.78 2940.96,2242.00
             2940.96,2242.00 2939.09,2260.00 2939.09,2260.00
             2939.09,2260.00 2937.00,2285.00 2937.00,2285.00
             2950.44,2285.00 2962.65,2285.62 2976.00,2287.28
             2984.20,2288.31 2990.22,2289.29 2991.00,2299.00
             2997.00,2299.00 3012.33,2298.15 3016.85,2301.59
             3019.83,2303.86 3019.93,2306.60 3020.00,2310.00
             3020.00,2310.00 3020.00,2327.00 3020.00,2327.00
             3020.00,2327.00 3021.00,2345.00 3021.00,2345.00
             3021.08,2351.08 3023.09,2367.03 3024.50,2373.00
             3026.38,2380.96 3030.90,2393.36 3020.00,2397.40
             3018.08,2398.11 3015.08,2398.00 3013.00,2398.00
             3013.00,2398.00 2990.00,2399.00 2990.00,2399.00
             2990.00,2399.00 2921.00,2399.00 2921.00,2399.00
             2921.00,2399.00 2904.00,2398.00 2904.00,2398.00
             2904.00,2398.00 2862.00,2398.00 2862.00,2398.00
             2853.61,2397.99 2841.93,2394.51 2836.27,2387.95
             2833.45,2384.67 2831.10,2377.25 2829.67,2373.00
             2829.67,2373.00 2821.05,2349.00 2821.05,2349.00
             2817.25,2338.58 2807.89,2320.11 2824.00,2315.76
             2826.91,2314.98 2829.05,2315.03 2832.00,2315.00
             2832.15,2303.33 2839.41,2302.05 2849.00,2298.66
             2863.31,2293.60 2857.65,2293.00 2874.00,2293.00 Z
           M 1694.00,2271.00
           C 1701.28,2272.39 1707.30,2278.17 1710.16,2285.00
             1710.16,2285.00 1712.04,2292.00 1712.04,2292.00
             1712.04,2292.00 1726.12,2343.00 1726.12,2343.00
             1726.12,2343.00 1742.60,2416.00 1742.60,2416.00
             1743.61,2421.07 1744.55,2435.57 1749.14,2438.13
             1750.86,2438.76 1752.24,2438.31 1753.99,2438.13
             1759.12,2438.56 1761.00,2442.02 1763.57,2446.00
             1763.57,2446.00 1774.86,2465.00 1774.86,2465.00
             1788.66,2489.74 1805.83,2529.09 1815.00,2556.00
             1815.00,2556.00 1827.77,2598.00 1827.77,2598.00
             1827.77,2598.00 1833.12,2624.00 1833.12,2624.00
             1834.09,2628.51 1834.67,2641.83 1837.51,2644.40
             1838.97,2645.73 1840.21,2645.70 1842.00,2646.00
             1842.00,2646.00 1844.00,2632.00 1844.00,2632.00
             1844.00,2632.00 1847.00,2632.00 1847.00,2632.00
             1846.84,2645.38 1850.20,2645.00 1854.68,2657.00
             1854.68,2657.00 1870.00,2701.00 1870.00,2701.00
             1872.49,2708.30 1876.30,2715.24 1877.00,2723.00
             1877.00,2723.00 1867.00,2722.00 1867.00,2722.00
             1866.99,2702.73 1861.58,2691.08 1856.42,2673.00
             1855.27,2668.96 1850.85,2653.83 1848.93,2651.15
             1845.48,2646.34 1842.69,2650.53 1839.02,2650.27
             1835.94,2650.06 1834.46,2647.57 1833.48,2644.98
             1833.48,2644.98 1811.29,2568.00 1811.29,2568.00
             1805.53,2548.03 1797.69,2528.22 1789.79,2509.00
             1789.79,2509.00 1767.24,2461.00 1767.24,2461.00
             1765.57,2457.70 1760.30,2446.58 1756.91,2445.74
             1752.53,2444.66 1753.11,2449.85 1746.00,2452.00
             1746.00,2452.00 1742.01,2436.00 1742.01,2436.00
             1742.01,2436.00 1723.50,2346.00 1723.50,2346.00
             1723.50,2346.00 1713.72,2311.00 1713.72,2311.00
             1713.72,2311.00 1707.24,2289.00 1707.24,2289.00
             1707.24,2289.00 1694.00,2271.00 1694.00,2271.00 Z
           M 1546.00,2353.00
           C 1554.21,2355.42 1561.60,2367.90 1566.05,2375.00
             1577.74,2393.63 1593.51,2427.27 1601.80,2448.00
             1614.34,2479.34 1622.38,2507.62 1627.30,2541.00
             1627.30,2541.00 1629.00,2549.00 1629.00,2549.00
             1629.00,2549.00 1629.00,2556.00 1629.00,2556.00
             1629.00,2556.00 1631.00,2576.00 1631.00,2576.00
             1631.00,2576.00 1631.00,2612.00 1631.00,2612.00
             1630.99,2621.00 1628.11,2637.56 1626.59,2647.00
             1623.10,2668.71 1618.32,2690.81 1612.29,2712.00
             1605.73,2735.08 1597.86,2757.87 1588.58,2780.00
             1588.58,2780.00 1578.74,2802.00 1578.74,2802.00
             1576.06,2807.54 1573.67,2810.71 1573.00,2817.00
             1564.35,2814.47 1555.06,2812.14 1549.00,2805.00
             1553.57,2803.47 1559.27,2801.88 1562.96,2798.73
             1569.30,2793.31 1574.06,2778.02 1577.42,2770.00
             1586.04,2749.46 1595.99,2722.54 1601.23,2701.00
             1601.23,2701.00 1604.77,2688.00 1604.77,2688.00
             1609.53,2667.85 1613.17,2647.59 1615.17,2627.00
             1615.17,2627.00 1617.00,2605.00 1617.00,2605.00
             1617.00,2605.00 1617.00,2574.00 1617.00,2574.00
             1617.00,2574.00 1615.17,2553.00 1615.17,2553.00
             1612.19,2522.25 1605.45,2492.32 1595.65,2463.00
             1589.02,2443.19 1573.96,2405.43 1564.75,2387.00
             1560.36,2378.20 1559.62,2376.39 1554.00,2368.00
             1550.32,2362.52 1546.77,2359.69 1546.00,2353.00 Z
           M 1260.00,2460.67
           C 1268.13,2459.43 1274.09,2460.37 1282.00,2460.67
             1306.65,2462.61 1331.36,2468.50 1353.00,2480.87
             1369.83,2490.50 1380.76,2499.75 1381.91,2520.00
             1382.57,2531.65 1374.98,2539.61 1366.00,2545.96
             1366.00,2545.96 1308.00,2577.15 1308.00,2577.15
             1266.45,2600.86 1227.57,2628.71 1211.67,2676.00
             1206.42,2691.60 1204.97,2698.57 1205.00,2715.00
             1205.02,2727.01 1208.88,2733.26 1209.00,2742.00
             1209.03,2744.69 1209.24,2748.57 1207.98,2750.96
             1203.18,2760.07 1190.41,2758.83 1184.39,2751.89
             1179.05,2745.74 1177.10,2726.29 1177.00,2718.00
             1177.00,2718.00 1177.00,2699.00 1177.00,2699.00
             1177.00,2699.00 1178.72,2684.00 1178.72,2684.00
             1181.89,2659.95 1190.47,2636.75 1204.74,2617.00
             1221.01,2594.49 1242.27,2576.37 1263.00,2558.15
             1275.76,2546.94 1288.54,2537.69 1303.00,2528.81
             1307.39,2526.11 1317.04,2520.38 1317.99,2515.00
             1318.80,2510.36 1312.36,2506.13 1309.00,2504.07
             1300.38,2498.77 1282.10,2494.65 1272.00,2495.04
             1272.00,2495.04 1260.00,2496.73 1260.00,2496.73
             1238.99,2499.82 1224.76,2504.96 1206.00,2514.75
             1197.85,2519.00 1184.13,2528.16 1178.39,2535.09
             1166.28,2549.72 1190.06,2555.94 1181.26,2570.00
             1180.20,2571.69 1178.51,2573.38 1176.98,2574.67
             1174.84,2576.49 1172.66,2577.84 1170.00,2578.75
             1166.82,2579.85 1163.35,2580.09 1160.00,2579.96
             1144.98,2579.37 1138.96,2572.52 1131.12,2561.00
             1127.02,2554.99 1123.36,2548.45 1123.04,2541.00
             1122.55,2529.83 1129.62,2519.75 1137.04,2512.00
             1159.00,2489.04 1193.19,2472.56 1224.00,2465.50
             1224.00,2465.50 1260.00,2460.67 1260.00,2460.67 Z
           M 1207.00,2773.65
           C 1214.18,2772.17 1226.61,2772.28 1233.00,2776.07
             1246.10,2783.85 1245.79,2800.61 1235.70,2810.70
             1228.45,2817.95 1221.70,2819.12 1212.00,2819.00
             1185.71,2818.65 1185.92,2782.04 1207.00,2773.65 Z
           M 2762.00,2930.00
           C 2762.00,2930.00 2800.00,2930.00 2800.00,2930.00
             2800.00,2930.00 2800.00,2986.00 2800.00,2986.00
             2800.00,2986.00 2856.00,2986.00 2856.00,2986.00
             2856.00,2986.00 2856.00,3024.00 2856.00,3024.00
             2856.00,3024.00 2800.00,3024.00 2800.00,3024.00
             2800.00,3024.00 2800.00,3080.00 2800.00,3080.00
             2800.00,3080.00 2762.00,3080.00 2762.00,3080.00
             2762.00,3080.00 2762.00,3024.00 2762.00,3024.00
             2762.00,3024.00 2706.00,3024.00 2706.00,3024.00
             2706.00,3024.00 2706.00,2986.00 2706.00,2986.00
             2706.00,2986.00 2762.00,2986.00 2762.00,2986.00
             2762.00,2986.00 2762.00,2930.00 2762.00,2930.00 Z
           M 1199.00,3004.00
           C 1199.00,3004.00 1217.00,3017.85 1217.00,3017.85
             1224.20,3023.13 1251.23,3039.86 1259.00,3042.40
             1262.51,3043.55 1270.07,3044.48 1274.00,3045.00
             1274.00,3045.00 1274.00,3048.00 1274.00,3048.00
             1257.62,3047.64 1250.67,3043.64 1237.00,3035.45
             1237.00,3035.45 1221.00,3026.19 1221.00,3026.19
             1213.99,3021.90 1206.29,3014.59 1198.00,3014.00
             1198.00,3014.00 1199.00,3004.00 1199.00,3004.00 Z" />
</svg>
