<?xml version="1.0" encoding="UTF-8" standalone="no"?>
<!DOCTYPE svg PUBLIC "-//W3C//DTD SVG 20010904//EN"
              "http://www.w3.org/TR/2001/REC-SVG-20010904/DTD/svg10.dtd">

<svg xmlns="http://www.w3.org/2000/svg"
     width="12in" height="12in"
     viewBox="0 0 3600 3600">
  <path id="8 - green finger"
        fill="none" stroke="black" stroke-width="1"
        d="M 659.00,1793.00
           C 659.00,1793.00 697.00,1793.00 697.00,1793.00
             697.00,1793.00 697.00,1849.00 697.00,1849.00
             697.00,1849.00 753.00,1849.00 753.00,1849.00
             753.00,1849.00 753.00,1887.00 753.00,1887.00
             753.00,1887.00 697.00,1887.00 697.00,1887.00
             697.00,1887.00 697.00,1943.00 697.00,1943.00
             697.00,1943.00 659.00,1943.00 659.00,1943.00
             659.00,1943.00 659.00,1887.00 659.00,1887.00
             659.00,1887.00 603.00,1887.00 603.00,1887.00
             603.00,1887.00 603.00,1849.00 603.00,1849.00
             603.00,1849.00 659.00,1849.00 659.00,1849.00
             659.00,1849.00 659.00,1793.00 659.00,1793.00 Z
           M 2840.00,2312.00
           C 2840.00,2312.00 2863.00,2302.61 2863.00,2302.61
             2865.31,2301.75 2869.05,2300.27 2870.98,2302.61
             2871.69,2303.45 2873.02,2309.45 2873.45,2311.00
             2873.45,2311.00 2878.68,2334.00 2878.68,2334.00
             2879.42,2336.92 2882.31,2343.56 2886.27,2342.44
             2891.32,2341.00 2890.45,2335.67 2889.21,2332.00
             2886.84,2324.96 2880.72,2306.61 2881.09,2300.00
             2881.09,2300.00 2885.00,2247.00 2885.00,2247.00
             2885.03,2244.86 2884.90,2241.47 2886.74,2239.99
             2888.57,2238.53 2891.86,2239.36 2894.00,2239.16
             2894.00,2239.16 2906.00,2239.16 2906.00,2239.16
             2906.00,2239.16 2922.00,2239.16 2922.00,2239.16
             2924.51,2239.03 2929.35,2239.09 2931.25,2240.90
             2932.74,2242.33 2932.53,2244.14 2932.38,2246.00
             2932.38,2246.00 2930.04,2266.00 2930.04,2266.00
             2930.04,2266.00 2930.04,2276.00 2930.04,2276.00
             2928.69,2293.83 2927.66,2302.46 2933.51,2320.00
             2936.58,2329.22 2938.17,2334.76 2945.00,2342.00
             2947.07,2330.40 2942.47,2318.41 2940.23,2307.00
             2939.78,2303.10 2940.00,2297.13 2940.23,2293.00
             2940.23,2293.00 2969.00,2295.00 2969.00,2295.00
             2971.82,2295.25 2979.50,2295.81 2981.39,2297.74
             2983.44,2299.83 2982.04,2305.97 2982.00,2309.00
             2982.00,2309.00 2981.00,2325.00 2981.00,2325.00
             2981.00,2325.00 2981.00,2343.00 2981.00,2343.00
             2981.01,2346.24 2980.82,2352.00 2983.21,2354.48
             2987.17,2358.60 2987.97,2348.81 2988.00,2347.00
             2988.00,2347.00 2988.00,2329.00 2988.00,2329.00
             2988.00,2329.00 2990.00,2307.00 2990.00,2307.00
             2990.00,2307.00 3012.00,2308.00 3012.00,2308.00
             3012.00,2308.00 3014.17,2363.00 3014.17,2363.00
             3014.17,2363.00 3016.75,2378.00 3016.75,2378.00
             3017.32,2380.17 3018.80,2383.81 3018.50,2385.94
             3017.85,2390.57 3012.47,2389.99 3009.00,2390.04
             3009.00,2390.04 2998.00,2390.04 2998.00,2390.04
             2998.00,2390.04 2988.00,2391.00 2988.00,2391.00
             2988.00,2391.00 2925.00,2391.00 2925.00,2391.00
             2925.00,2391.00 2908.00,2390.00 2908.00,2390.00
             2908.00,2390.00 2864.00,2390.00 2864.00,2390.00
             2858.22,2389.93 2846.44,2386.38 2842.84,2381.73
             2842.84,2381.73 2831.31,2351.00 2831.31,2351.00
             2828.82,2344.02 2823.62,2331.85 2823.00,2325.00
             2823.00,2325.00 2834.00,2323.00 2834.00,2323.00
             2834.34,2338.73 2838.11,2340.35 2841.00,2353.00
             2848.07,2347.27 2845.69,2343.76 2844.44,2336.00
             2844.44,2336.00 2840.00,2312.00 2840.00,2312.00 Z
           M 2762.00,2930.00
           C 2762.00,2930.00 2800.00,2930.00 2800.00,2930.00
             2800.00,2930.00 2800.00,2986.00 2800.00,2986.00
             2800.00,2986.00 2856.00,2986.00 2856.00,2986.00
             2856.00,2986.00 2856.00,3024.00 2856.00,3024.00
             2856.00,3024.00 2800.00,3024.00 2800.00,3024.00
             2800.00,3024.00 2800.00,3080.00 2800.00,3080.00
             2800.00,3080.00 2762.00,3080.00 2762.00,3080.00
             2762.00,3080.00 2762.00,3024.00 2762.00,3024.00
             2762.00,3024.00 2706.00,3024.00 2706.00,3024.00
             2706.00,3024.00 2706.00,2986.00 2706.00,2986.00
             2706.00,2986.00 2762.00,2986.00 2762.00,2986.00
             2762.00,2986.00 2762.00,2930.00 2762.00,2930.00 Z" />
</svg>
