<?xml version="1.0" encoding="UTF-8" standalone="no"?>
<!DOCTYPE svg PUBLIC "-//W3C//DTD SVG 20010904//EN"
              "http://www.w3.org/TR/2001/REC-SVG-20010904/DTD/svg10.dtd">

<svg xmlns="http://www.w3.org/2000/svg"
     width="12in" height="12in"
     viewBox="0 0 3600 3600">
  <path id="9 - final final lines"
        fill="none" stroke="black" stroke-width="1"
        d="M 961.00,669.00
           C 967.50,671.33 969.59,677.31 972.85,683.00
             979.85,695.19 987.06,707.76 991.86,721.00
             1007.54,764.27 1006.36,773.12 1015.21,815.00
             1015.21,815.00 1033.42,887.00 1033.42,887.00
             1033.42,887.00 1053.81,951.00 1053.81,951.00
             1053.81,951.00 1071.99,992.00 1071.99,992.00
             1071.99,992.00 1080.31,1019.00 1080.31,1019.00
             1113.43,1093.22 1163.76,1164.21 1227.00,1215.61
             1255.01,1238.38 1281.70,1256.06 1314.00,1272.25
             1320.64,1275.58 1346.00,1287.66 1352.00,1288.43
             1358.40,1289.24 1357.67,1284.10 1365.00,1285.00
             1359.59,1302.00 1338.24,1310.50 1322.00,1313.00
             1331.23,1325.59 1349.74,1326.11 1364.00,1327.09
             1364.00,1327.09 1376.00,1328.00 1376.00,1328.00
             1382.03,1328.01 1384.33,1327.37 1390.00,1330.00
             1390.00,1330.00 1373.00,1346.00 1373.00,1346.00
             1373.00,1346.00 1400.00,1352.85 1400.00,1352.85
             1400.00,1352.85 1428.00,1352.85 1428.00,1352.85
             1430.72,1352.96 1433.35,1353.03 1435.61,1351.26
             1437.83,1349.53 1440.31,1343.37 1443.42,1345.17
             1447.05,1347.27 1442.33,1358.27 1441.00,1361.00
             1452.31,1356.57 1464.96,1336.41 1478.00,1332.00
             1476.99,1341.56 1471.16,1347.01 1464.00,1352.66
             1464.00,1352.66 1454.00,1360.45 1454.00,1360.45
             1448.08,1364.29 1433.01,1369.92 1426.00,1371.00
             1426.00,1371.00 1432.00,1360.00 1432.00,1360.00
             1426.26,1358.66 1418.10,1358.44 1416.00,1365.00
             1401.62,1365.00 1389.06,1363.28 1376.00,1356.73
             1371.29,1354.37 1362.50,1349.49 1364.62,1343.00
             1365.47,1340.37 1368.11,1337.95 1370.00,1336.00
             1354.02,1336.00 1336.33,1335.23 1323.04,1325.07
             1319.23,1322.17 1311.47,1311.36 1315.06,1306.63
             1316.05,1305.33 1321.78,1304.93 1324.00,1304.20
             1331.20,1301.81 1341.07,1298.51 1347.00,1294.00
             1347.00,1294.00 1328.00,1290.53 1328.00,1290.53
             1298.37,1283.11 1269.26,1267.53 1244.00,1250.67
             1235.43,1244.94 1212.97,1228.33 1206.10,1221.71
             1201.59,1217.36 1202.01,1215.32 1199.19,1211.00
             1197.19,1207.94 1193.63,1204.63 1191.00,1202.00
             1191.00,1202.00 1173.17,1184.00 1173.17,1184.00
             1148.26,1156.46 1126.37,1125.92 1107.45,1094.00
             1069.97,1030.77 1045.51,956.85 1026.88,886.00
             1026.88,886.00 1013.61,828.00 1013.61,828.00
             1013.61,828.00 1000.53,762.00 1000.53,762.00
             994.40,737.49 990.12,724.72 978.75,702.00
             978.75,702.00 961.00,669.00 961.00,669.00 Z
           M 659.00,1793.00
           C 659.00,1793.00 697.00,1793.00 697.00,1793.00
             697.00,1793.00 697.00,1849.00 697.00,1849.00
             697.00,1849.00 753.00,1849.00 753.00,1849.00
             753.00,1849.00 753.00,1887.00 753.00,1887.00
             753.00,1887.00 697.00,1887.00 697.00,1887.00
             697.00,1887.00 697.00,1943.00 697.00,1943.00
             697.00,1943.00 659.00,1943.00 659.00,1943.00
             659.00,1943.00 659.00,1887.00 659.00,1887.00
             659.00,1887.00 603.00,1887.00 603.00,1887.00
             603.00,1887.00 603.00,1849.00 603.00,1849.00
             603.00,1849.00 659.00,1849.00 659.00,1849.00
             659.00,1849.00 659.00,1793.00 659.00,1793.00 Z
           M 2895.00,2298.00
           C 2898.33,2296.52 2899.49,2296.05 2903.00,2295.00
             2903.00,2295.00 2909.00,2293.47 2909.00,2293.47
             2916.56,2292.24 2917.50,2297.05 2915.38,2299.26
             2913.09,2301.66 2900.28,2302.84 2897.31,2301.40
             2895.53,2300.54 2895.56,2299.61 2895.00,2298.00 Z
           M 2762.00,2930.00
           C 2762.00,2930.00 2800.00,2930.00 2800.00,2930.00
             2800.00,2930.00 2800.00,2986.00 2800.00,2986.00
             2800.00,2986.00 2856.00,2986.00 2856.00,2986.00
             2856.00,2986.00 2856.00,3024.00 2856.00,3024.00
             2856.00,3024.00 2800.00,3024.00 2800.00,3024.00
             2800.00,3024.00 2800.00,3080.00 2800.00,3080.00
             2800.00,3080.00 2762.00,3080.00 2762.00,3080.00
             2762.00,3080.00 2762.00,3024.00 2762.00,3024.00
             2762.00,3024.00 2706.00,3024.00 2706.00,3024.00
             2706.00,3024.00 2706.00,2986.00 2706.00,2986.00
             2706.00,2986.00 2762.00,2986.00 2762.00,2986.00
             2762.00,2986.00 2762.00,2930.00 2762.00,2930.00 Z" />
</svg>
