<?xml version="1.0" encoding="UTF-8" standalone="no"?>
<!DOCTYPE svg PUBLIC "-//W3C//DTD SVG 20010904//EN"
              "http://www.w3.org/TR/2001/REC-SVG-20010904/DTD/svg10.dtd">

<svg xmlns="http://www.w3.org/2000/svg"
     width="11in" height="14in"
     viewBox="0 0 3300 4200">
  <path id="0 - black one"
        fill="none" stroke="black" stroke-width="1"
        d="M 1481.00,1027.00
           C 1481.00,1027.00 1471.67,1003.00 1471.67,1003.00
             1471.67,1003.00 1450.69,959.00 1450.69,959.00
             1436.52,932.79 1419.85,908.13 1402.41,884.00
             1402.41,884.00 1352.37,820.00 1352.37,820.00
             1352.37,820.00 1329.50,790.00 1329.50,790.00
             1299.16,750.26 1274.31,713.97 1253.86,668.00
             1244.95,647.96 1238.75,627.18 1233.41,606.00
             1233.41,606.00 1229.37,590.00 1229.37,590.00
             1229.37,590.00 1228.48,583.00 1228.48,583.00
             1228.48,583.00 1226.32,575.00 1226.32,575.00
             1226.32,575.00 1225.79,568.00 1225.79,568.00
             1225.79,568.00 1224.21,561.00 1224.21,561.00
             1224.21,561.00 1221.00,524.00 1221.00,524.00
             1221.00,524.00 1221.00,486.00 1221.00,486.00
             1221.00,486.00 1224.18,450.00 1224.18,450.00
             1224.18,450.00 1226.06,442.00 1226.06,442.00
             1226.06,442.00 1226.06,433.00 1226.06,433.00
             1226.06,433.00 1228.68,423.00 1228.68,423.00
             1228.68,423.00 1229.32,416.00 1229.32,416.00
             1229.32,416.00 1233.63,395.00 1233.63,395.00
             1233.63,395.00 1234.38,389.00 1234.38,389.00
             1234.38,389.00 1236.48,382.00 1236.48,382.00
             1236.48,382.00 1239.78,367.00 1239.78,367.00
             1249.43,333.03 1263.49,299.23 1289.00,274.00
             1300.65,262.48 1320.92,247.68 1337.00,243.61
             1337.00,243.61 1355.00,242.00 1355.00,242.00
             1370.58,241.93 1379.15,243.99 1389.00,257.00
             1391.33,253.58 1395.79,251.21 1398.84,255.43
             1400.26,257.39 1401.73,266.34 1402.05,269.00
             1402.05,269.00 1402.05,277.00 1402.05,277.00
             1402.05,277.00 1404.19,286.00 1404.19,286.00
             1404.19,286.00 1405.83,299.00 1405.83,299.00
             1405.83,299.00 1407.00,340.00 1407.00,340.00
             1407.08,346.75 1407.91,346.48 1408.70,352.00
             1408.70,352.00 1410.01,363.00 1410.01,363.00
             1410.01,363.00 1410.01,372.00 1410.01,372.00
             1410.01,372.00 1411.68,379.00 1411.68,379.00
             1411.68,379.00 1412.46,388.00 1412.46,388.00
             1412.46,388.00 1414.49,396.00 1414.49,396.00
             1414.49,396.00 1415.37,403.00 1415.37,403.00
             1415.37,403.00 1420.63,425.00 1420.63,425.00
             1429.79,457.21 1444.97,491.02 1464.92,518.00
             1472.17,527.80 1480.62,536.15 1488.91,545.00
             1497.77,554.44 1506.79,564.46 1517.00,572.48
             1524.38,578.29 1547.80,591.09 1557.00,595.94
             1557.00,595.94 1588.00,612.74 1588.00,612.74
             1588.00,612.74 1631.00,635.00 1631.00,635.00
             1631.00,635.00 1620.58,609.00 1620.58,609.00
             1608.81,579.18 1594.81,540.67 1606.47,509.00
             1613.16,490.84 1618.63,481.82 1638.00,476.66
             1641.42,475.74 1644.34,473.86 1648.00,474.43
             1648.00,474.43 1663.00,480.40 1663.00,480.40
             1663.00,480.40 1706.00,501.70 1706.00,501.70
             1724.54,511.88 1747.15,523.18 1764.00,535.42
             1788.39,553.14 1811.77,579.79 1826.67,606.00
             1847.28,642.28 1861.15,683.24 1869.37,724.00
             1869.37,724.00 1873.79,745.00 1873.79,745.00
             1873.79,745.00 1874.44,753.00 1874.44,753.00
             1876.39,765.48 1876.84,760.76 1877.00,775.00
             1877.00,775.00 1879.00,796.00 1879.00,796.00
             1879.00,796.00 1880.00,814.00 1880.00,814.00
             1880.00,814.00 1880.00,843.00 1880.00,843.00
             1880.00,843.00 1878.70,863.00 1878.70,863.00
             1878.70,863.00 1877.30,870.00 1877.30,870.00
             1877.30,870.00 1876.70,881.00 1876.70,881.00
             1876.70,881.00 1874.46,891.00 1874.46,891.00
             1874.46,891.00 1873.68,900.00 1873.68,900.00
             1873.68,900.00 1869.32,923.00 1869.32,923.00
             1869.32,923.00 1868.79,930.00 1868.79,930.00
             1868.79,930.00 1867.21,937.00 1867.21,937.00
             1867.21,937.00 1865.86,949.00 1865.86,949.00
             1865.86,949.00 1864.18,957.00 1864.18,957.00
             1864.18,957.00 1863.08,968.00 1863.08,968.00
             1863.08,968.00 1860.41,981.00 1860.41,981.00
             1860.41,981.00 1855.31,998.00 1855.31,998.00
             1855.31,998.00 1856.00,1018.00 1856.00,1018.00
             1861.67,1019.06 1870.31,1023.45 1876.00,1025.85
             1886.23,1030.15 1896.31,1033.88 1906.00,1039.43
             1914.52,1044.31 1914.58,1045.80 1921.00,1050.37
             1921.00,1050.37 1939.00,1060.70 1939.00,1060.70
             1980.70,1083.64 2022.30,1106.50 2063.00,1131.20
             2063.00,1131.20 2121.00,1166.40 2121.00,1166.40
             2121.00,1166.40 2151.00,1184.00 2151.00,1184.00
             2151.00,1184.00 2160.81,1169.00 2160.81,1169.00
             2174.91,1148.49 2187.32,1132.68 2205.00,1115.00
             2205.00,1115.00 2221.00,1099.17 2221.00,1099.17
             2255.69,1067.84 2305.23,1039.28 2351.00,1028.59
             2351.00,1028.59 2358.00,1027.63 2358.00,1027.63
             2358.00,1027.63 2366.00,1025.47 2366.00,1025.47
             2366.00,1025.47 2386.00,1023.00 2386.00,1023.00
             2386.00,1023.00 2414.00,1023.00 2414.00,1023.00
             2414.00,1023.00 2434.00,1025.47 2434.00,1025.47
             2434.00,1025.47 2441.00,1027.40 2441.00,1027.40
             2441.00,1027.40 2448.00,1028.60 2448.00,1028.60
             2464.30,1032.57 2484.61,1041.23 2499.00,1049.80
             2507.67,1054.96 2515.93,1059.50 2522.91,1067.00
             2529.72,1074.34 2532.59,1082.97 2535.63,1086.91
             2538.99,1091.26 2543.77,1092.34 2542.76,1099.00
             2541.56,1106.89 2532.34,1107.42 2528.57,1119.00
             2525.30,1129.04 2522.33,1139.63 2520.37,1150.00
             2520.37,1150.00 2519.70,1159.00 2519.70,1159.00
             2519.70,1159.00 2517.04,1176.00 2517.04,1176.00
             2517.04,1176.00 2517.04,1186.00 2517.04,1186.00
             2517.04,1186.00 2515.00,1206.00 2515.00,1206.00
             2515.00,1206.00 2515.00,1244.00 2515.00,1244.00
             2515.00,1244.00 2517.00,1269.00 2517.00,1269.00
             2517.00,1269.00 2518.17,1294.00 2518.17,1294.00
             2519.27,1305.33 2519.83,1300.63 2520.00,1315.00
             2520.00,1315.00 2522.94,1335.00 2522.94,1335.00
             2522.94,1335.00 2522.94,1344.00 2522.94,1344.00
             2522.94,1344.00 2525.06,1353.00 2525.06,1353.00
             2525.06,1353.00 2525.06,1362.00 2525.06,1362.00
             2525.06,1362.00 2527.70,1373.00 2527.70,1373.00
             2527.70,1373.00 2528.32,1382.00 2528.32,1382.00
             2528.32,1382.00 2532.68,1406.00 2532.68,1406.00
             2532.68,1406.00 2533.32,1415.00 2533.32,1415.00
             2533.32,1415.00 2535.70,1425.00 2535.70,1425.00
             2535.70,1425.00 2536.21,1432.00 2536.21,1432.00
             2536.21,1432.00 2537.63,1438.00 2537.63,1438.00
             2537.63,1438.00 2538.75,1447.00 2538.75,1447.00
             2538.75,1447.00 2540.68,1456.00 2540.68,1456.00
             2540.68,1456.00 2541.32,1464.00 2541.32,1464.00
             2541.32,1464.00 2545.63,1487.00 2545.63,1487.00
             2545.63,1487.00 2546.30,1495.00 2546.30,1495.00
             2546.30,1495.00 2548.68,1505.00 2548.68,1505.00
             2548.68,1505.00 2549.32,1513.00 2549.32,1513.00
             2549.32,1513.00 2553.68,1536.00 2553.68,1536.00
             2553.68,1536.00 2554.32,1544.00 2554.32,1544.00
             2554.32,1544.00 2556.70,1554.00 2556.70,1554.00
             2556.70,1554.00 2557.21,1561.00 2557.21,1561.00
             2557.21,1561.00 2558.63,1567.00 2558.63,1567.00
             2558.63,1567.00 2561.49,1584.00 2561.49,1584.00
             2561.49,1584.00 2562.60,1591.85 2562.60,1591.85
             2563.68,1594.34 2565.54,1594.73 2568.00,1595.06
             2568.00,1595.06 2575.00,1595.06 2575.00,1595.06
             2575.00,1595.06 2586.00,1597.13 2586.00,1597.13
             2599.97,1599.09 2630.87,1603.86 2643.00,1609.00
             2649.91,1611.94 2658.01,1615.63 2658.89,1624.00
             2660.29,1637.23 2653.43,1642.29 2642.00,1646.05
             2642.00,1646.05 2635.00,1647.59 2635.00,1647.59
             2635.00,1647.59 2613.00,1652.52 2613.00,1652.52
             2613.00,1652.52 2605.00,1654.68 2605.00,1654.68
             2605.00,1654.68 2598.00,1655.32 2598.00,1655.32
             2598.00,1655.32 2570.00,1660.00 2570.00,1660.00
             2570.00,1660.00 2572.00,1688.00 2572.00,1688.00
             2572.00,1688.00 2572.00,1720.00 2572.00,1720.00
             2572.00,1720.00 2569.96,1738.00 2569.96,1738.00
             2569.96,1738.00 2569.96,1748.00 2569.96,1748.00
             2569.96,1748.00 2567.30,1760.00 2567.30,1760.00
             2567.30,1760.00 2564.08,1779.00 2564.08,1779.00
             2563.60,1780.84 2562.31,1785.06 2561.08,1786.41
             2559.55,1788.08 2557.33,1788.03 2555.01,1789.31
             2551.58,1791.21 2550.14,1793.48 2548.70,1797.00
             2548.70,1797.00 2529.83,1844.00 2529.83,1844.00
             2518.62,1866.38 2500.44,1894.40 2483.83,1913.00
             2483.83,1913.00 2462.00,1935.04 2462.00,1935.04
             2462.00,1935.04 2448.00,1948.70 2448.00,1948.70
             2420.68,1972.12 2389.14,1990.82 2357.00,2006.75
             2348.64,2010.90 2339.83,2014.43 2331.00,2017.42
             2327.06,2018.76 2321.33,2019.73 2319.60,2024.06
             2317.36,2029.65 2320.39,2036.07 2322.70,2041.00
             2322.70,2041.00 2332.16,2064.00 2332.16,2064.00
             2332.16,2064.00 2341.63,2099.00 2341.63,2099.00
             2341.63,2099.00 2342.51,2106.00 2342.51,2106.00
             2342.51,2106.00 2344.94,2115.00 2344.94,2115.00
             2344.94,2115.00 2344.94,2125.00 2344.94,2125.00
             2344.94,2125.00 2346.82,2133.00 2346.82,2133.00
             2346.82,2133.00 2348.00,2153.00 2348.00,2153.00
             2348.00,2153.00 2348.00,2172.00 2348.00,2172.00
             2347.97,2193.29 2340.33,2228.76 2333.14,2249.00
             2305.79,2325.89 2247.50,2380.17 2182.00,2425.56
             2136.48,2457.11 2088.79,2485.46 2038.00,2507.72
             2038.00,2507.72 2009.00,2519.68 2009.00,2519.68
             2009.00,2519.68 1992.00,2528.04 1992.00,2528.04
             1992.00,2528.04 1981.00,2530.29 1981.00,2530.29
             1981.00,2530.29 1936.00,2546.78 1936.00,2546.78
             1936.00,2546.78 1915.00,2554.17 1915.00,2554.17
             1915.00,2554.17 1905.00,2559.22 1905.00,2559.22
             1900.76,2561.03 1892.31,2562.92 1889.13,2565.51
             1886.14,2567.94 1885.94,2570.18 1884.01,2572.87
             1881.87,2575.87 1879.66,2576.41 1877.98,2579.13
             1876.88,2580.90 1872.56,2596.55 1872.21,2599.00
             1872.21,2599.00 1871.63,2605.00 1871.63,2605.00
             1871.63,2605.00 1869.47,2613.00 1869.47,2613.00
             1869.47,2613.00 1867.00,2629.00 1867.00,2629.00
             1867.00,2629.00 1867.00,2638.00 1867.00,2638.00
             1867.00,2638.00 1865.02,2654.00 1865.02,2654.00
             1865.02,2654.00 1865.02,2675.00 1865.02,2675.00
             1865.01,2679.75 1867.12,2692.26 1865.02,2695.61
             1863.72,2697.59 1860.05,2699.25 1858.00,2700.53
             1858.00,2700.53 1844.00,2709.42 1844.00,2709.42
             1833.43,2716.06 1812.88,2730.83 1804.00,2739.09
             1780.36,2761.08 1766.71,2774.20 1751.08,2803.00
             1751.08,2803.00 1734.05,2841.00 1734.05,2841.00
             1734.05,2841.00 1727.00,2858.00 1727.00,2858.00
             1721.60,2854.57 1720.63,2853.15 1716.00,2849.51
             1716.00,2849.51 1690.00,2830.79 1690.00,2830.79
             1676.44,2822.17 1656.40,2813.48 1641.00,2808.67
             1633.57,2806.35 1611.11,2800.66 1604.00,2800.00
             1604.00,2800.00 1596.00,2800.00 1596.00,2800.00
             1596.00,2800.00 1587.00,2799.01 1587.00,2799.01
             1584.52,2798.95 1580.63,2799.35 1578.52,2798.01
             1576.40,2796.66 1572.12,2789.47 1570.50,2787.00
             1565.19,2778.87 1559.92,2770.45 1553.68,2763.00
             1535.32,2741.09 1517.17,2726.30 1492.00,2713.00
             1492.92,2706.00 1493.99,2701.23 1494.00,2694.00
             1494.00,2694.00 1494.00,2643.00 1494.00,2643.00
             1493.99,2634.65 1492.58,2630.75 1491.32,2623.00
             1491.32,2623.00 1490.82,2615.00 1490.82,2615.00
             1490.82,2615.00 1488.61,2605.00 1488.61,2605.00
             1487.52,2599.36 1482.11,2576.17 1480.04,2572.09
             1479.29,2570.63 1476.57,2567.28 1475.41,2566.02
             1470.88,2561.10 1459.50,2557.77 1453.00,2555.32
             1453.00,2555.32 1443.00,2551.06 1443.00,2551.06
             1443.00,2551.06 1409.00,2538.78 1409.00,2538.78
             1409.00,2538.78 1379.00,2527.36 1379.00,2527.36
             1379.00,2527.36 1366.00,2523.65 1366.00,2523.65
             1366.00,2523.65 1347.00,2515.06 1347.00,2515.06
             1321.45,2504.38 1296.31,2493.03 1272.00,2479.69
             1243.54,2464.06 1215.68,2446.92 1189.00,2428.41
             1158.02,2406.93 1123.76,2380.56 1098.09,2353.00
             1098.09,2353.00 1086.54,2339.00 1086.54,2339.00
             1057.97,2304.15 1037.87,2268.92 1026.61,2225.00
             1026.61,2225.00 1022.68,2204.00 1022.68,2204.00
             1022.68,2204.00 1021.01,2197.00 1021.01,2197.00
             1021.01,2197.00 1021.01,2186.00 1021.01,2186.00
             1021.01,2186.00 1019.04,2175.00 1019.04,2175.00
             1019.04,2175.00 1019.04,2155.00 1019.04,2155.00
             1019.04,2155.00 1021.00,2134.00 1021.00,2134.00
             1021.27,2110.45 1029.58,2079.32 1037.50,2057.00
             1037.50,2057.00 1045.42,2039.00 1045.42,2039.00
             1047.56,2034.77 1050.27,2029.90 1048.40,2025.02
             1046.21,2019.27 1031.84,2015.97 1026.00,2013.77
             1026.00,2013.77 1002.00,2002.67 1002.00,2002.67
             1002.00,2002.67 988.00,1996.89 988.00,1996.89
             988.00,1996.89 970.00,1984.93 970.00,1984.93
             954.71,1974.93 939.08,1965.39 925.00,1953.68
             891.03,1925.42 863.21,1891.85 842.16,1853.00
             836.48,1842.51 831.57,1832.08 827.13,1821.00
             824.17,1813.62 822.07,1805.86 817.94,1799.00
             813.40,1791.47 811.45,1784.33 802.00,1784.00
             804.16,1776.47 801.81,1776.75 801.10,1770.00
             801.10,1770.00 798.44,1755.00 798.44,1755.00
             798.44,1755.00 797.70,1746.00 797.70,1746.00
             796.69,1738.91 796.01,1740.61 796.00,1732.00
             796.00,1732.00 796.00,1660.00 796.00,1660.00
             784.48,1660.00 773.31,1657.17 762.00,1655.32
             762.00,1655.32 755.00,1654.68 755.00,1654.68
             755.00,1654.68 747.00,1652.52 747.00,1652.52
             747.00,1652.52 725.00,1647.59 725.00,1647.59
             725.00,1647.59 717.00,1645.77 717.00,1645.77
             706.77,1642.36 701.01,1638.84 701.01,1627.00
             701.01,1624.15 701.12,1621.61 702.45,1619.02
             706.32,1611.50 722.07,1606.77 730.00,1605.08
             730.00,1605.08 784.00,1595.06 784.00,1595.06
             784.00,1595.06 795.00,1595.06 795.00,1595.06
             795.00,1595.06 805.00,1593.00 805.00,1593.00
             805.00,1593.00 806.46,1578.00 806.46,1578.00
             806.46,1578.00 808.68,1569.00 808.68,1569.00
             808.68,1569.00 809.32,1561.00 809.32,1561.00
             809.32,1561.00 812.17,1544.00 812.17,1544.00
             812.17,1544.00 813.79,1537.00 813.79,1537.00
             813.79,1537.00 814.30,1530.00 814.30,1530.00
             814.30,1530.00 816.68,1520.00 816.68,1520.00
             816.68,1520.00 817.32,1512.00 817.32,1512.00
             817.32,1512.00 821.68,1489.00 821.68,1489.00
             821.68,1489.00 822.32,1481.00 822.32,1481.00
             822.32,1481.00 826.63,1458.00 826.63,1458.00
             826.63,1458.00 827.46,1449.00 827.46,1449.00
             827.46,1449.00 829.68,1440.00 829.68,1440.00
             829.68,1440.00 830.32,1432.00 830.32,1432.00
             830.32,1432.00 834.68,1408.00 834.68,1408.00
             834.68,1408.00 835.32,1400.00 835.32,1400.00
             835.32,1400.00 837.70,1390.00 837.70,1390.00
             837.70,1390.00 838.21,1382.00 838.21,1382.00
             838.21,1382.00 839.79,1375.00 839.79,1375.00
             839.79,1375.00 841.31,1361.00 841.31,1361.00
             841.31,1361.00 843.06,1354.00 843.06,1354.00
             843.06,1354.00 843.06,1343.00 843.06,1343.00
             843.06,1343.00 844.83,1335.00 844.83,1335.00
             844.83,1335.00 846.17,1318.00 846.17,1318.00
             847.04,1309.33 847.98,1311.13 848.00,1300.00
             848.00,1300.00 851.00,1270.00 851.00,1270.00
             851.00,1270.00 851.00,1187.00 851.00,1187.00
             850.98,1177.16 849.37,1175.83 848.05,1167.00
             848.05,1167.00 848.05,1158.00 848.05,1158.00
             848.05,1158.00 844.96,1142.00 844.96,1142.00
             843.50,1135.76 838.91,1117.49 835.57,1113.00
             831.31,1107.27 820.37,1101.89 823.74,1094.22
             825.21,1090.87 828.44,1091.29 832.04,1085.98
             837.41,1078.05 838.05,1072.95 846.04,1065.04
             853.41,1057.75 869.44,1048.47 879.00,1043.90
             891.90,1037.73 905.05,1031.99 919.00,1028.60
             919.00,1028.60 926.00,1027.48 926.00,1027.48
             926.00,1027.48 934.00,1025.32 934.00,1025.32
             934.00,1025.32 941.00,1024.70 941.00,1024.70
             948.11,1023.68 946.41,1023.01 955.00,1023.00
             955.00,1023.00 981.00,1023.00 981.00,1023.00
             987.77,1023.08 987.49,1023.91 993.00,1024.70
             993.00,1024.70 1002.00,1025.47 1002.00,1025.47
             1002.00,1025.47 1009.00,1027.40 1009.00,1027.40
             1009.00,1027.40 1016.00,1028.59 1016.00,1028.59
             1016.00,1028.59 1039.00,1035.41 1039.00,1035.41
             1071.15,1045.91 1111.38,1069.34 1137.00,1091.30
             1149.45,1101.97 1161.18,1113.85 1172.17,1126.00
             1172.17,1126.00 1180.83,1135.00 1180.83,1135.00
             1187.96,1142.99 1209.53,1171.83 1214.00,1181.00
             1214.00,1181.00 1254.00,1157.20 1254.00,1157.20
             1254.00,1157.20 1315.00,1120.20 1315.00,1120.20
             1315.00,1120.20 1410.00,1066.69 1410.00,1066.69
             1410.00,1066.69 1437.00,1051.53 1437.00,1051.53
             1437.00,1051.53 1448.01,1043.06 1448.01,1043.06
             1456.76,1037.49 1471.18,1030.41 1481.00,1027.00 Z
           M 813.00,2989.00
           C 813.00,2989.00 926.00,2989.00 926.00,2989.00
             926.00,2989.00 926.00,3156.00 926.00,3156.00
             926.00,3156.00 1095.00,3156.00 1095.00,3156.00
             1095.00,3156.00 1095.00,3270.00 1095.00,3270.00
             1095.00,3270.00 926.00,3270.00 926.00,3270.00
             926.00,3270.00 926.00,3437.00 926.00,3437.00
             926.00,3437.00 813.00,3437.00 813.00,3437.00
             813.00,3437.00 813.00,3270.00 813.00,3270.00
             813.00,3270.00 644.00,3270.00 644.00,3270.00
             644.00,3270.00 644.00,3156.00 644.00,3156.00
             644.00,3156.00 813.00,3156.00 813.00,3156.00
             813.00,3156.00 813.00,2989.00 813.00,2989.00 Z
           M 2566.00,3027.00
           C 2566.00,3027.00 2679.00,3027.00 2679.00,3027.00
             2679.00,3027.00 2679.00,3194.00 2679.00,3194.00
             2679.00,3194.00 2848.00,3194.00 2848.00,3194.00
             2848.00,3194.00 2848.00,3308.00 2848.00,3308.00
             2848.00,3308.00 2679.00,3308.00 2679.00,3308.00
             2679.00,3308.00 2679.00,3475.00 2679.00,3475.00
             2679.00,3475.00 2566.00,3475.00 2566.00,3475.00
             2566.00,3475.00 2566.00,3308.00 2566.00,3308.00
             2566.00,3308.00 2397.00,3308.00 2397.00,3308.00
             2397.00,3308.00 2397.00,3194.00 2397.00,3194.00
             2397.00,3194.00 2566.00,3194.00 2566.00,3194.00
             2566.00,3194.00 2566.00,3027.00 2566.00,3027.00 Z" />
</svg>
