<?xml version="1.0" encoding="UTF-8" standalone="no"?>
<!DOCTYPE svg PUBLIC "-//W3C//DTD SVG 20010904//EN"
              "http://www.w3.org/TR/2001/REC-SVG-20010904/DTD/svg10.dtd">

<svg xmlns="http://www.w3.org/2000/svg"
     width="11in" height="14in"
     viewBox="0 0 3300 4200">
  <path id="1 - black two"
        fill="none" stroke="black" stroke-width="1"
        d="M 803.00,1784.00
           C 804.99,1784.07 807.00,1783.97 808.79,1785.02
             811.34,1786.51 816.83,1796.03 818.54,1799.00
             818.54,1799.00 829.50,1826.00 829.50,1826.00
             833.18,1835.35 837.96,1844.17 842.71,1853.00
             863.53,1891.74 892.24,1925.60 926.00,1953.68
             926.00,1953.68 980.00,1990.98 980.00,1990.98
             994.78,2001.12 989.79,1996.49 1004.00,2003.13
             1004.00,2003.13 1031.00,2015.18 1031.00,2015.18
             1037.46,2017.47 1048.30,2019.03 1048.94,2027.00
             1049.50,2033.97 1046.72,2037.08 1043.95,2043.00
             1043.95,2043.00 1034.93,2065.00 1034.93,2065.00
             1028.18,2084.16 1021.23,2114.85 1021.00,2135.00
             1021.00,2135.00 1019.08,2156.00 1019.08,2156.00
             1019.08,2156.00 1019.08,2175.00 1019.08,2175.00
             1019.08,2175.00 1021.01,2185.00 1021.01,2185.00
             1021.01,2185.00 1021.01,2196.00 1021.01,2196.00
             1021.01,2196.00 1022.68,2203.00 1022.68,2203.00
             1022.68,2203.00 1026.61,2224.00 1026.61,2224.00
             1037.87,2267.92 1057.97,2303.15 1086.54,2338.00
             1086.54,2338.00 1098.09,2352.00 1098.09,2352.00
             1124.38,2380.23 1158.31,2406.44 1190.00,2428.41
             1216.68,2446.92 1244.54,2464.06 1273.00,2479.69
             1297.31,2493.03 1322.45,2504.38 1348.00,2515.06
             1348.00,2515.06 1367.00,2523.65 1367.00,2523.65
             1367.00,2523.65 1380.00,2527.36 1380.00,2527.36
             1380.00,2527.36 1410.00,2538.78 1410.00,2538.78
             1410.00,2538.78 1444.00,2551.06 1444.00,2551.06
             1444.00,2551.06 1454.00,2555.32 1454.00,2555.32
             1459.66,2557.46 1471.52,2561.11 1475.41,2565.17
             1476.41,2566.22 1479.39,2569.93 1480.04,2571.17
             1482.11,2575.13 1487.54,2598.43 1488.61,2604.00
             1488.61,2604.00 1490.82,2614.00 1490.82,2614.00
             1490.82,2614.00 1491.32,2622.00 1491.32,2622.00
             1492.58,2629.75 1493.99,2633.65 1494.00,2642.00
             1494.00,2642.00 1494.00,2672.00 1494.00,2672.00
             1494.00,2687.22 1494.74,2697.77 1492.00,2713.00
             1512.51,2720.52 1532.50,2739.31 1547.09,2755.00
             1550.35,2758.51 1552.17,2759.99 1555.25,2764.00
             1555.25,2764.00 1571.17,2787.00 1571.17,2787.00
             1572.96,2789.72 1576.83,2796.48 1579.32,2797.98
             1581.58,2799.33 1585.39,2798.95 1588.00,2799.01
             1588.00,2799.01 1603.00,2800.01 1603.00,2800.01
             1603.00,2800.01 1632.00,2805.60 1632.00,2805.60
             1668.89,2815.32 1698.38,2833.16 1727.00,2858.00
             1737.58,2829.47 1750.41,2798.27 1768.90,2774.00
             1778.45,2761.46 1792.23,2748.76 1804.00,2738.17
             1813.56,2729.56 1832.88,2715.72 1844.00,2708.81
             1844.00,2708.81 1858.00,2699.92 1858.00,2699.92
             1860.33,2698.52 1863.57,2697.18 1864.99,2694.79
             1866.95,2691.44 1865.01,2680.62 1864.99,2676.00
             1864.99,2676.00 1864.99,2657.00 1864.99,2657.00
             1864.99,2657.00 1867.05,2637.00 1867.05,2637.00
             1867.05,2637.00 1867.05,2627.00 1867.05,2627.00
             1867.05,2627.00 1869.68,2611.00 1869.68,2611.00
             1869.68,2611.00 1871.79,2603.00 1871.79,2603.00
             1872.69,2596.83 1874.65,2583.31 1877.98,2578.26
             1877.98,2578.26 1883.36,2572.87 1883.36,2572.87
             1885.61,2570.00 1885.85,2567.17 1889.13,2564.84
             1891.77,2562.97 1900.34,2560.78 1904.00,2559.22
             1904.00,2559.22 1914.00,2554.17 1914.00,2554.17
             1914.00,2554.17 1937.00,2546.05 1937.00,2546.05
             1937.00,2546.05 1980.00,2530.29 1980.00,2530.29
             1980.00,2530.29 1991.00,2528.04 1991.00,2528.04
             1991.00,2528.04 2008.00,2519.68 2008.00,2519.68
             2008.00,2519.68 2037.00,2507.72 2037.00,2507.72
             2083.52,2487.33 2122.65,2464.26 2165.00,2436.50
             2242.95,2385.42 2314.23,2321.04 2339.31,2228.00
             2339.31,2228.00 2342.52,2212.00 2342.52,2212.00
             2342.52,2212.00 2344.68,2204.00 2344.68,2204.00
             2344.68,2204.00 2345.18,2197.00 2345.18,2197.00
             2345.18,2197.00 2346.82,2189.00 2346.82,2189.00
             2346.82,2189.00 2348.00,2154.00 2348.00,2154.00
             2348.00,2154.00 2346.82,2134.00 2346.82,2134.00
             2346.82,2134.00 2344.94,2126.00 2344.94,2126.00
             2344.94,2126.00 2344.94,2116.00 2344.94,2116.00
             2344.94,2116.00 2342.51,2107.00 2342.51,2107.00
             2342.51,2107.00 2341.63,2100.00 2341.63,2100.00
             2341.63,2100.00 2333.14,2068.00 2333.14,2068.00
             2330.85,2060.50 2327.81,2053.12 2324.54,2046.00
             2321.94,2040.33 2319.19,2036.37 2319.02,2030.00
             2318.71,2018.75 2322.34,2019.98 2338.00,2014.64
             2349.35,2010.76 2372.50,1998.29 2384.00,1992.22
             2384.00,1992.22 2414.00,1973.34 2414.00,1973.34
             2460.34,1941.55 2493.24,1906.41 2521.70,1858.00
             2531.38,1841.52 2538.73,1824.03 2545.00,1806.00
             2548.31,1796.49 2549.15,1788.38 2561.00,1788.00
             2559.13,1796.69 2561.05,1794.88 2567.49,1803.00
             2567.49,1803.00 2577.00,1816.00 2577.00,1816.00
             2594.33,1840.27 2606.76,1858.62 2619.33,1886.00
             2645.73,1943.52 2669.31,2009.76 2680.62,2072.00
             2680.62,2072.00 2682.68,2081.00 2682.68,2081.00
             2682.68,2081.00 2683.32,2088.00 2683.32,2088.00
             2683.32,2088.00 2685.25,2097.00 2685.25,2097.00
             2685.25,2097.00 2686.17,2107.00 2686.17,2107.00
             2686.17,2107.00 2687.85,2115.00 2687.85,2115.00
             2687.85,2115.00 2687.85,2127.00 2687.85,2127.00
             2687.85,2127.00 2690.00,2152.00 2690.00,2152.00
             2690.00,2152.00 2690.00,2176.00 2690.00,2176.00
             2690.00,2176.00 2688.00,2202.00 2688.00,2202.00
             2687.91,2209.21 2684.79,2222.67 2683.37,2230.00
             2683.37,2230.00 2682.48,2237.00 2682.48,2237.00
             2677.23,2261.60 2665.96,2288.25 2651.82,2309.00
             2641.95,2323.50 2631.18,2334.96 2617.00,2345.31
             2617.00,2345.31 2604.00,2353.77 2604.00,2353.77
             2601.34,2355.35 2597.86,2356.83 2596.91,2360.05
             2596.08,2362.87 2597.89,2367.13 2598.49,2370.00
             2598.49,2370.00 2599.25,2376.00 2599.25,2376.00
             2599.25,2376.00 2601.16,2383.00 2601.16,2383.00
             2601.16,2383.00 2603.41,2394.00 2603.41,2394.00
             2603.41,2394.00 2604.46,2401.00 2604.46,2401.00
             2604.46,2401.00 2606.68,2410.00 2606.68,2410.00
             2606.68,2410.00 2610.32,2434.00 2610.32,2434.00
             2610.32,2434.00 2611.99,2441.00 2611.99,2441.00
             2611.99,2441.00 2611.99,2450.00 2611.99,2450.00
             2611.99,2450.00 2615.00,2469.00 2615.00,2469.00
             2615.13,2480.71 2615.94,2478.07 2616.92,2487.00
             2616.92,2487.00 2616.92,2497.00 2616.92,2497.00
             2616.92,2497.00 2618.00,2512.00 2618.00,2512.00
             2618.00,2512.00 2618.00,2556.00 2618.00,2556.00
             2618.00,2556.00 2616.82,2579.00 2616.82,2579.00
             2616.82,2579.00 2615.18,2587.00 2615.18,2587.00
             2615.18,2587.00 2614.56,2597.00 2614.56,2597.00
             2614.56,2597.00 2612.21,2607.00 2612.21,2607.00
             2612.21,2607.00 2611.68,2614.00 2611.68,2614.00
             2611.68,2614.00 2607.59,2632.00 2607.59,2632.00
             2595.76,2680.25 2571.77,2730.65 2535.00,2764.91
             2517.83,2780.90 2499.56,2794.24 2478.00,2803.72
             2478.00,2803.72 2455.00,2812.72 2455.00,2812.72
             2451.49,2813.78 2443.86,2815.30 2441.39,2817.51
             2439.06,2819.59 2436.29,2825.98 2434.74,2829.00
             2434.74,2829.00 2421.84,2852.00 2421.84,2852.00
             2414.92,2863.13 2403.58,2878.32 2394.83,2888.00
             2394.83,2888.00 2380.02,2903.00 2380.02,2903.00
             2380.02,2903.00 2373.55,2910.49 2373.55,2910.49
             2373.55,2910.49 2365.00,2915.55 2365.00,2915.55
             2365.00,2915.55 2347.00,2928.86 2347.00,2928.86
             2329.73,2940.74 2295.95,2961.08 2277.00,2969.06
             2277.00,2969.06 2246.00,2979.92 2246.00,2979.92
             2242.10,2981.16 2236.10,2981.81 2234.31,2986.10
             2232.80,2989.70 2236.06,2997.06 2236.92,3001.00
             2236.92,3001.00 2241.68,3022.00 2241.68,3022.00
             2241.68,3022.00 2242.37,3029.00 2242.37,3029.00
             2242.37,3029.00 2244.71,3040.00 2244.71,3040.00
             2244.71,3040.00 2245.32,3047.00 2245.32,3047.00
             2245.32,3047.00 2247.06,3054.00 2247.06,3054.00
             2247.06,3054.00 2247.06,3064.00 2247.06,3064.00
             2247.06,3064.00 2249.94,3076.00 2249.94,3076.00
             2249.94,3076.00 2249.94,3087.00 2249.94,3087.00
             2249.94,3087.00 2251.83,3096.00 2251.83,3096.00
             2251.83,3096.00 2253.00,3122.00 2253.00,3122.00
             2253.00,3122.00 2254.00,3137.00 2254.00,3137.00
             2254.00,3137.00 2254.00,3153.00 2254.00,3153.00
             2254.00,3153.00 2253.00,3174.00 2253.00,3174.00
             2253.00,3174.00 2251.70,3191.00 2251.70,3191.00
             2251.70,3191.00 2249.99,3199.00 2249.99,3199.00
             2249.99,3199.00 2249.99,3207.00 2249.99,3207.00
             2249.99,3207.00 2247.67,3216.00 2247.67,3216.00
             2247.67,3216.00 2246.63,3223.00 2246.63,3223.00
             2244.96,3231.40 2239.44,3250.28 2236.01,3258.00
             2234.21,3262.05 2228.82,3272.65 2226.22,3275.82
             2222.65,3280.16 2218.78,3280.71 2216.80,3287.00
             2215.45,3291.30 2216.44,3295.98 2215.54,3301.00
             2215.54,3301.00 2213.32,3310.00 2213.32,3310.00
             2213.32,3310.00 2212.79,3317.00 2212.79,3317.00
             2212.79,3317.00 2207.40,3341.00 2207.40,3341.00
             2198.06,3376.28 2184.15,3411.83 2166.88,3444.00
             2166.88,3444.00 2158.70,3458.00 2158.70,3458.00
             2150.91,3471.63 2142.89,3485.40 2133.49,3498.00
             2114.67,3523.21 2101.53,3534.24 2078.00,3554.30
             2078.00,3554.30 2036.00,3589.50 2036.00,3589.50
             2036.00,3589.50 2020.00,3600.94 2020.00,3600.94
             2015.04,3604.01 2010.63,3605.50 2006.00,3609.33
             2006.00,3609.33 1991.00,3625.00 1991.00,3625.00
             1991.00,3625.00 1939.99,3679.00 1939.99,3679.00
             1939.99,3679.00 1925.09,3694.00 1925.09,3694.00
             1925.09,3694.00 1909.96,3711.00 1909.96,3711.00
             1909.96,3711.00 1896.09,3725.00 1896.09,3725.00
             1896.09,3725.00 1880.71,3743.00 1880.71,3743.00
             1880.71,3743.00 1870.29,3754.00 1870.29,3754.00
             1843.70,3784.56 1821.29,3818.49 1803.75,3855.00
             1793.11,3877.14 1788.02,3890.06 1782.32,3914.00
             1782.32,3914.00 1780.37,3921.00 1780.37,3921.00
             1780.37,3921.00 1779.70,3930.00 1779.70,3930.00
             1779.70,3930.00 1778.17,3938.00 1778.17,3938.00
             1778.17,3938.00 1777.00,3966.00 1777.00,3966.00
             1777.29,3990.23 1790.76,4024.17 1807.00,4042.00
             1811.61,4047.06 1815.98,4052.83 1822.00,4056.27
             1827.54,4059.44 1839.45,4061.10 1846.00,4062.32
             1860.09,4064.96 1856.65,4071.63 1866.00,4068.00
             1861.44,4077.17 1850.08,4078.10 1841.00,4078.00
             1841.00,4078.00 1831.00,4077.09 1831.00,4077.09
             1812.11,4075.80 1807.31,4075.09 1789.00,4069.73
             1772.27,4064.83 1756.81,4056.82 1741.00,4049.67
             1696.25,4029.45 1650.14,4000.74 1611.00,3971.10
             1611.00,3971.10 1589.00,3953.12 1589.00,3953.12
             1589.00,3953.12 1572.00,3938.17 1572.00,3938.17
             1572.00,3938.17 1550.04,3918.00 1550.04,3918.00
             1522.87,3889.60 1500.35,3857.31 1481.34,3823.00
             1481.34,3823.00 1469.18,3800.00 1469.18,3800.00
             1469.18,3800.00 1446.79,3742.00 1446.79,3742.00
             1446.79,3742.00 1438.18,3716.02 1438.18,3716.02
             1435.16,3711.41 1430.45,3709.44 1426.00,3706.56
             1426.00,3706.56 1411.00,3694.83 1411.00,3694.83
             1396.62,3681.99 1377.76,3658.99 1366.57,3643.00
             1336.70,3600.35 1313.54,3559.40 1294.15,3511.00
             1282.96,3483.06 1274.96,3454.10 1267.56,3425.00
             1267.56,3425.00 1260.61,3398.00 1260.61,3398.00
             1260.61,3398.00 1259.41,3391.00 1259.41,3391.00
             1259.41,3391.00 1255.32,3373.00 1255.32,3373.00
             1255.32,3373.00 1254.82,3365.00 1254.82,3365.00
             1253.87,3357.12 1252.01,3354.36 1252.00,3345.00
             1252.00,3345.00 1252.00,3293.00 1252.00,3293.00
             1252.00,3293.00 1255.00,3265.00 1255.00,3265.00
             1255.00,3265.00 1255.00,3254.00 1255.00,3254.00
             1255.00,3254.00 1257.28,3241.00 1257.28,3241.00
             1257.90,3236.38 1260.92,3224.71 1260.40,3221.06
             1259.65,3215.77 1254.10,3217.68 1247.67,3209.96
             1240.33,3201.14 1233.74,3186.58 1229.07,3176.00
             1217.88,3150.67 1210.34,3123.96 1204.49,3097.00
             1204.49,3097.00 1200.02,3077.00 1200.02,3077.00
             1200.02,3077.00 1200.02,3069.00 1200.02,3069.00
             1200.02,3069.00 1197.00,3045.00 1197.00,3045.00
             1197.00,3045.00 1197.00,3031.00 1197.00,3031.00
             1197.00,3031.00 1200.00,3003.00 1200.00,3003.00
             1199.98,3000.27 1200.27,2996.74 1197.69,2995.02
             1195.43,2993.52 1187.95,2994.03 1185.00,2994.00
             1177.94,2993.91 1173.53,2992.23 1167.00,2991.30
             1167.00,2991.30 1158.00,2990.68 1158.00,2990.68
             1158.00,2990.68 1128.00,2983.51 1128.00,2983.51
             1096.51,2975.53 1081.35,2969.73 1053.00,2953.65
             1053.00,2953.65 1018.00,2932.19 1018.00,2932.19
             997.06,2917.95 983.49,2908.17 966.17,2889.00
             955.12,2876.76 942.55,2860.24 934.23,2846.00
             930.79,2840.12 922.30,2821.59 918.79,2818.23
             915.39,2814.96 909.49,2814.08 905.00,2812.72
             905.00,2812.72 884.00,2804.77 884.00,2804.77
             863.36,2795.70 847.06,2784.33 830.00,2769.70
             822.07,2762.90 815.13,2755.05 808.54,2747.00
             778.29,2710.09 760.17,2670.61 750.63,2624.00
             750.63,2624.00 748.47,2616.00 748.47,2616.00
             748.47,2616.00 743.00,2578.00 743.00,2578.00
             743.00,2578.00 743.00,2566.00 743.00,2566.00
             743.00,2566.00 741.00,2542.00 741.00,2542.00
             741.00,2542.00 741.00,2525.00 741.00,2525.00
             741.00,2525.00 743.00,2500.00 743.00,2500.00
             743.00,2500.00 743.00,2489.00 743.00,2489.00
             743.01,2480.07 744.07,2479.50 744.83,2472.00
             744.83,2472.00 746.18,2455.00 746.18,2455.00
             746.18,2455.00 748.05,2447.00 748.05,2447.00
             748.05,2447.00 748.05,2439.00 748.05,2439.00
             748.05,2439.00 750.68,2428.00 750.68,2428.00
             750.68,2428.00 751.21,2421.00 751.21,2421.00
             751.21,2421.00 753.76,2408.00 753.76,2408.00
             753.76,2408.00 761.13,2372.00 761.13,2372.00
             761.57,2369.18 763.60,2362.22 762.77,2360.04
             761.20,2355.90 750.93,2351.02 747.00,2348.22
             735.53,2340.06 725.86,2332.10 717.00,2321.00
             700.34,2300.11 690.41,2280.39 682.50,2255.00
             682.50,2255.00 677.52,2238.00 677.52,2238.00
             677.52,2238.00 674.54,2219.00 674.54,2219.00
             674.54,2219.00 672.06,2209.00 672.06,2209.00
             672.06,2209.00 672.06,2198.00 672.06,2198.00
             672.06,2198.00 670.00,2184.00 670.00,2184.00
             670.00,2184.00 670.00,2142.00 670.00,2142.00
             670.00,2142.00 672.00,2121.00 672.00,2121.00
             672.02,2107.79 672.84,2112.00 674.56,2101.00
             674.56,2101.00 675.32,2092.00 675.32,2092.00
             675.32,2092.00 679.63,2070.00 679.63,2070.00
             679.63,2070.00 680.51,2063.00 680.51,2063.00
             680.51,2063.00 687.67,2034.00 687.67,2034.00
             700.42,1983.73 716.25,1941.50 736.74,1894.00
             748.46,1866.83 763.87,1842.04 781.00,1818.00
             781.00,1818.00 793.08,1802.00 793.08,1802.00
             798.44,1795.50 802.72,1792.76 803.00,1784.00 Z
           M 813.00,2989.00
           C 813.00,2989.00 926.00,2989.00 926.00,2989.00
             926.00,2989.00 926.00,3156.00 926.00,3156.00
             926.00,3156.00 1095.00,3156.00 1095.00,3156.00
             1095.00,3156.00 1095.00,3270.00 1095.00,3270.00
             1095.00,3270.00 926.00,3270.00 926.00,3270.00
             926.00,3270.00 926.00,3437.00 926.00,3437.00
             926.00,3437.00 813.00,3437.00 813.00,3437.00
             813.00,3437.00 813.00,3270.00 813.00,3270.00
             813.00,3270.00 644.00,3270.00 644.00,3270.00
             644.00,3270.00 644.00,3156.00 644.00,3156.00
             644.00,3156.00 813.00,3156.00 813.00,3156.00
             813.00,3156.00 813.00,2989.00 813.00,2989.00 Z
           M 2566.00,3027.00
           C 2566.00,3027.00 2679.00,3027.00 2679.00,3027.00
             2679.00,3027.00 2679.00,3194.00 2679.00,3194.00
             2679.00,3194.00 2848.00,3194.00 2848.00,3194.00
             2848.00,3194.00 2848.00,3308.00 2848.00,3308.00
             2848.00,3308.00 2679.00,3308.00 2679.00,3308.00
             2679.00,3308.00 2679.00,3475.00 2679.00,3475.00
             2679.00,3475.00 2566.00,3475.00 2566.00,3475.00
             2566.00,3475.00 2566.00,3308.00 2566.00,3308.00
             2566.00,3308.00 2397.00,3308.00 2397.00,3308.00
             2397.00,3308.00 2397.00,3194.00 2397.00,3194.00
             2397.00,3194.00 2566.00,3194.00 2566.00,3194.00
             2566.00,3194.00 2566.00,3027.00 2566.00,3027.00 Z" />
</svg>
