<?xml version="1.0" encoding="UTF-8" standalone="no"?>
<!DOCTYPE svg PUBLIC "-//W3C//DTD SVG 20010904//EN"
              "http://www.w3.org/TR/2001/REC-SVG-20010904/DTD/svg10.dtd">

<svg xmlns="http://www.w3.org/2000/svg"
     width="11in" height="14in"
     viewBox="0 0 3300 4200">
  <path id="9 - light horn"
        fill="none" stroke="black" stroke-width="1"
        d="M 1686.32,1074.04
           C 1692.96,1072.10 1694.58,1079.18 1697.40,1084.00
             1697.40,1084.00 1719.19,1120.00 1719.19,1120.00
             1737.55,1146.93 1758.54,1165.73 1786.00,1182.95
             1786.00,1182.95 1816.00,1201.08 1816.00,1201.08
             1819.51,1202.99 1828.19,1206.91 1830.09,1210.11
             1831.86,1213.47 1830.72,1219.33 1830.09,1223.00
             1830.09,1223.00 1830.09,1237.00 1830.09,1237.00
             1829.99,1245.41 1829.20,1245.60 1828.29,1253.00
             1828.29,1253.00 1827.00,1266.00 1827.00,1266.00
             1827.00,1266.00 1827.00,1277.00 1827.00,1277.00
             1827.00,1277.00 1825.00,1292.00 1825.00,1292.00
             1824.95,1296.52 1825.00,1310.49 1820.69,1312.93
             1818.20,1314.33 1814.42,1312.27 1812.00,1311.34
             1812.00,1311.34 1792.00,1303.17 1792.00,1303.17
             1763.27,1290.28 1733.55,1275.53 1709.00,1255.61
             1701.61,1249.62 1696.68,1244.65 1690.00,1238.00
             1688.23,1236.24 1684.60,1232.05 1682.00,1232.04
             1679.60,1232.04 1675.85,1236.00 1674.00,1237.57
             1674.00,1237.57 1654.00,1253.71 1654.00,1253.71
             1633.61,1268.25 1601.85,1288.44 1578.00,1295.72
             1570.63,1297.96 1559.62,1300.35 1552.00,1301.07
             1549.46,1301.44 1544.74,1302.65 1542.60,1301.07
             1540.62,1299.43 1541.00,1295.29 1541.00,1293.00
             1541.00,1293.00 1541.00,1251.00 1541.00,1251.00
             1541.00,1251.00 1540.00,1236.00 1540.00,1236.00
             1540.00,1236.00 1540.00,1220.00 1540.00,1220.00
             1540.00,1217.55 1539.80,1214.29 1541.02,1212.11
             1542.54,1209.38 1556.95,1201.87 1561.00,1199.00
             1580.97,1184.86 1601.69,1169.30 1619.00,1152.00
             1635.78,1135.23 1651.82,1117.31 1666.92,1099.00
             1666.92,1099.00 1686.32,1074.04 1686.32,1074.04 Z
           M 1680.07,1357.08
           C 1686.73,1355.68 1684.64,1362.43 1688.88,1370.00
             1694.96,1380.88 1707.78,1397.75 1717.01,1406.05
             1732.20,1419.69 1760.93,1431.82 1780.00,1440.21
             1784.41,1442.15 1790.14,1442.34 1795.00,1442.83
             1797.15,1443.05 1800.52,1442.75 1801.98,1444.60
             1803.30,1446.27 1802.98,1450.00 1802.70,1452.00
             1802.70,1452.00 1799.51,1471.00 1799.51,1471.00
             1799.51,1471.00 1798.25,1481.00 1798.25,1481.00
             1798.25,1481.00 1796.18,1491.00 1796.18,1491.00
             1796.18,1491.00 1795.68,1498.00 1795.68,1498.00
             1795.68,1498.00 1793.44,1508.00 1793.44,1508.00
             1793.44,1508.00 1790.70,1529.00 1790.70,1529.00
             1790.24,1532.19 1787.87,1545.52 1785.69,1546.98
             1783.84,1548.21 1780.19,1548.00 1778.00,1548.00
             1778.00,1548.00 1761.00,1548.00 1761.00,1548.00
             1752.48,1547.88 1744.48,1542.69 1738.09,1537.33
             1738.09,1537.33 1731.91,1531.63 1731.91,1531.63
             1731.91,1531.63 1722.00,1525.71 1722.00,1525.71
             1722.00,1525.71 1706.00,1514.69 1706.00,1514.69
             1706.00,1514.69 1687.00,1504.08 1687.00,1504.08
             1682.63,1501.69 1674.35,1494.51 1671.00,1494.19
             1666.75,1493.78 1661.94,1497.99 1658.00,1499.54
             1658.00,1499.54 1634.00,1509.17 1634.00,1509.17
             1634.00,1509.17 1619.00,1517.20 1619.00,1517.20
             1599.74,1526.85 1583.37,1533.18 1562.00,1536.68
             1562.00,1536.68 1548.00,1538.15 1548.00,1538.15
             1548.00,1538.15 1532.00,1540.00 1532.00,1540.00
             1532.00,1540.00 1527.00,1540.00 1527.00,1540.00
             1523.38,1539.99 1518.66,1540.76 1518.23,1535.94
             1518.23,1535.94 1521.54,1516.00 1521.54,1516.00
             1521.54,1516.00 1523.08,1505.00 1523.08,1505.00
             1523.08,1505.00 1525.06,1496.00 1525.06,1496.00
             1525.06,1496.00 1525.06,1489.00 1525.06,1489.00
             1525.06,1489.00 1528.06,1476.00 1528.06,1476.00
             1528.06,1476.00 1528.06,1469.00 1528.06,1469.00
             1528.06,1469.00 1529.91,1460.00 1529.91,1460.00
             1530.12,1457.23 1529.74,1452.67 1531.31,1450.33
             1533.44,1447.18 1536.24,1449.56 1540.00,1449.28
             1540.00,1449.28 1548.00,1447.23 1548.00,1447.23
             1563.62,1443.38 1576.39,1439.64 1591.00,1432.70
             1617.66,1420.04 1635.52,1404.98 1655.99,1384.00
             1655.99,1384.00 1671.54,1367.00 1671.54,1367.00
             1674.66,1363.19 1676.01,1360.08 1680.07,1357.08 Z
           M 813.00,2989.00
           C 813.00,2989.00 926.00,2989.00 926.00,2989.00
             926.00,2989.00 926.00,3156.00 926.00,3156.00
             926.00,3156.00 1095.00,3156.00 1095.00,3156.00
             1095.00,3156.00 1095.00,3270.00 1095.00,3270.00
             1095.00,3270.00 926.00,3270.00 926.00,3270.00
             926.00,3270.00 926.00,3437.00 926.00,3437.00
             926.00,3437.00 813.00,3437.00 813.00,3437.00
             813.00,3437.00 813.00,3270.00 813.00,3270.00
             813.00,3270.00 644.00,3270.00 644.00,3270.00
             644.00,3270.00 644.00,3156.00 644.00,3156.00
             644.00,3156.00 813.00,3156.00 813.00,3156.00
             813.00,3156.00 813.00,2989.00 813.00,2989.00 Z
           M 2566.00,3027.00
           C 2566.00,3027.00 2679.00,3027.00 2679.00,3027.00
             2679.00,3027.00 2679.00,3194.00 2679.00,3194.00
             2679.00,3194.00 2848.00,3194.00 2848.00,3194.00
             2848.00,3194.00 2848.00,3308.00 2848.00,3308.00
             2848.00,3308.00 2679.00,3308.00 2679.00,3308.00
             2679.00,3308.00 2679.00,3475.00 2679.00,3475.00
             2679.00,3475.00 2566.00,3475.00 2566.00,3475.00
             2566.00,3475.00 2566.00,3308.00 2566.00,3308.00
             2566.00,3308.00 2397.00,3308.00 2397.00,3308.00
             2397.00,3308.00 2397.00,3194.00 2397.00,3194.00
             2397.00,3194.00 2566.00,3194.00 2566.00,3194.00
             2566.00,3194.00 2566.00,3027.00 2566.00,3027.00 Z" />
</svg>
