<?xml version="1.0" encoding="UTF-8" standalone="no"?>
<!DOCTYPE svg PUBLIC "-//W3C//DTD SVG 20010904//EN"
              "http://www.w3.org/TR/2001/REC-SVG-20010904/DTD/svg10.dtd">

<svg xmlns="http://www.w3.org/2000/svg"
     width="11in" height="14in"
     viewBox="0 0 3300 4200">
  <path id="10 - eyes"
        fill="none" stroke="black" stroke-width="1"
        d="M 1817.00,2057.00
           C 1817.10,2045.79 1819.13,2035.02 1820.70,2024.00
             1820.70,2024.00 1821.30,2015.00 1821.30,2015.00
             1821.30,2015.00 1827.83,1978.00 1827.83,1978.00
             1827.83,1978.00 1833.25,1943.00 1833.25,1943.00
             1833.25,1943.00 1834.37,1934.00 1834.37,1934.00
             1834.37,1934.00 1838.68,1912.00 1838.68,1912.00
             1838.68,1912.00 1839.32,1905.00 1839.32,1905.00
             1839.32,1905.00 1841.24,1898.00 1841.24,1898.00
             1841.24,1898.00 1843.55,1887.00 1843.55,1887.00
             1843.55,1887.00 1844.68,1881.00 1844.68,1881.00
             1852.25,1855.91 1859.18,1841.27 1870.58,1818.00
             1876.05,1806.82 1890.99,1779.25 1899.17,1771.18
             1908.72,1761.76 1912.04,1762.93 1919.00,1759.22
             1936.03,1750.15 1948.09,1743.78 1968.00,1744.00
             1968.00,1744.00 1977.00,1745.06 1977.00,1745.06
             1977.00,1745.06 1986.00,1745.06 1986.00,1745.06
             2003.12,1747.51 2019.11,1754.38 2035.00,1760.80
             2035.00,1760.80 2051.00,1766.82 2051.00,1766.82
             2051.00,1766.82 2087.00,1787.22 2087.00,1787.22
             2087.00,1787.22 2114.00,1808.59 2114.00,1808.59
             2132.51,1823.99 2143.05,1832.84 2158.54,1852.00
             2166.35,1861.66 2172.97,1872.57 2179.69,1883.00
             2191.51,1901.35 2207.79,1930.87 2212.76,1952.00
             2219.10,1978.92 2219.04,2010.39 2219.00,2038.00
             2218.97,2059.02 2209.96,2093.03 2207.00,2115.00
             2200.66,2114.33 2195.63,2111.06 2190.00,2108.25
             2190.00,2108.25 2164.00,2095.25 2164.00,2095.25
             2142.38,2084.44 2111.74,2071.65 2089.00,2062.81
             2089.00,2062.81 2068.00,2055.64 2068.00,2055.64
             2064.17,2054.35 2060.18,2052.74 2058.17,2048.96
             2056.56,2045.92 2057.04,2040.48 2057.00,2037.00
             2056.86,2025.10 2052.71,2010.75 2050.37,1999.00
             2043.42,1964.08 2031.62,1930.93 2011.93,1901.00
             2006.32,1892.46 2001.26,1885.30 1994.00,1878.00
             1979.44,1863.37 1970.27,1855.24 1950.00,1849.41
             1944.19,1847.74 1944.57,1847.08 1938.00,1847.00
             1930.05,1846.91 1918.36,1848.56 1911.00,1851.43
             1895.72,1857.39 1878.82,1874.50 1871.42,1889.00
             1868.65,1894.42 1871.47,1896.43 1868.09,1903.00
             1868.09,1903.00 1857.49,1920.00 1857.49,1920.00
             1847.57,1940.80 1838.04,1980.93 1838.08,2004.00
             1838.08,2004.00 1838.08,2031.00 1838.08,2031.00
             1837.91,2033.69 1838.22,2036.51 1836.98,2039.00
             1835.55,2041.85 1829.51,2047.50 1827.00,2050.00
             1823.37,2053.60 1822.02,2055.53 1817.00,2057.00 Z
           M 1162.00,2128.00
           C 1162.00,2128.00 1157.51,2111.00 1157.51,2111.00
             1157.51,2111.00 1151.68,2077.00 1151.68,2077.00
             1151.68,2077.00 1149.29,2065.00 1149.29,2065.00
             1149.29,2065.00 1148.71,2056.00 1148.71,2056.00
             1147.78,2048.86 1147.01,2049.34 1146.96,2041.00
             1146.96,2041.00 1146.96,2030.00 1146.96,2030.00
             1146.96,2030.00 1146.00,2020.00 1146.00,2020.00
             1145.82,2004.61 1147.04,1989.15 1149.44,1974.00
             1149.44,1974.00 1151.68,1964.00 1151.68,1964.00
             1151.68,1964.00 1155.42,1945.00 1155.42,1945.00
             1159.35,1930.49 1167.47,1913.24 1174.63,1900.00
             1194.70,1862.85 1225.61,1827.23 1259.00,1801.50
             1276.07,1788.35 1294.05,1775.98 1314.00,1767.56
             1323.53,1763.53 1333.94,1759.85 1344.00,1757.45
             1344.00,1757.45 1350.00,1756.39 1350.00,1756.39
             1350.00,1756.39 1356.00,1754.53 1356.00,1754.53
             1356.00,1754.53 1366.96,1753.70 1366.96,1753.70
             1370.32,1752.93 1371.01,1751.19 1375.04,1749.94
             1379.44,1748.57 1394.29,1746.06 1399.00,1746.00
             1413.63,1745.83 1426.43,1747.58 1440.00,1753.43
             1440.00,1753.43 1449.00,1757.97 1449.00,1757.97
             1454.78,1760.55 1455.89,1758.83 1464.00,1765.46
             1476.12,1775.38 1483.99,1791.59 1491.81,1805.00
             1517.72,1849.47 1528.81,1892.74 1536.30,1943.00
             1536.30,1943.00 1538.68,1953.00 1538.68,1953.00
             1538.68,1953.00 1539.32,1960.00 1539.32,1960.00
             1539.32,1960.00 1544.09,1991.00 1544.09,1991.00
             1544.09,1991.00 1546.94,2004.00 1546.94,2004.00
             1546.94,2004.00 1546.94,2012.00 1546.94,2012.00
             1546.94,2012.00 1548.68,2019.00 1548.68,2019.00
             1548.68,2019.00 1550.01,2031.00 1550.01,2031.00
             1551.08,2037.62 1552.26,2037.04 1551.98,2045.00
             1551.77,2051.09 1550.23,2050.91 1550.02,2057.00
             1550.02,2057.00 1550.52,2070.00 1550.52,2070.00
             1549.94,2074.90 1547.41,2079.30 1546.00,2084.00
             1544.63,2088.59 1544.88,2093.24 1540.00,2095.00
             1540.00,2095.00 1540.00,2055.00 1540.00,2055.00
             1540.00,2055.00 1537.00,2026.00 1537.00,2026.00
             1536.85,2013.21 1533.88,1999.64 1531.68,1987.00
             1530.33,1979.27 1529.29,1978.97 1528.64,1970.00
             1528.64,1970.00 1527.37,1964.00 1527.37,1964.00
             1527.37,1964.00 1526.30,1957.00 1526.30,1957.00
             1526.30,1957.00 1522.20,1945.00 1522.20,1945.00
             1518.51,1932.87 1511.15,1912.49 1504.56,1902.00
             1504.56,1902.00 1497.14,1892.00 1497.14,1892.00
             1492.69,1886.07 1495.40,1885.47 1484.70,1873.00
             1470.97,1856.98 1450.16,1846.75 1429.00,1847.00
             1422.18,1847.09 1415.34,1849.56 1409.00,1851.96
             1383.62,1861.60 1363.35,1886.13 1349.96,1909.00
             1336.65,1931.75 1327.14,1956.59 1320.42,1982.00
             1320.42,1982.00 1316.37,1997.00 1316.37,1997.00
             1316.37,1997.00 1315.63,2003.00 1315.63,2003.00
             1315.63,2003.00 1313.47,2011.00 1313.47,2011.00
             1313.47,2011.00 1308.00,2052.00 1308.00,2052.00
             1308.00,2052.00 1308.00,2107.00 1308.00,2107.00
             1308.01,2114.02 1309.97,2126.36 1312.19,2133.00
             1312.19,2133.00 1316.00,2143.00 1316.00,2143.00
             1316.00,2143.00 1270.00,2157.91 1270.00,2157.91
             1270.00,2157.91 1229.00,2173.78 1229.00,2173.78
             1221.31,2175.82 1205.21,2181.43 1198.00,2177.83
             1195.51,2176.58 1192.98,2173.95 1191.00,2172.00
             1179.29,2160.44 1179.41,2158.96 1172.24,2145.00
             1172.24,2145.00 1168.76,2138.58 1168.76,2138.58
             1167.03,2134.68 1166.63,2129.47 1162.00,2128.00 Z
           M 1909.00,1870.61
           C 1928.28,1866.96 1934.55,1888.83 1933.96,1904.00
             1933.05,1927.37 1923.51,1957.85 1898.00,1964.39
             1879.47,1969.15 1866.21,1953.33 1866.00,1936.00
             1865.87,1924.86 1866.19,1913.50 1870.48,1903.00
             1872.39,1898.32 1875.64,1894.72 1878.95,1891.00
             1888.45,1880.30 1895.25,1875.06 1909.00,1870.61 Z
           M 1387.01,1889.85
           C 1390.89,1888.72 1393.00,1888.80 1397.00,1889.85
             1408.82,1892.23 1413.88,1901.03 1416.63,1912.00
             1421.39,1931.05 1419.66,1956.83 1407.84,1973.00
             1401.10,1982.22 1391.00,1989.74 1379.00,1988.90
             1364.26,1987.87 1356.05,1974.41 1354.15,1961.00
             1354.15,1961.00 1354.15,1947.00 1354.15,1947.00
             1354.11,1939.34 1356.89,1935.68 1360.25,1929.00
             1365.94,1917.70 1376.91,1897.04 1387.01,1889.85 Z
           M 1956.04,1978.04
           C 1967.47,1975.03 1968.63,1992.25 1958.98,1996.81
             1954.42,1998.96 1950.78,1995.45 1950.15,1991.00
             1949.36,1985.42 1951.65,1981.23 1956.04,1978.04 Z
           M 1461.00,2000.74
           C 1471.08,1998.34 1479.55,2007.14 1478.38,2015.00
             1477.44,2021.30 1471.85,2028.15 1466.00,2030.52
             1458.25,2033.65 1453.77,2029.96 1453.09,2022.00
             1452.37,2013.50 1452.72,2005.17 1461.00,2000.74 Z
           M 813.00,2989.00
           C 813.00,2989.00 926.00,2989.00 926.00,2989.00
             926.00,2989.00 926.00,3156.00 926.00,3156.00
             926.00,3156.00 1095.00,3156.00 1095.00,3156.00
             1095.00,3156.00 1095.00,3270.00 1095.00,3270.00
             1095.00,3270.00 926.00,3270.00 926.00,3270.00
             926.00,3270.00 926.00,3437.00 926.00,3437.00
             926.00,3437.00 813.00,3437.00 813.00,3437.00
             813.00,3437.00 813.00,3270.00 813.00,3270.00
             813.00,3270.00 644.00,3270.00 644.00,3270.00
             644.00,3270.00 644.00,3156.00 644.00,3156.00
             644.00,3156.00 813.00,3156.00 813.00,3156.00
             813.00,3156.00 813.00,2989.00 813.00,2989.00 Z
           M 2566.00,3027.00
           C 2566.00,3027.00 2679.00,3027.00 2679.00,3027.00
             2679.00,3027.00 2679.00,3194.00 2679.00,3194.00
             2679.00,3194.00 2848.00,3194.00 2848.00,3194.00
             2848.00,3194.00 2848.00,3308.00 2848.00,3308.00
             2848.00,3308.00 2679.00,3308.00 2679.00,3308.00
             2679.00,3308.00 2679.00,3475.00 2679.00,3475.00
             2679.00,3475.00 2566.00,3475.00 2566.00,3475.00
             2566.00,3475.00 2566.00,3308.00 2566.00,3308.00
             2566.00,3308.00 2397.00,3308.00 2397.00,3308.00
             2397.00,3308.00 2397.00,3194.00 2397.00,3194.00
             2397.00,3194.00 2566.00,3194.00 2566.00,3194.00
             2566.00,3194.00 2566.00,3027.00 2566.00,3027.00 Z" />
</svg>
