<?xml version="1.0" encoding="UTF-8" standalone="no"?>
<!DOCTYPE svg PUBLIC "-//W3C//DTD SVG 20010904//EN"
              "http://www.w3.org/TR/2001/REC-SVG-20010904/DTD/svg10.dtd">

<svg xmlns="http://www.w3.org/2000/svg"
     width="11in" height="14in"
     viewBox="0 0 3300 4200">
  <path id="11 - black lines"
        fill="none" stroke="black" stroke-width="1"
        d="M 1745.00,1550.00
           C 1745.00,1550.00 1779.00,1549.00 1779.00,1549.00
             1779.00,1549.00 1796.00,1548.00 1796.00,1548.00
             1817.76,1547.97 1839.36,1546.26 1861.00,1544.17
             1861.00,1544.17 1883.00,1542.28 1883.00,1542.28
             1883.00,1542.28 1916.00,1537.87 1916.00,1537.87
             1917.79,1537.62 1927.24,1535.81 1924.83,1540.67
             1923.78,1542.79 1917.29,1545.62 1915.00,1546.75
             1906.54,1550.94 1892.50,1553.96 1883.00,1556.11
             1883.00,1556.11 1852.00,1560.15 1852.00,1560.15
             1852.00,1560.15 1824.00,1563.04 1824.00,1563.04
             1824.00,1563.04 1811.00,1563.04 1811.00,1563.04
             1811.00,1563.04 1799.00,1564.00 1799.00,1564.00
             1799.00,1564.00 1744.00,1564.00 1744.00,1564.00
             1744.00,1564.00 1745.00,1550.00 1745.00,1550.00 Z
           M 1531.00,1567.00
           C 1512.37,1567.00 1481.84,1563.57 1463.00,1560.87
             1458.06,1560.16 1440.52,1558.27 1446.19,1549.31
             1448.67,1545.40 1462.32,1547.95 1467.00,1548.00
             1467.00,1548.00 1477.00,1548.91 1477.00,1548.91
             1477.00,1548.91 1502.00,1550.09 1502.00,1550.09
             1502.00,1550.09 1530.00,1552.00 1530.00,1552.00
             1530.00,1552.00 1531.00,1567.00 1531.00,1567.00 Z
           M 2097.00,1685.00
           C 2097.00,1685.00 2107.00,1684.40 2107.00,1684.40
             2107.00,1684.40 2123.00,1692.60 2123.00,1692.60
             2123.00,1692.60 2149.00,1707.58 2149.00,1707.58
             2149.00,1707.58 2170.96,1721.10 2170.96,1721.10
             2170.96,1721.10 2193.00,1744.00 2193.00,1744.00
             2190.22,1756.89 2178.02,1745.83 2172.00,1741.37
             2172.00,1741.37 2151.00,1725.72 2151.00,1725.72
             2151.00,1725.72 2126.00,1708.98 2126.00,1708.98
             2126.00,1708.98 2112.00,1698.90 2112.00,1698.90
             2104.29,1693.76 2093.72,1693.49 2090.57,1690.87
             2089.35,1689.85 2089.46,1689.29 2089.00,1688.00
             2089.00,1688.00 2100.00,1689.00 2100.00,1689.00
             2100.00,1689.00 2097.00,1685.00 2097.00,1685.00 Z
           M 1174.00,1740.00
           C 1175.77,1733.96 1180.51,1730.68 1184.58,1726.00
             1201.27,1706.77 1216.91,1702.22 1239.00,1692.72
             1243.04,1690.98 1256.29,1684.68 1260.00,1685.70
             1262.60,1686.41 1266.08,1689.89 1267.69,1692.00
             1269.23,1694.02 1269.32,1694.69 1270.00,1697.00
             1270.00,1697.00 1231.00,1713.87 1231.00,1713.87
             1210.53,1725.52 1216.40,1724.64 1192.00,1734.40
             1185.92,1736.83 1180.61,1739.64 1174.00,1740.00 Z
           M 1264.00,1694.00
           C 1259.07,1687.69 1255.22,1688.96 1249.00,1693.00
             1249.00,1693.00 1264.00,1694.00 1264.00,1694.00 Z
           M 1727.00,1778.00
           C 1727.00,1778.00 1748.00,1762.15 1748.00,1762.15
             1774.88,1742.54 1797.64,1725.89 1829.00,1713.45
             1829.00,1713.45 1857.00,1704.36 1857.00,1704.36
             1861.32,1703.90 1866.51,1705.82 1868.00,1710.00
             1868.00,1710.00 1862.00,1709.00 1862.00,1709.00
             1862.00,1709.00 1857.00,1718.00 1857.00,1718.00
             1857.00,1718.00 1859.00,1721.00 1859.00,1721.00
             1853.17,1720.38 1850.77,1718.17 1847.00,1718.43
             1842.37,1718.75 1827.92,1725.16 1823.00,1727.28
             1802.89,1735.96 1783.08,1747.98 1764.00,1758.87
             1764.00,1758.87 1740.00,1772.94 1740.00,1772.94
             1736.35,1775.16 1731.35,1778.59 1727.00,1778.00 Z
           M 1491.00,1705.00
           C 1491.00,1705.00 1497.00,1705.00 1497.00,1705.00
             1509.28,1705.02 1519.68,1708.82 1531.00,1713.05
             1558.97,1723.51 1583.07,1740.40 1607.00,1757.85
             1607.00,1757.85 1630.00,1774.65 1630.00,1774.65
             1633.94,1777.69 1638.52,1780.62 1641.00,1785.00
             1634.49,1783.10 1613.94,1770.39 1607.00,1766.20
             1607.00,1766.20 1575.00,1748.14 1575.00,1748.14
             1575.00,1748.14 1547.00,1732.75 1547.00,1732.75
             1540.63,1729.57 1518.12,1719.36 1512.04,1718.82
             1512.04,1718.82 1506.00,1718.82 1506.00,1718.82
             1506.00,1718.82 1501.00,1723.00 1501.00,1723.00
             1501.00,1723.00 1503.00,1717.00 1503.00,1717.00
             1498.38,1714.36 1497.61,1713.28 1497.00,1708.00
             1497.00,1708.00 1491.00,1708.00 1491.00,1708.00
             1491.00,1708.00 1491.00,1705.00 1491.00,1705.00 Z
           M 1818.00,1923.00
           C 1818.00,1923.00 1830.50,1868.00 1830.50,1868.00
             1833.13,1856.94 1833.86,1848.61 1838.74,1838.00
             1842.05,1830.79 1843.65,1832.09 1847.76,1825.00
             1847.76,1825.00 1854.31,1812.00 1854.31,1812.00
             1863.72,1793.76 1876.65,1768.64 1892.00,1755.29
             1900.74,1747.68 1918.04,1736.52 1929.00,1732.82
             1929.00,1732.82 1943.00,1729.48 1943.00,1729.48
             1950.98,1727.74 1948.42,1727.01 1958.00,1727.00
             1958.00,1727.00 1975.00,1727.00 1975.00,1727.00
             1988.77,1727.02 2015.09,1734.14 2029.00,1737.67
             2029.00,1737.67 2065.00,1748.96 2065.00,1748.96
             2065.00,1748.96 2072.83,1751.53 2072.83,1751.53
             2072.83,1751.53 2078.09,1754.63 2078.09,1754.63
             2078.09,1754.63 2094.00,1761.87 2094.00,1761.87
             2094.00,1761.87 2111.00,1769.23 2111.00,1769.23
             2132.68,1780.82 2153.42,1795.94 2173.00,1810.75
             2173.00,1810.75 2196.00,1829.49 2196.00,1829.49
             2196.00,1829.49 2228.00,1853.26 2228.00,1853.26
             2252.65,1869.92 2276.14,1880.85 2305.00,1887.90
             2305.00,1887.90 2318.00,1890.90 2318.00,1890.90
             2318.00,1890.90 2328.00,1890.90 2328.00,1890.90
             2328.00,1890.90 2338.00,1892.00 2338.00,1892.00
             2338.00,1892.00 2355.00,1892.00 2355.00,1892.00
             2359.80,1892.09 2365.46,1894.30 2360.67,1899.74
             2358.82,1901.84 2354.61,1903.69 2352.00,1904.77
             2341.91,1908.95 2323.02,1910.98 2312.00,1911.00
             2312.00,1911.00 2293.00,1911.00 2293.00,1911.00
             2278.55,1910.82 2254.89,1900.12 2242.00,1893.31
             2235.90,1890.09 2228.45,1884.57 2222.00,1883.00
             2222.00,1883.00 2234.87,1911.00 2234.87,1911.00
             2240.34,1924.54 2243.54,1938.76 2246.37,1953.00
             2246.37,1953.00 2247.79,1959.00 2247.79,1959.00
             2249.03,1967.63 2249.01,1976.30 2249.00,1985.00
             2249.00,1985.00 2248.00,2002.00 2248.00,2002.00
             2248.00,2002.00 2248.00,2019.00 2248.00,2019.00
             2247.86,2027.38 2244.51,2028.80 2245.04,2038.00
             2245.20,2040.63 2245.54,2043.19 2248.23,2044.40
             2250.12,2045.26 2255.68,2044.97 2258.00,2045.00
             2266.84,2045.12 2278.26,2049.62 2285.00,2055.32
             2286.95,2056.98 2291.13,2060.74 2290.26,2063.89
             2289.41,2066.52 2285.73,2064.82 2284.00,2063.89
             2276.34,2060.95 2274.50,2059.18 2266.00,2057.72
             2256.02,2056.00 2245.80,2051.07 2239.97,2063.00
             2239.97,2063.00 2236.00,2074.00 2236.00,2074.00
             2257.43,2081.14 2275.29,2085.25 2284.00,2109.00
             2284.00,2109.00 2269.00,2099.05 2269.00,2099.05
             2259.77,2093.24 2242.90,2085.53 2232.00,2085.00
             2232.00,2085.00 2224.00,2106.00 2224.00,2106.00
             2240.67,2113.18 2246.20,2119.82 2260.00,2130.58
             2264.96,2134.45 2272.03,2138.82 2274.00,2145.00
             2267.88,2143.76 2263.12,2139.74 2258.00,2136.33
             2258.00,2136.33 2234.00,2120.68 2234.00,2120.68
             2234.00,2120.68 2224.02,2114.30 2224.02,2114.30
             2216.10,2111.70 2220.98,2125.95 2212.00,2124.22
             2208.97,2123.64 2204.92,2121.22 2204.44,2117.91
             2204.09,2115.44 2207.43,2107.95 2208.28,2105.00
             2210.19,2098.38 2211.33,2089.85 2212.13,2083.00
             2212.13,2083.00 2213.75,2076.00 2213.75,2076.00
             2213.75,2076.00 2216.89,2058.00 2216.89,2058.00
             2216.89,2058.00 2216.89,2048.00 2216.89,2048.00
             2216.89,2048.00 2220.00,2016.00 2220.00,2016.00
             2220.19,1999.87 2214.97,1969.34 2211.62,1953.00
             2211.62,1953.00 2209.78,1947.00 2209.78,1947.00
             2202.73,1922.44 2191.09,1900.20 2176.93,1879.00
             2141.97,1826.64 2087.37,1778.23 2026.00,1760.57
             2008.59,1755.56 1991.54,1747.22 1973.00,1747.00
             1956.53,1746.81 1947.81,1747.01 1932.00,1753.06
             1932.00,1753.06 1919.00,1759.74 1919.00,1759.74
             1919.00,1759.74 1913.00,1761.87 1913.00,1761.87
             1910.28,1763.00 1903.39,1768.26 1901.04,1770.32
             1895.72,1774.99 1889.70,1784.77 1886.04,1791.00
             1886.04,1791.00 1870.58,1819.00 1870.58,1819.00
             1859.18,1842.27 1852.25,1856.91 1844.68,1882.00
             1844.68,1882.00 1843.55,1888.00 1843.55,1888.00
             1843.55,1888.00 1841.24,1899.00 1841.24,1899.00
             1841.24,1899.00 1839.32,1906.00 1839.32,1906.00
             1839.32,1906.00 1838.68,1913.00 1838.68,1913.00
             1838.68,1913.00 1836.62,1922.00 1836.62,1922.00
             1836.62,1922.00 1835.63,1930.00 1835.63,1930.00
             1835.63,1930.00 1830.83,1960.00 1830.83,1960.00
             1830.83,1960.00 1826.32,1986.00 1826.32,1986.00
             1826.32,1986.00 1825.56,1993.00 1825.56,1993.00
             1825.56,1993.00 1821.30,2016.00 1821.30,2016.00
             1821.30,2016.00 1820.70,2025.00 1820.70,2025.00
             1820.70,2025.00 1818.00,2044.00 1818.00,2044.00
             1818.00,2044.00 1816.04,2062.00 1816.04,2062.00
             1815.96,2064.13 1815.87,2067.89 1817.60,2069.41
             1819.81,2071.36 1822.90,2069.17 1825.00,2068.11
             1832.06,2064.58 1836.23,2064.01 1844.00,2064.00
             1844.00,2064.00 1856.00,2064.00 1856.00,2064.00
             1859.18,2064.02 1867.11,2064.64 1869.94,2065.57
             1871.75,2066.16 1873.99,2067.48 1872.83,2069.74
             1871.58,2072.18 1864.60,2072.57 1862.00,2072.83
             1846.67,2074.37 1842.90,2076.20 1829.00,2079.00
             1831.67,2085.21 1835.21,2092.15 1835.82,2099.00
             1836.20,2103.22 1834.41,2108.93 1829.18,2105.38
             1826.82,2103.78 1822.83,2096.82 1820.53,2094.00
             1820.53,2094.00 1810.46,2083.00 1810.46,2083.00
             1810.46,2083.00 1803.37,2074.72 1803.37,2074.72
             1803.37,2074.72 1799.51,2069.53 1799.51,2069.53
             1795.59,2065.56 1787.40,2064.07 1782.00,2063.96
             1782.00,2063.96 1772.00,2063.96 1772.00,2063.96
             1768.13,2063.65 1766.29,2062.85 1762.00,2063.09
             1753.53,2063.57 1745.18,2064.57 1737.00,2066.91
             1714.40,2073.38 1693.08,2085.96 1669.00,2086.00
             1669.00,2086.00 1655.00,2086.00 1655.00,2086.00
             1655.00,2086.00 1633.00,2084.00 1633.00,2084.00
             1619.25,2083.94 1612.23,2084.76 1600.00,2091.26
             1587.62,2097.84 1575.85,2108.50 1569.33,2121.00
             1567.17,2125.12 1567.45,2126.30 1566.05,2130.00
             1566.05,2130.00 1562.86,2137.00 1562.86,2137.00
             1561.45,2140.20 1558.88,2147.45 1557.03,2149.85
             1556.01,2151.18 1554.37,2152.81 1552.54,2151.83
             1549.76,2150.34 1550.00,2142.76 1550.00,2140.00
             1550.00,2140.00 1550.00,2129.00 1550.00,2129.00
             1550.22,2115.78 1564.64,2094.10 1576.00,2088.00
             1576.00,2088.00 1576.00,2086.00 1576.00,2086.00
             1572.40,2084.24 1564.13,2077.84 1561.00,2078.60
             1555.83,2079.85 1550.33,2092.34 1547.72,2097.00
             1547.72,2097.00 1540.19,2111.00 1540.19,2111.00
             1540.19,2111.00 1533.53,2120.00 1533.53,2120.00
             1528.03,2129.43 1522.56,2141.86 1511.00,2145.00
             1511.00,2145.00 1510.00,2138.00 1510.00,2138.00
             1519.96,2136.38 1523.10,2126.13 1526.05,2118.00
             1529.38,2108.85 1532.76,2101.24 1538.04,2093.00
             1541.62,2087.41 1547.76,2079.36 1549.84,2073.00
             1551.00,2068.57 1550.05,2064.50 1549.84,2060.00
             1549.88,2049.00 1551.55,2051.30 1551.95,2045.00
             1551.95,2045.00 1547.32,2014.00 1547.32,2014.00
             1547.32,2014.00 1546.70,2005.00 1546.70,2005.00
             1546.70,2005.00 1544.30,1994.00 1544.30,1994.00
             1544.30,1994.00 1543.68,1985.00 1543.68,1985.00
             1543.68,1985.00 1539.32,1961.00 1539.32,1961.00
             1539.32,1961.00 1538.68,1954.00 1538.68,1954.00
             1538.68,1954.00 1536.46,1945.00 1536.46,1945.00
             1536.46,1945.00 1533.38,1925.00 1533.38,1925.00
             1533.38,1925.00 1531.37,1917.00 1531.37,1917.00
             1531.37,1917.00 1530.63,1911.00 1530.63,1911.00
             1524.50,1879.32 1514.32,1848.63 1499.30,1820.00
             1491.41,1804.97 1478.85,1780.49 1467.00,1769.04
             1457.14,1759.51 1457.79,1762.35 1448.00,1757.97
             1448.00,1757.97 1439.00,1753.43 1439.00,1753.43
             1426.56,1748.06 1413.49,1745.85 1400.00,1746.00
             1395.22,1746.06 1380.51,1748.57 1376.01,1749.94
             1371.77,1751.23 1371.08,1752.96 1367.91,1753.70
             1367.91,1753.70 1357.00,1754.53 1357.00,1754.53
             1357.00,1754.53 1351.00,1756.39 1351.00,1756.39
             1351.00,1756.39 1345.00,1757.45 1345.00,1757.45
             1335.62,1759.69 1322.82,1764.08 1314.00,1767.99
             1262.89,1790.63 1211.93,1839.76 1182.74,1887.00
             1169.29,1908.77 1157.71,1932.81 1152.51,1958.00
             1152.51,1958.00 1151.68,1965.00 1151.68,1965.00
             1151.68,1965.00 1149.44,1975.00 1149.44,1975.00
             1149.44,1975.00 1148.68,1983.00 1148.68,1983.00
             1148.68,1983.00 1147.05,1990.00 1147.05,1990.00
             1147.05,1990.00 1147.05,2000.00 1147.05,2000.00
             1147.05,2000.00 1146.00,2018.00 1146.00,2018.00
             1146.00,2018.00 1147.14,2034.00 1147.14,2034.00
             1147.14,2034.00 1147.14,2047.00 1147.14,2047.00
             1147.14,2047.00 1149.06,2056.00 1149.06,2056.00
             1149.06,2056.00 1149.06,2064.00 1149.06,2064.00
             1149.06,2064.00 1154.38,2091.00 1154.38,2091.00
             1154.38,2091.00 1157.51,2110.00 1157.51,2110.00
             1157.51,2110.00 1162.00,2128.00 1162.00,2128.00
             1167.38,2129.32 1167.37,2135.28 1170.71,2141.17
             1175.05,2148.85 1177.46,2155.96 1183.32,2163.00
             1183.32,2163.00 1198.38,2179.00 1198.38,2179.00
             1200.49,2182.51 1198.91,2184.95 1195.94,2183.83
             1193.43,2182.88 1187.21,2176.21 1185.00,2174.00
             1185.00,2174.00 1161.47,2150.00 1161.47,2150.00
             1156.28,2143.61 1155.22,2137.38 1149.98,2136.62
             1148.34,2136.10 1145.73,2136.66 1144.00,2136.62
             1134.18,2137.80 1124.05,2141.58 1117.18,2149.04
             1113.38,2153.17 1111.54,2160.07 1106.00,2162.00
             1106.59,2156.72 1107.70,2155.53 1110.28,2151.00
             1111.90,2148.15 1113.84,2144.58 1116.21,2142.34
             1122.87,2136.04 1142.77,2131.08 1152.00,2129.00
             1150.07,2124.85 1145.31,2110.96 1142.59,2108.74
             1140.92,2107.38 1139.06,2107.16 1137.00,2107.04
             1123.62,2106.27 1106.42,2113.36 1095.00,2119.87
             1088.86,2123.37 1083.00,2128.58 1076.00,2130.00
             1077.96,2123.93 1084.96,2121.29 1090.00,2118.00
             1095.84,2114.19 1103.95,2107.59 1110.00,2105.52
             1126.18,2100.00 1129.70,2103.50 1140.00,2101.00
             1138.60,2096.98 1134.18,2085.03 1130.79,2083.02
             1129.06,2082.00 1126.94,2082.04 1125.00,2082.00
             1107.89,2081.69 1108.42,2081.80 1092.00,2084.68
             1086.60,2085.63 1081.06,2086.46 1076.00,2088.75
             1069.40,2091.74 1063.35,2098.24 1061.89,2098.84
             1059.26,2099.91 1057.61,2097.73 1059.75,2094.00
             1061.65,2090.70 1068.71,2083.03 1072.00,2081.07
             1077.27,2077.93 1084.04,2077.06 1090.00,2076.08
             1096.94,2074.93 1106.97,2074.03 1114.00,2074.00
             1114.00,2074.00 1129.00,2073.00 1129.00,2073.00
             1129.00,2073.00 1122.00,2033.00 1122.00,2033.00
             1122.00,2033.00 1121.00,2005.00 1121.00,2005.00
             1121.00,2005.00 1119.04,1981.00 1119.04,1981.00
             1119.04,1981.00 1122.17,1954.00 1122.17,1954.00
             1124.63,1940.47 1129.73,1921.58 1135.13,1909.00
             1138.24,1901.75 1146.28,1887.71 1147.00,1881.00
             1141.05,1882.21 1136.07,1886.12 1131.00,1889.32
             1131.00,1889.32 1111.00,1900.75 1111.00,1900.75
             1088.55,1911.97 1069.07,1910.04 1045.00,1910.00
             1035.96,1909.99 1029.65,1907.88 1021.00,1905.89
             1021.00,1905.89 1012.00,1904.07 1012.00,1904.07
             1001.86,1901.28 992.52,1894.59 990.00,1884.00
             990.00,1884.00 1002.00,1885.61 1002.00,1885.61
             1015.30,1888.99 1014.38,1891.79 1032.00,1892.00
             1032.00,1892.00 1047.00,1892.00 1047.00,1892.00
             1056.57,1891.99 1070.76,1887.74 1080.00,1884.68
             1080.00,1884.68 1100.00,1877.43 1100.00,1877.43
             1113.95,1871.37 1140.62,1854.96 1153.00,1845.84
             1153.00,1845.84 1208.00,1802.43 1208.00,1802.43
             1227.82,1788.26 1251.05,1772.44 1273.00,1762.04
             1294.04,1752.07 1316.54,1745.34 1339.00,1739.49
             1353.21,1735.79 1376.78,1729.02 1391.00,1729.00
             1391.00,1729.00 1411.00,1729.00 1411.00,1729.00
             1433.12,1729.26 1462.46,1744.86 1477.91,1760.07
             1481.50,1763.62 1486.14,1769.75 1488.92,1774.00
             1488.92,1774.00 1504.54,1801.00 1504.54,1801.00
             1505.84,1803.37 1511.23,1813.40 1512.61,1814.71
             1516.68,1818.60 1520.01,1812.35 1521.00,1809.00
             1529.74,1812.28 1536.49,1810.19 1549.00,1814.35
             1566.69,1820.25 1587.10,1833.86 1603.00,1843.95
             1611.44,1849.30 1627.12,1859.46 1633.00,1867.00
             1626.14,1865.61 1615.73,1858.64 1609.00,1855.25
             1609.00,1855.25 1562.00,1832.74 1562.00,1832.74
             1554.35,1829.05 1538.40,1822.17 1530.00,1822.72
             1527.55,1822.89 1525.26,1824.13 1523.00,1825.00
             1523.00,1825.00 1523.00,1822.00 1523.00,1822.00
             1523.00,1822.00 1520.65,1825.11 1520.65,1825.11
             1520.65,1825.11 1522.17,1832.00 1522.17,1832.00
             1522.17,1832.00 1527.58,1848.00 1527.58,1848.00
             1527.58,1848.00 1535.26,1872.00 1535.26,1872.00
             1535.26,1872.00 1544.28,1912.00 1544.28,1912.00
             1544.28,1912.00 1547.00,1923.00 1547.00,1923.00
             1556.99,1921.57 1567.95,1931.30 1576.00,1936.67
             1597.66,1951.12 1607.76,1959.52 1627.00,1976.83
             1633.26,1982.47 1645.57,1992.75 1649.00,2000.00
             1641.68,1997.67 1620.66,1982.75 1613.00,1977.67
             1613.00,1977.67 1565.00,1944.43 1565.00,1944.43
             1565.00,1944.43 1550.00,1935.00 1550.00,1935.00
             1548.39,1944.12 1549.98,1942.68 1550.95,1951.00
             1550.95,1951.00 1556.71,1989.00 1556.71,1989.00
             1556.71,1989.00 1559.29,2011.00 1559.29,2011.00
             1559.29,2011.00 1561.91,2027.00 1561.91,2027.00
             1562.23,2031.63 1563.24,2050.66 1564.60,2053.86
             1566.02,2057.21 1568.28,2056.25 1571.21,2061.06
             1574.21,2066.00 1578.00,2075.46 1583.02,2078.35
             1587.07,2080.68 1592.87,2076.18 1597.00,2074.62
             1601.34,2072.97 1618.92,2071.01 1624.00,2071.00
             1624.00,2071.00 1653.00,2071.00 1653.00,2071.00
             1662.88,2071.02 1668.73,2074.63 1679.00,2072.32
             1679.00,2072.32 1726.00,2056.49 1726.00,2056.49
             1736.04,2053.14 1740.87,2050.76 1752.00,2051.01
             1759.39,2051.18 1770.81,2052.77 1778.00,2054.58
             1782.70,2055.76 1793.50,2056.77 1797.69,2053.98
             1800.01,2052.43 1800.39,2048.57 1800.71,2046.00
             1800.71,2046.00 1803.08,2025.00 1803.08,2025.00
             1803.08,2025.00 1807.29,1992.00 1807.29,1992.00
             1807.29,1992.00 1816.00,1934.00 1816.00,1934.00
             1806.80,1936.30 1791.20,1948.45 1783.00,1954.29
             1766.41,1966.11 1730.92,1991.19 1713.00,1998.00
             1718.48,1988.62 1729.91,1978.14 1738.00,1970.83
             1757.20,1953.49 1761.47,1950.94 1782.00,1936.42
             1793.71,1928.14 1802.83,1919.31 1818.00,1923.00 Z
           M 1837.00,1811.00
           C 1837.00,1811.00 1837.00,1824.00 1837.00,1824.00
             1835.04,1822.92 1833.28,1821.73 1831.00,1821.47
             1825.76,1820.85 1811.18,1825.86 1806.00,1828.01
             1806.00,1828.01 1766.00,1846.26 1766.00,1846.26
             1766.00,1846.26 1739.00,1859.00 1739.00,1859.00
             1744.90,1851.87 1758.80,1843.78 1767.00,1838.80
             1781.92,1829.74 1796.04,1819.75 1813.00,1814.72
             1826.46,1810.72 1829.86,1813.03 1837.00,1811.00 Z
           M 2222.00,1882.00
           C 2222.00,1882.00 2221.00,1882.00 2221.00,1882.00
             2221.00,1882.00 2222.00,1883.00 2222.00,1883.00
             2222.00,1883.00 2222.00,1882.00 2222.00,1882.00 Z
           M 1802.00,2120.74
           C 1805.54,2119.88 1808.73,2119.48 1811.98,2121.60
             1821.49,2127.79 1821.88,2143.52 1808.00,2142.72
             1801.70,2142.35 1801.74,2143.01 1796.00,2145.42
             1794.01,2146.26 1790.46,2148.07 1788.31,2147.30
             1784.98,2146.09 1786.26,2140.45 1787.11,2138.00
             1789.45,2131.23 1795.71,2124.02 1802.00,2120.74 Z
           M 1878.00,2180.00
           C 1886.00,2183.82 1892.22,2195.57 1894.39,2204.00
             1894.39,2204.00 1895.59,2211.00 1895.59,2211.00
             1896.98,2216.94 1897.92,2219.66 1898.00,2226.00
             1898.09,2234.13 1898.50,2243.13 1896.42,2251.00
             1889.39,2277.56 1872.20,2292.99 1849.00,2305.86
             1849.00,2305.86 1832.00,2314.70 1832.00,2314.70
             1827.58,2316.55 1826.33,2315.60 1822.00,2316.59
             1822.00,2316.59 1796.00,2322.63 1796.00,2322.63
             1796.00,2322.63 1788.00,2323.46 1788.00,2323.46
             1788.00,2323.46 1780.00,2325.49 1780.00,2325.49
             1780.00,2325.49 1773.00,2326.37 1773.00,2326.37
             1759.50,2328.96 1745.81,2331.83 1732.00,2332.00
             1722.77,2332.10 1715.21,2332.03 1706.00,2330.82
             1706.00,2330.82 1695.00,2328.44 1695.00,2328.44
             1681.24,2326.20 1661.69,2323.02 1648.00,2323.00
             1648.00,2323.00 1616.00,2323.00 1616.00,2323.00
             1604.54,2322.98 1588.26,2317.71 1578.00,2312.56
             1566.73,2306.91 1557.20,2299.63 1551.66,2288.00
             1550.15,2284.82 1548.70,2278.53 1548.48,2275.02
             1548.35,2272.86 1548.85,2269.82 1551.85,2271.17
             1554.70,2272.45 1557.67,2279.20 1559.12,2282.00
             1561.57,2286.72 1565.02,2291.19 1569.01,2294.70
             1579.08,2303.53 1599.72,2312.51 1613.00,2314.68
             1613.00,2314.68 1636.00,2316.00 1636.00,2316.00
             1650.92,2316.02 1666.24,2315.91 1681.00,2318.32
             1697.36,2321.00 1713.31,2325.19 1730.00,2325.00
             1730.00,2325.00 1745.00,2322.99 1745.00,2322.99
             1745.00,2322.99 1756.00,2322.99 1756.00,2322.99
             1756.00,2322.99 1764.00,2321.09 1764.00,2321.09
             1764.00,2321.09 1774.00,2319.68 1774.00,2319.68
             1774.00,2319.68 1783.00,2317.45 1783.00,2317.45
             1783.00,2317.45 1808.00,2312.51 1808.00,2312.51
             1808.00,2312.51 1814.00,2311.32 1814.00,2311.32
             1814.00,2311.32 1837.00,2300.00 1837.00,2300.00
             1845.02,2295.45 1852.79,2291.45 1860.00,2285.54
             1873.88,2274.15 1886.96,2253.65 1885.91,2235.00
             1885.15,2221.58 1879.30,2195.64 1871.10,2185.11
             1866.61,2179.34 1861.85,2182.05 1859.03,2176.89
             1856.66,2172.57 1859.86,2168.11 1863.04,2165.33
             1870.46,2158.83 1880.96,2158.35 1890.00,2155.66
             1902.81,2151.83 1921.70,2148.02 1935.00,2148.00
             1935.00,2148.00 1972.00,2149.00 1972.00,2149.00
             1972.00,2149.00 1994.00,2151.00 1994.00,2151.00
             2007.90,2151.16 2021.48,2154.58 2034.00,2160.76
             2036.60,2162.04 2046.06,2166.36 2043.83,2170.40
             2042.25,2173.27 2032.71,2171.52 2030.00,2171.08
             2030.00,2171.08 1989.00,2167.00 1989.00,2167.00
             1989.00,2167.00 1953.00,2167.00 1953.00,2167.00
             1953.00,2167.00 1938.00,2166.00 1938.00,2166.00
             1927.18,2165.88 1906.38,2168.89 1896.00,2171.93
             1896.00,2171.93 1888.00,2175.03 1888.00,2175.03
             1888.00,2175.03 1878.00,2178.00 1878.00,2178.00
             1878.00,2178.00 1878.00,2180.00 1878.00,2180.00 Z
           M 1490.00,2189.44
           C 1500.17,2188.13 1511.83,2187.94 1519.83,2195.33
             1523.28,2198.52 1532.53,2210.39 1523.89,2213.16
             1520.28,2214.31 1515.09,2210.55 1512.00,2208.86
             1505.43,2205.28 1503.31,2205.01 1496.00,2205.00
             1496.00,2205.00 1485.00,2205.00 1485.00,2205.00
             1477.65,2205.04 1477.33,2205.88 1471.00,2206.71
             1471.00,2206.71 1447.00,2208.96 1447.00,2208.96
             1447.00,2208.96 1435.06,2209.65 1435.06,2209.65
             1433.04,2209.19 1431.11,2207.63 1432.17,2205.37
             1433.59,2202.35 1443.72,2199.79 1447.00,2198.86
             1447.00,2198.86 1477.00,2191.46 1477.00,2191.46
             1477.00,2191.46 1490.00,2189.44 1490.00,2189.44 Z
           M 1538.28,2190.02
           C 1541.57,2188.84 1544.91,2188.65 1546.98,2192.15
             1548.47,2194.66 1547.80,2199.06 1548.13,2202.00
             1548.13,2202.00 1549.74,2209.00 1549.74,2209.00
             1549.74,2209.00 1551.41,2222.00 1551.41,2222.00
             1551.92,2224.73 1554.32,2233.13 1551.41,2234.85
             1547.55,2237.11 1541.49,2228.58 1539.75,2226.00
             1537.99,2223.40 1535.49,2218.99 1534.63,2216.00
             1532.85,2209.71 1533.46,2194.64 1538.28,2190.02 Z
           M 813.00,2989.00
           C 813.00,2989.00 926.00,2989.00 926.00,2989.00
             926.00,2989.00 926.00,3156.00 926.00,3156.00
             926.00,3156.00 1095.00,3156.00 1095.00,3156.00
             1095.00,3156.00 1095.00,3270.00 1095.00,3270.00
             1095.00,3270.00 926.00,3270.00 926.00,3270.00
             926.00,3270.00 926.00,3437.00 926.00,3437.00
             926.00,3437.00 813.00,3437.00 813.00,3437.00
             813.00,3437.00 813.00,3270.00 813.00,3270.00
             813.00,3270.00 644.00,3270.00 644.00,3270.00
             644.00,3270.00 644.00,3156.00 644.00,3156.00
             644.00,3156.00 813.00,3156.00 813.00,3156.00
             813.00,3156.00 813.00,2989.00 813.00,2989.00 Z
           M 2566.00,3027.00
           C 2566.00,3027.00 2679.00,3027.00 2679.00,3027.00
             2679.00,3027.00 2679.00,3194.00 2679.00,3194.00
             2679.00,3194.00 2848.00,3194.00 2848.00,3194.00
             2848.00,3194.00 2848.00,3308.00 2848.00,3308.00
             2848.00,3308.00 2679.00,3308.00 2679.00,3308.00
             2679.00,3308.00 2679.00,3475.00 2679.00,3475.00
             2679.00,3475.00 2566.00,3475.00 2566.00,3475.00
             2566.00,3475.00 2566.00,3308.00 2566.00,3308.00
             2566.00,3308.00 2397.00,3308.00 2397.00,3308.00
             2397.00,3308.00 2397.00,3194.00 2397.00,3194.00
             2397.00,3194.00 2566.00,3194.00 2566.00,3194.00
             2566.00,3194.00 2566.00,3027.00 2566.00,3027.00 Z" />
</svg>
