<?xml version="1.0" encoding="UTF-8" standalone="no"?>
<!DOCTYPE svg PUBLIC "-//W3C//DTD SVG 20010904//EN"
              "http://www.w3.org/TR/2001/REC-SVG-20010904/DTD/svg10.dtd">

<svg xmlns="http://www.w3.org/2000/svg"
     width="11in" height="14in"
     viewBox="0 0 3300 4200">
  <path id="12 - floof fix (if needed)"
        fill="none" stroke="black" stroke-width="1"
        d="M 1069.00,2542.00
           C 1068.99,2544.69 1069.08,2547.36 1068.47,2550.00
             1064.89,2565.62 1046.22,2582.42 1033.00,2590.40
             1021.39,2597.40 1013.78,2600.00 1001.00,2603.72
             1001.00,2603.72 985.00,2607.79 985.00,2607.79
             963.64,2610.76 944.91,2605.13 930.09,2589.00
             925.83,2584.36 921.33,2577.02 919.38,2571.00
             916.08,2560.85 915.86,2558.54 916.00,2548.00
             916.09,2541.62 916.89,2541.71 918.34,2536.00
             923.42,2515.93 935.19,2499.73 951.00,2486.59
             966.68,2473.56 988.04,2462.96 1008.00,2458.46
             1008.00,2458.46 1016.00,2457.68 1016.00,2457.68
             1023.75,2456.42 1027.65,2455.01 1036.00,2455.00
             1046.99,2454.98 1050.56,2455.97 1061.00,2457.68
             1061.00,2457.68 1068.00,2458.38 1068.00,2458.38
             1068.00,2458.38 1075.00,2460.49 1075.00,2460.49
             1088.78,2464.08 1098.53,2468.16 1111.00,2475.09
             1148.08,2495.71 1174.03,2531.17 1184.66,2572.00
             1186.88,2580.54 1189.99,2593.35 1190.00,2602.00
             1190.00,2602.00 1190.00,2633.00 1190.00,2633.00
             1189.91,2640.55 1188.62,2641.54 1187.37,2648.00
             1187.37,2648.00 1186.39,2655.00 1186.39,2655.00
             1185.56,2658.30 1183.80,2661.42 1184.18,2664.98
             1184.81,2670.75 1189.41,2670.08 1195.83,2675.67
             1202.35,2681.34 1206.49,2690.27 1205.82,2699.00
             1204.60,2714.76 1184.63,2724.77 1172.00,2731.00
             1177.97,2723.04 1192.56,2714.24 1193.87,2704.00
             1194.75,2697.15 1192.78,2690.78 1186.98,2686.65
             1184.71,2685.03 1181.07,2683.40 1178.41,2685.04
             1175.95,2686.56 1174.21,2692.30 1173.01,2695.00
             1173.01,2695.00 1162.38,2715.00 1162.38,2715.00
             1152.87,2732.42 1140.85,2745.15 1127.00,2759.00
             1122.58,2763.42 1113.61,2773.01 1108.00,2775.15
             1104.36,2776.54 1099.70,2775.19 1096.00,2774.35
             1096.00,2774.35 1074.00,2770.00 1074.00,2770.00
             1076.11,2766.65 1092.29,2756.47 1097.00,2752.72
             1109.80,2742.49 1123.04,2728.36 1132.57,2715.00
             1146.93,2694.88 1154.51,2675.68 1160.51,2652.00
             1160.51,2652.00 1162.62,2645.00 1162.62,2645.00
             1162.62,2645.00 1163.17,2634.00 1163.17,2634.00
             1163.17,2634.00 1165.00,2619.00 1165.00,2619.00
             1165.12,2608.03 1164.58,2608.95 1163.29,2599.00
             1163.29,2599.00 1162.67,2589.00 1162.67,2589.00
             1162.67,2589.00 1160.61,2582.00 1160.61,2582.00
             1160.61,2582.00 1159.28,2575.00 1159.28,2575.00
             1152.07,2549.25 1137.05,2525.22 1116.00,2508.51
             1101.43,2496.95 1084.21,2488.38 1066.00,2484.69
             1058.06,2483.08 1061.38,2482.02 1051.00,2482.00
             1051.00,2482.00 1026.00,2482.00 1026.00,2482.00
             1010.58,2482.02 985.38,2492.02 973.00,2501.16
             957.12,2512.87 940.68,2531.92 942.18,2553.00
             942.38,2555.83 943.18,2562.56 944.21,2565.00
             951.60,2582.54 968.32,2585.19 985.00,2585.00
             985.00,2585.00 994.00,2583.98 994.00,2583.98
             994.00,2583.98 1004.00,2583.98 1004.00,2583.98
             1004.00,2583.98 1011.00,2581.92 1011.00,2581.92
             1011.00,2581.92 1020.00,2579.82 1020.00,2579.82
             1031.72,2576.13 1048.10,2566.33 1056.96,2557.93
             1065.41,2549.92 1064.13,2548.12 1069.00,2542.00 Z
           M 2187.00,2730.00
           C 2179.81,2727.73 2164.20,2717.62 2159.33,2711.96
             2156.77,2709.00 2153.70,2702.92 2153.35,2699.00
             2153.01,2695.15 2155.94,2686.39 2157.88,2683.00
             2160.06,2679.19 2162.36,2676.41 2166.00,2673.91
             2170.60,2670.76 2176.66,2670.04 2175.61,2663.00
             2175.61,2663.00 2173.92,2657.00 2173.92,2657.00
             2173.92,2657.00 2171.37,2645.00 2171.37,2645.00
             2171.37,2645.00 2170.83,2633.00 2170.83,2633.00
             2169.97,2624.41 2168.98,2626.01 2169.00,2615.00
             2169.01,2607.43 2169.87,2605.05 2170.96,2598.00
             2170.96,2598.00 2170.96,2589.00 2170.96,2589.00
             2170.96,2589.00 2172.64,2583.00 2172.64,2583.00
             2177.79,2558.63 2186.94,2534.81 2202.52,2515.00
             2224.91,2486.52 2255.86,2467.00 2291.00,2458.60
             2291.00,2458.60 2299.00,2457.63 2299.00,2457.63
             2311.07,2455.35 2313.48,2454.86 2326.00,2455.00
             2332.54,2455.08 2337.74,2456.65 2344.00,2457.68
             2344.00,2457.68 2351.00,2458.38 2351.00,2458.38
             2351.00,2458.38 2358.00,2460.52 2358.00,2460.52
             2390.25,2469.54 2422.67,2490.50 2436.82,2522.00
             2440.29,2529.73 2443.90,2541.54 2444.00,2550.00
             2444.28,2574.53 2431.20,2593.67 2409.00,2603.67
             2401.52,2607.03 2394.31,2609.02 2386.00,2608.49
             2386.00,2608.49 2375.00,2607.79 2375.00,2607.79
             2375.00,2607.79 2359.00,2603.72 2359.00,2603.72
             2352.13,2601.74 2345.59,2599.98 2339.00,2597.01
             2321.57,2589.14 2299.70,2572.22 2292.76,2554.00
             2291.56,2550.84 2290.48,2545.40 2290.00,2542.00
             2290.00,2542.00 2302.09,2557.00 2302.09,2557.00
             2309.85,2564.70 2324.79,2574.25 2335.00,2578.24
             2349.83,2584.03 2366.24,2585.07 2382.00,2585.00
             2386.70,2584.98 2391.60,2584.61 2396.00,2582.82
             2400.22,2581.09 2405.62,2577.96 2408.91,2574.82
             2424.30,2560.09 2417.57,2534.96 2406.39,2520.00
             2404.04,2516.84 2400.81,2513.80 2398.00,2511.00
             2383.75,2496.77 2368.41,2489.18 2349.00,2484.50
             2340.97,2482.56 2343.23,2482.01 2334.00,2482.00
             2334.00,2482.00 2307.00,2482.00 2307.00,2482.00
             2299.81,2482.10 2300.82,2483.13 2295.00,2484.47
             2295.00,2484.47 2289.00,2485.45 2289.00,2485.45
             2281.70,2487.19 2274.75,2490.33 2268.00,2493.53
             2255.71,2499.36 2246.64,2505.37 2237.00,2515.00
             2224.06,2527.93 2218.83,2533.50 2210.31,2550.00
             2204.83,2560.61 2200.70,2572.29 2198.37,2584.00
             2198.37,2584.00 2196.91,2594.00 2196.91,2594.00
             2195.46,2601.70 2195.01,2599.08 2195.00,2608.00
             2195.00,2608.00 2195.00,2624.00 2195.00,2624.00
             2195.01,2633.33 2195.65,2630.89 2197.08,2639.00
             2197.08,2639.00 2198.37,2649.00 2198.37,2649.00
             2200.23,2658.70 2204.79,2672.89 2208.70,2682.00
             2218.80,2705.54 2235.05,2727.68 2254.00,2744.83
             2254.00,2744.83 2267.00,2755.99 2267.00,2755.99
             2267.00,2755.99 2281.00,2766.00 2281.00,2766.00
             2281.00,2766.00 2261.00,2772.69 2261.00,2772.69
             2258.58,2773.55 2254.48,2775.53 2252.00,2775.08
             2249.01,2774.53 2238.90,2765.06 2236.00,2762.57
             2221.75,2750.37 2204.17,2727.64 2195.23,2711.00
             2195.23,2711.00 2185.95,2693.00 2185.95,2693.00
             2184.73,2690.37 2183.51,2686.48 2180.86,2685.04
             2177.73,2683.33 2174.47,2685.11 2172.09,2687.23
             2166.79,2691.95 2165.38,2697.14 2166.11,2704.00
             2167.03,2712.70 2180.92,2723.57 2187.00,2730.00 Z
           M 1556.00,2810.00
           C 1556.00,2810.00 1576.00,2818.01 1576.00,2818.01
             1578.21,2818.92 1583.64,2820.95 1585.03,2822.70
             1585.03,2822.70 1592.58,2841.00 1592.58,2841.00
             1592.58,2841.00 1607.58,2890.00 1607.58,2890.00
             1607.58,2890.00 1616.25,2923.00 1616.25,2923.00
             1616.25,2923.00 1617.60,2930.00 1617.60,2930.00
             1617.60,2930.00 1619.48,2936.00 1619.48,2936.00
             1619.48,2936.00 1622.67,2952.00 1622.67,2952.00
             1622.67,2952.00 1624.68,2960.00 1624.68,2960.00
             1624.68,2960.00 1625.37,2966.00 1625.37,2966.00
             1625.37,2966.00 1627.56,2975.00 1627.56,2975.00
             1627.56,2975.00 1628.32,2982.00 1628.32,2982.00
             1628.32,2982.00 1630.06,2989.00 1630.06,2989.00
             1630.06,2989.00 1630.06,2997.00 1630.06,2997.00
             1630.06,2997.00 1633.00,3011.00 1633.00,3011.00
             1633.00,3011.00 1633.00,3022.00 1633.00,3022.00
             1633.81,3028.45 1634.96,3028.84 1635.00,3037.00
             1635.00,3037.00 1636.00,3055.00 1636.00,3055.00
             1636.00,3055.00 1636.00,3086.00 1636.00,3086.00
             1636.00,3086.00 1635.09,3098.00 1635.09,3098.00
             1634.59,3105.30 1634.83,3113.08 1632.00,3120.00
             1632.00,3120.00 1632.00,3106.00 1632.00,3106.00
             1632.00,3106.00 1631.00,3091.00 1631.00,3091.00
             1631.00,3091.00 1629.83,3070.00 1629.83,3070.00
             1629.83,3070.00 1627.94,3060.00 1627.94,3060.00
             1627.94,3060.00 1627.94,3051.00 1627.94,3051.00
             1627.94,3051.00 1625.46,3040.00 1625.46,3040.00
             1625.46,3040.00 1624.68,3032.00 1624.68,3032.00
             1624.68,3032.00 1620.32,3010.00 1620.32,3010.00
             1620.32,3010.00 1612.60,2973.00 1612.60,2973.00
             1612.60,2973.00 1611.39,2966.00 1611.39,2966.00
             1611.39,2966.00 1601.69,2931.00 1601.69,2931.00
             1594.90,2906.10 1582.85,2865.07 1572.96,2842.00
             1572.96,2842.00 1556.00,2810.00 1556.00,2810.00 Z
           M 1711.00,2878.00
           C 1711.00,2878.00 1747.00,2878.00 1747.00,2878.00
             1746.63,2880.08 1745.94,2882.93 1746.35,2885.00
             1747.12,2888.85 1758.84,2901.62 1762.13,2906.00
             1774.58,2922.60 1792.19,2949.40 1801.05,2968.00
             1809.84,2986.45 1816.72,3010.30 1822.71,3030.00
             1829.31,3051.72 1835.42,3073.68 1839.63,3096.00
             1839.63,3096.00 1840.46,3104.00 1840.46,3104.00
             1840.46,3104.00 1842.94,3114.00 1842.94,3114.00
             1842.94,3114.00 1842.94,3124.00 1842.94,3124.00
             1842.94,3124.00 1844.68,3131.00 1844.68,3131.00
             1844.68,3131.00 1846.04,3148.00 1846.04,3148.00
             1846.04,3148.00 1846.04,3162.00 1846.04,3162.00
             1846.04,3162.00 1847.00,3174.00 1847.00,3174.00
             1847.00,3174.00 1847.00,3208.00 1847.00,3208.00
             1847.00,3208.00 1846.04,3220.00 1846.04,3220.00
             1846.04,3220.00 1846.04,3236.00 1846.04,3236.00
             1846.04,3236.00 1844.71,3256.00 1844.71,3256.00
             1844.01,3261.41 1843.08,3262.85 1843.00,3269.00
             1842.84,3282.52 1841.72,3279.96 1840.05,3291.00
             1840.05,3291.00 1840.05,3299.00 1840.05,3299.00
             1840.05,3299.00 1838.32,3306.00 1838.32,3306.00
             1838.32,3306.00 1837.56,3314.00 1837.56,3314.00
             1837.56,3314.00 1835.32,3324.00 1835.32,3324.00
             1835.32,3324.00 1834.68,3331.00 1834.68,3331.00
             1834.68,3331.00 1830.37,3352.00 1830.37,3352.00
             1830.37,3352.00 1829.32,3359.00 1829.32,3359.00
             1829.32,3359.00 1827.37,3366.00 1827.37,3366.00
             1827.37,3366.00 1826.49,3373.00 1826.49,3373.00
             1826.49,3373.00 1819.51,3404.00 1819.51,3404.00
             1819.51,3404.00 1816.54,3420.00 1816.54,3420.00
             1816.54,3420.00 1814.37,3428.00 1814.37,3428.00
             1814.37,3428.00 1808.33,3458.00 1808.33,3458.00
             1808.33,3458.00 1787.54,3559.00 1787.54,3559.00
             1787.54,3559.00 1785.51,3567.00 1785.51,3567.00
             1785.51,3567.00 1784.54,3576.00 1784.54,3576.00
             1782.55,3587.31 1779.89,3595.22 1782.00,3607.00
             1770.33,3599.50 1771.98,3580.27 1772.00,3568.00
             1772.00,3568.00 1774.94,3544.00 1774.94,3544.00
             1774.94,3544.00 1774.94,3533.00 1774.94,3533.00
             1774.94,3533.00 1776.70,3525.00 1776.70,3525.00
             1776.70,3525.00 1777.43,3517.00 1777.43,3517.00
             1777.43,3517.00 1779.79,3506.00 1779.79,3506.00
             1779.79,3506.00 1780.32,3499.00 1780.32,3499.00
             1780.32,3499.00 1782.38,3490.00 1782.38,3490.00
             1782.38,3490.00 1785.46,3471.00 1785.46,3471.00
             1785.46,3471.00 1787.68,3462.00 1787.68,3462.00
             1787.68,3462.00 1788.32,3456.00 1788.32,3456.00
             1788.32,3456.00 1792.63,3436.00 1792.63,3436.00
             1792.63,3436.00 1793.51,3429.00 1793.51,3429.00
             1793.51,3429.00 1795.54,3421.00 1795.54,3421.00
             1795.54,3421.00 1798.46,3403.00 1798.46,3403.00
             1798.46,3403.00 1803.56,3378.00 1803.56,3378.00
             1803.56,3378.00 1805.79,3366.00 1805.79,3366.00
             1805.79,3366.00 1806.46,3359.00 1806.46,3359.00
             1806.46,3359.00 1808.68,3350.00 1808.68,3350.00
             1808.68,3350.00 1809.32,3343.00 1809.32,3343.00
             1809.32,3343.00 1813.68,3321.00 1813.68,3321.00
             1813.68,3321.00 1814.30,3314.00 1814.30,3314.00
             1814.30,3314.00 1816.70,3303.00 1816.70,3303.00
             1816.70,3303.00 1817.32,3294.00 1817.32,3294.00
             1817.32,3294.00 1818.68,3288.00 1818.68,3288.00
             1818.68,3288.00 1822.08,3259.00 1822.08,3259.00
             1822.08,3259.00 1822.08,3246.00 1822.08,3246.00
             1822.08,3246.00 1824.04,3227.00 1824.04,3227.00
             1824.04,3227.00 1824.04,3212.00 1824.04,3212.00
             1824.04,3212.00 1825.00,3200.00 1825.00,3200.00
             1825.00,3200.00 1825.00,3177.00 1825.00,3177.00
             1825.00,3177.00 1824.04,3165.00 1824.04,3165.00
             1824.04,3165.00 1824.04,3152.00 1824.04,3152.00
             1824.04,3152.00 1822.00,3132.00 1822.00,3132.00
             1821.87,3120.30 1819.57,3108.46 1817.37,3097.00
             1817.37,3097.00 1816.48,3090.00 1816.48,3090.00
             1816.48,3090.00 1814.52,3083.00 1814.52,3083.00
             1814.52,3083.00 1813.40,3076.00 1813.40,3076.00
             1813.40,3076.00 1798.76,3024.00 1798.76,3024.00
             1798.76,3024.00 1785.91,2986.00 1785.91,2986.00
             1785.91,2986.00 1782.06,2976.00 1782.06,2976.00
             1771.30,2953.35 1750.50,2922.36 1734.54,2903.00
             1734.54,2903.00 1711.00,2878.00 1711.00,2878.00 Z
           M 813.00,2989.00
           C 813.00,2989.00 926.00,2989.00 926.00,2989.00
             926.00,2989.00 926.00,3156.00 926.00,3156.00
             926.00,3156.00 1095.00,3156.00 1095.00,3156.00
             1095.00,3156.00 1095.00,3270.00 1095.00,3270.00
             1095.00,3270.00 926.00,3270.00 926.00,3270.00
             926.00,3270.00 926.00,3437.00 926.00,3437.00
             926.00,3437.00 813.00,3437.00 813.00,3437.00
             813.00,3437.00 813.00,3270.00 813.00,3270.00
             813.00,3270.00 644.00,3270.00 644.00,3270.00
             644.00,3270.00 644.00,3156.00 644.00,3156.00
             644.00,3156.00 813.00,3156.00 813.00,3156.00
             813.00,3156.00 813.00,2989.00 813.00,2989.00 Z
           M 1362.00,3012.00
           C 1361.23,3016.10 1358.05,3019.61 1355.72,3023.00
             1355.72,3023.00 1345.00,3040.00 1345.00,3040.00
             1334.71,3057.12 1323.90,3078.52 1316.30,3097.00
             1305.89,3122.34 1296.33,3155.29 1289.59,3182.00
             1289.59,3182.00 1282.04,3214.00 1282.04,3214.00
             1280.47,3219.56 1281.55,3222.01 1278.00,3227.00
             1275.95,3219.42 1268.29,3205.43 1268.13,3199.00
             1268.06,3195.88 1271.37,3186.61 1272.50,3183.00
             1272.50,3183.00 1283.42,3150.00 1283.42,3150.00
             1300.09,3101.04 1325.54,3049.26 1362.00,3012.00 Z
           M 2566.00,3027.00
           C 2566.00,3027.00 2679.00,3027.00 2679.00,3027.00
             2679.00,3027.00 2679.00,3194.00 2679.00,3194.00
             2679.00,3194.00 2848.00,3194.00 2848.00,3194.00
             2848.00,3194.00 2848.00,3308.00 2848.00,3308.00
             2848.00,3308.00 2679.00,3308.00 2679.00,3308.00
             2679.00,3308.00 2679.00,3475.00 2679.00,3475.00
             2679.00,3475.00 2566.00,3475.00 2566.00,3475.00
             2566.00,3475.00 2566.00,3308.00 2566.00,3308.00
             2566.00,3308.00 2397.00,3308.00 2397.00,3308.00
             2397.00,3308.00 2397.00,3194.00 2397.00,3194.00
             2397.00,3194.00 2566.00,3194.00 2566.00,3194.00
             2566.00,3194.00 2566.00,3027.00 2566.00,3027.00 Z
           M 2159.00,3091.00
           C 2176.47,3094.27 2187.86,3109.85 2195.04,3125.00
             2202.16,3140.00 2206.80,3155.92 2210.67,3172.00
             2210.67,3172.00 2212.63,3179.00 2212.63,3179.00
             2212.63,3179.00 2213.32,3186.00 2213.32,3186.00
             2213.32,3186.00 2215.94,3198.00 2215.94,3198.00
             2215.94,3198.00 2215.94,3206.00 2215.94,3206.00
             2215.94,3206.00 2218.06,3215.00 2218.06,3215.00
             2218.06,3215.00 2218.06,3229.00 2218.06,3229.00
             2218.06,3229.00 2218.06,3242.00 2218.06,3242.00
             2216.76,3247.01 2203.52,3259.76 2199.00,3263.00
             2200.32,3253.00 2200.05,3243.08 2200.00,3233.00
             2200.00,3233.00 2197.00,3206.00 2197.00,3206.00
             2197.00,3206.00 2197.00,3197.00 2197.00,3197.00
             2197.00,3197.00 2195.30,3189.00 2195.30,3189.00
             2195.30,3189.00 2194.70,3180.00 2194.70,3180.00
             2194.70,3180.00 2192.46,3170.00 2192.46,3170.00
             2192.46,3170.00 2191.68,3163.00 2191.68,3163.00
             2189.06,3147.29 2182.77,3124.91 2175.21,3111.00
             2169.71,3100.89 2164.45,3098.47 2159.00,3091.00 Z
           M 2033.00,3547.00
           C 2033.00,3547.00 2043.66,3531.00 2043.66,3531.00
             2051.25,3517.73 2057.99,3497.86 2061.59,3483.00
             2063.94,3473.29 2065.88,3467.12 2066.00,3457.00
             2066.00,3457.00 2066.96,3443.00 2066.96,3443.00
             2066.96,3443.00 2066.00,3428.00 2066.00,3428.00
             2065.93,3422.29 2064.26,3416.66 2063.42,3411.00
             2060.98,3394.58 2056.84,3379.07 2049.70,3364.00
             2041.06,3345.77 2030.16,3331.90 2016.72,3317.01
             2007.97,3307.33 1982.79,3286.95 1971.00,3281.18
             1971.00,3281.18 1954.00,3273.52 1954.00,3273.52
             1951.77,3272.28 1948.63,3270.51 1947.84,3267.90
             1946.81,3264.47 1949.64,3261.14 1953.02,3260.75
             1955.78,3260.44 1966.96,3263.53 1970.00,3264.58
             1987.33,3270.53 2011.75,3289.36 2025.00,3302.04
             2054.56,3330.32 2074.23,3365.75 2081.54,3406.00
             2081.54,3406.00 2082.32,3413.00 2082.32,3413.00
             2084.08,3423.58 2086.02,3434.21 2086.00,3445.00
             2085.96,3470.31 2077.48,3498.58 2068.27,3522.00
             2068.27,3522.00 2060.00,3541.00 2060.00,3541.00
             2060.00,3541.00 2033.00,3547.00 2033.00,3547.00 Z
           M 1407.00,3383.00
           C 1414.68,3390.56 1413.78,3398.50 1415.46,3408.00
             1415.46,3408.00 1418.28,3429.00 1418.28,3429.00
             1418.28,3429.00 1420.00,3439.00 1420.00,3439.00
             1420.00,3439.00 1420.00,3449.00 1420.00,3449.00
             1420.00,3449.00 1423.00,3470.00 1423.00,3470.00
             1423.13,3481.71 1423.94,3479.07 1424.83,3488.00
             1424.83,3488.00 1426.17,3508.00 1426.17,3508.00
             1426.98,3516.11 1427.95,3514.34 1428.00,3525.00
             1428.00,3525.00 1431.07,3546.00 1431.07,3546.00
             1431.07,3546.00 1431.07,3556.00 1431.07,3556.00
             1431.07,3556.00 1436.00,3595.00 1436.00,3595.00
             1436.00,3595.00 1438.58,3612.00 1438.58,3612.00
             1438.58,3612.00 1441.32,3634.00 1441.32,3634.00
             1441.32,3634.00 1443.48,3642.00 1443.48,3642.00
             1446.72,3656.92 1451.03,3681.57 1457.00,3695.00
             1457.00,3695.00 1437.00,3684.58 1437.00,3684.58
             1437.00,3684.58 1428.99,3679.37 1428.99,3679.37
             1428.99,3679.37 1427.63,3673.00 1427.63,3673.00
             1427.63,3673.00 1424.72,3660.00 1424.72,3660.00
             1424.72,3660.00 1419.68,3633.00 1419.68,3633.00
             1419.68,3633.00 1418.01,3626.00 1418.01,3626.00
             1418.01,3626.00 1418.01,3617.00 1418.01,3617.00
             1418.01,3617.00 1415.00,3593.00 1415.00,3593.00
             1415.00,3593.00 1412.96,3573.00 1412.96,3573.00
             1412.96,3573.00 1412.96,3558.00 1412.96,3558.00
             1412.96,3558.00 1412.00,3546.00 1412.00,3546.00
             1412.00,3546.00 1412.00,3524.00 1412.00,3524.00
             1412.00,3524.00 1411.00,3504.00 1411.00,3504.00
             1411.00,3504.00 1410.00,3491.00 1410.00,3491.00
             1410.00,3491.00 1410.00,3445.00 1410.00,3445.00
             1410.00,3445.00 1408.00,3410.00 1408.00,3410.00
             1408.00,3410.00 1407.00,3383.00 1407.00,3383.00 Z" />
</svg>
