<?xml version="1.0" encoding="UTF-8" standalone="no"?>
<!DOCTYPE svg PUBLIC "-//W3C//DTD SVG 20010904//EN"
              "http://www.w3.org/TR/2001/REC-SVG-20010904/DTD/svg10.dtd">

<svg xmlns="http://www.w3.org/2000/svg"
     width="11in" height="14in"
     viewBox="0 0 3300 4200">
  <path id="2 - floof"
        fill="none" stroke="black" stroke-width="1"
        d="M 837.00,2205.00
           C 826.50,2201.51 817.63,2189.41 814.63,2179.00
             813.35,2174.57 812.95,2167.65 813.00,2163.00
             813.13,2152.19 817.66,2134.88 823.84,2126.00
             830.65,2116.21 846.93,2107.16 859.00,2107.00
             859.00,2107.00 875.00,2107.00 875.00,2107.00
             883.74,2107.01 892.14,2109.88 900.00,2113.61
             925.58,2125.75 942.61,2148.11 950.47,2175.00
             952.76,2182.80 954.99,2190.82 955.00,2199.00
             955.00,2199.00 955.00,2229.00 955.00,2229.00
             954.96,2237.52 952.60,2245.89 950.33,2254.00
             941.14,2286.94 920.92,2314.09 892.00,2332.32
             880.92,2339.30 871.56,2342.36 859.00,2345.37
             853.12,2346.78 854.57,2347.90 847.00,2348.00
             847.00,2348.00 813.00,2348.00 813.00,2348.00
             804.90,2347.99 796.71,2345.40 789.00,2342.95
             753.11,2331.54 729.03,2306.64 713.17,2273.00
             713.17,2273.00 706.50,2256.00 706.50,2256.00
             702.24,2244.92 700.74,2237.45 698.53,2226.00
             698.53,2226.00 696.02,2217.00 696.02,2217.00
             696.02,2217.00 696.02,2210.00 696.02,2210.00
             696.02,2210.00 694.30,2202.00 694.30,2202.00
             694.30,2202.00 693.00,2183.00 693.00,2183.00
             693.00,2183.00 693.00,2134.00 693.00,2134.00
             693.00,2134.00 694.18,2114.00 694.18,2114.00
             694.18,2114.00 696.01,2106.00 696.01,2106.00
             696.01,2106.00 696.01,2095.00 696.01,2095.00
             696.01,2095.00 698.70,2085.00 698.70,2085.00
             698.70,2085.00 699.21,2078.00 699.21,2078.00
             699.21,2078.00 703.63,2057.00 703.63,2057.00
             710.62,2022.30 721.10,1988.36 732.99,1955.00
             747.09,1915.41 763.96,1873.86 787.61,1839.00
             787.61,1839.00 804.50,1815.00 804.50,1815.00
             806.29,1812.66 809.87,1807.81 812.94,1807.45
             816.14,1807.07 817.52,1810.58 818.47,1813.00
             818.47,1813.00 826.18,1833.00 826.18,1833.00
             837.00,1857.50 855.17,1887.53 872.32,1908.00
             872.32,1908.00 879.83,1916.00 879.83,1916.00
             879.83,1916.00 888.09,1926.00 888.09,1926.00
             904.67,1943.89 923.39,1959.29 943.00,1973.68
             943.00,1973.68 966.00,1988.60 966.00,1988.60
             968.72,1990.40 972.98,1992.54 973.64,1996.00
             974.48,2000.47 967.11,2004.98 963.99,2007.29
             953.49,2015.08 941.22,2025.78 932.00,2035.00
             932.00,2035.00 900.42,2068.72 900.42,2068.72
             898.19,2071.40 890.29,2081.37 887.82,2082.40
             886.09,2083.12 882.91,2083.00 881.00,2083.00
             868.52,2083.02 859.29,2082.11 847.00,2085.63
             839.52,2087.77 832.28,2091.86 826.00,2096.38
             809.04,2108.59 803.74,2117.77 799.91,2138.00
             798.82,2143.75 798.08,2143.54 798.00,2150.00
             798.00,2150.00 798.00,2160.00 798.00,2160.00
             798.18,2173.13 807.97,2189.48 818.00,2197.52
             823.22,2201.70 830.10,2206.58 837.00,2205.00 Z
           M 2523.00,2206.00
           C 2542.95,2204.63 2561.74,2178.02 2562.00,2159.00
             2562.16,2146.37 2559.42,2128.15 2553.36,2117.00
             2545.93,2103.33 2527.92,2090.05 2513.00,2085.78
             2499.59,2081.95 2492.54,2083.03 2479.00,2083.00
             2467.85,2082.98 2470.62,2081.30 2460.71,2070.00
             2460.71,2070.00 2433.00,2040.00 2433.00,2040.00
             2422.53,2029.53 2411.68,2019.55 2400.00,2010.42
             2396.70,2007.85 2388.46,2002.96 2389.35,1998.17
             2389.96,1994.90 2396.26,1991.77 2399.00,1990.05
             2399.00,1990.05 2425.00,1972.83 2425.00,1972.83
             2452.19,1954.12 2480.86,1926.31 2500.87,1900.00
             2515.82,1880.34 2528.52,1859.33 2539.06,1837.00
             2539.06,1837.00 2546.09,1820.00 2546.09,1820.00
             2546.94,1817.85 2547.57,1814.86 2550.22,1814.35
             2554.06,1813.61 2556.76,1817.35 2558.70,1820.00
             2558.70,1820.00 2573.28,1841.00 2573.28,1841.00
             2593.10,1869.51 2609.49,1907.32 2621.39,1940.00
             2635.57,1978.93 2648.65,2018.32 2656.47,2059.00
             2656.47,2059.00 2658.63,2067.00 2658.63,2067.00
             2658.63,2067.00 2659.32,2074.00 2659.32,2074.00
             2659.32,2074.00 2661.56,2084.00 2661.56,2084.00
             2661.56,2084.00 2662.37,2092.00 2662.37,2092.00
             2662.37,2092.00 2663.79,2098.00 2663.79,2098.00
             2663.79,2098.00 2664.43,2109.00 2664.43,2109.00
             2665.48,2116.32 2666.96,2119.26 2667.00,2127.00
             2667.00,2127.00 2667.00,2188.00 2667.00,2188.00
             2666.98,2198.75 2665.43,2198.19 2664.04,2207.00
             2664.04,2207.00 2664.04,2215.00 2664.04,2215.00
             2664.04,2215.00 2662.37,2221.00 2662.37,2221.00
             2662.37,2221.00 2661.48,2228.00 2661.48,2228.00
             2661.48,2228.00 2656.51,2246.00 2656.51,2246.00
             2643.09,2290.86 2617.35,2328.21 2571.00,2342.95
             2563.47,2345.35 2553.85,2347.99 2546.00,2348.00
             2546.00,2348.00 2516.00,2348.00 2516.00,2348.00
             2508.11,2347.99 2499.56,2345.54 2492.00,2343.19
             2456.79,2332.23 2427.41,2302.09 2414.09,2268.00
             2410.46,2258.72 2405.02,2240.70 2405.00,2231.00
             2405.00,2231.00 2404.03,2215.00 2404.03,2215.00
             2404.03,2215.00 2404.96,2206.00 2404.96,2206.00
             2404.96,2206.00 2404.96,2195.00 2404.96,2195.00
             2405.09,2188.14 2406.19,2188.12 2407.55,2182.00
             2412.62,2159.28 2422.94,2140.41 2441.00,2125.41
             2452.72,2115.67 2469.45,2107.03 2485.00,2107.00
             2485.00,2107.00 2501.00,2107.00 2501.00,2107.00
             2512.75,2107.20 2528.41,2115.78 2535.45,2125.01
             2542.18,2133.87 2547.39,2154.84 2546.96,2166.00
             2546.46,2178.95 2541.85,2190.95 2531.96,2199.70
             2529.22,2202.12 2526.01,2203.95 2523.00,2206.00 Z
           M 1068.00,2542.00
           C 1064.76,2553.34 1056.27,2559.94 1047.00,2566.41
             1023.85,2582.57 1003.48,2585.32 976.00,2585.00
             962.80,2584.84 948.45,2578.21 943.81,2565.00
             943.21,2563.30 942.21,2555.07 942.09,2553.00
             940.77,2529.66 959.06,2508.45 978.00,2497.09
             985.10,2492.83 991.34,2490.47 999.00,2487.68
             1006.75,2484.86 1016.78,2482.01 1025.00,2482.00
             1025.00,2482.00 1052.00,2482.00 1052.00,2482.00
             1062.70,2482.02 1082.19,2488.32 1092.00,2493.06
             1127.84,2510.37 1152.04,2541.19 1160.37,2580.00
             1160.37,2580.00 1162.92,2588.00 1162.92,2588.00
             1162.92,2588.00 1162.92,2597.00 1162.92,2597.00
             1162.92,2597.00 1165.00,2611.00 1165.00,2611.00
             1165.00,2611.00 1165.00,2620.00 1165.00,2620.00
             1164.92,2626.20 1163.98,2628.38 1163.04,2634.00
             1163.04,2634.00 1163.04,2645.00 1163.04,2645.00
             1163.04,2645.00 1157.92,2663.00 1157.92,2663.00
             1143.55,2715.50 1102.52,2758.46 1053.00,2779.83
             1040.44,2785.25 1027.26,2788.53 1014.00,2791.51
             1014.00,2791.51 1006.00,2793.92 1006.00,2793.92
             1006.00,2793.92 996.00,2793.92 996.00,2793.92
             988.90,2794.88 988.96,2795.99 980.00,2796.00
             980.00,2796.00 955.00,2796.00 955.00,2796.00
             946.55,2795.96 947.24,2794.84 941.00,2793.98
             941.00,2793.98 933.00,2793.98 933.00,2793.98
             933.00,2793.98 925.00,2791.68 925.00,2791.68
             925.00,2791.68 911.00,2788.63 911.00,2788.63
             894.65,2783.96 874.78,2773.32 861.00,2763.44
             814.79,2730.30 786.40,2676.61 774.48,2622.00
             774.48,2622.00 772.52,2615.00 772.52,2615.00
             772.52,2615.00 769.57,2595.00 769.57,2595.00
             768.48,2587.50 767.04,2587.06 767.00,2579.00
             767.00,2579.00 767.00,2573.00 767.00,2573.00
             767.00,2573.00 765.00,2550.00 765.00,2550.00
             765.00,2550.00 765.00,2508.00 765.00,2508.00
             765.00,2508.00 766.96,2488.00 766.96,2488.00
             766.96,2488.00 766.96,2472.00 766.96,2472.00
             766.96,2472.00 770.01,2452.00 770.01,2452.00
             770.01,2452.00 770.01,2444.00 770.01,2444.00
             770.01,2444.00 771.82,2436.00 771.82,2436.00
             771.82,2436.00 772.32,2427.00 772.32,2427.00
             772.32,2427.00 774.68,2418.00 774.68,2418.00
             774.68,2418.00 775.21,2411.00 775.21,2411.00
             775.21,2411.00 779.14,2392.00 779.14,2392.00
             779.14,2392.00 780.52,2383.00 780.52,2383.00
             780.52,2383.00 782.68,2375.00 782.68,2375.00
             783.05,2372.87 782.77,2369.45 784.60,2368.01
             786.61,2366.45 789.82,2367.41 792.00,2368.01
             792.00,2368.01 808.00,2371.99 808.00,2371.99
             808.00,2371.99 817.00,2371.99 817.00,2371.99
             817.00,2371.99 831.00,2373.49 831.00,2373.49
             831.00,2373.49 852.00,2371.68 852.00,2371.68
             852.00,2371.68 865.00,2368.56 865.00,2368.56
             918.03,2355.78 960.59,2307.69 974.34,2256.00
             976.95,2246.23 979.98,2236.23 980.00,2226.00
             980.00,2226.00 980.00,2200.00 980.00,2200.00
             979.91,2192.56 978.67,2191.47 977.37,2185.00
             972.34,2160.05 960.82,2135.49 942.96,2117.00
             936.90,2110.73 923.69,2100.37 916.00,2096.14
             912.39,2094.16 906.16,2092.01 906.42,2087.00
             906.61,2083.33 911.25,2078.73 913.58,2076.00
             913.58,2076.00 932.83,2054.00 932.83,2054.00
             945.20,2040.32 958.56,2026.97 973.00,2015.49
             977.26,2012.10 983.53,2004.87 989.00,2004.26
             992.45,2003.89 995.93,2005.84 999.00,2007.22
             999.00,2007.22 1020.00,2017.15 1020.00,2017.15
             1020.00,2017.15 1035.00,2022.74 1035.00,2022.74
             1037.21,2023.46 1041.64,2024.55 1042.96,2026.55
             1044.90,2029.48 1041.77,2034.32 1040.42,2037.00
             1036.72,2044.34 1031.67,2056.18 1029.28,2064.00
             1029.28,2064.00 1018.62,2106.00 1018.62,2106.00
             1018.62,2106.00 1017.68,2115.00 1017.68,2115.00
             1016.82,2120.23 1016.08,2119.59 1015.92,2126.00
             1015.92,2126.00 1015.92,2136.00 1015.92,2136.00
             1015.92,2136.00 1014.00,2151.00 1014.00,2151.00
             1014.00,2151.00 1014.00,2174.00 1014.00,2174.00
             1014.00,2174.00 1016.01,2188.00 1016.01,2188.00
             1016.01,2188.00 1016.01,2199.00 1016.01,2199.00
             1016.01,2199.00 1017.68,2206.00 1017.68,2206.00
             1017.68,2206.00 1018.47,2213.00 1018.47,2213.00
             1018.47,2213.00 1020.40,2220.00 1020.40,2220.00
             1020.40,2220.00 1021.61,2227.00 1021.61,2227.00
             1027.62,2250.43 1037.13,2273.92 1049.04,2295.00
             1084.44,2357.69 1146.21,2407.69 1206.00,2446.21
             1237.29,2466.37 1269.29,2485.63 1303.00,2501.53
             1303.00,2501.53 1334.00,2515.60 1334.00,2515.60
             1337.95,2517.22 1346.61,2520.01 1348.92,2523.26
             1352.11,2527.77 1353.50,2543.02 1354.62,2549.00
             1354.62,2549.00 1356.79,2558.00 1356.79,2558.00
             1356.79,2558.00 1357.51,2566.00 1357.51,2566.00
             1357.51,2566.00 1359.70,2575.00 1359.70,2575.00
             1359.70,2575.00 1360.30,2584.00 1360.30,2584.00
             1361.53,2592.60 1361.99,2591.45 1362.00,2601.00
             1362.00,2601.00 1363.00,2618.00 1363.00,2618.00
             1363.00,2618.00 1363.00,2635.00 1363.00,2635.00
             1363.00,2635.00 1362.04,2647.00 1362.04,2647.00
             1362.04,2647.00 1362.04,2659.00 1362.04,2659.00
             1361.96,2667.43 1360.84,2666.76 1359.94,2673.00
             1359.94,2673.00 1359.94,2683.00 1359.94,2683.00
             1359.94,2683.00 1357.32,2695.00 1357.32,2695.00
             1357.32,2695.00 1356.68,2704.00 1356.68,2704.00
             1356.68,2704.00 1351.56,2725.00 1351.56,2725.00
             1348.63,2734.01 1344.53,2742.46 1340.47,2751.00
             1335.62,2761.22 1329.71,2772.23 1322.54,2781.00
             1314.72,2790.55 1301.51,2802.90 1291.00,2809.34
             1251.06,2833.82 1199.54,2832.46 1157.00,2815.74
             1142.61,2810.09 1131.25,2803.85 1119.00,2794.34
             1116.89,2792.70 1108.49,2786.02 1107.29,2784.25
             1102.63,2777.38 1110.74,2773.35 1115.00,2769.70
             1115.00,2769.70 1122.00,2763.00 1122.00,2763.00
             1122.00,2763.00 1144.54,2740.00 1144.54,2740.00
             1153.21,2729.42 1159.90,2717.64 1166.94,2706.00
             1170.01,2700.92 1172.34,2695.45 1174.64,2690.00
             1175.83,2687.21 1176.70,2684.53 1180.11,2684.18
             1191.66,2682.99 1196.07,2698.06 1193.49,2707.00
             1191.32,2714.53 1179.89,2723.88 1174.00,2729.00
             1179.05,2727.15 1183.55,2724.33 1188.00,2721.33
             1201.66,2712.12 1211.73,2700.58 1201.97,2684.00
             1199.47,2679.75 1196.05,2676.25 1192.00,2673.47
             1189.21,2671.55 1185.28,2670.42 1184.31,2666.89
             1183.10,2662.44 1185.34,2658.16 1186.39,2654.00
             1186.39,2654.00 1187.37,2647.00 1187.37,2647.00
             1188.94,2638.88 1189.99,2639.46 1190.00,2630.00
             1190.00,2630.00 1190.00,2603.00 1190.00,2603.00
             1189.98,2590.17 1182.77,2564.22 1177.91,2552.00
             1175.27,2545.36 1168.47,2533.09 1164.50,2527.00
             1142.81,2493.68 1112.67,2470.56 1074.00,2460.49
             1074.00,2460.49 1067.00,2458.38 1067.00,2458.38
             1067.00,2458.38 1060.00,2457.68 1060.00,2457.68
             1049.68,2455.99 1045.91,2454.88 1035.00,2455.00
             1028.46,2455.08 1023.26,2456.66 1017.00,2457.68
             1017.00,2457.68 1009.00,2458.46 1009.00,2458.46
             1009.00,2458.46 990.00,2464.70 990.00,2464.70
             960.53,2476.14 935.42,2495.62 922.14,2525.00
             919.70,2530.41 916.08,2543.17 916.00,2549.00
             916.00,2549.00 916.00,2553.00 916.00,2553.00
             916.14,2582.51 944.70,2609.33 974.00,2608.26
             1002.17,2607.23 1034.55,2593.80 1053.91,2573.00
             1060.52,2565.89 1070.77,2552.09 1068.00,2542.00 Z
           M 2324.00,2025.00
           C 2333.68,2022.93 2346.91,2017.39 2356.00,2013.21
             2361.70,2010.59 2367.47,2006.37 2374.00,2007.14
             2379.75,2007.81 2387.24,2015.93 2392.00,2019.80
             2409.22,2033.81 2423.79,2050.33 2438.29,2067.00
             2441.92,2071.17 2452.79,2081.82 2453.64,2086.96
             2454.48,2092.05 2447.60,2094.20 2444.00,2096.13
             2434.53,2101.22 2421.32,2111.99 2414.17,2120.00
             2400.59,2135.21 2390.89,2153.47 2385.41,2173.00
             2385.41,2173.00 2381.02,2189.00 2381.02,2189.00
             2381.02,2189.00 2381.02,2199.00 2381.02,2199.00
             2380.24,2204.54 2379.09,2204.55 2379.00,2212.00
             2379.00,2212.00 2379.00,2216.00 2379.00,2216.00
             2379.01,2225.93 2380.08,2223.99 2381.02,2231.00
             2381.02,2231.00 2381.02,2239.00 2381.02,2239.00
             2382.00,2244.70 2383.86,2250.48 2385.41,2256.00
             2398.70,2303.36 2431.30,2343.42 2477.00,2362.83
             2482.30,2365.08 2503.61,2371.16 2509.00,2371.99
             2509.00,2371.99 2518.00,2371.99 2518.00,2371.99
             2518.00,2371.99 2527.00,2373.48 2527.00,2373.48
             2530.95,2373.78 2536.93,2372.56 2541.00,2372.17
             2550.65,2371.25 2547.79,2373.20 2559.00,2370.04
             2562.02,2369.19 2572.13,2366.42 2574.49,2368.03
             2577.92,2370.35 2577.68,2377.37 2578.37,2381.00
             2578.37,2381.00 2580.68,2393.00 2580.68,2393.00
             2580.68,2393.00 2582.63,2400.00 2582.63,2400.00
             2582.63,2400.00 2583.32,2407.00 2583.32,2407.00
             2583.32,2407.00 2585.58,2419.00 2585.58,2419.00
             2585.58,2419.00 2587.79,2430.00 2587.79,2430.00
             2587.79,2430.00 2588.30,2439.00 2588.30,2439.00
             2589.86,2449.80 2590.93,2443.22 2591.00,2459.00
             2591.00,2459.00 2593.00,2479.00 2593.00,2479.00
             2593.00,2479.00 2594.00,2505.00 2594.00,2505.00
             2594.00,2505.00 2595.00,2521.00 2595.00,2521.00
             2595.00,2521.00 2595.00,2537.00 2595.00,2537.00
             2595.00,2537.00 2594.00,2552.00 2594.00,2552.00
             2594.00,2552.00 2593.00,2576.00 2593.00,2576.00
             2593.00,2576.00 2590.48,2598.00 2590.48,2598.00
             2590.48,2598.00 2588.32,2606.00 2588.32,2606.00
             2588.32,2606.00 2587.79,2612.00 2587.79,2612.00
             2587.79,2612.00 2582.37,2636.00 2582.37,2636.00
             2572.03,2672.39 2556.67,2702.87 2532.43,2732.00
             2532.43,2732.00 2522.99,2743.00 2522.99,2743.00
             2522.99,2743.00 2509.00,2755.27 2509.00,2755.27
             2503.21,2760.20 2493.45,2767.83 2487.00,2771.64
             2475.24,2778.60 2455.27,2787.17 2442.00,2790.41
             2442.00,2790.41 2435.00,2791.68 2435.00,2791.68
             2435.00,2791.68 2428.00,2793.63 2428.00,2793.63
             2428.00,2793.63 2418.00,2794.30 2418.00,2794.30
             2410.91,2795.31 2412.62,2795.99 2404.00,2796.00
             2404.00,2796.00 2378.00,2796.00 2378.00,2796.00
             2378.00,2796.00 2364.00,2793.98 2364.00,2793.98
             2364.00,2793.98 2354.00,2793.98 2354.00,2793.98
             2354.00,2793.98 2345.00,2791.46 2345.00,2791.46
             2295.34,2781.36 2251.28,2752.68 2223.50,2710.00
             2217.70,2701.10 2212.30,2691.86 2208.28,2682.00
             2204.41,2672.49 2200.29,2660.04 2198.37,2650.00
             2198.37,2650.00 2197.08,2640.00 2197.08,2640.00
             2195.65,2631.89 2195.01,2634.33 2195.00,2625.00
             2195.00,2625.00 2195.00,2607.00 2195.00,2607.00
             2195.01,2597.48 2196.27,2597.74 2197.57,2589.00
             2200.79,2567.40 2210.24,2543.90 2224.32,2527.00
             2224.32,2527.00 2234.00,2517.00 2234.00,2517.00
             2234.00,2517.00 2244.00,2507.38 2244.00,2507.38
             2251.63,2501.26 2266.79,2493.08 2276.00,2489.41
             2282.54,2486.80 2300.28,2482.03 2307.00,2482.00
             2307.00,2482.00 2337.00,2482.00 2337.00,2482.00
             2343.18,2482.08 2355.02,2485.50 2361.00,2487.68
             2383.25,2495.80 2401.98,2508.39 2413.15,2530.00
             2419.29,2541.87 2420.16,2562.13 2411.47,2572.96
             2408.05,2577.23 2402.04,2580.76 2397.00,2582.82
             2390.55,2585.45 2382.85,2585.01 2376.00,2585.00
             2376.00,2585.00 2364.00,2583.94 2364.00,2583.94
             2364.00,2583.94 2354.00,2583.94 2354.00,2583.94
             2348.55,2583.03 2334.04,2578.46 2329.00,2575.92
             2319.26,2571.00 2308.79,2564.89 2301.18,2557.00
             2293.94,2549.48 2294.07,2546.43 2290.00,2542.00
             2290.70,2545.47 2291.83,2550.82 2293.17,2554.00
             2303.63,2578.82 2333.84,2597.03 2359.00,2603.44
             2370.69,2606.42 2376.40,2608.72 2389.00,2608.26
             2389.00,2608.26 2398.00,2607.54 2398.00,2607.54
             2400.91,2606.88 2405.22,2604.92 2408.00,2603.67
             2426.65,2595.27 2438.21,2582.10 2442.51,2562.00
             2443.75,2556.20 2444.14,2556.34 2443.99,2550.00
             2443.87,2545.27 2443.41,2545.21 2442.51,2541.00
             2439.01,2524.63 2433.18,2513.75 2422.27,2501.00
             2404.36,2480.07 2383.27,2467.86 2357.00,2460.52
             2357.00,2460.52 2350.00,2458.38 2350.00,2458.38
             2350.00,2458.38 2343.00,2457.68 2343.00,2457.68
             2336.74,2456.65 2331.54,2455.08 2325.00,2455.00
             2325.00,2455.00 2319.00,2455.00 2319.00,2455.00
             2310.79,2455.01 2306.53,2456.71 2299.00,2457.79
             2299.00,2457.79 2293.00,2458.37 2293.00,2458.37
             2258.48,2465.04 2222.61,2489.07 2201.76,2517.00
             2189.48,2533.45 2180.71,2552.26 2175.42,2572.00
             2175.42,2572.00 2171.02,2590.00 2171.02,2590.00
             2171.02,2590.00 2171.02,2598.00 2171.02,2598.00
             2171.02,2598.00 2169.00,2615.00 2169.00,2615.00
             2168.96,2625.18 2170.04,2624.12 2170.83,2632.00
             2170.83,2632.00 2171.59,2645.00 2171.59,2645.00
             2172.40,2648.55 2176.16,2663.58 2175.84,2665.96
             2175.24,2670.45 2171.40,2671.14 2168.00,2673.27
             2164.21,2675.65 2161.58,2678.27 2159.10,2682.00
             2157.41,2684.55 2156.17,2687.06 2155.30,2690.00
             2154.62,2692.29 2153.39,2696.73 2153.64,2699.00
             2155.11,2712.62 2174.07,2723.15 2185.00,2729.00
             2179.99,2723.99 2168.02,2713.46 2166.42,2707.00
             2165.83,2704.66 2165.83,2697.34 2166.42,2695.00
             2167.77,2689.55 2173.74,2682.85 2179.94,2684.33
             2184.30,2685.37 2187.37,2695.09 2189.27,2699.00
             2195.49,2711.72 2203.13,2723.67 2211.58,2735.00
             2219.20,2745.22 2230.31,2756.83 2239.99,2765.08
             2243.08,2767.72 2253.00,2775.52 2253.63,2779.09
             2254.18,2782.25 2252.05,2784.70 2249.94,2786.71
             2246.32,2790.17 2237.26,2797.19 2233.00,2800.11
             2214.88,2812.55 2197.06,2818.54 2176.00,2823.59
             2170.02,2825.02 2153.77,2827.93 2148.00,2828.00
             2148.00,2828.00 2132.00,2828.00 2132.00,2828.00
             2124.46,2827.99 2105.45,2824.49 2098.00,2822.37
             2072.11,2815.01 2048.06,2796.94 2032.71,2775.00
             2026.07,2765.51 2023.19,2759.18 2018.32,2749.00
             2013.84,2739.65 2009.20,2730.11 2006.61,2720.00
             2006.61,2720.00 2003.30,2705.00 2003.30,2705.00
             2003.30,2705.00 2002.79,2698.00 2002.79,2698.00
             2002.79,2698.00 2001.02,2691.00 2001.02,2691.00
             2001.02,2691.00 2001.02,2683.00 2001.02,2683.00
             2001.02,2683.00 1998.00,2664.00 1998.00,2664.00
             1998.00,2664.00 1996.00,2626.00 1996.00,2626.00
             1996.00,2626.00 1998.00,2602.00 1998.00,2602.00
             1998.00,2602.00 1998.00,2595.00 1998.00,2595.00
             1998.02,2585.28 1999.30,2585.80 2000.57,2577.00
             2000.57,2577.00 2001.21,2569.00 2001.21,2569.00
             2001.21,2569.00 2002.63,2563.00 2002.63,2563.00
             2002.63,2563.00 2003.46,2555.00 2003.46,2555.00
             2003.46,2555.00 2005.49,2547.00 2005.49,2547.00
             2006.57,2541.72 2006.91,2530.73 2009.98,2526.30
             2011.62,2523.93 2016.33,2522.38 2019.00,2521.34
             2019.00,2521.34 2038.00,2513.58 2038.00,2513.58
             2060.48,2504.18 2082.68,2492.69 2104.00,2480.91
             2164.10,2447.69 2235.60,2398.54 2280.72,2347.00
             2310.06,2313.48 2332.69,2274.12 2344.31,2231.00
             2344.31,2231.00 2347.52,2215.00 2347.52,2215.00
             2347.52,2215.00 2349.68,2207.00 2349.68,2207.00
             2349.68,2207.00 2350.18,2200.00 2350.18,2200.00
             2350.18,2200.00 2351.91,2192.00 2351.91,2192.00
             2353.92,2174.50 2353.29,2156.52 2351.91,2139.00
             2351.91,2139.00 2351.91,2131.00 2351.91,2131.00
             2351.91,2131.00 2349.94,2123.00 2349.94,2123.00
             2349.94,2123.00 2349.94,2113.00 2349.94,2113.00
             2349.94,2113.00 2347.51,2104.00 2347.51,2104.00
             2347.51,2104.00 2346.63,2097.00 2346.63,2097.00
             2344.88,2087.87 2339.35,2067.61 2336.09,2059.00
             2336.09,2059.00 2324.63,2032.00 2324.63,2032.00
             2323.95,2029.59 2324.02,2027.46 2324.00,2025.00 Z
           M 1366.00,2530.00
           C 1373.82,2530.24 1386.33,2535.95 1394.00,2538.99
             1394.00,2538.99 1425.00,2550.32 1425.00,2550.32
             1429.80,2552.07 1443.16,2555.77 1445.93,2559.39
             1448.13,2562.27 1448.67,2566.61 1449.58,2570.00
             1449.58,2570.00 1454.60,2589.00 1454.60,2589.00
             1457.44,2599.71 1461.95,2619.31 1462.00,2630.00
             1462.00,2630.00 1464.00,2650.00 1464.00,2650.00
             1464.00,2650.00 1464.00,2678.00 1464.00,2678.00
             1464.00,2678.00 1462.00,2700.00 1462.00,2700.00
             1461.83,2715.25 1461.37,2707.89 1459.44,2720.00
             1459.44,2720.00 1456.47,2739.00 1456.47,2739.00
             1456.47,2739.00 1449.59,2764.00 1449.59,2764.00
             1424.93,2851.85 1355.54,2937.38 1265.00,2961.55
             1265.00,2961.55 1242.00,2966.68 1242.00,2966.68
             1242.00,2966.68 1232.00,2967.42 1232.00,2967.42
             1224.28,2968.48 1219.96,2969.99 1212.00,2970.00
             1212.00,2970.00 1192.00,2970.00 1192.00,2970.00
             1192.00,2970.00 1169.00,2966.98 1169.00,2966.98
             1169.00,2966.98 1160.00,2966.98 1160.00,2966.98
             1160.00,2966.98 1141.00,2962.37 1141.00,2962.37
             1110.29,2955.87 1090.65,2949.41 1063.00,2934.09
             1036.41,2919.36 1011.68,2904.31 989.00,2883.83
             980.16,2875.84 977.38,2871.13 970.00,2863.00
             965.04,2857.53 958.40,2848.23 954.12,2842.00
             949.20,2834.84 945.11,2829.89 945.00,2821.08
             945.00,2821.08 956.00,2821.08 956.00,2821.08
             956.00,2821.08 967.00,2822.43 967.00,2822.43
             967.00,2822.43 987.00,2821.00 987.00,2821.00
             1000.15,2820.98 996.32,2820.09 1007.00,2818.32
             1007.00,2818.32 1014.00,2817.63 1014.00,2817.63
             1014.00,2817.63 1036.00,2812.10 1036.00,2812.10
             1049.21,2808.12 1058.72,2804.37 1071.00,2798.06
             1074.79,2796.11 1085.35,2790.05 1089.00,2790.25
             1093.83,2790.52 1099.34,2797.51 1103.00,2800.71
             1112.21,2808.79 1122.34,2815.53 1133.00,2821.52
             1148.54,2830.24 1165.69,2835.71 1183.00,2839.37
             1183.00,2839.37 1190.00,2841.47 1190.00,2841.47
             1190.00,2841.47 1199.00,2842.18 1199.00,2842.18
             1205.57,2842.97 1202.60,2843.98 1213.00,2844.00
             1213.00,2844.00 1227.00,2844.00 1227.00,2844.00
             1233.77,2843.92 1233.49,2843.09 1239.00,2842.30
             1239.00,2842.30 1247.00,2841.67 1247.00,2841.67
             1247.00,2841.67 1271.00,2834.69 1271.00,2834.69
             1298.54,2824.59 1323.50,2804.25 1339.91,2780.00
             1345.87,2771.18 1350.52,2761.57 1355.10,2752.00
             1359.30,2743.26 1364.94,2730.28 1367.40,2721.00
             1367.40,2721.00 1370.70,2707.00 1370.70,2707.00
             1370.70,2707.00 1371.32,2700.00 1371.32,2700.00
             1371.32,2700.00 1373.05,2693.00 1373.05,2693.00
             1373.05,2693.00 1373.05,2684.00 1373.05,2684.00
             1374.22,2676.42 1375.96,2673.10 1376.08,2665.00
             1376.08,2665.00 1376.08,2655.00 1376.08,2655.00
             1376.08,2655.00 1378.00,2640.00 1378.00,2640.00
             1378.00,2640.00 1378.00,2617.00 1378.00,2617.00
             1377.92,2610.86 1376.99,2609.40 1376.14,2604.00
             1376.14,2604.00 1376.14,2594.00 1376.14,2594.00
             1375.92,2587.23 1374.73,2585.27 1373.61,2579.00
             1373.61,2579.00 1372.63,2571.00 1372.63,2571.00
             1372.63,2571.00 1371.21,2565.00 1371.21,2565.00
             1371.21,2565.00 1370.53,2558.00 1370.53,2558.00
             1370.53,2558.00 1368.37,2550.00 1368.37,2550.00
             1368.37,2550.00 1367.82,2544.00 1367.82,2544.00
             1366.96,2537.13 1366.03,2539.44 1366.00,2530.00 Z
           M 2414.75,2821.08
           C 2414.98,2823.01 2415.04,2825.04 2414.75,2827.00
             2412.62,2833.87 2400.12,2849.96 2395.36,2856.00
             2370.20,2887.95 2350.66,2902.67 2316.00,2922.96
             2300.45,2932.06 2282.81,2942.70 2266.00,2949.10
             2250.15,2955.14 2216.73,2963.97 2200.00,2966.68
             2200.00,2966.68 2190.00,2967.28 2190.00,2967.28
             2190.00,2967.28 2168.00,2970.00 2168.00,2970.00
             2168.00,2970.00 2147.00,2970.00 2147.00,2970.00
             2138.50,2969.99 2135.16,2968.26 2127.00,2967.28
             2127.00,2967.28 2118.00,2966.68 2118.00,2966.68
             2082.24,2960.89 2048.30,2945.61 2019.00,2924.41
             1998.88,2909.85 1975.66,2885.91 1960.74,2866.00
             1932.32,2828.05 1912.83,2783.40 1903.54,2737.00
             1903.54,2737.00 1901.37,2729.00 1901.37,2729.00
             1901.37,2729.00 1900.68,2722.00 1900.68,2722.00
             1900.68,2722.00 1898.06,2710.00 1898.06,2710.00
             1898.06,2710.00 1898.06,2700.00 1898.06,2700.00
             1897.08,2692.99 1896.02,2694.93 1896.00,2685.00
             1896.00,2685.00 1896.00,2647.00 1896.00,2647.00
             1896.01,2638.39 1896.69,2640.09 1897.70,2633.00
             1897.70,2633.00 1898.28,2624.00 1898.28,2624.00
             1898.28,2624.00 1901.10,2606.00 1901.10,2606.00
             1901.10,2606.00 1906.63,2582.00 1906.63,2582.00
             1906.63,2582.00 1908.61,2576.00 1908.61,2576.00
             1909.62,2571.28 1909.01,2565.56 1912.72,2561.73
             1915.28,2559.09 1924.23,2556.71 1928.00,2555.42
             1928.00,2555.42 1959.00,2544.14 1959.00,2544.14
             1959.00,2544.14 1982.00,2535.63 1982.00,2535.63
             1984.42,2534.80 1989.12,2533.25 1991.40,2535.03
             1993.61,2536.74 1992.59,2540.65 1992.28,2543.00
             1992.28,2543.00 1988.66,2564.00 1988.66,2564.00
             1986.04,2572.85 1987.71,2570.63 1986.68,2577.00
             1986.68,2577.00 1984.10,2589.00 1984.10,2589.00
             1984.10,2589.00 1984.10,2598.00 1984.10,2598.00
             1983.46,2604.43 1982.04,2605.24 1982.00,2614.00
             1982.00,2614.00 1982.00,2648.00 1982.00,2648.00
             1982.09,2655.45 1983.24,2655.46 1984.00,2661.00
             1984.00,2661.00 1984.00,2671.00 1984.00,2671.00
             1984.00,2671.00 1986.94,2686.00 1986.94,2686.00
             1986.94,2686.00 1986.94,2695.00 1986.94,2695.00
             1986.94,2695.00 1992.68,2722.00 1992.68,2722.00
             2009.87,2777.60 2046.26,2825.35 2105.00,2839.50
             2105.00,2839.50 2112.00,2841.48 2112.00,2841.48
             2112.00,2841.48 2132.00,2844.00 2132.00,2844.00
             2132.00,2844.00 2147.00,2844.00 2147.00,2844.00
             2157.40,2843.98 2154.43,2842.97 2161.00,2842.18
             2161.00,2842.18 2169.00,2841.68 2169.00,2841.68
             2169.00,2841.68 2177.00,2839.51 2177.00,2839.51
             2194.86,2835.49 2211.83,2829.70 2228.00,2820.92
             2236.77,2816.16 2249.43,2807.19 2257.00,2800.70
             2260.67,2797.56 2266.19,2790.45 2271.00,2790.27
             2275.08,2790.13 2285.87,2796.76 2290.00,2798.83
             2300.91,2804.30 2312.35,2808.51 2324.00,2812.10
             2324.00,2812.10 2346.00,2817.74 2346.00,2817.74
             2346.00,2817.74 2353.00,2818.32 2353.00,2818.32
             2364.80,2820.26 2359.11,2820.98 2374.00,2821.00
             2374.00,2821.00 2394.00,2822.43 2394.00,2822.43
             2394.00,2822.43 2404.00,2821.08 2404.00,2821.08
             2404.00,2821.08 2414.75,2821.08 2414.75,2821.08 Z
           M 1782.00,3607.00
           C 1779.30,3595.91 1783.13,3584.91 1784.70,3574.00
             1784.70,3574.00 1785.32,3567.00 1785.32,3567.00
             1785.32,3567.00 1787.54,3558.00 1787.54,3558.00
             1787.54,3558.00 1798.32,3503.00 1798.32,3503.00
             1798.32,3503.00 1800.68,3494.00 1800.68,3494.00
             1800.68,3494.00 1813.49,3433.00 1813.49,3433.00
             1813.49,3433.00 1819.51,3403.00 1819.51,3403.00
             1819.51,3403.00 1821.48,3396.00 1821.48,3396.00
             1821.48,3396.00 1822.37,3390.00 1822.37,3390.00
             1822.37,3390.00 1826.68,3371.00 1826.68,3371.00
             1826.68,3371.00 1827.37,3365.00 1827.37,3365.00
             1827.37,3365.00 1829.32,3358.00 1829.32,3358.00
             1829.32,3358.00 1830.37,3351.00 1830.37,3351.00
             1830.37,3351.00 1834.68,3330.00 1834.68,3330.00
             1834.68,3330.00 1835.32,3323.00 1835.32,3323.00
             1835.32,3323.00 1837.56,3313.00 1837.56,3313.00
             1837.56,3313.00 1838.32,3305.00 1838.32,3305.00
             1838.32,3305.00 1840.05,3298.00 1840.05,3298.00
             1840.05,3298.00 1840.05,3290.00 1840.05,3290.00
             1841.72,3278.96 1842.84,3281.52 1843.00,3268.00
             1843.08,3261.85 1844.01,3260.41 1844.71,3255.00
             1844.71,3255.00 1846.00,3237.00 1846.00,3237.00
             1846.00,3237.00 1846.00,3222.00 1846.00,3222.00
             1846.00,3222.00 1847.00,3209.00 1847.00,3209.00
             1847.00,3209.00 1847.00,3175.00 1847.00,3175.00
             1847.00,3175.00 1846.00,3158.00 1846.00,3158.00
             1846.00,3158.00 1844.82,3133.00 1844.82,3133.00
             1844.82,3133.00 1842.94,3125.00 1842.94,3125.00
             1842.94,3125.00 1842.94,3115.00 1842.94,3115.00
             1842.94,3115.00 1840.46,3105.00 1840.46,3105.00
             1840.46,3105.00 1839.63,3097.00 1839.63,3097.00
             1832.92,3061.39 1817.96,3010.71 1804.53,2977.00
             1796.77,2957.53 1777.71,2928.08 1765.12,2911.00
             1765.12,2911.00 1752.28,2895.00 1752.28,2895.00
             1749.09,2891.31 1745.86,2888.21 1746.12,2883.00
             1746.47,2876.11 1755.74,2855.39 1758.72,2848.00
             1767.63,2825.88 1777.95,2803.95 1792.66,2785.00
             1806.49,2767.20 1815.31,2760.53 1831.00,2745.91
             1839.71,2737.79 1848.49,2730.45 1858.00,2723.26
             1864.28,2718.50 1865.71,2715.28 1874.00,2715.00
             1874.00,2715.00 1876.63,2729.00 1876.63,2729.00
             1876.63,2729.00 1877.52,2736.00 1877.52,2736.00
             1881.28,2753.61 1886.29,2771.07 1892.47,2788.00
             1907.89,2830.21 1928.06,2865.13 1957.71,2899.00
             1957.71,2899.00 1969.01,2912.00 1969.01,2912.00
             1969.01,2912.00 1986.00,2927.17 1986.00,2927.17
             2005.68,2944.94 2029.67,2961.20 2054.00,2972.01
             2073.05,2980.47 2093.53,2986.80 2114.00,2990.63
             2114.00,2990.63 2123.00,2991.30 2123.00,2991.30
             2130.34,2992.35 2136.40,2993.99 2144.00,2994.00
             2144.00,2994.00 2169.00,2994.00 2169.00,2994.00
             2169.00,2994.00 2191.00,2991.17 2191.00,2991.17
             2191.00,2991.17 2200.00,2990.63 2200.00,2990.63
             2203.67,2989.94 2211.06,2987.48 2214.42,2990.02
             2216.66,2991.72 2218.13,3000.10 2218.92,3003.00
             2222.40,3015.86 2224.55,3028.82 2226.29,3042.00
             2226.29,3042.00 2229.06,3054.00 2229.06,3054.00
             2229.06,3054.00 2229.06,3063.00 2229.06,3063.00
             2229.06,3063.00 2230.83,3071.00 2230.83,3071.00
             2230.83,3071.00 2232.30,3087.00 2232.30,3087.00
             2233.32,3094.11 2233.99,3092.41 2234.00,3101.00
             2234.00,3101.00 2237.00,3153.00 2237.00,3153.00
             2237.00,3153.00 2234.00,3190.00 2234.00,3190.00
             2233.99,3198.57 2230.28,3223.75 2227.96,3232.00
             2226.09,3238.68 2226.99,3244.34 2219.00,3245.00
             2219.00,3245.00 2217.91,3230.00 2217.91,3230.00
             2217.91,3230.00 2217.91,3216.00 2217.91,3216.00
             2217.91,3216.00 2215.94,3207.00 2215.94,3207.00
             2215.94,3207.00 2215.94,3199.00 2215.94,3199.00
             2215.94,3199.00 2213.32,3187.00 2213.32,3187.00
             2213.32,3187.00 2212.63,3180.00 2212.63,3180.00
             2210.06,3166.68 2203.14,3144.41 2197.67,3132.00
             2189.58,3113.63 2179.50,3096.80 2159.00,3091.00
             2164.27,3096.21 2169.37,3100.69 2173.45,3107.00
             2181.78,3119.87 2189.11,3146.65 2191.68,3162.00
             2191.68,3162.00 2192.46,3169.00 2192.46,3169.00
             2192.46,3169.00 2194.70,3179.00 2194.70,3179.00
             2194.70,3179.00 2195.30,3188.00 2195.30,3188.00
             2195.30,3188.00 2196.93,3195.00 2196.93,3195.00
             2196.93,3195.00 2196.93,3205.00 2196.93,3205.00
             2196.93,3205.00 2200.00,3231.00 2200.00,3231.00
             2200.00,3231.00 2200.00,3252.00 2200.00,3252.00
             2200.00,3252.00 2197.00,3281.00 2197.00,3281.00
             2197.00,3281.00 2197.00,3290.00 2197.00,3290.00
             2197.00,3290.00 2195.30,3298.00 2195.30,3298.00
             2195.30,3298.00 2194.68,3307.00 2194.68,3307.00
             2194.68,3307.00 2192.46,3316.00 2192.46,3316.00
             2185.89,3351.51 2173.52,3387.41 2157.90,3420.00
             2157.90,3420.00 2143.47,3447.00 2143.47,3447.00
             2126.94,3477.59 2112.68,3498.32 2088.00,3523.00
             2084.11,3526.89 2070.48,3540.77 2066.00,3542.40
             2064.15,3543.08 2061.95,3542.97 2060.00,3543.00
             2060.40,3537.35 2065.85,3527.16 2068.27,3521.00
             2073.49,3507.74 2078.46,3493.93 2081.48,3480.00
             2087.36,3452.92 2086.80,3440.89 2082.32,3414.00
             2082.32,3414.00 2081.54,3407.00 2081.54,3407.00
             2076.07,3376.89 2063.56,3349.30 2044.96,3325.00
             2030.35,3305.90 2000.58,3279.61 1979.00,3268.81
             1972.91,3265.76 1961.76,3261.61 1955.00,3261.23
             1951.26,3261.01 1946.95,3263.79 1948.40,3267.90
             1949.90,3272.13 1962.73,3277.36 1967.00,3279.10
             1980.11,3284.45 1991.26,3293.53 2002.00,3302.59
             2030.30,3326.46 2051.17,3356.98 2060.39,3393.00
             2060.39,3393.00 2061.51,3400.00 2061.51,3400.00
             2061.51,3400.00 2066.00,3427.00 2066.00,3427.00
             2066.00,3427.00 2066.99,3446.00 2066.99,3446.00
             2066.99,3446.00 2066.00,3458.00 2066.00,3458.00
             2065.77,3478.20 2054.14,3511.96 2044.74,3530.00
             2037.52,3543.84 2021.74,3562.06 2011.29,3574.00
             2011.29,3574.00 1953.00,3637.00 1953.00,3637.00
             1953.00,3637.00 1923.91,3668.00 1923.91,3668.00
             1923.91,3668.00 1890.09,3703.00 1890.09,3703.00
             1890.09,3703.00 1877.83,3717.00 1877.83,3717.00
             1877.83,3717.00 1866.17,3729.00 1866.17,3729.00
             1866.17,3729.00 1852.71,3745.00 1852.71,3745.00
             1841.75,3757.60 1831.16,3770.14 1821.74,3784.00
             1796.80,3820.71 1770.68,3867.31 1761.55,3911.00
             1761.55,3911.00 1759.32,3920.00 1759.32,3920.00
             1759.32,3920.00 1758.82,3927.00 1758.82,3927.00
             1758.82,3927.00 1756.00,3947.00 1756.00,3947.00
             1756.00,3947.00 1756.00,3965.00 1756.00,3965.00
             1756.02,3979.11 1761.88,3997.95 1767.28,4011.00
             1769.31,4015.90 1773.05,4023.51 1775.81,4028.00
             1779.53,4034.02 1782.47,4035.67 1783.00,4043.00
             1772.18,4042.87 1755.18,4033.00 1745.00,4028.10
             1713.89,4013.15 1684.52,3994.87 1656.00,3975.50
             1586.10,3928.03 1532.56,3875.07 1494.08,3799.00
             1478.62,3768.42 1465.88,3729.09 1456.59,3696.00
             1456.59,3696.00 1449.50,3671.00 1449.50,3671.00
             1449.50,3671.00 1443.48,3643.00 1443.48,3643.00
             1443.48,3643.00 1441.32,3635.00 1441.32,3635.00
             1441.32,3635.00 1438.72,3614.00 1438.72,3614.00
             1437.38,3602.90 1436.14,3604.61 1436.00,3592.00
             1436.00,3592.00 1431.07,3557.00 1431.07,3557.00
             1431.07,3557.00 1431.07,3547.00 1431.07,3547.00
             1431.07,3547.00 1428.00,3527.00 1428.00,3527.00
             1427.87,3515.29 1427.07,3517.94 1426.17,3509.00
             1426.17,3509.00 1424.83,3489.00 1424.83,3489.00
             1423.94,3480.07 1423.13,3482.71 1423.00,3471.00
             1423.00,3471.00 1419.96,3449.00 1419.96,3449.00
             1419.96,3449.00 1419.96,3440.00 1419.96,3440.00
             1419.96,3440.00 1418.28,3430.00 1418.28,3430.00
             1418.28,3430.00 1415.46,3409.00 1415.46,3409.00
             1413.24,3396.44 1415.27,3396.26 1408.00,3384.00
             1408.00,3384.00 1408.00,3409.00 1408.00,3409.00
             1408.00,3409.00 1410.00,3444.00 1410.00,3444.00
             1410.00,3444.00 1410.00,3488.00 1410.00,3488.00
             1410.00,3488.00 1411.00,3508.00 1411.00,3508.00
             1411.00,3508.00 1412.00,3521.00 1412.00,3521.00
             1412.00,3521.00 1412.00,3545.00 1412.00,3545.00
             1412.00,3545.00 1413.08,3562.00 1413.08,3562.00
             1413.08,3562.00 1413.08,3578.00 1413.08,3578.00
             1414.13,3587.65 1414.86,3584.54 1415.00,3597.00
             1415.09,3604.56 1416.83,3608.18 1417.95,3615.00
             1417.95,3615.00 1417.95,3625.00 1417.95,3625.00
             1417.95,3625.00 1419.68,3632.00 1419.68,3632.00
             1419.68,3632.00 1423.37,3654.00 1423.37,3654.00
             1425.48,3664.90 1428.00,3669.01 1428.00,3681.00
             1419.67,3680.71 1418.94,3677.54 1413.68,3671.83
             1407.31,3664.92 1400.75,3657.54 1395.15,3650.00
             1366.84,3611.86 1351.85,3586.20 1330.75,3544.00
             1308.53,3499.55 1294.91,3452.10 1283.48,3404.00
             1283.48,3404.00 1276.32,3373.00 1276.32,3373.00
             1276.32,3373.00 1275.56,3365.00 1275.56,3365.00
             1274.20,3356.33 1273.02,3357.03 1273.00,3347.00
             1273.00,3347.00 1273.00,3280.00 1273.00,3280.00
             1273.00,3280.00 1275.94,3255.00 1275.94,3255.00
             1275.94,3255.00 1275.94,3244.00 1275.94,3244.00
             1275.94,3244.00 1277.72,3236.00 1277.72,3236.00
             1277.72,3236.00 1288.41,3187.00 1288.41,3187.00
             1295.03,3160.74 1301.93,3134.50 1311.22,3109.00
             1317.98,3090.43 1331.50,3062.10 1341.42,3045.00
             1341.42,3045.00 1353.05,3026.00 1353.05,3026.00
             1353.05,3026.00 1360.00,3015.00 1360.00,3015.00
             1327.71,3049.48 1305.28,3092.09 1288.75,3136.00
             1288.75,3136.00 1272.81,3183.00 1272.81,3183.00
             1272.81,3183.00 1268.61,3196.00 1268.61,3196.00
             1268.11,3197.58 1267.82,3199.92 1266.41,3200.96
             1262.54,3203.80 1259.21,3198.71 1257.58,3195.98
             1252.50,3187.47 1248.29,3178.19 1244.58,3169.00
             1233.58,3141.69 1226.07,3113.81 1220.53,3085.00
             1220.53,3085.00 1218.37,3077.00 1218.37,3077.00
             1218.37,3077.00 1216.00,3051.00 1216.00,3051.00
             1216.00,3051.00 1216.00,3028.00 1216.00,3028.00
             1216.00,3028.00 1218.00,3008.00 1218.00,3008.00
             1218.04,3004.60 1217.49,2998.19 1219.85,2995.58
             1221.77,2993.48 1226.31,2993.27 1229.00,2992.87
             1229.00,2992.87 1238.00,2991.17 1238.00,2991.17
             1244.18,2990.51 1242.63,2991.50 1250.00,2989.74
             1250.00,2989.74 1269.00,2985.37 1269.00,2985.37
             1296.71,2977.50 1319.78,2965.98 1344.00,2950.56
             1350.68,2946.31 1356.83,2941.38 1363.00,2936.45
             1399.28,2907.43 1426.60,2873.10 1447.94,2832.00
             1455.41,2817.63 1460.40,2807.34 1465.86,2792.00
             1470.38,2779.29 1480.72,2750.52 1481.00,2738.21
             1483.12,2738.01 1485.97,2737.92 1488.00,2738.21
             1493.56,2739.77 1505.37,2748.89 1510.00,2752.75
             1531.04,2770.29 1544.80,2790.74 1558.60,2814.00
             1558.60,2814.00 1572.52,2840.00 1572.52,2840.00
             1580.56,2857.76 1590.99,2892.50 1596.59,2912.00
             1596.59,2912.00 1611.39,2965.00 1611.39,2965.00
             1611.39,2965.00 1612.60,2972.00 1612.60,2972.00
             1612.60,2972.00 1620.32,3009.00 1620.32,3009.00
             1620.32,3009.00 1627.56,3049.00 1627.56,3049.00
             1627.56,3049.00 1628.29,3060.00 1628.29,3060.00
             1628.29,3060.00 1629.71,3068.00 1629.71,3068.00
             1629.71,3068.00 1631.00,3091.00 1631.00,3091.00
             1631.00,3091.00 1632.00,3107.00 1632.00,3107.00
             1632.01,3111.97 1631.62,3115.12 1633.00,3120.00
             1633.00,3120.00 1634.83,3106.00 1634.83,3106.00
             1634.83,3106.00 1636.00,3085.00 1636.00,3085.00
             1636.00,3085.00 1636.00,3056.00 1636.00,3056.00
             1636.00,3056.00 1635.00,3037.00 1635.00,3037.00
             1635.00,3037.00 1633.06,3024.00 1633.06,3024.00
             1633.06,3024.00 1633.06,3012.00 1633.06,3012.00
             1633.06,3012.00 1630.30,2998.00 1630.30,2998.00
             1630.30,2998.00 1629.68,2989.00 1629.68,2989.00
             1629.68,2989.00 1625.37,2967.00 1625.37,2967.00
             1625.37,2967.00 1624.68,2961.00 1624.68,2961.00
             1624.68,2961.00 1622.67,2953.00 1622.67,2953.00
             1622.67,2953.00 1619.48,2937.00 1619.48,2937.00
             1619.48,2937.00 1617.60,2931.00 1617.60,2931.00
             1617.60,2931.00 1616.25,2924.00 1616.25,2924.00
             1616.25,2924.00 1609.59,2899.00 1609.59,2899.00
             1609.59,2899.00 1598.41,2858.00 1598.41,2858.00
             1598.41,2858.00 1586.23,2827.00 1586.23,2827.00
             1586.23,2827.00 1586.23,2821.00 1586.23,2821.00
             1591.97,2821.13 1591.70,2821.61 1597.00,2822.54
             1597.00,2822.54 1605.00,2823.32 1605.00,2823.32
             1605.00,2823.32 1621.00,2827.42 1621.00,2827.42
             1660.15,2837.40 1691.68,2858.68 1720.00,2887.00
             1720.00,2887.00 1733.70,2901.00 1733.70,2901.00
             1744.40,2913.47 1753.61,2927.17 1762.43,2941.00
             1769.86,2952.63 1776.80,2963.34 1782.52,2976.00
             1790.61,2993.88 1795.82,3013.28 1801.56,3032.00
             1801.56,3032.00 1813.40,3075.00 1813.40,3075.00
             1813.40,3075.00 1814.52,3082.00 1814.52,3082.00
             1814.52,3082.00 1816.48,3089.00 1816.48,3089.00
             1816.48,3089.00 1817.37,3096.00 1817.37,3096.00
             1817.37,3096.00 1822.00,3126.00 1822.00,3126.00
             1822.00,3126.00 1824.04,3153.00 1824.04,3153.00
             1824.04,3153.00 1824.04,3164.00 1824.04,3164.00
             1824.04,3164.00 1825.00,3175.00 1825.00,3175.00
             1825.00,3175.00 1825.00,3201.00 1825.00,3201.00
             1825.00,3201.00 1824.04,3213.00 1824.04,3213.00
             1824.04,3213.00 1824.04,3229.00 1824.04,3229.00
             1824.04,3229.00 1822.00,3251.00 1822.00,3251.00
             1821.80,3268.60 1821.17,3264.17 1819.05,3280.00
             1819.05,3280.00 1819.05,3288.00 1819.05,3288.00
             1819.05,3288.00 1816.94,3296.00 1816.94,3296.00
             1816.94,3296.00 1816.94,3304.00 1816.94,3304.00
             1816.94,3304.00 1814.30,3315.00 1814.30,3315.00
             1814.30,3315.00 1813.68,3322.00 1813.68,3322.00
             1813.68,3322.00 1809.32,3344.00 1809.32,3344.00
             1809.32,3344.00 1808.68,3351.00 1808.68,3351.00
             1808.68,3351.00 1806.46,3360.00 1806.46,3360.00
             1806.46,3360.00 1805.79,3367.00 1805.79,3367.00
             1805.79,3367.00 1801.51,3388.00 1801.51,3388.00
             1801.51,3388.00 1800.49,3396.00 1800.49,3396.00
             1800.49,3396.00 1788.51,3456.00 1788.51,3456.00
             1788.51,3456.00 1787.49,3464.00 1787.49,3464.00
             1787.49,3464.00 1785.46,3472.00 1785.46,3472.00
             1785.46,3472.00 1782.38,3491.00 1782.38,3491.00
             1782.38,3491.00 1780.32,3500.00 1780.32,3500.00
             1780.32,3500.00 1779.63,3508.00 1779.63,3508.00
             1779.63,3508.00 1777.43,3518.00 1777.43,3518.00
             1777.43,3518.00 1776.70,3526.00 1776.70,3526.00
             1776.70,3526.00 1775.09,3535.00 1775.09,3535.00
             1775.09,3535.00 1774.57,3546.00 1774.57,3546.00
             1772.49,3560.49 1768.81,3587.99 1776.53,3600.96
             1778.12,3603.63 1779.76,3604.97 1782.00,3607.00 Z
           M 1174.00,2729.00
           C 1174.00,2729.00 1173.00,2729.00 1173.00,2729.00
             1173.00,2729.00 1174.00,2730.00 1174.00,2730.00
             1174.00,2730.00 1174.00,2729.00 1174.00,2729.00 Z
           M 1173.00,2730.00
           C 1173.00,2730.00 1172.00,2730.00 1172.00,2730.00
             1172.00,2730.00 1173.00,2731.00 1173.00,2731.00
             1173.00,2731.00 1173.00,2730.00 1173.00,2730.00 Z
           M 813.00,2989.00
           C 813.00,2989.00 926.00,2989.00 926.00,2989.00
             926.00,2989.00 926.00,3156.00 926.00,3156.00
             926.00,3156.00 1095.00,3156.00 1095.00,3156.00
             1095.00,3156.00 1095.00,3270.00 1095.00,3270.00
             1095.00,3270.00 926.00,3270.00 926.00,3270.00
             926.00,3270.00 926.00,3437.00 926.00,3437.00
             926.00,3437.00 813.00,3437.00 813.00,3437.00
             813.00,3437.00 813.00,3270.00 813.00,3270.00
             813.00,3270.00 644.00,3270.00 644.00,3270.00
             644.00,3270.00 644.00,3156.00 644.00,3156.00
             644.00,3156.00 813.00,3156.00 813.00,3156.00
             813.00,3156.00 813.00,2989.00 813.00,2989.00 Z
           M 1363.00,3012.00
           C 1363.00,3012.00 1362.00,3012.00 1362.00,3012.00
             1362.00,3012.00 1363.00,3013.00 1363.00,3013.00
             1363.00,3013.00 1363.00,3012.00 1363.00,3012.00 Z
           M 1362.00,3013.00
           C 1362.00,3013.00 1361.00,3013.00 1361.00,3013.00
             1361.00,3013.00 1362.00,3014.00 1362.00,3014.00
             1362.00,3014.00 1362.00,3013.00 1362.00,3013.00 Z
           M 1361.00,3014.00
           C 1361.00,3014.00 1360.00,3014.00 1360.00,3014.00
             1360.00,3014.00 1361.00,3015.00 1361.00,3015.00
             1361.00,3015.00 1361.00,3014.00 1361.00,3014.00 Z
           M 2566.00,3027.00
           C 2566.00,3027.00 2679.00,3027.00 2679.00,3027.00
             2679.00,3027.00 2679.00,3194.00 2679.00,3194.00
             2679.00,3194.00 2848.00,3194.00 2848.00,3194.00
             2848.00,3194.00 2848.00,3308.00 2848.00,3308.00
             2848.00,3308.00 2679.00,3308.00 2679.00,3308.00
             2679.00,3308.00 2679.00,3475.00 2679.00,3475.00
             2679.00,3475.00 2566.00,3475.00 2566.00,3475.00
             2566.00,3475.00 2566.00,3308.00 2566.00,3308.00
             2566.00,3308.00 2397.00,3308.00 2397.00,3308.00
             2397.00,3308.00 2397.00,3194.00 2397.00,3194.00
             2397.00,3194.00 2566.00,3194.00 2566.00,3194.00
             2566.00,3194.00 2566.00,3027.00 2566.00,3027.00 Z
           M 1408.00,3383.00
           C 1408.00,3383.00 1407.00,3383.00 1407.00,3383.00
             1407.00,3383.00 1408.00,3384.00 1408.00,3384.00
             1408.00,3384.00 1408.00,3383.00 1408.00,3383.00 Z" />
</svg>
