<?xml version="1.0" encoding="UTF-8" standalone="no"?>
<!DOCTYPE svg PUBLIC "-//W3C//DTD SVG 20010904//EN"
              "http://www.w3.org/TR/2001/REC-SVG-20010904/DTD/svg10.dtd">

<svg xmlns="http://www.w3.org/2000/svg"
     width="11in" height="14in"
     viewBox="0 0 3300 4200">
  <path id="3 - face"
        fill="none" stroke="black" stroke-width="1"
        d="M 949.00,1579.00
           C 949.00,1579.00 950.47,1569.00 950.47,1569.00
             950.47,1569.00 955.49,1550.00 955.49,1550.00
             955.49,1550.00 966.60,1505.00 966.60,1505.00
             966.60,1505.00 968.48,1499.00 968.48,1499.00
             968.48,1499.00 973.63,1477.00 973.63,1477.00
             973.63,1477.00 974.37,1471.00 974.37,1471.00
             974.37,1471.00 976.53,1463.00 976.53,1463.00
             976.53,1463.00 979.62,1444.00 979.62,1444.00
             979.62,1444.00 981.68,1435.00 981.68,1435.00
             981.68,1435.00 982.32,1426.00 982.32,1426.00
             982.32,1426.00 984.72,1413.00 984.72,1413.00
             984.72,1413.00 985.29,1403.00 985.29,1403.00
             986.20,1395.60 986.99,1395.41 987.00,1387.00
             987.00,1387.00 987.00,1343.00 987.00,1343.00
             987.00,1343.00 984.96,1325.00 984.96,1325.00
             984.96,1325.00 984.96,1315.00 984.96,1315.00
             984.96,1315.00 982.18,1299.00 982.18,1299.00
             982.18,1299.00 981.49,1289.00 981.49,1289.00
             981.49,1289.00 977.45,1268.00 977.45,1268.00
             977.29,1263.53 980.59,1261.04 981.67,1255.00
             984.49,1239.36 985.71,1223.64 992.64,1209.00
             996.69,1200.46 1003.60,1192.22 1011.00,1186.39
             1021.63,1178.01 1045.41,1169.06 1059.00,1169.00
             1059.00,1169.00 1064.00,1169.00 1064.00,1169.00
             1064.00,1169.00 1081.00,1168.00 1081.00,1168.00
             1081.00,1168.00 1097.00,1168.00 1097.00,1168.00
             1097.00,1168.00 1111.00,1169.00 1111.00,1169.00
             1117.35,1169.07 1123.85,1169.24 1130.00,1171.04
             1130.00,1171.04 1147.00,1178.00 1147.00,1178.00
             1161.29,1182.33 1181.15,1188.81 1192.00,1199.00
             1192.00,1199.00 1139.00,1230.82 1139.00,1230.82
             1131.30,1235.44 1114.61,1246.78 1107.00,1249.00
             1107.00,1249.00 1105.00,1241.00 1105.00,1241.00
             1099.31,1254.43 1097.81,1268.72 1095.56,1283.00
             1095.56,1283.00 1093.29,1296.00 1093.29,1296.00
             1093.29,1296.00 1092.71,1304.00 1092.71,1304.00
             1092.71,1304.00 1091.17,1313.00 1091.17,1313.00
             1091.17,1313.00 1089.83,1330.00 1089.83,1330.00
             1088.73,1341.34 1088.16,1336.64 1088.00,1351.00
             1088.00,1351.00 1085.00,1381.00 1085.00,1381.00
             1085.00,1381.00 1083.00,1414.00 1083.00,1414.00
             1083.00,1414.00 1082.00,1431.00 1082.00,1431.00
             1082.00,1431.00 1082.00,1482.00 1082.00,1482.00
             1082.00,1482.00 1082.96,1494.00 1082.96,1494.00
             1082.96,1494.00 1082.96,1507.00 1082.96,1507.00
             1082.96,1507.00 1085.00,1528.00 1085.00,1528.00
             1085.00,1528.00 1086.17,1553.00 1086.17,1553.00
             1086.47,1556.07 1087.91,1560.81 1085.40,1563.26
             1083.03,1565.59 1077.19,1564.90 1074.00,1565.04
             1074.00,1565.04 1059.00,1567.00 1059.00,1567.00
             1059.00,1567.00 1049.00,1567.00 1049.00,1567.00
             1049.00,1567.00 1040.00,1569.06 1040.00,1569.06
             1040.00,1569.06 1031.00,1569.06 1031.00,1569.06
             1031.00,1569.06 1014.00,1572.06 1014.00,1572.06
             1014.00,1572.06 1004.00,1572.06 1004.00,1572.06
             1004.00,1572.06 995.00,1573.83 995.00,1573.83
             995.00,1573.83 979.00,1575.30 979.00,1575.30
             979.00,1575.30 971.00,1577.00 971.00,1577.00
             971.00,1577.00 962.00,1577.00 962.00,1577.00
             962.00,1577.00 949.00,1579.00 949.00,1579.00 Z
           M 2170.00,1203.00
           C 2172.58,1194.93 2177.84,1192.40 2185.00,1188.76
             2198.92,1181.68 2200.77,1181.37 2215.00,1176.31
             2227.98,1171.69 2240.17,1169.02 2254.00,1169.00
             2254.00,1169.00 2271.00,1168.00 2271.00,1168.00
             2271.00,1168.00 2292.00,1168.00 2292.00,1168.00
             2292.00,1168.00 2303.00,1169.10 2303.00,1169.10
             2303.00,1169.10 2314.00,1169.10 2314.00,1169.10
             2327.70,1171.09 2350.79,1180.98 2360.99,1190.18
             2364.64,1193.48 2368.52,1198.82 2371.20,1203.00
             2377.17,1212.29 2381.56,1229.03 2383.54,1240.00
             2383.54,1240.00 2384.51,1250.00 2384.51,1250.00
             2386.00,1257.35 2389.36,1264.48 2388.96,1272.00
             2388.96,1272.00 2384.32,1298.00 2384.32,1298.00
             2384.32,1298.00 2383.72,1308.00 2383.72,1308.00
             2383.72,1308.00 2381.04,1327.00 2381.04,1327.00
             2381.04,1327.00 2381.04,1343.00 2381.04,1343.00
             2381.04,1343.00 2379.96,1353.00 2379.96,1353.00
             2379.96,1353.00 2379.96,1361.00 2379.96,1361.00
             2379.96,1361.00 2379.08,1368.00 2379.08,1368.00
             2379.08,1368.00 2380.92,1387.00 2380.92,1387.00
             2380.92,1387.00 2380.92,1401.00 2380.92,1401.00
             2380.92,1401.00 2386.62,1442.00 2386.62,1442.00
             2386.62,1442.00 2388.63,1450.00 2388.63,1450.00
             2388.63,1450.00 2389.32,1457.00 2389.32,1457.00
             2389.32,1457.00 2393.41,1475.00 2393.41,1475.00
             2393.41,1475.00 2397.59,1495.00 2397.59,1495.00
             2397.59,1495.00 2415.36,1565.00 2415.36,1565.00
             2415.36,1565.00 2417.47,1572.00 2417.47,1572.00
             2417.47,1572.00 2419.00,1583.00 2419.00,1583.00
             2412.95,1584.66 2409.95,1583.03 2404.00,1582.29
             2404.00,1582.29 2380.00,1579.43 2380.00,1579.43
             2380.00,1579.43 2370.00,1578.72 2370.00,1578.72
             2370.00,1578.72 2352.00,1575.94 2352.00,1575.94
             2352.00,1575.94 2343.00,1575.94 2343.00,1575.94
             2343.00,1575.94 2334.00,1574.00 2334.00,1574.00
             2334.00,1574.00 2326.00,1574.00 2326.00,1574.00
             2326.00,1574.00 2302.00,1571.00 2302.00,1571.00
             2302.00,1571.00 2280.00,1569.28 2280.00,1569.28
             2277.70,1569.01 2273.53,1569.31 2272.02,1567.40
             2270.62,1565.63 2270.98,1559.38 2271.00,1557.00
             2271.00,1557.00 2272.92,1542.00 2272.92,1542.00
             2272.92,1542.00 2272.92,1532.00 2272.92,1532.00
             2272.92,1532.00 2274.00,1515.00 2274.00,1515.00
             2274.00,1515.00 2276.00,1490.00 2276.00,1490.00
             2276.00,1490.00 2276.00,1425.00 2276.00,1425.00
             2276.00,1425.00 2274.04,1405.00 2274.04,1405.00
             2274.04,1405.00 2274.04,1395.00 2274.04,1395.00
             2274.04,1395.00 2273.00,1382.00 2273.00,1382.00
             2273.00,1382.00 2271.00,1357.00 2271.00,1357.00
             2271.00,1357.00 2268.06,1333.00 2268.06,1333.00
             2268.06,1333.00 2268.06,1321.00 2268.06,1321.00
             2268.06,1321.00 2266.17,1311.00 2266.17,1311.00
             2266.17,1311.00 2264.70,1296.00 2264.70,1296.00
             2264.70,1296.00 2263.17,1288.00 2263.17,1288.00
             2263.17,1288.00 2260.13,1269.00 2260.13,1269.00
             2259.58,1265.31 2259.09,1259.10 2257.15,1256.04
             2254.77,1252.30 2251.62,1251.48 2248.00,1249.49
             2248.00,1249.49 2233.00,1240.34 2233.00,1240.34
             2233.00,1240.34 2195.00,1217.87 2195.00,1217.87
             2195.00,1217.87 2170.00,1203.00 2170.00,1203.00 Z
           M 1189.00,1192.00
           C 1189.00,1192.00 1190.00,1192.00 1190.00,1192.00
             1190.00,1192.00 1189.00,1193.00 1189.00,1193.00
             1189.00,1193.00 1189.00,1192.00 1189.00,1192.00 Z
           M 1191.00,1193.00
           C 1191.00,1193.00 1192.00,1193.00 1192.00,1193.00
             1192.00,1193.00 1191.00,1194.00 1191.00,1194.00
             1191.00,1194.00 1191.00,1193.00 1191.00,1193.00 Z
           M 2534.00,1598.00
           C 2534.00,1598.00 2511.00,1595.06 2511.00,1595.06
             2511.00,1595.06 2503.00,1595.06 2503.00,1595.06
             2503.00,1595.06 2486.00,1592.06 2486.00,1592.06
             2486.00,1592.06 2478.00,1592.06 2478.00,1592.06
             2478.00,1592.06 2467.00,1590.09 2467.00,1590.09
             2467.00,1590.09 2446.00,1587.58 2446.00,1587.58
             2444.01,1587.29 2438.97,1587.04 2437.58,1585.98
             2435.48,1584.37 2434.41,1576.71 2433.92,1574.00
             2433.92,1574.00 2427.67,1548.00 2427.67,1548.00
             2427.67,1548.00 2423.60,1533.00 2423.60,1533.00
             2423.60,1533.00 2409.49,1474.00 2409.49,1474.00
             2409.49,1474.00 2405.37,1455.00 2405.37,1455.00
             2405.37,1455.00 2404.54,1448.00 2404.54,1448.00
             2403.38,1441.66 2402.09,1441.55 2402.00,1434.00
             2401.84,1420.26 2407.34,1411.38 2414.52,1400.00
             2426.79,1380.57 2440.86,1363.29 2463.00,1354.96
             2470.07,1352.30 2477.52,1350.74 2485.00,1349.73
             2487.29,1349.57 2490.70,1348.75 2492.86,1349.73
             2497.23,1351.37 2496.84,1358.95 2497.86,1363.00
             2499.81,1370.73 2498.37,1371.14 2499.32,1377.00
             2499.32,1377.00 2501.56,1387.00 2501.56,1387.00
             2501.56,1387.00 2502.21,1395.00 2502.21,1395.00
             2502.21,1395.00 2503.79,1402.00 2503.79,1402.00
             2503.79,1402.00 2504.44,1409.00 2504.44,1409.00
             2504.44,1409.00 2506.68,1419.00 2506.68,1419.00
             2506.68,1419.00 2507.32,1428.00 2507.32,1428.00
             2507.32,1428.00 2511.63,1451.00 2511.63,1451.00
             2511.63,1451.00 2512.46,1460.00 2512.46,1460.00
             2512.46,1460.00 2514.68,1469.00 2514.68,1469.00
             2514.68,1469.00 2515.32,1477.00 2515.32,1477.00
             2515.32,1477.00 2519.68,1500.00 2519.68,1500.00
             2519.68,1500.00 2520.32,1508.00 2520.32,1508.00
             2520.32,1508.00 2522.68,1517.00 2522.68,1517.00
             2522.68,1517.00 2523.18,1524.00 2523.18,1524.00
             2523.18,1524.00 2524.68,1531.00 2524.68,1531.00
             2524.68,1531.00 2525.43,1538.00 2525.43,1538.00
             2525.43,1538.00 2527.63,1548.00 2527.63,1548.00
             2527.63,1548.00 2528.32,1556.00 2528.32,1556.00
             2528.32,1556.00 2529.86,1563.00 2529.86,1563.00
             2529.86,1563.00 2531.37,1574.00 2531.37,1574.00
             2531.37,1574.00 2532.92,1580.00 2532.92,1580.00
             2532.92,1580.00 2532.92,1589.00 2532.92,1589.00
             2532.92,1589.00 2534.00,1598.00 2534.00,1598.00 Z
           M 873.27,1351.02
           C 879.36,1348.75 887.83,1350.20 894.00,1351.86
             909.76,1356.09 916.61,1359.87 929.00,1370.58
             940.52,1380.53 949.81,1394.79 957.28,1408.00
             960.22,1413.20 965.11,1423.15 965.78,1429.00
             965.78,1429.00 961.20,1456.00 961.20,1456.00
             958.66,1472.88 948.26,1515.98 943.36,1533.00
             943.36,1533.00 933.58,1572.00 933.58,1572.00
             932.66,1575.42 932.03,1583.18 929.57,1585.02
             926.76,1587.11 920.43,1586.83 917.00,1587.17
             917.00,1587.17 906.00,1588.84 906.00,1588.84
             906.00,1588.84 890.00,1590.43 890.00,1590.43
             890.00,1590.43 857.00,1594.72 857.00,1594.72
             857.00,1594.72 849.00,1595.29 849.00,1595.29
             845.54,1595.74 836.41,1598.33 833.57,1595.98
             831.67,1594.31 833.02,1588.29 833.57,1586.00
             833.57,1586.00 835.32,1573.00 835.32,1573.00
             836.45,1566.14 837.22,1567.49 838.09,1558.00
             838.09,1558.00 839.68,1550.00 839.68,1550.00
             839.68,1550.00 840.46,1542.00 840.46,1542.00
             840.46,1542.00 842.70,1532.00 842.70,1532.00
             842.70,1532.00 843.21,1525.00 843.21,1525.00
             843.21,1525.00 844.83,1518.00 844.83,1518.00
             844.83,1518.00 847.68,1501.00 847.68,1501.00
             847.68,1501.00 848.32,1493.00 848.32,1493.00
             848.32,1493.00 850.54,1484.00 850.54,1484.00
             850.54,1484.00 851.32,1476.00 851.32,1476.00
             851.32,1476.00 855.68,1453.00 855.68,1453.00
             855.68,1453.00 856.32,1445.00 856.32,1445.00
             856.32,1445.00 858.71,1434.00 858.71,1434.00
             858.71,1434.00 859.32,1427.00 859.32,1427.00
             859.32,1427.00 860.82,1420.00 860.82,1420.00
             860.82,1420.00 861.46,1413.00 861.46,1413.00
             861.46,1413.00 863.94,1403.00 863.94,1403.00
             863.94,1403.00 863.94,1396.00 863.94,1396.00
             863.94,1396.00 865.86,1388.00 865.86,1388.00
             865.86,1388.00 868.49,1371.00 868.49,1371.00
             869.92,1363.83 867.25,1356.74 873.27,1351.02 Z
           M 2289.00,1873.00
           C 2293.86,1869.52 2293.89,1870.64 2298.00,1868.32
             2298.00,1868.32 2326.00,1851.31 2326.00,1851.31
             2361.21,1828.51 2395.82,1800.20 2417.80,1764.00
             2427.80,1747.53 2434.13,1731.41 2439.55,1713.00
             2439.55,1713.00 2443.68,1698.00 2443.68,1698.00
             2443.68,1698.00 2444.29,1691.00 2444.29,1691.00
             2445.40,1682.52 2445.88,1684.97 2446.01,1675.00
             2446.04,1672.50 2445.70,1666.69 2447.62,1664.98
             2449.25,1663.54 2453.85,1663.13 2456.00,1663.04
             2456.00,1663.04 2474.00,1661.92 2474.00,1661.92
             2474.00,1661.92 2491.00,1660.00 2491.00,1660.00
             2502.66,1659.95 2500.54,1659.13 2510.00,1658.17
             2510.00,1658.17 2528.00,1656.83 2528.00,1656.83
             2528.00,1656.83 2541.00,1655.00 2541.00,1655.00
             2541.00,1655.00 2543.91,1663.00 2543.91,1663.00
             2543.91,1663.00 2543.91,1688.00 2543.91,1688.00
             2543.91,1688.00 2543.91,1728.00 2543.91,1728.00
             2543.98,1738.20 2542.42,1739.32 2541.04,1748.00
             2541.04,1748.00 2541.04,1756.00 2541.04,1756.00
             2541.04,1756.00 2538.82,1764.00 2538.82,1764.00
             2538.82,1764.00 2533.62,1787.00 2533.62,1787.00
             2533.62,1787.00 2530.18,1800.00 2530.18,1800.00
             2525.03,1815.80 2518.75,1831.34 2510.88,1846.00
             2501.06,1864.32 2484.61,1888.57 2470.83,1904.00
             2470.83,1904.00 2452.00,1923.00 2452.00,1923.00
             2452.00,1923.00 2435.00,1939.70 2435.00,1939.70
             2408.53,1962.39 2377.37,1981.39 2346.00,1996.42
             2346.00,1996.42 2314.00,2012.26 2314.00,2012.26
             2307.90,2015.41 2302.70,2019.09 2296.00,2021.00
             2300.33,2028.77 2307.93,2023.88 2312.66,2032.04
             2317.15,2039.79 2324.34,2062.78 2326.50,2072.00
             2326.50,2072.00 2330.63,2089.00 2330.63,2089.00
             2330.63,2089.00 2331.46,2096.00 2331.46,2096.00
             2331.46,2096.00 2333.68,2105.00 2333.68,2105.00
             2333.68,2105.00 2334.29,2116.00 2334.29,2116.00
             2335.22,2123.14 2335.99,2122.65 2336.00,2131.00
             2336.00,2131.00 2337.00,2161.00 2337.00,2161.00
             2337.00,2161.00 2336.00,2176.00 2336.00,2176.00
             2335.98,2186.58 2335.72,2185.16 2334.30,2195.00
             2334.30,2195.00 2333.54,2203.00 2333.54,2203.00
             2333.54,2203.00 2331.51,2211.00 2331.51,2211.00
             2331.51,2211.00 2330.41,2218.00 2330.41,2218.00
             2319.13,2265.64 2294.22,2306.42 2261.09,2342.00
             2261.09,2342.00 2247.00,2356.96 2247.00,2356.96
             2247.00,2356.96 2226.00,2375.30 2226.00,2375.30
             2177.94,2416.28 2115.28,2455.67 2059.00,2484.69
             2059.00,2484.69 2026.00,2500.12 2026.00,2500.12
             2026.00,2500.12 1951.00,2533.87 1951.00,2533.87
             1951.00,2533.87 1866.00,2568.50 1866.00,2568.50
             1866.00,2568.50 1853.00,2573.41 1853.00,2573.41
             1845.60,2575.84 1834.63,2578.62 1828.00,2582.00
             1849.39,2581.53 1866.65,2573.05 1883.00,2573.00
             1882.97,2584.06 1880.05,2589.74 1877.60,2600.00
             1877.60,2600.00 1876.63,2608.00 1876.63,2608.00
             1876.63,2608.00 1874.47,2616.00 1874.47,2616.00
             1874.47,2616.00 1873.82,2623.00 1873.82,2623.00
             1873.82,2623.00 1872.01,2631.00 1872.01,2631.00
             1872.01,2631.00 1872.01,2642.00 1872.01,2642.00
             1872.01,2642.00 1870.04,2657.00 1870.04,2657.00
             1870.04,2657.00 1870.04,2672.00 1870.04,2672.00
             1870.04,2672.00 1871.17,2689.00 1871.17,2689.00
             1871.52,2692.71 1872.59,2695.47 1870.26,2698.90
             1868.19,2701.94 1862.30,2704.69 1859.00,2706.83
             1859.00,2706.83 1833.00,2723.77 1833.00,2723.77
             1812.58,2738.04 1784.55,2762.79 1770.29,2783.00
             1756.44,2802.64 1746.96,2823.72 1738.26,2846.00
             1736.41,2850.74 1732.69,2866.19 1726.00,2864.35
             1723.64,2863.70 1719.93,2860.37 1718.00,2858.73
             1718.00,2858.73 1704.00,2847.51 1704.00,2847.51
             1691.35,2838.03 1677.48,2829.61 1663.00,2823.23
             1643.83,2814.79 1623.68,2808.67 1603.00,2805.32
             1603.00,2805.32 1585.00,2804.04 1585.00,2804.04
             1582.10,2803.91 1577.69,2804.40 1575.18,2802.98
             1572.46,2801.43 1569.87,2796.67 1568.14,2794.00
             1568.14,2794.00 1556.23,2776.00 1556.23,2776.00
             1546.86,2762.65 1529.02,2744.14 1516.00,2734.37
             1510.59,2730.31 1501.99,2725.04 1496.00,2721.77
             1492.76,2720.00 1487.89,2717.70 1486.64,2713.96
             1485.72,2711.24 1487.18,2707.76 1487.69,2705.00
             1488.58,2700.24 1488.99,2695.83 1489.00,2691.00
             1489.00,2691.00 1489.00,2646.00 1489.00,2646.00
             1488.99,2637.65 1487.58,2633.75 1486.32,2626.00
             1486.32,2626.00 1485.68,2617.00 1485.68,2617.00
             1485.68,2617.00 1476.59,2580.00 1476.59,2580.00
             1476.59,2580.00 1475.00,2571.00 1475.00,2571.00
             1483.27,2569.74 1492.09,2572.87 1500.00,2575.15
             1511.28,2578.40 1519.41,2580.07 1531.00,2581.73
             1535.95,2582.44 1541.03,2583.75 1546.00,2583.00
             1531.69,2580.31 1517.69,2574.53 1504.00,2569.63
             1504.00,2569.63 1473.00,2558.77 1473.00,2558.77
             1473.00,2558.77 1458.00,2551.17 1458.00,2551.17
             1458.00,2551.17 1394.00,2524.08 1394.00,2524.08
             1360.89,2509.04 1327.13,2495.02 1295.00,2477.89
             1259.53,2458.97 1225.03,2437.45 1192.00,2414.56
             1143.67,2381.09 1099.56,2343.16 1067.89,2293.00
             1054.33,2271.52 1043.91,2246.58 1037.61,2222.00
             1037.61,2222.00 1033.83,2202.00 1033.83,2202.00
             1033.83,2202.00 1032.02,2195.00 1032.02,2195.00
             1032.02,2195.00 1032.02,2184.00 1032.02,2184.00
             1032.02,2184.00 1030.00,2164.00 1030.00,2164.00
             1030.00,2164.00 1030.00,2148.00 1030.00,2148.00
             1030.00,2148.00 1032.00,2122.00 1032.00,2122.00
             1032.02,2111.57 1034.66,2100.25 1036.63,2090.00
             1036.63,2090.00 1037.37,2084.00 1037.37,2084.00
             1037.37,2084.00 1039.32,2077.00 1039.32,2077.00
             1039.32,2077.00 1048.50,2046.00 1048.50,2046.00
             1050.00,2041.78 1053.91,2031.15 1057.21,2028.58
             1060.16,2026.29 1067.27,2025.18 1071.00,2025.00
             1069.17,2019.13 1065.17,2018.34 1060.00,2015.75
             1060.00,2015.75 1032.00,2001.29 1032.00,2001.29
             1001.20,1987.93 972.68,1970.84 946.00,1950.50
             946.00,1950.50 938.00,1944.68 938.00,1944.68
             901.64,1914.39 868.27,1874.39 848.67,1831.00
             841.05,1814.13 834.85,1795.00 830.59,1777.00
             830.59,1777.00 829.48,1770.00 829.48,1770.00
             829.48,1770.00 827.32,1762.00 827.32,1762.00
             827.32,1762.00 826.68,1754.00 826.68,1754.00
             826.68,1754.00 822.00,1715.00 822.00,1715.00
             822.00,1715.00 822.00,1694.00 822.00,1694.00
             822.00,1694.00 823.92,1675.00 823.92,1675.00
             823.92,1675.00 823.92,1667.00 823.92,1667.00
             823.92,1667.00 825.00,1656.00 825.00,1656.00
             825.00,1656.00 835.00,1656.91 835.00,1656.91
             835.00,1656.91 853.00,1658.15 853.00,1658.15
             853.00,1658.15 868.00,1660.00 868.00,1660.00
             868.00,1660.00 891.00,1662.89 891.00,1662.89
             891.00,1662.89 902.00,1662.89 902.00,1662.89
             902.00,1662.89 921.00,1666.00 921.00,1666.00
             920.03,1686.52 924.32,1705.84 931.31,1725.00
             938.43,1744.53 945.57,1759.94 957.78,1777.00
             977.51,1804.57 1004.37,1825.90 1032.00,1845.02
             1032.00,1845.02 1056.00,1860.99 1056.00,1860.99
             1056.00,1860.99 1079.00,1873.00 1079.00,1873.00
             1079.23,1865.77 1080.32,1867.11 1081.88,1861.00
             1081.88,1861.00 1089.49,1832.00 1089.49,1832.00
             1098.93,1795.74 1112.48,1758.83 1130.66,1726.00
             1130.66,1726.00 1147.26,1699.00 1147.26,1699.00
             1149.59,1695.52 1152.32,1689.98 1156.04,1688.02
             1158.77,1686.59 1165.71,1686.97 1169.00,1687.00
             1169.00,1687.00 1184.00,1688.92 1184.00,1688.92
             1184.00,1688.92 1200.00,1688.92 1200.00,1688.92
             1200.00,1688.92 1224.00,1691.83 1224.00,1691.83
             1224.00,1691.83 1256.00,1693.00 1256.00,1693.00
             1256.00,1693.00 1269.00,1694.00 1269.00,1694.00
             1269.00,1694.00 1286.00,1695.00 1286.00,1695.00
             1286.00,1695.00 1300.00,1695.00 1300.00,1695.00
             1300.00,1695.00 1329.00,1697.00 1329.00,1697.00
             1329.00,1697.00 1371.00,1697.00 1371.00,1697.00
             1371.00,1697.00 1386.00,1698.00 1386.00,1698.00
             1386.00,1698.00 1402.00,1698.00 1402.00,1698.00
             1402.00,1698.00 1416.00,1699.00 1416.00,1699.00
             1416.00,1699.00 1473.00,1699.00 1473.00,1699.00
             1484.69,1699.02 1487.38,1704.05 1493.86,1713.00
             1497.59,1718.15 1501.74,1722.95 1504.05,1729.00
             1505.47,1732.75 1506.84,1742.54 1507.59,1747.00
             1507.59,1747.00 1517.25,1805.00 1517.25,1805.00
             1517.25,1805.00 1521.42,1832.00 1521.42,1832.00
             1521.42,1832.00 1527.09,1850.00 1527.09,1850.00
             1527.09,1850.00 1541.87,1908.00 1541.87,1908.00
             1541.87,1908.00 1546.25,1924.96 1546.25,1924.96
             1547.46,1928.16 1549.24,1929.59 1549.61,1932.08
             1550.10,1935.38 1548.06,1937.70 1547.57,1940.17
             1547.57,1940.17 1547.00,1951.00 1547.00,1951.00
             1547.00,1951.00 1551.00,1951.00 1551.00,1951.00
             1551.00,1951.00 1555.05,1985.00 1555.05,1985.00
             1555.05,1985.00 1555.05,2001.00 1555.05,2001.00
             1555.05,2001.00 1557.45,2008.00 1557.45,2008.00
             1557.45,2008.00 1558.72,2017.00 1558.72,2017.00
             1558.72,2017.00 1560.61,2034.00 1560.61,2034.00
             1561.02,2038.44 1559.71,2039.34 1560.61,2045.00
             1560.98,2049.35 1562.53,2056.11 1564.43,2060.00
             1567.49,2066.22 1570.52,2066.22 1570.00,2074.00
             1572.85,2074.18 1576.24,2074.17 1578.72,2075.71
             1580.97,2077.12 1582.69,2080.03 1586.00,2080.16
             1588.37,2080.25 1597.79,2075.36 1601.00,2074.24
             1606.39,2072.36 1619.12,2071.01 1625.00,2071.00
             1625.00,2071.00 1647.00,2071.00 1647.00,2071.00
             1658.04,2071.05 1667.71,2074.64 1679.00,2072.67
             1679.00,2072.67 1686.00,2070.59 1686.00,2070.59
             1706.09,2064.95 1732.89,2051.01 1753.00,2051.74
             1760.24,2052.01 1767.10,2052.73 1774.00,2055.17
             1774.00,2055.17 1786.96,2060.59 1786.96,2060.59
             1789.85,2060.55 1791.17,2057.72 1794.09,2055.97
             1797.53,2053.90 1802.06,2053.12 1806.00,2053.00
             1801.42,2040.73 1805.66,2035.70 1807.01,2024.00
             1807.01,2024.00 1807.01,2015.00 1807.01,2015.00
             1807.01,2015.00 1809.05,2007.00 1809.05,2007.00
             1809.05,2007.00 1809.05,1999.00 1809.05,1999.00
             1809.05,1999.00 1811.68,1988.00 1811.68,1988.00
             1811.68,1988.00 1812.18,1979.00 1812.18,1979.00
             1812.18,1979.00 1814.00,1970.00 1814.00,1970.00
             1814.00,1970.00 1817.00,1970.00 1817.00,1970.00
             1813.92,1957.06 1816.10,1961.03 1817.83,1949.00
             1817.83,1949.00 1825.60,1906.00 1825.60,1906.00
             1825.60,1906.00 1832.48,1873.00 1832.48,1873.00
             1832.48,1873.00 1837.61,1858.00 1837.61,1858.00
             1837.61,1858.00 1840.17,1821.00 1840.17,1821.00
             1840.17,1821.00 1843.57,1800.00 1843.57,1800.00
             1843.57,1800.00 1846.00,1773.00 1846.00,1773.00
             1846.08,1765.56 1847.61,1753.04 1849.77,1746.00
             1849.77,1746.00 1852.38,1739.00 1852.38,1739.00
             1854.17,1733.13 1855.75,1727.48 1858.80,1722.04
             1860.26,1719.44 1862.32,1717.25 1864.15,1714.91
             1867.68,1710.40 1871.85,1703.96 1877.00,1701.31
             1880.09,1699.73 1892.11,1699.01 1896.00,1699.00
             1896.00,1699.00 1935.00,1699.00 1935.00,1699.00
             1944.35,1698.98 1941.46,1698.06 1946.17,1697.24
             1946.17,1697.24 1964.00,1696.00 1964.00,1696.00
             1964.00,1696.00 1994.00,1695.00 1994.00,1695.00
             1994.00,1695.00 2010.00,1694.00 2010.00,1694.00
             2010.00,1694.00 2034.00,1694.00 2034.00,1694.00
             2034.00,1694.00 2066.00,1692.00 2066.00,1692.00
             2066.00,1692.00 2085.00,1692.00 2085.00,1692.00
             2085.00,1692.00 2115.00,1689.08 2115.00,1689.08
             2115.00,1689.08 2129.00,1689.08 2129.00,1689.08
             2129.00,1689.08 2144.00,1688.00 2144.00,1688.00
             2144.00,1688.00 2175.00,1686.87 2175.00,1686.87
             2181.05,1686.99 2192.96,1684.87 2198.00,1686.87
             2202.68,1688.46 2209.26,1695.43 2213.00,1698.91
             2213.00,1698.91 2227.67,1712.01 2227.67,1712.01
             2231.94,1717.05 2238.39,1729.74 2241.52,1736.00
             2255.41,1763.77 2267.10,1793.05 2275.41,1823.00
             2275.41,1823.00 2279.58,1840.00 2279.58,1840.00
             2279.58,1840.00 2284.87,1860.00 2284.87,1860.00
             2284.87,1860.00 2289.00,1873.00 2289.00,1873.00 Z
           M 2265.00,1679.00
           C 2265.00,1679.00 2282.00,1677.83 2282.00,1677.83
             2282.00,1677.83 2301.00,1676.00 2301.00,1676.00
             2301.00,1676.00 2336.00,1673.00 2336.00,1673.00
             2336.00,1673.00 2358.00,1671.17 2358.00,1671.17
             2358.00,1671.17 2381.00,1669.91 2381.00,1669.91
             2381.00,1669.91 2394.00,1668.08 2394.00,1668.08
             2394.00,1668.08 2404.00,1668.08 2404.00,1668.08
             2404.00,1668.08 2422.00,1666.09 2422.00,1666.09
             2424.10,1665.96 2427.38,1665.73 2428.83,1667.57
             2430.40,1669.57 2430.03,1676.34 2430.00,1679.00
             2429.86,1690.79 2426.69,1702.84 2423.28,1714.00
             2415.83,1738.43 2404.12,1761.34 2387.68,1781.00
             2387.68,1781.00 2360.00,1808.70 2360.00,1808.70
             2360.00,1808.70 2347.00,1819.13 2347.00,1819.13
             2347.00,1819.13 2314.00,1842.98 2314.00,1842.98
             2311.17,1844.93 2303.37,1850.77 2300.14,1850.46
             2296.34,1850.10 2294.75,1840.16 2293.97,1837.00
             2293.97,1837.00 2281.40,1793.00 2281.40,1793.00
             2272.83,1767.64 2258.49,1734.78 2244.66,1712.00
             2244.66,1712.00 2232.63,1693.00 2232.63,1693.00
             2231.53,1691.09 2229.56,1687.76 2231.07,1685.60
             2232.59,1683.41 2238.52,1684.07 2241.00,1683.96
             2241.00,1683.96 2254.00,1682.08 2254.00,1682.08
             2254.00,1682.08 2265.00,1682.08 2265.00,1682.08
             2265.00,1682.08 2265.00,1679.00 2265.00,1679.00 Z
           M 937.00,1667.00
           C 937.00,1667.00 958.00,1668.00 958.00,1668.00
             958.00,1668.00 981.00,1670.00 981.00,1670.00
             981.00,1670.00 991.00,1670.00 991.00,1670.00
             991.00,1670.00 1024.00,1673.00 1024.00,1673.00
             1024.00,1673.00 1045.00,1674.83 1045.00,1674.83
             1045.00,1674.83 1063.00,1676.00 1063.00,1676.00
             1063.00,1676.00 1081.00,1677.92 1081.00,1677.92
             1081.00,1677.92 1098.00,1677.92 1098.00,1677.92
             1098.00,1677.92 1098.00,1682.00 1098.00,1682.00
             1098.00,1682.00 1121.00,1684.00 1121.00,1684.00
             1121.00,1684.00 1127.00,1684.00 1127.00,1684.00
             1129.68,1684.01 1134.39,1683.58 1135.92,1686.31
             1137.38,1688.92 1135.08,1691.89 1133.73,1694.00
             1133.73,1694.00 1122.58,1712.00 1122.58,1712.00
             1104.29,1741.52 1090.13,1777.84 1079.90,1811.00
             1079.90,1811.00 1072.31,1840.00 1072.31,1840.00
             1071.38,1842.66 1070.98,1847.50 1068.69,1848.97
             1064.70,1851.53 1058.26,1846.47 1055.00,1844.26
             1055.00,1844.26 1020.00,1819.00 1020.00,1819.00
             998.27,1802.55 972.56,1776.03 959.48,1752.00
             954.73,1743.28 951.08,1734.24 947.50,1725.00
             942.59,1712.33 937.02,1692.51 937.00,1679.00
             937.00,1679.00 937.00,1667.00 937.00,1667.00 Z
           M 1495.00,1705.00
           C 1495.00,1705.00 1496.00,1705.00 1496.00,1705.00
             1496.00,1705.00 1495.00,1706.00 1495.00,1706.00
             1495.00,1706.00 1495.00,1705.00 1495.00,1705.00 Z
           M 1516.00,1780.00
           C 1516.00,1780.00 1517.00,1780.00 1517.00,1780.00
             1517.00,1780.00 1516.00,1781.00 1516.00,1781.00
             1516.00,1781.00 1516.00,1780.00 1516.00,1780.00 Z
           M 813.00,2989.00
           C 813.00,2989.00 926.00,2989.00 926.00,2989.00
             926.00,2989.00 926.00,3156.00 926.00,3156.00
             926.00,3156.00 1095.00,3156.00 1095.00,3156.00
             1095.00,3156.00 1095.00,3270.00 1095.00,3270.00
             1095.00,3270.00 926.00,3270.00 926.00,3270.00
             926.00,3270.00 926.00,3437.00 926.00,3437.00
             926.00,3437.00 813.00,3437.00 813.00,3437.00
             813.00,3437.00 813.00,3270.00 813.00,3270.00
             813.00,3270.00 644.00,3270.00 644.00,3270.00
             644.00,3270.00 644.00,3156.00 644.00,3156.00
             644.00,3156.00 813.00,3156.00 813.00,3156.00
             813.00,3156.00 813.00,2989.00 813.00,2989.00 Z
           M 2566.00,3027.00
           C 2566.00,3027.00 2679.00,3027.00 2679.00,3027.00
             2679.00,3027.00 2679.00,3194.00 2679.00,3194.00
             2679.00,3194.00 2848.00,3194.00 2848.00,3194.00
             2848.00,3194.00 2848.00,3308.00 2848.00,3308.00
             2848.00,3308.00 2679.00,3308.00 2679.00,3308.00
             2679.00,3308.00 2679.00,3475.00 2679.00,3475.00
             2679.00,3475.00 2566.00,3475.00 2566.00,3475.00
             2566.00,3475.00 2566.00,3308.00 2566.00,3308.00
             2566.00,3308.00 2397.00,3308.00 2397.00,3308.00
             2397.00,3308.00 2397.00,3194.00 2397.00,3194.00
             2397.00,3194.00 2566.00,3194.00 2566.00,3194.00
             2566.00,3194.00 2566.00,3027.00 2566.00,3027.00 Z" />
</svg>
