<?xml version="1.0" encoding="UTF-8" standalone="no"?>
<!DOCTYPE svg PUBLIC "-//W3C//DTD SVG 20010904//EN"
              "http://www.w3.org/TR/2001/REC-SVG-20010904/DTD/svg10.dtd">

<svg xmlns="http://www.w3.org/2000/svg"
     width="11in" height="14in"
     viewBox="0 0 3300 4200">
  <path id="4 - ear tips"
        fill="none" stroke="black" stroke-width="1"
        d="M 970.00,1415.00
           C 961.89,1416.19 964.25,1414.54 958.00,1400.00
             952.94,1388.24 940.66,1367.87 930.91,1359.90
             921.58,1352.26 909.73,1346.46 898.00,1343.60
             898.00,1343.60 889.00,1342.00 889.00,1342.00
             880.82,1340.06 874.51,1342.53 872.61,1337.85
             871.47,1335.04 873.79,1326.83 874.06,1323.00
             874.06,1323.00 874.06,1314.00 874.06,1314.00
             874.06,1314.00 877.00,1290.00 877.00,1290.00
             877.00,1290.00 877.00,1278.00 877.00,1278.00
             877.00,1278.00 879.00,1256.00 879.00,1256.00
             879.00,1256.00 879.00,1199.00 879.00,1199.00
             878.99,1190.04 877.88,1190.10 877.08,1183.00
             877.08,1183.00 877.08,1174.00 877.08,1174.00
             876.91,1166.48 875.18,1163.77 874.29,1157.00
             874.29,1157.00 873.68,1150.00 873.68,1150.00
             871.85,1138.84 867.52,1124.22 862.68,1114.00
             860.73,1109.89 858.01,1105.35 854.90,1102.04
             853.17,1100.20 849.29,1097.28 848.74,1094.91
             847.98,1091.56 851.90,1088.14 854.00,1086.00
             861.93,1077.93 865.14,1075.74 875.00,1070.38
             897.03,1058.39 915.31,1052.16 940.00,1048.57
             948.60,1047.32 949.68,1046.01 959.00,1046.00
             959.00,1046.00 973.00,1046.00 973.00,1046.00
             973.00,1046.00 992.00,1048.72 992.00,1048.72
             1039.44,1054.63 1084.64,1080.70 1122.00,1109.50
             1145.59,1127.69 1166.99,1148.90 1185.74,1172.00
             1185.74,1172.00 1193.45,1182.00 1193.45,1182.00
             1197.67,1187.30 1206.12,1195.62 1195.00,1199.00
             1192.51,1193.70 1188.86,1192.03 1184.00,1189.06
             1177.11,1184.86 1158.58,1178.51 1150.00,1175.19
             1150.00,1175.19 1133.00,1168.92 1133.00,1168.92
             1133.00,1168.92 1105.00,1164.85 1105.00,1164.85
             1081.16,1162.00 1080.37,1160.71 1055.00,1161.00
             1039.70,1161.18 1033.17,1166.17 1020.00,1172.75
             1020.00,1172.75 1009.00,1178.33 1009.00,1178.33
             1004.97,1180.88 990.45,1193.35 987.97,1197.04
             985.92,1200.08 976.97,1221.23 976.04,1225.00
             976.04,1225.00 973.54,1240.00 973.54,1240.00
             973.54,1240.00 970.84,1249.00 970.84,1249.00
             968.02,1260.93 967.98,1267.02 968.00,1279.00
             968.00,1279.00 973.00,1331.00 973.00,1331.00
             973.00,1331.00 972.00,1346.00 972.00,1346.00
             972.00,1346.00 972.00,1389.00 972.00,1389.00
             972.00,1389.00 970.00,1415.00 970.00,1415.00 Z
           M 2167.00,1201.00
           C 2160.79,1194.68 2168.94,1187.48 2173.28,1182.00
             2185.19,1166.98 2197.44,1152.56 2211.00,1139.00
             2211.00,1139.00 2228.00,1123.72 2228.00,1123.72
             2266.75,1089.92 2313.04,1060.76 2364.00,1050.63
             2372.13,1049.02 2387.15,1046.01 2395.00,1046.00
             2395.00,1046.00 2410.00,1046.00 2410.00,1046.00
             2416.11,1046.08 2421.98,1047.68 2428.00,1048.57
             2451.79,1052.10 2472.00,1059.07 2493.00,1071.00
             2500.68,1075.36 2513.57,1082.56 2517.06,1091.00
             2519.55,1097.00 2513.77,1100.03 2510.47,1104.01
             2505.55,1109.94 2502.53,1117.80 2499.93,1125.00
             2499.93,1125.00 2494.37,1144.00 2494.37,1144.00
             2494.37,1144.00 2493.63,1152.00 2493.63,1152.00
             2493.63,1152.00 2491.43,1162.00 2491.43,1162.00
             2491.43,1162.00 2490.83,1172.00 2490.83,1172.00
             2490.83,1172.00 2489.09,1181.00 2489.09,1181.00
             2489.09,1181.00 2489.09,1196.00 2489.09,1196.00
             2489.09,1196.00 2488.00,1213.00 2488.00,1213.00
             2488.00,1213.00 2488.00,1240.00 2488.00,1240.00
             2488.00,1240.00 2489.00,1255.00 2489.00,1255.00
             2489.00,1255.00 2489.00,1273.00 2489.00,1273.00
             2489.01,1281.76 2490.12,1282.69 2490.92,1290.00
             2490.92,1290.00 2490.92,1300.00 2490.92,1300.00
             2490.92,1300.00 2492.17,1313.00 2492.17,1313.00
             2492.85,1318.74 2493.91,1318.82 2494.00,1326.00
             2494.00,1326.00 2494.00,1333.00 2494.00,1333.00
             2493.80,1343.65 2488.95,1339.68 2476.00,1342.34
             2456.05,1346.43 2443.25,1351.58 2429.09,1367.00
             2421.13,1375.66 2414.23,1392.06 2408.75,1403.00
             2406.11,1408.29 2404.03,1416.02 2398.00,1418.00
             2396.44,1411.59 2394.99,1394.83 2395.00,1388.00
             2395.00,1388.00 2396.00,1371.00 2396.00,1371.00
             2396.00,1371.00 2397.00,1322.00 2397.00,1322.00
             2397.00,1322.00 2399.82,1285.00 2399.82,1285.00
             2399.82,1285.00 2395.41,1258.00 2395.41,1258.00
             2393.71,1247.83 2389.15,1224.02 2385.91,1215.00
             2383.74,1208.95 2379.40,1201.71 2376.31,1196.00
             2376.31,1196.00 2371.04,1186.00 2371.04,1186.00
             2363.83,1174.96 2349.86,1164.92 2337.00,1161.70
             2337.00,1161.70 2322.00,1159.84 2322.00,1159.84
             2322.00,1159.84 2309.00,1158.34 2309.00,1158.34
             2309.00,1158.34 2264.00,1163.85 2264.00,1163.85
             2244.41,1166.19 2232.01,1167.06 2213.00,1173.66
             2201.88,1177.52 2179.11,1185.85 2171.33,1194.18
             2169.31,1196.34 2168.28,1198.40 2167.00,1201.00 Z
           M 813.00,2989.00
           C 813.00,2989.00 926.00,2989.00 926.00,2989.00
             926.00,2989.00 926.00,3156.00 926.00,3156.00
             926.00,3156.00 1095.00,3156.00 1095.00,3156.00
             1095.00,3156.00 1095.00,3270.00 1095.00,3270.00
             1095.00,3270.00 926.00,3270.00 926.00,3270.00
             926.00,3270.00 926.00,3437.00 926.00,3437.00
             926.00,3437.00 813.00,3437.00 813.00,3437.00
             813.00,3437.00 813.00,3270.00 813.00,3270.00
             813.00,3270.00 644.00,3270.00 644.00,3270.00
             644.00,3270.00 644.00,3156.00 644.00,3156.00
             644.00,3156.00 813.00,3156.00 813.00,3156.00
             813.00,3156.00 813.00,2989.00 813.00,2989.00 Z
           M 2566.00,3027.00
           C 2566.00,3027.00 2679.00,3027.00 2679.00,3027.00
             2679.00,3027.00 2679.00,3194.00 2679.00,3194.00
             2679.00,3194.00 2848.00,3194.00 2848.00,3194.00
             2848.00,3194.00 2848.00,3308.00 2848.00,3308.00
             2848.00,3308.00 2679.00,3308.00 2679.00,3308.00
             2679.00,3308.00 2679.00,3475.00 2679.00,3475.00
             2679.00,3475.00 2566.00,3475.00 2566.00,3475.00
             2566.00,3475.00 2566.00,3308.00 2566.00,3308.00
             2566.00,3308.00 2397.00,3308.00 2397.00,3308.00
             2397.00,3308.00 2397.00,3194.00 2397.00,3194.00
             2397.00,3194.00 2566.00,3194.00 2566.00,3194.00
             2566.00,3194.00 2566.00,3027.00 2566.00,3027.00 Z" />
</svg>
