<?xml version="1.0" encoding="UTF-8" standalone="no"?>
<!DOCTYPE svg PUBLIC "-//W3C//DTD SVG 20010904//EN"
              "http://www.w3.org/TR/2001/REC-SVG-20010904/DTD/svg10.dtd">

<svg xmlns="http://www.w3.org/2000/svg"
     width="11in" height="14in"
     viewBox="0 0 3300 4200">
  <path id="5 - hat"
        fill="none" stroke="black" stroke-width="1"
        d="M 1852.00,1039.00
           C 1862.00,1039.81 1881.23,1046.03 1890.00,1050.78
             1890.00,1050.78 1910.00,1064.12 1910.00,1064.12
             1910.00,1064.12 1957.00,1095.57 1957.00,1095.57
             1957.00,1095.57 2017.00,1134.57 2017.00,1134.57
             2017.00,1134.57 2027.00,1140.09 2027.00,1140.09
             2027.00,1140.09 2115.00,1191.71 2115.00,1191.71
             2115.00,1191.71 2161.00,1218.65 2161.00,1218.65
             2161.00,1218.65 2173.00,1225.75 2173.00,1225.75
             2173.00,1225.75 2231.00,1258.73 2231.00,1258.73
             2235.42,1260.87 2240.17,1262.66 2245.00,1263.63
             2248.54,1264.34 2252.56,1263.83 2254.84,1267.28
             2256.88,1270.37 2256.99,1277.31 2257.04,1281.00
             2257.04,1281.00 2257.04,1294.00 2257.04,1294.00
             2257.04,1294.00 2258.00,1306.00 2258.00,1306.00
             2258.00,1306.00 2258.00,1320.00 2258.00,1320.00
             2258.00,1320.00 2260.00,1348.00 2260.00,1348.00
             2260.00,1348.00 2260.00,1524.00 2260.00,1524.00
             2260.00,1526.37 2260.20,1529.78 2258.98,1531.86
             2257.11,1535.04 2246.77,1537.76 2243.00,1539.15
             2223.51,1546.33 2218.22,1549.26 2197.00,1554.72
             2197.00,1554.72 2179.00,1558.51 2179.00,1558.51
             2179.00,1558.51 2172.00,1560.49 2172.00,1560.49
             2146.23,1566.26 2120.15,1570.85 2094.00,1574.29
             2094.00,1574.29 2042.00,1580.09 2042.00,1580.09
             2042.00,1580.09 2032.00,1581.08 2032.00,1581.08
             2032.00,1581.08 2013.00,1581.08 2013.00,1581.08
             2006.23,1581.90 2001.98,1583.90 1994.00,1584.00
             1994.00,1584.00 1982.00,1584.00 1982.00,1584.00
             1982.00,1584.00 1972.00,1584.91 1972.00,1584.91
             1972.00,1584.91 1950.00,1586.09 1950.00,1586.09
             1950.00,1586.09 1938.00,1587.00 1938.00,1587.00
             1938.00,1587.00 1914.00,1588.83 1914.00,1588.83
             1914.00,1588.83 1895.00,1590.09 1895.00,1590.09
             1887.55,1590.69 1888.03,1592.98 1876.00,1593.00
             1876.00,1593.00 1849.00,1593.00 1849.00,1593.00
             1849.00,1593.00 1820.00,1595.00 1820.00,1595.00
             1820.00,1595.00 1797.00,1595.00 1797.00,1595.00
             1797.00,1595.00 1765.00,1597.00 1765.00,1597.00
             1765.00,1597.00 1751.00,1598.08 1751.00,1598.08
             1751.00,1598.08 1736.00,1598.08 1736.00,1598.08
             1736.00,1598.08 1718.00,1599.94 1718.00,1599.94
             1712.35,1599.99 1712.44,1598.05 1704.00,1598.00
             1704.00,1598.00 1692.00,1598.00 1692.00,1598.00
             1692.00,1598.00 1682.00,1598.96 1682.00,1598.96
             1682.00,1598.96 1671.00,1598.96 1671.00,1598.96
             1671.00,1598.96 1656.00,1600.00 1656.00,1600.00
             1656.00,1600.00 1630.00,1599.32 1630.00,1599.32
             1630.00,1599.32 1609.00,1600.00 1609.00,1600.00
             1609.00,1600.00 1578.00,1598.00 1578.00,1598.00
             1578.00,1598.00 1559.00,1599.00 1559.00,1599.00
             1559.00,1599.00 1521.00,1596.00 1521.00,1596.00
             1509.76,1595.98 1510.00,1594.14 1502.00,1593.09
             1502.00,1593.09 1490.00,1593.09 1490.00,1593.09
             1490.00,1593.09 1463.00,1590.00 1463.00,1590.00
             1463.00,1590.00 1442.00,1588.72 1442.00,1588.72
             1442.00,1588.72 1427.00,1587.00 1427.00,1587.00
             1427.00,1587.00 1414.00,1587.00 1414.00,1587.00
             1414.00,1587.00 1394.00,1585.00 1394.00,1585.00
             1394.00,1585.00 1385.00,1585.00 1385.00,1585.00
             1385.00,1585.00 1364.00,1582.00 1364.00,1582.00
             1364.00,1582.00 1346.00,1582.00 1346.00,1582.00
             1346.00,1582.00 1310.00,1579.00 1310.00,1579.00
             1310.00,1579.00 1300.00,1579.00 1300.00,1579.00
             1300.00,1579.00 1289.00,1577.17 1289.00,1577.17
             1252.94,1573.51 1217.25,1567.45 1182.00,1558.90
             1182.00,1558.90 1160.00,1553.86 1160.00,1553.86
             1160.00,1553.86 1152.00,1552.10 1152.00,1552.10
             1152.00,1552.10 1118.00,1539.82 1118.00,1539.82
             1114.69,1538.64 1102.92,1535.12 1101.31,1532.71
             1099.78,1530.42 1100.01,1526.67 1100.00,1524.00
             1100.00,1524.00 1100.00,1343.00 1100.00,1343.00
             1100.00,1343.00 1101.00,1329.00 1101.00,1329.00
             1101.00,1329.00 1102.09,1303.00 1102.09,1303.00
             1102.09,1303.00 1103.00,1293.00 1103.00,1293.00
             1103.00,1293.00 1103.00,1271.00 1103.00,1271.00
             1103.00,1269.01 1102.77,1265.19 1104.02,1263.60
             1105.63,1261.56 1109.65,1262.08 1112.00,1261.96
             1116.02,1261.75 1117.45,1261.17 1121.00,1259.36
             1121.00,1259.36 1174.00,1230.69 1174.00,1230.69
             1174.00,1230.69 1289.00,1164.60 1289.00,1164.60
             1289.00,1164.60 1383.00,1106.66 1383.00,1106.66
             1383.00,1106.66 1462.00,1052.81 1462.00,1052.81
             1469.59,1048.16 1475.34,1045.53 1484.00,1043.19
             1486.22,1042.82 1490.28,1041.53 1492.28,1043.19
             1494.25,1044.47 1495.46,1051.47 1496.15,1054.00
             1499.90,1067.69 1501.49,1069.64 1504.08,1085.00
             1509.71,1118.37 1515.73,1151.22 1518.09,1185.00
             1518.09,1185.00 1520.00,1207.00 1520.00,1207.00
             1520.00,1207.00 1520.00,1260.00 1520.00,1260.00
             1520.00,1260.00 1521.04,1275.00 1521.04,1275.00
             1521.04,1275.00 1521.04,1286.00 1521.04,1286.00
             1521.04,1286.00 1522.00,1298.00 1522.00,1298.00
             1522.00,1298.00 1522.00,1330.00 1522.00,1330.00
             1522.00,1330.00 1520.00,1363.00 1520.00,1363.00
             1520.00,1363.00 1520.00,1390.00 1520.00,1390.00
             1520.00,1390.00 1517.08,1415.00 1517.08,1415.00
             1517.08,1415.00 1517.08,1427.00 1517.08,1427.00
             1517.08,1427.00 1513.93,1448.00 1513.93,1448.00
             1513.93,1448.00 1513.93,1457.00 1513.93,1457.00
             1513.93,1457.00 1512.00,1465.00 1512.00,1465.00
             1512.00,1465.00 1512.00,1476.00 1512.00,1476.00
             1512.00,1476.00 1510.17,1485.00 1510.17,1485.00
             1510.17,1485.00 1506.84,1518.00 1506.84,1518.00
             1506.84,1518.00 1503.00,1554.00 1503.00,1554.00
             1503.00,1554.00 1503.00,1565.00 1503.00,1565.00
             1503.00,1565.00 1539.00,1568.83 1539.00,1568.83
             1539.00,1568.83 1599.00,1575.15 1599.00,1575.15
             1599.00,1575.15 1612.00,1577.70 1612.00,1577.70
             1612.00,1577.70 1641.00,1580.91 1641.00,1580.91
             1648.68,1580.67 1652.41,1573.43 1659.09,1571.12
             1670.97,1567.02 1684.55,1566.14 1697.00,1566.00
             1697.00,1566.00 1712.00,1565.00 1712.00,1565.00
             1712.00,1565.00 1731.00,1565.00 1731.00,1565.00
             1731.00,1565.00 1747.00,1564.00 1747.00,1564.00
             1747.00,1564.00 1770.00,1564.00 1770.00,1564.00
             1770.00,1564.00 1785.00,1563.00 1785.00,1563.00
             1785.00,1563.00 1800.00,1563.00 1800.00,1563.00
             1800.00,1563.00 1801.29,1546.00 1801.29,1546.00
             1801.29,1546.00 1806.58,1518.00 1806.58,1518.00
             1806.58,1518.00 1815.58,1468.00 1815.58,1468.00
             1815.58,1468.00 1817.43,1454.00 1817.43,1454.00
             1817.43,1454.00 1823.42,1416.00 1823.42,1416.00
             1823.42,1416.00 1836.72,1331.00 1836.72,1331.00
             1836.72,1331.00 1845.00,1259.00 1845.00,1259.00
             1845.00,1259.00 1845.00,1251.00 1845.00,1251.00
             1845.00,1251.00 1847.00,1235.00 1847.00,1235.00
             1847.00,1235.00 1847.00,1226.00 1847.00,1226.00
             1847.00,1226.00 1848.00,1216.00 1848.00,1216.00
             1848.00,1216.00 1850.00,1180.00 1850.00,1180.00
             1850.00,1180.00 1851.00,1164.00 1851.00,1164.00
             1851.00,1164.00 1851.00,1101.00 1851.00,1101.00
             1851.00,1101.00 1852.00,1084.00 1852.00,1084.00
             1852.00,1084.00 1852.00,1039.00 1852.00,1039.00 Z
           M 2635.00,1628.00
           C 2626.52,1628.03 2618.30,1629.29 2610.00,1630.68
             2610.00,1630.68 2603.00,1631.51 2603.00,1631.51
             2603.00,1631.51 2595.00,1633.54 2595.00,1633.54
             2595.00,1633.54 2586.00,1634.18 2586.00,1634.18
             2586.00,1634.18 2578.00,1635.82 2578.00,1635.82
             2578.00,1635.82 2569.00,1636.43 2569.00,1636.43
             2556.78,1638.19 2562.63,1638.83 2548.00,1639.00
             2548.00,1639.00 2533.00,1640.91 2533.00,1640.91
             2533.00,1640.91 2514.00,1642.17 2514.00,1642.17
             2504.92,1643.14 2508.00,1643.98 2496.00,1644.00
             2496.00,1644.00 2473.00,1646.92 2473.00,1646.92
             2473.00,1646.92 2459.00,1646.92 2459.00,1646.92
             2459.00,1646.92 2440.00,1649.00 2440.00,1649.00
             2433.09,1649.03 2425.84,1649.32 2419.00,1650.30
             2419.00,1650.30 2411.00,1651.92 2411.00,1651.92
             2411.00,1651.92 2395.00,1651.92 2395.00,1651.92
             2395.00,1651.92 2374.00,1654.92 2374.00,1654.92
             2374.00,1654.92 2357.00,1654.92 2357.00,1654.92
             2357.00,1654.92 2340.00,1657.00 2340.00,1657.00
             2340.00,1657.00 2317.00,1658.17 2317.00,1658.17
             2309.83,1658.97 2311.99,1659.98 2302.00,1660.08
             2302.00,1660.08 2286.00,1660.08 2286.00,1660.08
             2286.00,1660.08 2274.00,1661.91 2274.00,1661.91
             2274.00,1661.91 2253.00,1663.00 2253.00,1663.00
             2244.84,1663.04 2244.45,1664.19 2238.00,1664.92
             2238.00,1664.92 2221.00,1664.92 2221.00,1664.92
             2221.00,1664.92 2200.00,1667.92 2200.00,1667.92
             2200.00,1667.92 2187.00,1667.92 2187.00,1667.92
             2187.00,1667.92 2161.00,1670.00 2161.00,1670.00
             2161.00,1670.00 2136.00,1671.09 2136.00,1671.09
             2128.94,1671.58 2129.25,1672.98 2119.00,1673.00
             2119.00,1673.00 2104.00,1673.00 2104.00,1673.00
             2104.00,1673.00 2072.00,1676.00 2072.00,1676.00
             2072.00,1676.00 2044.00,1676.00 2044.00,1676.00
             2044.00,1676.00 2019.00,1678.00 2019.00,1678.00
             2019.00,1678.00 1982.00,1678.00 1982.00,1678.00
             1982.00,1678.00 1961.00,1679.00 1961.00,1679.00
             1961.00,1679.00 1937.00,1681.00 1937.00,1681.00
             1937.00,1681.00 1896.00,1681.00 1896.00,1681.00
             1896.00,1681.00 1865.00,1683.00 1865.00,1683.00
             1865.00,1683.00 1846.00,1683.00 1846.00,1683.00
             1846.00,1683.00 1830.00,1684.00 1830.00,1684.00
             1830.00,1684.00 1795.00,1684.00 1795.00,1684.00
             1795.00,1684.00 1764.00,1686.00 1764.00,1686.00
             1764.00,1686.00 1715.00,1686.00 1715.00,1686.00
             1715.00,1686.00 1698.00,1687.00 1698.00,1687.00
             1698.00,1687.00 1657.00,1687.00 1657.00,1687.00
             1657.00,1687.00 1642.00,1686.00 1642.00,1686.00
             1642.00,1686.00 1594.00,1686.00 1594.00,1686.00
             1594.00,1686.00 1563.00,1684.00 1563.00,1684.00
             1563.00,1684.00 1529.00,1684.00 1529.00,1684.00
             1529.00,1684.00 1513.00,1683.00 1513.00,1683.00
             1513.00,1683.00 1495.00,1683.00 1495.00,1683.00
             1495.00,1683.00 1463.00,1681.00 1463.00,1681.00
             1463.00,1681.00 1422.00,1681.00 1422.00,1681.00
             1422.00,1681.00 1396.00,1679.00 1396.00,1679.00
             1396.00,1679.00 1392.00,1679.00 1392.00,1679.00
             1392.00,1679.00 1377.00,1678.00 1377.00,1678.00
             1377.00,1678.00 1342.00,1678.00 1342.00,1678.00
             1342.00,1678.00 1316.00,1676.00 1316.00,1676.00
             1316.00,1676.00 1281.00,1676.00 1281.00,1676.00
             1281.00,1676.00 1269.00,1675.09 1269.00,1675.09
             1269.00,1675.09 1244.00,1673.00 1244.00,1673.00
             1244.00,1673.00 1235.00,1673.00 1235.00,1673.00
             1235.00,1673.00 1225.00,1671.17 1225.00,1671.17
             1225.00,1671.17 1200.00,1670.00 1200.00,1670.00
             1200.00,1670.00 1180.00,1668.00 1180.00,1668.00
             1180.00,1668.00 1167.00,1668.00 1167.00,1668.00
             1167.00,1668.00 1143.00,1665.08 1143.00,1665.08
             1143.00,1665.08 1128.00,1665.08 1128.00,1665.08
             1118.07,1664.98 1120.01,1663.92 1113.00,1663.08
             1113.00,1663.08 1104.00,1663.08 1104.00,1663.08
             1104.00,1663.08 1084.00,1661.71 1084.00,1661.71
             1076.60,1660.80 1076.41,1660.01 1068.00,1659.92
             1068.00,1659.92 1053.00,1659.92 1053.00,1659.92
             1053.00,1659.92 1030.00,1657.00 1030.00,1657.00
             1030.00,1657.00 1020.00,1657.00 1020.00,1657.00
             1012.55,1656.91 1012.54,1655.76 1007.00,1655.08
             1007.00,1655.08 990.00,1655.08 990.00,1655.08
             990.00,1655.08 965.00,1652.00 965.00,1652.00
             965.00,1652.00 954.00,1652.00 954.00,1652.00
             947.86,1651.92 946.41,1650.99 941.00,1650.29
             941.00,1650.29 923.00,1649.00 923.00,1649.00
             912.34,1648.95 914.09,1647.98 906.00,1647.08
             906.00,1647.08 893.00,1647.08 893.00,1647.08
             893.00,1647.08 867.00,1643.92 867.00,1643.92
             867.00,1643.92 855.00,1643.92 855.00,1643.92
             855.00,1643.92 846.00,1642.17 846.00,1642.17
             846.00,1642.17 825.00,1640.83 825.00,1640.83
             819.45,1640.23 819.45,1639.09 812.00,1639.00
             797.65,1638.83 801.31,1637.76 789.00,1636.05
             789.00,1636.05 781.00,1636.05 781.00,1636.05
             781.00,1636.05 774.00,1634.32 774.00,1634.32
             765.41,1632.93 769.73,1634.71 758.00,1631.76
             754.77,1630.95 741.14,1630.94 742.74,1625.16
             743.55,1622.26 747.46,1621.41 750.00,1621.09
             750.00,1621.09 769.00,1617.96 769.00,1617.96
             779.84,1615.42 775.54,1616.91 784.00,1615.70
             784.00,1615.70 796.00,1613.43 796.00,1613.43
             796.00,1613.43 805.00,1612.63 805.00,1612.63
             805.00,1612.63 811.00,1610.96 811.00,1610.96
             811.00,1610.96 820.00,1610.96 820.00,1610.96
             820.00,1610.96 831.00,1608.32 831.00,1608.32
             831.00,1608.32 841.00,1607.82 841.00,1607.82
             841.00,1607.82 854.00,1605.83 854.00,1605.83
             854.00,1605.83 870.00,1603.18 870.00,1603.18
             870.00,1603.18 881.00,1602.54 881.00,1602.54
             881.00,1602.54 891.00,1600.00 891.00,1600.00
             891.00,1600.00 901.00,1600.00 901.00,1600.00
             901.00,1600.00 909.00,1598.18 909.00,1598.18
             909.00,1598.18 923.00,1596.83 923.00,1596.83
             923.00,1596.83 930.00,1595.21 930.00,1595.21
             930.00,1595.21 941.00,1594.70 941.00,1594.70
             941.00,1594.70 955.00,1592.28 955.00,1592.28
             955.00,1592.28 963.00,1591.68 963.00,1591.68
             963.00,1591.68 970.00,1589.95 970.00,1589.95
             970.00,1589.95 979.00,1589.95 979.00,1589.95
             979.00,1589.95 991.00,1587.00 991.00,1587.00
             991.00,1587.00 1001.00,1587.00 1001.00,1587.00
             1001.00,1587.00 1009.00,1585.18 1009.00,1585.18
             1009.00,1585.18 1023.00,1583.82 1023.00,1583.82
             1023.00,1583.82 1031.00,1582.18 1031.00,1582.18
             1031.00,1582.18 1042.00,1581.56 1042.00,1581.56
             1042.00,1581.56 1053.00,1578.94 1053.00,1578.94
             1053.00,1578.94 1064.00,1578.94 1064.00,1578.94
             1068.54,1578.05 1084.13,1575.40 1087.91,1576.33
             1097.33,1578.66 1090.30,1594.85 1099.06,1598.87
             1104.44,1601.34 1119.69,1604.22 1126.00,1605.32
             1126.00,1605.32 1158.00,1612.49 1158.00,1612.49
             1163.12,1613.60 1168.11,1613.74 1173.00,1616.00
             1173.00,1616.00 1171.00,1617.00 1171.00,1617.00
             1171.00,1617.00 1196.00,1620.55 1196.00,1620.55
             1196.00,1620.55 1229.00,1625.56 1229.00,1625.56
             1229.00,1625.56 1237.00,1626.29 1237.00,1626.29
             1237.00,1626.29 1252.00,1628.94 1252.00,1628.94
             1252.00,1628.94 1260.00,1628.94 1260.00,1628.94
             1260.00,1628.94 1270.00,1630.96 1270.00,1630.96
             1270.00,1630.96 1279.00,1630.96 1279.00,1630.96
             1279.00,1630.96 1312.00,1634.17 1312.00,1634.17
             1312.00,1634.17 1332.00,1637.00 1332.00,1637.00
             1332.00,1637.00 1343.00,1637.00 1343.00,1637.00
             1343.00,1637.00 1361.00,1639.00 1361.00,1639.00
             1361.00,1639.00 1411.00,1642.00 1411.00,1642.00
             1411.00,1642.00 1441.00,1644.00 1441.00,1644.00
             1441.00,1644.00 1455.00,1644.00 1455.00,1644.00
             1455.00,1644.00 1470.00,1645.00 1470.00,1645.00
             1470.00,1645.00 1508.00,1645.00 1508.00,1645.00
             1508.00,1645.00 1521.00,1644.00 1521.00,1644.00
             1521.00,1644.00 1539.00,1644.00 1539.00,1644.00
             1539.00,1644.00 1557.00,1642.08 1557.00,1642.08
             1557.00,1642.08 1567.00,1642.08 1567.00,1642.08
             1567.00,1642.08 1581.00,1641.00 1581.00,1641.00
             1581.00,1641.00 1607.00,1641.00 1607.00,1641.00
             1607.00,1641.00 1624.00,1640.00 1624.00,1640.00
             1624.00,1640.00 1746.00,1640.00 1746.00,1640.00
             1746.00,1640.00 1760.00,1641.00 1760.00,1641.00
             1760.00,1641.00 1780.00,1641.00 1780.00,1641.00
             1780.00,1641.00 1795.00,1642.00 1795.00,1642.00
             1795.00,1642.00 1819.00,1643.09 1819.00,1643.09
             1819.00,1643.09 1829.00,1644.00 1829.00,1644.00
             1829.00,1644.00 1841.00,1644.00 1841.00,1644.00
             1841.00,1644.00 1858.00,1645.00 1858.00,1645.00
             1858.00,1645.00 1888.00,1645.00 1888.00,1645.00
             1888.00,1645.00 1903.00,1644.00 1903.00,1644.00
             1903.00,1644.00 1920.00,1644.00 1920.00,1644.00
             1920.00,1644.00 1950.00,1642.00 1950.00,1642.00
             1950.00,1642.00 1999.00,1639.00 1999.00,1639.00
             1999.00,1639.00 2017.00,1637.00 2017.00,1637.00
             2017.00,1637.00 2027.00,1637.00 2027.00,1637.00
             2027.00,1637.00 2051.00,1634.00 2051.00,1634.00
             2051.00,1634.00 2061.00,1634.00 2061.00,1634.00
             2061.00,1634.00 2102.00,1628.94 2102.00,1628.94
             2102.00,1628.94 2112.00,1628.94 2112.00,1628.94
             2112.00,1628.94 2138.00,1624.43 2138.00,1624.43
             2138.00,1624.43 2147.00,1623.56 2147.00,1623.56
             2147.00,1623.56 2229.00,1607.34 2229.00,1607.34
             2229.00,1607.34 2248.00,1603.26 2248.00,1603.26
             2252.14,1602.47 2258.64,1601.34 2261.86,1598.57
             2264.73,1596.10 2267.21,1589.70 2268.04,1586.00
             2268.54,1583.75 2268.86,1579.48 2270.73,1577.99
             2272.59,1576.52 2280.40,1576.97 2283.00,1577.00
             2283.00,1577.00 2297.00,1579.08 2297.00,1579.08
             2297.00,1579.08 2308.00,1579.08 2308.00,1579.08
             2308.00,1579.08 2319.00,1581.95 2319.00,1581.95
             2319.00,1581.95 2329.00,1581.95 2329.00,1581.95
             2329.00,1581.95 2336.00,1583.68 2336.00,1583.68
             2336.00,1583.68 2350.00,1585.17 2350.00,1585.17
             2350.00,1585.17 2358.00,1586.94 2358.00,1586.94
             2358.00,1586.94 2368.00,1586.94 2368.00,1586.94
             2368.00,1586.94 2381.00,1589.95 2381.00,1589.95
             2381.00,1589.95 2390.00,1589.95 2390.00,1589.95
             2390.00,1589.95 2398.00,1592.05 2398.00,1592.05
             2398.00,1592.05 2406.00,1592.05 2406.00,1592.05
             2406.00,1592.05 2420.00,1595.01 2420.00,1595.01
             2420.00,1595.01 2430.00,1595.01 2430.00,1595.01
             2430.00,1595.01 2440.00,1597.25 2440.00,1597.25
             2440.00,1597.25 2451.00,1598.18 2451.00,1598.18
             2459.63,1599.22 2457.30,1599.88 2468.00,1600.00
             2468.00,1600.00 2544.00,1609.43 2544.00,1609.43
             2544.00,1609.43 2580.00,1615.09 2580.00,1615.09
             2580.00,1615.09 2587.00,1616.68 2587.00,1616.68
             2587.00,1616.68 2595.00,1617.47 2595.00,1617.47
             2595.00,1617.47 2603.00,1619.63 2603.00,1619.63
             2603.00,1619.63 2609.00,1620.33 2609.00,1620.33
             2609.00,1620.33 2617.00,1622.62 2617.00,1622.62
             2617.00,1622.62 2635.00,1625.00 2635.00,1625.00
             2635.00,1625.00 2635.00,1628.00 2635.00,1628.00 Z
           M 1396.00,2127.00
           C 1386.33,2127.04 1389.08,2128.17 1383.00,2128.87
             1383.00,2128.87 1376.00,2129.43 1376.00,2129.43
             1376.00,2129.43 1366.00,2131.63 1366.00,2131.63
             1356.78,2133.36 1363.08,2130.35 1351.00,2135.25
             1346.88,2136.92 1334.37,2142.54 1330.43,2139.96
             1327.87,2138.29 1328.13,2134.65 1327.92,2132.00
             1327.92,2132.00 1326.00,2110.00 1326.00,2110.00
             1326.00,2110.00 1326.00,2080.00 1326.00,2080.00
             1326.00,2080.00 1326.96,2067.00 1326.96,2067.00
             1328.60,2029.50 1336.21,1994.28 1348.95,1959.00
             1348.95,1959.00 1351.71,1950.00 1351.71,1950.00
             1355.86,1938.04 1361.88,1926.81 1368.40,1916.00
             1381.71,1893.93 1401.97,1872.41 1428.00,1866.58
             1432.14,1865.65 1434.63,1864.84 1439.00,1865.09
             1446.97,1865.55 1456.55,1867.97 1464.00,1870.81
             1472.41,1874.01 1487.33,1881.32 1493.71,1887.33
             1505.29,1898.23 1511.30,1913.43 1516.63,1928.00
             1516.63,1928.00 1526.30,1956.00 1526.30,1956.00
             1526.30,1956.00 1529.15,1975.00 1529.15,1975.00
             1529.15,1975.00 1532.32,1991.00 1532.32,1991.00
             1534.22,2001.91 1536.94,2012.88 1537.00,2024.00
             1537.00,2024.00 1540.00,2054.00 1540.00,2054.00
             1540.00,2054.00 1540.00,2087.00 1540.00,2087.00
             1539.98,2097.55 1537.73,2097.77 1533.26,2107.00
             1533.26,2107.00 1523.42,2129.00 1523.42,2129.00
             1520.92,2134.95 1520.77,2139.95 1514.00,2142.00
             1508.64,2135.71 1499.30,2137.04 1492.00,2134.00
             1495.03,2128.13 1503.15,2109.85 1504.47,2104.00
             1505.07,2101.34 1505.00,2098.70 1505.00,2096.00
             1505.00,2096.00 1505.00,2070.00 1505.00,2070.00
             1504.98,2059.75 1503.63,2060.27 1503.09,2053.00
             1501.89,2036.97 1500.61,2020.44 1495.96,2005.00
             1495.96,2005.00 1492.39,1996.00 1492.39,1996.00
             1485.86,1977.82 1469.60,1956.66 1450.00,1951.61
             1446.87,1950.80 1441.37,1950.95 1438.00,1951.00
             1430.99,1951.12 1419.98,1955.65 1415.47,1961.09
             1413.06,1964.00 1410.48,1970.40 1404.70,1976.99
             1401.19,1980.99 1397.23,1983.35 1394.38,1988.00
             1387.61,1999.05 1384.29,2015.30 1382.58,2028.00
             1381.63,2035.01 1380.01,2041.91 1380.08,2049.00
             1380.08,2049.00 1380.08,2067.00 1380.08,2067.00
             1380.08,2067.00 1381.83,2077.00 1381.83,2077.00
             1383.87,2097.10 1385.48,2109.03 1396.00,2127.00 Z
           M 1838.16,2038.00
           C 1838.16,2038.00 1838.16,2024.00 1838.16,2024.00
             1838.16,2024.00 1838.16,2003.00 1838.16,2003.00
             1838.03,1986.13 1841.76,1968.22 1846.26,1952.00
             1851.68,1932.43 1855.70,1918.76 1868.23,1902.13
             1868.23,1902.13 1875.58,1894.95 1875.58,1894.95
             1878.75,1891.50 1882.55,1886.35 1886.04,1883.53
             1891.15,1879.39 1897.17,1876.95 1903.00,1874.10
             1903.00,1874.10 1911.00,1869.72 1911.00,1869.72
             1914.22,1868.59 1917.68,1869.24 1921.00,1868.87
             1925.76,1868.34 1926.70,1866.63 1933.00,1867.09
             1951.18,1868.43 1969.99,1882.55 1981.25,1896.00
             2006.80,1926.55 2022.95,1969.12 2030.26,2008.00
             2031.94,2016.96 2035.81,2031.37 2036.00,2040.00
             2036.00,2040.00 2003.00,2030.03 2003.00,2030.03
             1998.76,2028.79 1991.67,2027.89 1988.73,2024.44
             1986.18,2021.45 1985.44,2012.94 1984.40,2009.00
             1984.40,2009.00 1981.48,2000.00 1981.48,2000.00
             1978.91,1992.41 1975.99,1987.61 1971.69,1981.00
             1963.57,1968.49 1958.11,1959.26 1944.00,1952.55
             1938.66,1950.01 1936.98,1949.08 1931.00,1949.00
             1928.11,1948.97 1922.55,1948.77 1920.00,1949.74
             1915.95,1951.28 1913.45,1955.26 1908.00,1958.48
             1908.00,1958.48 1893.00,1965.76 1893.00,1965.76
             1886.81,1970.00 1877.51,1984.87 1874.78,1992.00
             1874.78,1992.00 1867.34,2016.00 1867.34,2016.00
             1866.56,2018.65 1865.95,2023.76 1864.40,2025.58
             1862.53,2027.79 1857.75,2029.09 1855.00,2030.21
             1848.32,2032.93 1845.57,2035.86 1838.16,2038.00 Z
           M 813.00,2989.00
           C 813.00,2989.00 926.00,2989.00 926.00,2989.00
             926.00,2989.00 926.00,3156.00 926.00,3156.00
             926.00,3156.00 1095.00,3156.00 1095.00,3156.00
             1095.00,3156.00 1095.00,3270.00 1095.00,3270.00
             1095.00,3270.00 926.00,3270.00 926.00,3270.00
             926.00,3270.00 926.00,3437.00 926.00,3437.00
             926.00,3437.00 813.00,3437.00 813.00,3437.00
             813.00,3437.00 813.00,3270.00 813.00,3270.00
             813.00,3270.00 644.00,3270.00 644.00,3270.00
             644.00,3270.00 644.00,3156.00 644.00,3156.00
             644.00,3156.00 813.00,3156.00 813.00,3156.00
             813.00,3156.00 813.00,2989.00 813.00,2989.00 Z
           M 2566.00,3027.00
           C 2566.00,3027.00 2679.00,3027.00 2679.00,3027.00
             2679.00,3027.00 2679.00,3194.00 2679.00,3194.00
             2679.00,3194.00 2848.00,3194.00 2848.00,3194.00
             2848.00,3194.00 2848.00,3308.00 2848.00,3308.00
             2848.00,3308.00 2679.00,3308.00 2679.00,3308.00
             2679.00,3308.00 2679.00,3475.00 2679.00,3475.00
             2679.00,3475.00 2566.00,3475.00 2566.00,3475.00
             2566.00,3475.00 2566.00,3308.00 2566.00,3308.00
             2566.00,3308.00 2397.00,3308.00 2397.00,3308.00
             2397.00,3308.00 2397.00,3194.00 2397.00,3194.00
             2397.00,3194.00 2566.00,3194.00 2566.00,3194.00
             2566.00,3194.00 2566.00,3027.00 2566.00,3027.00 Z" />
</svg>
