<?xml version="1.0" encoding="UTF-8" standalone="no"?>
<!DOCTYPE svg PUBLIC "-//W3C//DTD SVG 20010904//EN"
              "http://www.w3.org/TR/2001/REC-SVG-20010904/DTD/svg10.dtd">

<svg xmlns="http://www.w3.org/2000/svg"
     width="11in" height="14in"
     viewBox="0 0 3300 4200">
  <path id="6 - pupils"
        fill="none" stroke="black" stroke-width="1"
        d="M 1316.00,2143.00
           C 1311.03,2132.19 1308.02,2119.95 1308.00,2108.00
             1308.00,2108.00 1308.00,2053.00 1308.00,2053.00
             1308.02,2042.33 1310.89,2027.70 1312.68,2017.00
             1312.68,2017.00 1313.47,2010.00 1313.47,2010.00
             1313.47,2010.00 1315.63,2002.00 1315.63,2002.00
             1322.83,1966.63 1334.66,1932.74 1353.95,1902.00
             1367.25,1880.81 1383.55,1862.50 1407.00,1852.58
             1413.41,1849.87 1425.35,1845.36 1432.00,1848.00
             1432.00,1848.00 1427.00,1849.00 1427.00,1849.00
             1427.00,1849.00 1445.00,1850.00 1445.00,1850.00
             1445.00,1850.00 1433.00,1847.00 1433.00,1847.00
             1441.34,1847.03 1438.71,1847.20 1446.00,1849.38
             1461.42,1854.01 1470.42,1858.18 1481.99,1870.00
             1486.33,1874.44 1492.01,1881.11 1494.00,1887.00
             1479.64,1876.95 1462.38,1868.95 1445.00,1866.08
             1442.03,1865.59 1439.03,1864.94 1436.00,1865.19
             1407.97,1867.51 1380.85,1894.71 1367.86,1918.00
             1342.69,1963.11 1329.20,2016.54 1326.96,2068.00
             1326.96,2068.00 1326.00,2081.00 1326.00,2081.00
             1326.00,2081.00 1326.00,2109.00 1326.00,2109.00
             1326.00,2109.00 1327.83,2130.00 1327.83,2130.00
             1328.14,2133.07 1327.74,2137.20 1330.43,2139.36
             1334.34,2142.52 1345.85,2136.93 1350.00,2135.25
             1362.08,2130.35 1355.78,2133.36 1365.00,2131.63
             1365.00,2131.63 1375.00,2129.43 1375.00,2129.43
             1375.00,2129.43 1382.00,2128.87 1382.00,2128.87
             1388.60,2128.10 1384.78,2127.01 1396.00,2127.00
             1386.38,2114.59 1383.06,2094.35 1381.91,2079.00
             1381.37,2071.73 1380.02,2072.25 1380.00,2062.00
             1380.00,2062.00 1380.00,2048.00 1380.00,2048.00
             1380.01,2038.55 1380.85,2040.56 1381.84,2033.00
             1381.84,2033.00 1383.32,2020.00 1383.32,2020.00
             1385.65,2006.08 1390.76,1990.91 1399.75,1980.00
             1399.75,1980.00 1417.13,1958.55 1417.13,1958.55
             1425.38,1951.58 1434.85,1950.87 1445.00,1951.00
             1463.76,1951.25 1484.18,1973.75 1490.68,1990.00
             1501.12,2016.10 1500.45,2026.20 1503.17,2053.00
             1503.17,2053.00 1505.00,2067.00 1505.00,2067.00
             1505.00,2067.00 1505.00,2097.00 1505.00,2097.00
             1505.00,2099.70 1505.07,2102.34 1504.47,2105.00
             1503.21,2110.57 1495.30,2129.22 1492.00,2134.00
             1492.00,2134.00 1510.85,2138.51 1510.85,2138.51
             1513.58,2139.93 1514.51,2142.99 1511.68,2144.40
             1510.11,2145.19 1504.95,2145.02 1503.00,2145.00
             1503.00,2145.00 1493.00,2143.96 1493.00,2143.96
             1493.00,2143.96 1484.00,2143.96 1484.00,2143.96
             1478.21,2143.25 1475.66,2141.75 1469.00,2142.04
             1462.37,2142.33 1463.60,2143.98 1453.00,2144.00
             1453.00,2144.00 1419.00,2144.00 1419.00,2144.00
             1419.00,2144.00 1375.00,2147.13 1375.00,2147.13
             1370.24,2147.66 1370.68,2148.89 1364.00,2149.00
             1364.00,2149.00 1354.00,2149.00 1354.00,2149.00
             1349.33,2149.08 1331.38,2153.31 1326.00,2154.70
             1326.00,2154.70 1317.00,2157.37 1317.00,2157.37
             1317.00,2157.37 1269.00,2166.65 1269.00,2166.65
             1269.00,2166.65 1238.00,2174.00 1238.00,2174.00
             1238.47,2172.58 1238.42,2171.90 1239.59,2170.70
             1240.84,2169.42 1254.35,2163.83 1257.00,2162.71
             1276.11,2154.64 1295.92,2148.08 1316.00,2143.00 Z
           M 1870.00,1899.00
           C 1870.03,1888.00 1871.90,1888.10 1877.13,1879.00
             1884.75,1865.75 1882.45,1869.42 1894.00,1861.30
             1894.00,1861.30 1901.00,1856.28 1901.00,1856.28
             1913.32,1848.93 1927.24,1848.97 1941.00,1849.00
             1954.05,1849.03 1967.60,1856.29 1978.00,1863.78
             1989.63,1872.16 1998.78,1883.52 2007.15,1895.00
             2025.39,1920.02 2037.14,1949.31 2045.37,1979.00
             2045.37,1979.00 2048.67,1995.00 2048.67,1995.00
             2048.67,1995.00 2050.68,2003.00 2050.68,2003.00
             2050.68,2003.00 2051.90,2011.00 2051.90,2011.00
             2054.00,2019.83 2056.89,2026.65 2057.00,2036.00
             2057.04,2040.03 2056.40,2045.49 2058.74,2048.90
             2061.77,2053.32 2070.96,2055.96 2076.00,2057.67
             2076.00,2057.67 2110.00,2071.15 2110.00,2071.15
             2140.10,2083.97 2170.12,2096.76 2198.99,2112.26
             2198.99,2112.26 2208.04,2118.21 2208.04,2118.21
             2208.04,2118.21 2240.00,2134.75 2240.00,2134.75
             2240.00,2134.75 2272.00,2150.75 2272.00,2150.75
             2276.92,2153.22 2282.19,2154.48 2284.00,2160.00
             2277.53,2159.32 2269.17,2155.01 2263.00,2152.42
             2263.00,2152.42 2223.00,2135.60 2223.00,2135.60
             2223.00,2135.60 2077.00,2075.58 2077.00,2075.58
             2077.00,2075.58 2053.00,2065.73 2053.00,2065.73
             2053.00,2065.73 2040.00,2062.05 2040.00,2062.05
             2040.00,2062.05 2018.00,2054.39 2018.00,2054.39
             2009.90,2051.90 1990.70,2046.09 1983.00,2045.82
             1979.76,2045.97 1975.03,2046.19 1972.00,2045.82
             1972.00,2045.82 1966.00,2044.21 1966.00,2044.21
             1966.00,2044.21 1950.00,2042.68 1950.00,2042.68
             1950.00,2042.68 1943.00,2041.05 1943.00,2041.05
             1943.00,2041.05 1933.00,2041.05 1933.00,2041.05
             1933.00,2041.05 1916.00,2039.08 1916.00,2039.08
             1916.00,2039.08 1896.00,2041.00 1896.00,2041.00
             1885.19,2041.12 1874.22,2043.93 1864.00,2047.50
             1853.38,2051.20 1843.58,2056.77 1834.00,2062.57
             1830.67,2064.59 1825.96,2067.46 1822.08,2064.40
             1819.38,2061.94 1820.12,2057.92 1822.08,2055.00
             1823.62,2052.02 1836.91,2039.23 1840.01,2037.36
             1840.01,2037.36 1854.00,2030.21 1854.00,2030.21
             1857.31,2028.86 1862.19,2027.66 1864.40,2024.78
             1865.94,2022.78 1866.52,2017.77 1867.34,2015.00
             1869.96,2006.18 1871.88,1997.51 1875.59,1989.00
             1878.24,1982.94 1886.72,1969.43 1892.01,1965.76
             1892.01,1965.76 1908.00,1957.87 1908.00,1957.87
             1915.55,1953.00 1914.99,1949.14 1925.00,1949.00
             1925.00,1949.00 1931.00,1949.00 1931.00,1949.00
             1949.79,1949.10 1961.88,1964.61 1971.05,1979.00
             1975.50,1985.97 1977.72,1988.99 1980.77,1997.00
             1980.77,1997.00 1984.83,2010.00 1984.83,2010.00
             1985.51,2013.52 1986.61,2020.94 1988.73,2023.66
             1991.86,2027.66 1998.40,2028.47 2003.00,2029.74
             2003.00,2029.74 2036.00,2040.00 2036.00,2040.00
             2036.00,2040.00 2030.45,2010.00 2030.45,2010.00
             2022.63,1971.22 2009.01,1931.10 1983.74,1900.00
             1972.07,1885.63 1958.36,1873.48 1940.00,1868.78
             1937.43,1868.12 1934.65,1867.23 1932.00,1867.11
             1927.84,1866.93 1926.50,1868.17 1923.00,1868.74
             1923.00,1868.74 1913.00,1869.43 1913.00,1869.43
             1910.04,1870.19 1907.66,1872.20 1905.00,1873.60
             1898.73,1876.90 1892.78,1878.95 1887.01,1883.53
             1881.06,1888.25 1877.55,1896.73 1870.00,1899.00 Z
           M 813.00,2989.00
           C 813.00,2989.00 926.00,2989.00 926.00,2989.00
             926.00,2989.00 926.00,3156.00 926.00,3156.00
             926.00,3156.00 1095.00,3156.00 1095.00,3156.00
             1095.00,3156.00 1095.00,3270.00 1095.00,3270.00
             1095.00,3270.00 926.00,3270.00 926.00,3270.00
             926.00,3270.00 926.00,3437.00 926.00,3437.00
             926.00,3437.00 813.00,3437.00 813.00,3437.00
             813.00,3437.00 813.00,3270.00 813.00,3270.00
             813.00,3270.00 644.00,3270.00 644.00,3270.00
             644.00,3270.00 644.00,3156.00 644.00,3156.00
             644.00,3156.00 813.00,3156.00 813.00,3156.00
             813.00,3156.00 813.00,2989.00 813.00,2989.00 Z
           M 2566.00,3027.00
           C 2566.00,3027.00 2679.00,3027.00 2679.00,3027.00
             2679.00,3027.00 2679.00,3194.00 2679.00,3194.00
             2679.00,3194.00 2848.00,3194.00 2848.00,3194.00
             2848.00,3194.00 2848.00,3308.00 2848.00,3308.00
             2848.00,3308.00 2679.00,3308.00 2679.00,3308.00
             2679.00,3308.00 2679.00,3475.00 2679.00,3475.00
             2679.00,3475.00 2566.00,3475.00 2566.00,3475.00
             2566.00,3475.00 2566.00,3308.00 2566.00,3308.00
             2566.00,3308.00 2397.00,3308.00 2397.00,3308.00
             2397.00,3308.00 2397.00,3194.00 2397.00,3194.00
             2397.00,3194.00 2566.00,3194.00 2566.00,3194.00
             2566.00,3194.00 2566.00,3027.00 2566.00,3027.00 Z" />
</svg>
