<?xml version="1.0" encoding="UTF-8" standalone="no"?>
<!DOCTYPE svg PUBLIC "-//W3C//DTD SVG 20010904//EN"
              "http://www.w3.org/TR/2001/REC-SVG-20010904/DTD/svg10.dtd">

<svg xmlns="http://www.w3.org/2000/svg"
     width="11in" height="14in"
     viewBox="0 0 3300 4200">
  <path id="6.5 - scales"
        fill="none" stroke="black" stroke-width="1"
        d="M 1492.00,1698.00
           C 1492.00,1698.00 1509.00,1699.00 1509.00,1699.00
             1509.00,1699.00 1532.00,1699.00 1532.00,1699.00
             1532.00,1699.00 1549.00,1700.00 1549.00,1700.00
             1549.00,1700.00 1724.00,1700.00 1724.00,1700.00
             1724.00,1700.00 1821.00,1700.00 1821.00,1700.00
             1821.00,1700.00 1836.00,1699.00 1836.00,1699.00
             1836.00,1699.00 1848.00,1699.00 1848.00,1699.00
             1848.00,1699.00 1867.00,1698.00 1867.00,1698.00
             1864.76,1708.99 1851.07,1719.34 1848.53,1730.00
             1848.53,1730.00 1847.83,1740.00 1847.83,1740.00
             1847.83,1740.00 1846.30,1748.00 1846.30,1748.00
             1846.30,1748.00 1845.70,1755.00 1845.70,1755.00
             1845.70,1755.00 1843.61,1765.00 1843.61,1765.00
             1843.61,1765.00 1842.70,1775.00 1842.70,1775.00
             1842.70,1775.00 1841.17,1783.00 1841.17,1783.00
             1841.17,1783.00 1839.72,1801.00 1839.72,1801.00
             1839.72,1801.00 1836.85,1816.17 1836.85,1816.17
             1836.85,1816.17 1836.85,1822.00 1836.85,1822.00
             1836.85,1822.00 1835.00,1834.00 1835.00,1834.00
             1835.00,1834.00 1835.00,1842.00 1835.00,1842.00
             1835.00,1842.00 1832.72,1858.00 1832.72,1858.00
             1831.78,1865.69 1829.39,1872.57 1827.51,1880.00
             1827.51,1880.00 1822.51,1902.00 1822.51,1902.00
             1822.51,1902.00 1821.39,1912.00 1821.39,1912.00
             1821.39,1912.00 1812.32,1960.00 1812.32,1960.00
             1812.32,1960.00 1810.87,1972.00 1810.87,1972.00
             1810.87,1972.00 1808.92,1981.00 1808.92,1981.00
             1808.92,1981.00 1808.92,1989.00 1808.92,1989.00
             1808.92,1989.00 1806.43,2000.00 1806.43,2000.00
             1806.43,2000.00 1805.68,2009.00 1805.68,2009.00
             1805.68,2009.00 1804.18,2016.00 1804.18,2016.00
             1804.18,2016.00 1802.92,2030.00 1802.92,2030.00
             1802.08,2035.07 1801.07,2039.83 1801.00,2045.00
             1800.97,2047.68 1801.36,2051.33 1799.40,2053.42
             1801.10,2051.61 1788.03,2061.39 1789.72,2060.35
             1788.73,2060.96 1788.15,2061.22 1786.96,2061.19
             1786.96,2061.19 1774.00,2055.56 1774.00,2055.56
             1766.94,2052.84 1759.10,2051.80 1751.58,2051.82
             1729.87,2051.90 1703.03,2067.53 1681.00,2072.47
             1668.72,2075.23 1658.84,2071.14 1647.00,2071.00
             1647.00,2071.00 1625.00,2071.00 1625.00,2071.00
             1615.98,2071.04 1605.25,2072.67 1597.00,2076.28
             1591.88,2078.53 1586.50,2082.90 1581.29,2078.57
             1578.92,2076.60 1576.29,2072.61 1574.58,2070.00
             1563.89,2053.68 1566.52,2049.71 1564.83,2032.00
             1564.83,2032.00 1562.01,2016.00 1562.01,2016.00
             1562.01,2016.00 1562.01,2008.00 1562.01,2008.00
             1562.01,2008.00 1559.29,1995.00 1559.29,1995.00
             1559.29,1995.00 1556.41,1971.00 1556.41,1971.00
             1556.41,1971.00 1554.08,1961.00 1554.08,1961.00
             1554.08,1961.00 1554.08,1954.00 1554.08,1954.00
             1554.08,1954.00 1551.54,1940.00 1551.54,1940.00
             1551.54,1940.00 1546.46,1917.00 1546.46,1917.00
             1546.46,1917.00 1545.79,1908.00 1545.79,1908.00
             1545.79,1908.00 1541.59,1890.00 1541.59,1890.00
             1541.59,1890.00 1540.24,1883.00 1540.24,1883.00
             1540.24,1883.00 1532.41,1857.00 1532.41,1857.00
             1532.41,1857.00 1524.45,1831.00 1524.45,1831.00
             1524.45,1831.00 1520.29,1807.00 1520.29,1807.00
             1520.29,1807.00 1519.56,1799.00 1519.56,1799.00
             1519.56,1799.00 1517.46,1789.00 1517.46,1789.00
             1517.46,1789.00 1516.54,1781.00 1516.54,1781.00
             1516.54,1781.00 1509.32,1743.00 1509.32,1743.00
             1509.32,1743.00 1506.50,1724.00 1506.50,1724.00
             1504.00,1713.71 1494.09,1707.95 1492.00,1698.00 Z
           M 813.00,2989.00
           C 813.00,2989.00 926.00,2989.00 926.00,2989.00
             926.00,2989.00 926.00,3156.00 926.00,3156.00
             926.00,3156.00 1095.00,3156.00 1095.00,3156.00
             1095.00,3156.00 1095.00,3270.00 1095.00,3270.00
             1095.00,3270.00 926.00,3270.00 926.00,3270.00
             926.00,3270.00 926.00,3437.00 926.00,3437.00
             926.00,3437.00 813.00,3437.00 813.00,3437.00
             813.00,3437.00 813.00,3270.00 813.00,3270.00
             813.00,3270.00 644.00,3270.00 644.00,3270.00
             644.00,3270.00 644.00,3156.00 644.00,3156.00
             644.00,3156.00 813.00,3156.00 813.00,3156.00
             813.00,3156.00 813.00,2989.00 813.00,2989.00 Z
           M 2566.00,3027.00
           C 2566.00,3027.00 2679.00,3027.00 2679.00,3027.00
             2679.00,3027.00 2679.00,3194.00 2679.00,3194.00
             2679.00,3194.00 2848.00,3194.00 2848.00,3194.00
             2848.00,3194.00 2848.00,3308.00 2848.00,3308.00
             2848.00,3308.00 2679.00,3308.00 2679.00,3308.00
             2679.00,3308.00 2679.00,3475.00 2679.00,3475.00
             2679.00,3475.00 2566.00,3475.00 2566.00,3475.00
             2566.00,3475.00 2566.00,3308.00 2566.00,3308.00
             2566.00,3308.00 2397.00,3308.00 2397.00,3308.00
             2397.00,3308.00 2397.00,3194.00 2397.00,3194.00
             2397.00,3194.00 2566.00,3194.00 2566.00,3194.00
             2566.00,3194.00 2566.00,3027.00 2566.00,3027.00 Z" />
</svg>
