<?xml version="1.0" encoding="UTF-8" standalone="no"?>
<!DOCTYPE svg PUBLIC "-//W3C//DTD SVG 20010904//EN"
              "http://www.w3.org/TR/2001/REC-SVG-20010904/DTD/svg10.dtd">

<svg xmlns="http://www.w3.org/2000/svg"
     width="11in" height="14in"
     viewBox="0 0 3300 4200">
  <path id="7- hat band"
        fill="none" stroke="black" stroke-width="1"
        d="M 1100.31,1541.04
           C 1105.50,1539.37 1109.55,1542.47 1114.00,1545.00
             1121.73,1549.39 1127.88,1551.79 1136.00,1555.14
             1146.65,1559.53 1158.80,1562.07 1170.00,1564.87
             1170.00,1564.87 1221.00,1576.55 1221.00,1576.55
             1221.00,1576.55 1257.00,1582.29 1257.00,1582.29
             1257.00,1582.29 1270.00,1584.57 1270.00,1584.57
             1270.00,1584.57 1306.00,1589.02 1306.00,1589.02
             1306.00,1589.02 1321.00,1589.02 1321.00,1589.02
             1321.00,1589.02 1339.00,1591.19 1339.00,1591.19
             1339.00,1591.19 1347.00,1591.19 1347.00,1591.19
             1347.00,1591.19 1370.00,1593.25 1370.00,1593.25
             1377.02,1594.65 1373.52,1595.98 1385.00,1596.00
             1385.00,1596.00 1433.00,1598.00 1433.00,1598.00
             1433.00,1598.00 1450.00,1599.00 1450.00,1599.00
             1450.00,1599.00 1513.00,1599.00 1513.00,1599.00
             1513.00,1599.00 1528.00,1600.00 1528.00,1600.00
             1528.00,1600.00 1601.00,1600.00 1601.00,1600.00
             1609.63,1599.98 1606.71,1599.29 1613.00,1598.26
             1613.00,1598.26 1633.00,1597.09 1633.00,1597.09
             1633.00,1597.09 1640.00,1597.96 1640.00,1597.96
             1640.00,1597.96 1654.00,1597.96 1654.00,1597.96
             1654.00,1597.96 1671.00,1597.00 1671.00,1597.00
             1671.00,1597.00 1690.00,1596.00 1690.00,1596.00
             1690.00,1596.00 1707.00,1596.00 1707.00,1596.00
             1717.09,1596.19 1711.85,1599.92 1723.00,1600.00
             1723.00,1600.00 1836.00,1600.00 1836.00,1600.00
             1836.00,1600.00 1851.00,1599.00 1851.00,1599.00
             1851.00,1599.00 1911.00,1599.00 1911.00,1599.00
             1911.00,1599.00 1923.00,1598.04 1923.00,1598.04
             1923.00,1598.04 1936.00,1598.04 1936.00,1598.04
             1936.00,1598.04 1967.00,1596.00 1967.00,1596.00
             1967.00,1596.00 1978.00,1596.00 1978.00,1596.00
             1978.00,1596.00 2004.00,1594.00 2004.00,1594.00
             2004.00,1594.00 2017.00,1592.96 2017.00,1592.96
             2017.00,1592.96 2025.00,1592.96 2025.00,1592.96
             2034.00,1591.87 2042.92,1588.15 2052.00,1588.68
             2052.00,1588.68 2069.00,1587.16 2069.00,1587.16
             2069.00,1587.16 2080.00,1587.16 2080.00,1587.16
             2080.00,1587.16 2107.00,1583.29 2107.00,1583.29
             2128.98,1580.33 2150.41,1575.48 2172.00,1570.50
             2172.00,1570.50 2213.00,1560.33 2213.00,1560.33
             2222.94,1557.09 2235.99,1552.12 2245.00,1547.00
             2247.88,1545.37 2255.53,1540.41 2258.69,1541.65
             2261.79,1542.87 2260.97,1549.24 2261.00,1552.00
             2261.00,1552.00 2261.78,1563.00 2261.78,1563.00
             2261.52,1566.25 2259.93,1568.70 2260.33,1572.00
             2260.98,1577.42 2264.64,1584.59 2263.85,1589.96
             2263.22,1594.22 2260.74,1594.64 2257.00,1594.38
             2251.15,1593.98 2241.64,1595.49 2236.00,1597.22
             2236.00,1597.22 2229.00,1599.61 2229.00,1599.61
             2229.00,1599.61 2221.00,1600.46 2221.00,1600.46
             2221.00,1600.46 2214.00,1602.49 2214.00,1602.49
             2214.00,1602.49 2207.00,1603.12 2207.00,1603.12
             2207.00,1603.12 2201.00,1604.79 2201.00,1604.79
             2201.00,1604.79 2194.00,1605.39 2194.00,1605.39
             2194.00,1605.39 2187.00,1607.61 2187.00,1607.61
             2187.00,1607.61 2177.00,1608.26 2177.00,1608.26
             2177.00,1608.26 2166.00,1610.75 2166.00,1610.75
             2166.00,1610.75 2129.00,1616.13 2129.00,1616.13
             2129.00,1616.13 2117.00,1619.23 2117.00,1619.23
             2117.00,1619.23 2091.00,1621.91 2091.00,1621.91
             2084.46,1622.32 2083.44,1620.27 2078.00,1620.63
             2078.00,1620.63 2032.00,1624.96 2032.00,1624.96
             2032.00,1624.96 2022.00,1624.96 2022.00,1624.96
             2022.00,1624.96 2006.00,1626.96 2006.00,1626.96
             2006.00,1626.96 1996.00,1626.96 1996.00,1626.96
             1996.00,1626.96 1963.00,1630.00 1963.00,1630.00
             1963.00,1630.00 1931.00,1632.00 1931.00,1632.00
             1931.00,1632.00 1914.00,1633.00 1914.00,1633.00
             1914.00,1633.00 1880.00,1633.00 1880.00,1633.00
             1880.00,1633.00 1863.00,1634.04 1863.00,1634.04
             1863.00,1634.04 1847.00,1634.04 1847.00,1634.04
             1847.00,1634.04 1835.00,1635.00 1835.00,1635.00
             1835.00,1635.00 1810.00,1635.00 1810.00,1635.00
             1810.00,1635.00 1793.00,1636.00 1793.00,1636.00
             1793.00,1636.00 1742.00,1636.00 1742.00,1636.00
             1742.00,1636.00 1727.00,1637.00 1727.00,1637.00
             1727.00,1637.00 1633.00,1637.00 1633.00,1637.00
             1633.00,1637.00 1618.00,1636.00 1618.00,1636.00
             1618.00,1636.00 1562.00,1636.00 1562.00,1636.00
             1562.00,1636.00 1545.00,1635.00 1545.00,1635.00
             1545.00,1635.00 1527.00,1635.00 1527.00,1635.00
             1527.00,1635.00 1515.00,1634.04 1515.00,1634.04
             1515.00,1634.04 1504.00,1634.04 1504.00,1634.04
             1504.00,1634.04 1489.00,1633.00 1489.00,1633.00
             1489.00,1633.00 1455.00,1633.00 1455.00,1633.00
             1455.00,1633.00 1438.00,1632.00 1438.00,1632.00
             1438.00,1632.00 1414.00,1630.91 1414.00,1630.91
             1414.00,1630.91 1404.00,1630.00 1404.00,1630.00
             1404.00,1630.00 1365.00,1627.00 1365.00,1627.00
             1365.00,1627.00 1354.00,1627.00 1354.00,1627.00
             1354.00,1627.00 1338.00,1625.09 1338.00,1625.09
             1338.00,1625.09 1320.00,1625.99 1320.00,1625.99
             1320.00,1625.99 1311.00,1625.09 1311.00,1625.09
             1311.00,1625.09 1292.00,1623.80 1292.00,1623.80
             1292.00,1623.80 1285.00,1622.19 1285.00,1622.19
             1285.00,1622.19 1268.00,1620.17 1268.00,1620.17
             1268.00,1620.17 1194.00,1610.27 1194.00,1610.27
             1194.00,1610.27 1184.00,1608.86 1184.00,1608.86
             1184.00,1608.86 1174.00,1608.86 1174.00,1608.86
             1174.00,1608.86 1166.00,1606.38 1166.00,1606.38
             1166.00,1606.38 1160.00,1605.82 1160.00,1605.82
             1160.00,1605.82 1147.00,1603.70 1147.00,1603.70
             1147.00,1603.70 1136.00,1600.53 1136.00,1600.53
             1136.00,1600.53 1129.00,1599.63 1129.00,1599.63
             1129.00,1599.63 1109.00,1595.31 1109.00,1595.31
             1103.84,1594.70 1098.26,1597.87 1095.02,1591.94
             1091.40,1585.32 1098.71,1576.09 1098.20,1570.00
             1098.20,1570.00 1097.10,1564.00 1097.10,1564.00
             1096.71,1559.42 1097.77,1556.36 1097.96,1552.00
             1098.16,1547.48 1097.01,1544.54 1100.31,1541.04 Z
           M 813.00,2989.00
           C 813.00,2989.00 926.00,2989.00 926.00,2989.00
             926.00,2989.00 926.00,3156.00 926.00,3156.00
             926.00,3156.00 1095.00,3156.00 1095.00,3156.00
             1095.00,3156.00 1095.00,3270.00 1095.00,3270.00
             1095.00,3270.00 926.00,3270.00 926.00,3270.00
             926.00,3270.00 926.00,3437.00 926.00,3437.00
             926.00,3437.00 813.00,3437.00 813.00,3437.00
             813.00,3437.00 813.00,3270.00 813.00,3270.00
             813.00,3270.00 644.00,3270.00 644.00,3270.00
             644.00,3270.00 644.00,3156.00 644.00,3156.00
             644.00,3156.00 813.00,3156.00 813.00,3156.00
             813.00,3156.00 813.00,2989.00 813.00,2989.00 Z
           M 2566.00,3027.00
           C 2566.00,3027.00 2679.00,3027.00 2679.00,3027.00
             2679.00,3027.00 2679.00,3194.00 2679.00,3194.00
             2679.00,3194.00 2848.00,3194.00 2848.00,3194.00
             2848.00,3194.00 2848.00,3308.00 2848.00,3308.00
             2848.00,3308.00 2679.00,3308.00 2679.00,3308.00
             2679.00,3308.00 2679.00,3475.00 2679.00,3475.00
             2679.00,3475.00 2566.00,3475.00 2566.00,3475.00
             2566.00,3475.00 2566.00,3308.00 2566.00,3308.00
             2566.00,3308.00 2397.00,3308.00 2397.00,3308.00
             2397.00,3308.00 2397.00,3194.00 2397.00,3194.00
             2397.00,3194.00 2566.00,3194.00 2566.00,3194.00
             2566.00,3194.00 2566.00,3027.00 2566.00,3027.00 Z" />
</svg>
