<?xml version="1.0" encoding="UTF-8" standalone="no"?>
<!DOCTYPE svg PUBLIC "-//W3C//DTD SVG 20010904//EN"
              "http://www.w3.org/TR/2001/REC-SVG-20010904/DTD/svg10.dtd">

<svg xmlns="http://www.w3.org/2000/svg"
     width="11in" height="14in"
     viewBox="0 0 3300 4200">
  <path id="8 - dark horn"
        fill="none" stroke="black" stroke-width="1"
        d="M 1786.00,840.00
           C 1795.67,844.75 1798.13,850.64 1802.37,860.00
             1809.02,874.68 1812.03,886.68 1816.15,902.00
             1822.77,926.57 1826.70,957.57 1829.17,983.00
             1829.17,983.00 1831.00,994.00 1831.00,994.00
             1831.00,994.00 1831.00,1003.00 1831.00,1003.00
             1831.00,1003.00 1834.00,1039.00 1834.00,1039.00
             1834.00,1039.00 1835.00,1055.00 1835.00,1055.00
             1835.00,1055.00 1836.00,1084.00 1836.00,1084.00
             1836.00,1084.00 1835.00,1099.00 1835.00,1099.00
             1835.00,1099.00 1834.00,1148.00 1834.00,1148.00
             1834.00,1148.00 1833.09,1160.00 1833.09,1160.00
             1833.09,1160.00 1831.00,1203.00 1831.00,1203.00
             1831.00,1203.00 1831.98,1217.00 1831.98,1217.00
             1831.98,1217.00 1830.09,1238.00 1830.09,1238.00
             1830.09,1238.00 1823.72,1311.00 1823.72,1311.00
             1823.72,1311.00 1818.43,1337.00 1818.43,1337.00
             1818.43,1337.00 1817.71,1345.00 1817.71,1345.00
             1817.71,1345.00 1813.29,1373.00 1813.29,1373.00
             1813.29,1373.00 1809.70,1400.00 1809.70,1400.00
             1808.17,1410.42 1803.03,1435.01 1803.49,1444.00
             1803.84,1450.79 1800.98,1466.63 1799.75,1474.00
             1799.75,1474.00 1792.41,1520.00 1792.41,1520.00
             1792.41,1520.00 1789.57,1538.00 1789.57,1538.00
             1789.12,1540.60 1788.51,1544.57 1786.49,1546.40
             1784.75,1547.98 1781.29,1548.26 1779.00,1548.79
             1779.00,1548.79 1757.00,1548.79 1757.00,1548.79
             1757.00,1548.79 1740.00,1547.85 1740.00,1547.85
             1740.00,1547.85 1716.00,1549.00 1716.00,1549.00
             1716.00,1549.00 1701.00,1549.00 1701.00,1549.00
             1688.09,1549.15 1669.46,1553.99 1658.00,1559.94
             1655.15,1561.43 1650.54,1564.03 1648.04,1565.93
             1646.03,1567.45 1643.18,1570.65 1640.91,1571.22
             1638.90,1571.74 1635.11,1570.50 1633.00,1570.00
             1633.00,1570.00 1616.00,1565.74 1616.00,1565.74
             1616.00,1565.74 1594.00,1561.54 1594.00,1561.54
             1594.00,1561.54 1571.00,1557.30 1571.00,1557.30
             1571.00,1557.30 1562.00,1556.20 1562.00,1556.20
             1562.00,1556.20 1537.00,1552.25 1537.00,1552.25
             1537.00,1552.25 1526.09,1550.41 1526.09,1550.41
             1522.62,1548.99 1517.87,1542.71 1517.36,1539.00
             1517.02,1536.53 1518.66,1528.82 1519.20,1526.00
             1519.20,1526.00 1522.73,1505.00 1522.73,1505.00
             1522.73,1505.00 1529.87,1455.00 1529.87,1455.00
             1529.87,1455.00 1532.09,1437.00 1532.09,1437.00
             1532.09,1437.00 1535.74,1423.00 1535.74,1423.00
             1537.85,1411.77 1536.37,1411.66 1537.28,1404.00
             1537.28,1404.00 1540.00,1366.00 1540.00,1366.00
             1540.00,1366.00 1541.00,1346.00 1541.00,1346.00
             1541.00,1346.00 1541.92,1335.00 1541.92,1335.00
             1541.92,1335.00 1541.00,1324.00 1541.00,1324.00
             1541.00,1324.00 1540.00,1302.00 1540.00,1302.00
             1540.00,1302.00 1540.00,1253.00 1540.00,1253.00
             1540.00,1253.00 1539.00,1237.00 1539.00,1237.00
             1539.00,1237.00 1539.00,1213.00 1539.00,1213.00
             1539.00,1213.00 1540.00,1198.00 1540.00,1198.00
             1540.00,1198.00 1537.00,1169.00 1537.00,1169.00
             1537.00,1169.00 1537.00,1161.00 1537.00,1161.00
             1537.00,1161.00 1529.44,1113.00 1529.44,1113.00
             1529.44,1113.00 1523.49,1078.00 1523.49,1078.00
             1512.98,1027.87 1494.19,979.62 1469.14,935.00
             1412.84,834.72 1324.75,760.25 1278.28,654.00
             1266.53,627.14 1258.07,594.92 1253.58,566.00
             1253.58,566.00 1251.04,552.00 1251.04,552.00
             1251.04,552.00 1251.04,542.00 1251.04,542.00
             1251.04,542.00 1249.00,521.00 1249.00,521.00
             1249.00,521.00 1249.00,491.00 1249.00,491.00
             1249.00,491.00 1249.91,481.00 1249.91,481.00
             1249.91,481.00 1251.17,459.00 1251.17,459.00
             1251.17,459.00 1252.72,450.00 1252.72,450.00
             1252.72,450.00 1254.30,436.00 1254.30,436.00
             1254.30,436.00 1258.20,415.00 1258.20,415.00
             1258.20,415.00 1259.51,406.00 1259.51,406.00
             1263.25,387.77 1267.46,369.60 1273.58,352.00
             1273.58,352.00 1276.79,341.00 1276.79,341.00
             1277.83,333.60 1274.72,331.12 1283.69,317.00
             1294.46,300.07 1312.21,282.23 1330.00,272.78
             1337.09,269.02 1344.84,265.11 1353.00,265.00
             1356.22,264.96 1362.09,264.62 1364.82,266.17
             1367.46,267.68 1369.61,271.44 1371.19,274.00
             1376.54,282.70 1378.98,284.60 1379.04,295.00
             1379.04,295.00 1379.04,311.00 1379.04,311.00
             1379.04,311.00 1380.00,323.00 1380.00,323.00
             1380.00,323.00 1380.00,344.00 1380.00,344.00
             1380.00,344.00 1382.00,362.00 1382.00,362.00
             1382.00,362.00 1382.00,371.00 1382.00,371.00
             1382.00,371.00 1384.71,387.00 1384.71,387.00
             1384.71,387.00 1385.30,394.00 1385.30,394.00
             1385.30,394.00 1389.49,414.00 1389.49,414.00
             1398.25,454.96 1416.23,499.15 1441.16,533.00
             1450.74,546.02 1461.60,557.60 1473.00,569.00
             1473.00,569.00 1496.00,591.48 1496.00,591.48
             1507.76,600.75 1524.65,609.42 1538.00,616.47
             1538.00,616.47 1590.00,642.89 1590.00,642.89
             1590.00,642.89 1615.00,655.40 1615.00,655.40
             1615.00,655.40 1630.00,662.87 1630.00,662.87
             1630.00,662.87 1651.91,676.90 1651.91,676.90
             1651.91,676.90 1660.01,684.47 1660.01,684.47
             1660.01,684.47 1675.00,694.62 1675.00,694.62
             1675.00,694.62 1730.00,744.00 1730.00,744.00
             1724.34,731.33 1703.12,706.01 1693.00,696.01
             1693.00,696.01 1677.42,681.83 1677.42,681.83
             1674.73,678.61 1673.14,672.17 1671.35,668.00
             1671.35,668.00 1659.73,642.00 1659.73,642.00
             1649.77,619.52 1638.91,596.34 1631.26,573.00
             1628.77,565.41 1625.01,554.86 1624.00,547.00
             1624.00,547.00 1624.00,539.00 1624.00,539.00
             1623.44,534.90 1622.86,533.56 1623.04,529.00
             1623.43,518.85 1628.50,501.01 1637.02,494.99
             1648.71,486.71 1656.08,492.14 1666.00,498.98
             1666.00,498.98 1682.00,509.80 1682.00,509.80
             1724.17,535.54 1757.91,552.59 1789.91,592.00
             1808.43,614.82 1822.08,644.41 1831.86,672.00
             1841.18,698.31 1848.33,725.38 1852.43,753.00
             1852.43,753.00 1855.00,767.00 1855.00,767.00
             1855.00,767.00 1855.00,776.00 1855.00,776.00
             1855.00,776.00 1857.00,797.00 1857.00,797.00
             1857.00,797.00 1858.00,812.00 1858.00,812.00
             1858.00,812.00 1858.00,849.00 1858.00,849.00
             1857.85,861.34 1851.41,906.87 1848.80,920.00
             1847.98,924.11 1846.22,938.25 1844.69,940.71
             1843.76,942.21 1843.32,942.17 1842.00,943.00
             1841.25,933.75 1836.69,918.19 1833.88,909.00
             1828.78,892.30 1821.96,872.77 1812.63,858.00
             1807.57,849.98 1797.08,834.68 1786.00,840.00 Z
           M 813.00,2989.00
           C 813.00,2989.00 926.00,2989.00 926.00,2989.00
             926.00,2989.00 926.00,3156.00 926.00,3156.00
             926.00,3156.00 1095.00,3156.00 1095.00,3156.00
             1095.00,3156.00 1095.00,3270.00 1095.00,3270.00
             1095.00,3270.00 926.00,3270.00 926.00,3270.00
             926.00,3270.00 926.00,3437.00 926.00,3437.00
             926.00,3437.00 813.00,3437.00 813.00,3437.00
             813.00,3437.00 813.00,3270.00 813.00,3270.00
             813.00,3270.00 644.00,3270.00 644.00,3270.00
             644.00,3270.00 644.00,3156.00 644.00,3156.00
             644.00,3156.00 813.00,3156.00 813.00,3156.00
             813.00,3156.00 813.00,2989.00 813.00,2989.00 Z
           M 2566.00,3027.00
           C 2566.00,3027.00 2679.00,3027.00 2679.00,3027.00
             2679.00,3027.00 2679.00,3194.00 2679.00,3194.00
             2679.00,3194.00 2848.00,3194.00 2848.00,3194.00
             2848.00,3194.00 2848.00,3308.00 2848.00,3308.00
             2848.00,3308.00 2679.00,3308.00 2679.00,3308.00
             2679.00,3308.00 2679.00,3475.00 2679.00,3475.00
             2679.00,3475.00 2566.00,3475.00 2566.00,3475.00
             2566.00,3475.00 2566.00,3308.00 2566.00,3308.00
             2566.00,3308.00 2397.00,3308.00 2397.00,3308.00
             2397.00,3308.00 2397.00,3194.00 2397.00,3194.00
             2397.00,3194.00 2566.00,3194.00 2566.00,3194.00
             2566.00,3194.00 2566.00,3027.00 2566.00,3027.00 Z" />
</svg>
