<?xml version="1.0" encoding="UTF-8" standalone="no"?>
<!DOCTYPE svg PUBLIC "-//W3C//DTD SVG 20010904//EN"
              "http://www.w3.org/TR/2001/REC-SVG-20010904/DTD/svg10.dtd">

<svg xmlns="http://www.w3.org/2000/svg"
     width="2.66667in" height="1.33333in"
     viewBox="0 0 192 96">
  <path id="Selection"
        fill="none" stroke="black" stroke-width="1"
        d="M 1.00,48.00
           C 1.00,48.00 28.00,34.22 28.00,34.22
             28.00,34.22 71.00,12.75 71.00,12.75
             71.00,12.75 88.00,4.25 88.00,4.25
             88.00,4.25 97.00,1.03 97.00,1.03
             97.00,1.03 106.00,5.22 106.00,5.22
             106.00,5.22 125.00,14.75 125.00,14.75
             125.00,14.75 167.00,35.75 167.00,35.75
             167.00,35.75 191.00,48.00 191.00,48.00
             191.00,48.00 165.00,61.31 165.00,61.31
             165.00,61.31 123.00,82.25 123.00,82.25
             123.00,82.25 105.00,91.25 105.00,91.25
             105.00,91.25 96.00,94.58 96.00,94.58
             96.00,94.58 86.00,90.75 86.00,90.75
             86.00,90.75 68.00,81.75 68.00,81.75
             68.00,81.75 27.00,61.25 27.00,61.25
             27.00,61.25 1.00,48.00 1.00,48.00 Z
           M 175.00,48.00
           C 175.00,48.00 134.00,26.74 134.00,26.74
             134.00,26.74 117.00,17.75 117.00,17.75
             112.28,15.39 99.72,7.86 95.00,8.74
             95.00,8.74 72.00,19.75 72.00,19.75
             72.00,19.75 36.00,37.75 36.00,37.75
             30.47,40.52 22.25,43.75 18.00,48.00
             18.00,48.00 38.00,58.31 38.00,58.31
             38.00,58.31 72.00,76.25 72.00,76.25
             72.00,76.25 95.00,87.51 95.00,87.51
             99.43,88.07 111.52,80.99 116.00,78.75
             116.00,78.75 155.00,59.25 155.00,59.25
             160.74,56.38 170.71,52.28 175.00,48.00 Z
           M 104.00,66.00
           C 104.00,69.43 104.55,77.96 102.83,80.61
             100.75,83.80 94.41,85.26 92.02,81.69
             90.79,79.85 91.00,76.18 91.00,74.00
             91.00,74.00 91.00,22.00 91.00,22.00
             91.09,9.29 99.25,11.55 102.40,15.39
             104.50,17.95 104.00,22.80 104.00,26.00
             98.12,24.65 99.02,22.41 99.00,17.00
             99.00,17.00 97.00,17.00 97.00,17.00
             97.00,17.00 97.00,78.00 97.00,78.00
             97.00,78.00 99.00,78.00 99.00,78.00
             99.00,78.00 99.00,67.00 99.00,67.00
             99.00,67.00 104.00,66.00 104.00,66.00 Z
           M 108.00,18.00
           C 113.68,20.80 112.99,22.03 113.00,28.00
             113.00,28.00 113.00,70.00 113.00,70.00
             113.00,70.00 118.00,69.00 118.00,69.00
             116.97,75.19 113.65,76.38 108.00,78.00
             108.00,78.00 108.00,18.00 108.00,18.00 Z
           M 79.00,76.00
           C 76.75,75.01 73.69,74.00 72.57,71.61
             71.71,69.77 72.00,62.42 72.00,60.00
             72.00,60.00 73.00,32.00 73.00,32.00
             73.00,29.73 72.78,26.34 74.02,24.39
             75.70,21.76 84.28,17.26 86.98,20.60
             88.23,22.15 88.00,26.04 87.85,28.00
             87.85,28.00 87.85,45.00 87.85,45.00
             86.84,48.69 84.53,50.01 84.43,54.00
             84.43,54.00 89.00,81.00 89.00,81.00
             78.19,77.71 84.04,68.27 78.00,57.00
             78.00,57.00 79.00,76.00 79.00,76.00 Z
           M 82.00,25.00
           C 82.00,25.00 78.99,26.72 78.99,26.72
             78.99,26.72 78.00,43.00 78.00,43.00
             78.00,43.00 82.00,43.00 82.00,43.00
             82.00,43.00 82.00,25.00 82.00,25.00 Z
           M 119.00,24.00
           C 123.72,26.04 127.07,26.54 128.00,32.00
             128.00,32.00 124.00,32.00 124.00,32.00
             124.00,32.00 124.00,44.00 124.00,44.00
             124.00,44.00 128.00,44.00 128.00,44.00
             128.00,44.00 124.16,52.10 124.16,52.10
             124.16,52.10 124.16,65.00 124.16,65.00
             124.16,65.00 128.00,64.00 128.00,64.00
             127.49,70.36 124.49,70.63 119.00,73.00
             119.00,73.00 119.00,24.00 119.00,24.00 Z
           M 70.00,71.00
           C 70.00,71.00 58.99,65.37 58.99,65.37
             58.99,65.37 58.00,59.00 58.00,59.00
             58.00,59.00 58.00,38.00 58.00,38.00
             58.00,38.00 58.99,31.63 58.99,31.63
             58.99,31.63 70.00,26.00 70.00,26.00
             69.44,33.06 67.45,30.18 65.02,34.27
             63.66,36.56 64.00,41.30 64.00,44.00
             64.00,44.00 70.00,44.00 70.00,44.00
             70.00,44.00 70.00,48.00 70.00,48.00
             70.00,48.00 64.00,48.00 64.00,48.00
             64.00,48.00 64.00,64.00 64.00,64.00
             69.00,65.10 69.58,65.95 70.00,71.00 Z
           M 135.00,32.00
           C 136.91,32.90 138.75,33.55 139.99,35.39
             141.12,37.06 141.58,40.95 141.87,43.00
             142.37,46.57 144.95,57.80 142.98,60.41
             142.07,61.61 141.22,61.57 140.00,62.00
             140.00,62.00 140.00,58.00 140.00,58.00
             140.00,58.00 132.00,66.00 132.00,66.00
             132.00,66.00 135.00,32.00 135.00,32.00 Z
           M 49.00,49.00
           C 49.45,43.42 49.09,35.35 55.00,33.00
             55.00,33.00 52.00,61.00 52.00,61.00
             52.00,61.00 46.72,58.57 46.72,58.57
             46.72,58.57 41.00,39.00 41.00,39.00
             41.00,39.00 45.00,38.00 45.00,38.00
             45.00,38.00 49.00,49.00 49.00,49.00 Z
           M 146.00,38.00
           C 149.26,38.93 155.00,40.93 156.39,44.33
             156.39,44.33 158.00,54.00 158.00,54.00
             158.00,54.00 157.00,55.00 157.00,55.00
             157.00,55.00 150.00,51.00 150.00,51.00
             149.94,55.47 150.58,57.40 146.00,59.00
             146.00,59.00 146.00,38.00 146.00,38.00 Z
           M 39.00,40.00
           C 39.67,43.02 37.92,43.78 36.00,46.00
             36.00,46.00 40.00,46.00 40.00,46.00
             40.00,46.00 40.00,49.00 40.00,49.00
             40.00,49.00 36.00,49.00 36.00,49.00
             36.00,49.00 40.00,56.00 40.00,56.00
             29.43,51.40 29.08,45.82 39.00,40.00 Z
           M 151.00,44.00
           C 150.48,46.33 150.88,46.17 153.00,47.00
             153.00,47.00 153.00,45.00 153.00,45.00
             153.00,45.00 151.00,44.00 151.00,44.00 Z
           M 139.00,49.00
           C 139.00,49.00 137.00,54.00 137.00,54.00
             137.00,54.00 139.00,54.00 139.00,54.00
             139.00,54.00 139.00,49.00 139.00,49.00 Z" />
</svg>
