<?xml version="1.0" encoding="UTF-8" standalone="no"?>
<!DOCTYPE svg PUBLIC "-//W3C//DTD SVG 20010904//EN"
              "http://www.w3.org/TR/2001/REC-SVG-20010904/DTD/svg10.dtd">

<svg xmlns="http://www.w3.org/2000/svg"
     width="580.952mm" height="635.979mm"
     viewBox="0 0 2196 2404">
  <path id="Selection"
        fill="none" stroke="black" stroke-width="1"
        d="M 1581.00,895.00
           C 1573.05,889.31 1556.16,870.14 1548.83,862.00
             1543.55,856.13 1532.46,844.44 1528.90,838.00
             1526.25,833.20 1524.61,826.30 1522.98,821.00
             1522.98,821.00 1512.63,783.00 1512.63,783.00
             1502.76,743.54 1495.73,700.61 1493.96,660.00
             1493.96,660.00 1493.00,647.00 1493.00,647.00
             1493.00,647.00 1493.00,628.00 1493.00,628.00
             1493.00,628.00 1492.20,614.08 1492.20,614.08
             1492.20,614.08 1493.00,601.00 1493.00,601.00
             1493.10,537.41 1504.13,467.78 1523.02,407.00
             1532.75,375.72 1544.55,344.93 1557.86,315.00
             1557.86,315.00 1579.67,269.00 1579.67,269.00
             1579.67,269.00 1590.68,234.00 1590.68,234.00
             1598.99,211.45 1611.21,184.99 1622.86,164.00
             1642.03,129.46 1670.89,90.94 1704.00,69.00
             1713.30,62.84 1723.65,57.21 1735.00,56.32
             1744.50,55.58 1750.47,60.24 1749.91,70.00
             1749.58,75.68 1746.09,88.15 1744.42,94.00
             1733.74,131.44 1717.43,152.17 1695.43,183.00
             1695.43,183.00 1683.66,201.00 1683.66,201.00
             1683.66,201.00 1655.00,241.00 1655.00,241.00
             1655.00,241.00 1669.00,233.26 1669.00,233.26
             1682.74,226.17 1716.53,211.41 1731.00,208.45
             1739.28,206.76 1743.70,206.91 1752.00,207.00
             1759.79,207.10 1770.53,210.02 1773.76,218.01
             1777.88,228.20 1764.27,239.42 1757.00,244.33
             1749.09,249.67 1742.24,252.43 1734.00,256.78
             1734.00,256.78 1709.00,269.55 1709.00,269.55
             1709.00,269.55 1679.00,280.00 1679.00,280.00
             1679.00,280.00 1691.00,282.23 1691.00,282.23
             1702.05,284.80 1717.42,290.56 1724.21,300.00
             1732.18,311.07 1728.50,324.36 1715.00,328.48
             1703.90,331.88 1685.47,328.58 1675.00,324.00
             1675.00,324.00 1695.95,382.00 1695.95,382.00
             1695.95,382.00 1708.58,415.00 1708.58,415.00
             1708.58,415.00 1719.31,442.00 1719.31,442.00
             1719.31,442.00 1758.69,518.00 1758.69,518.00
             1758.69,518.00 1791.42,579.00 1791.42,579.00
             1791.42,579.00 1804.05,600.00 1804.05,600.00
             1804.05,600.00 1809.88,609.00 1809.88,609.00
             1812.42,613.69 1810.85,614.44 1812.94,619.00
             1812.94,619.00 1821.69,635.00 1821.69,635.00
             1821.69,635.00 1832.31,655.00 1832.31,655.00
             1876.90,737.44 1923.71,820.28 1949.57,911.00
             1960.78,950.32 1968.26,991.16 1970.04,1032.00
             1970.04,1032.00 1971.00,1045.00 1971.00,1045.00
             1971.00,1045.00 1971.00,1071.00 1971.00,1071.00
             1971.00,1071.00 1970.04,1084.00 1970.04,1084.00
             1967.80,1135.24 1953.31,1184.42 1932.30,1231.00
             1932.30,1231.00 1912.00,1273.00 1912.00,1273.00
             1912.00,1273.00 1910.00,1273.00 1910.00,1273.00
             1910.00,1273.00 1905.98,1260.00 1905.98,1260.00
             1905.98,1260.00 1896.55,1233.00 1896.55,1233.00
             1885.70,1205.86 1871.01,1180.12 1853.11,1157.00
             1853.11,1157.00 1842.29,1145.00 1842.29,1145.00
             1842.29,1145.00 1824.91,1125.00 1824.91,1125.00
             1824.91,1125.00 1806.00,1106.00 1806.00,1106.00
             1806.00,1106.00 1751.00,1052.09 1751.00,1052.09
             1751.00,1052.09 1715.09,1018.83 1715.09,1018.83
             1715.09,1018.83 1706.99,1010.00 1706.99,1010.00
             1706.99,1010.00 1686.17,989.00 1686.17,989.00
             1686.17,989.00 1656.58,953.00 1656.58,953.00
             1634.52,924.73 1616.78,900.04 1600.26,868.00
             1591.67,851.34 1585.70,832.97 1580.57,815.00
             1570.59,779.99 1564.94,745.43 1565.00,709.00
             1565.01,699.53 1565.44,681.69 1576.00,677.90
             1581.85,675.81 1590.20,680.61 1595.00,683.70
             1610.60,693.73 1619.29,704.29 1632.00,717.00
             1632.00,717.00 1601.02,631.00 1601.02,631.00
             1591.73,601.10 1587.57,579.63 1582.43,549.00
             1582.43,549.00 1575.91,492.00 1575.91,492.00
             1575.91,492.00 1575.00,480.00 1575.00,480.00
             1574.99,472.18 1575.85,453.50 1574.00,447.00
             1574.00,447.00 1570.21,463.00 1570.21,463.00
             1567.96,473.57 1565.02,493.44 1565.00,504.00
             1565.00,504.00 1565.00,531.00 1565.00,531.00
             1565.03,547.79 1569.57,580.16 1573.00,597.00
             1573.00,597.00 1583.43,639.00 1583.43,639.00
             1583.43,639.00 1588.00,654.00 1588.00,654.00
             1582.40,655.12 1581.19,653.41 1576.00,653.09
             1552.59,651.67 1545.29,680.03 1542.73,698.00
             1536.49,741.72 1548.08,801.23 1562.00,843.00
             1562.00,843.00 1575.40,878.00 1575.40,878.00
             1577.49,883.22 1581.53,889.46 1581.00,895.00 Z
           M 441.00,802.00
           C 435.30,791.70 427.31,759.75 424.13,747.00
             415.96,714.34 411.07,681.45 407.83,648.00
             407.83,648.00 406.00,627.00 406.00,627.00
             406.00,627.00 405.00,606.00 405.00,606.00
             405.00,606.00 405.00,563.00 405.00,563.00
             405.00,563.00 405.96,550.00 405.96,550.00
             406.99,526.33 409.19,502.40 413.25,479.00
             417.45,454.82 422.74,430.70 429.15,407.00
             429.15,407.00 440.10,370.00 440.10,370.00
             440.10,370.00 450.15,327.00 450.15,327.00
             450.15,327.00 458.58,300.00 458.58,300.00
             467.97,266.25 475.42,240.97 490.78,209.00
             503.20,183.17 527.82,147.31 551.00,130.71
             559.74,124.45 582.91,110.88 587.32,129.00
             587.87,131.28 588.04,133.66 587.91,136.00
             587.91,136.00 586.27,148.00 586.27,148.00
             582.85,171.70 575.68,194.65 564.74,216.00
             564.74,216.00 550.31,242.00 550.31,242.00
             550.31,242.00 542.14,259.00 542.14,259.00
             542.14,259.00 519.00,302.00 519.00,302.00
             531.89,290.85 542.41,285.01 557.00,276.72
             573.73,267.21 586.19,259.81 606.00,258.32
             613.46,257.76 625.41,260.75 627.57,269.00
             630.20,279.07 618.77,289.16 612.00,294.75
             604.86,300.65 579.04,318.34 571.00,322.69
             571.00,322.69 546.00,335.00 546.00,335.00
             558.09,335.11 578.54,338.50 587.91,346.53
             596.79,354.28 598.33,366.88 587.91,374.20
             576.53,382.32 557.31,378.00 544.00,378.00
             544.00,378.00 572.40,423.00 572.40,423.00
             572.40,423.00 618.05,498.00 618.05,498.00
             618.05,498.00 683.00,597.00 683.00,597.00
             683.00,597.00 706.00,629.00 706.00,629.00
             706.00,629.00 642.00,665.81 642.00,665.81
             642.00,665.81 558.00,720.33 558.00,720.33
             558.00,720.33 522.00,745.34 522.00,745.34
             519.04,747.38 512.68,753.03 509.09,751.76
             506.50,750.84 502.68,745.30 501.01,743.00
             496.17,736.33 489.61,726.25 485.78,719.00
             466.75,682.96 456.52,650.05 457.00,609.00
             457.08,602.16 458.64,586.80 464.13,582.57
             467.64,579.51 471.37,581.12 475.00,582.57
             483.13,586.56 490.54,591.84 497.00,598.00
             483.07,563.16 480.76,546.66 476.84,510.00
             476.84,510.00 474.00,481.00 474.00,481.00
             474.00,481.00 474.00,459.00 474.00,459.00
             474.00,459.00 474.91,447.00 474.91,447.00
             474.91,447.00 477.16,416.00 477.16,416.00
             477.80,410.01 480.07,398.28 479.00,393.00
             479.00,393.00 471.67,415.00 471.67,415.00
             471.67,415.00 464.45,443.00 464.45,443.00
             460.16,464.42 459.97,481.44 460.00,503.00
             460.00,503.00 461.00,522.00 461.00,522.00
             461.00,522.00 462.29,538.00 462.29,538.00
             462.29,538.00 465.00,551.00 465.00,551.00
             460.01,552.42 455.51,551.52 451.00,554.65
             438.69,563.21 435.17,586.91 435.00,601.00
             434.54,640.80 444.75,680.94 461.31,717.00
             461.31,717.00 481.22,754.00 481.22,754.00
             482.85,757.08 487.87,764.87 487.19,767.99
             486.38,771.69 479.10,776.08 476.00,778.29
             468.41,783.70 448.30,799.58 441.00,802.00 Z
           M 1422.00,480.00
           C 1414.47,469.47 1414.74,462.58 1398.83,445.00
             1394.92,440.68 1383.39,432.22 1382.31,427.99
             1381.56,425.03 1383.23,411.75 1383.72,408.00
             1385.74,392.49 1388.43,377.10 1392.58,362.00
             1409.02,302.18 1439.29,240.18 1505.00,224.13
             1512.41,222.32 1525.49,220.09 1533.00,220.00
             1533.00,220.00 1552.00,220.00 1552.00,220.00
             1552.00,220.00 1568.98,221.15 1568.98,221.15
             1571.37,221.54 1573.09,222.33 1573.08,225.06
             1573.08,225.06 1567.00,243.00 1567.00,243.00
             1567.00,243.00 1559.10,267.00 1559.10,267.00
             1559.10,267.00 1546.31,289.00 1546.31,289.00
             1525.68,327.15 1515.85,350.53 1501.05,391.00
             1501.05,391.00 1485.58,439.00 1485.58,439.00
             1485.58,439.00 1478.86,461.68 1478.86,461.68
             1478.02,462.82 1477.29,463.28 1475.89,463.48
             1474.74,463.72 1466.05,462.34 1459.00,463.48
             1442.60,466.00 1435.47,471.57 1422.00,480.00 Z
           M 1733.00,282.00
           C 1737.20,277.53 1742.53,276.60 1748.00,274.14
             1753.11,271.83 1760.36,267.22 1765.00,263.96
             1768.24,261.69 1773.12,256.89 1777.00,256.81
             1781.54,256.72 1802.78,264.86 1808.00,267.01
             1836.94,278.95 1863.56,295.08 1888.00,314.60
             1922.71,342.33 1952.50,376.24 1975.94,414.00
             1975.94,414.00 1994.31,449.00 1994.31,449.00
             2004.81,468.42 2016.07,487.90 2028.72,506.00
             2039.14,520.92 2049.43,534.17 2061.27,548.00
             2072.30,560.89 2079.69,567.31 2089.49,582.00
             2107.39,608.85 2116.52,640.00 2119.08,672.00
             2119.08,672.00 2120.00,682.00 2120.00,682.00
             2120.33,710.13 2117.27,728.83 2110.47,756.00
             2110.47,756.00 2100.58,791.00 2100.58,791.00
             2088.38,823.31 2068.25,851.94 2042.00,874.42
             2027.44,886.89 2015.16,895.23 1998.00,903.75
             1994.72,905.38 1984.74,910.73 1981.42,908.89
             1978.69,907.37 1977.15,899.97 1976.29,897.00
             1976.29,897.00 1966.66,867.00 1966.66,867.00
             1966.66,867.00 1956.60,840.00 1956.60,840.00
             1955.25,836.62 1951.50,828.15 1951.30,825.00
             1951.08,821.55 1953.54,815.56 1954.58,812.00
             1954.58,812.00 1962.20,783.00 1962.20,783.00
             1964.37,771.93 1966.94,754.10 1967.00,743.00
             1967.00,743.00 1968.00,725.00 1968.00,725.00
             1968.00,725.00 1967.00,708.00 1967.00,708.00
             1966.75,686.89 1959.30,653.39 1953.02,633.00
             1936.23,578.41 1905.65,523.35 1863.00,484.83
             1839.08,463.23 1810.90,441.61 1777.00,442.00
             1772.03,442.06 1766.75,442.88 1762.00,444.35
             1759.56,445.10 1755.65,446.89 1753.21,445.80
             1750.91,444.77 1749.33,441.13 1748.14,439.00
             1748.14,439.00 1739.86,424.00 1739.86,424.00
             1739.86,424.00 1718.22,382.00 1718.22,382.00
             1718.22,382.00 1710.77,369.00 1710.77,369.00
             1707.62,363.21 1699.76,353.20 1700.00,347.00
             1721.44,352.28 1756.91,337.87 1754.67,312.00
             1754.18,306.26 1751.80,299.64 1748.39,295.00
             1743.98,289.01 1739.21,285.75 1733.00,282.00 Z
           M 1234.00,447.00
           C 1232.39,441.32 1232.93,433.05 1233.00,427.00
             1233.13,416.29 1236.62,399.24 1240.00,389.00
             1243.75,377.63 1249.28,364.09 1255.69,354.00
             1265.15,339.13 1275.99,326.29 1290.00,315.50
             1298.42,309.01 1303.71,306.40 1313.00,301.75
             1341.56,287.47 1363.02,282.64 1394.00,277.00
             1394.00,277.00 1395.00,278.00 1395.00,278.00
             1395.00,278.00 1379.42,312.00 1379.42,312.00
             1370.77,332.62 1364.53,354.12 1360.00,376.00
             1360.00,376.00 1355.58,403.00 1355.58,403.00
             1355.25,405.43 1355.26,411.57 1353.40,412.96
             1350.88,414.86 1341.37,411.29 1338.00,410.60
             1324.77,407.90 1314.38,407.29 1301.00,409.44
             1285.16,411.99 1268.84,418.18 1256.00,427.90
             1248.78,433.37 1241.35,443.52 1234.00,447.00 Z
           M 519.00,302.00
           C 519.00,302.00 518.00,302.00 518.00,302.00
             518.00,302.00 519.00,303.00 519.00,303.00
             519.00,303.00 519.00,302.00 519.00,302.00 Z
           M 1254.00,465.00
           C 1259.22,458.99 1265.21,451.68 1272.00,447.47
             1279.72,442.68 1289.12,439.55 1298.00,437.80
             1328.13,431.89 1355.43,441.43 1377.00,463.00
             1382.87,468.87 1385.76,471.86 1390.19,479.00
             1395.68,487.87 1399.89,497.04 1402.98,507.00
             1403.70,509.34 1405.88,516.73 1405.51,518.85
             1404.77,523.21 1397.98,520.85 1395.00,520.43
             1384.44,518.91 1371.48,518.95 1361.00,521.00
             1349.24,523.30 1338.89,526.16 1328.00,531.32
             1324.67,532.90 1313.83,539.96 1311.10,539.76
             1308.57,539.56 1307.32,536.95 1306.26,534.99
             1306.26,534.99 1298.40,520.00 1298.40,520.00
             1290.77,507.11 1281.88,494.13 1271.83,483.00
             1271.83,483.00 1254.00,465.00 1254.00,465.00 Z
           M 1766.00,470.00
           C 1790.71,462.98 1822.03,486.30 1839.00,501.92
             1844.88,507.32 1846.92,508.48 1852.58,515.00
             1852.58,515.00 1862.57,526.00 1862.57,526.00
             1871.95,536.96 1881.22,549.80 1888.95,562.00
             1917.25,606.69 1933.49,658.41 1937.09,711.00
             1937.09,711.00 1938.00,723.00 1938.00,723.00
             1938.02,737.01 1937.32,751.12 1935.42,765.00
             1934.65,770.64 1935.21,775.76 1931.00,780.00
             1910.44,736.42 1887.21,694.35 1864.31,652.00
             1864.31,652.00 1816.69,564.00 1816.69,564.00
             1816.69,564.00 1781.69,500.00 1781.69,500.00
             1778.01,493.21 1767.80,476.16 1766.00,470.00 Z
           M 1303.00,598.00
           C 1303.00,598.00 1288.00,588.42 1288.00,588.42
             1288.00,588.42 1250.00,566.26 1250.00,566.26
             1224.10,552.89 1196.35,543.40 1168.00,536.88
             1158.31,534.65 1139.85,531.76 1130.00,531.09
             1127.04,530.89 1118.90,532.02 1117.70,528.69
             1116.90,526.47 1118.79,522.97 1119.76,521.00
             1122.66,515.14 1126.82,508.88 1131.17,504.00
             1145.29,488.18 1168.78,470.27 1191.00,470.00
             1191.00,470.00 1199.00,470.00 1199.00,470.00
             1212.99,470.17 1226.27,477.79 1237.00,486.21
             1245.06,492.54 1247.52,495.63 1254.17,503.00
             1270.48,521.07 1280.39,535.23 1291.25,557.00
             1295.30,565.13 1299.11,575.20 1301.37,584.00
             1302.63,588.90 1304.02,592.96 1303.00,598.00 Z
           M 1463.00,553.00
           C 1463.00,553.00 1443.00,538.08 1443.00,538.08
             1439.87,536.02 1433.75,533.09 1432.07,529.90
             1430.66,527.21 1431.16,518.64 1430.71,515.00
             1430.35,512.03 1428.72,505.67 1429.64,503.09
             1430.69,500.10 1434.41,498.15 1437.00,496.60
             1444.00,492.42 1452.93,487.92 1461.00,486.46
             1463.38,486.03 1469.46,485.46 1471.40,487.02
             1474.08,489.19 1471.17,499.72 1470.58,503.00
             1470.58,503.00 1463.00,553.00 1463.00,553.00 Z
           M 1464.00,660.00
           C 1457.75,660.81 1448.30,656.85 1442.00,655.15
             1442.00,655.15 1407.00,648.27 1407.00,648.27
             1407.00,648.27 1374.00,644.28 1374.00,644.28
             1369.18,643.71 1363.54,644.45 1359.00,642.49
             1355.66,641.05 1342.19,628.96 1338.00,625.60
             1335.07,623.25 1331.01,620.53 1329.58,616.99
             1329.58,616.99 1324.80,588.00 1324.80,588.00
             1324.80,588.00 1320.49,568.04 1320.49,568.04
             1320.72,566.50 1321.26,565.64 1322.32,564.53
             1325.86,560.83 1341.63,554.20 1347.00,552.34
             1377.28,541.87 1410.08,546.06 1436.00,565.16
             1442.88,570.22 1457.46,583.12 1460.28,591.00
             1461.13,593.40 1461.00,596.46 1461.00,599.00
             1461.00,599.00 1461.00,617.00 1461.00,617.00
             1461.00,617.00 1462.00,630.00 1462.00,630.00
             1462.08,636.80 1462.54,654.01 1464.00,660.00 Z
           M 138.00,981.00
           C 143.85,978.57 159.53,977.74 167.00,976.58
             185.00,973.78 202.57,969.53 220.00,964.28
             269.36,949.41 313.19,925.40 357.00,898.80
             388.57,879.62 418.96,857.90 449.00,836.42
             449.00,836.42 580.00,743.02 580.00,743.02
             680.43,673.81 784.90,615.41 903.00,582.58
             944.98,570.90 987.60,563.88 1031.00,560.91
             1031.00,560.91 1041.00,560.00 1041.00,560.00
             1041.00,560.00 1089.00,560.00 1089.00,560.00
             1089.00,560.00 1101.00,560.91 1101.00,560.91
             1101.00,560.91 1120.00,562.17 1120.00,562.17
             1161.38,566.18 1214.14,580.64 1251.00,599.78
             1268.31,608.77 1294.45,624.76 1310.00,636.37
             1310.00,636.37 1326.00,649.16 1326.00,649.16
             1328.87,651.72 1334.77,657.45 1338.00,658.99
             1340.54,660.21 1349.77,660.83 1353.00,661.08
             1353.00,661.08 1369.00,663.27 1369.00,663.27
             1388.17,666.09 1415.40,671.95 1434.00,677.29
             1441.28,679.38 1457.23,684.00 1462.95,688.10
             1464.57,689.27 1465.73,690.30 1466.69,692.09
             1466.69,692.09 1471.42,719.00 1471.42,719.00
             1471.42,719.00 1487.85,790.00 1487.85,790.00
             1487.85,790.00 1490.43,801.00 1490.43,801.00
             1493.58,812.18 1503.57,841.60 1508.87,851.00
             1513.03,858.38 1525.44,873.82 1531.20,881.00
             1548.20,902.22 1566.78,922.78 1586.00,942.00
             1586.00,942.00 1658.00,1009.83 1658.00,1009.83
             1658.00,1009.83 1718.00,1063.04 1718.00,1063.04
             1751.38,1094.97 1782.54,1129.39 1809.42,1167.00
             1832.66,1199.51 1856.87,1242.20 1867.12,1281.00
             1874.94,1310.62 1875.35,1334.75 1875.00,1365.00
             1875.00,1365.00 1873.16,1386.00 1873.16,1386.00
             1866.80,1445.45 1842.83,1488.94 1803.17,1533.00
             1784.16,1554.12 1762.10,1573.09 1737.00,1586.69
             1724.90,1593.25 1699.75,1601.40 1686.00,1605.42
             1667.25,1610.91 1648.36,1615.48 1629.00,1618.27
             1622.23,1619.25 1610.29,1621.73 1604.00,1620.00
             1604.00,1620.00 1626.58,1589.00 1626.58,1589.00
             1646.08,1557.67 1654.62,1527.55 1645.53,1491.00
             1639.83,1468.11 1630.37,1449.75 1619.76,1429.00
             1619.76,1429.00 1611.14,1413.00 1611.14,1413.00
             1609.72,1410.43 1607.28,1407.04 1607.72,1404.00
             1608.22,1400.57 1617.44,1390.55 1620.11,1387.00
             1627.29,1377.42 1638.18,1360.80 1643.00,1350.00
             1638.53,1351.48 1633.67,1352.39 1629.00,1352.98
             1627.52,1353.29 1624.93,1353.84 1623.53,1352.98
             1621.64,1351.43 1623.06,1346.13 1623.53,1344.00
             1623.53,1344.00 1625.83,1328.00 1625.83,1328.00
             1626.24,1323.70 1625.73,1319.08 1627.51,1315.00
             1629.32,1310.85 1638.40,1302.60 1642.00,1299.00
             1653.33,1287.67 1657.99,1282.33 1668.00,1270.00
             1668.00,1270.00 1656.00,1271.00 1656.00,1271.00
             1656.00,1271.00 1633.00,1271.00 1633.00,1271.00
             1630.88,1271.00 1627.26,1271.23 1625.51,1269.98
             1623.38,1268.46 1623.22,1265.35 1622.87,1263.00
             1622.87,1263.00 1620.13,1249.00 1620.13,1249.00
             1614.15,1225.07 1605.12,1203.51 1591.26,1183.00
             1563.26,1141.59 1524.25,1109.68 1488.00,1075.91
             1488.00,1075.91 1466.00,1054.00 1466.00,1054.00
             1456.07,1044.07 1432.82,1020.59 1425.67,1010.00
             1419.05,1000.20 1415.46,993.09 1411.44,982.00
             1411.44,982.00 1408.00,972.00 1408.00,972.00
             1408.21,981.80 1409.87,1001.03 1413.09,1010.00
             1417.22,1021.52 1430.11,1038.99 1437.63,1049.00
             1452.36,1068.61 1469.10,1087.29 1486.04,1105.00
             1486.04,1105.00 1507.96,1127.00 1507.96,1127.00
             1543.64,1164.31 1580.81,1203.17 1593.12,1255.00
             1598.15,1276.21 1597.03,1290.67 1597.00,1312.00
             1596.97,1333.77 1590.76,1368.92 1584.71,1390.00
             1582.67,1397.08 1578.81,1411.94 1574.00,1417.00
             1574.00,1417.00 1567.13,1398.00 1567.13,1398.00
             1561.89,1385.78 1553.07,1372.61 1543.83,1363.09
             1524.33,1343.00 1490.56,1326.22 1465.00,1314.70
             1465.00,1314.70 1321.00,1254.31 1321.00,1254.31
             1296.01,1242.84 1271.94,1228.50 1251.00,1210.57
             1251.00,1210.57 1234.00,1194.00 1234.00,1194.00
             1225.99,1185.97 1208.91,1166.23 1205.00,1156.00
             1210.99,1154.57 1225.12,1157.86 1232.00,1158.72
             1232.00,1158.72 1271.00,1162.09 1271.00,1162.09
             1271.00,1162.09 1282.00,1163.00 1282.00,1163.00
             1282.00,1163.00 1334.00,1163.00 1334.00,1163.00
             1334.00,1163.00 1346.00,1162.09 1346.00,1162.09
             1346.00,1162.09 1371.00,1160.16 1371.00,1160.16
             1379.93,1159.21 1398.04,1157.44 1406.00,1155.00
             1406.00,1155.00 1389.00,1154.00 1389.00,1154.00
             1389.00,1154.00 1374.00,1153.00 1374.00,1153.00
             1374.00,1153.00 1365.00,1153.00 1365.00,1153.00
             1365.00,1153.00 1335.00,1150.17 1335.00,1150.17
             1303.34,1147.10 1271.06,1143.26 1240.00,1136.12
             1240.00,1136.12 1204.00,1127.37 1204.00,1127.37
             1199.76,1126.30 1189.25,1124.03 1186.21,1121.49
             1182.93,1118.75 1180.40,1111.13 1178.81,1107.00
             1178.81,1107.00 1170.88,1081.00 1170.88,1081.00
             1170.88,1081.00 1167.00,1065.00 1167.00,1065.00
             1167.00,1065.00 1166.00,1085.00 1166.00,1085.00
             1166.00,1085.00 1167.00,1116.00 1167.00,1116.00
             1167.00,1116.00 1095.00,1095.31 1095.00,1095.31
             1095.00,1095.31 1051.00,1078.00 1051.00,1078.00
             1051.00,1078.00 1067.58,1108.00 1067.58,1108.00
             1069.52,1111.14 1072.49,1117.12 1075.21,1119.19
             1078.92,1121.99 1091.01,1125.04 1096.00,1126.67
             1096.00,1126.67 1150.00,1142.12 1150.00,1142.12
             1154.42,1143.28 1171.05,1146.82 1173.73,1148.85
             1176.53,1150.98 1177.49,1155.78 1178.87,1159.00
             1181.54,1165.23 1185.85,1173.22 1189.42,1179.00
             1202.39,1199.94 1216.98,1217.13 1235.00,1233.91
             1260.38,1257.55 1293.65,1275.34 1325.00,1289.69
             1325.00,1289.69 1372.00,1310.00 1372.00,1310.00
             1367.00,1315.28 1355.09,1317.61 1348.00,1319.37
             1336.94,1322.12 1325.37,1324.13 1314.00,1325.00
             1314.00,1325.00 1305.00,1325.00 1305.00,1325.00
             1305.00,1325.00 1296.00,1325.97 1296.00,1325.97
             1296.00,1325.97 1280.00,1325.00 1280.00,1325.00
             1257.61,1324.89 1232.46,1318.19 1211.00,1312.00
             1142.02,1292.11 1081.79,1251.63 1043.42,1190.00
             1038.27,1181.72 1031.23,1168.97 1027.60,1160.00
             1027.60,1160.00 1023.39,1148.00 1023.39,1148.00
             1018.53,1135.55 1015.03,1127.27 1011.88,1114.00
             1007.07,1093.71 1005.97,1072.75 1006.00,1052.00
             1006.01,1043.75 1008.18,1028.28 1009.80,1020.00
             1010.96,1014.08 1013.49,1006.91 1013.00,1001.00
             1013.00,1001.00 1000.72,1033.00 1000.72,1033.00
             992.72,1059.56 992.69,1067.85 993.00,1095.00
             993.00,1095.00 993.91,1105.00 993.91,1105.00
             993.91,1105.00 996.83,1140.00 996.83,1140.00
             996.83,1140.00 1011.16,1254.00 1011.16,1254.00
             1011.16,1254.00 1015.00,1297.00 1015.00,1297.00
             1015.00,1297.00 1016.00,1312.00 1016.00,1312.00
             1016.60,1363.49 1006.77,1412.44 976.29,1455.00
             966.94,1468.07 952.89,1482.78 940.00,1492.37
             924.02,1504.26 903.89,1515.56 885.00,1522.00
             862.24,1529.75 846.01,1533.44 822.00,1535.09
             822.00,1535.09 810.00,1536.00 810.00,1536.00
             803.28,1536.01 779.30,1535.51 774.00,1534.00
             774.00,1534.00 786.74,1512.00 786.74,1512.00
             795.87,1494.19 803.90,1472.20 804.00,1452.00
             804.00,1452.00 804.00,1441.00 804.00,1441.00
             803.94,1400.89 777.28,1356.42 755.67,1324.00
             755.67,1324.00 696.28,1239.00 696.28,1239.00
             680.42,1216.30 669.97,1198.84 657.76,1174.00
             654.58,1167.55 651.62,1159.83 649.33,1153.00
             648.61,1150.85 646.49,1144.99 646.47,1143.05
             646.41,1138.30 653.46,1136.72 657.00,1135.14
             657.00,1135.14 690.90,1118.37 690.90,1118.37
             695.32,1114.85 696.63,1109.12 698.33,1104.00
             698.33,1104.00 707.00,1077.00 707.00,1077.00
             707.00,1077.00 641.00,1112.00 641.00,1112.00
             637.81,1105.12 639.54,1102.96 638.72,1096.00
             636.99,1081.39 636.83,1066.72 637.00,1052.00
             637.16,1038.49 641.04,1017.38 644.12,1004.00
             650.10,977.99 652.96,967.10 663.00,942.00
             646.33,961.41 637.01,982.00 629.00,1006.00
             621.54,1028.35 613.04,1063.62 613.00,1087.00
             613.00,1087.00 613.00,1102.00 613.00,1102.00
             613.00,1102.00 614.13,1118.00 614.13,1118.00
             614.61,1120.69 615.54,1124.15 614.13,1126.61
             612.44,1129.03 598.44,1135.11 595.00,1136.69
             584.80,1141.38 548.35,1156.81 539.00,1159.00
             535.44,1149.23 535.61,1138.24 534.91,1128.00
             534.91,1128.00 534.00,1118.00 534.00,1118.00
             534.00,1118.00 534.00,1093.00 534.00,1093.00
             534.00,1093.00 534.97,1081.00 534.97,1081.00
             534.97,1081.00 534.97,1070.00 534.97,1070.00
             535.11,1060.75 537.59,1051.13 534.97,1042.00
             534.97,1042.00 527.43,1063.00 527.43,1063.00
             527.43,1063.00 518.66,1093.00 518.66,1093.00
             514.53,1112.70 515.04,1139.66 515.00,1160.00
             515.00,1162.14 515.23,1165.71 513.98,1167.49
             512.50,1169.60 501.97,1172.86 499.00,1173.95
             499.00,1173.95 453.00,1189.00 453.00,1189.00
             453.00,1189.00 499.00,1182.25 499.00,1182.25
             502.28,1181.70 512.97,1179.15 515.40,1181.03
             517.14,1182.36 517.27,1186.86 517.58,1189.00
             517.58,1189.00 521.21,1210.00 521.21,1210.00
             524.32,1224.68 530.40,1244.50 536.78,1258.00
             536.78,1258.00 545.58,1275.00 545.58,1275.00
             545.58,1275.00 551.02,1284.94 551.02,1284.94
             552.17,1289.72 545.92,1288.99 543.00,1289.00
             543.00,1289.00 524.00,1289.00 524.00,1289.00
             465.94,1288.32 413.11,1233.71 394.69,1182.00
             389.98,1168.78 387.09,1158.97 385.13,1145.00
             385.13,1145.00 382.00,1118.00 382.00,1118.00
             382.00,1118.00 377.00,1155.00 377.00,1155.00
             376.65,1184.85 390.23,1220.01 406.05,1245.00
             406.05,1245.00 417.21,1261.00 417.21,1261.00
             417.21,1261.00 429.00,1276.00 429.00,1276.00
             422.57,1279.00 414.06,1279.44 407.00,1281.43
             395.99,1284.53 385.59,1287.98 374.00,1288.00
             374.00,1288.00 345.00,1288.00 345.00,1288.00
             327.76,1287.97 305.38,1282.46 289.00,1277.00
             289.00,1277.00 297.78,1297.00 297.78,1297.00
             297.78,1297.00 316.00,1328.00 316.00,1328.00
             316.00,1328.00 341.00,1362.00 341.00,1362.00
             321.48,1367.97 304.98,1360.83 287.00,1360.00
             305.06,1401.93 336.60,1436.63 375.00,1460.95
             375.00,1460.95 410.00,1480.00 410.00,1480.00
             413.00,1481.30 424.52,1486.21 425.98,1488.41
             427.22,1490.30 427.00,1493.78 427.00,1496.00
             427.00,1496.00 427.00,1529.00 427.00,1529.00
             427.00,1529.00 427.91,1539.00 427.91,1539.00
             427.91,1539.00 431.00,1575.00 431.00,1575.00
             431.41,1577.98 433.63,1589.32 431.96,1591.36
             430.13,1593.61 425.18,1591.39 423.00,1590.58
             423.00,1590.58 411.00,1586.03 411.00,1586.03
             411.00,1586.03 396.00,1581.67 396.00,1581.67
             354.77,1567.92 319.86,1540.33 293.65,1506.00
             262.94,1465.77 244.43,1415.38 240.91,1365.00
             240.91,1365.00 240.00,1353.00 240.00,1353.00
             240.00,1353.00 239.00,1333.00 239.00,1333.00
             238.98,1322.28 239.91,1306.94 237.00,1297.00
             237.00,1297.00 223.21,1342.00 223.21,1342.00
             214.95,1381.06 214.33,1421.42 218.17,1461.00
             220.60,1486.06 225.00,1512.59 231.13,1537.00
             231.13,1537.00 237.42,1560.00 237.42,1560.00
             238.95,1565.23 241.07,1568.49 240.00,1574.00
             234.57,1569.47 222.69,1552.57 218.00,1546.00
             204.88,1527.63 192.11,1509.10 181.74,1489.00
             173.60,1473.21 166.23,1456.94 160.74,1440.00
             151.29,1410.81 145.36,1379.69 145.00,1349.00
             145.00,1349.00 144.00,1336.00 144.00,1336.00
             144.00,1336.00 144.96,1324.00 144.96,1324.00
             144.96,1324.00 144.96,1312.00 144.96,1312.00
             145.18,1297.02 149.20,1272.01 152.20,1257.00
             160.40,1216.00 175.41,1172.79 195.31,1136.00
             209.67,1109.44 227.12,1084.91 246.73,1062.00
             264.96,1040.70 281.25,1021.01 304.00,1004.00
             304.00,1004.00 269.00,1007.00 269.00,1007.00
             269.00,1007.00 246.00,1007.00 246.00,1007.00
             225.44,1006.97 196.85,1001.70 177.00,996.00
             177.00,996.00 150.00,987.19 150.00,987.19
             145.10,985.33 141.82,984.77 138.00,981.00 Z
           M 1634.00,719.00
           C 1634.00,719.00 1633.00,719.00 1633.00,719.00
             1633.00,719.00 1634.00,720.00 1634.00,720.00
             1634.00,720.00 1634.00,719.00 1634.00,719.00 Z
           M 2007.00,937.00
           C 2007.00,937.00 2028.00,924.95 2028.00,924.95
             2043.33,915.19 2064.85,897.69 2076.57,884.00
             2084.66,874.56 2091.89,864.42 2098.66,854.00
             2102.03,848.80 2104.31,842.00 2110.00,839.00
             2112.35,847.01 2116.90,879.46 2117.04,888.00
             2117.04,888.00 2117.04,898.00 2117.04,898.00
             2117.04,898.00 2117.82,905.00 2117.82,905.00
             2117.82,905.00 2117.00,915.00 2117.00,915.00
             2116.62,947.59 2106.19,982.61 2081.00,1004.71
             2075.38,1009.65 2069.53,1014.33 2063.00,1018.00
             2063.00,1018.00 2054.22,998.00 2054.22,998.00
             2050.28,989.69 2042.94,978.33 2037.35,971.00
             2033.41,965.84 2024.53,955.43 2020.00,951.04
             2014.91,946.12 2010.13,943.63 2007.00,937.00 Z
           M 664.00,940.00
           C 664.00,940.00 663.00,940.00 663.00,940.00
             663.00,940.00 664.00,941.00 664.00,941.00
             664.00,941.00 664.00,940.00 664.00,940.00 Z
           M 1993.00,962.00
           C 2000.22,967.17 2005.98,974.17 2011.58,981.00
             2029.97,1003.45 2041.34,1025.49 2041.00,1055.00
             2040.89,1063.99 2038.10,1076.85 2032.47,1083.99
             2028.79,1088.65 2012.52,1099.65 2007.00,1102.00
             2003.86,1095.34 2000.10,1088.49 2000.00,1081.00
             2000.00,1081.00 2000.95,1067.00 2000.95,1067.00
             2000.95,1067.00 2000.95,1049.00 2000.95,1049.00
             2000.95,1049.00 2000.00,1036.00 2000.00,1036.00
             2000.00,1036.00 1998.83,1013.00 1998.83,1013.00
             1998.83,1013.00 1994.87,980.00 1994.87,980.00
             1994.05,974.14 1992.11,967.88 1993.00,962.00 Z
           M 1051.00,1077.00
           C 1051.00,1077.00 1050.00,1077.00 1050.00,1077.00
             1050.00,1077.00 1051.00,1078.00 1051.00,1078.00
             1051.00,1078.00 1051.00,1077.00 1051.00,1077.00 Z
           M 1994.00,1136.00
           C 1998.35,1140.09 1999.08,1144.59 2001.20,1150.00
             2001.20,1150.00 2011.42,1177.00 2011.42,1177.00
             2024.37,1211.60 2036.29,1246.46 2046.42,1282.00
             2058.79,1325.40 2067.99,1369.95 2071.09,1415.00
             2071.09,1415.00 2072.00,1425.00 2072.00,1425.00
             2072.00,1425.00 2073.00,1447.00 2073.00,1447.00
             2073.00,1447.00 2073.00,1461.00 2073.00,1461.00
             2073.00,1461.00 2072.00,1479.00 2072.00,1479.00
             2071.75,1500.37 2064.25,1539.05 2058.42,1560.00
             2037.22,1636.27 1998.38,1699.31 1948.25,1760.00
             1929.41,1782.81 1909.92,1805.08 1889.00,1826.00
             1881.74,1833.26 1868.07,1848.28 1860.00,1853.00
             1859.37,1846.91 1865.63,1833.35 1867.95,1827.00
             1867.95,1827.00 1883.63,1775.00 1883.63,1775.00
             1893.80,1734.30 1898.15,1705.54 1902.17,1664.00
             1902.17,1664.00 1904.09,1637.00 1904.09,1637.00
             1904.09,1637.00 1905.00,1625.00 1905.00,1625.00
             1905.00,1625.00 1905.00,1611.00 1905.00,1611.00
             1905.00,1611.00 1906.00,1596.00 1906.00,1596.00
             1906.00,1596.00 1906.00,1441.00 1906.00,1441.00
             1906.00,1441.00 1905.04,1428.00 1905.04,1428.00
             1904.72,1419.84 1909.16,1405.52 1911.12,1397.00
             1914.17,1383.73 1916.14,1370.56 1917.09,1357.00
             1917.09,1357.00 1917.83,1347.00 1917.83,1347.00
             1917.83,1347.00 1917.83,1330.00 1917.83,1330.00
             1917.93,1324.58 1916.07,1317.03 1917.83,1312.00
             1917.83,1312.00 1934.20,1284.00 1934.20,1284.00
             1944.63,1266.59 1954.22,1248.44 1962.69,1230.00
             1971.29,1211.28 1978.80,1191.77 1984.58,1172.00
             1984.58,1172.00 1989.53,1154.00 1989.53,1154.00
             1989.53,1154.00 1994.00,1136.00 1994.00,1136.00 Z
           M 750.00,1363.00
           C 733.20,1367.82 710.51,1361.59 694.00,1356.86
             636.64,1340.42 588.14,1296.90 561.75,1244.00
             554.04,1228.53 548.80,1211.89 545.21,1195.00
             544.52,1191.75 541.89,1179.64 542.40,1177.06
             543.38,1172.08 552.80,1171.22 557.00,1170.12
             557.00,1170.12 603.00,1156.33 603.00,1156.33
             606.62,1155.13 617.37,1150.00 620.28,1152.64
             621.92,1154.13 624.71,1164.24 625.69,1167.00
             625.69,1167.00 638.31,1197.00 638.31,1197.00
             648.43,1219.04 671.78,1254.84 686.14,1275.00
             686.14,1275.00 703.90,1300.00 703.90,1300.00
             703.90,1300.00 723.00,1324.00 723.00,1324.00
             730.38,1333.30 745.42,1352.74 750.00,1363.00 Z
           M 1037.00,1232.00
           C 1037.00,1232.00 1062.17,1260.00 1062.17,1260.00
             1062.17,1260.00 1092.00,1286.00 1092.00,1286.00
             1092.00,1286.00 1092.00,1288.00 1092.00,1288.00
             1092.00,1288.00 1067.00,1300.42 1067.00,1300.42
             1067.00,1300.42 1044.00,1313.00 1044.00,1313.00
             1044.00,1313.00 1041.83,1282.00 1041.83,1282.00
             1041.83,1282.00 1038.72,1253.00 1038.72,1253.00
             1038.72,1253.00 1037.00,1232.00 1037.00,1232.00 Z
           M 239.00,1295.00
           C 239.00,1295.00 238.00,1295.00 238.00,1295.00
             238.00,1295.00 239.00,1296.00 239.00,1296.00
             239.00,1296.00 239.00,1295.00 239.00,1295.00 Z
           M 563.00,1823.00
           C 556.50,1819.20 552.27,1814.27 547.00,1809.00
             536.35,1798.35 528.94,1790.70 520.52,1778.00
             520.52,1778.00 513.11,1766.00 513.11,1766.00
             494.29,1738.42 484.79,1713.70 475.28,1682.00
             465.17,1648.32 457.49,1609.09 455.09,1574.00
             455.09,1574.00 454.00,1508.00 454.00,1508.00
             454.00,1508.00 456.91,1470.00 456.91,1470.00
             456.91,1470.00 458.09,1446.00 458.09,1446.00
             459.45,1426.10 462.25,1405.47 466.65,1386.00
             466.65,1386.00 473.67,1359.00 473.67,1359.00
             474.61,1356.11 475.95,1350.76 478.42,1348.98
             480.56,1347.44 496.74,1345.09 500.00,1345.01
             506.80,1344.85 512.97,1345.26 508.01,1354.00
             508.01,1354.00 501.67,1363.00 501.67,1363.00
             498.36,1367.91 495.02,1373.70 492.37,1379.00
             483.44,1396.85 477.24,1422.02 477.00,1442.00
             476.89,1451.69 478.93,1473.81 481.13,1483.00
             483.15,1491.44 487.90,1499.60 488.00,1507.00
             488.00,1507.00 488.00,1556.00 488.00,1556.00
             488.00,1556.00 489.00,1576.00 489.00,1576.00
             489.00,1576.00 489.91,1586.00 489.91,1586.00
             489.91,1586.00 491.83,1610.00 491.83,1610.00
             495.67,1648.38 502.56,1686.11 514.02,1723.00
             521.23,1746.18 531.76,1771.08 544.01,1792.00
             544.01,1792.00 556.63,1811.00 556.63,1811.00
             559.67,1815.09 563.00,1817.78 563.00,1823.00 Z
           M 534.01,1351.02
           C 540.77,1348.77 546.94,1351.73 553.00,1354.76
             563.37,1359.94 578.06,1369.72 587.00,1377.08
             597.73,1385.93 607.32,1395.33 616.25,1406.00
             619.03,1409.33 624.82,1416.15 626.29,1420.00
             628.03,1424.56 628.05,1432.09 628.00,1437.00
             627.70,1462.01 616.26,1496.14 597.00,1512.70
             587.18,1521.14 575.77,1525.62 563.00,1527.05
             559.54,1527.44 556.53,1528.11 553.00,1527.91
             550.42,1527.76 543.33,1526.72 541.00,1525.87
             526.57,1520.57 507.67,1499.45 502.55,1485.00
             499.99,1477.78 497.34,1458.78 497.34,1451.00
             497.34,1451.00 497.96,1444.00 497.96,1444.00
             499.10,1417.83 501.45,1399.22 515.01,1376.00
             519.64,1368.08 526.55,1356.21 534.01,1351.02 Z
           M 1163.00,1352.56
           C 1170.57,1352.47 1179.00,1358.16 1185.00,1362.45
             1204.37,1376.32 1217.71,1398.77 1218.00,1423.00
             1218.00,1423.00 1218.00,1430.00 1218.00,1430.00
             1217.95,1461.39 1196.62,1499.28 1175.00,1521.00
             1154.44,1541.66 1137.76,1552.34 1108.00,1552.00
             1087.34,1551.75 1071.33,1538.37 1060.19,1522.00
             1040.65,1493.27 1042.09,1458.05 1051.29,1426.00
             1051.29,1426.00 1059.27,1402.01 1059.27,1402.01
             1062.69,1395.79 1077.46,1388.29 1084.00,1384.70
             1102.84,1374.35 1142.43,1356.37 1163.00,1352.56 Z
           M 651.00,1376.00
           C 651.00,1376.00 672.00,1384.00 672.00,1384.00
             688.97,1389.72 729.68,1399.79 747.00,1400.00
             747.00,1400.00 758.00,1400.00 758.00,1400.00
             760.34,1400.00 763.74,1399.80 765.78,1401.02
             768.43,1402.62 769.39,1406.26 770.42,1409.00
             772.84,1415.40 774.90,1422.28 776.20,1429.00
             782.58,1462.05 773.62,1492.45 753.35,1519.00
             753.35,1519.00 739.91,1535.00 739.91,1535.00
             735.52,1539.71 730.77,1543.73 727.00,1549.00
             727.00,1549.00 743.00,1551.75 743.00,1551.75
             743.00,1551.75 773.00,1555.96 773.00,1555.96
             773.00,1555.96 782.00,1555.96 782.00,1555.96
             782.00,1555.96 794.00,1557.00 794.00,1557.00
             811.31,1557.03 828.88,1556.23 846.00,1553.58
             861.38,1551.19 886.17,1545.52 901.00,1540.98
             901.00,1540.98 924.00,1532.95 924.00,1532.95
             925.87,1532.54 926.26,1532.78 928.00,1532.95
             928.00,1532.95 921.84,1576.00 921.84,1576.00
             921.84,1576.00 917.00,1639.00 917.00,1639.00
             917.00,1639.00 916.00,1654.00 916.00,1654.00
             916.00,1654.00 916.00,1709.00 916.00,1709.00
             916.00,1709.00 917.00,1724.00 917.00,1724.00
             917.03,1745.57 922.07,1792.09 925.59,1814.00
             929.52,1838.47 933.10,1856.30 941.00,1880.00
             942.61,1884.83 947.36,1899.68 951.26,1902.40
             953.66,1903.80 962.01,1902.97 965.00,1902.40
             965.00,1902.40 994.00,1900.00 994.00,1900.00
             994.00,1900.00 1027.00,1899.00 1027.00,1899.00
             1027.00,1899.00 1042.00,1897.96 1042.00,1897.96
             1042.00,1897.96 1057.00,1897.96 1057.00,1897.96
             1057.00,1897.96 1069.00,1896.96 1069.00,1896.96
             1069.00,1896.96 1082.00,1896.96 1082.00,1896.96
             1082.00,1896.96 1093.00,1896.00 1093.00,1896.00
             1093.00,1896.00 1110.00,1896.00 1110.00,1896.00
             1110.00,1896.00 1127.00,1895.00 1127.00,1895.00
             1127.00,1895.00 1167.00,1895.00 1167.00,1895.00
             1167.00,1895.00 1190.00,1893.17 1190.00,1893.17
             1190.00,1893.17 1210.00,1891.83 1210.00,1891.83
             1210.00,1891.83 1267.00,1882.61 1267.00,1882.61
             1267.00,1882.61 1293.00,1878.54 1293.00,1878.54
             1293.00,1878.54 1328.00,1867.95 1328.00,1867.95
             1358.14,1856.90 1387.07,1837.77 1412.00,1817.80
             1419.92,1811.45 1440.29,1793.90 1446.58,1786.96
             1464.01,1767.72 1478.24,1745.62 1490.86,1723.00
             1490.86,1723.00 1508.94,1687.00 1508.94,1687.00
             1523.85,1648.03 1531.40,1601.42 1535.84,1560.00
             1538.23,1537.64 1539.89,1515.50 1540.00,1493.00
             1540.00,1493.00 1541.91,1471.00 1541.91,1471.00
             1542.18,1467.18 1542.18,1459.35 1544.02,1456.10
             1545.96,1452.69 1554.30,1448.96 1558.00,1447.00
             1562.98,1458.71 1560.70,1465.54 1563.00,1475.00
             1563.00,1475.00 1583.40,1446.00 1583.40,1446.00
             1583.40,1446.00 1596.00,1427.00 1596.00,1427.00
             1601.77,1437.41 1607.91,1454.49 1611.67,1466.00
             1616.56,1480.99 1618.98,1489.09 1620.09,1505.00
             1620.33,1508.44 1621.07,1510.40 1620.82,1514.00
             1617.88,1555.40 1606.15,1581.02 1581.37,1614.00
             1574.00,1623.81 1559.51,1640.80 1550.00,1648.00
             1559.27,1650.25 1584.50,1650.12 1595.00,1650.00
             1595.00,1650.00 1605.00,1648.96 1605.00,1648.96
             1605.00,1648.96 1614.00,1648.96 1614.00,1648.96
             1632.47,1647.07 1650.90,1644.50 1669.00,1640.35
             1669.00,1640.35 1697.00,1633.00 1697.00,1633.00
             1697.94,1638.26 1693.79,1647.62 1692.00,1653.00
             1692.00,1653.00 1676.20,1698.00 1676.20,1698.00
             1649.72,1764.20 1615.09,1817.95 1571.42,1874.00
             1517.37,1943.38 1456.91,2007.63 1399.28,2074.00
             1399.28,2074.00 1352.00,2131.00 1352.00,2131.00
             1352.00,2131.00 1339.65,2147.00 1339.65,2147.00
             1337.56,2149.72 1334.83,2154.01 1331.83,2155.57
             1331.83,2155.57 1301.00,2161.08 1301.00,2161.08
             1301.00,2161.08 1227.00,2172.27 1227.00,2172.27
             1227.00,2172.27 990.00,2207.25 990.00,2207.25
             990.00,2207.25 878.00,2228.20 878.00,2228.20
             859.56,2231.89 820.46,2239.79 803.00,2240.00
             803.00,2240.00 797.00,2240.00 797.00,2240.00
             791.68,2239.93 767.98,2234.35 762.00,2232.56
             762.00,2232.56 748.00,2227.80 748.00,2227.80
             719.70,2221.09 703.30,2214.27 679.00,2198.00
             672.34,2193.54 659.87,2184.88 655.00,2179.00
             660.12,2178.27 663.94,2179.95 669.00,2180.73
             669.00,2180.73 691.00,2182.96 691.00,2182.96
             706.58,2183.64 731.18,2178.78 746.00,2173.66
             761.51,2168.29 777.87,2159.94 791.00,2150.11
             791.00,2150.11 806.00,2137.58 806.00,2137.58
             807.66,2136.15 811.08,2132.87 813.00,2132.24
             816.39,2131.14 827.21,2138.44 831.00,2140.22
             845.07,2146.82 867.67,2153.16 873.95,2133.00
             875.11,2129.27 874.99,2126.81 875.00,2123.00
             875.00,2123.00 875.00,2109.00 875.00,2109.00
             874.86,2097.11 869.87,2073.98 866.87,2062.00
             866.87,2062.00 859.24,2032.00 859.24,2032.00
             859.24,2032.00 854.20,2021.00 854.20,2021.00
             854.20,2021.00 846.03,2001.00 846.03,2001.00
             846.03,2001.00 823.00,1966.00 823.00,1966.00
             827.77,1989.72 829.04,1984.81 829.00,2011.00
             829.00,2011.00 828.09,2023.00 828.09,2023.00
             825.73,2057.33 816.33,2086.02 792.83,2112.00
             768.67,2138.72 732.28,2152.62 697.00,2155.09
             697.00,2155.09 685.00,2155.99 685.00,2155.99
             676.69,2155.80 666.26,2154.45 658.00,2153.08
             646.87,2151.24 624.61,2144.94 615.00,2139.59
             608.03,2135.71 592.84,2116.11 586.92,2109.00
             561.94,2079.02 542.00,2053.24 534.00,2014.00
             529.12,1990.07 530.62,1959.94 542.32,1938.00
             547.76,1927.81 559.11,1914.75 568.00,1907.46
             589.33,1889.98 606.81,1888.09 628.00,1874.94
             632.28,1872.28 638.24,1868.16 641.83,1864.71
             653.45,1853.54 669.01,1830.28 674.56,1815.00
             678.22,1804.97 679.80,1794.43 681.80,1784.00
             681.80,1784.00 688.72,1744.00 688.72,1744.00
             688.72,1744.00 691.28,1719.00 691.28,1719.00
             691.28,1719.00 695.57,1692.00 695.57,1692.00
             695.57,1692.00 699.09,1658.00 699.09,1658.00
             699.09,1658.00 700.00,1648.00 700.00,1648.00
             700.00,1648.00 701.00,1629.00 701.00,1629.00
             701.00,1629.00 701.00,1595.00 701.00,1595.00
             701.00,1595.00 700.00,1577.00 700.00,1577.00
             700.00,1577.00 699.09,1566.00 699.09,1566.00
             696.90,1536.09 692.04,1506.20 685.12,1477.00
             680.90,1459.22 674.06,1434.83 667.40,1418.00
             667.40,1418.00 650.00,1377.00 650.00,1377.00
             650.00,1377.00 651.00,1376.00 651.00,1376.00 Z
           M 1016.00,1442.00
           C 1018.76,1445.91 1017.12,1448.31 1017.01,1453.00
             1016.84,1460.87 1018.85,1481.08 1020.45,1489.00
             1020.45,1489.00 1028.32,1515.00 1028.32,1515.00
             1028.32,1515.00 1027.00,1541.00 1027.00,1541.00
             1027.00,1541.00 1027.00,1578.00 1027.00,1578.00
             1027.00,1578.00 1028.00,1588.00 1028.00,1588.00
             1028.00,1588.00 1028.00,1596.00 1028.00,1596.00
             1029.45,1615.98 1033.26,1641.51 1037.88,1661.00
             1051.16,1717.00 1075.84,1771.97 1116.04,1814.00
             1127.82,1826.31 1140.36,1837.89 1154.00,1848.13
             1159.85,1852.52 1175.48,1862.54 1179.00,1867.00
             1179.00,1867.00 1126.00,1872.09 1126.00,1872.09
             1126.00,1872.09 1104.00,1874.04 1104.00,1874.04
             1104.00,1874.04 1094.00,1874.04 1094.00,1874.04
             1094.00,1874.04 1068.00,1876.00 1068.00,1876.00
             1068.00,1876.00 1004.00,1876.00 1004.00,1876.00
             1004.00,1876.00 983.00,1877.00 983.00,1877.00
             977.85,1877.01 967.40,1879.38 963.85,1875.44
             962.27,1873.68 960.59,1866.59 959.86,1864.00
             959.86,1864.00 952.60,1835.00 952.60,1835.00
             945.77,1801.04 941.27,1766.50 938.91,1732.00
             938.91,1732.00 937.96,1720.00 937.96,1720.00
             937.96,1720.00 937.96,1707.00 937.96,1707.00
             937.96,1707.00 937.00,1696.00 937.00,1696.00
             937.00,1696.00 937.00,1677.00 937.00,1677.00
             937.00,1677.00 938.00,1662.00 938.00,1662.00
             938.05,1631.03 941.86,1599.57 946.92,1569.00
             946.92,1569.00 954.35,1531.00 954.35,1531.00
             954.35,1531.00 958.65,1514.00 958.65,1514.00
             960.81,1509.26 965.31,1506.35 969.00,1502.91
             969.00,1502.91 984.83,1487.00 984.83,1487.00
             991.99,1479.07 1000.87,1467.17 1006.40,1458.00
             1006.40,1458.00 1016.00,1442.00 1016.00,1442.00 Z
           M 1879.00,1484.00
           C 1881.90,1488.00 1880.01,1494.08 1880.00,1499.00
             1880.00,1499.00 1879.00,1522.00 1879.00,1522.00
             1879.00,1522.00 1878.00,1563.00 1878.00,1563.00
             1878.00,1563.00 1877.04,1575.00 1877.04,1575.00
             1877.04,1575.00 1877.04,1589.00 1877.04,1589.00
             1877.04,1589.00 1876.04,1601.00 1876.04,1601.00
             1876.04,1601.00 1876.04,1613.00 1876.04,1613.00
             1876.04,1613.00 1875.00,1626.00 1875.00,1626.00
             1875.00,1626.00 1871.16,1673.00 1871.16,1673.00
             1866.21,1719.32 1855.94,1769.08 1840.31,1813.00
             1800.45,1925.01 1734.69,2026.19 1677.70,2130.00
             1677.70,2130.00 1659.31,2162.00 1659.31,2162.00
             1659.31,2162.00 1644.25,2192.00 1644.25,2192.00
             1622.06,2236.37 1589.44,2305.16 1576.42,2352.00
             1576.42,2352.00 1567.37,2387.00 1567.37,2387.00
             1566.70,2389.69 1564.32,2400.89 1563.02,2402.40
             1561.30,2404.39 1557.40,2404.00 1555.00,2404.00
             1555.00,2404.00 1269.00,2404.00 1269.00,2404.00
             1269.00,2404.00 1267.04,2391.00 1267.04,2391.00
             1267.04,2391.00 1269.73,2362.00 1269.73,2362.00
             1272.92,2339.67 1276.85,2322.44 1284.00,2301.00
             1289.58,2284.27 1297.18,2265.65 1305.26,2250.00
             1337.61,2187.31 1402.35,2115.17 1449.84,2062.00
             1519.62,1983.85 1613.34,1882.23 1662.69,1791.00
             1682.91,1753.62 1696.48,1721.61 1708.98,1681.00
             1708.98,1681.00 1719.13,1641.00 1719.13,1641.00
             1720.06,1637.26 1721.95,1626.80 1723.85,1624.27
             1725.87,1621.58 1730.92,1619.92 1734.00,1618.58
             1734.00,1618.58 1750.00,1610.74 1750.00,1610.74
             1765.62,1602.68 1780.29,1592.52 1794.00,1581.55
             1813.25,1566.15 1836.28,1542.54 1851.35,1523.00
             1851.35,1523.00 1865.33,1504.00 1865.33,1504.00
             1865.33,1504.00 1879.00,1484.00 1879.00,1484.00 Z
           M 1265.00,1518.44
           C 1292.09,1514.97 1318.43,1531.17 1316.49,1561.00
             1314.48,1591.88 1282.73,1619.85 1252.00,1620.00
             1252.00,1620.00 1246.00,1620.00 1246.00,1620.00
             1222.93,1619.72 1214.47,1600.10 1214.01,1580.00
             1213.56,1560.12 1225.53,1538.07 1242.00,1527.10
             1249.00,1522.44 1256.82,1519.95 1265.00,1518.44 Z
           M 516.00,1536.00
           C 523.80,1539.80 529.30,1544.14 538.00,1547.31
             538.00,1547.31 556.69,1552.51 556.69,1552.51
             559.15,1553.95 558.95,1556.48 559.00,1559.00
             559.00,1559.00 559.00,1581.00 559.00,1581.00
             559.00,1581.00 559.96,1592.00 559.96,1592.00
             561.28,1622.22 565.60,1652.84 573.86,1682.00
             578.38,1697.96 584.64,1716.81 593.20,1731.00
             602.37,1746.18 611.77,1759.42 629.00,1765.94
             633.28,1767.55 638.42,1768.77 643.00,1768.09
             648.41,1767.29 652.32,1763.47 657.00,1761.00
             658.82,1767.42 657.08,1774.55 655.80,1781.00
             653.22,1793.97 647.60,1815.35 640.09,1826.00
             637.80,1829.25 630.16,1839.32 626.91,1840.66
             625.12,1841.50 623.77,1841.22 622.00,1840.66
             619.79,1839.85 615.13,1837.09 613.00,1835.80
             594.38,1824.49 580.06,1806.37 568.81,1788.00
             538.19,1738.02 524.62,1665.84 518.83,1608.00
             518.83,1608.00 516.91,1583.00 516.91,1583.00
             516.91,1583.00 516.00,1571.00 516.00,1571.00
             515.98,1560.92 513.36,1545.30 516.00,1536.00 Z
           M 1057.00,1554.00
           C 1057.00,1554.00 1073.00,1565.91 1073.00,1565.91
             1083.70,1572.77 1099.24,1577.85 1112.00,1578.00
             1119.93,1578.09 1123.08,1578.03 1131.00,1576.72
             1133.28,1576.34 1137.49,1574.89 1139.49,1576.11
             1141.97,1577.63 1141.94,1582.41 1142.28,1585.00
             1142.28,1585.00 1146.40,1610.00 1146.40,1610.00
             1151.70,1636.47 1162.17,1669.54 1175.42,1693.00
             1185.29,1710.45 1198.29,1730.18 1213.01,1743.83
             1223.64,1753.68 1235.23,1762.77 1248.00,1769.69
             1288.69,1791.75 1335.97,1792.72 1379.00,1776.95
             1392.09,1772.15 1406.67,1765.06 1418.00,1756.96
             1418.00,1756.96 1428.00,1749.00 1428.00,1749.00
             1428.07,1754.43 1423.78,1758.87 1420.58,1763.00
             1412.79,1773.03 1403.64,1783.17 1394.00,1791.42
             1364.35,1816.82 1328.98,1833.20 1293.00,1847.60
             1278.87,1853.26 1270.85,1854.60 1256.00,1857.08
             1251.26,1857.87 1244.62,1859.43 1240.00,1858.68
             1234.39,1857.77 1221.39,1851.94 1216.00,1849.25
             1199.34,1840.94 1184.51,1832.17 1170.00,1820.39
             1109.85,1771.59 1079.35,1710.75 1064.40,1636.00
             1060.49,1616.45 1057.23,1590.85 1057.00,1571.00
             1056.91,1563.97 1054.98,1561.10 1057.00,1554.00 Z
           M 612.00,1558.53
           C 615.05,1558.03 616.91,1557.94 620.00,1558.01
             624.78,1558.13 626.62,1558.82 631.00,1560.60
             634.58,1562.06 637.97,1563.64 640.82,1566.33
             655.89,1580.52 645.85,1609.78 619.00,1615.70
             616.16,1616.09 610.94,1616.13 608.00,1615.70
             590.75,1614.64 583.78,1598.33 587.93,1583.00
             590.91,1571.98 601.13,1561.77 612.00,1558.53 Z
           M 281.00,2404.00
           C 281.00,2404.00 278.00,2371.00 278.00,2371.00
             277.65,2340.88 284.14,2294.16 289.58,2264.00
             301.40,2198.44 319.18,2134.01 337.43,2070.00
             367.46,1964.64 406.72,1841.58 408.00,1732.00
             408.00,1732.00 408.99,1717.00 408.99,1717.00
             408.99,1717.00 408.00,1703.00 408.00,1703.00
             407.97,1686.63 406.13,1667.27 403.87,1651.00
             403.87,1651.00 399.40,1626.00 399.40,1626.00
             398.96,1623.83 397.16,1617.04 397.77,1615.32
             398.85,1612.26 408.89,1614.03 412.00,1614.00
             412.00,1614.00 428.00,1612.12 428.00,1612.12
             430.00,1611.86 433.82,1611.08 435.57,1612.12
             437.51,1613.26 437.95,1615.99 438.40,1618.00
             438.40,1618.00 442.00,1634.00 442.00,1634.00
             442.00,1634.00 454.67,1678.00 454.67,1678.00
             454.67,1678.00 461.39,1698.00 461.39,1698.00
             461.90,1701.88 459.96,1705.44 458.69,1709.00
             458.69,1709.00 453.00,1726.00 453.00,1726.00
             447.60,1742.36 443.07,1762.94 440.42,1780.00
             431.31,1838.72 435.37,1894.20 453.02,1951.00
             459.32,1971.26 465.84,1985.92 477.06,2004.00
             477.06,2004.00 500.91,2039.00 500.91,2039.00
             504.97,2045.36 504.33,2047.20 507.10,2052.00
             507.10,2052.00 527.48,2083.00 527.48,2083.00
             527.48,2083.00 557.61,2123.00 557.61,2123.00
             560.39,2126.42 568.86,2135.05 569.04,2139.00
             569.15,2141.25 567.09,2145.78 566.20,2148.00
             566.20,2148.00 559.69,2165.00 559.69,2165.00
             559.69,2165.00 539.88,2228.00 539.88,2228.00
             531.27,2260.78 525.20,2294.29 521.83,2328.00
             521.83,2328.00 519.91,2352.00 519.91,2352.00
             519.91,2352.00 519.00,2364.00 519.00,2364.00
             519.00,2364.00 519.00,2404.00 519.00,2404.00
             519.00,2404.00 281.00,2404.00 281.00,2404.00 Z
           M 474.00,1739.00
           C 477.85,1743.47 479.30,1751.38 481.42,1757.00
             485.28,1767.21 489.94,1776.82 495.86,1786.00
             507.14,1803.50 513.70,1807.68 527.96,1821.17
             537.22,1829.93 542.91,1838.60 554.00,1847.33
             561.68,1853.38 571.86,1859.71 581.00,1863.19
             581.00,1863.19 592.00,1867.00 592.00,1867.00
             590.73,1868.29 590.61,1868.67 588.89,1869.59
             588.89,1869.59 564.00,1879.42 564.00,1879.42
             550.26,1885.42 537.35,1895.08 528.24,1907.00
             518.00,1920.39 511.95,1935.77 507.89,1952.00
             507.89,1952.00 504.29,1974.96 504.29,1974.96
             503.67,1977.09 503.31,1977.36 502.00,1979.00
             484.97,1952.83 472.38,1912.82 467.25,1882.00
             465.35,1870.61 463.02,1853.35 463.00,1842.00
             463.00,1842.00 463.00,1814.00 463.00,1814.00
             463.02,1800.86 466.57,1774.21 469.20,1761.00
             469.20,1761.00 474.00,1739.00 474.00,1739.00 Z
           M 1996.00,1748.00
           C 1996.49,1748.73 1996.88,1748.65 1997.29,1750.22
             1998.00,1752.95 1994.56,1769.22 1993.80,1773.00
             1993.80,1773.00 1978.00,1841.00 1978.00,1841.00
             1964.96,1886.40 1949.05,1929.32 1916.83,1965.00
             1890.40,1994.26 1854.01,2015.74 1819.00,2033.25
             1819.00,2033.25 1771.00,2056.00 1771.00,2056.00
             1764.81,2058.67 1757.86,2063.87 1751.00,2063.00
             1751.00,2063.00 1770.15,2029.00 1770.15,2029.00
             1770.15,2029.00 1800.69,1974.00 1800.69,1974.00
             1800.69,1974.00 1821.14,1935.00 1821.14,1935.00
             1821.14,1935.00 1829.39,1920.01 1829.39,1920.01
             1829.39,1920.01 1857.00,1895.85 1857.00,1895.85
             1857.00,1895.85 1907.00,1849.96 1907.00,1849.96
             1907.00,1849.96 1924.04,1832.00 1924.04,1832.00
             1924.04,1832.00 1970.58,1780.00 1970.58,1780.00
             1970.58,1780.00 1996.00,1748.00 1996.00,1748.00 Z
           M 697.00,2026.00
           C 723.08,2025.41 740.61,1987.85 724.78,1967.10
             720.84,1961.94 713.23,1959.80 708.51,1965.23
             705.87,1968.26 705.11,1973.12 705.01,1977.00
             704.75,1988.05 707.64,1988.68 707.87,1995.00
             708.09,2001.00 704.78,2012.69 701.96,2018.00
             701.96,2018.00 697.00,2026.00 697.00,2026.00 Z
           M 823.00,1965.00
           C 823.00,1965.00 822.00,1965.00 822.00,1965.00
             822.00,1965.00 823.00,1966.00 823.00,1966.00
             823.00,1966.00 823.00,1965.00 823.00,1965.00 Z
           M 846.00,2071.00
           C 849.32,2075.15 849.36,2080.91 850.25,2086.00
             851.83,2095.13 857.27,2114.91 855.00,2123.00
             855.00,2123.00 835.00,2117.67 835.00,2117.67
             832.94,2116.97 829.15,2115.95 828.29,2113.73
             827.26,2111.02 831.84,2104.61 833.22,2102.00
             833.22,2102.00 846.00,2071.00 846.00,2071.00 Z
           M 834.00,2404.00
           C 834.00,2404.00 850.69,2369.00 850.69,2369.00
             859.75,2349.27 870.02,2322.77 876.28,2302.00
             876.28,2302.00 886.27,2267.00 886.27,2267.00
             887.13,2263.71 888.47,2254.70 890.58,2252.58
             892.43,2250.73 896.49,2250.35 899.00,2249.92
             899.00,2249.92 916.00,2247.00 916.00,2247.00
             916.00,2247.00 991.00,2234.87 991.00,2234.87
             991.00,2234.87 1049.00,2226.27 1049.00,2226.27
             1049.00,2226.27 1215.00,2202.73 1215.00,2202.73
             1215.00,2202.73 1279.00,2192.59 1279.00,2192.59
             1286.72,2191.29 1302.00,2187.17 1309.00,2189.00
             1306.62,2195.46 1301.73,2201.78 1298.30,2208.00
             1298.30,2208.00 1280.26,2243.00 1280.26,2243.00
             1262.29,2280.11 1248.31,2319.32 1241.25,2360.00
             1241.25,2360.00 1237.87,2379.00 1237.87,2379.00
             1236.38,2383.06 1231.75,2389.33 1229.14,2393.00
             1221.35,2403.94 1223.10,2403.98 1214.00,2404.00
             1214.00,2404.00 834.00,2404.00 834.00,2404.00 Z" />
</svg>
