<?xml version="1.0" encoding="UTF-8" standalone="no"?>
<!DOCTYPE svg PUBLIC "-//W3C//DTD SVG 20010904//EN"
              "http://www.w3.org/TR/2001/REC-SVG-20010904/DTD/svg10.dtd">

<svg xmlns="http://www.w3.org/2000/svg"
     width="8.25in" height="8.25in"
     viewBox="0 0 2475 2475">
  <path id="Selection #1"
        fill="none" stroke="black" stroke-width="1"
        d="M 390.00,1738.00
           C 390.00,1738.00 313.00,1738.00 313.00,1738.00
             301.69,1737.98 301.36,1733.24 295.58,1724.00
             295.58,1724.00 278.85,1697.00 278.85,1697.00
             248.83,1644.70 232.86,1611.41 211.58,1555.00
             194.67,1510.18 180.57,1454.44 173.73,1407.00
             173.73,1407.00 168.91,1362.00 168.91,1362.00
             168.91,1362.00 168.00,1352.00 168.00,1352.00
             168.00,1352.00 167.00,1332.00 167.00,1332.00
             167.00,1332.00 167.00,1296.00 167.00,1296.00
             167.00,1296.00 168.00,1281.00 168.00,1281.00
             168.24,1259.80 171.16,1234.11 174.27,1213.00
             182.36,1158.07 196.81,1109.42 217.40,1058.00
             234.90,1014.28 257.40,971.01 282.19,931.00
             282.19,931.00 297.00,908.00 297.00,908.00
             303.02,898.98 303.69,894.02 315.00,894.00
             315.00,894.00 391.00,894.00 391.00,894.00
             391.00,894.00 367.42,948.00 367.42,948.00
             340.21,1012.86 317.55,1075.14 302.42,1144.00
             295.77,1174.31 291.82,1205.17 288.83,1236.00
             288.83,1236.00 286.91,1262.00 286.91,1262.00
             286.91,1262.00 285.96,1272.00 285.96,1272.00
             285.96,1272.00 285.96,1284.00 285.96,1284.00
             285.96,1284.00 285.00,1296.00 285.00,1296.00
             285.00,1296.00 285.00,1337.00 285.00,1337.00
             285.00,1337.00 285.96,1349.00 285.96,1349.00
             285.96,1349.00 285.96,1360.00 285.96,1360.00
             285.96,1360.00 286.91,1370.00 286.91,1370.00
             286.91,1370.00 291.85,1422.00 291.85,1422.00
             298.64,1478.85 314.11,1543.52 331.74,1598.00
             344.02,1635.93 360.66,1672.62 376.86,1709.00
             376.86,1709.00 390.00,1738.00 390.00,1738.00 Z
           M 2083.00,894.00
           C 2083.00,894.00 2159.00,894.00 2159.00,894.00
             2170.31,894.02 2170.98,898.98 2177.00,908.00
             2177.00,908.00 2191.32,930.00 2191.32,930.00
             2216.37,969.73 2238.55,1012.38 2256.00,1056.00
             2277.09,1108.73 2292.15,1159.68 2300.27,1216.00
             2300.27,1216.00 2305.09,1262.00 2305.09,1262.00
             2305.09,1262.00 2306.00,1272.00 2306.00,1272.00
             2306.00,1272.00 2307.00,1292.00 2307.00,1292.00
             2307.00,1292.00 2307.00,1325.00 2307.00,1325.00
             2307.00,1325.00 2306.00,1345.00 2306.00,1345.00
             2306.00,1345.00 2305.09,1355.00 2305.09,1355.00
             2305.09,1355.00 2299.27,1407.00 2299.27,1407.00
             2292.12,1455.53 2280.16,1501.52 2264.67,1548.00
             2247.53,1599.40 2223.06,1648.12 2196.15,1695.00
             2196.15,1695.00 2177.69,1725.00 2177.69,1725.00
             2171.86,1734.06 2172.28,1737.98 2161.00,1738.00
             2161.00,1738.00 2084.00,1738.00 2084.00,1738.00
             2084.00,1738.00 2097.14,1709.00 2097.14,1709.00
             2114.22,1670.64 2131.49,1632.16 2143.98,1592.00
             2158.82,1544.25 2170.75,1491.42 2178.42,1442.00
             2182.10,1418.34 2184.46,1394.84 2186.09,1371.00
             2186.09,1371.00 2187.00,1360.00 2187.00,1360.00
             2187.00,1360.00 2188.00,1337.00 2188.00,1337.00
             2188.00,1337.00 2188.00,1297.00 2188.00,1297.00
             2188.00,1297.00 2187.04,1285.00 2187.04,1285.00
             2187.04,1285.00 2187.04,1272.00 2187.04,1272.00
             2187.04,1272.00 2186.09,1262.00 2186.09,1262.00
             2186.09,1262.00 2184.17,1236.00 2184.17,1236.00
             2181.18,1205.12 2177.25,1174.40 2170.79,1144.00
             2157.72,1082.49 2137.07,1023.16 2113.40,965.00
             2113.40,965.00 2083.00,894.00 2083.00,894.00 Z
           M 420.00,905.00
           C 420.00,905.00 565.00,905.00 565.00,905.00
             575.37,905.02 573.79,905.90 582.20,920.00
             582.20,920.00 608.20,964.00 608.20,964.00
             608.20,964.00 680.60,1087.00 680.60,1087.00
             680.60,1087.00 706.00,1130.00 706.00,1130.00
             706.00,1130.00 723.00,1160.00 723.00,1160.00
             723.00,1160.00 835.28,966.00 835.28,966.00
             835.28,966.00 861.28,921.00 861.28,921.00
             868.79,907.81 868.37,905.02 879.00,905.00
             879.00,905.00 1020.00,905.00 1020.00,905.00
             1020.00,905.00 1000.05,938.00 1000.05,938.00
             1000.05,938.00 959.69,1002.00 959.69,1002.00
             959.69,1002.00 846.32,1182.00 846.32,1182.00
             846.32,1182.00 802.31,1252.00 802.31,1252.00
             802.31,1252.00 785.70,1279.00 785.70,1279.00
             785.70,1279.00 785.00,1287.00 785.00,1287.00
             785.00,1287.00 785.00,1549.00 785.00,1549.00
             785.00,1549.00 654.83,1549.00 654.83,1549.00
             654.83,1549.00 654.83,1286.00 654.83,1286.00
             654.83,1286.00 654.83,1279.00 654.83,1279.00
             654.83,1279.00 638.32,1252.00 638.32,1252.00
             638.32,1252.00 594.05,1182.00 594.05,1182.00
             594.05,1182.00 477.95,998.00 477.95,998.00
             477.95,998.00 438.19,935.00 438.19,935.00
             438.19,935.00 420.00,905.00 420.00,905.00 Z
           M 1212.00,1072.21
           C 1212.00,1072.21 1239.00,1072.21 1239.00,1072.21
             1239.00,1072.21 1251.00,1072.91 1251.00,1072.91
             1275.20,1074.57 1299.20,1078.82 1322.00,1087.42
             1344.21,1095.80 1367.82,1109.19 1386.00,1124.44
             1410.48,1144.97 1431.31,1170.35 1445.63,1199.00
             1476.91,1261.55 1479.28,1348.18 1453.55,1413.00
             1434.82,1460.19 1399.49,1501.46 1356.00,1527.55
             1312.78,1553.48 1268.57,1560.58 1219.00,1560.00
             1219.00,1560.00 1210.00,1559.17 1210.00,1559.17
             1210.00,1559.17 1176.00,1554.60 1176.00,1554.60
             1128.65,1545.11 1079.84,1522.18 1047.17,1486.00
             1010.19,1445.06 992.35,1389.44 989.96,1335.00
             989.96,1335.00 989.00,1322.00 989.00,1322.00
             989.00,1322.00 989.00,1301.00 989.00,1301.00
             989.00,1301.00 989.91,1289.00 989.91,1289.00
             993.00,1246.69 1009.76,1199.52 1034.43,1165.00
             1063.63,1124.13 1104.80,1096.18 1153.00,1082.43
             1164.60,1079.12 1180.05,1075.81 1192.00,1074.28
             1192.00,1074.28 1212.00,1072.21 1212.00,1072.21 Z
           M 1566.00,1082.00
           C 1566.00,1082.00 1689.00,1082.00 1689.00,1082.00
             1689.00,1082.00 1689.00,1336.00 1689.00,1336.00
             1689.00,1336.00 1690.00,1351.00 1690.00,1351.00
             1690.00,1351.00 1691.83,1390.00 1691.83,1390.00
             1694.53,1417.90 1699.05,1439.11 1725.00,1455.18
             1730.65,1458.69 1736.58,1461.13 1743.00,1462.85
             1752.57,1465.40 1761.15,1466.11 1771.00,1466.00
             1811.85,1465.52 1853.54,1435.62 1862.34,1395.00
             1864.85,1383.41 1866.10,1370.82 1867.00,1359.00
             1867.00,1359.00 1867.00,1350.00 1867.00,1350.00
             1867.00,1350.00 1868.04,1339.00 1868.04,1339.00
             1868.04,1339.00 1868.04,1323.00 1868.04,1323.00
             1868.04,1323.00 1869.00,1311.00 1869.00,1311.00
             1869.00,1311.00 1869.00,1268.00 1869.00,1268.00
             1869.00,1268.00 1869.00,1082.00 1869.00,1082.00
             1869.00,1082.00 1992.00,1082.00 1992.00,1082.00
             1992.00,1082.00 1992.00,1549.00 1992.00,1549.00
             1992.00,1549.00 1877.00,1549.00 1877.00,1549.00
             1877.00,1549.00 1877.00,1504.00 1877.00,1504.00
             1877.00,1504.00 1876.00,1480.00 1876.00,1480.00
             1867.02,1497.45 1843.36,1517.47 1827.00,1528.33
             1814.60,1536.56 1799.04,1544.31 1785.00,1549.31
             1717.68,1573.26 1624.25,1558.28 1587.31,1491.00
             1563.03,1446.78 1566.00,1388.00 1566.00,1339.00
             1566.00,1339.00 1566.00,1082.00 1566.00,1082.00 Z
           M 1220.00,1173.28
           C 1205.42,1175.42 1196.63,1176.61 1183.00,1183.26
             1174.53,1187.39 1168.26,1191.64 1161.00,1197.61
             1131.54,1221.86 1119.60,1258.14 1116.91,1295.00
             1116.91,1295.00 1116.00,1307.00 1116.00,1307.00
             1116.00,1307.00 1116.00,1325.00 1116.00,1325.00
             1116.00,1325.00 1116.91,1337.00 1116.91,1337.00
             1119.76,1376.03 1132.28,1411.82 1164.00,1436.79
             1174.95,1445.41 1187.47,1451.91 1201.00,1455.37
             1208.04,1457.17 1217.77,1458.91 1225.00,1459.00
             1237.43,1459.14 1250.05,1458.38 1262.00,1454.65
             1271.69,1451.63 1280.52,1447.61 1289.00,1442.00
             1336.18,1410.74 1344.08,1359.13 1344.00,1307.00
             1343.98,1292.17 1340.57,1270.23 1336.28,1256.00
             1320.41,1203.29 1276.06,1168.07 1220.00,1173.28 Z" />
</svg>
