<?xml version="1.0" encoding="UTF-8" standalone="no"?>
<!DOCTYPE svg PUBLIC "-//W3C//DTD SVG 20010904//EN"
              "http://www.w3.org/TR/2001/REC-SVG-20010904/DTD/svg10.dtd">

<svg xmlns="http://www.w3.org/2000/svg"
     width="12in" height="12in"
     viewBox="0 0 3600 3600">
  <path id="1 - base"
        fill="none" stroke="black" stroke-width="1"
        d="M 2057.00,515.00
           C 2057.00,515.00 2045.26,498.00 2045.26,498.00
             2045.26,498.00 2028.34,465.00 2028.34,465.00
             2016.10,442.92 2002.50,421.23 2003.02,395.00
             2003.02,395.00 2004.04,386.00 2004.04,386.00
             2004.04,386.00 2004.04,378.00 2004.04,378.00
             2004.04,378.00 2005.71,370.00 2005.71,370.00
             2008.38,352.65 2010.90,342.67 2019.48,327.00
             2024.27,318.25 2036.30,302.93 2042.92,295.00
             2054.68,280.92 2067.94,268.11 2084.00,259.04
             2103.72,247.90 2125.00,242.79 2147.00,238.69
             2147.00,238.69 2172.00,235.91 2172.00,235.91
             2172.00,235.91 2180.00,235.04 2180.00,235.04
             2185.74,234.79 2187.65,235.31 2193.00,235.83
             2205.29,237.02 2211.52,237.86 2223.00,243.30
             2234.46,248.73 2240.78,254.86 2251.00,261.81
             2260.48,268.25 2266.01,270.23 2276.00,278.46
             2283.90,284.97 2291.69,295.75 2297.87,304.00
             2302.62,310.33 2309.77,319.79 2312.80,327.00
             2325.24,356.52 2306.69,383.35 2287.00,381.90
             2272.39,380.83 2271.39,368.32 2266.37,358.00
             2264.28,353.71 2259.21,347.48 2255.91,344.01
             2244.44,331.97 2228.70,329.23 2213.00,326.87
             2202.74,325.32 2205.61,324.86 2194.00,325.00
             2186.97,325.09 2176.93,328.18 2170.00,330.08
             2160.62,332.65 2148.37,336.09 2140.00,340.87
             2123.93,350.05 2104.80,375.02 2103.17,394.00
             2102.59,400.86 2106.02,413.41 2108.37,420.00
             2110.71,426.58 2112.96,433.46 2117.38,439.00
             2128.45,452.88 2154.67,463.79 2171.00,471.15
             2171.00,471.15 2231.00,496.93 2231.00,496.93
             2260.77,507.44 2288.63,514.10 2315.00,532.91
             2332.75,545.57 2348.54,561.62 2361.63,579.00
             2361.63,579.00 2373.80,596.17 2373.80,596.17
             2375.29,598.41 2377.43,602.75 2380.10,603.51
             2384.33,604.70 2395.02,595.64 2399.00,593.26
             2409.29,587.08 2425.94,581.14 2438.00,581.00
             2443.12,580.94 2450.17,580.66 2455.00,581.92
             2472.34,586.47 2478.72,601.14 2485.54,616.00
             2491.50,628.97 2496.98,642.52 2497.00,657.00
             2497.00,657.00 2497.00,709.00 2497.00,709.00
             2497.04,710.91 2496.98,712.94 2498.02,714.63
             2499.43,716.90 2515.55,727.54 2519.00,730.00
             2533.10,740.05 2570.86,768.14 2582.00,779.01
             2605.72,802.16 2611.88,812.61 2630.20,839.00
             2662.22,885.12 2684.33,925.44 2685.00,983.00
             2685.00,983.00 2685.97,995.00 2685.97,995.00
             2685.97,995.00 2685.00,1008.00 2685.00,1008.00
             2684.83,1043.97 2673.61,1086.71 2655.77,1118.00
             2645.79,1135.51 2632.93,1150.92 2620.87,1167.00
             2617.81,1171.09 2605.81,1187.11 2604.93,1191.00
             2604.41,1192.88 2604.97,1197.65 2604.93,1200.00
             2604.93,1200.00 2604.09,1216.00 2604.09,1216.00
             2606.02,1250.08 2623.72,1297.37 2647.30,1322.17
             2660.61,1336.17 2673.96,1343.98 2693.00,1347.42
             2696.63,1348.08 2700.28,1349.12 2704.00,1348.81
             2714.81,1347.92 2725.76,1343.79 2732.47,1335.00
             2737.33,1328.63 2739.54,1312.43 2751.00,1316.74
             2757.28,1319.11 2757.72,1325.32 2756.41,1331.00
             2756.41,1331.00 2752.07,1351.00 2752.07,1351.00
             2752.07,1351.00 2752.07,1358.00 2752.07,1358.00
             2751.09,1365.62 2749.07,1374.83 2746.41,1382.00
             2738.93,1402.19 2722.02,1430.40 2704.00,1442.48
             2688.82,1452.66 2665.22,1458.97 2647.00,1459.00
             2647.00,1459.00 2635.00,1459.00 2635.00,1459.00
             2635.00,1459.00 2649.54,1475.00 2649.54,1475.00
             2665.68,1494.66 2681.75,1518.47 2695.44,1540.00
             2716.37,1572.95 2732.82,1603.56 2741.50,1642.00
             2746.69,1664.97 2746.27,1688.57 2746.00,1712.00
             2746.00,1712.00 2744.96,1722.00 2744.96,1722.00
             2744.96,1722.00 2744.96,1732.00 2744.96,1732.00
             2744.96,1732.00 2743.28,1741.00 2743.28,1741.00
             2740.79,1758.56 2738.04,1771.66 2730.53,1788.00
             2722.05,1806.44 2703.24,1833.18 2703.00,1853.00
             2703.00,1853.00 2703.00,1859.00 2703.00,1859.00
             2703.13,1869.36 2706.89,1874.97 2715.09,1881.12
             2719.17,1884.17 2726.09,1888.10 2728.97,1892.17
             2732.37,1896.98 2731.76,1904.25 2725.96,1906.91
             2722.87,1908.33 2717.46,1908.04 2714.00,1908.00
             2694.46,1907.76 2672.34,1890.90 2657.00,1880.00
             2656.86,1895.31 2653.23,1910.14 2650.01,1925.00
             2642.69,1958.85 2636.21,1989.50 2611.93,2016.00
             2598.44,2030.72 2580.31,2047.13 2564.00,2058.56
             2547.64,2070.03 2541.10,2069.51 2529.20,2089.00
             2527.58,2091.66 2524.76,2096.15 2523.85,2099.00
             2521.77,2105.46 2525.46,2110.26 2524.96,2119.00
             2524.83,2121.09 2524.68,2123.37 2522.57,2124.43
             2520.30,2125.57 2514.54,2124.76 2512.00,2124.43
             2512.00,2124.43 2497.00,2123.10 2497.00,2123.10
             2497.00,2123.10 2488.00,2123.10 2488.00,2123.10
             2488.00,2123.10 2459.00,2120.91 2459.00,2120.91
             2459.00,2120.91 2405.00,2116.99 2405.00,2116.99
             2405.00,2116.99 2396.00,2116.09 2396.00,2116.09
             2396.00,2116.09 2368.00,2114.09 2368.00,2114.09
             2368.00,2114.09 2304.00,2109.91 2304.00,2109.91
             2304.00,2109.91 2276.00,2107.91 2276.00,2107.91
             2276.00,2107.91 2266.00,2107.00 2266.00,2107.00
             2266.00,2107.00 2255.00,2106.09 2255.00,2106.09
             2255.00,2106.09 2234.00,2104.91 2234.00,2104.91
             2230.72,2104.69 2225.31,2102.98 2222.74,2105.60
             2220.53,2107.85 2219.93,2121.20 2219.42,2125.00
             2219.42,2125.00 2213.00,2180.00 2213.00,2180.00
             2213.00,2180.00 2237.00,2180.00 2237.00,2180.00
             2237.00,2180.00 2254.00,2181.00 2254.00,2181.00
             2254.00,2181.00 2345.00,2181.00 2345.00,2181.00
             2345.00,2181.00 2360.00,2182.00 2360.00,2182.00
             2360.00,2182.00 2451.00,2182.00 2451.00,2182.00
             2451.00,2182.00 2466.00,2183.00 2466.00,2183.00
             2466.00,2183.00 2518.00,2183.00 2518.00,2183.00
             2518.00,2195.31 2515.65,2202.76 2510.67,2214.00
             2506.75,2222.83 2503.48,2222.97 2503.05,2229.01
             2502.21,2241.17 2511.11,2246.66 2522.00,2242.12
             2536.23,2236.20 2545.60,2226.68 2558.00,2219.26
             2569.07,2212.62 2584.11,2208.94 2597.00,2210.17
             2606.18,2211.04 2622.47,2213.00 2629.96,2218.25
             2634.81,2221.64 2639.16,2228.15 2635.11,2233.81
             2631.84,2238.39 2626.88,2238.18 2622.00,2239.22
             2616.86,2240.31 2611.65,2242.18 2608.00,2246.00
             2627.77,2246.45 2640.10,2265.83 2649.20,2281.00
             2652.57,2286.62 2658.10,2295.17 2660.34,2301.00
             2663.21,2308.50 2664.96,2318.97 2665.00,2327.00
             2665.00,2327.00 2665.96,2343.00 2665.96,2343.00
             2666.23,2351.41 2664.09,2364.06 2661.21,2372.00
             2654.85,2389.52 2637.03,2414.79 2625.63,2430.00
             2617.18,2441.26 2605.87,2452.14 2593.00,2458.18
             2584.43,2462.20 2577.50,2456.48 2578.62,2449.00
             2579.07,2446.00 2581.08,2442.50 2582.75,2440.00
             2588.96,2430.69 2605.72,2413.10 2591.91,2402.51
             2589.92,2400.98 2588.37,2400.61 2586.00,2400.09
             2586.00,2400.09 2575.00,2397.95 2575.00,2397.95
             2568.10,2397.15 2567.16,2396.92 2560.00,2397.00
             2547.75,2397.15 2538.52,2404.71 2528.96,2411.50
             2528.96,2411.50 2489.00,2436.18 2489.00,2436.18
             2489.00,2436.18 2466.00,2445.68 2466.00,2445.68
             2423.04,2461.55 2379.66,2464.18 2336.00,2449.07
             2320.21,2443.61 2302.41,2435.29 2290.00,2424.00
             2290.00,2424.00 2292.00,2456.00 2292.00,2456.00
             2292.00,2456.00 2293.04,2470.00 2293.04,2470.00
             2293.04,2470.00 2293.04,2480.00 2293.04,2480.00
             2293.04,2480.00 2294.91,2493.00 2294.91,2493.00
             2294.91,2493.00 2296.17,2515.00 2296.17,2515.00
             2296.17,2515.00 2297.83,2526.00 2297.83,2526.00
             2297.83,2526.00 2299.17,2547.00 2299.17,2547.00
             2299.17,2547.00 2300.83,2557.00 2300.83,2557.00
             2300.83,2557.00 2302.17,2575.00 2302.17,2575.00
             2302.17,2575.00 2303.83,2585.00 2303.83,2585.00
             2303.83,2585.00 2305.30,2603.00 2305.30,2603.00
             2305.30,2603.00 2308.00,2627.00 2308.00,2627.00
             2308.00,2627.00 2268.00,2629.91 2268.00,2629.91
             2268.00,2629.91 2176.00,2636.91 2176.00,2636.91
             2176.00,2636.91 2072.00,2644.91 2072.00,2644.91
             2072.00,2644.91 2019.00,2649.00 2019.00,2649.00
             2019.00,2649.00 2019.00,2635.00 2019.00,2635.00
             2019.00,2635.00 2018.00,2620.00 2018.00,2620.00
             2018.00,2620.00 2018.00,2527.00 2018.00,2527.00
             2018.00,2527.00 2019.00,2512.00 2019.00,2512.00
             2019.00,2512.00 2019.00,2481.00 2019.00,2481.00
             2019.14,2469.53 2023.57,2446.86 2020.00,2437.00
             2020.00,2437.00 2014.32,2472.00 2014.32,2472.00
             2014.32,2472.00 2003.83,2547.00 2003.83,2547.00
             2003.83,2547.00 2002.17,2557.00 2002.17,2557.00
             2002.17,2557.00 2000.83,2576.00 2000.83,2576.00
             2000.83,2576.00 1999.29,2585.00 1999.29,2585.00
             1999.29,2585.00 1998.00,2605.00 1998.00,2605.00
             1998.00,2605.00 1995.96,2631.00 1995.96,2631.00
             1995.96,2631.00 1995.96,2645.00 1995.96,2645.00
             1995.96,2645.00 1995.00,2657.00 1995.00,2657.00
             1995.00,2657.00 1995.00,2729.00 1995.00,2729.00
             1995.00,2729.00 2013.00,2729.00 2013.00,2729.00
             2015.62,2728.95 2018.46,2728.99 2020.22,2726.69
             2022.06,2724.29 2021.06,2719.04 2021.00,2716.00
             2021.00,2716.00 2042.00,2717.00 2042.00,2717.00
             2042.00,2717.00 2083.00,2717.00 2083.00,2717.00
             2083.00,2717.00 2100.00,2718.00 2100.00,2718.00
             2100.00,2718.00 2143.00,2718.00 2143.00,2718.00
             2143.00,2718.00 2160.00,2719.00 2160.00,2719.00
             2160.00,2719.00 2199.00,2719.00 2199.00,2719.00
             2199.00,2719.00 2216.00,2720.00 2216.00,2720.00
             2216.00,2720.00 2259.00,2720.00 2259.00,2720.00
             2259.00,2720.00 2276.00,2721.00 2276.00,2721.00
             2276.00,2721.00 2314.00,2721.00 2314.00,2721.00
             2315.94,2721.00 2319.72,2720.75 2321.26,2721.99
             2322.77,2723.21 2324.62,2734.50 2325.00,2737.00
             2325.00,2737.00 2330.64,2768.00 2330.64,2768.00
             2330.64,2768.00 2333.00,2781.00 2333.00,2781.00
             2333.00,2781.00 2335.28,2793.00 2335.28,2793.00
             2335.28,2793.00 2344.23,2835.00 2344.23,2835.00
             2355.29,2882.85 2367.97,2930.37 2383.51,2977.00
             2402.56,3034.13 2424.32,3091.55 2454.23,3144.00
             2454.23,3144.00 2479.44,3186.00 2479.44,3186.00
             2483.92,3193.07 2489.06,3200.03 2486.43,3208.99
             2485.00,3213.85 2480.02,3216.64 2476.00,3219.21
             2476.00,3219.21 2447.00,3235.74 2447.00,3235.74
             2435.82,3241.33 2424.04,3246.05 2412.00,3249.37
             2412.00,3249.37 2405.00,3250.52 2405.00,3250.52
             2405.00,3250.52 2397.00,3252.92 2397.00,3252.92
             2397.00,3252.92 2388.00,3252.92 2388.00,3252.92
             2388.00,3252.92 2365.00,3256.00 2365.00,3256.00
             2365.00,3256.00 2338.00,3256.00 2338.00,3256.00
             2338.00,3256.00 2310.00,3253.08 2310.00,3253.08
             2310.00,3253.08 2295.00,3253.08 2295.00,3253.08
             2295.00,3253.08 2264.00,3250.00 2264.00,3250.00
             2264.00,3250.00 2247.00,3250.00 2247.00,3250.00
             2247.00,3250.00 2218.00,3247.00 2218.00,3247.00
             2207.35,3246.95 2209.18,3246.09 2200.00,3244.46
             2200.00,3244.46 2192.00,3243.67 2192.00,3243.67
             2192.00,3243.67 2185.00,3241.61 2185.00,3241.61
             2185.00,3241.61 2177.00,3240.22 2177.00,3240.22
             2177.00,3240.22 2166.00,3237.37 2166.00,3237.37
             2166.00,3237.37 2160.00,3235.38 2160.00,3235.38
             2145.13,3232.07 2121.86,3229.49 2111.10,3217.98
             2104.68,3211.11 2106.90,3207.08 2104.57,3199.00
             2104.57,3199.00 2092.41,3155.00 2092.41,3155.00
             2080.95,3113.66 2071.52,3072.01 2062.64,3030.00
             2062.64,3030.00 2053.81,2985.00 2053.81,2985.00
             2053.81,2985.00 2051.73,2975.00 2051.73,2975.00
             2051.73,2975.00 2042.73,2924.00 2042.73,2924.00
             2042.09,2919.55 2041.51,2907.48 2037.70,2905.02
             2031.76,2901.19 2017.35,2907.98 2012.06,2911.26
             2007.13,2914.31 2008.99,2917.33 2009.71,2922.00
             2009.71,2922.00 2012.34,2941.00 2012.34,2941.00
             2012.34,2941.00 2017.32,2974.00 2017.32,2974.00
             2017.32,2974.00 2027.88,3029.00 2027.88,3029.00
             2027.88,3029.00 2038.36,3080.00 2038.36,3080.00
             2038.36,3080.00 2046.32,3113.00 2046.32,3113.00
             2046.32,3113.00 2052.32,3138.00 2052.32,3138.00
             2052.32,3138.00 2053.60,3145.00 2053.60,3145.00
             2053.60,3145.00 2062.34,3179.00 2062.34,3179.00
             2062.34,3179.00 2064.48,3186.00 2064.48,3186.00
             2064.48,3186.00 2065.60,3192.00 2065.60,3192.00
             2065.60,3192.00 2077.34,3235.00 2077.34,3235.00
             2077.34,3235.00 2082.37,3252.00 2082.37,3252.00
             2082.37,3252.00 2083.63,3258.00 2083.63,3258.00
             2083.63,3258.00 2092.48,3289.00 2092.48,3289.00
             2092.48,3289.00 2094.59,3295.00 2094.59,3295.00
             2095.18,3297.55 2096.91,3310.99 2096.29,3313.00
             2092.83,3324.21 2079.05,3333.45 2069.00,3338.23
             2060.75,3342.16 2051.78,3344.24 2043.00,3346.41
             2043.00,3346.41 2037.00,3348.51 2037.00,3348.51
             2037.00,3348.51 2031.00,3349.68 2031.00,3349.68
             2031.00,3349.68 2006.00,3357.37 2006.00,3357.37
             2006.00,3357.37 1999.00,3358.63 1999.00,3358.63
             1999.00,3358.63 1993.00,3360.61 1993.00,3360.61
             1993.00,3360.61 1982.00,3361.44 1982.00,3361.44
             1973.44,3362.79 1975.25,3363.98 1965.00,3363.88
             1965.00,3363.88 1915.00,3363.88 1915.00,3363.88
             1915.00,3363.88 1897.00,3363.88 1897.00,3363.88
             1897.00,3363.88 1889.00,3363.88 1889.00,3363.88
             1889.00,3363.88 1863.00,3363.00 1863.00,3363.00
             1863.00,3363.00 1841.00,3361.04 1841.00,3361.04
             1841.00,3361.04 1827.00,3361.04 1827.00,3361.04
             1814.67,3360.98 1815.69,3358.06 1804.00,3358.00
             1791.14,3357.94 1795.80,3356.79 1787.00,3355.32
             1787.00,3355.32 1777.00,3354.79 1777.00,3354.79
             1777.00,3354.79 1768.00,3352.47 1768.00,3352.47
             1768.00,3352.47 1759.00,3351.79 1759.00,3351.79
             1759.00,3351.79 1750.00,3349.47 1750.00,3349.47
             1750.00,3349.47 1741.00,3348.74 1741.00,3348.74
             1741.00,3348.74 1734.00,3346.55 1734.00,3346.55
             1734.00,3346.55 1726.00,3345.51 1726.00,3345.51
             1726.00,3345.51 1721.00,3343.68 1721.00,3343.68
             1721.00,3343.68 1715.00,3342.51 1715.00,3342.51
             1707.23,3340.41 1695.98,3335.61 1689.00,3331.59
             1678.88,3325.75 1667.52,3317.87 1662.34,3307.00
             1657.25,3296.34 1658.02,3286.40 1658.00,3275.00
             1658.00,3275.00 1655.08,3251.00 1655.08,3251.00
             1655.08,3251.00 1655.08,3230.00 1655.08,3230.00
             1654.96,3226.95 1654.38,3216.57 1652.40,3214.60
             1650.16,3212.36 1645.07,3213.22 1642.00,3212.79
             1642.00,3212.79 1629.00,3209.46 1629.00,3209.46
             1629.00,3209.46 1614.00,3210.00 1614.00,3210.00
             1607.80,3209.92 1605.62,3208.98 1600.00,3208.29
             1600.00,3208.29 1589.00,3207.47 1589.00,3207.47
             1566.32,3202.38 1545.66,3189.83 1531.71,3171.00
             1526.22,3163.60 1528.06,3160.69 1525.28,3156.00
             1525.28,3156.00 1520.47,3149.00 1520.47,3149.00
             1520.47,3149.00 1500.87,3108.00 1500.87,3108.00
             1487.73,3077.83 1481.46,3050.76 1471.63,3020.00
             1471.63,3020.00 1458.28,2982.00 1458.28,2982.00
             1458.28,2982.00 1437.29,2912.00 1437.29,2912.00
             1437.29,2912.00 1416.12,2822.00 1416.12,2822.00
             1416.12,2822.00 1410.12,2793.00 1410.12,2793.00
             1410.12,2793.00 1408.00,2781.00 1408.00,2781.00
             1408.00,2781.00 1406.00,2781.00 1406.00,2781.00
             1403.15,2788.95 1397.42,2795.56 1392.08,2802.00
             1381.01,2815.33 1369.34,2827.50 1352.00,2832.31
             1344.84,2834.30 1328.33,2839.81 1324.93,2829.98
             1322.69,2823.52 1328.01,2820.29 1332.00,2816.79
             1335.93,2813.36 1339.57,2809.33 1342.48,2805.00
             1345.87,2799.96 1349.60,2792.23 1348.79,2786.00
             1348.79,2786.00 1344.87,2773.00 1344.87,2773.00
             1343.46,2767.88 1344.76,2767.24 1342.00,2762.00
             1339.29,2769.14 1334.37,2776.38 1330.40,2783.00
             1328.45,2786.24 1325.78,2791.26 1322.90,2793.57
             1312.93,2801.55 1308.10,2787.75 1308.00,2780.00
             1308.00,2780.00 1308.00,2763.00 1308.00,2763.00
             1308.00,2763.00 1307.00,2746.00 1307.00,2746.00
             1306.97,2726.56 1304.61,2705.40 1319.09,2690.01
             1322.62,2686.26 1326.59,2683.26 1331.00,2680.63
             1335.58,2677.89 1339.71,2675.86 1345.00,2675.00
             1341.30,2670.27 1336.24,2667.28 1332.04,2662.99
             1325.55,2656.35 1317.57,2644.69 1314.17,2636.00
             1303.10,2607.72 1315.07,2576.65 1339.00,2559.16
             1343.05,2556.20 1354.29,2548.88 1359.00,2548.42
             1365.93,2547.75 1370.35,2553.43 1368.30,2560.00
             1366.83,2564.73 1351.47,2588.62 1353.11,2604.00
             1354.01,2612.47 1362.78,2616.90 1370.00,2619.19
             1372.23,2619.89 1375.48,2621.25 1377.69,2619.94
             1380.49,2618.27 1379.75,2614.64 1379.42,2612.00
             1379.42,2612.00 1376.92,2592.00 1376.92,2592.00
             1376.92,2592.00 1374.00,2559.00 1374.00,2559.00
             1374.00,2559.00 1373.16,2543.00 1373.16,2543.00
             1373.16,2543.00 1373.16,2506.00 1373.16,2506.00
             1373.00,2503.76 1372.91,2501.16 1373.17,2499.00
             1374.45,2495.46 1382.09,2482.89 1384.40,2479.00
             1384.40,2479.00 1409.15,2436.00 1409.15,2436.00
             1409.15,2436.00 1473.42,2324.00 1473.42,2324.00
             1473.42,2324.00 1506.00,2267.00 1506.00,2267.00
             1512.81,2268.67 1520.88,2275.01 1527.00,2278.81
             1527.00,2278.81 1569.00,2305.42 1569.00,2305.42
             1569.00,2305.42 1639.00,2350.00 1639.00,2350.00
             1639.00,2350.00 1656.00,2360.81 1656.00,2360.81
             1658.37,2362.28 1662.58,2364.58 1663.69,2367.18
             1664.73,2369.59 1663.43,2374.30 1663.04,2377.00
             1663.04,2377.00 1663.04,2386.00 1663.04,2386.00
             1663.04,2386.00 1662.01,2395.00 1662.01,2395.00
             1662.01,2395.00 1660.00,2423.00 1660.00,2423.00
             1660.00,2423.00 1660.00,2474.00 1660.00,2474.00
             1660.00,2474.00 1659.00,2489.00 1659.00,2489.00
             1659.00,2489.00 1659.00,2564.00 1659.00,2564.00
             1659.00,2564.00 1660.00,2584.00 1660.00,2584.00
             1660.00,2584.00 1661.83,2599.00 1661.83,2599.00
             1661.83,2599.00 1663.17,2616.00 1663.17,2616.00
             1663.17,2616.00 1664.70,2624.00 1664.70,2624.00
             1664.70,2624.00 1666.17,2637.00 1666.17,2637.00
             1666.17,2637.00 1670.91,2663.00 1670.91,2663.00
             1670.91,2663.00 1679.77,2705.00 1679.77,2705.00
             1681.41,2712.09 1682.84,2722.18 1687.00,2728.00
             1687.00,2728.00 1696.44,2713.00 1696.44,2713.00
             1696.44,2713.00 1701.04,2693.00 1701.04,2693.00
             1701.04,2693.00 1710.04,2655.00 1710.04,2655.00
             1710.04,2655.00 1737.04,2542.00 1737.04,2542.00
             1737.04,2542.00 1770.28,2408.00 1770.28,2408.00
             1770.28,2408.00 1782.36,2363.00 1782.36,2363.00
             1782.36,2363.00 1790.00,2336.00 1790.00,2336.00
             1790.00,2336.00 1780.00,2335.09 1780.00,2335.09
             1746.83,2332.81 1734.61,2325.83 1704.00,2318.77
             1704.00,2318.77 1683.00,2313.93 1683.00,2313.93
             1680.55,2313.48 1677.06,2312.36 1674.82,2313.93
             1672.03,2315.68 1670.49,2320.95 1669.00,2324.00
             1669.00,2324.00 1620.00,2296.42 1620.00,2296.42
             1620.00,2296.42 1525.00,2242.15 1525.00,2242.15
             1525.00,2242.15 1477.00,2215.00 1477.00,2215.00
             1477.00,2215.00 1479.10,2193.00 1479.10,2193.00
             1479.10,2193.00 1481.00,2182.00 1481.00,2182.00
             1476.07,2184.76 1473.63,2190.28 1470.80,2195.00
             1470.80,2195.00 1457.00,2217.00 1457.00,2217.00
             1457.00,2217.00 1420.00,2189.00 1420.00,2189.00
             1420.00,2189.00 1404.42,2217.00 1404.42,2217.00
             1404.42,2217.00 1377.15,2265.00 1377.15,2265.00
             1377.15,2265.00 1360.60,2295.00 1360.60,2295.00
             1360.60,2295.00 1353.92,2331.00 1353.92,2331.00
             1353.92,2331.00 1342.08,2397.00 1342.08,2397.00
             1342.08,2397.00 1334.41,2439.00 1334.41,2439.00
             1334.41,2439.00 1320.34,2473.00 1320.34,2473.00
             1309.51,2500.64 1299.87,2529.13 1292.96,2558.00
             1290.92,2566.52 1285.19,2589.38 1285.00,2597.00
             1285.00,2597.00 1250.00,2588.42 1250.00,2588.42
             1250.00,2588.42 1199.00,2574.88 1199.00,2574.88
             1199.00,2574.88 1026.00,2528.88 1026.00,2528.88
             1026.00,2528.88 979.00,2516.42 979.00,2516.42
             974.61,2515.20 961.54,2512.43 958.52,2510.19
             952.81,2505.97 946.36,2494.75 944.00,2488.00
             944.00,2488.00 939.04,2505.00 939.04,2505.00
             934.41,2519.66 922.33,2546.08 909.00,2554.00
             910.80,2555.42 911.82,2556.38 914.00,2557.30
             916.89,2558.52 929.80,2560.04 933.00,2559.82
             938.27,2559.44 942.05,2559.61 945.00,2555.00
             945.00,2555.00 972.00,2564.95 972.00,2564.95
             972.00,2564.95 1030.00,2586.95 1030.00,2586.95
             1030.00,2586.95 1145.00,2630.58 1145.00,2630.58
             1145.00,2630.58 1200.00,2651.40 1200.00,2651.40
             1200.00,2651.40 1258.00,2673.40 1258.00,2673.40
             1261.19,2674.66 1273.42,2678.58 1275.01,2680.70
             1276.26,2682.37 1276.00,2685.96 1276.00,2688.00
             1276.00,2688.00 1276.00,2743.00 1276.00,2743.00
             1276.00,2743.00 1278.00,2772.00 1278.00,2772.00
             1278.00,2772.00 1278.00,2786.00 1278.00,2786.00
             1278.00,2786.00 1279.00,2800.00 1279.00,2800.00
             1279.00,2800.00 1281.00,2842.00 1281.00,2842.00
             1281.00,2842.00 1282.08,2858.00 1282.08,2858.00
             1282.08,2858.00 1282.08,2872.00 1282.08,2872.00
             1282.08,2872.00 1284.00,2893.00 1284.00,2893.00
             1284.00,2893.00 1285.00,2924.00 1285.00,2924.00
             1285.00,2924.00 1286.92,2945.00 1286.92,2945.00
             1286.92,2945.00 1286.92,2957.00 1286.92,2957.00
             1286.92,2957.00 1288.00,2971.00 1288.00,2971.00
             1288.00,2971.00 1288.00,2983.00 1288.00,2983.00
             1288.00,2983.00 1290.00,3010.00 1290.00,3010.00
             1290.00,3010.00 1291.00,3025.00 1291.00,3025.00
             1291.00,3025.00 1291.00,3042.00 1291.00,3042.00
             1291.00,3042.00 1293.00,3065.00 1293.00,3065.00
             1293.00,3065.00 1293.00,3069.00 1293.00,3069.00
             1293.00,3069.00 1294.00,3082.00 1294.00,3082.00
             1294.00,3082.00 1294.00,3099.00 1294.00,3099.00
             1294.00,3099.00 1295.96,3119.00 1295.96,3119.00
             1295.96,3119.00 1295.96,3129.00 1295.96,3129.00
             1295.96,3129.00 1297.00,3141.00 1297.00,3141.00
             1297.00,3141.00 1297.00,3158.00 1297.00,3158.00
             1297.00,3158.00 1300.00,3198.00 1300.00,3198.00
             1300.00,3198.00 1300.00,3216.00 1300.00,3216.00
             1300.00,3216.00 1302.84,3253.00 1302.84,3253.00
             1302.84,3253.00 1302.84,3275.00 1302.84,3275.00
             1303.01,3282.03 1304.46,3287.95 1302.84,3295.00
             1301.51,3298.63 1297.27,3305.85 1295.03,3309.00
             1286.94,3320.36 1274.95,3325.17 1262.00,3328.55
             1262.00,3328.55 1256.00,3330.53 1256.00,3330.53
             1256.00,3330.53 1249.00,3331.53 1249.00,3331.53
             1249.00,3331.53 1241.00,3333.79 1241.00,3333.79
             1241.00,3333.79 1233.00,3334.33 1233.00,3334.33
             1223.17,3336.03 1231.26,3336.81 1215.00,3337.00
             1215.00,3337.00 1191.00,3340.00 1191.00,3340.00
             1191.00,3340.00 1170.00,3340.00 1170.00,3340.00
             1170.00,3340.00 1155.00,3341.08 1155.00,3341.08
             1155.00,3341.08 1143.00,3341.08 1143.00,3341.08
             1135.90,3341.88 1135.96,3342.99 1127.00,3343.00
             1127.00,3343.00 1096.00,3343.00 1096.00,3343.00
             1096.00,3343.00 1077.00,3341.17 1077.00,3341.17
             1077.00,3341.17 1047.00,3340.00 1047.00,3340.00
             1036.89,3339.98 1036.74,3338.02 1028.00,3336.98
             1028.00,3336.98 1017.00,3336.98 1017.00,3336.98
             1017.00,3336.98 1008.00,3334.33 1008.00,3334.33
             1008.00,3334.33 1000.00,3333.74 1000.00,3333.74
             1000.00,3333.74 993.00,3331.55 993.00,3331.55
             993.00,3331.55 987.00,3330.51 987.00,3330.51
             987.00,3330.51 982.00,3328.68 982.00,3328.68
             982.00,3328.68 958.01,3320.27 958.01,3320.27
             958.01,3320.27 942.42,3312.29 942.42,3312.29
             942.42,3312.29 931.00,3305.34 931.00,3305.34
             925.22,3302.67 921.80,3305.54 918.34,3301.44
             916.33,3299.06 914.82,3291.44 913.61,3288.00
             913.61,3288.00 908.39,3271.00 908.39,3271.00
             908.39,3271.00 907.67,3263.00 907.67,3263.00
             905.74,3251.90 905.19,3260.30 905.00,3244.00
             905.00,3244.00 902.00,3220.00 902.00,3220.00
             902.00,3220.00 902.00,3206.00 902.00,3206.00
             902.00,3206.00 899.00,3162.00 899.00,3162.00
             899.00,3162.00 899.00,3099.00 899.00,3099.00
             899.00,3099.00 897.04,3079.00 897.04,3079.00
             897.04,3079.00 897.04,3068.00 897.04,3068.00
             897.04,3068.00 896.00,3058.00 896.00,3058.00
             896.00,3058.00 896.00,3046.00 896.00,3046.00
             895.99,3037.24 894.88,3036.31 894.17,3029.00
             894.17,3029.00 893.00,3004.00 893.00,3004.00
             893.00,3004.00 891.04,2986.00 891.04,2986.00
             891.04,2986.00 891.04,2976.00 891.04,2976.00
             891.04,2976.00 890.00,2964.00 890.00,2964.00
             890.00,2964.00 890.00,2944.00 890.00,2944.00
             890.00,2944.00 889.00,2929.00 889.00,2929.00
             889.00,2929.00 889.00,2907.00 889.00,2907.00
             889.00,2907.00 890.00,2892.00 890.00,2892.00
             890.02,2879.98 890.21,2857.07 893.00,2846.00
             883.75,2852.62 885.22,2854.33 872.00,2861.52
             858.36,2868.94 837.42,2872.95 822.00,2875.17
             815.30,2876.13 802.52,2881.19 797.95,2873.87
             796.90,2872.19 796.56,2869.94 796.89,2868.00
             798.69,2857.70 817.95,2857.26 824.21,2849.79
             828.44,2844.76 829.88,2836.26 831.33,2830.00
             835.13,2813.61 835.56,2791.75 829.00,2776.00
             827.42,2787.95 828.99,2783.54 829.00,2793.00
             829.00,2793.00 828.09,2803.00 828.09,2803.00
             827.79,2807.39 828.61,2812.02 825.20,2815.54
             822.06,2818.73 816.58,2818.43 813.33,2815.54
             810.08,2812.71 803.62,2800.37 801.62,2796.00
             789.47,2769.56 791.81,2747.78 801.08,2721.00
             809.10,2697.83 822.28,2673.38 842.00,2658.23
             849.73,2652.30 854.87,2649.13 864.00,2645.68
             869.01,2643.80 876.31,2642.79 879.00,2638.00
             871.06,2635.49 861.98,2626.83 856.00,2620.99
             853.82,2618.85 849.13,2613.30 846.00,2613.34
             843.19,2613.37 834.60,2621.58 832.00,2623.75
             832.00,2623.75 794.01,2655.83 794.01,2655.83
             783.44,2665.38 774.54,2674.04 766.52,2686.00
             766.52,2686.00 755.95,2704.00 755.95,2704.00
             755.95,2704.00 751.88,2714.00 751.88,2714.00
             751.88,2714.00 747.47,2721.00 747.47,2721.00
             747.47,2721.00 737.92,2741.00 737.92,2741.00
             721.44,2774.04 703.23,2806.01 697.19,2843.00
             697.19,2843.00 695.83,2858.00 695.83,2858.00
             695.83,2858.00 694.00,2878.00 694.00,2878.00
             694.00,2878.00 695.72,2894.00 695.72,2894.00
             695.72,2894.00 697.32,2910.00 697.32,2910.00
             697.32,2910.00 705.18,2947.00 705.18,2947.00
             705.18,2947.00 709.30,2973.00 709.30,2973.00
             710.31,2980.02 711.91,2986.84 712.00,2994.00
             712.05,2998.39 712.67,3011.61 710.83,3014.89
             708.61,3018.84 702.92,3020.00 699.04,3017.98
             695.27,3016.01 687.69,3004.95 685.07,3001.00
             671.26,2980.14 665.66,2969.86 655.59,2947.00
             655.59,2947.00 647.73,2928.00 647.73,2928.00
             645.96,2923.50 645.33,2919.57 642.20,2916.00
             642.20,2916.00 642.20,2924.00 642.20,2924.00
             641.44,2929.32 634.33,2934.12 627.47,2927.52
             627.47,2927.52 606.13,2899.00 606.13,2899.00
             606.13,2899.00 574.33,2858.91 574.33,2858.91
             565.22,2846.35 558.13,2834.19 551.86,2820.00
             551.86,2820.00 535.81,2784.00 535.81,2784.00
             535.81,2784.00 523.13,2770.00 523.13,2770.00
             511.74,2755.07 500.21,2738.52 491.31,2722.00
             478.77,2698.73 473.20,2675.90 469.71,2650.00
             468.74,2642.76 468.01,2643.39 468.00,2635.00
             467.96,2609.54 466.88,2591.07 474.37,2566.00
             479.53,2548.73 483.86,2545.77 490.00,2532.00
             487.27,2534.03 483.26,2537.69 480.00,2538.34
             473.63,2539.60 469.72,2533.83 470.19,2528.00
             470.64,2522.42 478.40,2503.86 481.01,2498.00
             493.17,2470.74 504.41,2457.32 524.91,2436.04
             524.91,2436.04 542.46,2418.11 542.46,2418.11
             562.75,2399.02 576.17,2390.19 600.00,2376.39
             600.00,2376.39 633.00,2358.30 633.00,2358.30
             657.80,2346.60 679.72,2341.07 703.00,2325.25
             715.30,2316.90 726.16,2307.19 737.00,2297.09
             748.60,2286.28 759.62,2275.43 769.55,2263.00
             786.15,2242.23 805.83,2205.99 811.96,2180.00
             815.55,2164.79 818.03,2131.95 818.00,2116.00
             817.98,2105.57 816.05,2106.53 816.03,2100.00
             816.01,2093.64 817.96,2093.08 818.00,2084.00
             818.00,2084.00 818.00,2053.00 818.00,2053.00
             817.76,2033.63 805.72,2020.47 794.68,2006.00
             794.68,2006.00 781.08,1986.00 781.08,1986.00
             781.08,1986.00 773.04,1972.00 773.04,1972.00
             773.04,1972.00 764.91,1962.00 764.91,1962.00
             764.91,1962.00 750.63,1936.00 750.63,1936.00
             750.63,1936.00 736.39,1901.00 736.39,1901.00
             729.17,1885.54 719.70,1872.59 714.29,1856.00
             714.29,1856.00 706.67,1822.00 706.67,1822.00
             703.30,1807.49 698.18,1791.99 698.00,1777.00
             698.00,1777.00 698.00,1756.00 698.00,1756.00
             698.03,1734.69 706.44,1703.48 713.05,1683.00
             728.76,1634.30 748.71,1594.43 778.91,1553.00
             790.95,1536.49 804.79,1521.39 818.49,1506.28
             843.61,1478.58 871.84,1453.10 904.00,1433.80
             912.83,1428.50 932.58,1417.69 942.00,1415.00
             942.00,1415.00 944.00,1476.00 944.00,1476.00
             944.00,1476.00 945.00,1491.00 945.00,1491.00
             937.48,1492.18 929.04,1496.39 922.00,1499.44
             913.78,1503.00 893.44,1513.12 887.17,1518.53
             887.17,1518.53 870.63,1539.00 870.63,1539.00
             853.71,1561.39 846.63,1575.14 834.58,1600.00
             825.42,1618.88 819.06,1633.15 815.57,1654.00
             814.69,1659.22 813.82,1661.38 814.04,1667.00
             814.18,1670.60 814.95,1673.51 815.58,1677.00
             818.63,1693.95 823.35,1705.64 834.61,1718.99
             841.11,1726.68 852.48,1734.29 863.00,1733.48
             869.20,1733.01 878.43,1729.27 880.68,1723.00
             882.05,1719.19 876.06,1706.43 887.00,1703.52
             888.31,1703.25 889.68,1703.19 891.00,1703.52
             900.32,1705.31 899.58,1713.27 901.75,1720.00
             901.75,1720.00 906.55,1731.00 906.55,1731.00
             909.94,1740.73 910.05,1744.94 910.00,1755.00
             909.92,1772.61 899.38,1782.24 883.00,1786.23
             877.83,1787.49 877.56,1787.93 872.00,1788.00
             858.07,1788.16 851.71,1788.84 838.00,1785.08
             832.70,1783.63 828.81,1781.50 824.00,1779.00
             827.95,1787.85 841.19,1806.48 847.29,1815.00
             870.30,1847.13 907.32,1884.59 938.00,1909.54
             970.73,1936.16 1006.44,1961.12 1029.79,1997.00
             1045.94,2021.83 1052.75,2043.52 1054.04,2073.00
             1054.37,2080.55 1058.33,2096.67 1047.98,2099.47
             1042.66,2100.91 1035.19,2094.35 1030.00,2092.00
             1036.90,2102.78 1044.88,2124.31 1046.80,2137.00
             1047.92,2144.47 1047.99,2151.48 1048.00,2159.00
             1048.00,2159.00 1049.00,2176.00 1049.00,2176.00
             1049.00,2176.00 1049.00,2197.00 1049.00,2197.00
             1049.00,2197.00 1048.09,2208.00 1048.09,2208.00
             1048.09,2208.00 1046.70,2228.00 1046.70,2228.00
             1046.70,2228.00 1042.32,2252.00 1042.32,2252.00
             1042.32,2252.00 1040.70,2266.00 1040.70,2266.00
             1038.11,2283.60 1036.09,2297.18 1029.50,2314.00
             1029.50,2314.00 1022.26,2330.96 1022.26,2330.96
             1020.35,2334.28 1018.96,2334.93 1017.04,2339.04
             1010.81,2352.33 1000.02,2379.08 995.80,2393.00
             992.83,2402.79 990.09,2411.65 990.00,2422.00
             993.76,2418.06 994.46,2413.89 996.57,2409.00
             996.57,2409.00 1007.36,2386.00 1007.36,2386.00
             1007.36,2386.00 1018.41,2364.00 1018.41,2364.00
             1029.93,2341.53 1042.78,2317.76 1062.42,2301.29
             1071.36,2293.81 1082.23,2286.84 1094.00,2285.29
             1099.60,2284.55 1107.50,2285.44 1113.00,2286.74
             1118.08,2287.95 1122.27,2288.70 1127.00,2291.00
             1127.00,2291.00 1119.31,2251.00 1119.31,2251.00
             1119.31,2251.00 1111.67,2212.00 1111.67,2212.00
             1105.74,2186.46 1099.12,2160.98 1095.30,2135.00
             1095.30,2135.00 1093.83,2120.00 1093.83,2120.00
             1093.83,2120.00 1092.17,2110.00 1092.17,2110.00
             1092.17,2110.00 1090.83,2088.00 1090.83,2088.00
             1090.83,2088.00 1089.09,2075.00 1089.09,2075.00
             1089.09,2075.00 1087.91,2050.00 1087.91,2050.00
             1087.91,2050.00 1086.04,2037.00 1086.04,2037.00
             1086.04,2037.00 1086.04,2027.00 1086.04,2027.00
             1086.04,2027.00 1085.00,2014.00 1085.00,2014.00
             1085.00,2014.00 1083.00,1989.00 1083.00,1989.00
             1083.00,1989.00 1083.00,1941.00 1083.00,1941.00
             1083.01,1933.44 1083.87,1931.05 1084.72,1924.00
             1084.72,1924.00 1086.29,1908.00 1086.29,1908.00
             1086.29,1908.00 1093.67,1872.00 1093.67,1872.00
             1093.67,1872.00 1107.56,1814.00 1107.56,1814.00
             1120.84,1767.04 1135.98,1745.75 1162.49,1706.00
             1175.02,1687.20 1186.98,1667.55 1201.26,1650.00
             1213.10,1635.45 1226.41,1621.60 1241.00,1609.80
             1241.00,1609.80 1253.99,1599.87 1253.99,1599.87
             1255.59,1598.63 1258.45,1596.72 1258.68,1594.54
             1258.99,1591.61 1254.82,1586.97 1252.96,1585.00
             1247.48,1579.21 1236.35,1569.32 1229.99,1564.35
             1207.84,1547.01 1185.23,1530.73 1161.00,1516.40
             1161.00,1516.40 1146.00,1508.26 1146.00,1508.26
             1143.82,1507.13 1140.36,1505.70 1139.02,1503.61
             1137.78,1501.66 1138.00,1498.27 1138.00,1496.00
             1138.00,1496.00 1138.00,1488.00 1138.00,1488.00
             1138.00,1488.00 1137.00,1473.00 1137.00,1473.00
             1137.00,1473.00 1137.00,1415.00 1137.00,1415.00
             1146.37,1416.47 1165.57,1425.81 1175.00,1429.87
             1195.17,1438.56 1217.26,1448.24 1235.00,1461.16
             1235.00,1461.16 1256.17,1478.42 1256.17,1478.42
             1256.17,1478.42 1290.00,1504.80 1290.00,1504.80
             1290.00,1504.80 1305.00,1517.54 1305.00,1517.54
             1319.11,1528.99 1336.16,1538.68 1353.00,1545.43
             1367.33,1551.37 1371.87,1547.77 1386.00,1545.43
             1386.00,1545.43 1415.00,1542.00 1415.00,1542.00
             1415.00,1542.00 1452.00,1542.00 1452.00,1542.00
             1460.79,1542.01 1461.64,1543.11 1469.00,1543.83
             1469.00,1543.83 1484.00,1545.18 1484.00,1545.18
             1484.00,1545.18 1491.00,1546.68 1491.00,1546.68
             1511.00,1550.15 1530.46,1554.29 1550.00,1559.91
             1550.00,1559.91 1595.00,1573.91 1595.00,1573.91
             1595.00,1573.91 1637.00,1582.70 1637.00,1582.70
             1637.00,1582.70 1653.00,1584.29 1653.00,1584.29
             1653.00,1584.29 1662.00,1585.96 1662.00,1585.96
             1662.00,1585.96 1672.00,1585.96 1672.00,1585.96
             1672.00,1585.96 1682.00,1587.00 1682.00,1587.00
             1682.00,1587.00 1687.00,1587.00 1687.00,1587.00
             1696.67,1586.82 1697.64,1580.08 1700.40,1572.00
             1704.82,1559.06 1709.15,1540.62 1709.00,1527.00
             1708.89,1517.59 1706.46,1506.19 1704.33,1497.00
             1695.94,1460.64 1680.65,1432.61 1657.65,1403.28
             1657.65,1403.28 1615.28,1356.00 1615.28,1356.00
             1590.87,1328.26 1568.04,1299.74 1549.00,1268.00
             1537.56,1248.93 1527.28,1229.67 1521.58,1208.00
             1519.48,1200.00 1518.09,1190.25 1518.00,1182.00
             1518.00,1182.00 1517.18,1172.00 1517.18,1172.00
             1517.18,1172.00 1517.96,1165.00 1517.96,1165.00
             1517.96,1165.00 1517.96,1154.00 1517.96,1154.00
             1517.96,1154.00 1522.55,1121.00 1522.55,1121.00
             1528.35,1091.95 1534.83,1069.14 1551.52,1044.00
             1551.52,1044.00 1597.07,981.00 1597.07,981.00
             1606.32,967.02 1615.30,952.54 1619.16,936.00
             1624.07,914.94 1621.37,907.30 1616.81,887.00
             1615.62,881.68 1614.20,871.21 1609.87,867.96
             1604.69,864.09 1587.73,858.13 1581.00,855.95
             1575.60,854.21 1569.00,852.46 1566.17,846.98
             1561.86,838.63 1568.18,831.48 1573.63,825.89
             1584.75,814.47 1595.80,800.16 1613.00,800.00
             1612.55,790.82 1608.68,777.27 1604.57,769.00
             1602.01,763.86 1595.66,755.24 1596.15,750.00
             1597.06,740.27 1609.92,740.24 1617.00,742.00
             1627.87,744.71 1633.84,747.86 1641.91,756.02
             1641.91,756.02 1659.00,775.00 1659.00,775.00
             1662.45,755.93 1675.55,737.26 1688.00,722.99
             1700.97,708.13 1716.82,692.70 1731.72,679.75
             1736.85,675.28 1746.01,667.81 1752.00,664.97
             1758.00,662.12 1761.18,663.66 1762.71,660.69
             1763.52,659.06 1762.96,654.85 1762.71,653.00
             1761.66,645.05 1760.90,644.80 1761.00,636.00
             1761.11,626.68 1765.01,615.34 1769.08,607.00
             1774.83,595.24 1778.96,584.80 1790.00,576.61
             1800.10,569.10 1814.58,565.86 1827.00,566.00
             1834.08,566.08 1841.10,567.30 1848.00,568.72
             1869.97,573.24 1881.68,577.16 1901.00,589.00
             1910.63,594.91 1920.62,604.37 1928.63,612.37
             1931.47,615.22 1938.89,623.68 1942.00,624.72
             1944.70,625.62 1958.80,621.43 1963.00,621.09
             1963.00,621.09 1983.00,620.00 1983.00,620.00
             1983.00,620.00 2000.00,618.17 2000.00,618.17
             2000.00,618.17 2024.00,617.00 2024.00,617.00
             2024.00,617.00 2020.00,601.00 2020.00,601.00
             2020.00,601.00 2043.00,602.91 2043.00,602.91
             2043.00,602.91 2068.00,604.72 2068.00,604.72
             2076.80,605.76 2081.53,602.51 2086.00,612.00
             2097.78,607.92 2103.78,608.02 2116.00,608.00
             2116.00,608.00 2132.00,607.00 2132.00,607.00
             2132.00,607.00 2157.00,609.00 2157.00,609.00
             2148.35,598.78 2128.46,590.47 2116.00,585.49
             2116.00,585.49 2103.00,579.84 2103.00,579.84
             2097.71,578.20 2095.57,579.95 2089.00,577.77
             2089.00,577.77 2022.00,553.00 2022.00,553.00
             2022.43,539.26 2033.93,521.17 2047.00,516.33
             2050.56,515.01 2053.30,515.03 2057.00,515.00 Z
           M 754.00,511.00
           C 754.00,511.00 879.00,511.00 879.00,511.00
             879.00,511.00 879.00,697.00 879.00,697.00
             879.00,697.00 1067.00,697.00 1067.00,697.00
             1067.00,697.00 1067.00,825.00 1067.00,825.00
             1067.00,825.00 879.00,825.00 879.00,825.00
             879.00,825.00 879.00,1011.00 879.00,1011.00
             879.00,1011.00 754.00,1011.00 754.00,1011.00
             754.00,1011.00 754.00,825.00 754.00,825.00
             754.00,825.00 566.00,825.00 566.00,825.00
             566.00,825.00 566.00,697.00 566.00,697.00
             566.00,697.00 754.00,697.00 754.00,697.00
             754.00,697.00 754.00,511.00 754.00,511.00 Z
           M 3036.00,2811.00
           C 3036.00,2811.00 3161.00,2811.00 3161.00,2811.00
             3161.00,2811.00 3161.00,2997.00 3161.00,2997.00
             3161.00,2997.00 3349.00,2997.00 3349.00,2997.00
             3349.00,2997.00 3349.00,3125.00 3349.00,3125.00
             3349.00,3125.00 3161.00,3125.00 3161.00,3125.00
             3161.00,3125.00 3161.00,3311.00 3161.00,3311.00
             3161.00,3311.00 3036.00,3311.00 3036.00,3311.00
             3036.00,3311.00 3036.00,3125.00 3036.00,3125.00
             3036.00,3125.00 2848.00,3125.00 2848.00,3125.00
             2848.00,3125.00 2848.00,2997.00 2848.00,2997.00
             2848.00,2997.00 3036.00,2997.00 3036.00,2997.00
             3036.00,2997.00 3036.00,2811.00 3036.00,2811.00 Z" />
</svg>
