<?xml version="1.0" encoding="UTF-8" standalone="no"?>
<!DOCTYPE svg PUBLIC "-//W3C//DTD SVG 20010904//EN"
              "http://www.w3.org/TR/2001/REC-SVG-20010904/DTD/svg10.dtd">

<svg xmlns="http://www.w3.org/2000/svg"
     width="12in" height="12in"
     viewBox="0 0 3600 3600">
  <path id="10 - light scales"
        fill="none" stroke="black" stroke-width="1"
        d="M 754.00,511.00
           C 754.00,511.00 879.00,511.00 879.00,511.00
             879.00,511.00 879.00,697.00 879.00,697.00
             879.00,697.00 1067.00,697.00 1067.00,697.00
             1067.00,697.00 1067.00,825.00 1067.00,825.00
             1067.00,825.00 879.00,825.00 879.00,825.00
             879.00,825.00 879.00,1011.00 879.00,1011.00
             879.00,1011.00 754.00,1011.00 754.00,1011.00
             754.00,1011.00 754.00,825.00 754.00,825.00
             754.00,825.00 566.00,825.00 566.00,825.00
             566.00,825.00 566.00,697.00 566.00,697.00
             566.00,697.00 754.00,697.00 754.00,697.00
             754.00,697.00 754.00,511.00 754.00,511.00 Z
           M 2354.22,1167.08
           C 2360.68,1165.74 2363.43,1174.38 2366.20,1179.00
             2368.15,1182.27 2375.19,1193.87 2375.44,1197.00
             2375.72,1200.32 2373.15,1202.80 2370.98,1204.96
             2366.62,1209.31 2360.57,1214.51 2354.00,1213.78
             2340.14,1212.23 2342.23,1203.11 2345.13,1193.00
             2345.13,1193.00 2348.41,1181.00 2348.41,1181.00
             2349.91,1175.56 2349.60,1171.05 2354.22,1167.08 Z
           M 2375.00,1209.04
           C 2383.65,1206.81 2387.60,1219.07 2391.32,1225.00
             2397.98,1235.62 2408.07,1249.52 2412.00,1261.00
             2413.91,1266.60 2417.03,1272.17 2410.82,1276.30
             2407.10,1278.77 2397.63,1278.05 2393.00,1278.00
             2393.00,1278.00 2363.00,1275.17 2363.00,1275.17
             2363.00,1275.17 2345.00,1273.83 2345.00,1273.83
             2337.08,1272.95 2331.17,1273.06 2331.00,1264.00
             2330.82,1253.72 2332.83,1250.01 2333.95,1241.00
             2333.95,1241.00 2336.83,1227.00 2336.83,1227.00
             2337.32,1224.33 2337.44,1220.57 2339.56,1218.60
             2343.68,1214.78 2350.79,1220.18 2357.00,1219.59
             2364.44,1218.88 2369.15,1212.83 2375.00,1209.04 Z
           M 2332.15,1279.02
           C 2338.73,1276.74 2346.29,1280.11 2353.00,1280.83
             2353.00,1280.83 2372.00,1282.17 2372.00,1282.17
             2372.00,1282.17 2386.00,1283.96 2386.00,1283.96
             2386.00,1283.96 2401.00,1283.96 2401.00,1283.96
             2418.01,1283.97 2410.58,1277.81 2428.00,1278.00
             2428.00,1278.00 2445.00,1279.30 2445.00,1279.30
             2452.09,1280.31 2450.39,1280.99 2459.00,1281.14
             2459.00,1281.14 2488.00,1281.14 2488.00,1281.14
             2490.08,1281.00 2493.02,1280.92 2495.00,1281.14
             2496.84,1281.87 2498.44,1282.70 2499.98,1283.80
             2509.98,1290.97 2501.38,1301.04 2497.12,1309.00
             2495.46,1312.09 2492.37,1320.42 2489.78,1321.98
             2485.31,1324.66 2479.13,1320.52 2475.00,1318.74
             2466.69,1315.17 2455.06,1312.39 2446.00,1312.04
             2446.00,1312.04 2435.00,1312.96 2435.00,1312.96
             2435.00,1312.96 2417.00,1312.96 2417.00,1312.96
             2409.44,1312.99 2407.05,1312.13 2400.00,1311.28
             2400.00,1311.28 2392.00,1310.71 2392.00,1310.71
             2383.17,1309.62 2371.43,1306.50 2363.00,1303.58
             2353.80,1300.39 2342.62,1296.83 2335.00,1290.62
             2330.70,1287.12 2327.13,1283.55 2332.15,1279.02 Z
           M 1420.00,1557.57
           C 1428.04,1556.44 1443.87,1556.75 1452.00,1557.57
             1455.31,1558.11 1460.98,1557.29 1462.98,1560.31
             1466.04,1564.95 1460.54,1570.07 1461.04,1580.00
             1461.50,1588.91 1469.02,1596.47 1463.69,1599.85
             1461.22,1601.59 1457.58,1600.38 1455.00,1599.85
             1455.00,1599.85 1436.00,1594.58 1436.00,1594.58
             1433.65,1593.81 1427.60,1591.71 1426.34,1595.28
             1425.41,1597.87 1430.30,1601.39 1432.00,1602.87
             1435.56,1605.95 1447.35,1615.92 1448.26,1619.98
             1449.30,1624.65 1443.23,1625.49 1440.00,1625.83
             1433.81,1626.49 1420.66,1628.20 1415.00,1629.90
             1415.00,1629.90 1398.00,1636.67 1398.00,1636.67
             1392.90,1637.22 1387.37,1630.72 1384.61,1627.00
             1376.43,1616.01 1370.39,1600.84 1373.68,1587.00
             1375.38,1579.86 1381.72,1573.44 1386.42,1568.00
             1388.80,1565.26 1391.55,1561.94 1395.00,1560.58
             1401.25,1558.13 1413.31,1558.37 1420.00,1557.57 Z
           M 1476.02,1560.75
           C 1480.80,1559.79 1500.42,1563.60 1506.00,1565.00
             1508.47,1565.62 1512.87,1566.06 1514.69,1567.60
             1517.44,1569.93 1516.44,1572.90 1518.60,1575.79
             1520.71,1578.61 1528.60,1582.41 1532.00,1584.27
             1532.00,1584.27 1548.94,1593.75 1548.94,1593.75
             1550.89,1595.24 1552.87,1597.23 1551.83,1599.89
             1550.23,1604.01 1543.64,1604.45 1540.00,1605.34
             1533.09,1607.02 1520.02,1612.53 1514.00,1616.27
             1509.34,1619.16 1506.08,1623.61 1500.00,1622.76
             1493.73,1621.89 1488.61,1615.47 1484.72,1611.00
             1475.29,1600.17 1463.09,1586.65 1467.99,1571.00
             1469.48,1566.24 1471.64,1563.13 1476.02,1560.75 Z
           M 1524.00,1570.19
           C 1524.00,1570.19 1531.00,1570.19 1531.00,1570.19
             1531.00,1570.19 1555.00,1582.00 1555.00,1582.00
             1555.00,1582.00 1555.00,1584.00 1555.00,1584.00
             1552.98,1584.52 1552.19,1584.91 1550.00,1584.57
             1550.00,1584.57 1531.00,1576.24 1531.00,1576.24
             1527.28,1574.40 1525.42,1574.06 1524.00,1570.19 Z
           M 1364.00,1574.48
           C 1366.84,1574.56 1368.95,1574.64 1369.63,1578.06
             1370.29,1581.34 1367.77,1584.63 1367.17,1590.00
             1366.93,1592.17 1366.94,1597.82 1367.17,1600.00
             1367.91,1606.88 1371.73,1614.73 1360.00,1613.83
             1348.96,1612.97 1343.80,1609.64 1334.00,1605.91
             1332.05,1605.17 1326.43,1602.99 1324.74,1604.78
             1322.28,1607.40 1328.35,1611.58 1330.00,1612.88
             1335.37,1617.13 1340.25,1622.05 1344.98,1627.00
             1346.68,1628.77 1349.37,1631.34 1349.37,1633.98
             1349.37,1638.57 1343.35,1639.32 1340.00,1640.00
             1328.99,1642.23 1322.25,1645.29 1313.00,1651.77
             1309.09,1654.50 1302.33,1661.48 1298.00,1661.80
             1292.88,1662.17 1287.35,1656.47 1284.17,1653.00
             1276.18,1644.27 1265.20,1632.75 1266.10,1620.00
             1267.02,1606.83 1278.81,1601.22 1289.00,1595.48
             1296.49,1591.27 1317.36,1580.44 1325.00,1578.55
             1325.00,1578.55 1332.00,1577.71 1332.00,1577.71
             1332.00,1577.71 1341.00,1576.17 1341.00,1576.17
             1341.00,1576.17 1364.00,1574.48 1364.00,1574.48 Z
           M 1608.33,1595.02
           C 1613.69,1593.02 1615.80,1595.17 1621.00,1595.82
             1623.53,1596.13 1626.58,1595.82 1628.85,1597.17
             1634.15,1600.33 1630.02,1606.91 1625.96,1608.97
             1620.80,1611.60 1608.97,1603.87 1607.17,1599.00
             1606.33,1596.76 1607.15,1596.46 1608.33,1595.02 Z
           M 1656.00,1601.75
           C 1656.00,1601.75 1676.00,1601.75 1676.00,1601.75
             1679.38,1602.01 1684.08,1601.58 1685.93,1605.15
             1688.18,1609.47 1681.40,1616.67 1678.87,1620.00
             1672.21,1628.75 1659.07,1641.51 1650.00,1647.80
             1647.63,1649.44 1640.61,1654.05 1638.00,1654.36
             1634.51,1654.78 1631.74,1651.87 1630.31,1649.00
             1628.16,1644.66 1626.75,1629.91 1627.61,1625.00
             1629.24,1615.79 1633.25,1606.04 1643.00,1602.86
             1646.81,1601.61 1649.02,1603.06 1656.00,1601.75 Z
           M 1586.00,1652.00
           C 1586.45,1654.11 1586.54,1655.07 1587.74,1657.00
             1587.74,1657.00 1608.70,1680.00 1608.70,1680.00
             1615.88,1688.58 1613.16,1691.98 1603.00,1692.00
             1586.30,1692.03 1575.59,1690.85 1560.00,1699.12
             1553.48,1702.58 1552.27,1704.20 1547.00,1708.95
             1544.74,1710.99 1542.32,1713.28 1539.00,1712.34
             1534.89,1711.19 1527.85,1702.38 1524.84,1699.00
             1512.03,1684.66 1497.98,1664.44 1501.32,1644.00
             1503.81,1628.78 1513.54,1621.37 1527.00,1615.73
             1545.28,1608.07 1554.83,1607.91 1574.00,1608.00
             1582.34,1608.04 1581.69,1608.91 1589.00,1610.67
             1589.00,1610.67 1609.00,1616.43 1609.00,1616.43
             1613.00,1617.62 1616.71,1617.72 1619.69,1621.14
             1622.15,1623.98 1621.66,1625.65 1621.51,1629.00
             1621.34,1632.78 1622.43,1641.18 1623.22,1645.00
             1623.80,1647.82 1625.49,1651.10 1623.96,1653.85
             1621.87,1657.60 1617.44,1656.19 1614.00,1656.04
             1614.00,1656.04 1586.00,1652.00 1586.00,1652.00 Z
           M 1254.00,1619.79
           C 1255.83,1619.62 1256.80,1619.11 1258.41,1620.61
             1259.90,1622.01 1260.21,1625.07 1260.78,1627.00
             1262.05,1631.30 1266.25,1637.93 1259.94,1640.40
             1257.01,1641.55 1237.65,1639.07 1240.17,1632.00
             1241.45,1628.39 1250.51,1621.52 1254.00,1619.79 Z
           M 1456.00,1629.42
           C 1464.64,1628.37 1477.49,1629.05 1486.00,1630.88
             1489.27,1631.59 1494.18,1631.97 1495.96,1635.15
             1497.72,1638.28 1495.54,1643.47 1495.17,1647.00
             1494.63,1652.15 1496.09,1660.02 1497.57,1665.00
             1499.48,1671.42 1502.72,1677.09 1505.77,1683.00
             1507.05,1685.48 1508.43,1688.13 1506.38,1690.68
             1504.12,1693.49 1500.07,1692.43 1497.00,1692.05
             1490.59,1691.23 1487.85,1688.63 1482.00,1686.73
             1482.00,1686.73 1469.00,1683.38 1469.00,1683.38
             1466.12,1682.28 1459.29,1678.43 1456.74,1681.59
             1454.03,1684.95 1461.89,1688.64 1464.00,1689.85
             1471.81,1694.35 1477.97,1698.71 1485.00,1704.34
             1487.48,1706.33 1491.63,1709.07 1490.34,1712.86
             1488.87,1717.23 1482.14,1715.62 1477.00,1716.17
             1468.05,1717.13 1457.00,1721.01 1449.00,1725.08
             1445.35,1726.94 1437.33,1732.28 1434.00,1732.67
             1427.93,1733.40 1419.97,1724.96 1416.00,1721.00
             1398.83,1703.88 1391.96,1689.26 1392.00,1665.00
             1392.01,1661.38 1391.91,1658.54 1392.98,1655.00
             1399.10,1634.62 1423.66,1633.99 1441.00,1631.71
             1441.00,1631.71 1456.00,1629.42 1456.00,1629.42 Z
           M 1230.00,1642.02
           C 1237.99,1639.45 1242.30,1646.45 1247.98,1651.12
             1250.84,1653.46 1254.44,1656.65 1251.97,1660.72
             1250.18,1663.68 1238.42,1665.96 1234.00,1668.11
             1224.67,1672.64 1219.19,1677.73 1212.00,1685.00
             1209.42,1687.61 1203.88,1694.35 1200.99,1695.63
             1196.40,1697.65 1189.95,1692.79 1196.09,1683.00
             1196.09,1683.00 1213.12,1660.00 1213.12,1660.00
             1218.14,1653.54 1223.11,1646.60 1230.00,1642.02 Z
           M 1369.00,1644.21
           C 1369.00,1644.21 1380.00,1644.21 1380.00,1644.21
             1383.70,1644.07 1387.90,1644.41 1388.50,1649.02
             1388.96,1652.51 1386.05,1654.65 1386.00,1664.00
             1385.94,1675.35 1386.89,1683.27 1391.10,1694.00
             1392.45,1697.43 1398.53,1707.82 1396.92,1710.69
             1394.89,1714.32 1387.20,1712.74 1384.00,1711.79
             1375.02,1709.14 1367.51,1703.40 1359.00,1699.74
             1356.71,1698.76 1351.70,1696.61 1349.37,1698.11
             1346.88,1699.71 1348.87,1702.41 1350.16,1704.00
             1350.16,1704.00 1362.68,1717.00 1362.68,1717.00
             1364.86,1719.98 1365.42,1723.70 1360.94,1724.64
             1357.93,1725.28 1353.88,1723.17 1351.00,1722.20
             1351.00,1722.20 1331.00,1716.03 1331.00,1716.03
             1331.00,1716.03 1304.00,1710.18 1304.00,1710.18
             1300.63,1709.76 1291.93,1709.76 1289.80,1707.40
             1286.60,1704.38 1289.13,1697.59 1289.80,1694.00
             1293.41,1680.02 1301.83,1667.40 1313.00,1658.37
             1322.46,1650.73 1334.70,1645.15 1347.00,1645.00
             1347.00,1645.00 1369.00,1644.21 1369.00,1644.21 Z
           M 1272.00,1667.42
           C 1276.28,1666.90 1288.58,1665.76 1291.38,1669.31
             1294.14,1672.81 1289.39,1679.34 1287.86,1683.00
             1287.86,1683.00 1284.59,1692.00 1284.59,1692.00
             1283.36,1696.42 1283.30,1703.43 1278.87,1705.98
             1276.75,1707.20 1273.40,1707.00 1271.00,1707.00
             1271.00,1707.00 1250.00,1707.00 1250.00,1707.00
             1250.00,1707.00 1220.00,1710.32 1220.00,1710.32
             1220.00,1710.32 1209.00,1712.82 1209.00,1712.82
             1202.39,1713.41 1199.34,1710.11 1203.02,1704.00
             1205.43,1699.99 1216.44,1687.49 1220.01,1684.29
             1229.50,1675.76 1240.23,1669.97 1253.00,1668.29
             1253.00,1668.29 1272.00,1667.42 1272.00,1667.42 Z
           M 1706.00,1682.57
           C 1715.52,1682.48 1711.04,1692.55 1709.26,1698.00
             1701.39,1722.03 1701.59,1725.43 1699.91,1750.00
             1699.91,1750.00 1699.00,1760.00 1699.00,1760.00
             1699.00,1760.00 1699.00,1779.00 1699.00,1779.00
             1698.93,1782.78 1698.29,1787.81 1693.00,1786.35
             1687.95,1784.96 1678.28,1773.44 1675.29,1769.00
             1662.64,1750.22 1661.58,1728.47 1670.59,1708.00
             1672.50,1703.66 1677.06,1695.47 1680.21,1692.09
             1686.46,1685.38 1697.31,1684.50 1706.00,1682.57 Z
           M 1665.31,1687.03
           C 1673.98,1684.06 1674.42,1693.81 1669.86,1695.34
             1666.11,1696.60 1660.65,1692.12 1665.31,1687.03 Z
           M 1187.04,1699.08
           C 1191.91,1698.15 1194.95,1700.97 1194.76,1706.00
             1194.57,1710.88 1190.98,1717.32 1186.96,1719.98
             1184.12,1721.91 1172.66,1727.24 1172.74,1719.98
             1172.76,1717.79 1174.99,1714.80 1176.14,1713.00
             1179.27,1708.13 1182.27,1702.45 1187.04,1699.08 Z
           M 1608.00,1744.00
           C 1609.00,1749.90 1612.59,1751.43 1617.00,1755.08
             1625.28,1761.93 1635.79,1768.58 1642.96,1776.00
             1645.62,1778.76 1652.34,1785.83 1651.27,1789.94
             1650.15,1794.25 1645.35,1793.69 1642.00,1794.38
             1635.02,1795.81 1625.12,1799.76 1619.00,1803.40
             1610.87,1808.24 1605.70,1812.40 1599.90,1820.00
             1597.87,1822.67 1594.72,1828.37 1590.99,1828.37
             1586.94,1828.37 1576.22,1816.22 1573.00,1813.00
             1573.00,1813.00 1559.91,1799.00 1559.91,1799.00
             1547.18,1785.32 1536.24,1772.83 1536.00,1753.00
             1535.92,1745.79 1536.59,1735.41 1540.14,1729.00
             1542.04,1725.56 1544.48,1724.20 1546.02,1721.72
             1547.47,1719.37 1547.24,1717.13 1549.51,1714.04
             1552.26,1710.31 1560.69,1704.47 1565.00,1702.48
             1575.33,1697.69 1586.91,1698.00 1598.00,1698.00
             1610.65,1698.00 1618.42,1697.25 1631.00,1700.26
             1631.00,1700.26 1652.00,1704.72 1652.00,1704.72
             1655.12,1705.10 1659.21,1704.62 1661.39,1707.31
             1664.42,1711.06 1660.63,1718.93 1659.61,1723.00
             1658.70,1726.60 1658.95,1735.88 1659.00,1740.00
             1659.11,1748.34 1663.31,1753.31 1661.40,1757.85
             1659.35,1762.71 1650.91,1760.73 1647.00,1759.71
             1633.95,1756.32 1619.28,1744.62 1608.00,1744.00 Z
           M 1491.00,1768.00
           C 1492.06,1774.53 1495.60,1776.37 1499.91,1781.00
             1506.06,1787.60 1516.13,1797.90 1520.94,1805.00
             1527.09,1814.08 1526.73,1821.48 1514.00,1820.98
             1507.82,1820.74 1504.68,1817.48 1500.00,1813.79
             1500.00,1813.79 1478.00,1795.89 1478.00,1795.89
             1478.00,1795.89 1447.00,1773.37 1447.00,1773.37
             1443.52,1770.83 1435.79,1766.49 1434.04,1762.96
             1432.30,1759.48 1434.38,1755.66 1434.82,1752.00
             1435.23,1748.56 1434.48,1744.02 1436.02,1741.01
             1438.26,1736.65 1443.90,1734.12 1448.00,1731.78
             1460.99,1724.34 1472.09,1721.83 1487.00,1722.00
             1487.00,1722.00 1518.00,1725.00 1518.00,1725.00
             1521.64,1725.06 1528.96,1725.34 1531.40,1728.31
             1534.32,1731.87 1531.32,1738.05 1530.51,1742.00
             1529.85,1745.26 1529.99,1748.69 1530.00,1752.00
             1530.05,1763.22 1534.28,1772.24 1539.22,1782.00
             1540.69,1784.92 1541.80,1788.80 1537.85,1790.39
             1534.11,1791.89 1526.35,1787.82 1523.00,1785.96
             1515.15,1781.62 1498.25,1769.38 1491.00,1768.00 Z
           M 1421.00,1741.55
           C 1424.59,1741.73 1426.77,1742.37 1428.26,1746.04
             1429.84,1749.92 1429.34,1756.58 1423.98,1756.72
             1420.36,1756.82 1408.31,1750.45 1411.08,1745.30
             1412.55,1742.56 1418.20,1741.94 1421.00,1741.55 Z
           M 1650.00,1799.42
           C 1657.28,1798.54 1671.82,1799.12 1679.00,1800.47
             1679.00,1800.47 1687.00,1802.67 1687.00,1802.67
             1691.40,1803.72 1698.43,1805.03 1701.70,1808.30
             1704.51,1811.10 1706.49,1819.04 1708.05,1823.00
             1708.05,1823.00 1722.08,1853.00 1722.08,1853.00
             1722.08,1853.00 1736.13,1878.00 1736.13,1878.00
             1737.54,1880.57 1739.89,1884.77 1737.39,1887.40
             1734.84,1890.08 1728.22,1888.61 1725.00,1888.00
             1725.00,1888.00 1716.00,1886.45 1716.00,1886.45
             1708.30,1884.48 1702.30,1881.10 1694.00,1881.00
             1691.36,1880.97 1682.20,1880.06 1682.20,1884.11
             1682.20,1887.42 1690.35,1891.49 1693.00,1893.15
             1703.52,1899.72 1714.12,1905.60 1720.18,1917.00
             1722.54,1921.45 1730.01,1935.48 1721.94,1937.69
             1715.48,1939.45 1698.03,1934.02 1691.00,1932.33
             1664.54,1925.98 1639.63,1914.60 1617.00,1899.51
             1610.17,1894.96 1599.29,1889.11 1595.41,1882.00
             1593.36,1878.23 1593.20,1875.04 1592.34,1871.00
             1587.26,1847.06 1599.62,1821.75 1620.00,1808.88
             1630.11,1802.49 1638.57,1801.05 1650.00,1799.42 Z
           M 1527.15,1828.02
           C 1538.46,1823.99 1562.80,1831.00 1574.00,1835.09
             1580.98,1837.64 1587.58,1837.27 1586.83,1847.00
             1586.83,1847.00 1585.08,1861.00 1585.08,1861.00
             1585.08,1863.64 1586.12,1867.86 1585.65,1869.94
             1584.98,1872.89 1582.86,1873.94 1580.00,1873.29
             1576.44,1872.49 1568.28,1865.83 1565.00,1863.37
             1565.00,1863.37 1536.00,1842.01 1536.00,1842.01
             1531.59,1838.61 1520.74,1833.97 1527.15,1828.02 Z
           M 1740.00,1944.00
           C 1740.24,1942.60 1740.18,1941.69 1741.02,1940.39
             1742.65,1937.87 1752.86,1933.19 1756.00,1931.80
             1758.55,1930.66 1762.09,1929.43 1764.85,1930.60
             1768.35,1932.09 1768.13,1937.64 1765.44,1939.86
             1763.93,1941.11 1760.91,1941.58 1759.00,1941.87
             1759.00,1941.87 1752.00,1942.83 1752.00,1942.83
             1752.00,1942.83 1740.00,1944.00 1740.00,1944.00 Z
           M 3036.00,2811.00
           C 3036.00,2811.00 3161.00,2811.00 3161.00,2811.00
             3161.00,2811.00 3161.00,2997.00 3161.00,2997.00
             3161.00,2997.00 3349.00,2997.00 3349.00,2997.00
             3349.00,2997.00 3349.00,3125.00 3349.00,3125.00
             3349.00,3125.00 3161.00,3125.00 3161.00,3125.00
             3161.00,3125.00 3161.00,3311.00 3161.00,3311.00
             3161.00,3311.00 3036.00,3311.00 3036.00,3311.00
             3036.00,3311.00 3036.00,3125.00 3036.00,3125.00
             3036.00,3125.00 2848.00,3125.00 2848.00,3125.00
             2848.00,3125.00 2848.00,2997.00 2848.00,2997.00
             2848.00,2997.00 3036.00,2997.00 3036.00,2997.00
             3036.00,2997.00 3036.00,2811.00 3036.00,2811.00 Z
           M 2430.00,3174.00
           C 2431.66,3180.98 2434.78,3183.07 2438.05,3189.00
             2438.05,3189.00 2444.98,3203.00 2444.98,3203.00
             2446.24,3205.81 2449.05,3211.00 2448.58,3213.98
             2447.69,3219.67 2433.11,3225.10 2428.00,3227.09
             2411.29,3233.59 2393.81,3237.11 2376.00,3238.96
             2376.00,3238.96 2367.00,3238.96 2367.00,3238.96
             2367.00,3238.96 2357.00,3239.95 2357.00,3239.95
             2357.00,3239.95 2344.00,3239.95 2344.00,3239.95
             2344.00,3239.95 2333.00,3239.00 2333.00,3239.00
             2330.12,3238.98 2325.82,3239.45 2324.03,3236.69
             2322.34,3234.09 2323.64,3230.47 2324.91,3228.00
             2327.42,3223.12 2335.14,3213.85 2338.89,3209.00
             2356.28,3186.50 2366.65,3177.08 2390.00,3161.49
             2396.99,3156.82 2404.82,3150.33 2413.00,3148.34
             2421.03,3146.38 2424.50,3147.48 2429.00,3146.74
             2432.10,3146.24 2434.83,3144.48 2437.95,3146.04
             2441.27,3147.70 2444.61,3154.67 2446.60,3158.00
             2446.60,3158.00 2463.40,3186.00 2463.40,3186.00
             2465.28,3189.11 2470.30,3195.89 2470.67,3199.00
             2471.44,3205.50 2461.07,3211.32 2457.02,3210.16
             2452.72,3208.92 2450.69,3202.73 2448.94,3199.00
             2444.89,3190.36 2439.90,3176.91 2430.00,3174.00 Z
           M 1236.00,3261.00
           C 1236.22,3267.93 1239.28,3273.44 1241.23,3280.00
             1244.09,3289.59 1244.21,3292.43 1245.17,3302.00
             1245.49,3305.21 1247.33,3311.19 1246.36,3313.94
             1244.59,3318.96 1232.77,3320.56 1228.00,3320.91
             1228.00,3320.91 1197.00,3324.00 1197.00,3324.00
             1197.00,3324.00 1174.00,3326.00 1174.00,3326.00
             1174.00,3326.00 1137.00,3327.00 1137.00,3327.00
             1133.61,3326.99 1127.73,3327.41 1126.87,3322.94
             1126.38,3320.38 1130.47,3313.57 1131.75,3311.00
             1138.01,3298.50 1142.18,3290.38 1152.17,3280.09
             1159.83,3272.19 1168.94,3265.94 1178.00,3259.81
             1192.16,3250.22 1214.16,3237.62 1231.00,3234.47
             1231.00,3234.47 1252.00,3232.96 1252.00,3232.96
             1252.00,3232.96 1268.00,3232.96 1268.00,3232.96
             1268.00,3232.96 1277.00,3232.01 1277.00,3232.01
             1279.50,3231.96 1283.52,3231.71 1285.40,3233.60
             1287.54,3235.73 1286.97,3241.11 1287.00,3244.00
             1287.00,3244.00 1289.22,3272.00 1289.22,3272.00
             1289.01,3277.17 1290.51,3284.74 1289.22,3289.00
             1288.01,3294.77 1283.22,3300.91 1278.99,3304.95
             1274.07,3309.64 1268.40,3311.94 1262.00,3313.91
             1259.40,3314.71 1255.80,3315.58 1253.60,3313.40
             1251.44,3311.26 1251.19,3300.36 1250.91,3297.00
             1250.38,3290.76 1245.65,3275.87 1242.93,3270.00
             1240.93,3265.69 1240.31,3263.42 1236.00,3261.00 Z
           M 2043.00,3282.00
           C 2043.00,3282.00 2047.56,3293.00 2047.56,3293.00
             2047.56,3293.00 2053.92,3312.00 2053.92,3312.00
             2054.91,3315.05 2057.42,3322.07 2056.38,3324.95
             2054.51,3330.15 2041.07,3332.24 2036.00,3333.58
             2019.15,3338.04 1990.59,3347.92 1974.00,3348.00
             1974.00,3348.00 1957.00,3348.89 1957.00,3348.89
             1957.00,3348.89 1940.00,3348.89 1940.00,3348.89
             1938.45,3349.00 1935.43,3349.06 1934.02,3348.89
             1925.68,3346.51 1931.00,3337.72 1933.48,3333.00
             1939.18,3322.17 1946.59,3309.83 1955.04,3301.00
             1972.80,3282.42 1987.42,3274.24 2010.00,3262.92
             2021.27,3257.27 2031.06,3252.06 2044.00,3252.00
             2044.00,3252.00 2060.00,3252.00 2060.00,3252.00
             2063.88,3252.08 2066.60,3252.21 2068.57,3256.06
             2068.57,3256.06 2071.34,3266.00 2071.34,3266.00
             2071.34,3266.00 2079.56,3295.00 2079.56,3295.00
             2080.36,3297.78 2083.72,3307.82 2083.48,3310.00
             2082.95,3314.85 2070.73,3323.18 2066.04,3322.56
             2061.41,3321.94 2060.34,3314.76 2059.07,3311.00
             2055.97,3301.75 2053.36,3285.07 2043.00,3282.00 Z" />
</svg>
