<?xml version="1.0" encoding="UTF-8" standalone="no"?>
<!DOCTYPE svg PUBLIC "-//W3C//DTD SVG 20010904//EN"
              "http://www.w3.org/TR/2001/REC-SVG-20010904/DTD/svg10.dtd">

<svg xmlns="http://www.w3.org/2000/svg"
     width="12in" height="12in"
     viewBox="0 0 3600 3600">
  <path id="11 - dark scales"
        fill="none" stroke="black" stroke-width="1"
        d="M 754.00,511.00
           C 754.00,511.00 879.00,511.00 879.00,511.00
             879.00,511.00 879.00,697.00 879.00,697.00
             879.00,697.00 1067.00,697.00 1067.00,697.00
             1067.00,697.00 1067.00,825.00 1067.00,825.00
             1067.00,825.00 879.00,825.00 879.00,825.00
             879.00,825.00 879.00,1011.00 879.00,1011.00
             879.00,1011.00 754.00,1011.00 754.00,1011.00
             754.00,1011.00 754.00,825.00 754.00,825.00
             754.00,825.00 566.00,825.00 566.00,825.00
             566.00,825.00 566.00,697.00 566.00,697.00
             566.00,697.00 754.00,697.00 754.00,697.00
             754.00,697.00 754.00,511.00 754.00,511.00 Z
           M 1559.60,1587.02
           C 1564.07,1585.13 1566.38,1586.78 1571.00,1586.49
             1583.06,1585.72 1588.91,1585.53 1596.57,1596.00
             1597.78,1597.65 1599.81,1600.05 1600.35,1601.98
             1601.89,1607.47 1596.33,1606.87 1593.00,1605.96
             1593.00,1605.96 1572.00,1600.73 1572.00,1600.73
             1572.00,1600.73 1565.00,1596.66 1565.00,1596.66
             1561.19,1594.39 1556.31,1591.97 1559.60,1587.02 Z
           M 1450.60,1606.93
           C 1454.93,1605.18 1457.58,1606.41 1462.00,1606.93
             1467.89,1607.39 1472.03,1605.62 1476.71,1610.15
             1479.12,1612.46 1485.54,1619.74 1481.40,1623.07
             1479.42,1624.52 1475.33,1623.39 1473.00,1623.07
             1462.98,1622.22 1462.18,1625.37 1454.02,1617.00
             1451.04,1613.94 1447.86,1611.16 1450.60,1606.93 Z
           M 1352.60,1619.92
           C 1356.46,1618.49 1357.12,1619.54 1361.00,1619.92
             1365.81,1620.16 1369.65,1617.78 1373.91,1621.31
             1379.01,1625.72 1386.43,1637.77 1373.91,1638.00
             1363.23,1638.20 1362.10,1638.80 1354.89,1630.00
             1352.13,1626.63 1349.77,1624.07 1352.60,1619.92 Z
           M 1261.00,1644.44
           C 1268.80,1643.46 1270.95,1645.39 1275.84,1651.42
             1277.96,1654.07 1280.87,1659.20 1275.84,1660.69
             1269.04,1662.70 1263.75,1659.00 1259.06,1654.58
             1253.86,1649.67 1253.66,1646.11 1261.00,1644.44 Z
           M 1620.60,1680.04
           C 1625.83,1678.11 1631.94,1681.72 1637.00,1683.23
             1637.00,1683.23 1650.98,1687.16 1650.98,1687.16
             1656.10,1689.93 1658.19,1695.77 1655.40,1697.97
             1653.10,1699.79 1647.65,1697.98 1645.00,1697.45
             1641.50,1696.74 1626.18,1693.69 1624.10,1692.26
             1620.23,1689.60 1617.70,1684.12 1620.60,1680.04 Z
           M 1495.60,1700.02
           C 1499.23,1698.47 1513.46,1698.25 1517.00,1700.02
             1519.35,1701.20 1522.11,1704.12 1524.00,1706.00
             1526.32,1708.32 1534.02,1715.45 1529.40,1719.02
             1527.58,1720.35 1523.23,1719.28 1521.00,1719.02
             1509.78,1718.04 1507.62,1719.72 1499.84,1711.00
             1496.87,1707.68 1492.60,1704.54 1495.60,1700.02 Z
           M 1375.60,1717.03
           C 1380.10,1715.23 1384.44,1717.39 1389.00,1718.33
             1399.80,1720.57 1404.68,1717.55 1413.27,1725.67
             1414.82,1727.14 1416.72,1728.88 1417.35,1731.00
             1418.92,1736.35 1410.71,1738.02 1407.00,1739.82
             1396.59,1744.88 1384.08,1738.19 1378.39,1729.00
             1375.96,1725.08 1372.54,1721.41 1375.60,1717.03 Z
           M 1648.60,1768.02
           C 1652.52,1766.35 1664.26,1766.24 1667.82,1768.74
             1667.82,1768.74 1678.17,1780.99 1678.17,1780.99
             1680.65,1783.67 1686.40,1787.86 1687.34,1791.00
             1688.19,1793.79 1686.73,1795.54 1683.94,1795.76
             1683.94,1795.76 1670.00,1793.17 1670.00,1793.17
             1667.29,1792.90 1663.46,1793.32 1661.13,1791.98
             1658.62,1790.54 1655.19,1783.07 1652.98,1780.00
             1650.31,1776.29 1645.57,1772.58 1648.60,1768.02 Z
           M 1525.60,1796.02
           C 1530.69,1793.92 1533.97,1796.59 1539.00,1797.53
             1539.00,1797.53 1550.00,1798.60 1550.00,1798.60
             1553.95,1800.05 1564.48,1811.42 1568.00,1815.00
             1569.79,1816.83 1572.61,1819.49 1573.34,1821.98
             1575.91,1830.69 1561.09,1825.09 1558.00,1824.21
             1558.00,1824.21 1541.00,1821.09 1541.00,1821.09
             1538.39,1820.90 1534.59,1821.38 1532.60,1819.40
             1530.49,1817.30 1531.65,1814.38 1529.20,1809.00
             1527.28,1804.78 1522.65,1800.46 1525.60,1796.02 Z
           M 1712.60,1893.04
           C 1716.77,1891.50 1728.93,1895.25 1735.00,1895.00
             1738.45,1894.57 1741.55,1893.35 1744.90,1895.00
             1747.95,1896.84 1751.30,1902.95 1753.33,1906.00
             1755.96,1909.94 1765.26,1919.91 1759.69,1924.02
             1758.49,1924.90 1754.66,1925.84 1753.00,1926.44
             1748.10,1928.20 1737.06,1935.46 1732.70,1931.40
             1732.70,1931.40 1723.29,1912.00 1723.29,1912.00
             1717.23,1902.45 1708.14,1899.37 1712.60,1893.04 Z
           M 3036.00,2811.00
           C 3036.00,2811.00 3161.00,2811.00 3161.00,2811.00
             3161.00,2811.00 3161.00,2997.00 3161.00,2997.00
             3161.00,2997.00 3349.00,2997.00 3349.00,2997.00
             3349.00,2997.00 3349.00,3125.00 3349.00,3125.00
             3349.00,3125.00 3161.00,3125.00 3161.00,3125.00
             3161.00,3125.00 3161.00,3311.00 3161.00,3311.00
             3161.00,3311.00 3036.00,3311.00 3036.00,3311.00
             3036.00,3311.00 3036.00,3125.00 3036.00,3125.00
             3036.00,3125.00 2848.00,3125.00 2848.00,3125.00
             2848.00,3125.00 2848.00,2997.00 2848.00,2997.00
             2848.00,2997.00 3036.00,2997.00 3036.00,2997.00
             3036.00,2997.00 3036.00,2811.00 3036.00,2811.00 Z" />
</svg>
