<?xml version="1.0" encoding="UTF-8" standalone="no"?>
<!DOCTYPE svg PUBLIC "-//W3C//DTD SVG 20010904//EN"
              "http://www.w3.org/TR/2001/REC-SVG-20010904/DTD/svg10.dtd">

<svg xmlns="http://www.w3.org/2000/svg"
     width="12in" height="12in"
     viewBox="0 0 3600 3600">
  <path id="12 - lines"
        fill="none" stroke="black" stroke-width="1"
        d="M 754.00,511.00
           C 754.00,511.00 879.00,511.00 879.00,511.00
             879.00,511.00 879.00,697.00 879.00,697.00
             879.00,697.00 1067.00,697.00 1067.00,697.00
             1067.00,697.00 1067.00,825.00 1067.00,825.00
             1067.00,825.00 879.00,825.00 879.00,825.00
             879.00,825.00 879.00,1011.00 879.00,1011.00
             879.00,1011.00 754.00,1011.00 754.00,1011.00
             754.00,1011.00 754.00,825.00 754.00,825.00
             754.00,825.00 566.00,825.00 566.00,825.00
             566.00,825.00 566.00,697.00 566.00,697.00
             566.00,697.00 754.00,697.00 754.00,697.00
             754.00,697.00 754.00,511.00 754.00,511.00 Z
           M 2022.00,551.00
           C 2022.00,551.00 2036.00,556.00 2036.00,556.00
             2036.00,556.00 2034.91,572.00 2034.91,572.00
             2034.12,583.54 2033.16,591.34 2036.00,603.00
             2036.00,603.00 2020.00,602.00 2020.00,602.00
             2018.73,586.34 2017.64,566.18 2022.00,551.00 Z
           M 2068.00,606.00
           C 2068.18,597.74 2070.11,589.54 2073.42,582.00
             2074.59,579.36 2076.28,575.39 2079.10,574.20
             2082.42,572.81 2091.95,577.12 2095.00,579.00
             2086.34,585.72 2083.24,596.32 2083.00,607.00
             2083.00,607.00 2068.00,606.00 2068.00,606.00 Z
           M 2103.00,647.00
           C 2103.00,647.00 2120.00,650.71 2120.00,650.71
             2120.00,650.71 2128.00,651.29 2128.00,651.29
             2128.00,651.29 2137.00,652.83 2137.00,652.83
             2137.00,652.83 2156.00,654.66 2156.00,654.66
             2156.00,654.66 2181.00,660.04 2181.00,660.04
             2188.61,661.94 2189.40,663.84 2198.00,663.00
             2198.00,663.00 2198.00,672.00 2198.00,672.00
             2198.00,672.00 2172.00,664.59 2172.00,664.59
             2161.03,661.84 2134.76,658.75 2123.00,657.91
             2119.97,657.70 2105.55,655.20 2103.99,653.26
             2102.82,651.80 2103.02,648.80 2103.00,647.00 Z
           M 1991.00,757.00
           C 1991.00,757.00 2005.00,756.00 2005.00,756.00
             2005.00,756.00 2027.00,756.00 2027.00,756.00
             2034.57,756.01 2036.95,756.87 2044.00,757.72
             2044.00,757.72 2053.00,758.29 2053.00,758.29
             2063.35,759.64 2081.27,764.14 2091.00,767.91
             2121.15,779.59 2152.65,802.78 2174.96,826.00
             2174.96,826.00 2194.15,848.00 2194.15,848.00
             2230.35,889.18 2262.37,938.64 2281.91,990.00
             2285.94,1000.61 2289.87,1011.96 2292.48,1023.00
             2292.48,1023.00 2293.76,1030.00 2293.76,1030.00
             2295.39,1036.37 2298.92,1051.91 2299.00,1058.00
             2299.00,1058.00 2302.00,1096.00 2302.00,1096.00
             2302.00,1096.00 2302.00,1189.00 2302.00,1189.00
             2302.00,1189.00 2302.00,1209.00 2302.00,1209.00
             2302.00,1209.00 2302.96,1221.00 2302.96,1221.00
             2302.96,1221.00 2302.96,1233.00 2302.96,1233.00
             2303.02,1243.63 2308.74,1274.03 2312.55,1284.00
             2312.55,1284.00 2320.00,1297.00 2320.00,1297.00
             2318.03,1296.99 2314.31,1297.26 2312.73,1296.01
             2311.17,1294.77 2309.08,1286.30 2308.48,1284.00
             2305.63,1273.05 2303.09,1262.25 2301.83,1251.00
             2301.83,1251.00 2300.17,1241.00 2300.17,1241.00
             2300.17,1241.00 2299.00,1187.00 2299.00,1187.00
             2299.00,1187.00 2299.00,1097.00 2299.00,1097.00
             2299.00,1097.00 2297.28,1081.00 2297.28,1081.00
             2297.28,1081.00 2295.57,1063.00 2295.57,1063.00
             2295.57,1063.00 2292.45,1049.00 2292.45,1049.00
             2292.45,1049.00 2290.49,1036.00 2290.49,1036.00
             2290.49,1036.00 2281.11,1000.00 2281.11,1000.00
             2267.71,958.72 2245.48,923.06 2220.42,888.00
             2201.73,861.86 2177.30,832.80 2153.00,811.87
             2132.15,793.91 2109.42,778.14 2083.00,769.52
             2067.76,764.54 2057.49,763.58 2042.00,761.86
             2026.30,759.83 2006.43,758.20 1991.00,761.86
             1991.00,761.86 1991.00,757.00 1991.00,757.00 Z
           M 2408.00,768.00
           C 2415.36,771.94 2431.83,783.76 2439.00,789.13
             2446.44,794.70 2462.75,807.09 2468.83,813.17
             2491.60,835.89 2505.05,858.13 2518.31,887.00
             2518.31,887.00 2523.54,898.00 2523.54,898.00
             2523.54,898.00 2542.48,966.00 2542.48,966.00
             2542.48,966.00 2550.49,998.00 2550.49,998.00
             2550.49,998.00 2551.61,1005.00 2551.61,1005.00
             2551.61,1005.00 2553.48,1011.00 2553.48,1011.00
             2553.48,1011.00 2555.01,1020.00 2555.01,1020.00
             2557.38,1030.98 2560.98,1046.02 2561.00,1057.00
             2561.00,1057.00 2561.00,1062.00 2561.00,1062.00
             2561.00,1062.00 2561.91,1072.00 2561.91,1072.00
             2561.91,1072.00 2563.09,1093.00 2563.09,1093.00
             2563.09,1093.00 2564.00,1106.00 2564.00,1106.00
             2564.00,1106.00 2563.00,1127.00 2563.00,1127.00
             2563.00,1127.00 2561.09,1147.00 2561.09,1147.00
             2561.09,1147.00 2560.00,1164.00 2560.00,1164.00
             2559.95,1174.48 2559.04,1173.44 2558.17,1182.00
             2558.17,1182.00 2554.91,1219.00 2554.91,1219.00
             2554.91,1219.00 2552.63,1250.00 2552.63,1250.00
             2552.38,1253.91 2553.22,1255.30 2554.00,1259.00
             2554.00,1259.00 2549.00,1259.00 2549.00,1259.00
             2549.00,1259.00 2549.00,1248.00 2549.00,1248.00
             2549.00,1248.00 2550.91,1229.00 2550.91,1229.00
             2550.91,1229.00 2554.83,1184.00 2554.83,1184.00
             2554.83,1184.00 2559.09,1128.00 2559.09,1128.00
             2559.09,1128.00 2560.97,1105.00 2560.97,1105.00
             2560.97,1105.00 2560.09,1096.00 2560.09,1096.00
             2560.09,1096.00 2557.89,1069.00 2557.89,1069.00
             2557.89,1069.00 2555.43,1058.00 2555.43,1058.00
             2555.43,1058.00 2551.08,1029.00 2551.08,1029.00
             2545.57,996.33 2538.87,963.86 2529.71,932.00
             2529.71,932.00 2520.54,901.00 2520.54,901.00
             2520.54,901.00 2514.42,888.00 2514.42,888.00
             2502.78,861.30 2486.47,836.80 2465.83,816.17
             2458.00,808.34 2448.85,801.51 2440.00,794.87
             2440.00,794.87 2421.00,781.26 2421.00,781.26
             2415.98,777.83 2414.17,775.29 2408.00,774.00
             2408.00,774.00 2408.00,768.00 2408.00,768.00 Z
           M 1991.00,795.00
           C 2012.64,795.00 2029.24,797.51 2050.00,803.58
             2050.00,803.58 2064.00,807.55 2064.00,807.55
             2064.00,807.55 2089.00,819.92 2089.00,819.92
             2114.08,833.49 2126.83,843.83 2147.00,864.00
             2147.00,864.00 2160.68,878.00 2160.68,878.00
             2160.68,878.00 2182.34,909.00 2182.34,909.00
             2182.34,909.00 2199.55,934.00 2199.55,934.00
             2208.27,948.63 2218.59,971.93 2224.81,988.00
             2231.89,1006.27 2237.37,1024.79 2241.33,1044.00
             2241.33,1044.00 2242.51,1052.00 2242.51,1052.00
             2245.04,1064.23 2247.86,1076.49 2248.00,1089.00
             2248.00,1089.00 2251.00,1117.00 2251.00,1117.00
             2251.00,1117.00 2251.00,1126.00 2251.00,1126.00
             2251.00,1126.00 2253.83,1149.00 2253.83,1149.00
             2255.78,1169.39 2260.01,1216.02 2264.47,1234.00
             2267.93,1247.92 2276.31,1275.83 2284.30,1287.00
             2290.77,1296.04 2298.96,1303.69 2306.28,1312.00
             2310.18,1316.42 2313.43,1318.56 2316.00,1324.00
             2307.59,1322.64 2296.58,1308.59 2291.08,1302.00
             2291.08,1302.00 2279.95,1288.00 2279.95,1288.00
             2273.19,1277.23 2269.67,1265.11 2266.26,1253.00
             2260.73,1233.38 2259.39,1228.55 2256.72,1208.00
             2256.72,1208.00 2252.72,1171.00 2252.72,1171.00
             2252.72,1171.00 2250.82,1154.00 2250.82,1154.00
             2250.11,1148.26 2249.63,1150.29 2249.45,1143.00
             2249.45,1143.00 2246.17,1107.00 2246.17,1107.00
             2242.84,1072.62 2237.85,1038.02 2227.25,1005.00
             2221.95,988.47 2205.36,951.79 2196.55,937.00
             2196.55,937.00 2180.02,913.00 2180.02,913.00
             2172.58,902.20 2161.72,884.83 2153.00,876.00
             2153.00,876.00 2130.00,853.30 2130.00,853.30
             2130.00,853.30 2115.00,841.79 2115.00,841.79
             2115.00,841.79 2099.00,829.93 2099.00,829.93
             2099.00,829.93 2085.00,822.69 2085.00,822.69
             2078.95,819.42 2067.07,812.71 2061.00,810.55
             2061.00,810.55 2045.00,806.00 2045.00,806.00
             2035.29,803.21 2028.16,801.14 2018.00,800.17
             2018.00,800.17 2005.00,799.28 2005.00,799.28
             1999.94,798.69 1993.18,800.59 1991.00,795.00 Z
           M 1541.00,1207.00
           C 1541.00,1207.00 1545.46,1181.00 1545.46,1181.00
             1547.59,1170.30 1553.72,1152.98 1558.31,1143.00
             1570.05,1117.42 1587.99,1096.05 1605.12,1074.00
             1605.12,1074.00 1651.13,1012.00 1651.13,1012.00
             1661.67,997.94 1673.13,984.20 1681.99,969.00
             1683.93,965.67 1688.30,953.84 1692.13,953.70
             1702.86,953.31 1699.62,968.63 1696.70,972.41
             1695.76,973.64 1695.24,973.52 1694.00,974.00
             1694.00,974.00 1693.00,969.00 1693.00,969.00
             1689.18,972.34 1682.29,984.45 1678.13,990.00
             1678.13,990.00 1649.64,1028.00 1649.64,1028.00
             1649.64,1028.00 1640.63,1041.00 1640.63,1041.00
             1640.63,1041.00 1617.34,1072.00 1617.34,1072.00
             1601.78,1091.86 1581.68,1115.91 1570.10,1138.00
             1561.52,1154.39 1554.70,1173.76 1551.46,1192.00
             1551.46,1192.00 1550.58,1201.00 1550.58,1201.00
             1550.58,1201.00 1548.18,1224.00 1548.18,1224.00
             1548.18,1224.00 1549.00,1233.00 1549.00,1233.00
             1547.46,1232.88 1545.99,1232.97 1544.65,1232.01
             1542.50,1230.47 1541.58,1226.42 1540.86,1224.00
             1537.82,1213.86 1537.01,1217.69 1537.00,1206.00
             1537.00,1206.00 1541.00,1207.00 1541.00,1207.00 Z
           M 1712.00,1457.00
           C 1712.00,1457.00 1710.00,1429.00 1710.00,1429.00
             1709.93,1414.93 1702.35,1390.43 1698.90,1376.00
             1698.90,1376.00 1694.54,1352.00 1694.54,1352.00
             1694.54,1352.00 1688.49,1323.00 1688.49,1323.00
             1681.53,1291.91 1675.62,1269.54 1676.00,1237.00
             1676.24,1217.17 1682.04,1197.74 1688.12,1179.00
             1694.45,1159.46 1699.29,1143.50 1708.94,1125.00
             1718.38,1106.92 1728.25,1094.89 1735.69,1075.00
             1736.64,1072.47 1738.54,1065.55 1738.43,1063.00
             1738.27,1059.52 1735.76,1057.00 1737.11,1054.33
             1738.38,1051.83 1747.32,1051.22 1750.00,1051.00
             1748.78,1054.43 1748.16,1054.31 1745.00,1056.00
             1755.07,1060.29 1756.00,1062.90 1756.00,1073.00
             1751.08,1071.58 1748.74,1068.67 1746.56,1069.91
             1745.00,1070.80 1743.90,1075.27 1743.33,1077.00
             1741.20,1083.42 1739.23,1088.02 1736.06,1094.00
             1736.06,1094.00 1718.14,1125.00 1718.14,1125.00
             1714.57,1131.03 1713.34,1131.83 1709.94,1139.00
             1709.94,1139.00 1702.47,1158.00 1702.47,1158.00
             1695.53,1176.85 1687.73,1201.33 1684.56,1221.00
             1683.73,1226.16 1681.96,1239.18 1682.32,1244.00
             1684.01,1266.52 1686.89,1284.95 1691.67,1307.00
             1691.67,1307.00 1696.72,1328.00 1696.72,1328.00
             1696.72,1328.00 1706.51,1378.00 1706.51,1378.00
             1706.51,1378.00 1714.49,1409.00 1714.49,1409.00
             1715.90,1415.84 1717.99,1436.83 1718.00,1444.00
             1718.00,1444.00 1720.00,1469.00 1720.00,1469.00
             1710.14,1468.10 1709.38,1463.96 1708.00,1455.00
             1708.00,1455.00 1712.00,1457.00 1712.00,1457.00 Z
           M 1951.00,1226.00
           C 1952.92,1226.46 1962.17,1229.78 1963.28,1230.82
             1965.86,1233.26 1966.84,1241.50 1967.00,1245.00
             1967.00,1245.00 1960.00,1243.00 1960.00,1243.00
             1960.00,1243.00 1963.96,1283.00 1963.96,1283.00
             1964.30,1291.86 1960.87,1316.50 1959.28,1326.00
             1953.61,1360.00 1943.15,1392.31 1932.52,1425.00
             1932.52,1425.00 1915.97,1480.00 1915.97,1480.00
             1915.97,1480.00 1910.49,1495.00 1910.49,1495.00
             1902.88,1521.75 1896.66,1548.70 1891.54,1576.00
             1889.19,1588.54 1883.14,1619.68 1883.00,1631.00
             1883.00,1631.00 1883.00,1647.00 1883.00,1647.00
             1883.01,1655.61 1883.92,1656.32 1884.85,1664.00
             1884.85,1664.00 1886.32,1677.00 1886.32,1677.00
             1886.32,1677.00 1888.34,1685.00 1888.34,1685.00
             1894.34,1711.80 1904.45,1735.26 1918.22,1759.00
             1929.16,1777.84 1941.86,1794.95 1955.34,1812.00
             1993.00,1859.65 2040.58,1902.44 2097.00,1926.44
             2120.71,1936.53 2145.98,1942.76 2171.00,1948.50
             2171.00,1948.50 2202.00,1956.34 2202.00,1956.34
             2202.00,1956.34 2254.00,1970.50 2254.00,1970.50
             2279.91,1978.81 2312.54,1991.83 2329.40,2014.00
             2337.30,2024.38 2343.51,2039.10 2345.56,2052.00
             2345.56,2052.00 2349.00,2083.00 2349.00,2083.00
             2349.00,2083.00 2339.00,2083.00 2339.00,2083.00
             2339.79,2067.45 2338.51,2050.62 2332.83,2036.00
             2321.71,2007.36 2294.28,1992.56 2267.00,1982.47
             2221.06,1965.50 2172.69,1957.82 2126.00,1943.57
             2113.42,1939.73 2101.00,1935.42 2089.00,1929.99
             2021.58,1899.43 1965.27,1841.01 1924.93,1780.00
             1903.90,1748.21 1886.84,1712.03 1881.71,1674.00
             1880.64,1666.02 1879.01,1660.39 1879.00,1652.00
             1879.00,1652.00 1879.00,1630.00 1879.00,1630.00
             1879.01,1621.94 1880.49,1613.97 1881.58,1606.00
             1881.58,1606.00 1882.44,1596.00 1882.44,1596.00
             1882.44,1596.00 1890.49,1556.00 1890.49,1556.00
             1890.49,1556.00 1891.51,1546.00 1891.51,1546.00
             1891.51,1546.00 1896.32,1527.00 1896.32,1527.00
             1896.32,1527.00 1915.57,1457.00 1915.57,1457.00
             1926.76,1419.70 1940.26,1383.08 1948.51,1345.00
             1948.51,1345.00 1953.56,1322.00 1953.56,1322.00
             1953.56,1322.00 1954.30,1314.00 1954.30,1314.00
             1955.42,1306.24 1956.99,1298.92 1957.00,1291.00
             1957.00,1291.00 1957.00,1277.00 1957.00,1277.00
             1957.00,1277.00 1954.06,1255.00 1954.06,1255.00
             1954.06,1255.00 1954.06,1240.00 1954.06,1240.00
             1954.06,1240.00 1951.00,1226.00 1951.00,1226.00 Z
           M 2013.00,1345.00
           C 2013.00,1345.00 2021.00,1344.00 2021.00,1344.00
             2021.00,1344.00 2020.00,1359.00 2020.00,1359.00
             2020.00,1359.00 2016.00,1359.00 2016.00,1359.00
             2014.54,1367.95 2003.95,1385.70 1999.00,1394.00
             1989.64,1409.70 1980.70,1426.22 1973.42,1443.00
             1961.35,1470.85 1954.48,1492.20 1945.80,1521.00
             1945.80,1521.00 1940.60,1535.00 1940.60,1535.00
             1935.84,1551.47 1931.80,1577.88 1932.00,1595.00
             1932.00,1595.00 1934.06,1614.00 1934.06,1614.00
             1934.06,1614.00 1934.06,1622.00 1934.06,1622.00
             1934.06,1622.00 1936.54,1633.00 1936.54,1633.00
             1941.76,1660.80 1952.41,1689.47 1966.61,1714.00
             1976.29,1730.70 1988.01,1746.20 2003.00,1758.54
             2023.76,1775.62 2050.28,1786.76 2074.00,1799.10
             2074.00,1799.10 2139.00,1832.43 2139.00,1832.43
             2153.81,1838.82 2169.50,1843.68 2185.00,1848.09
             2212.93,1856.04 2240.81,1864.32 2268.00,1874.58
             2291.81,1883.56 2307.99,1889.76 2325.91,1909.00
             2347.02,1931.67 2358.01,1963.31 2364.66,1993.00
             2366.91,2003.03 2369.98,2017.87 2370.00,2028.00
             2370.00,2028.00 2371.00,2082.00 2371.00,2082.00
             2371.00,2082.00 2361.00,2082.00 2361.00,2082.00
             2361.00,2082.00 2361.00,2054.00 2361.00,2054.00
             2361.00,2054.00 2362.00,2039.00 2362.00,2039.00
             2362.20,2021.52 2360.34,2008.96 2356.50,1992.00
             2350.53,1965.64 2341.61,1937.90 2323.70,1917.00
             2305.39,1895.63 2288.46,1888.88 2263.00,1879.47
             2263.00,1879.47 2188.00,1855.23 2188.00,1855.23
             2166.82,1848.94 2149.29,1843.86 2129.00,1834.53
             2129.00,1834.53 2068.00,1802.59 2068.00,1802.59
             2044.86,1790.69 2019.11,1779.09 1999.00,1762.54
             1987.80,1753.32 1977.55,1741.05 1969.51,1729.00
             1963.52,1720.01 1959.72,1712.54 1954.91,1703.00
             1954.91,1703.00 1948.89,1692.00 1948.89,1692.00
             1940.90,1675.22 1935.89,1657.07 1931.99,1639.00
             1930.28,1631.11 1927.09,1612.67 1927.00,1605.00
             1927.00,1605.00 1927.00,1584.00 1927.00,1584.00
             1927.01,1576.35 1928.05,1572.37 1929.25,1565.00
             1929.25,1565.00 1930.51,1555.00 1930.51,1555.00
             1934.70,1534.70 1940.97,1514.71 1947.41,1495.00
             1947.41,1495.00 1955.13,1472.00 1955.13,1472.00
             1955.13,1472.00 1956.95,1464.00 1956.95,1464.00
             1956.95,1464.00 1965.85,1442.00 1965.85,1442.00
             1973.70,1423.72 1983.44,1406.20 1993.42,1389.00
             2001.13,1375.71 2010.28,1360.25 2013.00,1345.00 Z
           M 2546.04,1354.00
           C 2546.04,1354.00 2551.00,1354.00 2551.00,1354.00
             2551.00,1354.00 2551.00,1372.00 2551.00,1372.00
             2551.00,1372.00 2552.00,1388.00 2552.00,1388.00
             2552.00,1388.00 2552.00,1417.00 2552.00,1417.00
             2552.02,1428.05 2557.82,1454.06 2560.19,1466.00
             2560.19,1466.00 2561.30,1475.00 2561.30,1475.00
             2561.30,1475.00 2563.56,1486.00 2563.56,1486.00
             2563.56,1486.00 2564.30,1494.00 2564.30,1494.00
             2564.30,1494.00 2566.56,1505.00 2566.56,1505.00
             2566.56,1505.00 2567.46,1513.00 2567.46,1513.00
             2567.46,1513.00 2569.49,1521.00 2569.49,1521.00
             2569.49,1521.00 2570.46,1529.00 2570.46,1529.00
             2570.46,1529.00 2572.54,1538.00 2572.54,1538.00
             2572.54,1538.00 2575.00,1566.00 2575.00,1566.00
             2575.00,1566.00 2575.00,1622.00 2575.00,1622.00
             2575.00,1622.00 2574.04,1634.00 2574.04,1634.00
             2574.04,1634.00 2574.04,1648.00 2574.04,1648.00
             2574.04,1648.00 2572.96,1660.00 2572.96,1660.00
             2572.96,1660.00 2572.96,1669.00 2572.96,1669.00
             2572.96,1669.00 2567.61,1699.00 2567.61,1699.00
             2559.54,1742.67 2543.56,1785.86 2529.51,1828.00
             2529.51,1828.00 2508.86,1891.00 2508.86,1891.00
             2506.60,1897.57 2503.08,1911.82 2500.00,1917.00
             2500.00,1917.00 2500.00,1899.00 2500.00,1899.00
             2500.02,1888.85 2504.13,1879.45 2507.46,1870.00
             2507.46,1870.00 2522.80,1825.00 2522.80,1825.00
             2538.60,1777.85 2556.15,1731.15 2564.68,1682.00
             2564.68,1682.00 2566.28,1668.00 2566.28,1668.00
             2566.28,1668.00 2569.00,1637.00 2569.00,1637.00
             2569.00,1637.00 2569.00,1557.00 2569.00,1557.00
             2568.98,1544.18 2565.24,1531.59 2563.29,1519.00
             2563.29,1519.00 2553.54,1458.00 2553.54,1458.00
             2553.54,1458.00 2548.11,1432.00 2548.11,1432.00
             2548.11,1432.00 2548.11,1422.00 2548.11,1422.00
             2548.11,1422.00 2547.00,1411.00 2547.00,1411.00
             2547.00,1411.00 2547.00,1381.00 2547.00,1381.00
             2547.00,1381.00 2546.04,1371.00 2546.04,1371.00
             2546.04,1371.00 2546.04,1354.00 2546.04,1354.00 Z
           M 2407.00,1378.00
           C 2417.09,1377.78 2423.73,1376.46 2433.00,1372.43
             2440.87,1369.01 2448.23,1363.48 2457.00,1363.00
             2456.00,1368.86 2452.86,1369.44 2448.00,1372.20
             2439.92,1376.79 2427.33,1382.88 2418.00,1383.00
             2412.47,1383.07 2408.92,1384.00 2407.00,1378.00 Z
           M 941.00,1415.00
           C 957.45,1409.51 970.56,1404.35 988.00,1401.32
             988.00,1401.32 1005.00,1399.83 1005.00,1399.83
             1005.00,1399.83 1027.00,1398.00 1027.00,1398.00
             1027.00,1398.00 1048.00,1400.00 1048.00,1400.00
             1048.00,1400.00 1059.00,1400.00 1059.00,1400.00
             1059.00,1400.00 1090.00,1403.72 1090.00,1403.72
             1101.63,1405.23 1113.70,1407.36 1125.00,1410.56
             1127.99,1411.40 1135.33,1413.13 1137.01,1415.57
             1138.51,1417.75 1138.00,1426.05 1138.00,1429.00
             1138.00,1429.00 1103.00,1419.62 1103.00,1419.62
             1103.00,1419.62 1094.00,1418.54 1094.00,1418.54
             1094.00,1418.54 1080.00,1416.00 1080.00,1416.00
             1080.00,1416.00 1072.00,1416.00 1072.00,1416.00
             1072.00,1416.00 1063.00,1414.29 1063.00,1414.29
             1063.00,1414.29 1045.00,1413.00 1045.00,1413.00
             1045.00,1413.00 1010.00,1413.00 1010.00,1413.00
             987.93,1413.03 961.37,1421.85 941.00,1430.00
             941.00,1430.00 941.00,1415.00 941.00,1415.00 Z
           M 1709.00,1453.00
           C 1709.00,1453.00 1710.00,1453.00 1710.00,1453.00
             1710.00,1453.00 1709.00,1454.00 1709.00,1454.00
             1709.00,1454.00 1709.00,1453.00 1709.00,1453.00 Z
           M 943.00,1476.00
           C 943.00,1476.00 964.00,1470.50 964.00,1470.50
             977.55,1467.30 995.17,1464.16 1009.00,1464.00
             1009.00,1464.00 1024.00,1463.04 1024.00,1463.04
             1024.00,1463.04 1035.00,1463.04 1035.00,1463.04
             1035.00,1463.04 1045.00,1464.00 1045.00,1464.00
             1061.11,1464.19 1077.46,1468.40 1093.00,1472.34
             1103.85,1475.09 1115.69,1479.31 1126.00,1483.72
             1129.12,1485.05 1136.26,1487.50 1137.98,1490.27
             1139.50,1492.72 1139.00,1500.83 1139.00,1504.00
             1132.37,1502.36 1126.34,1498.72 1120.00,1496.20
             1107.22,1491.12 1094.32,1486.71 1081.00,1483.28
             1071.86,1480.94 1047.14,1477.01 1038.00,1477.00
             1038.00,1477.00 1015.00,1477.00 1015.00,1477.00
             1006.02,1477.01 1006.23,1478.07 999.00,1478.83
             980.65,1480.75 961.23,1484.16 944.00,1491.00
             944.00,1491.00 943.00,1476.00 943.00,1476.00 Z
           M 2399.00,1547.00
           C 2391.07,1539.21 2407.52,1531.25 2410.71,1531.50
             2412.52,1531.65 2413.03,1533.04 2413.00,1533.00
             2413.00,1533.00 2418.00,1532.00 2418.00,1532.00
             2415.80,1538.83 2411.31,1537.58 2410.60,1543.01
             2410.22,1545.93 2412.48,1554.81 2413.26,1558.00
             2413.26,1558.00 2419.71,1583.00 2419.71,1583.00
             2426.05,1606.30 2431.26,1630.10 2434.70,1654.00
             2434.70,1654.00 2439.00,1700.00 2439.00,1700.00
             2439.00,1700.00 2440.00,1719.00 2440.00,1719.00
             2440.00,1719.00 2440.00,1734.00 2440.00,1734.00
             2440.00,1734.00 2439.00,1748.00 2439.00,1748.00
             2438.86,1760.05 2437.69,1772.19 2435.18,1784.00
             2433.05,1794.03 2430.03,1800.33 2430.00,1811.00
             2430.00,1811.00 2420.00,1811.00 2420.00,1811.00
             2420.00,1811.00 2420.00,1802.00 2420.00,1802.00
             2420.00,1802.00 2423.00,1802.00 2423.00,1802.00
             2423.00,1802.00 2429.00,1774.00 2429.00,1774.00
             2429.00,1774.00 2433.00,1733.00 2433.00,1733.00
             2433.00,1733.00 2433.00,1712.00 2433.00,1712.00
             2433.00,1712.00 2431.09,1690.00 2431.09,1690.00
             2431.09,1690.00 2429.83,1670.00 2429.83,1670.00
             2429.83,1670.00 2428.29,1661.00 2428.29,1661.00
             2428.29,1661.00 2426.70,1646.00 2426.70,1646.00
             2426.70,1646.00 2418.80,1606.00 2418.80,1606.00
             2418.80,1606.00 2407.09,1560.00 2407.09,1560.00
             2406.09,1554.66 2406.76,1545.14 2399.00,1547.00 Z
           M 753.00,1705.00
           C 755.74,1705.52 759.23,1706.13 760.23,1709.21
             760.90,1711.27 759.28,1720.20 759.09,1723.00
             759.09,1723.00 758.00,1755.00 758.00,1755.00
             758.00,1755.00 759.04,1765.00 759.04,1765.00
             759.04,1765.00 759.04,1775.00 759.04,1775.00
             759.04,1775.00 761.68,1789.00 761.68,1789.00
             766.61,1817.40 777.17,1842.11 791.61,1867.00
             799.65,1880.84 810.85,1898.00 821.29,1910.00
             821.29,1910.00 847.96,1937.00 847.96,1937.00
             847.96,1937.00 882.00,1971.83 882.00,1971.83
             899.25,1987.43 918.15,2000.58 933.83,2018.00
             948.00,2033.75 958.97,2051.91 969.80,2070.00
             990.31,2104.27 1008.67,2141.33 1015.28,2181.00
             1015.28,2181.00 1016.96,2189.00 1016.96,2189.00
             1016.96,2189.00 1016.96,2197.00 1016.96,2197.00
             1016.96,2197.00 1018.00,2209.00 1018.00,2209.00
             1018.00,2209.00 1018.00,2256.00 1018.00,2256.00
             1018.00,2256.00 1015.17,2277.00 1015.17,2277.00
             1014.04,2288.84 1017.27,2283.75 1014.00,2300.00
             1003.36,2297.96 1006.58,2293.87 1007.70,2286.00
             1007.70,2286.00 1008.73,2275.00 1008.73,2275.00
             1010.19,2264.77 1011.98,2253.29 1011.96,2243.00
             1011.96,2243.00 1011.96,2230.00 1011.96,2230.00
             1011.96,2230.00 1011.00,2218.00 1011.00,2218.00
             1011.00,2218.00 1011.00,2191.00 1011.00,2191.00
             1010.91,2183.93 1006.48,2164.04 1004.22,2157.00
             1004.22,2157.00 1000.52,2148.00 1000.52,2148.00
             992.31,2126.22 984.97,2109.46 973.66,2089.00
             959.83,2063.97 941.94,2035.49 921.98,2015.04
             921.98,2015.04 880.01,1978.87 880.01,1978.87
             880.01,1978.87 847.00,1946.00 847.00,1946.00
             833.52,1932.52 819.42,1919.25 807.90,1904.00
             807.90,1904.00 796.50,1887.00 796.50,1887.00
             775.34,1854.66 760.64,1824.44 754.71,1786.00
             753.56,1778.55 752.01,1771.62 752.00,1764.00
             752.00,1764.00 752.00,1724.00 752.00,1724.00
             751.85,1711.42 750.10,1719.45 753.00,1705.00 Z
           M 2307.00,2182.00
           C 2307.33,2175.16 2311.82,2164.36 2310.42,2159.00
             2309.32,2154.80 2303.93,2149.81 2301.16,2146.00
             2296.15,2139.10 2293.70,2132.58 2294.04,2124.00
             2294.19,2120.04 2296.04,2110.19 2300.27,2108.88
             2300.27,2108.88 2311.00,2108.88 2311.00,2108.88
             2307.34,2117.64 2304.70,2116.23 2305.02,2127.00
             2305.48,2143.00 2320.94,2143.38 2321.91,2159.00
             2322.37,2166.53 2318.65,2174.28 2318.00,2182.00
             2318.00,2182.00 2307.00,2182.00 2307.00,2182.00 Z
           M 2407.00,2183.00
           C 2396.90,2182.67 2401.52,2177.90 2395.79,2168.00
             2395.79,2168.00 2388.07,2158.00 2388.07,2158.00
             2383.09,2149.75 2378.04,2134.61 2378.00,2125.00
             2377.97,2117.25 2376.99,2114.26 2385.00,2114.00
             2385.00,2129.73 2384.65,2137.27 2392.12,2152.00
             2397.45,2162.50 2406.67,2169.96 2407.00,2183.00 Z
           M 2486.00,2122.00
           C 2486.00,2122.00 2492.00,2122.00 2492.00,2122.00
             2488.98,2134.41 2496.64,2135.77 2495.59,2147.00
             2494.86,2154.78 2491.24,2160.26 2488.95,2167.00
             2488.95,2167.00 2485.00,2184.00 2485.00,2184.00
             2485.00,2184.00 2478.00,2184.00 2478.00,2184.00
             2475.23,2174.89 2465.41,2178.16 2465.09,2168.96
             2464.89,2163.06 2472.19,2146.85 2475.79,2142.04
             2478.92,2137.86 2483.10,2135.71 2484.98,2132.00
             2486.33,2129.33 2486.00,2125.00 2486.00,2122.00 Z
           M 2411.00,2123.57
           C 2419.16,2122.28 2425.57,2126.99 2429.45,2134.00
             2436.39,2146.56 2438.41,2169.36 2421.00,2174.36
             2410.34,2177.43 2408.01,2171.65 2403.55,2164.00
             2401.99,2161.31 2400.36,2159.08 2399.56,2156.00
             2396.81,2145.48 2399.81,2127.95 2411.00,2123.57 Z
           M 2510.00,2123.00
           C 2510.00,2123.00 2524.00,2124.00 2524.00,2124.00
             2524.00,2124.00 2515.70,2159.00 2515.70,2159.00
             2515.70,2159.00 2517.92,2174.00 2517.92,2174.00
             2517.92,2174.00 2517.92,2184.00 2517.92,2184.00
             2517.92,2184.00 2504.00,2184.00 2504.00,2184.00
             2504.00,2184.00 2501.19,2162.00 2501.19,2162.00
             2501.19,2162.00 2510.00,2123.00 2510.00,2123.00 Z
           M 2442.00,2178.00
           C 2447.41,2183.48 2443.29,2187.20 2446.85,2191.80
             2448.95,2194.51 2451.11,2193.61 2452.57,2190.92
             2452.57,2190.92 2457.00,2178.00 2457.00,2178.00
             2457.00,2178.00 2459.81,2178.00 2459.81,2178.00
             2461.61,2184.62 2461.44,2194.40 2459.81,2201.00
             2459.81,2201.00 2456.34,2210.00 2456.34,2210.00
             2454.45,2215.77 2454.50,2218.58 2450.70,2223.95
             2444.12,2233.26 2440.57,2230.52 2434.00,2228.54
             2432.08,2227.95 2429.31,2228.04 2428.02,2226.40
             2425.62,2223.35 2428.14,2216.33 2428.97,2213.00
             2433.55,2194.36 2431.57,2195.03 2442.00,2178.00 Z
           M 817.00,2190.00
           C 817.00,2190.00 825.00,2189.00 825.00,2189.00
             825.00,2189.00 826.17,2201.00 826.17,2201.00
             826.17,2201.00 828.00,2222.00 828.00,2222.00
             828.00,2222.00 827.00,2236.00 827.00,2236.00
             827.00,2236.00 825.17,2261.00 825.17,2261.00
             825.17,2261.00 823.83,2280.00 823.83,2280.00
             822.93,2289.39 816.59,2318.86 813.80,2328.00
             813.80,2328.00 804.05,2354.00 804.05,2354.00
             804.05,2354.00 783.42,2409.00 783.42,2409.00
             783.42,2409.00 773.00,2441.00 773.00,2441.00
             773.00,2441.00 754.43,2498.00 754.43,2498.00
             754.43,2498.00 749.12,2520.00 749.12,2520.00
             745.26,2536.26 740.84,2552.31 739.04,2569.00
             739.04,2569.00 739.04,2579.00 739.04,2579.00
             739.04,2579.00 738.00,2591.00 738.00,2591.00
             738.00,2591.00 738.00,2617.00 738.00,2617.00
             738.00,2617.00 739.04,2628.00 739.04,2628.00
             739.04,2628.00 739.04,2638.00 739.04,2638.00
             739.04,2638.00 741.56,2651.00 741.56,2651.00
             741.56,2651.00 743.13,2662.00 743.13,2662.00
             743.13,2662.00 747.01,2680.69 747.01,2680.69
             748.20,2682.40 749.22,2682.43 751.00,2683.00
             751.00,2683.00 751.00,2695.00 751.00,2695.00
             751.00,2695.00 743.00,2695.00 743.00,2695.00
             743.00,2695.00 734.00,2630.00 734.00,2630.00
             734.00,2630.00 734.00,2620.00 734.00,2620.00
             734.00,2620.00 733.09,2607.00 733.09,2607.00
             733.09,2607.00 733.96,2600.00 733.96,2600.00
             733.96,2600.00 733.96,2586.00 733.96,2586.00
             734.02,2572.45 740.35,2539.10 743.51,2525.00
             750.99,2491.62 773.95,2423.08 786.42,2390.00
             786.42,2390.00 811.09,2324.00 811.09,2324.00
             811.09,2324.00 820.83,2277.00 820.83,2277.00
             820.83,2277.00 822.17,2258.00 822.17,2258.00
             822.17,2258.00 824.00,2233.00 824.00,2233.00
             824.00,2233.00 824.96,2220.00 824.96,2220.00
             824.96,2220.00 823.00,2202.00 823.00,2202.00
             823.00,2202.00 817.00,2202.00 817.00,2202.00
             817.00,2202.00 817.00,2190.00 817.00,2190.00 Z
           M 1446.00,2208.00
           C 1446.00,2208.00 1457.00,2215.00 1457.00,2215.00
             1457.00,2215.00 1440.00,2244.80 1440.00,2244.80
             1440.00,2244.80 1449.00,2244.80 1449.00,2244.80
             1449.00,2244.80 1475.00,2246.00 1475.00,2246.00
             1475.00,2246.00 1477.00,2213.00 1477.00,2213.00
             1480.19,2214.54 1492.46,2220.84 1493.98,2223.39
             1495.14,2225.46 1494.08,2230.37 1493.98,2233.00
             1493.75,2243.94 1493.35,2242.18 1492.15,2252.00
             1491.68,2255.91 1491.66,2259.69 1488.70,2262.72
             1484.54,2266.99 1479.20,2265.90 1474.00,2265.28
             1474.00,2265.28 1462.00,2264.72 1462.00,2264.72
             1457.17,2264.14 1449.49,2262.52 1445.00,2263.60
             1436.43,2265.66 1431.99,2271.08 1426.00,2277.00
             1426.00,2277.00 1414.61,2287.10 1414.61,2287.10
             1414.61,2287.10 1400.48,2311.00 1400.48,2311.00
             1397.98,2315.40 1391.36,2325.66 1390.51,2330.00
             1390.51,2330.00 1392.00,2346.00 1392.00,2346.00
             1392.00,2346.00 1392.00,2422.00 1392.00,2422.00
             1392.00,2422.00 1392.00,2462.00 1392.00,2462.00
             1391.98,2472.36 1387.88,2476.19 1382.85,2485.00
             1379.98,2490.03 1376.61,2496.69 1373.00,2501.00
             1373.00,2501.00 1373.00,2401.00 1373.00,2401.00
             1373.00,2401.00 1373.00,2374.00 1373.00,2374.00
             1373.07,2368.10 1374.73,2366.41 1372.00,2361.00
             1372.00,2361.00 1349.47,2407.00 1349.47,2407.00
             1349.47,2407.00 1333.00,2441.00 1333.00,2441.00
             1333.00,2441.00 1342.44,2391.00 1342.44,2391.00
             1342.44,2391.00 1367.14,2343.00 1367.14,2343.00
             1367.14,2343.00 1378.03,2322.00 1378.03,2322.00
             1378.03,2322.00 1384.50,2312.00 1384.50,2312.00
             1384.50,2312.00 1416.40,2257.00 1416.40,2257.00
             1416.40,2257.00 1446.00,2208.00 1446.00,2208.00 Z
           M 2342.79,2224.00
           C 2342.79,2224.00 2346.00,2224.00 2346.00,2224.00
             2346.00,2224.00 2342.17,2257.00 2342.17,2257.00
             2339.74,2282.47 2340.09,2308.93 2345.58,2334.00
             2345.58,2334.00 2348.44,2348.00 2348.44,2348.00
             2353.81,2366.22 2366.52,2382.04 2383.00,2391.43
             2392.37,2396.77 2402.46,2400.98 2413.00,2403.34
             2437.05,2408.72 2462.34,2408.39 2483.00,2424.00
             2483.00,2424.00 2475.00,2427.00 2475.00,2427.00
             2470.64,2418.00 2457.01,2415.49 2448.00,2413.15
             2448.00,2413.15 2415.00,2407.48 2415.00,2407.48
             2402.46,2404.77 2387.79,2398.83 2377.00,2391.95
             2356.80,2379.06 2347.65,2359.67 2342.79,2337.00
             2334.26,2299.83 2338.08,2261.33 2342.79,2224.00 Z
           M 2367.00,2224.00
           C 2367.00,2224.00 2370.00,2224.00 2370.00,2224.00
             2370.00,2239.80 2369.54,2260.85 2373.74,2276.00
             2382.20,2306.51 2408.63,2329.69 2438.00,2339.49
             2467.24,2349.23 2485.42,2344.22 2511.00,2355.42
             2519.81,2359.28 2526.71,2364.58 2532.83,2372.01
             2538.81,2379.28 2535.11,2380.39 2544.00,2385.00
             2544.00,2385.00 2534.00,2391.00 2534.00,2391.00
             2533.26,2377.54 2521.21,2366.72 2510.00,2360.78
             2500.43,2355.71 2484.83,2352.22 2474.00,2350.94
             2474.00,2350.94 2465.00,2350.94 2465.00,2350.94
             2455.11,2349.43 2439.23,2345.29 2430.00,2341.55
             2400.50,2329.60 2376.71,2305.48 2369.50,2274.00
             2366.45,2260.71 2367.00,2238.11 2367.00,2224.00 Z
           M 782.00,2256.00
           C 784.88,2256.54 789.38,2257.58 790.93,2260.39
             792.26,2262.81 790.55,2265.64 789.83,2268.00
             789.83,2268.00 785.69,2282.00 785.69,2282.00
             785.69,2282.00 757.80,2354.00 757.80,2354.00
             749.24,2375.17 740.26,2396.06 733.72,2418.00
             724.98,2447.32 719.29,2478.03 713.20,2508.00
             708.77,2529.80 700.26,2552.80 700.00,2575.00
             700.00,2575.00 699.00,2593.00 699.00,2593.00
             699.00,2593.00 700.00,2607.00 700.00,2607.00
             700.05,2616.83 699.72,2616.91 701.27,2627.00
             701.27,2627.00 702.83,2636.00 702.83,2636.00
             705.14,2658.72 708.65,2681.62 713.28,2704.00
             713.28,2704.00 718.39,2724.00 718.39,2724.00
             719.82,2729.51 718.16,2731.85 725.00,2733.00
             724.84,2740.14 724.69,2742.54 717.00,2743.00
             717.00,2743.00 710.83,2717.01 710.83,2717.01
             709.26,2711.86 707.99,2712.11 706.82,2706.99
             706.82,2706.99 705.54,2697.00 705.54,2697.00
             705.54,2697.00 699.83,2656.00 699.83,2656.00
             699.83,2656.00 698.06,2647.00 698.06,2647.00
             698.06,2647.00 698.06,2638.00 698.06,2638.00
             698.06,2638.00 695.00,2614.00 695.00,2614.00
             695.00,2614.00 695.00,2579.00 695.00,2579.00
             695.03,2558.98 706.19,2524.91 710.40,2504.00
             710.40,2504.00 725.63,2435.00 725.63,2435.00
             725.63,2435.00 731.02,2414.00 731.02,2414.00
             740.58,2383.14 754.01,2354.00 765.80,2324.00
             765.80,2324.00 776.95,2295.00 776.95,2295.00
             776.95,2295.00 786.00,2271.00 786.00,2271.00
             786.00,2271.00 780.00,2270.00 780.00,2270.00
             780.00,2270.00 782.00,2256.00 782.00,2256.00 Z
           M 1655.00,2315.00
           C 1657.92,2316.26 1666.34,2320.22 1668.09,2322.63
             1669.92,2325.40 1668.51,2331.79 1668.09,2335.00
             1668.09,2335.00 1665.00,2368.00 1665.00,2368.00
             1661.29,2366.21 1651.93,2361.25 1649.99,2357.82
             1648.41,2354.91 1649.81,2350.31 1649.99,2347.00
             1650.25,2340.65 1652.64,2320.10 1655.00,2315.00 Z
           M 958.00,2510.00
           C 958.00,2510.00 973.00,2513.00 973.00,2513.00
             973.00,2513.00 960.00,2562.00 960.00,2562.00
             957.06,2560.83 947.48,2557.81 946.06,2555.50
             944.61,2553.12 947.37,2545.76 948.20,2543.00
             948.20,2543.00 958.00,2510.00 958.00,2510.00 Z
           M 1271.00,2593.00
           C 1271.00,2593.00 1285.00,2596.00 1285.00,2596.00
             1282.68,2605.52 1278.12,2641.21 1278.00,2651.00
             1278.00,2651.00 1276.00,2681.00 1276.00,2681.00
             1272.90,2680.51 1265.91,2678.89 1263.99,2676.30
             1262.47,2674.25 1262.97,2664.91 1263.00,2662.00
             1263.00,2662.00 1264.83,2645.00 1264.83,2645.00
             1264.83,2645.00 1266.17,2626.00 1266.17,2626.00
             1266.17,2626.00 1267.73,2617.00 1267.73,2617.00
             1267.73,2617.00 1269.18,2604.00 1269.18,2604.00
             1269.77,2599.30 1270.70,2599.20 1271.00,2593.00 Z
           M 2292.00,2627.00
           C 2292.00,2627.00 2308.00,2626.00 2308.00,2626.00
             2308.00,2626.00 2311.30,2650.00 2311.30,2650.00
             2311.30,2650.00 2312.83,2658.00 2312.83,2658.00
             2312.83,2658.00 2314.32,2672.00 2314.32,2672.00
             2314.32,2672.00 2322.00,2722.00 2322.00,2722.00
             2322.00,2722.00 2305.00,2722.00 2305.00,2722.00
             2305.00,2722.00 2294.83,2650.00 2294.83,2650.00
             2294.83,2650.00 2292.00,2627.00 2292.00,2627.00 Z
           M 2019.00,2648.00
           C 2022.34,2647.40 2032.52,2645.64 2034.83,2648.57
             2036.04,2650.12 2035.97,2653.11 2036.04,2655.00
             2036.04,2655.00 2036.04,2666.00 2036.04,2666.00
             2036.04,2666.00 2037.00,2677.00 2037.00,2677.00
             2037.00,2677.00 2037.00,2702.00 2037.00,2702.00
             2037.00,2702.00 2038.00,2718.00 2038.00,2718.00
             2038.00,2718.00 2021.00,2717.00 2021.00,2717.00
             2021.00,2717.00 2021.00,2701.00 2021.00,2701.00
             2021.00,2701.00 2019.00,2669.00 2019.00,2669.00
             2019.00,2669.00 2019.00,2648.00 2019.00,2648.00 Z
           M 3036.00,2811.00
           C 3036.00,2811.00 3161.00,2811.00 3161.00,2811.00
             3161.00,2811.00 3161.00,2997.00 3161.00,2997.00
             3161.00,2997.00 3349.00,2997.00 3349.00,2997.00
             3349.00,2997.00 3349.00,3125.00 3349.00,3125.00
             3349.00,3125.00 3161.00,3125.00 3161.00,3125.00
             3161.00,3125.00 3161.00,3311.00 3161.00,3311.00
             3161.00,3311.00 3036.00,3311.00 3036.00,3311.00
             3036.00,3311.00 3036.00,3125.00 3036.00,3125.00
             3036.00,3125.00 2848.00,3125.00 2848.00,3125.00
             2848.00,3125.00 2848.00,2997.00 2848.00,2997.00
             2848.00,2997.00 3036.00,2997.00 3036.00,2997.00
             3036.00,2997.00 3036.00,2811.00 3036.00,2811.00 Z" />
</svg>
