<?xml version="1.0" encoding="UTF-8" standalone="no"?>
<!DOCTYPE svg PUBLIC "-//W3C//DTD SVG 20010904//EN"
              "http://www.w3.org/TR/2001/REC-SVG-20010904/DTD/svg10.dtd">

<svg xmlns="http://www.w3.org/2000/svg"
     width="12in" height="12in"
     viewBox="0 0 3600 3600">
  <path id="2 - Light Grey"
        fill="none" stroke="black" stroke-width="1"
        d="M 754.00,511.00
           C 754.00,511.00 879.00,511.00 879.00,511.00
             879.00,511.00 879.00,697.00 879.00,697.00
             879.00,697.00 1067.00,697.00 1067.00,697.00
             1067.00,697.00 1067.00,825.00 1067.00,825.00
             1067.00,825.00 879.00,825.00 879.00,825.00
             879.00,825.00 879.00,1011.00 879.00,1011.00
             879.00,1011.00 754.00,1011.00 754.00,1011.00
             754.00,1011.00 754.00,825.00 754.00,825.00
             754.00,825.00 566.00,825.00 566.00,825.00
             566.00,825.00 566.00,697.00 566.00,697.00
             566.00,697.00 754.00,697.00 754.00,697.00
             754.00,697.00 754.00,511.00 754.00,511.00 Z
           M 2097.00,628.00
           C 2102.03,626.57 2106.82,627.01 2112.00,627.00
             2112.00,627.00 2124.00,626.05 2124.00,626.05
             2124.00,626.05 2137.00,626.05 2137.00,626.05
             2150.06,626.16 2162.53,629.20 2174.00,635.49
             2177.38,637.35 2182.93,640.43 2185.37,643.30
             2185.37,643.30 2197.12,663.42 2197.12,663.42
             2198.41,666.13 2197.63,668.42 2199.02,670.74
             2200.26,672.81 2202.65,673.79 2204.57,676.13
             2206.50,678.47 2208.56,684.92 2209.41,688.00
             2214.20,705.36 2213.03,723.19 2213.00,741.00
             2212.98,756.26 2205.15,784.36 2196.90,797.00
             2195.23,799.56 2192.38,803.40 2189.83,805.07
             2187.83,806.39 2184.35,806.92 2183.40,809.28
             2182.12,812.46 2185.63,815.38 2188.02,816.78
             2191.86,819.03 2206.03,821.88 2211.00,822.72
             2250.45,829.37 2280.15,836.52 2317.00,853.02
             2335.65,861.38 2356.02,872.35 2369.42,888.00
             2369.42,888.00 2380.09,900.89 2380.09,900.89
             2381.89,902.60 2384.24,904.57 2386.89,903.60
             2391.35,901.98 2389.91,897.14 2388.39,894.00
             2385.04,887.09 2375.95,879.48 2377.39,872.00
             2377.39,872.00 2391.47,834.00 2391.47,834.00
             2396.35,820.70 2400.43,806.89 2403.19,793.00
             2403.19,793.00 2404.62,783.00 2404.62,783.00
             2404.62,783.00 2407.70,772.00 2407.70,772.00
             2407.70,772.00 2407.00,760.00 2407.00,760.00
             2407.00,760.00 2407.00,737.00 2407.00,737.00
             2407.00,737.00 2404.17,710.00 2404.17,710.00
             2404.17,710.00 2403.62,699.00 2403.62,699.00
             2403.01,690.40 2408.31,692.06 2414.00,694.12
             2414.00,694.12 2440.00,703.91 2440.00,703.91
             2480.24,719.68 2506.00,739.37 2540.00,764.87
             2540.00,764.87 2568.00,786.17 2568.00,786.17
             2587.68,803.88 2596.31,817.27 2611.34,837.96
             2611.34,837.96 2618.71,847.01 2618.71,847.01
             2625.11,855.70 2635.28,871.55 2640.50,881.00
             2640.50,881.00 2645.31,891.00 2645.31,891.00
             2654.65,909.34 2661.90,927.64 2665.54,948.00
             2665.54,948.00 2667.08,960.00 2667.08,960.00
             2668.49,968.58 2670.99,976.21 2671.00,985.00
             2671.00,985.00 2671.00,1007.00 2671.00,1007.00
             2671.00,1007.00 2668.93,1023.00 2668.93,1023.00
             2668.93,1023.00 2668.93,1034.00 2668.93,1034.00
             2668.93,1034.00 2666.51,1043.00 2666.51,1043.00
             2666.51,1043.00 2665.48,1051.00 2665.48,1051.00
             2660.44,1074.63 2649.85,1101.99 2636.25,1122.00
             2636.25,1122.00 2612.13,1154.00 2612.13,1154.00
             2610.93,1155.58 2603.83,1165.75 2601.78,1159.68
             2600.90,1157.08 2606.35,1143.26 2607.58,1140.00
             2607.58,1140.00 2622.04,1093.00 2622.04,1093.00
             2623.55,1087.81 2624.60,1074.80 2622.04,1070.14
             2620.66,1068.16 2619.85,1067.99 2618.00,1067.00
             2614.02,1078.16 2615.90,1075.32 2613.67,1085.00
             2613.67,1085.00 2608.23,1106.00 2608.23,1106.00
             2608.23,1106.00 2590.96,1157.00 2590.96,1157.00
             2590.96,1157.00 2573.42,1214.00 2573.42,1214.00
             2573.42,1214.00 2562.01,1242.00 2562.01,1242.00
             2557.48,1252.23 2555.79,1259.40 2544.00,1263.00
             2536.39,1249.39 2527.07,1235.77 2516.84,1224.00
             2513.36,1219.99 2503.70,1210.76 2503.18,1206.00
             2502.83,1202.79 2507.69,1186.67 2508.77,1182.00
             2512.83,1164.39 2516.21,1147.15 2516.00,1129.00
             2515.88,1118.81 2513.79,1109.01 2512.27,1099.00
             2511.35,1092.95 2510.51,1087.44 2505.00,1084.00
             2502.66,1093.60 2503.28,1096.71 2504.10,1106.00
             2504.10,1106.00 2504.10,1115.00 2504.10,1115.00
             2504.98,1120.62 2505.92,1122.80 2506.00,1129.00
             2506.34,1158.40 2493.24,1202.48 2482.34,1230.00
             2482.34,1230.00 2471.14,1256.00 2471.14,1256.00
             2469.93,1258.92 2467.61,1266.43 2465.49,1268.26
             2462.65,1270.73 2458.35,1269.75 2455.00,1269.27
             2447.13,1268.15 2429.96,1266.36 2425.10,1259.89
             2425.10,1259.89 2414.40,1241.00 2414.40,1241.00
             2414.40,1241.00 2398.34,1216.00 2398.34,1216.00
             2398.34,1216.00 2382.57,1186.00 2382.57,1186.00
             2382.57,1186.00 2367.61,1161.00 2367.61,1161.00
             2367.61,1161.00 2362.75,1152.00 2362.75,1152.00
             2359.45,1146.49 2354.38,1140.59 2352.00,1135.00
             2352.00,1135.00 2350.00,1135.00 2350.00,1135.00
             2340.90,1169.89 2328.67,1204.35 2322.72,1240.00
             2321.21,1249.01 2317.58,1268.49 2318.04,1277.00
             2318.04,1277.00 2323.00,1297.00 2323.00,1297.00
             2323.00,1297.00 2313.00,1297.00 2313.00,1297.00
             2314.57,1304.78 2320.88,1315.75 2319.00,1323.00
             2319.00,1323.00 2316.00,1322.00 2316.00,1322.00
             2316.00,1322.00 2312.00,1328.00 2312.00,1328.00
             2290.21,1322.16 2252.73,1308.49 2234.00,1296.56
             2200.97,1275.54 2170.25,1235.86 2149.06,1203.17
             2140.26,1189.59 2124.94,1162.96 2119.95,1148.00
             2119.95,1148.00 2118.10,1139.00 2118.10,1139.00
             2113.31,1122.86 2109.49,1107.76 2107.29,1091.00
             2107.29,1091.00 2106.56,1083.00 2106.56,1083.00
             2106.56,1083.00 2104.30,1072.00 2104.30,1072.00
             2103.34,1065.31 2104.79,1065.65 2102.00,1058.00
             2098.33,1068.18 2096.06,1068.97 2096.00,1081.00
             2096.00,1081.00 2096.00,1091.00 2096.00,1091.00
             2096.02,1102.48 2101.57,1132.53 2105.98,1142.96
             2105.98,1142.96 2110.06,1150.09 2110.06,1150.09
             2110.06,1150.09 2117.61,1168.00 2117.61,1168.00
             2117.61,1168.00 2127.81,1188.00 2127.81,1188.00
             2127.81,1188.00 2138.08,1219.00 2138.08,1219.00
             2144.01,1236.15 2150.13,1249.71 2157.94,1266.00
             2157.94,1266.00 2171.42,1291.00 2171.42,1291.00
             2174.58,1296.47 2178.42,1301.84 2180.00,1308.00
             2165.56,1311.96 2156.48,1294.81 2141.00,1295.20
             2134.84,1295.35 2126.43,1291.54 2120.00,1289.71
             2111.31,1287.24 2102.23,1285.49 2094.00,1281.69
             2094.00,1281.69 2059.00,1259.44 2059.00,1259.44
             2039.02,1246.74 2021.76,1235.89 2004.00,1219.83
             1994.92,1211.62 1966.21,1180.57 1959.38,1171.00
             1959.38,1171.00 1953.56,1161.00 1953.56,1161.00
             1943.67,1146.66 1937.82,1139.25 1930.10,1123.00
             1930.10,1123.00 1924.80,1108.00 1924.80,1108.00
             1924.80,1108.00 1918.49,1091.00 1918.49,1091.00
             1914.61,1076.54 1914.02,1058.97 1914.00,1044.00
             1914.00,1044.00 1913.00,1029.00 1913.00,1029.00
             1912.69,1002.54 1915.45,990.18 1926.37,966.00
             1928.87,960.47 1931.47,954.10 1934.71,949.00
             1939.90,940.82 1946.87,936.16 1952.66,929.00
             1955.62,925.35 1958.77,918.42 1960.72,914.00
             1969.99,892.90 1976.35,873.65 1980.46,851.00
             1980.46,851.00 1982.70,841.00 1982.70,841.00
             1982.70,841.00 1984.00,828.00 1984.00,828.00
             1984.00,828.00 1985.91,815.00 1985.91,815.00
             1986.35,808.68 1983.72,800.42 1991.00,798.00
             1991.00,798.00 1988.33,790.00 1988.33,790.00
             1988.33,790.00 1989.00,772.00 1989.00,772.00
             1989.02,763.59 1990.82,761.83 1990.60,759.00
             1990.60,759.00 1988.07,750.00 1988.07,750.00
             1988.07,750.00 1986.71,735.00 1986.71,735.00
             1986.71,735.00 1980.23,706.00 1980.23,706.00
             1976.08,692.01 1970.53,677.81 1963.51,665.00
             1963.51,665.00 1955.80,652.00 1955.80,652.00
             1954.31,649.82 1951.64,646.69 1951.45,644.02
             1950.94,637.13 1962.46,637.01 1967.00,637.00
             1967.00,637.00 1981.00,637.00 1981.00,637.00
             1981.00,637.00 2015.00,639.00 2015.00,639.00
             2015.00,639.00 2034.00,639.91 2034.00,639.91
             2036.81,640.10 2041.58,639.71 2044.00,640.60
             2047.70,641.96 2052.97,648.07 2056.00,650.96
             2061.84,656.54 2068.86,661.26 2077.00,662.61
             2089.71,664.72 2092.66,651.42 2103.00,654.00
             2103.00,638.55 2103.65,641.90 2097.00,628.00 Z
           M 1620.00,762.00
           C 1627.65,764.10 1642.10,781.48 1644.87,789.00
             1646.86,794.41 1646.10,805.81 1655.00,805.38
             1659.69,805.16 1663.74,799.45 1666.27,796.00
             1675.74,783.08 1676.96,773.65 1683.46,760.00
             1690.98,744.25 1704.75,730.25 1717.00,718.00
             1717.00,718.00 1742.00,693.42 1742.00,693.42
             1748.58,687.71 1757.27,677.22 1766.00,676.00
             1766.00,676.00 1760.68,722.00 1760.68,722.00
             1758.80,732.53 1749.96,758.65 1745.72,769.00
             1731.93,802.67 1715.67,812.64 1704.74,852.00
             1699.53,870.80 1692.03,899.85 1692.00,919.00
             1691.99,927.94 1693.50,945.45 1690.00,953.00
             1692.39,953.89 1695.59,954.98 1696.64,957.38
             1698.06,959.55 1696.87,963.64 1696.64,966.00
             1695.20,971.97 1694.23,974.74 1695.32,981.00
             1698.39,998.57 1709.23,1021.46 1719.44,1036.00
             1722.51,1040.37 1732.08,1054.16 1736.91,1055.13
             1738.61,1055.48 1739.61,1054.71 1741.00,1054.00
             1743.94,1055.98 1752.47,1061.43 1753.96,1064.18
             1755.29,1066.63 1754.35,1068.93 1754.88,1071.00
             1755.62,1073.86 1757.81,1075.52 1759.97,1077.33
             1759.97,1077.33 1793.00,1101.98 1793.00,1101.98
             1798.92,1106.06 1806.71,1109.42 1811.00,1115.00
             1809.39,1115.83 1808.94,1116.32 1807.00,1116.62
             1806.65,1116.67 1786.51,1115.40 1793.55,1124.95
             1797.52,1130.33 1809.53,1133.38 1816.00,1136.15
             1832.12,1143.05 1847.94,1150.59 1863.00,1159.60
             1884.98,1172.75 1903.48,1184.33 1923.00,1201.29
             1923.00,1201.29 1939.96,1217.00 1939.96,1217.00
             1939.96,1217.00 1947.46,1225.15 1947.46,1225.15
             1953.31,1230.49 1958.20,1228.25 1961.42,1231.56
             1964.18,1234.41 1963.55,1241.67 1966.40,1247.00
             1966.40,1247.00 1986.20,1277.00 1986.20,1277.00
             1993.31,1288.88 1999.03,1301.27 2004.42,1314.00
             2008.90,1324.59 2012.99,1334.38 2013.00,1346.00
             2013.00,1346.00 2020.00,1345.00 2020.00,1345.00
             2020.00,1345.00 2019.04,1357.00 2019.04,1357.00
             2019.04,1357.00 2024.54,1388.00 2024.54,1388.00
             2024.54,1388.00 2026.17,1403.00 2026.17,1403.00
             2026.17,1403.00 2027.71,1412.00 2027.71,1412.00
             2027.71,1412.00 2029.00,1426.00 2029.00,1426.00
             2029.00,1426.00 2029.00,1435.00 2029.00,1435.00
             2029.00,1435.00 2031.00,1458.00 2031.00,1458.00
             2031.00,1458.00 2031.00,1481.00 2031.00,1481.00
             2031.00,1481.00 2030.05,1491.00 2030.05,1491.00
             2030.05,1491.00 2030.05,1503.00 2030.05,1503.00
             2030.05,1503.00 2031.00,1518.00 2031.00,1518.00
             2031.02,1531.58 2030.48,1542.55 2033.50,1556.00
             2037.84,1575.30 2046.39,1595.61 2064.00,1606.53
             2070.19,1610.37 2078.73,1613.21 2086.00,1613.91
             2090.67,1614.23 2091.63,1613.13 2097.00,1613.91
             2089.26,1632.15 2069.56,1636.71 2052.00,1639.30
             2052.00,1639.30 2037.00,1641.91 2037.00,1641.91
             2029.36,1642.40 2020.28,1638.18 2016.36,1641.02
             2012.77,1643.62 2017.00,1648.40 2019.18,1650.32
             2026.07,1656.38 2033.49,1655.10 2042.00,1655.00
             2050.67,1654.89 2059.40,1650.67 2068.00,1651.91
             2068.00,1651.91 2077.00,1654.51 2077.00,1654.51
             2101.22,1661.13 2103.73,1663.00 2126.00,1673.36
             2126.00,1673.36 2189.00,1702.26 2189.00,1702.26
             2207.43,1711.24 2222.08,1719.64 2242.00,1725.66
             2257.32,1730.29 2274.05,1729.95 2289.00,1724.32
             2289.00,1724.32 2305.94,1715.84 2305.94,1715.84
             2310.08,1715.07 2309.94,1719.15 2310.00,1722.00
             2310.00,1722.00 2310.00,1731.00 2310.00,1731.00
             2309.96,1734.00 2307.84,1749.51 2306.98,1752.00
             2306.98,1752.00 2302.84,1760.00 2302.84,1760.00
             2301.59,1763.11 2302.29,1764.34 2299.97,1768.00
             2297.81,1771.40 2294.97,1773.79 2292.18,1776.58
             2288.90,1779.87 2285.95,1783.63 2290.24,1787.69
             2294.12,1791.35 2298.39,1789.20 2302.00,1786.47
             2313.13,1778.04 2312.52,1770.56 2321.00,1772.85
             2321.00,1772.85 2342.00,1780.72 2342.00,1780.72
             2357.03,1786.16 2376.53,1793.26 2390.00,1801.62
             2395.92,1805.29 2397.11,1807.68 2401.00,1810.30
             2401.00,1810.30 2411.00,1815.55 2411.00,1815.55
             2411.00,1815.55 2436.00,1836.09 2436.00,1836.09
             2446.52,1845.89 2461.09,1860.38 2467.88,1873.00
             2474.40,1885.14 2476.75,1896.69 2479.08,1910.00
             2479.08,1910.00 2480.96,1919.00 2480.96,1919.00
             2480.96,1919.00 2480.96,1927.00 2480.96,1927.00
             2480.96,1927.00 2482.00,1951.00 2482.00,1951.00
             2482.00,1951.00 2480.90,1963.00 2480.90,1963.00
             2480.90,1963.00 2480.90,1971.00 2480.90,1971.00
             2480.90,1971.00 2475.51,1996.00 2475.51,1996.00
             2475.51,1996.00 2466.42,2038.00 2466.42,2038.00
             2465.34,2041.25 2464.27,2049.27 2461.57,2051.01
             2459.62,2052.14 2456.23,2051.24 2454.00,2051.01
             2454.00,2051.01 2437.00,2051.01 2437.00,2051.01
             2424.07,2051.15 2412.68,2056.89 2403.00,2065.13
             2403.00,2065.13 2388.71,2077.86 2388.71,2077.86
             2386.62,2078.90 2374.09,2079.00 2371.00,2079.00
             2371.00,2079.00 2371.00,2082.00 2371.00,2082.00
             2371.00,2082.00 2352.00,2082.91 2352.00,2082.91
             2352.00,2082.91 2334.00,2084.13 2334.00,2084.13
             2328.71,2084.89 2320.01,2088.47 2316.00,2087.69
             2312.81,2087.06 2301.56,2079.73 2298.00,2077.60
             2289.39,2072.45 2275.44,2065.41 2266.00,2062.23
             2266.00,2062.23 2211.00,2051.54 2211.00,2051.54
             2211.00,2051.54 2189.00,2046.51 2189.00,2046.51
             2189.00,2046.51 2182.00,2045.54 2182.00,2045.54
             2182.00,2045.54 2172.00,2043.30 2172.00,2043.30
             2172.00,2043.30 2164.00,2042.33 2164.00,2042.33
             2164.00,2042.33 2142.00,2037.00 2142.00,2037.00
             2139.59,2028.46 2135.34,2018.91 2128.00,2013.56
             2123.54,2010.30 2116.30,2010.03 2115.45,2017.00
             2114.98,2020.78 2120.83,2027.93 2122.65,2032.00
             2126.80,2041.25 2126.90,2046.40 2128.14,2056.00
             2128.97,2060.93 2129.86,2067.30 2128.14,2072.00
             2118.15,2056.87 2114.79,2049.99 2101.83,2036.01
             2086.18,2019.13 2060.79,2003.62 2039.00,1996.08
             2023.84,1990.83 2004.99,1987.69 1989.00,1986.00
             1989.00,1986.00 1980.00,1986.00 1980.00,1986.00
             1980.00,1986.00 1968.00,1984.17 1968.00,1984.17
             1968.00,1984.17 1950.00,1982.83 1950.00,1982.83
             1950.00,1982.83 1940.00,1981.13 1940.00,1981.13
             1912.62,1977.20 1885.44,1971.77 1859.00,1963.51
             1843.24,1958.58 1820.64,1951.92 1807.00,1942.90
             1807.00,1942.90 1798.00,1935.89 1798.00,1935.89
             1792.25,1931.46 1789.20,1929.42 1783.88,1924.12
             1770.91,1911.16 1758.35,1890.94 1748.99,1875.00
             1736.67,1854.02 1721.40,1828.63 1715.51,1805.00
             1710.80,1786.07 1711.97,1773.11 1712.00,1754.00
             1712.00,1754.00 1715.90,1719.00 1715.90,1719.00
             1715.90,1719.00 1723.44,1694.00 1723.44,1694.00
             1723.44,1694.00 1727.74,1677.00 1727.74,1677.00
             1730.24,1670.57 1735.80,1671.15 1742.12,1660.00
             1743.67,1657.27 1745.27,1654.20 1743.64,1651.12
             1738.98,1642.31 1728.46,1656.22 1724.70,1659.47
             1717.28,1665.90 1711.10,1667.26 1702.00,1669.58
             1689.55,1672.75 1676.83,1674.02 1664.00,1674.00
             1656.30,1673.99 1648.58,1672.36 1641.00,1671.00
             1642.59,1666.43 1646.02,1665.42 1650.00,1663.00
             1654.86,1660.04 1659.56,1656.76 1664.00,1653.19
             1678.36,1641.68 1689.44,1628.29 1699.48,1613.00
             1710.27,1596.57 1720.47,1569.43 1723.68,1550.00
             1725.68,1537.86 1726.02,1525.28 1726.00,1513.00
             1726.00,1513.00 1723.54,1489.00 1723.54,1489.00
             1722.23,1481.62 1720.35,1474.55 1720.00,1467.00
             1709.71,1465.50 1713.58,1463.75 1706.98,1449.00
             1699.82,1433.03 1690.09,1418.41 1680.26,1404.00
             1666.46,1383.79 1645.68,1363.32 1629.17,1345.00
             1611.04,1324.89 1593.46,1303.39 1578.26,1281.00
             1578.26,1281.00 1558.37,1249.00 1558.37,1249.00
             1555.16,1243.20 1551.54,1237.50 1550.00,1231.00
             1550.00,1231.00 1545.00,1232.00 1545.00,1232.00
             1543.55,1228.70 1538.71,1216.04 1538.62,1213.00
             1538.19,1210.73 1538.68,1209.16 1538.62,1207.00
             1538.62,1207.00 1536.00,1185.00 1536.00,1185.00
             1536.00,1185.00 1536.00,1157.00 1536.00,1157.00
             1536.02,1146.93 1539.21,1129.14 1541.34,1119.00
             1545.66,1098.39 1551.30,1078.27 1562.26,1060.00
             1562.26,1060.00 1582.13,1032.00 1582.13,1032.00
             1597.29,1011.78 1620.71,980.65 1630.57,958.00
             1635.86,945.86 1641.45,923.08 1639.57,910.00
             1638.44,902.11 1637.91,897.58 1635.16,890.00
             1635.16,890.00 1630.19,878.00 1630.19,878.00
             1629.84,875.23 1631.20,873.53 1631.57,871.00
             1632.46,864.98 1627.17,859.87 1623.00,856.30
             1612.04,846.91 1597.44,843.12 1584.00,839.00
             1587.18,832.28 1601.59,818.25 1609.00,816.42
             1615.38,814.84 1622.22,818.40 1626.57,813.72
             1629.68,810.38 1629.05,804.31 1629.00,800.00
             1628.94,795.15 1626.39,781.59 1624.91,777.00
             1623.02,771.14 1620.68,768.45 1620.00,762.00 Z
           M 2548.00,1287.00
           C 2557.24,1286.24 2556.19,1278.70 2559.78,1272.00
             2559.78,1272.00 2578.22,1237.00 2578.22,1237.00
             2580.53,1232.12 2581.44,1224.90 2587.00,1223.00
             2587.00,1223.00 2593.29,1254.00 2593.29,1254.00
             2605.16,1297.74 2630.76,1345.26 2676.00,1360.92
             2685.49,1364.21 2691.11,1364.86 2701.00,1365.49
             2707.49,1365.90 2716.90,1364.32 2723.00,1362.04
             2725.23,1361.20 2730.26,1358.57 2732.26,1360.07
             2734.79,1361.78 2732.82,1367.72 2732.26,1370.00
             2729.29,1379.49 2726.17,1386.39 2721.28,1395.00
             2715.43,1405.29 2708.00,1417.25 2698.96,1424.91
             2688.38,1433.87 2671.64,1439.08 2658.00,1440.94
             2658.00,1440.94 2650.00,1440.94 2650.00,1440.94
             2650.00,1440.94 2641.00,1441.87 2641.00,1441.87
             2641.00,1441.87 2627.00,1441.87 2627.00,1441.87
             2623.41,1441.99 2614.39,1440.74 2612.00,1441.87
             2599.53,1446.11 2609.09,1458.11 2614.73,1463.54
             2614.73,1463.54 2622.99,1471.04 2622.99,1471.04
             2622.99,1471.04 2629.88,1478.45 2629.88,1478.45
             2629.88,1478.45 2637.08,1485.05 2637.08,1485.05
             2646.58,1495.74 2668.86,1528.79 2677.50,1542.00
             2697.46,1572.50 2716.46,1606.11 2724.49,1642.00
             2726.86,1652.61 2728.94,1668.18 2729.00,1679.00
             2729.00,1679.00 2729.92,1693.00 2729.92,1693.00
             2729.92,1693.00 2729.00,1704.00 2729.00,1704.00
             2729.00,1704.00 2727.96,1719.00 2727.96,1719.00
             2727.96,1719.00 2727.96,1729.00 2727.96,1729.00
             2726.34,1744.63 2723.19,1761.47 2717.14,1776.00
             2705.88,1803.02 2684.66,1827.32 2685.00,1858.00
             2685.12,1867.86 2687.02,1869.54 2689.00,1878.00
             2689.00,1878.00 2688.00,1879.00 2688.00,1879.00
             2680.57,1876.65 2669.52,1868.66 2665.48,1862.00
             2660.89,1854.45 2661.34,1849.27 2658.89,1844.00
             2656.61,1839.08 2654.43,1838.26 2652.58,1835.72
             2650.26,1832.52 2649.79,1825.45 2647.15,1824.00
             2645.04,1822.85 2642.77,1825.55 2641.69,1827.05
             2638.80,1831.08 2637.84,1836.14 2638.04,1841.00
             2638.04,1841.00 2639.83,1852.00 2639.83,1852.00
             2639.83,1852.00 2641.00,1882.00 2641.00,1882.00
             2640.98,1895.79 2637.20,1908.64 2634.45,1922.00
             2628.52,1950.81 2621.49,1980.23 2601.71,2003.00
             2591.25,2015.05 2570.01,2034.13 2557.00,2043.23
             2540.11,2055.05 2529.88,2056.74 2516.84,2076.00
             2513.93,2080.29 2511.82,2083.08 2510.00,2088.00
             2510.00,2088.00 2492.49,2076.62 2492.49,2076.62
             2492.49,2076.62 2485.37,2066.09 2485.37,2066.09
             2485.37,2066.09 2476.00,2056.00 2476.00,2056.00
             2485.81,2044.37 2488.13,2027.71 2490.42,2013.00
             2492.85,1997.48 2498.98,1972.93 2499.00,1958.00
             2499.00,1958.00 2499.00,1939.00 2499.00,1939.00
             2499.00,1939.00 2498.21,1926.00 2498.21,1926.00
             2498.21,1926.00 2499.71,1917.00 2499.71,1917.00
             2500.43,1911.48 2500.47,1898.18 2499.00,1893.00
             2499.00,1893.00 2497.00,1901.00 2497.00,1901.00
             2497.00,1901.00 2495.00,1901.00 2495.00,1901.00
             2495.00,1901.00 2492.41,1891.00 2492.41,1891.00
             2491.08,1886.18 2487.93,1877.55 2485.86,1873.00
             2478.33,1856.51 2463.15,1840.10 2449.72,1828.12
             2445.51,1824.37 2434.47,1813.66 2430.00,1811.85
             2427.22,1810.73 2423.03,1811.00 2420.00,1811.00
             2419.99,1808.48 2420.20,1805.36 2418.98,1803.09
             2416.37,1798.26 2408.66,1796.06 2403.32,1789.96
             2398.19,1784.10 2391.60,1770.43 2388.42,1763.00
             2388.42,1763.00 2364.52,1709.00 2364.52,1709.00
             2358.98,1692.05 2355.03,1667.82 2355.00,1650.00
             2355.00,1650.00 2354.00,1635.00 2354.00,1635.00
             2353.78,1615.71 2355.54,1600.52 2361.20,1582.00
             2361.20,1582.00 2366.22,1568.00 2366.22,1568.00
             2367.10,1564.84 2366.82,1561.09 2369.43,1558.70
             2369.43,1558.70 2394.85,1548.01 2394.85,1548.01
             2398.56,1545.27 2397.47,1542.77 2398.59,1540.17
             2399.76,1537.47 2404.31,1534.02 2407.00,1532.95
             2413.35,1530.42 2413.84,1536.38 2421.04,1532.26
             2434.63,1524.49 2456.30,1510.03 2466.96,1499.00
             2466.96,1499.00 2482.78,1478.13 2482.78,1478.13
             2486.37,1473.82 2490.67,1473.66 2495.00,1470.51
             2503.58,1464.24 2510.57,1451.84 2509.82,1441.00
             2509.82,1441.00 2509.31,1435.00 2509.31,1435.00
             2510.30,1424.62 2523.99,1409.77 2529.38,1400.83
             2529.38,1400.83 2539.20,1373.00 2539.20,1373.00
             2540.08,1370.06 2544.00,1356.33 2545.72,1354.99
             2547.14,1353.89 2549.31,1354.05 2551.00,1354.00
             2551.00,1354.00 2550.00,1334.00 2550.00,1334.00
             2550.00,1334.00 2550.00,1311.00 2550.00,1311.00
             2550.00,1311.00 2548.00,1287.00 2548.00,1287.00 Z
           M 829.00,1569.00
           C 829.00,1569.00 831.00,1569.00 831.00,1569.00
             829.75,1574.27 825.19,1581.79 822.58,1587.00
             822.58,1587.00 807.45,1620.00 807.45,1620.00
             793.03,1656.04 793.68,1690.75 817.01,1723.00
             828.16,1738.42 843.15,1750.44 863.00,1749.99
             869.15,1749.85 874.51,1748.67 880.00,1745.88
             885.34,1743.16 885.78,1740.99 892.00,1740.00
             893.42,1747.78 895.73,1756.71 890.72,1763.79
             887.00,1769.03 879.79,1769.69 874.00,1770.80
             855.62,1774.32 836.44,1769.41 822.00,1757.54
             812.29,1749.55 804.18,1737.97 793.00,1732.00
             791.47,1739.02 793.59,1738.56 793.96,1745.00
             794.26,1750.30 794.10,1753.63 795.59,1759.00
             799.88,1774.45 816.05,1798.30 825.26,1812.00
             841.67,1836.41 856.67,1853.85 876.96,1875.00
             876.96,1875.00 905.58,1903.26 905.58,1903.26
             905.58,1903.26 951.00,1941.20 951.00,1941.20
             963.97,1951.66 977.03,1961.87 988.87,1973.63
             1010.99,1995.58 1030.98,2022.25 1035.16,2054.00
             1036.06,2060.83 1038.78,2069.22 1037.00,2076.00
             1037.00,2076.00 1028.00,2072.35 1028.00,2072.35
             1024.71,2071.05 1014.39,2068.12 1011.00,2067.53
             1006.32,2066.71 1001.08,2069.22 999.65,2074.00
             998.63,2077.43 1001.10,2080.57 1003.19,2083.00
             1009.78,2090.66 1010.01,2089.28 1015.57,2099.00
             1022.74,2111.52 1030.93,2135.58 1031.00,2150.00
             1031.00,2150.00 1031.00,2158.00 1031.00,2158.00
             1031.00,2158.00 1032.00,2171.00 1032.00,2171.00
             1032.00,2171.00 1032.00,2188.00 1032.00,2188.00
             1032.00,2188.00 1031.00,2202.00 1031.00,2202.00
             1030.91,2220.48 1030.74,2211.94 1028.43,2228.00
             1028.43,2228.00 1027.68,2236.00 1027.68,2236.00
             1027.68,2236.00 1025.32,2245.00 1025.32,2245.00
             1025.32,2245.00 1024.68,2252.00 1024.68,2252.00
             1024.68,2252.00 1022.32,2261.00 1022.32,2261.00
             1022.32,2261.00 1021.70,2272.00 1021.70,2272.00
             1021.70,2272.00 1019.46,2280.00 1019.46,2280.00
             1019.46,2280.00 1018.00,2292.00 1018.00,2292.00
             1018.00,2292.00 1015.00,2290.00 1015.00,2290.00
             1015.00,2290.00 1013.00,2300.00 1013.00,2300.00
             1013.00,2300.00 1005.00,2295.00 1005.00,2295.00
             1004.68,2301.87 1003.51,2303.06 1002.46,2309.00
             1002.46,2309.00 1000.72,2325.00 1000.72,2325.00
             1000.72,2325.00 993.59,2349.00 993.59,2349.00
             993.59,2349.00 986.49,2379.00 986.49,2379.00
             986.49,2379.00 978.51,2408.00 978.51,2408.00
             974.06,2428.53 975.24,2448.26 975.00,2469.00
             974.91,2475.99 972.36,2482.53 969.84,2489.00
             968.67,2492.00 967.10,2495.60 963.09,2494.34
             958.97,2493.06 955.82,2484.80 954.34,2481.00
             949.69,2469.05 945.15,2447.77 945.00,2435.00
             944.95,2430.73 946.64,2415.20 940.01,2415.20
             933.60,2415.20 935.99,2429.12 936.00,2433.00
             936.00,2433.00 936.00,2441.00 936.00,2441.00
             936.00,2441.00 935.09,2451.00 935.09,2451.00
             933.29,2477.24 928.63,2502.62 915.88,2526.00
             912.93,2531.41 907.37,2538.68 902.99,2542.98
             901.09,2544.84 898.75,2547.20 896.00,2547.58
             892.04,2548.13 889.53,2545.05 887.80,2541.98
             884.17,2535.58 882.18,2528.35 882.01,2521.00
             881.82,2512.32 884.01,2503.91 887.50,2496.00
             888.79,2493.06 892.17,2488.27 890.22,2485.15
             888.10,2481.85 884.58,2483.50 882.00,2485.15
             877.08,2488.17 869.52,2495.21 865.01,2499.28
             847.38,2515.22 832.47,2544.86 833.01,2569.00
             833.16,2575.54 835.02,2582.80 837.24,2589.00
             838.43,2593.09 840.31,2597.76 837.24,2601.70
             836.18,2603.36 831.83,2606.58 830.00,2608.13
             830.00,2608.13 811.00,2623.66 811.00,2623.66
             796.66,2635.04 782.87,2646.98 770.00,2660.00
             764.21,2665.87 760.08,2671.42 755.22,2677.96
             753.82,2679.84 751.40,2682.12 750.59,2684.17
             749.76,2686.28 750.00,2691.53 750.00,2694.00
             741.96,2694.66 741.22,2700.41 737.92,2707.00
             737.92,2707.00 724.90,2732.00 724.90,2732.00
             721.45,2738.65 724.61,2739.41 717.00,2743.00
             719.64,2752.31 713.13,2760.90 709.09,2769.00
             701.06,2785.09 694.24,2801.73 689.20,2819.00
             681.42,2845.71 681.96,2863.96 682.00,2891.00
             682.02,2904.48 687.36,2929.24 690.34,2943.00
             690.34,2943.00 696.41,2977.00 696.41,2977.00
             696.74,2979.12 698.29,2989.11 693.24,2986.83
             690.73,2985.70 687.26,2979.49 685.86,2977.00
             685.86,2977.00 672.78,2952.00 672.78,2952.00
             657.91,2920.52 644.72,2887.60 639.73,2853.00
             639.73,2853.00 638.00,2838.00 638.00,2838.00
             637.96,2834.05 638.53,2826.51 636.70,2823.21
             634.90,2819.96 632.02,2819.24 629.52,2822.26
             625.64,2826.95 623.79,2847.63 624.04,2854.00
             624.04,2854.00 625.00,2865.00 625.00,2865.00
             625.00,2865.00 624.03,2881.00 624.03,2881.00
             624.03,2888.18 626.38,2888.70 623.00,2896.00
             616.16,2892.24 606.02,2877.65 600.58,2871.00
             590.18,2858.31 579.87,2845.36 571.86,2831.00
             571.86,2831.00 552.69,2789.00 552.69,2789.00
             550.49,2784.19 541.13,2765.32 538.45,2762.11
             534.80,2757.75 532.33,2758.91 528.30,2754.86
             528.30,2754.86 507.60,2725.00 507.60,2725.00
             504.33,2719.51 496.08,2703.75 494.61,2698.00
             494.61,2698.00 493.32,2687.00 493.32,2687.00
             487.05,2665.81 485.96,2662.23 483.83,2640.00
             483.83,2640.00 482.00,2621.00 482.00,2621.00
             481.84,2607.33 482.63,2606.58 484.06,2594.00
             484.06,2594.00 484.06,2586.00 484.06,2586.00
             486.23,2571.13 492.86,2553.50 501.08,2541.00
             507.83,2530.72 516.74,2522.42 524.57,2513.00
             526.79,2510.32 531.93,2504.68 531.18,2501.02
             530.44,2497.39 526.35,2495.41 523.00,2495.12
             515.12,2494.45 509.32,2499.57 503.00,2503.06
             500.01,2504.71 495.45,2506.01 495.33,2500.94
             495.23,2496.60 504.13,2482.12 506.83,2478.00
             519.29,2459.02 539.51,2438.81 556.00,2423.04
             575.82,2404.08 616.66,2379.59 642.00,2368.15
             642.00,2368.15 692.00,2346.69 692.00,2346.69
             711.43,2336.22 727.73,2321.89 744.00,2307.17
             753.21,2298.84 771.72,2281.03 778.16,2271.00
             780.93,2266.70 781.77,2261.58 784.00,2257.00
             784.00,2257.00 792.00,2261.00 792.00,2261.00
             795.68,2250.37 796.68,2246.34 801.92,2236.00
             806.50,2226.96 816.44,2209.61 817.90,2200.00
             817.90,2200.00 817.90,2191.00 817.90,2191.00
             820.32,2190.81 822.52,2190.87 823.98,2188.69
             825.44,2186.49 824.91,2180.78 825.04,2178.00
             825.04,2178.00 827.96,2160.00 827.96,2160.00
             827.96,2160.00 830.00,2121.00 830.00,2121.00
             830.00,2121.00 831.00,2104.00 831.00,2104.00
             831.00,2104.00 831.00,2060.00 831.00,2060.00
             830.98,2047.61 827.45,2030.78 821.32,2020.00
             821.32,2020.00 800.20,1991.00 800.20,1991.00
             790.53,1977.07 782.39,1962.30 775.10,1947.00
             761.21,1917.81 750.42,1886.70 744.20,1855.00
             742.32,1845.46 739.01,1826.27 739.00,1817.00
             739.00,1817.00 739.00,1779.00 739.00,1779.00
             739.01,1770.40 739.74,1770.61 740.72,1763.00
             740.72,1763.00 742.32,1748.00 742.32,1748.00
             742.32,1748.00 744.49,1740.00 744.49,1740.00
             744.49,1740.00 748.68,1720.09 748.68,1720.09
             748.68,1720.09 751.35,1713.91 751.35,1713.91
             751.35,1713.91 754.00,1705.00 754.00,1705.00
             754.00,1705.00 761.00,1709.00 761.00,1709.00
             761.51,1702.78 766.84,1675.56 768.80,1670.00
             768.80,1670.00 776.90,1652.00 776.90,1652.00
             787.57,1629.67 801.34,1605.99 815.92,1586.00
             815.92,1586.00 829.00,1569.00 829.00,1569.00 Z
           M 2533.00,2390.00
           C 2529.67,2395.78 2522.90,2397.13 2517.00,2401.39
             2500.05,2413.63 2493.02,2419.89 2473.00,2427.92
             2473.00,2427.92 2453.00,2435.91 2453.00,2435.91
             2439.25,2440.45 2417.43,2444.98 2403.00,2445.00
             2403.00,2445.00 2386.00,2445.00 2386.00,2445.00
             2386.00,2445.00 2372.00,2443.17 2372.00,2443.17
             2372.00,2443.17 2364.00,2442.56 2364.00,2442.56
             2364.00,2442.56 2343.00,2436.95 2343.00,2436.95
             2305.98,2425.11 2271.38,2400.18 2263.20,2360.00
             2262.03,2354.24 2261.08,2352.09 2261.00,2346.00
             2261.00,2346.00 2261.00,2341.00 2261.00,2341.00
             2261.17,2326.66 2269.21,2307.89 2278.32,2297.00
             2285.25,2288.73 2289.07,2288.98 2291.76,2286.93
             2293.36,2285.71 2294.39,2284.18 2293.60,2282.12
             2292.35,2278.86 2288.83,2279.01 2286.00,2278.84
             2281.46,2278.56 2277.06,2277.81 2273.00,2275.67
             2264.59,2271.26 2262.61,2267.13 2257.40,2260.00
             2255.36,2257.21 2253.25,2255.34 2252.03,2252.00
             2250.77,2248.58 2250.84,2243.57 2251.44,2240.00
             2252.23,2235.33 2255.21,2228.12 2257.63,2224.04
             2258.85,2221.98 2260.92,2219.16 2263.73,2219.82
             2265.90,2220.34 2269.81,2228.60 2271.68,2231.00
             2276.80,2237.56 2286.51,2242.60 2295.00,2241.80
             2303.56,2241.00 2311.41,2237.09 2317.49,2231.12
             2323.22,2225.48 2323.66,2220.71 2329.02,2220.23
             2333.23,2219.86 2342.04,2222.66 2344.00,2222.80
             2347.68,2223.05 2348.89,2220.84 2359.00,2221.00
             2366.18,2221.12 2366.16,2223.19 2370.00,2223.11
             2370.00,2223.11 2375.00,2222.05 2375.00,2222.05
             2378.81,2221.70 2396.01,2220.66 2398.89,2222.05
             2404.74,2224.39 2400.99,2228.92 2409.02,2235.48
             2419.05,2243.68 2429.75,2244.53 2442.00,2245.27
             2442.00,2245.27 2448.00,2245.27 2448.00,2245.27
             2453.93,2245.27 2458.10,2239.56 2461.06,2235.00
             2462.91,2232.15 2464.38,2228.32 2468.09,2227.60
             2468.09,2227.60 2482.00,2227.60 2482.00,2227.60
             2483.93,2227.42 2485.71,2227.09 2487.26,2228.61
             2488.96,2230.28 2489.47,2237.64 2490.71,2241.00
             2494.02,2249.96 2503.10,2258.34 2513.00,2258.74
             2527.41,2259.31 2546.52,2244.14 2558.00,2236.34
             2564.61,2231.85 2572.03,2226.96 2580.00,2225.23
             2583.78,2224.76 2592.71,2224.99 2597.00,2225.23
             2601.40,2225.01 2602.64,2224.94 2607.00,2226.00
             2607.00,2226.00 2607.00,2229.00 2607.00,2229.00
             2600.31,2232.76 2593.30,2237.40 2589.13,2244.00
             2587.17,2247.11 2585.68,2250.50 2587.78,2253.96
             2591.87,2260.69 2598.67,2258.29 2605.00,2259.32
             2613.19,2260.66 2618.65,2264.13 2624.25,2270.17
             2632.15,2278.70 2645.89,2301.60 2648.33,2313.00
             2650.63,2323.75 2650.02,2335.07 2650.00,2346.00
             2649.99,2354.59 2648.97,2360.01 2645.72,2368.00
             2638.29,2386.24 2628.74,2393.47 2620.00,2408.00
             2611.57,2403.61 2609.19,2393.53 2600.00,2388.07
             2589.95,2382.10 2570.62,2380.87 2559.00,2381.00
             2555.84,2381.04 2551.03,2381.47 2548.04,2382.38
             2542.02,2384.21 2540.24,2389.29 2533.00,2390.00 Z
           M 3036.00,2811.00
           C 3036.00,2811.00 3161.00,2811.00 3161.00,2811.00
             3161.00,2811.00 3161.00,2997.00 3161.00,2997.00
             3161.00,2997.00 3349.00,2997.00 3349.00,2997.00
             3349.00,2997.00 3349.00,3125.00 3349.00,3125.00
             3349.00,3125.00 3161.00,3125.00 3161.00,3125.00
             3161.00,3125.00 3161.00,3311.00 3161.00,3311.00
             3161.00,3311.00 3036.00,3311.00 3036.00,3311.00
             3036.00,3311.00 3036.00,3125.00 3036.00,3125.00
             3036.00,3125.00 2848.00,3125.00 2848.00,3125.00
             2848.00,3125.00 2848.00,2997.00 2848.00,2997.00
             2848.00,2997.00 3036.00,2997.00 3036.00,2997.00
             3036.00,2997.00 3036.00,2811.00 3036.00,2811.00 Z" />
</svg>
