<?xml version="1.0" encoding="UTF-8" standalone="no"?>
<!DOCTYPE svg PUBLIC "-//W3C//DTD SVG 20010904//EN"
              "http://www.w3.org/TR/2001/REC-SVG-20010904/DTD/svg10.dtd">

<svg xmlns="http://www.w3.org/2000/svg"
     width="12in" height="12in"
     viewBox="0 0 3600 3600">
  <path id="3 - dark grey gradients"
        fill="none" stroke="black" stroke-width="1"
        d="M 754.00,511.00
           C 754.00,511.00 879.00,511.00 879.00,511.00
             879.00,511.00 879.00,697.00 879.00,697.00
             879.00,697.00 1067.00,697.00 1067.00,697.00
             1067.00,697.00 1067.00,825.00 1067.00,825.00
             1067.00,825.00 879.00,825.00 879.00,825.00
             879.00,825.00 879.00,1011.00 879.00,1011.00
             879.00,1011.00 754.00,1011.00 754.00,1011.00
             754.00,1011.00 754.00,825.00 754.00,825.00
             754.00,825.00 566.00,825.00 566.00,825.00
             566.00,825.00 566.00,697.00 566.00,697.00
             566.00,697.00 754.00,697.00 754.00,697.00
             754.00,697.00 754.00,511.00 754.00,511.00 Z
           M 2175.00,1305.00
           C 2162.94,1304.33 2157.14,1295.15 2147.00,1292.84
             2147.00,1292.84 2137.00,1292.84 2137.00,1292.84
             2137.00,1292.84 2123.00,1287.77 2123.00,1287.77
             2123.00,1287.77 2096.00,1279.93 2096.00,1279.93
             2096.00,1279.93 2053.00,1253.22 2053.00,1253.22
             2038.59,1244.01 2023.90,1234.91 2011.04,1223.56
             2011.04,1223.56 2001.99,1214.00 2001.99,1214.00
             2001.99,1214.00 1993.17,1205.87 1993.17,1205.87
             1993.17,1205.87 1980.96,1193.00 1980.96,1193.00
             1961.05,1172.39 1939.99,1146.61 1928.75,1120.00
             1928.75,1120.00 1925.19,1109.00 1925.19,1109.00
             1925.19,1109.00 1918.49,1091.00 1918.49,1091.00
             1914.45,1075.95 1914.18,1057.57 1914.00,1042.00
             1914.00,1042.00 1913.00,1028.00 1913.00,1028.00
             1912.96,1019.34 1913.15,1010.59 1914.29,1002.00
             1915.94,989.48 1927.93,959.67 1934.71,949.00
             1940.52,939.86 1948.07,935.22 1953.45,928.00
             1956.97,923.26 1962.47,909.96 1965.00,904.00
             1966.03,901.57 1968.61,894.35 1970.51,893.02
             1972.29,891.77 1975.85,892.00 1978.00,892.00
             1978.00,892.00 1994.00,892.00 1994.00,892.00
             1994.00,892.00 2044.00,881.45 2044.00,881.45
             2044.00,881.45 2090.00,872.31 2090.00,872.31
             2090.00,872.31 2106.00,869.91 2106.00,869.91
             2106.00,869.91 2136.00,863.66 2136.00,863.66
             2136.00,863.66 2143.00,862.63 2143.00,862.63
             2143.00,862.63 2150.00,860.51 2150.00,860.51
             2150.00,860.51 2180.00,854.31 2180.00,854.31
             2180.00,854.31 2196.00,852.42 2196.00,852.42
             2202.19,851.41 2203.68,850.09 2211.00,850.00
             2211.00,850.00 2228.00,850.51 2228.00,850.51
             2228.00,850.51 2261.00,843.69 2261.00,843.69
             2267.69,842.40 2273.96,839.01 2281.00,839.49
             2286.21,839.85 2301.59,846.38 2307.00,848.72
             2326.05,856.94 2345.14,865.82 2361.00,879.43
             2367.80,885.26 2372.54,892.30 2378.32,898.98
             2380.27,901.23 2383.54,904.82 2386.89,903.60
             2390.86,902.16 2390.17,898.03 2388.86,895.00
             2385.73,887.74 2378.27,880.87 2377.31,876.00
             2376.55,872.07 2379.80,864.86 2381.30,861.00
             2381.30,861.00 2392.17,832.00 2392.17,832.00
             2393.20,829.03 2395.98,819.50 2397.79,817.74
             2399.49,816.08 2404.48,815.42 2407.00,814.66
             2407.00,814.66 2423.00,809.76 2423.00,809.76
             2423.00,809.76 2434.00,807.33 2434.00,807.33
             2434.00,807.33 2455.00,803.10 2455.00,803.10
             2455.00,803.10 2483.00,796.50 2483.00,796.50
             2483.00,796.50 2518.00,789.49 2518.00,789.49
             2518.00,789.49 2541.00,784.57 2541.00,784.57
             2541.00,784.57 2557.00,779.98 2557.00,779.98
             2563.16,779.54 2572.82,790.82 2577.00,795.00
             2592.99,810.99 2598.58,820.40 2611.34,837.96
             2611.34,837.96 2620.14,849.00 2620.14,849.00
             2638.05,873.99 2654.21,904.29 2662.41,934.00
             2665.68,945.85 2668.94,970.70 2669.00,983.00
             2669.15,1014.01 2667.97,1030.81 2659.78,1061.00
             2659.78,1061.00 2658.39,1070.00 2658.39,1070.00
             2656.83,1076.17 2652.76,1086.08 2650.08,1092.00
             2641.35,1111.32 2633.25,1123.37 2620.21,1140.00
             2616.29,1145.01 2612.20,1153.01 2606.00,1155.00
             2606.36,1147.66 2611.19,1136.27 2613.78,1129.00
             2618.02,1117.10 2625.22,1093.20 2625.91,1081.00
             2626.13,1077.07 2623.80,1062.67 2617.22,1067.46
             2613.89,1069.89 2613.00,1077.11 2612.12,1081.00
             2612.12,1081.00 2610.33,1091.00 2610.33,1091.00
             2610.33,1091.00 2603.58,1114.00 2603.58,1114.00
             2603.58,1114.00 2587.52,1160.00 2587.52,1160.00
             2587.52,1160.00 2573.46,1206.00 2573.46,1206.00
             2573.46,1206.00 2566.72,1224.00 2566.72,1224.00
             2560.90,1237.74 2558.06,1240.46 2556.00,1256.00
             2556.00,1256.00 2553.00,1256.00 2553.00,1256.00
             2553.00,1256.00 2554.00,1242.00 2554.00,1242.00
             2554.00,1242.00 2547.00,1242.00 2547.00,1242.00
             2547.00,1242.00 2546.00,1258.00 2546.00,1258.00
             2540.63,1253.88 2537.57,1247.48 2533.71,1242.00
             2533.71,1242.00 2515.27,1219.00 2515.27,1219.00
             2512.18,1215.39 2505.10,1209.49 2505.15,1204.96
             2505.15,1204.96 2509.26,1189.00 2509.26,1189.00
             2509.26,1189.00 2515.71,1158.00 2515.71,1158.00
             2517.03,1149.39 2518.01,1140.70 2518.00,1132.00
             2518.00,1132.00 2516.00,1106.00 2516.00,1106.00
             2515.93,1100.66 2512.80,1085.55 2507.64,1083.05
             2504.87,1081.71 2503.17,1084.95 2502.28,1087.01
             2500.02,1092.27 2499.94,1098.37 2500.00,1104.00
             2500.00,1104.00 2503.00,1127.00 2503.00,1127.00
             2503.03,1147.75 2501.09,1154.25 2496.66,1174.00
             2496.66,1174.00 2491.92,1193.00 2491.92,1193.00
             2491.92,1193.00 2486.56,1207.00 2486.56,1207.00
             2486.56,1207.00 2483.46,1218.00 2483.46,1218.00
             2483.46,1218.00 2476.71,1234.00 2476.71,1234.00
             2476.71,1234.00 2464.71,1260.00 2464.71,1260.00
             2463.87,1263.28 2464.00,1266.64 2464.00,1270.00
             2456.32,1269.93 2433.12,1266.62 2427.38,1262.16
             2424.76,1260.13 2421.26,1253.15 2419.40,1250.00
             2419.40,1250.00 2403.72,1223.00 2403.72,1223.00
             2403.72,1223.00 2363.88,1154.00 2363.88,1154.00
             2363.88,1154.00 2352.00,1135.00 2352.00,1135.00
             2352.00,1135.00 2350.00,1135.00 2350.00,1135.00
             2350.00,1135.00 2339.56,1171.00 2339.56,1171.00
             2339.56,1171.00 2328.72,1213.00 2328.72,1213.00
             2328.72,1213.00 2325.50,1225.91 2325.50,1225.91
             2325.50,1225.91 2323.27,1232.09 2323.27,1232.09
             2323.27,1232.09 2322.54,1241.00 2322.54,1241.00
             2322.54,1241.00 2318.04,1277.00 2318.04,1277.00
             2318.04,1277.00 2323.00,1297.00 2323.00,1297.00
             2317.77,1295.28 2317.09,1291.67 2314.75,1287.00
             2309.56,1276.62 2308.29,1272.39 2306.00,1261.00
             2306.00,1261.00 2302.00,1262.00 2302.00,1262.00
             2302.00,1262.00 2311.51,1300.00 2311.51,1300.00
             2311.51,1300.00 2317.00,1319.00 2317.00,1319.00
             2308.67,1319.28 2309.93,1323.68 2304.91,1323.54
             2304.91,1323.54 2289.00,1318.42 2289.00,1318.42
             2289.00,1318.42 2256.00,1306.08 2256.00,1306.08
             2222.81,1290.96 2202.46,1270.92 2179.58,1243.00
             2171.13,1232.70 2162.89,1222.27 2155.76,1211.00
             2155.76,1211.00 2150.99,1201.00 2150.99,1201.00
             2150.99,1201.00 2139.76,1184.00 2139.76,1184.00
             2130.67,1169.08 2122.64,1152.58 2117.07,1136.00
             2112.26,1121.68 2109.26,1105.97 2107.29,1091.00
             2107.29,1091.00 2106.56,1083.00 2106.56,1083.00
             2106.56,1083.00 2104.30,1072.00 2104.30,1072.00
             2103.34,1065.31 2104.79,1065.65 2102.00,1058.00
             2097.89,1069.24 2096.02,1068.59 2096.00,1082.00
             2096.00,1082.00 2096.00,1091.00 2096.00,1091.00
             2096.03,1110.74 2104.07,1139.61 2111.45,1158.00
             2111.45,1158.00 2126.52,1191.00 2126.52,1191.00
             2126.52,1191.00 2128.91,1200.00 2128.91,1200.00
             2128.91,1200.00 2133.24,1210.00 2133.24,1210.00
             2138.51,1225.29 2143.19,1240.36 2150.26,1255.00
             2150.26,1255.00 2165.17,1285.00 2165.17,1285.00
             2168.23,1290.58 2173.81,1299.13 2175.00,1305.00 Z
           M 2128.14,2072.00
           C 2118.59,2057.54 2113.49,2047.95 2100.91,2035.04
             2084.52,2018.21 2062.06,2004.42 2040.00,1996.43
             2024.98,1991.00 2004.95,1987.69 1989.00,1986.00
             1989.00,1986.00 1980.00,1986.00 1980.00,1986.00
             1980.00,1986.00 1968.00,1984.17 1968.00,1984.17
             1968.00,1984.17 1950.00,1982.83 1950.00,1982.83
             1950.00,1982.83 1940.00,1981.13 1940.00,1981.13
             1912.62,1977.20 1885.44,1971.77 1859.00,1963.51
             1829.33,1954.24 1811.03,1948.96 1787.17,1927.26
             1772.59,1914.00 1759.04,1892.10 1748.99,1875.00
             1736.67,1854.02 1721.40,1828.63 1715.51,1805.00
             1710.80,1786.07 1711.97,1773.11 1712.00,1754.00
             1712.00,1754.00 1715.90,1719.00 1715.90,1719.00
             1715.90,1719.00 1723.44,1694.00 1723.44,1694.00
             1723.44,1694.00 1726.47,1684.00 1726.47,1684.00
             1727.60,1679.08 1726.22,1676.42 1732.00,1671.46
             1742.25,1662.66 1744.98,1670.11 1755.00,1667.56
             1755.00,1667.56 1766.00,1664.02 1766.00,1664.02
             1766.00,1664.02 1800.00,1653.35 1800.00,1653.35
             1800.00,1653.35 1810.99,1650.95 1810.99,1650.95
             1810.99,1650.95 1820.04,1647.05 1820.04,1647.05
             1820.04,1647.05 1830.00,1644.96 1830.00,1644.96
             1830.00,1644.96 1868.00,1633.70 1868.00,1633.70
             1868.00,1633.70 1877.00,1630.87 1877.00,1630.87
             1887.53,1628.84 1898.99,1631.33 1902.01,1630.87
             1908.41,1630.38 1915.72,1627.19 1922.00,1625.43
             1922.00,1625.43 1937.00,1622.26 1937.00,1622.26
             1937.00,1622.26 1970.00,1621.11 1970.00,1621.11
             1974.93,1620.87 1977.63,1619.05 1982.00,1618.32
             1982.00,1618.32 1992.91,1617.73 1992.91,1617.73
             1992.91,1617.73 2015.00,1610.35 2015.00,1610.35
             2015.00,1610.35 2029.96,1606.63 2029.96,1606.63
             2034.95,1604.69 2047.03,1599.09 2052.00,1599.07
             2057.22,1599.05 2058.27,1604.56 2070.00,1609.66
             2084.38,1615.91 2089.16,1612.73 2097.00,1614.00
             2089.26,1632.15 2069.56,1636.71 2052.00,1639.30
             2052.00,1639.30 2037.00,1641.91 2037.00,1641.91
             2029.36,1642.40 2020.28,1638.18 2016.36,1641.02
             2012.77,1643.62 2017.00,1648.40 2019.18,1650.32
             2026.07,1656.38 2033.49,1655.10 2042.00,1655.00
             2050.67,1654.89 2059.40,1650.67 2068.00,1651.91
             2068.00,1651.91 2077.00,1654.51 2077.00,1654.51
             2101.22,1661.13 2103.73,1663.00 2126.00,1673.36
             2126.00,1673.36 2189.00,1702.26 2189.00,1702.26
             2207.43,1711.24 2222.08,1719.64 2242.00,1725.66
             2257.32,1730.29 2274.05,1729.95 2289.00,1724.32
             2289.00,1724.32 2305.94,1715.84 2305.94,1715.84
             2310.08,1715.07 2309.94,1719.15 2310.00,1722.00
             2310.00,1722.00 2310.00,1731.00 2310.00,1731.00
             2309.96,1734.00 2307.84,1749.51 2306.98,1752.00
             2306.98,1752.00 2302.84,1760.00 2302.84,1760.00
             2301.59,1763.11 2302.29,1764.34 2299.97,1768.00
             2297.81,1771.40 2294.97,1773.79 2292.18,1776.58
             2288.90,1779.87 2285.95,1783.63 2290.24,1787.69
             2294.12,1791.35 2298.39,1789.20 2302.00,1786.47
             2313.13,1778.04 2312.52,1770.56 2321.00,1772.85
             2321.00,1772.85 2342.00,1780.72 2342.00,1780.72
             2357.03,1786.16 2376.53,1793.26 2390.00,1801.62
             2395.92,1805.29 2397.11,1807.68 2401.00,1810.30
             2401.00,1810.30 2411.00,1815.55 2411.00,1815.55
             2411.00,1815.55 2436.00,1836.09 2436.00,1836.09
             2446.52,1845.89 2461.09,1860.38 2467.88,1873.00
             2474.40,1885.14 2476.75,1896.69 2479.08,1910.00
             2479.08,1910.00 2480.96,1919.00 2480.96,1919.00
             2480.96,1919.00 2480.96,1927.00 2480.96,1927.00
             2480.96,1927.00 2482.00,1951.00 2482.00,1951.00
             2482.00,1951.00 2480.90,1963.00 2480.90,1963.00
             2480.90,1963.00 2480.90,1971.00 2480.90,1971.00
             2480.90,1971.00 2475.51,1996.00 2475.51,1996.00
             2475.51,1996.00 2466.42,2038.00 2466.42,2038.00
             2465.34,2041.25 2464.27,2049.27 2461.57,2051.01
             2459.62,2052.14 2456.23,2051.24 2454.00,2051.01
             2454.00,2051.01 2437.00,2051.01 2437.00,2051.01
             2424.07,2051.15 2412.68,2056.89 2403.00,2065.13
             2403.00,2065.13 2388.71,2077.86 2388.71,2077.86
             2386.24,2079.09 2383.64,2078.48 2381.00,2078.80
             2381.00,2078.80 2361.00,2078.80 2361.00,2078.80
             2361.00,2078.80 2361.00,2082.00 2361.00,2082.00
             2361.00,2082.00 2351.09,2082.67 2351.09,2082.67
             2351.09,2082.67 2339.00,2080.00 2339.00,2080.00
             2337.21,2085.12 2333.93,2083.86 2329.00,2085.04
             2325.18,2085.95 2320.89,2088.18 2317.00,2087.82
             2312.90,2087.44 2302.12,2080.07 2298.00,2077.60
             2289.73,2072.65 2273.08,2064.11 2264.00,2061.59
             2264.00,2061.59 2242.00,2057.39 2242.00,2057.39
             2242.00,2057.39 2211.00,2051.54 2211.00,2051.54
             2211.00,2051.54 2189.00,2046.51 2189.00,2046.51
             2189.00,2046.51 2182.00,2045.54 2182.00,2045.54
             2182.00,2045.54 2172.00,2043.30 2172.00,2043.30
             2172.00,2043.30 2164.00,2042.33 2164.00,2042.33
             2164.00,2042.33 2142.00,2037.00 2142.00,2037.00
             2139.59,2028.46 2135.34,2018.91 2128.00,2013.56
             2123.54,2010.30 2116.30,2010.03 2115.45,2017.00
             2114.98,2020.78 2120.83,2027.93 2122.65,2032.00
             2126.80,2041.25 2126.90,2046.40 2128.14,2056.00
             2128.97,2060.93 2129.86,2067.30 2128.14,2072.00 Z
           M 2476.00,2056.00
           C 2478.82,2052.65 2480.85,2050.05 2482.65,2046.00
             2486.54,2037.27 2491.65,2007.66 2493.29,1997.00
             2495.29,1984.11 2498.98,1971.12 2499.00,1958.00
             2499.00,1958.00 2499.00,1938.00 2499.00,1938.00
             2499.00,1938.00 2498.18,1927.00 2498.18,1927.00
             2498.18,1927.00 2498.82,1920.00 2498.82,1920.00
             2498.82,1920.00 2497.70,1907.00 2497.70,1907.00
             2496.88,1901.93 2494.96,1901.18 2493.71,1896.96
             2493.71,1896.96 2492.41,1891.00 2492.41,1891.00
             2488.61,1877.26 2482.65,1865.39 2474.11,1854.00
             2461.97,1837.83 2446.10,1824.96 2431.00,1811.71
             2431.00,1811.71 2423.00,1804.26 2423.00,1804.26
             2415.88,1798.39 2407.64,1795.81 2401.76,1788.00
             2394.10,1777.82 2388.15,1761.70 2382.82,1750.00
             2382.82,1750.00 2373.59,1731.00 2373.59,1731.00
             2371.92,1727.57 2365.27,1714.64 2367.11,1711.51
             2368.23,1709.61 2371.97,1708.67 2374.00,1708.16
             2374.00,1708.16 2394.00,1708.16 2394.00,1708.16
             2394.00,1708.16 2394.00,1712.08 2394.00,1712.08
             2394.00,1712.08 2425.00,1712.08 2425.00,1712.08
             2425.00,1712.08 2435.00,1712.08 2435.00,1712.08
             2435.00,1712.08 2448.00,1711.00 2448.00,1711.00
             2448.00,1711.00 2490.00,1711.00 2490.00,1711.00
             2490.00,1711.00 2506.00,1709.00 2506.00,1709.00
             2506.00,1709.00 2548.00,1709.00 2548.00,1709.00
             2548.00,1709.00 2561.01,1711.37 2561.01,1711.37
             2561.01,1711.37 2573.00,1711.37 2573.00,1711.37
             2573.00,1711.37 2582.09,1713.74 2582.09,1713.74
             2582.09,1713.74 2594.83,1715.23 2594.83,1715.23
             2594.83,1715.23 2600.09,1716.74 2600.09,1716.74
             2600.09,1716.74 2609.91,1717.95 2609.91,1717.95
             2609.91,1717.95 2617.04,1719.87 2617.04,1719.87
             2617.04,1719.87 2630.00,1721.09 2630.00,1721.09
             2630.00,1721.09 2645.83,1724.15 2645.83,1724.15
             2645.83,1724.15 2665.01,1729.23 2665.01,1729.23
             2665.01,1729.23 2674.00,1730.32 2674.00,1730.32
             2674.00,1730.32 2691.00,1733.01 2691.00,1733.01
             2691.00,1733.01 2699.00,1733.01 2699.00,1733.01
             2699.00,1733.01 2707.00,1734.86 2707.00,1734.86
             2707.00,1734.86 2717.83,1736.23 2717.83,1736.23
             2717.83,1736.23 2727.00,1738.00 2727.00,1738.00
             2723.83,1753.77 2722.64,1763.79 2715.83,1779.00
             2704.33,1804.68 2684.67,1828.56 2685.00,1858.00
             2685.12,1867.86 2687.02,1869.54 2689.00,1878.00
             2689.00,1878.00 2688.00,1879.00 2688.00,1879.00
             2680.57,1876.65 2669.52,1868.66 2665.48,1862.00
             2660.89,1854.45 2661.34,1849.27 2658.89,1844.00
             2656.61,1839.08 2654.43,1838.26 2652.58,1835.72
             2650.26,1832.52 2649.79,1825.45 2647.15,1824.00
             2645.04,1822.85 2642.77,1825.55 2641.69,1827.05
             2638.80,1831.08 2637.84,1836.14 2638.04,1841.00
             2638.04,1841.00 2639.83,1852.00 2639.83,1852.00
             2639.83,1852.00 2641.00,1882.00 2641.00,1882.00
             2640.98,1895.79 2637.20,1908.64 2634.45,1922.00
             2629.54,1945.84 2623.25,1972.67 2609.48,1993.00
             2599.66,2007.51 2578.00,2027.06 2564.00,2037.88
             2564.00,2037.88 2535.00,2057.04 2535.00,2057.04
             2530.38,2060.34 2526.70,2065.92 2521.00,2067.00
             2521.00,2067.00 2510.00,2088.00 2510.00,2088.00
             2504.58,2086.04 2500.99,2081.90 2496.91,2078.01
             2496.91,2078.01 2490.51,2072.55 2490.51,2072.55
             2490.51,2072.55 2476.00,2056.00 2476.00,2056.00 Z
           M 532.00,2448.00
           C 536.27,2442.03 544.56,2434.44 550.00,2429.00
             558.55,2420.45 567.25,2412.90 577.00,2405.73
             590.00,2396.18 627.00,2374.92 642.00,2368.15
             667.55,2356.63 684.33,2352.86 709.00,2336.48
             709.00,2336.48 722.09,2325.72 722.09,2325.72
             736.22,2314.79 749.58,2302.94 761.96,2290.00
             761.96,2290.00 777.61,2272.31 777.61,2272.31
             781.55,2268.72 784.75,2270.83 788.53,2267.35
             793.90,2262.40 792.88,2251.34 798.96,2246.25
             805.44,2240.83 817.17,2236.35 825.00,2233.00
             825.00,2233.00 836.17,2227.72 836.17,2227.72
             836.17,2227.72 845.91,2224.25 845.91,2224.25
             850.89,2222.15 853.45,2220.63 859.00,2219.04
             869.76,2215.95 881.20,2213.96 890.92,2208.06
             890.92,2208.06 913.32,2190.70 913.32,2190.70
             913.32,2190.70 935.00,2167.69 935.00,2167.69
             935.00,2167.69 967.31,2145.14 967.31,2145.14
             967.31,2145.14 976.71,2140.40 976.71,2140.40
             990.47,2132.87 1009.31,2122.96 1024.00,2118.00
             1029.01,2129.95 1030.98,2143.15 1031.00,2156.00
             1031.00,2156.00 1032.00,2173.00 1032.00,2173.00
             1032.00,2173.00 1032.00,2187.00 1032.00,2187.00
             1032.00,2187.00 1031.00,2203.00 1031.00,2203.00
             1030.97,2220.88 1030.63,2212.73 1028.43,2228.00
             1028.43,2228.00 1027.68,2236.00 1027.68,2236.00
             1027.68,2236.00 1025.32,2245.00 1025.32,2245.00
             1025.32,2245.00 1024.48,2253.00 1024.48,2253.00
             1024.48,2253.00 1021.94,2262.00 1021.94,2262.00
             1021.94,2262.00 1021.94,2272.00 1021.94,2272.00
             1021.94,2272.00 1019.46,2280.00 1019.46,2280.00
             1019.46,2280.00 1018.00,2292.01 1018.00,2292.01
             1015.13,2291.49 1010.92,2290.38 1008.28,2292.01
             1005.24,2293.92 1004.67,2299.69 1003.87,2303.00
             1001.26,2313.76 1002.76,2310.48 1001.71,2319.00
             1001.71,2319.00 998.77,2333.00 998.77,2333.00
             998.77,2333.00 993.59,2349.00 993.59,2349.00
             993.59,2349.00 986.22,2380.00 986.22,2380.00
             986.22,2380.00 978.31,2409.00 978.31,2409.00
             974.21,2430.86 975.03,2445.29 975.00,2467.00
             974.99,2474.90 973.28,2482.83 968.46,2489.28
             967.07,2491.14 964.92,2494.48 962.17,2493.66
             959.19,2492.78 956.29,2485.76 955.14,2483.00
             947.89,2465.66 945.03,2445.68 945.00,2427.00
             945.00,2424.23 945.20,2420.53 943.83,2418.06
             941.75,2414.34 938.42,2414.13 936.21,2418.06
             934.67,2421.57 935.95,2427.01 936.21,2431.00
             936.15,2443.84 934.99,2456.31 933.28,2469.00
             932.76,2472.86 933.45,2479.82 929.00,2481.00
             926.70,2498.33 919.17,2518.86 908.84,2533.00
             906.32,2536.45 897.98,2547.71 893.21,2545.12
             890.20,2543.48 887.76,2537.14 886.59,2534.00
             882.52,2523.04 883.37,2512.86 887.37,2502.00
             889.71,2495.64 892.89,2491.78 894.00,2485.00
             894.00,2485.00 885.00,2482.81 885.00,2482.81
             884.33,2482.82 884.38,2482.30 882.78,2482.81
             878.96,2483.42 867.15,2494.86 864.00,2498.00
             843.83,2518.14 833.23,2537.23 831.18,2566.00
             830.80,2571.40 832.80,2581.71 834.44,2587.00
             835.39,2590.08 838.08,2594.91 837.16,2597.91
             836.13,2601.27 826.10,2608.63 823.00,2611.27
             823.00,2611.27 785.99,2642.09 785.99,2642.09
             782.32,2645.70 782.73,2646.64 779.83,2650.01
             779.83,2650.01 768.04,2662.00 768.04,2662.00
             768.04,2662.00 760.13,2670.95 760.13,2670.95
             755.67,2675.79 749.98,2679.53 746.24,2685.04
             741.40,2692.17 742.80,2695.01 739.41,2702.00
             739.41,2702.00 725.57,2729.99 725.57,2729.99
             725.57,2729.99 720.35,2738.09 720.35,2738.09
             720.35,2738.09 715.74,2752.00 715.74,2752.00
             698.60,2788.39 685.29,2810.38 680.84,2852.00
             680.84,2852.00 679.00,2869.00 679.00,2869.00
             678.73,2892.61 680.26,2905.86 684.46,2929.00
             687.11,2943.59 692.96,2965.69 693.00,2980.00
             688.84,2977.58 688.34,2975.02 685.99,2971.00
             685.99,2971.00 674.54,2949.00 674.54,2949.00
             662.03,2922.58 645.22,2882.85 641.95,2854.00
             641.95,2854.00 639.47,2825.00 639.47,2825.00
             638.42,2820.74 634.88,2816.30 630.11,2818.96
             625.79,2821.36 624.69,2828.55 623.92,2833.00
             621.38,2847.70 622.00,2857.33 622.00,2872.00
             622.00,2875.17 622.59,2886.30 620.98,2888.41
             620.05,2889.62 619.23,2889.57 618.00,2890.00
             618.00,2890.00 576.45,2835.00 576.45,2835.00
             563.00,2812.40 556.11,2786.11 541.90,2764.00
             537.44,2757.07 534.55,2757.81 530.09,2753.78
             527.14,2751.11 523.25,2745.41 520.88,2742.00
             503.64,2717.12 490.24,2690.17 485.44,2660.00
             485.44,2660.00 484.57,2652.00 484.57,2652.00
             484.57,2652.00 482.00,2630.00 482.00,2630.00
             481.68,2602.25 483.34,2571.61 497.43,2547.00
             505.63,2532.66 511.70,2527.96 522.00,2516.00
             524.47,2513.13 531.27,2505.72 531.27,2502.00
             531.27,2497.84 526.60,2495.43 523.00,2495.12
             515.12,2494.45 509.32,2499.57 503.00,2503.23
             501.04,2504.14 497.81,2505.70 496.04,2503.23
             493.30,2499.85 499.64,2490.34 501.46,2487.00
             505.15,2480.21 511.61,2469.79 517.12,2464.54
             521.14,2460.71 523.58,2461.60 526.16,2458.60
             526.16,2458.60 534.00,2447.00 534.00,2447.00
             534.00,2447.00 532.00,2448.00 532.00,2448.00 Z
           M 2620.00,2408.00
           C 2612.34,2404.01 2609.54,2395.12 2602.00,2389.41
             2594.76,2383.93 2576.14,2381.11 2567.00,2381.00
             2558.41,2380.90 2546.95,2381.27 2539.02,2384.84
             2533.63,2387.26 2534.77,2390.47 2528.96,2394.45
             2528.96,2394.45 2518.00,2400.67 2518.00,2400.67
             2508.51,2407.29 2497.64,2416.85 2487.00,2421.48
             2487.00,2421.48 2480.00,2424.03 2480.00,2424.03
             2480.00,2424.03 2466.00,2430.99 2466.00,2430.99
             2448.14,2438.40 2422.35,2444.97 2403.00,2445.00
             2403.00,2445.00 2386.00,2445.00 2386.00,2445.00
             2386.00,2445.00 2372.00,2443.17 2372.00,2443.17
             2372.00,2443.17 2364.00,2442.56 2364.00,2442.56
             2364.00,2442.56 2343.00,2436.95 2343.00,2436.95
             2305.98,2425.11 2271.38,2400.18 2263.20,2360.00
             2262.03,2354.24 2261.08,2352.09 2261.00,2346.00
             2261.00,2346.00 2261.00,2341.00 2261.00,2341.00
             2261.17,2326.66 2269.21,2307.89 2278.32,2297.00
             2285.25,2288.73 2289.07,2288.98 2291.76,2286.93
             2293.36,2285.71 2294.39,2284.18 2293.60,2282.12
             2292.35,2278.86 2288.83,2279.01 2286.00,2278.84
             2281.46,2278.56 2277.06,2277.81 2273.00,2275.67
             2264.59,2271.26 2262.61,2267.13 2257.40,2260.00
             2255.36,2257.21 2253.25,2255.34 2252.03,2252.00
             2250.77,2248.58 2250.84,2243.57 2251.44,2240.00
             2252.23,2235.33 2255.21,2228.12 2257.63,2224.04
             2258.85,2221.98 2260.92,2219.16 2263.73,2219.82
             2265.90,2220.34 2269.81,2228.60 2271.68,2231.00
             2276.80,2237.56 2286.51,2242.60 2295.00,2241.80
             2303.56,2241.00 2311.41,2237.09 2317.49,2231.12
             2323.22,2225.48 2323.66,2220.71 2329.02,2220.23
             2333.80,2219.81 2339.31,2222.25 2344.00,2222.51
             2348.08,2222.73 2350.21,2220.63 2360.00,2221.02
             2366.01,2221.26 2366.33,2223.19 2370.00,2223.11
             2370.00,2223.11 2375.00,2222.05 2375.00,2222.05
             2378.81,2221.70 2396.01,2220.66 2398.89,2222.05
             2404.74,2224.39 2400.99,2228.92 2409.02,2235.48
             2419.05,2243.68 2429.75,2244.53 2442.00,2245.27
             2442.00,2245.27 2448.00,2245.27 2448.00,2245.27
             2453.93,2245.27 2458.10,2239.56 2461.06,2235.00
             2462.91,2232.15 2464.38,2228.32 2468.09,2227.60
             2468.09,2227.60 2482.00,2227.60 2482.00,2227.60
             2483.93,2227.42 2485.71,2227.09 2487.26,2228.61
             2488.96,2230.28 2489.47,2237.64 2490.71,2241.00
             2494.02,2249.96 2503.10,2258.34 2513.00,2258.74
             2527.41,2259.31 2546.52,2244.14 2558.00,2236.34
             2564.61,2231.85 2572.03,2226.96 2580.00,2225.23
             2583.78,2224.76 2592.71,2224.99 2597.00,2225.23
             2601.40,2225.01 2602.64,2224.94 2607.00,2226.00
             2607.00,2226.00 2607.00,2229.00 2607.00,2229.00
             2600.31,2232.76 2593.30,2237.40 2589.13,2244.00
             2587.17,2247.11 2585.68,2250.50 2587.78,2253.96
             2591.87,2260.69 2598.67,2258.29 2605.00,2259.32
             2613.19,2260.66 2618.65,2264.13 2624.25,2270.17
             2632.15,2278.70 2645.89,2301.60 2648.33,2313.00
             2650.63,2323.75 2650.02,2335.07 2650.00,2346.00
             2649.99,2354.59 2648.97,2360.01 2645.72,2368.00
             2638.29,2386.24 2628.74,2393.47 2620.00,2408.00 Z
           M 3036.00,2811.00
           C 3036.00,2811.00 3161.00,2811.00 3161.00,2811.00
             3161.00,2811.00 3161.00,2997.00 3161.00,2997.00
             3161.00,2997.00 3349.00,2997.00 3349.00,2997.00
             3349.00,2997.00 3349.00,3125.00 3349.00,3125.00
             3349.00,3125.00 3161.00,3125.00 3161.00,3125.00
             3161.00,3125.00 3161.00,3311.00 3161.00,3311.00
             3161.00,3311.00 3036.00,3311.00 3036.00,3311.00
             3036.00,3311.00 3036.00,3125.00 3036.00,3125.00
             3036.00,3125.00 2848.00,3125.00 2848.00,3125.00
             2848.00,3125.00 2848.00,2997.00 2848.00,2997.00
             2848.00,2997.00 3036.00,2997.00 3036.00,2997.00
             3036.00,2997.00 3036.00,2811.00 3036.00,2811.00 Z" />
</svg>
