<?xml version="1.0" encoding="UTF-8" standalone="no"?>
<!DOCTYPE svg PUBLIC "-//W3C//DTD SVG 20010904//EN"
              "http://www.w3.org/TR/2001/REC-SVG-20010904/DTD/svg10.dtd">

<svg xmlns="http://www.w3.org/2000/svg"
     width="12in" height="12in"
     viewBox="0 0 3600 3600">
  <path id="4 - dark grey tufts"
        fill="none" stroke="black" stroke-width="1"
        d="M 754.00,511.00
           C 754.00,511.00 879.00,511.00 879.00,511.00
             879.00,511.00 879.00,697.00 879.00,697.00
             879.00,697.00 1067.00,697.00 1067.00,697.00
             1067.00,697.00 1067.00,825.00 1067.00,825.00
             1067.00,825.00 879.00,825.00 879.00,825.00
             879.00,825.00 879.00,1011.00 879.00,1011.00
             879.00,1011.00 754.00,1011.00 754.00,1011.00
             754.00,1011.00 754.00,825.00 754.00,825.00
             754.00,825.00 566.00,825.00 566.00,825.00
             566.00,825.00 566.00,697.00 566.00,697.00
             566.00,697.00 754.00,697.00 754.00,697.00
             754.00,697.00 754.00,511.00 754.00,511.00 Z
           M 868.90,2511.34
           C 869.21,2511.47 869.96,2511.15 870.70,2512.42
             871.70,2514.15 870.26,2520.80 871.89,2528.00
             874.76,2540.76 879.38,2550.66 889.09,2559.82
             897.68,2567.93 913.19,2573.86 925.00,2574.00
             925.00,2574.00 934.00,2574.00 934.00,2574.00
             936.35,2574.02 940.26,2573.64 941.31,2576.31
             942.15,2578.44 939.40,2588.18 938.79,2591.00
             938.79,2591.00 933.42,2616.00 933.42,2616.00
             932.86,2619.13 931.07,2629.51 929.69,2631.77
             927.88,2634.74 925.15,2634.89 922.00,2634.98
             917.07,2635.13 915.58,2634.66 911.00,2634.16
             891.45,2632.07 883.53,2625.97 869.00,2613.42
             859.49,2605.21 850.92,2596.16 846.89,2584.00
             844.44,2576.61 844.91,2568.69 845.00,2561.00
             845.16,2547.77 851.67,2532.79 859.03,2522.00
             861.65,2518.16 864.45,2513.03 868.90,2511.34 Z
           M 1343.00,2578.00
           C 1341.40,2585.91 1337.67,2595.84 1338.32,2604.00
             1339.73,2621.64 1357.12,2633.87 1374.00,2634.91
             1377.08,2635.10 1382.28,2633.72 1384.42,2635.64
             1386.26,2637.29 1386.67,2641.63 1387.00,2644.00
             1387.00,2644.00 1389.72,2661.00 1389.72,2661.00
             1389.99,2663.30 1390.49,2667.20 1388.43,2668.83
             1384.10,2672.24 1368.88,2668.04 1364.00,2666.30
             1343.25,2658.89 1325.10,2637.63 1325.00,2615.00
             1324.96,2604.55 1326.98,2596.05 1332.46,2587.00
             1335.40,2582.16 1337.22,2578.96 1343.00,2578.00 Z
           M 811.00,2780.00
           C 805.26,2762.28 808.37,2746.21 814.00,2729.00
             822.62,2702.63 836.50,2676.05 862.00,2662.49
             873.61,2656.31 896.61,2651.34 910.00,2648.60
             913.42,2647.90 924.45,2645.00 926.17,2649.29
             926.96,2651.27 925.19,2657.55 924.75,2660.00
             924.75,2660.00 919.88,2684.00 919.88,2684.00
             919.33,2686.48 918.79,2691.66 917.15,2693.40
             914.97,2695.70 908.10,2694.97 905.00,2695.00
             893.95,2695.13 882.85,2699.59 873.00,2704.22
             863.01,2708.92 852.31,2713.73 844.00,2721.17
             836.02,2728.32 835.22,2731.71 829.91,2740.00
             825.07,2747.56 820.06,2754.35 817.10,2763.00
             817.10,2763.00 813.00,2780.00 813.00,2780.00
             813.00,2780.00 811.00,2780.00 811.00,2780.00 Z
           M 1324.00,2763.00
           C 1322.04,2758.30 1322.02,2757.01 1322.00,2752.00
             1321.91,2733.26 1317.03,2710.52 1333.30,2696.64
             1336.67,2693.77 1340.01,2692.00 1344.00,2690.18
             1351.22,2686.88 1366.20,2682.35 1374.00,2682.04
             1376.70,2681.93 1388.92,2682.89 1390.86,2684.02
             1394.47,2686.13 1396.29,2696.02 1395.82,2699.94
             1395.25,2704.58 1391.56,2703.81 1388.00,2704.09
             1381.90,2704.56 1372.44,2706.69 1367.00,2709.44
             1354.64,2715.68 1344.54,2729.13 1337.86,2741.00
             1334.04,2747.79 1329.53,2758.02 1324.00,2763.00 Z
           M 839.00,2855.00
           C 844.05,2840.43 848.81,2825.62 849.00,2810.00
             849.32,2782.70 841.78,2777.36 842.00,2758.00
             842.12,2747.89 847.56,2734.22 855.10,2727.47
             860.65,2722.49 878.52,2714.54 886.00,2711.42
             892.31,2708.80 899.15,2707.29 906.00,2707.04
             908.56,2706.94 912.42,2706.80 913.94,2709.31
             915.36,2711.67 913.25,2718.10 912.75,2721.00
             912.75,2721.00 907.46,2751.00 907.46,2751.00
             907.46,2751.00 900.95,2791.00 900.95,2791.00
             900.95,2791.00 895.57,2804.00 895.57,2804.00
             895.57,2804.00 892.19,2821.00 892.19,2821.00
             889.60,2827.88 880.53,2837.41 874.83,2842.23
             867.17,2848.71 849.12,2857.78 839.00,2855.00 Z
           M 1356.00,2813.00
           C 1358.30,2804.95 1364.53,2795.85 1363.66,2787.00
             1363.02,2780.40 1360.12,2774.36 1358.68,2768.00
             1357.77,2763.96 1357.95,2758.24 1358.00,2754.00
             1358.21,2736.21 1364.12,2719.21 1384.00,2716.95
             1388.14,2716.48 1395.14,2714.55 1398.15,2718.31
             1400.17,2720.85 1401.31,2730.42 1401.92,2734.00
             1402.60,2737.97 1405.11,2747.59 1404.50,2751.00
             1403.86,2754.55 1400.27,2758.49 1398.52,2762.00
             1398.52,2762.00 1392.68,2776.00 1392.68,2776.00
             1388.46,2784.03 1384.55,2788.13 1379.00,2795.00
             1373.38,2801.95 1365.37,2811.92 1356.00,2813.00 Z
           M 3036.00,2811.00
           C 3036.00,2811.00 3161.00,2811.00 3161.00,2811.00
             3161.00,2811.00 3161.00,2997.00 3161.00,2997.00
             3161.00,2997.00 3349.00,2997.00 3349.00,2997.00
             3349.00,2997.00 3349.00,3125.00 3349.00,3125.00
             3349.00,3125.00 3161.00,3125.00 3161.00,3125.00
             3161.00,3125.00 3161.00,3311.00 3161.00,3311.00
             3161.00,3311.00 3036.00,3311.00 3036.00,3311.00
             3036.00,3311.00 3036.00,3125.00 3036.00,3125.00
             3036.00,3125.00 2848.00,3125.00 2848.00,3125.00
             2848.00,3125.00 2848.00,2997.00 2848.00,2997.00
             2848.00,2997.00 3036.00,2997.00 3036.00,2997.00
             3036.00,2997.00 3036.00,2811.00 3036.00,2811.00 Z" />
</svg>
