<?xml version="1.0" encoding="UTF-8" standalone="no"?>
<!DOCTYPE svg PUBLIC "-//W3C//DTD SVG 20010904//EN"
              "http://www.w3.org/TR/2001/REC-SVG-20010904/DTD/svg10.dtd">

<svg xmlns="http://www.w3.org/2000/svg"
     width="12in" height="12in"
     viewBox="0 0 3600 3600">
  <path id="5 - based brown"
        fill="none" stroke="black" stroke-width="1"
        d="M 754.00,511.00
           C 754.00,511.00 879.00,511.00 879.00,511.00
             879.00,511.00 879.00,697.00 879.00,697.00
             879.00,697.00 1067.00,697.00 1067.00,697.00
             1067.00,697.00 1067.00,825.00 1067.00,825.00
             1067.00,825.00 879.00,825.00 879.00,825.00
             879.00,825.00 879.00,1011.00 879.00,1011.00
             879.00,1011.00 754.00,1011.00 754.00,1011.00
             754.00,1011.00 754.00,825.00 754.00,825.00
             754.00,825.00 566.00,825.00 566.00,825.00
             566.00,825.00 566.00,697.00 566.00,697.00
             566.00,697.00 754.00,697.00 754.00,697.00
             754.00,697.00 754.00,511.00 754.00,511.00 Z
           M 1818.00,1010.00
           C 1814.94,998.62 1812.34,994.23 1810.23,981.00
             1808.02,966.26 1808.60,941.01 1810.23,926.00
             1810.23,926.00 1811.71,917.00 1811.71,917.00
             1811.71,917.00 1813.01,907.00 1813.01,907.00
             1813.01,907.00 1828.20,850.00 1828.20,850.00
             1828.20,850.00 1835.68,822.00 1835.68,822.00
             1835.68,822.00 1837.27,810.00 1837.27,810.00
             1838.15,804.34 1838.92,803.21 1839.00,797.00
             1839.21,778.68 1839.44,767.24 1835.49,749.00
             1833.80,741.21 1829.78,729.42 1826.72,722.00
             1826.72,722.00 1821.95,711.00 1821.95,711.00
             1821.95,711.00 1820.20,702.00 1820.20,702.00
             1820.20,702.00 1809.02,679.00 1809.02,679.00
             1802.80,665.06 1797.18,643.25 1797.00,628.00
             1797.00,628.00 1797.92,605.00 1797.92,605.00
             1798.23,601.12 1798.28,595.52 1800.73,592.33
             1806.89,584.30 1822.96,584.90 1832.00,585.00
             1838.73,585.08 1841.75,586.37 1848.00,587.54
             1874.07,592.44 1889.26,600.34 1909.00,618.17
             1923.10,630.91 1939.64,651.32 1948.91,668.00
             1948.91,668.00 1958.26,687.00 1958.26,687.00
             1965.94,702.86 1970.21,711.36 1973.38,729.00
             1973.38,729.00 1974.29,738.00 1974.29,738.00
             1974.29,738.00 1975.96,747.00 1975.96,747.00
             1975.96,747.00 1975.96,756.00 1975.96,756.00
             1975.96,756.00 1977.00,776.00 1977.00,776.00
             1977.00,776.00 1976.04,788.00 1976.04,788.00
             1976.04,788.00 1976.04,799.00 1976.04,799.00
             1976.04,799.00 1973.96,815.00 1973.96,815.00
             1973.96,815.00 1973.96,824.00 1973.96,824.00
             1973.96,824.00 1971.30,840.00 1971.30,840.00
             1971.30,840.00 1969.91,851.00 1969.91,851.00
             1965.79,872.89 1956.85,900.56 1946.04,920.00
             1941.42,928.32 1933.27,933.42 1927.78,941.00
             1921.07,950.28 1912.19,970.87 1908.29,982.00
             1906.42,987.35 1902.75,1000.61 1902.00,1006.00
             1902.00,1006.00 1902.00,1015.00 1902.00,1015.00
             1901.44,1019.10 1900.86,1020.44 1901.04,1025.00
             1901.04,1025.00 1902.00,1038.00 1902.00,1038.00
             1902.00,1038.00 1902.00,1059.00 1902.00,1059.00
             1902.00,1059.00 1903.72,1074.00 1903.72,1074.00
             1903.72,1074.00 1905.37,1087.00 1905.37,1087.00
             1905.37,1087.00 1907.53,1095.00 1907.53,1095.00
             1907.53,1095.00 1908.75,1102.00 1908.75,1102.00
             1910.69,1108.48 1913.75,1114.85 1916.53,1121.00
             1927.50,1145.30 1937.65,1161.34 1954.58,1182.00
             1969.03,1199.65 1991.51,1224.35 2009.00,1238.54
             2009.00,1238.54 2052.00,1268.08 2052.00,1268.08
             2052.00,1268.08 2090.00,1292.29 2090.00,1292.29
             2090.00,1292.29 2124.00,1302.82 2124.00,1302.82
             2124.00,1302.82 2143.00,1310.29 2143.00,1310.29
             2143.00,1310.29 2156.00,1312.91 2156.00,1312.91
             2156.00,1312.91 2173.00,1320.34 2173.00,1320.34
             2178.79,1322.65 2188.95,1328.57 2195.00,1327.62
             2202.02,1326.51 2202.84,1321.51 2199.73,1316.00
             2199.73,1316.00 2190.81,1302.00 2190.81,1302.00
             2190.81,1302.00 2173.63,1272.00 2173.63,1272.00
             2172.16,1269.31 2167.87,1261.71 2167.61,1259.02
             2167.35,1256.19 2169.09,1254.11 2172.02,1255.17
             2175.33,1256.36 2185.69,1268.67 2188.58,1272.00
             2196.03,1280.61 2207.85,1291.24 2217.00,1298.11
             2240.46,1315.70 2255.58,1320.30 2282.00,1330.16
             2282.00,1330.16 2322.00,1343.66 2322.00,1343.66
             2327.26,1344.94 2344.09,1348.68 2344.97,1339.98
             2345.24,1337.31 2342.17,1334.21 2340.80,1332.00
             2338.50,1328.29 2335.76,1320.34 2334.43,1316.00
             2333.14,1311.76 2328.11,1300.43 2335.06,1298.81
             2337.99,1298.13 2345.01,1302.50 2348.00,1303.86
             2354.75,1306.92 2369.76,1311.96 2377.00,1313.67
             2387.81,1316.21 2414.37,1320.16 2425.00,1319.49
             2425.00,1319.49 2444.00,1318.04 2444.00,1318.04
             2452.24,1317.72 2466.39,1321.05 2474.00,1324.33
             2474.00,1324.33 2489.96,1332.16 2489.96,1332.16
             2492.62,1332.64 2494.08,1331.22 2495.16,1328.94
             2495.16,1328.94 2497.18,1322.00 2497.18,1322.00
             2497.18,1322.00 2503.26,1309.00 2503.26,1309.00
             2504.64,1306.41 2507.16,1301.63 2510.86,1303.17
             2513.88,1304.42 2513.95,1308.27 2514.00,1311.00
             2514.00,1311.00 2514.00,1315.00 2514.00,1315.00
             2514.00,1315.00 2514.92,1326.00 2514.92,1326.00
             2514.92,1326.00 2514.04,1334.00 2514.04,1334.00
             2514.04,1334.00 2514.04,1343.00 2514.04,1343.00
             2513.92,1349.74 2512.48,1356.37 2511.44,1363.00
             2511.44,1363.00 2507.18,1390.00 2507.18,1390.00
             2507.18,1390.00 2502.12,1411.00 2502.12,1411.00
             2500.41,1419.12 2496.54,1435.18 2489.90,1440.36
             2488.06,1441.79 2484.23,1443.47 2482.00,1444.43
             2467.94,1450.50 2465.21,1449.12 2451.00,1450.09
             2451.00,1450.09 2422.00,1452.00 2422.00,1452.00
             2422.00,1452.00 2408.00,1452.96 2408.00,1452.96
             2408.00,1452.96 2400.00,1452.04 2400.00,1452.04
             2400.00,1452.04 2386.00,1452.04 2386.00,1452.04
             2378.64,1452.01 2368.48,1452.11 2367.00,1461.00
             2367.00,1461.00 2375.00,1459.26 2375.00,1459.26
             2379.03,1458.59 2390.92,1457.80 2395.00,1458.09
             2404.88,1458.78 2431.64,1466.83 2442.00,1470.12
             2442.00,1470.12 2450.00,1472.66 2450.00,1472.66
             2450.00,1472.66 2460.98,1474.59 2460.98,1474.59
             2463.24,1475.49 2465.32,1477.39 2465.26,1480.00
             2465.18,1483.14 2461.08,1486.89 2459.00,1489.00
             2452.57,1495.51 2447.50,1499.82 2440.00,1505.02
             2440.00,1505.02 2408.00,1525.61 2408.00,1525.61
             2408.00,1525.61 2397.00,1532.69 2397.00,1532.69
             2387.50,1537.91 2361.64,1547.45 2351.00,1549.96
             2351.00,1549.96 2325.00,1554.06 2325.00,1554.06
             2325.00,1554.06 2315.00,1554.06 2315.00,1554.06
             2315.00,1554.06 2299.00,1556.72 2299.00,1556.72
             2299.00,1556.72 2291.00,1557.29 2291.00,1557.29
             2281.80,1558.49 2275.62,1559.98 2266.00,1560.00
             2266.00,1560.00 2247.00,1561.00 2247.00,1561.00
             2247.00,1561.00 2233.00,1560.00 2233.00,1560.00
             2223.36,1559.95 2217.23,1558.50 2208.00,1557.29
             2208.00,1557.29 2193.00,1555.84 2193.00,1555.84
             2185.32,1555.00 2184.99,1554.01 2176.00,1554.00
             2163.88,1553.98 2151.94,1552.50 2140.00,1550.56
             2132.96,1549.42 2111.42,1544.00 2105.00,1541.42
             2097.28,1538.31 2092.69,1533.90 2084.00,1533.00
             2084.60,1545.07 2093.82,1549.54 2104.00,1553.34
             2120.97,1559.68 2152.93,1565.97 2171.00,1566.00
             2180.11,1566.01 2189.01,1567.54 2198.00,1568.71
             2198.00,1568.71 2213.00,1570.16 2213.00,1570.16
             2213.00,1570.16 2221.00,1571.70 2221.00,1571.70
             2221.00,1571.70 2242.00,1573.00 2242.00,1573.00
             2242.00,1573.00 2267.00,1571.96 2267.00,1571.96
             2267.00,1571.96 2277.00,1571.96 2277.00,1571.96
             2277.00,1571.96 2286.00,1570.27 2286.00,1570.27
             2286.00,1570.27 2300.00,1568.83 2300.00,1568.83
             2300.00,1568.83 2319.00,1566.17 2319.00,1566.17
             2326.15,1565.49 2325.07,1566.49 2334.00,1564.80
             2337.42,1564.16 2346.90,1562.18 2349.69,1564.02
             2354.53,1567.23 2348.34,1579.47 2346.88,1584.00
             2340.57,1603.65 2339.76,1622.58 2340.00,1643.00
             2340.00,1643.00 2341.83,1662.00 2341.83,1662.00
             2341.83,1662.00 2343.18,1679.00 2343.18,1679.00
             2343.18,1679.00 2344.72,1686.00 2344.72,1686.00
             2347.61,1700.11 2350.54,1712.64 2356.29,1726.00
             2356.29,1726.00 2372.01,1760.00 2372.01,1760.00
             2373.18,1762.64 2377.60,1771.72 2377.43,1773.94
             2376.90,1780.54 2368.29,1776.65 2365.00,1775.29
             2365.00,1775.29 2335.00,1764.20 2335.00,1764.20
             2331.80,1763.13 2323.61,1760.94 2321.93,1758.57
             2318.63,1755.06 2321.51,1749.42 2321.93,1745.00
             2323.04,1732.72 2323.76,1720.28 2321.93,1708.00
             2321.69,1703.04 2321.21,1691.61 2313.00,1693.84
             2310.63,1694.49 2301.47,1702.62 2298.00,1704.93
             2286.66,1712.46 2279.58,1714.95 2266.00,1715.63
             2266.00,1715.63 2259.00,1715.09 2259.00,1715.09
             2239.92,1713.72 2223.84,1705.51 2207.00,1697.09
             2207.00,1697.09 2140.00,1665.69 2140.00,1665.69
             2140.00,1665.69 2108.00,1651.28 2108.00,1651.28
             2108.00,1651.28 2093.32,1645.42 2093.32,1645.42
             2090.31,1642.71 2091.67,1640.02 2094.15,1637.66
             2094.15,1637.66 2100.91,1631.91 2100.91,1631.91
             2108.04,1624.79 2113.81,1614.06 2115.05,1604.00
             2115.63,1599.25 2116.58,1590.02 2109.00,1590.42
             2104.62,1590.65 2100.84,1595.92 2097.00,1597.83
             2093.88,1599.37 2088.53,1599.04 2085.00,1599.00
             2072.92,1598.85 2062.65,1590.04 2056.67,1580.00
             2051.94,1572.07 2047.50,1560.17 2046.29,1551.00
             2046.29,1551.00 2045.72,1543.00 2045.72,1543.00
             2045.72,1543.00 2044.00,1523.00 2044.00,1523.00
             2044.00,1523.00 2044.00,1449.00 2044.00,1449.00
             2044.00,1449.00 2043.00,1429.00 2043.00,1429.00
             2043.00,1429.00 2037.75,1387.00 2037.75,1387.00
             2037.75,1387.00 2036.68,1378.00 2036.68,1378.00
             2036.68,1378.00 2034.81,1370.00 2034.81,1370.00
             2028.36,1337.76 2020.71,1314.51 2005.92,1285.00
             1981.51,1236.29 1942.48,1196.01 1898.00,1165.20
             1898.00,1165.20 1858.00,1141.37 1858.00,1141.37
             1858.00,1141.37 1838.21,1130.47 1838.21,1130.47
             1835.60,1128.12 1832.20,1122.71 1834.06,1119.14
             1836.09,1115.25 1847.60,1114.70 1839.92,1109.27
             1833.69,1104.86 1820.22,1103.33 1806.00,1094.47
             1806.00,1094.47 1780.00,1075.87 1780.00,1075.87
             1766.40,1065.67 1753.64,1055.70 1742.17,1043.00
             1722.03,1020.70 1707.05,987.36 1707.00,957.00
             1707.00,957.00 1707.00,913.00 1707.00,913.00
             1707.02,899.21 1711.88,881.43 1715.42,868.00
             1715.42,868.00 1722.91,841.00 1722.91,841.00
             1730.07,822.50 1738.42,812.38 1747.99,796.00
             1747.99,796.00 1756.71,779.00 1756.71,779.00
             1756.71,779.00 1761.61,767.00 1761.61,767.00
             1761.61,767.00 1766.37,759.00 1766.37,759.00
             1770.44,750.18 1777.50,723.87 1778.94,714.00
             1778.94,714.00 1778.94,703.00 1778.94,703.00
             1780.48,689.47 1782.02,686.13 1782.00,671.00
             1781.99,665.72 1781.47,660.23 1780.70,655.00
             1780.70,655.00 1779.09,647.00 1779.09,647.00
             1779.09,647.00 1779.09,637.00 1779.09,637.00
             1779.02,633.03 1778.78,631.43 1781.00,628.00
             1782.40,633.75 1781.97,638.18 1782.00,644.00
             1782.03,649.68 1786.49,666.19 1788.54,672.00
             1788.54,672.00 1813.69,726.00 1813.69,726.00
             1817.47,735.18 1822.78,753.25 1823.96,763.00
             1823.96,763.00 1823.96,773.00 1823.96,773.00
             1823.96,773.00 1825.00,787.00 1825.00,787.00
             1825.00,787.00 1823.89,797.00 1823.89,797.00
             1823.89,797.00 1823.89,808.00 1823.89,808.00
             1823.89,808.00 1819.32,831.00 1819.32,831.00
             1818.37,836.87 1819.95,836.36 1817.36,846.00
             1817.36,846.00 1812.57,861.00 1812.57,861.00
             1805.81,883.76 1800.03,907.24 1798.96,931.00
             1798.96,931.00 1798.09,942.00 1798.09,942.00
             1799.09,959.53 1801.65,976.57 1808.10,993.00
             1810.43,998.92 1812.20,1006.65 1818.00,1010.00 Z
           M 2485.00,711.00
           C 2473.80,710.90 2471.71,707.52 2462.00,703.15
             2462.00,703.15 2433.00,691.54 2433.00,691.54
             2433.00,691.54 2414.00,685.60 2414.00,685.60
             2414.00,685.60 2404.31,684.40 2404.31,684.40
             2400.98,682.79 2400.26,673.25 2401.60,670.22
             2402.98,667.10 2410.85,664.29 2414.00,662.64
             2421.95,658.47 2432.91,650.61 2438.90,644.00
             2441.86,640.73 2445.54,635.69 2444.31,631.00
             2443.63,628.41 2441.33,624.86 2438.26,626.74
             2435.80,628.25 2434.83,632.98 2431.61,636.99
             2427.38,642.26 2416.99,648.70 2411.00,652.39
             2409.10,653.56 2404.23,656.81 2402.13,656.71
             2398.84,656.55 2397.89,651.52 2397.22,649.00
             2397.22,649.00 2390.00,629.00 2390.00,629.00
             2388.93,626.53 2385.60,620.53 2385.70,618.13
             2385.84,614.85 2395.21,610.34 2398.00,608.49
             2412.41,598.90 2426.30,592.61 2444.00,593.01
             2463.20,593.45 2468.22,606.18 2475.00,622.00
             2477.81,628.57 2482.40,639.13 2483.68,646.00
             2486.00,658.51 2485.00,696.03 2485.00,711.00 Z
           M 2520.00,1389.00
           C 2520.17,1381.06 2521.93,1377.80 2522.82,1371.00
             2525.84,1347.99 2530.39,1321.57 2523.41,1299.00
             2518.94,1284.52 2507.52,1269.22 2491.00,1269.00
             2487.89,1268.96 2482.76,1269.51 2480.13,1267.40
             2477.68,1265.12 2478.55,1262.64 2480.13,1260.00
             2480.13,1260.00 2489.31,1242.00 2489.31,1242.00
             2490.98,1238.20 2494.84,1226.72 2498.21,1225.08
             2502.20,1223.13 2506.21,1228.34 2508.38,1231.00
             2514.70,1238.74 2521.66,1252.83 2526.25,1262.00
             2535.64,1280.78 2537.16,1294.58 2538.68,1315.00
             2538.97,1318.90 2537.56,1323.94 2537.00,1328.00
             2534.21,1348.12 2535.42,1342.99 2529.34,1362.00
             2527.23,1368.61 2523.23,1383.73 2520.00,1389.00 Z
           M 1001.00,1413.21
           C 1001.00,1413.21 1046.00,1413.21 1046.00,1413.21
             1054.81,1413.01 1063.32,1414.58 1072.00,1415.94
             1072.00,1415.94 1081.00,1415.94 1081.00,1415.94
             1081.00,1415.94 1105.00,1419.82 1105.00,1419.82
             1131.48,1425.41 1154.57,1435.02 1179.00,1446.36
             1194.31,1453.46 1207.61,1459.27 1222.00,1468.44
             1222.00,1468.44 1273.00,1508.58 1273.00,1508.58
             1288.39,1520.58 1301.04,1533.01 1318.00,1542.99
             1322.32,1545.53 1337.37,1552.12 1338.83,1556.04
             1340.97,1561.77 1329.78,1564.21 1326.00,1565.58
             1311.71,1570.73 1298.42,1577.71 1285.00,1584.75
             1280.82,1586.94 1274.88,1592.19 1270.68,1587.69
             1267.82,1584.61 1269.41,1582.16 1258.00,1571.01
             1242.03,1555.40 1216.71,1536.97 1198.00,1524.26
             1164.92,1501.78 1129.80,1482.58 1091.00,1472.08
             1080.79,1469.32 1058.05,1464.12 1048.00,1464.00
             1048.00,1464.00 1029.00,1463.00 1029.00,1463.00
             1029.00,1463.00 1023.00,1463.00 1023.00,1463.00
             1023.00,1463.00 1006.00,1464.00 1006.00,1464.00
             998.58,1464.04 998.66,1464.70 992.00,1465.73
             992.00,1465.73 980.00,1467.32 980.00,1467.32
             966.13,1469.73 952.36,1473.86 939.00,1478.26
             917.48,1485.34 893.59,1497.30 875.00,1510.20
             843.48,1532.09 825.56,1552.69 802.87,1583.00
             792.53,1596.83 783.79,1611.87 775.52,1627.00
             756.22,1662.35 741.71,1700.36 734.39,1740.00
             732.70,1749.09 729.11,1767.29 728.96,1776.00
             728.96,1776.00 728.96,1787.00 728.96,1787.00
             728.96,1787.00 728.00,1800.00 728.00,1800.00
             728.00,1800.00 728.96,1810.00 728.96,1810.00
             728.96,1810.00 728.96,1824.00 728.96,1824.00
             729.11,1830.53 730.04,1829.52 730.74,1834.00
             731.13,1836.49 730.82,1844.04 726.30,1841.83
             722.94,1840.19 725.44,1835.47 721.71,1827.00
             721.71,1827.00 716.72,1806.00 716.72,1806.00
             714.00,1792.96 711.02,1780.44 711.00,1767.00
             711.00,1767.00 711.00,1763.00 711.00,1763.00
             711.10,1754.91 712.55,1746.96 713.70,1739.00
             713.70,1739.00 714.44,1731.00 714.44,1731.00
             717.89,1709.15 729.10,1675.85 737.36,1655.00
             759.72,1598.54 786.42,1561.74 826.83,1517.00
             860.74,1479.46 902.92,1443.31 951.00,1425.53
             968.63,1419.01 982.55,1416.10 1001.00,1413.21 Z
           M 1426.00,2046.00
           C 1425.29,2051.35 1424.53,2056.58 1425.18,2062.00
             1426.29,2071.23 1434.54,2091.96 1438.44,2101.00
             1438.44,2101.00 1453.10,2133.00 1453.10,2133.00
             1453.10,2133.00 1466.86,2157.00 1466.86,2157.00
             1468.85,2160.13 1472.16,2164.07 1471.39,2168.00
             1470.89,2170.54 1467.15,2175.51 1465.61,2178.00
             1465.61,2178.00 1451.23,2201.00 1451.23,2201.00
             1451.23,2201.00 1406.22,2275.00 1406.22,2275.00
             1406.22,2275.00 1384.50,2313.00 1384.50,2313.00
             1384.50,2313.00 1378.03,2323.00 1378.03,2323.00
             1378.03,2323.00 1373.69,2332.00 1373.69,2332.00
             1373.69,2332.00 1354.10,2368.00 1354.10,2368.00
             1327.68,2418.46 1303.95,2471.39 1287.57,2526.00
             1279.94,2551.42 1273.61,2577.80 1269.32,2604.00
             1269.32,2604.00 1268.58,2612.00 1268.58,2612.00
             1268.58,2612.00 1266.00,2627.00 1266.00,2627.00
             1266.00,2627.00 1266.00,2635.00 1266.00,2635.00
             1266.00,2635.00 1263.00,2665.00 1263.00,2665.00
             1263.00,2665.00 1263.00,2683.00 1263.00,2683.00
             1263.00,2683.00 1262.00,2698.00 1262.00,2698.00
             1262.00,2698.00 1262.00,2721.00 1262.00,2721.00
             1262.00,2721.00 1263.00,2738.00 1263.00,2738.00
             1263.00,2738.00 1263.00,2764.00 1263.00,2764.00
             1263.00,2764.00 1265.00,2797.00 1265.00,2797.00
             1265.00,2797.00 1266.00,2813.00 1266.00,2813.00
             1266.00,2813.00 1266.00,2824.00 1266.00,2824.00
             1266.00,2824.00 1268.00,2856.00 1268.00,2856.00
             1268.00,2856.00 1269.00,2871.00 1269.00,2871.00
             1269.00,2871.00 1269.00,2883.00 1269.00,2883.00
             1269.00,2883.00 1271.00,2915.00 1271.00,2915.00
             1271.00,2915.00 1272.00,2930.00 1272.00,2930.00
             1272.00,2930.00 1272.00,2942.00 1272.00,2942.00
             1272.00,2942.00 1274.00,2975.00 1274.00,2975.00
             1274.00,2975.00 1275.00,2990.00 1275.00,2990.00
             1275.00,2990.00 1275.00,3002.00 1275.00,3002.00
             1275.00,3002.00 1277.00,3030.00 1277.00,3030.00
             1277.00,3030.00 1278.00,3047.00 1278.00,3047.00
             1278.00,3047.00 1278.00,3063.00 1278.00,3063.00
             1278.00,3063.00 1278.91,3073.00 1278.91,3073.00
             1278.91,3073.00 1280.00,3095.00 1280.00,3095.00
             1280.00,3095.00 1281.00,3110.00 1281.00,3110.00
             1281.00,3110.00 1281.00,3123.00 1281.00,3123.00
             1281.00,3123.00 1283.00,3151.00 1283.00,3151.00
             1283.00,3151.00 1284.00,3168.00 1284.00,3168.00
             1284.00,3168.00 1284.00,3185.00 1284.00,3185.00
             1284.00,3185.00 1286.00,3213.00 1286.00,3213.00
             1285.98,3215.35 1286.19,3218.61 1284.40,3220.40
             1282.48,3222.32 1278.54,3221.99 1276.00,3222.00
             1276.00,3222.00 1264.00,3222.00 1264.00,3222.00
             1264.00,3222.00 1245.00,3223.00 1245.00,3223.00
             1221.64,3223.28 1199.33,3235.60 1180.00,3247.58
             1166.46,3255.97 1151.72,3265.85 1141.30,3278.00
             1132.80,3287.91 1126.87,3299.40 1121.09,3311.00
             1119.35,3314.47 1115.73,3324.30 1112.86,3325.98
             1110.77,3327.20 1107.38,3327.00 1105.00,3327.00
             1105.00,3327.00 1080.00,3327.00 1080.00,3327.00
             1080.00,3327.00 1061.00,3326.00 1061.00,3326.00
             1061.00,3326.00 1044.00,3323.96 1044.00,3323.96
             1044.00,3323.96 1035.00,3323.96 1035.00,3323.96
             1035.00,3323.96 1019.00,3321.29 1019.00,3321.29
             998.63,3318.54 979.80,3314.27 961.00,3305.63
             952.81,3301.86 948.51,3298.93 941.00,3294.40
             938.17,3292.69 933.68,3290.36 931.72,3287.79
             929.39,3284.74 927.51,3277.79 926.45,3274.00
             923.48,3263.48 921.44,3248.95 920.96,3238.00
             920.96,3238.00 919.29,3226.00 919.29,3226.00
             919.29,3226.00 918.00,3207.00 918.00,3207.00
             918.00,3207.00 916.91,3180.00 916.91,3180.00
             916.91,3180.00 916.00,3168.00 916.00,3168.00
             916.00,3168.00 916.00,3146.00 916.00,3146.00
             916.00,3146.00 915.00,3131.00 915.00,3131.00
             915.00,3131.00 915.00,3097.00 915.00,3097.00
             915.00,3097.00 913.00,3067.00 913.00,3067.00
             913.00,3067.00 912.00,3053.00 912.00,3053.00
             912.00,3053.00 912.00,3046.00 912.00,3046.00
             912.00,3046.00 910.17,3027.00 910.17,3027.00
             910.17,3027.00 909.00,3004.00 909.00,3004.00
             909.00,3004.00 907.09,2984.00 907.09,2984.00
             907.09,2984.00 906.00,2945.00 906.00,2945.00
             906.00,2945.00 905.00,2930.00 905.00,2930.00
             905.00,2930.00 906.00,2871.00 906.00,2871.00
             906.00,2871.00 909.00,2842.00 909.00,2842.00
             909.00,2842.00 909.00,2832.00 909.00,2832.00
             909.00,2832.00 911.83,2813.00 911.83,2813.00
             911.83,2813.00 914.70,2791.00 914.70,2791.00
             914.70,2791.00 916.14,2778.00 916.14,2778.00
             916.14,2778.00 924.61,2728.00 924.61,2728.00
             924.61,2728.00 929.68,2703.00 929.68,2703.00
             929.68,2703.00 944.49,2628.00 944.49,2628.00
             944.49,2628.00 957.92,2566.00 957.92,2566.00
             973.76,2505.68 994.43,2450.62 1020.47,2394.00
             1030.73,2371.71 1047.98,2338.90 1064.17,2321.00
             1070.20,2314.34 1083.13,2303.56 1092.00,2301.53
             1094.72,2300.90 1098.18,2300.97 1101.00,2301.00
             1107.48,2301.08 1109.94,2302.03 1116.00,2303.53
             1119.35,2304.35 1127.10,2306.06 1129.94,2307.50
             1135.57,2310.34 1135.63,2322.29 1136.59,2328.00
             1136.94,2330.07 1137.39,2333.93 1139.38,2335.09
             1141.63,2336.40 1142.92,2333.59 1143.61,2331.98
             1145.56,2327.45 1145.98,2323.85 1146.00,2319.00
             1146.00,2319.00 1146.00,2308.00 1146.00,2308.00
             1146.00,2308.00 1137.81,2265.00 1137.81,2265.00
             1137.81,2265.00 1133.49,2240.00 1133.49,2240.00
             1133.49,2240.00 1119.92,2180.00 1119.92,2180.00
             1119.92,2180.00 1118.64,2173.00 1118.64,2173.00
             1118.64,2173.00 1109.83,2122.00 1109.83,2122.00
             1109.83,2122.00 1107.00,2098.00 1107.00,2098.00
             1107.00,2098.00 1104.00,2057.00 1104.00,2057.00
             1104.00,2057.00 1101.00,2020.00 1101.00,2020.00
             1101.00,2020.00 1098.96,1993.00 1098.96,1993.00
             1098.96,1993.00 1098.96,1980.00 1098.96,1980.00
             1098.96,1980.00 1098.00,1968.00 1098.00,1968.00
             1098.00,1968.00 1099.00,1937.00 1099.00,1937.00
             1099.00,1937.00 1100.72,1922.00 1100.72,1922.00
             1100.72,1922.00 1101.43,1912.00 1101.43,1912.00
             1101.43,1912.00 1103.68,1901.00 1103.68,1901.00
             1103.68,1901.00 1115.42,1848.00 1115.42,1848.00
             1115.42,1848.00 1119.68,1829.00 1119.68,1829.00
             1124.12,1810.20 1130.26,1791.29 1138.92,1774.00
             1142.41,1767.03 1146.63,1757.55 1152.09,1752.09
             1157.40,1746.78 1169.02,1741.24 1176.00,1737.75
             1206.89,1722.31 1234.91,1718.60 1269.00,1719.00
             1269.00,1719.00 1296.00,1721.71 1296.00,1721.71
             1296.00,1721.71 1305.00,1722.44 1305.00,1722.44
             1305.00,1722.44 1314.00,1724.49 1314.00,1724.49
             1314.00,1724.49 1335.00,1729.20 1335.00,1729.20
             1384.70,1743.71 1430.31,1773.56 1471.00,1804.89
             1471.00,1804.89 1509.00,1835.55 1509.00,1835.55
             1538.47,1859.09 1596.99,1901.52 1629.00,1920.19
             1649.14,1931.93 1670.67,1938.88 1693.00,1944.92
             1708.97,1949.24 1713.64,1949.94 1730.00,1951.09
             1733.44,1951.33 1735.40,1952.07 1739.00,1951.82
             1739.00,1951.82 1764.00,1949.49 1764.00,1949.49
             1771.06,1948.06 1778.76,1945.25 1786.00,1946.62
             1792.59,1947.86 1800.57,1954.44 1807.00,1957.88
             1819.07,1964.36 1831.99,1969.25 1845.00,1973.48
             1873.95,1982.89 1904.01,1989.77 1934.00,1994.68
             1934.00,1994.68 1948.00,1996.15 1948.00,1996.15
             1948.00,1996.15 1958.00,1997.83 1958.00,1997.83
             1958.00,1997.83 1978.00,1999.17 1978.00,1999.17
             1978.00,1999.17 1989.00,2001.00 1989.00,2001.00
             1989.00,2001.00 1997.00,2001.00 1997.00,2001.00
             2005.55,2001.99 2022.68,2005.40 2031.00,2007.78
             2056.69,2015.12 2082.17,2033.66 2099.08,2054.00
             2108.86,2065.77 2120.81,2085.28 2121.00,2101.00
             2121.00,2101.00 2121.00,2105.00 2121.00,2105.00
             2121.03,2109.09 2121.41,2114.96 2126.09,2116.60
             2130.80,2118.25 2134.28,2111.37 2135.84,2108.00
             2140.43,2098.08 2143.87,2083.94 2144.00,2073.00
             2144.00,2073.00 2144.00,2069.00 2144.00,2069.00
             2143.95,2064.73 2141.19,2055.47 2146.15,2053.64
             2148.42,2052.80 2154.32,2054.72 2157.00,2055.26
             2157.00,2055.26 2184.00,2060.69 2184.00,2060.69
             2184.00,2060.69 2227.00,2069.68 2227.00,2069.68
             2247.33,2073.22 2262.31,2073.95 2281.00,2084.61
             2285.63,2087.25 2299.93,2093.77 2302.40,2097.21
             2305.52,2101.57 2301.57,2105.39 2299.32,2109.00
             2295.82,2114.63 2293.70,2120.28 2294.09,2127.00
             2294.54,2134.72 2297.98,2141.03 2302.67,2147.00
             2305.35,2150.43 2309.24,2153.78 2310.43,2158.00
             2312.35,2164.82 2306.85,2174.96 2307.00,2188.00
             2307.07,2193.44 2308.34,2201.07 2310.64,2206.00
             2313.12,2211.32 2317.42,2214.92 2314.97,2220.00
             2308.86,2232.68 2287.91,2237.10 2278.61,2225.83
             2271.75,2217.52 2273.18,2208.85 2273.00,2199.00
             2272.87,2192.02 2270.25,2188.90 2265.44,2196.01
             2265.44,2196.01 2251.23,2218.00 2251.23,2218.00
             2247.51,2224.56 2241.88,2236.54 2241.44,2244.00
             2240.50,2251.71 2246.76,2255.95 2241.44,2261.79
             2240.20,2263.51 2233.30,2268.08 2231.00,2269.71
             2215.08,2280.92 2205.22,2284.10 2187.00,2289.57
             2187.00,2289.57 2141.00,2302.96 2141.00,2302.96
             2141.00,2302.96 2102.00,2310.36 2102.00,2310.36
             2087.57,2313.43 2068.57,2319.26 2054.00,2319.00
             2043.41,2318.80 2044.76,2313.03 2046.92,2305.00
             2046.92,2305.00 2057.97,2265.00 2057.97,2265.00
             2058.92,2261.17 2064.83,2246.63 2056.98,2246.63
             2052.48,2246.63 2050.60,2254.53 2049.57,2258.00
             2049.57,2258.00 2039.34,2296.00 2039.34,2296.00
             2039.34,2296.00 2013.51,2404.00 2013.51,2404.00
             2013.51,2404.00 2009.19,2427.00 2009.19,2427.00
             2009.19,2427.00 2004.32,2450.00 2004.32,2450.00
             2004.32,2450.00 2002.72,2461.00 2002.72,2461.00
             2002.72,2461.00 1997.57,2492.00 1997.57,2492.00
             1997.57,2492.00 1995.30,2504.00 1995.30,2504.00
             1995.30,2504.00 1993.71,2518.00 1993.71,2518.00
             1993.71,2518.00 1992.17,2526.00 1992.17,2526.00
             1992.17,2526.00 1990.71,2541.00 1990.71,2541.00
             1990.71,2541.00 1989.17,2549.00 1989.17,2549.00
             1989.17,2549.00 1987.83,2567.00 1987.83,2567.00
             1987.83,2567.00 1986.07,2577.00 1986.07,2577.00
             1986.07,2577.00 1986.07,2586.00 1986.07,2586.00
             1986.07,2586.00 1984.91,2600.00 1984.91,2600.00
             1984.91,2600.00 1983.00,2619.00 1983.00,2619.00
             1983.00,2619.00 1982.00,2651.00 1982.00,2651.00
             1982.00,2651.00 1981.04,2661.00 1981.04,2661.00
             1981.04,2661.00 1981.04,2672.00 1981.04,2672.00
             1981.04,2672.00 1980.00,2686.00 1980.00,2686.00
             1980.00,2686.00 1980.00,2726.00 1980.00,2726.00
             1980.00,2726.00 1981.00,2741.00 1981.00,2741.00
             1981.00,2741.00 1982.00,2770.00 1982.00,2770.00
             1982.00,2770.00 1983.08,2787.00 1983.08,2787.00
             1983.08,2787.00 1983.08,2802.00 1983.08,2802.00
             1983.08,2802.00 1984.91,2816.00 1984.91,2816.00
             1984.91,2816.00 1986.00,2837.00 1986.00,2837.00
             1986.00,2837.00 1989.00,2862.00 1989.00,2862.00
             1989.00,2862.00 1989.00,2871.00 1989.00,2871.00
             1989.00,2871.00 1990.83,2881.00 1990.83,2881.00
             1990.83,2881.00 1993.18,2906.00 1993.18,2906.00
             1993.18,2906.00 1994.82,2914.00 1994.82,2914.00
             1998.83,2947.12 2004.31,2980.17 2010.46,3013.00
             2010.46,3013.00 2027.34,3093.00 2027.34,3093.00
             2027.34,3093.00 2031.59,3113.00 2031.59,3113.00
             2031.59,3113.00 2040.58,3150.00 2040.58,3150.00
             2040.58,3150.00 2049.12,3184.00 2049.12,3184.00
             2049.12,3184.00 2054.08,3202.00 2054.08,3202.00
             2054.08,3202.00 2059.50,3223.00 2059.50,3223.00
             2060.47,3226.22 2063.66,3235.99 2061.96,3238.69
             2060.34,3241.26 2056.65,3240.98 2054.00,3241.00
             2048.25,3241.05 2039.61,3241.93 2034.00,3243.12
             2020.57,3245.96 1991.09,3261.61 1979.00,3269.23
             1957.52,3282.76 1942.02,3298.98 1929.43,3321.00
             1929.43,3321.00 1921.00,3338.00 1921.00,3338.00
             1919.93,3340.53 1918.77,3344.72 1916.70,3346.40
             1914.38,3348.29 1910.83,3347.99 1908.00,3348.00
             1883.83,3348.05 1859.03,3349.13 1835.00,3346.83
             1835.00,3346.83 1823.00,3345.00 1823.00,3345.00
             1823.00,3345.00 1815.00,3345.00 1815.00,3345.00
             1815.00,3345.00 1798.00,3342.29 1798.00,3342.29
             1798.00,3342.29 1785.00,3340.86 1785.00,3340.86
             1785.00,3340.86 1752.00,3335.56 1752.00,3335.56
             1752.00,3335.56 1740.00,3333.13 1740.00,3333.13
             1724.45,3330.79 1708.81,3326.13 1695.00,3318.54
             1686.98,3314.13 1679.15,3308.47 1675.04,3300.00
             1670.07,3289.76 1672.97,3286.61 1672.49,3279.00
             1672.49,3279.00 1671.00,3256.00 1671.00,3256.00
             1671.00,3256.00 1669.09,3238.00 1669.09,3238.00
             1669.09,3238.00 1668.00,3209.00 1668.00,3209.00
             1668.00,3209.00 1666.00,3182.00 1666.00,3182.00
             1666.00,3182.00 1666.00,3169.00 1666.00,3169.00
             1666.00,3169.00 1665.00,3154.00 1665.00,3154.00
             1665.00,3154.00 1665.00,3056.00 1665.00,3056.00
             1665.00,3056.00 1665.96,3045.00 1665.96,3045.00
             1665.96,3045.00 1665.96,3033.00 1665.96,3033.00
             1665.96,3033.00 1668.00,3008.00 1668.00,3008.00
             1668.00,3008.00 1669.28,2981.00 1669.28,2981.00
             1669.28,2981.00 1671.10,2968.00 1671.10,2968.00
             1671.10,2968.00 1671.10,2956.00 1671.10,2956.00
             1671.69,2952.60 1673.07,2942.86 1672.07,2940.04
             1670.83,2936.52 1662.12,2929.19 1659.00,2926.59
             1646.39,2916.10 1641.26,2917.71 1627.00,2914.50
             1612.07,2911.15 1604.67,2908.82 1589.00,2909.00
             1578.63,2909.13 1553.37,2915.52 1543.00,2918.88
             1539.02,2920.17 1528.88,2925.93 1526.06,2925.21
             1521.23,2923.99 1521.80,2916.82 1522.17,2913.00
             1523.35,2900.79 1525.40,2890.31 1530.29,2879.00
             1541.09,2854.06 1565.28,2834.20 1591.00,2826.12
             1597.79,2823.99 1606.84,2821.65 1614.00,2822.09
             1619.49,2822.43 1624.67,2824.77 1630.00,2825.99
             1634.01,2826.90 1644.65,2830.05 1648.00,2829.77
             1650.82,2829.52 1654.17,2827.46 1652.83,2824.18
             1651.66,2821.32 1647.68,2820.27 1645.00,2819.59
             1645.00,2819.59 1624.00,2814.10 1624.00,2814.10
             1624.00,2814.10 1616.00,2810.74 1616.00,2810.74
             1600.92,2804.50 1591.60,2799.34 1587.68,2782.00
             1586.75,2777.88 1586.95,2771.38 1587.00,2767.00
             1587.09,2759.67 1589.68,2752.02 1593.90,2746.00
             1595.45,2743.79 1598.56,2739.79 1601.72,2741.17
             1605.15,2742.66 1604.69,2748.93 1605.81,2752.00
             1607.90,2757.69 1612.80,2762.06 1618.00,2764.88
             1637.96,2775.70 1654.76,2768.27 1672.00,2756.74
             1681.26,2750.55 1688.29,2747.26 1695.47,2738.00
             1695.47,2738.00 1699.61,2732.01 1699.61,2732.01
             1699.61,2732.01 1706.93,2723.91 1706.93,2723.91
             1709.51,2719.85 1709.81,2715.49 1710.90,2711.00
             1710.90,2711.00 1716.68,2686.00 1716.68,2686.00
             1716.68,2686.00 1737.90,2597.00 1737.90,2597.00
             1737.90,2597.00 1781.42,2420.00 1781.42,2420.00
             1791.38,2382.19 1801.05,2344.25 1813.09,2307.00
             1813.09,2307.00 1846.55,2211.00 1846.55,2211.00
             1846.55,2211.00 1855.29,2188.00 1855.29,2188.00
             1856.30,2185.32 1857.89,2181.10 1855.98,2178.45
             1853.02,2174.35 1849.11,2179.34 1847.68,2182.00
             1847.68,2182.00 1837.85,2207.00 1837.85,2207.00
             1837.85,2207.00 1807.93,2292.00 1807.93,2292.00
             1807.93,2292.00 1801.21,2313.00 1801.21,2313.00
             1800.12,2315.99 1799.20,2319.14 1795.94,2320.40
             1793.00,2321.54 1779.56,2319.08 1775.00,2319.00
             1759.46,2318.75 1738.99,2312.01 1724.00,2307.57
             1724.00,2307.57 1692.00,2300.33 1692.00,2300.33
             1656.18,2292.57 1625.41,2278.03 1594.00,2259.40
             1549.95,2233.28 1510.35,2200.69 1481.34,2158.00
             1464.74,2133.57 1453.41,2108.40 1442.74,2081.00
             1442.74,2081.00 1433.95,2058.00 1433.95,2058.00
             1431.99,2053.09 1430.78,2048.70 1426.00,2046.00 Z
           M 3036.00,2811.00
           C 3036.00,2811.00 3161.00,2811.00 3161.00,2811.00
             3161.00,2811.00 3161.00,2997.00 3161.00,2997.00
             3161.00,2997.00 3349.00,2997.00 3349.00,2997.00
             3349.00,2997.00 3349.00,3125.00 3349.00,3125.00
             3349.00,3125.00 3161.00,3125.00 3161.00,3125.00
             3161.00,3125.00 3161.00,3311.00 3161.00,3311.00
             3161.00,3311.00 3036.00,3311.00 3036.00,3311.00
             3036.00,3311.00 3036.00,3125.00 3036.00,3125.00
             3036.00,3125.00 2848.00,3125.00 2848.00,3125.00
             2848.00,3125.00 2848.00,2997.00 2848.00,2997.00
             2848.00,2997.00 3036.00,2997.00 3036.00,2997.00
             3036.00,2997.00 3036.00,2811.00 3036.00,2811.00 Z" />
</svg>
