<?xml version="1.0" encoding="UTF-8" standalone="no"?>
<!DOCTYPE svg PUBLIC "-//W3C//DTD SVG 20010904//EN"
              "http://www.w3.org/TR/2001/REC-SVG-20010904/DTD/svg10.dtd">

<svg xmlns="http://www.w3.org/2000/svg"
     width="12in" height="12in"
     viewBox="0 0 3600 3600">
  <path id="6 - darker brown"
        fill="none" stroke="black" stroke-width="1"
        d="M 754.00,511.00
           C 754.00,511.00 879.00,511.00 879.00,511.00
             879.00,511.00 879.00,697.00 879.00,697.00
             879.00,697.00 1067.00,697.00 1067.00,697.00
             1067.00,697.00 1067.00,825.00 1067.00,825.00
             1067.00,825.00 879.00,825.00 879.00,825.00
             879.00,825.00 879.00,1011.00 879.00,1011.00
             879.00,1011.00 754.00,1011.00 754.00,1011.00
             754.00,1011.00 754.00,825.00 754.00,825.00
             754.00,825.00 566.00,825.00 566.00,825.00
             566.00,825.00 566.00,697.00 566.00,697.00
             566.00,697.00 754.00,697.00 754.00,697.00
             754.00,697.00 754.00,511.00 754.00,511.00 Z
           M 1822.00,705.00
           C 1815.61,692.71 1807.79,678.09 1803.59,665.00
             1798.37,648.71 1796.80,632.02 1797.00,615.00
             1797.05,610.85 1798.27,596.33 1800.16,593.18
             1804.08,586.65 1816.09,585.01 1823.00,585.00
             1823.00,585.00 1830.00,585.00 1830.00,585.00
             1845.95,585.02 1874.37,593.42 1888.00,601.74
             1903.41,611.16 1918.71,627.18 1930.25,641.00
             1938.72,651.14 1954.00,673.34 1957.00,686.00
             1952.11,683.69 1951.05,681.61 1947.00,678.61
             1938.68,672.44 1932.41,669.02 1922.00,669.00
             1922.00,669.00 1898.00,669.00 1898.00,669.00
             1878.85,669.03 1860.77,677.94 1845.00,687.95
             1836.91,693.08 1829.74,697.00 1824.00,705.00
             1824.00,705.00 1822.00,705.00 1822.00,705.00 Z
           M 2410.00,666.00
           C 2412.22,663.02 2418.59,659.98 2422.00,657.78
             2428.11,653.85 2435.09,648.53 2439.79,643.00
             2443.17,639.01 2446.63,633.13 2442.99,628.16
             2438.31,621.78 2434.95,632.05 2433.03,635.00
             2428.67,641.73 2417.02,648.74 2410.00,653.00
             2407.73,654.37 2403.12,657.88 2400.51,656.18
             2398.66,654.98 2394.62,641.11 2393.47,638.00
             2393.47,638.00 2387.64,624.00 2387.64,624.00
             2386.84,622.25 2385.29,619.20 2385.81,617.27
             2386.44,614.93 2395.60,610.08 2398.00,608.49
             2411.46,599.53 2424.51,593.39 2441.00,593.01
             2445.62,592.91 2452.92,593.40 2457.00,595.57
             2464.99,599.81 2471.03,612.85 2474.58,621.00
             2477.47,627.65 2482.39,639.07 2483.68,646.00
             2485.94,658.21 2485.00,690.78 2485.00,705.00
             2475.05,702.98 2462.16,691.89 2454.00,685.88
             2440.25,675.76 2434.81,673.69 2419.00,668.54
             2415.03,667.25 2414.41,666.57 2410.00,666.00 Z
           M 1780.00,628.00
           C 1783.00,632.63 1781.97,638.69 1782.00,644.00
             1782.03,649.87 1786.71,667.08 1788.91,673.00
             1798.81,699.61 1812.75,718.21 1820.41,746.00
             1820.41,746.00 1824.00,764.00 1824.00,764.00
             1824.00,764.00 1824.00,773.00 1824.00,773.00
             1824.00,773.00 1825.00,784.00 1825.00,784.00
             1825.00,784.00 1823.96,797.00 1823.96,797.00
             1823.96,797.00 1823.96,807.00 1823.96,807.00
             1823.96,807.00 1819.00,833.00 1819.00,833.00
             1806.72,824.77 1806.21,821.00 1798.12,810.00
             1798.12,810.00 1780.67,786.00 1780.67,786.00
             1780.67,786.00 1767.74,766.59 1767.74,766.59
             1766.31,765.47 1765.59,765.48 1764.00,765.00
             1769.59,749.37 1774.81,735.48 1777.91,719.00
             1779.73,709.30 1778.46,708.71 1779.29,702.00
             1781.15,686.85 1782.08,686.38 1782.00,670.00
             1781.93,655.80 1776.52,642.30 1780.00,628.00 Z
           M 1498.00,2202.00
           C 1503.16,2206.02 1503.93,2208.57 1508.17,2212.72
             1508.17,2212.72 1532.00,2233.73 1532.00,2233.73
             1552.68,2251.21 1574.50,2265.06 1598.00,2278.35
             1598.00,2278.35 1639.00,2298.83 1639.00,2298.83
             1642.00,2300.17 1654.96,2304.71 1656.27,2306.51
             1658.12,2309.04 1655.15,2314.27 1654.23,2317.00
             1654.23,2317.00 1650.29,2341.00 1650.29,2341.00
             1650.29,2341.00 1649.72,2351.00 1649.72,2351.00
             1649.72,2351.00 1647.00,2369.00 1647.00,2369.00
             1647.00,2369.00 1647.00,2380.00 1647.00,2380.00
             1647.00,2380.00 1645.72,2393.00 1645.72,2393.00
             1645.72,2393.00 1644.00,2409.00 1644.00,2409.00
             1644.00,2409.00 1644.00,2424.00 1644.00,2424.00
             1644.00,2424.00 1643.00,2441.00 1643.00,2441.00
             1643.00,2441.00 1643.00,2502.00 1643.00,2502.00
             1643.00,2502.00 1642.00,2519.00 1642.00,2519.00
             1642.00,2519.00 1642.00,2556.00 1642.00,2556.00
             1642.00,2556.00 1643.00,2574.00 1643.00,2574.00
             1643.00,2574.00 1644.00,2589.00 1644.00,2589.00
             1644.00,2589.00 1650.30,2643.00 1650.30,2643.00
             1650.30,2643.00 1652.39,2653.00 1652.39,2653.00
             1652.39,2653.00 1656.51,2677.00 1656.51,2677.00
             1656.51,2677.00 1665.28,2715.00 1665.28,2715.00
             1665.28,2715.00 1669.23,2730.00 1669.23,2730.00
             1670.11,2732.73 1672.05,2738.12 1671.23,2740.90
             1670.27,2744.16 1662.96,2748.24 1660.00,2749.99
             1656.16,2752.25 1649.30,2755.50 1645.00,2756.47
             1637.28,2758.22 1622.26,2756.59 1618.24,2748.71
             1616.98,2746.24 1616.93,2742.73 1617.04,2740.00
             1617.25,2734.56 1620.70,2722.81 1619.14,2719.04
             1618.45,2717.37 1617.27,2715.97 1615.85,2714.86
             1610.13,2710.41 1605.71,2716.06 1601.91,2720.02
             1590.39,2732.02 1580.97,2738.29 1575.90,2755.00
             1572.01,2767.79 1573.73,2785.15 1579.82,2797.00
             1582.74,2802.67 1587.92,2807.01 1590.00,2813.00
             1583.22,2815.39 1576.37,2817.75 1570.00,2821.12
             1541.10,2836.41 1517.53,2864.52 1511.39,2897.00
             1510.29,2902.80 1509.07,2906.98 1508.97,2913.00
             1508.97,2913.00 1508.97,2935.00 1508.97,2935.00
             1508.97,2935.00 1508.97,2941.00 1508.97,2941.00
             1508.80,2947.00 1511.50,2954.23 1518.99,2951.06
             1524.58,2948.69 1529.48,2938.89 1540.00,2933.67
             1546.63,2930.38 1553.94,2929.28 1561.00,2927.42
             1575.42,2923.62 1579.83,2921.98 1595.00,2922.00
             1605.40,2922.02 1614.93,2925.41 1625.00,2927.49
             1637.14,2929.99 1642.82,2928.17 1653.00,2938.04
             1658.41,2943.28 1659.15,2944.62 1658.99,2952.00
             1658.99,2952.00 1656.00,2983.00 1656.00,2983.00
             1656.00,2983.00 1654.83,3007.00 1654.83,3007.00
             1654.83,3007.00 1653.00,3028.00 1653.00,3028.00
             1653.00,3028.00 1653.00,3046.00 1653.00,3046.00
             1653.00,3046.00 1652.00,3062.00 1652.00,3062.00
             1652.00,3062.00 1652.00,3153.00 1652.00,3153.00
             1652.00,3153.00 1653.00,3167.00 1653.00,3167.00
             1653.00,3167.00 1653.00,3194.00 1653.00,3194.00
             1637.02,3193.99 1640.63,3190.02 1626.00,3190.00
             1606.74,3189.97 1587.33,3190.31 1570.00,3180.38
             1561.93,3175.76 1554.57,3169.54 1548.00,3163.00
             1545.76,3160.77 1541.36,3156.67 1540.02,3154.00
             1538.52,3151.01 1539.47,3148.78 1538.20,3145.00
             1538.20,3145.00 1529.76,3127.00 1529.76,3127.00
             1507.12,3080.76 1498.64,3040.50 1482.07,2993.00
             1482.07,2993.00 1461.77,2931.00 1461.77,2931.00
             1461.77,2931.00 1451.42,2891.00 1451.42,2891.00
             1451.42,2891.00 1431.67,2806.00 1431.67,2806.00
             1431.67,2806.00 1430.49,2798.00 1430.49,2798.00
             1430.49,2798.00 1421.68,2752.00 1421.68,2752.00
             1421.68,2752.00 1419.44,2742.00 1419.44,2742.00
             1419.44,2742.00 1418.68,2735.00 1418.68,2735.00
             1418.68,2735.00 1413.62,2709.00 1413.62,2709.00
             1413.62,2709.00 1412.68,2700.00 1412.68,2700.00
             1412.68,2700.00 1410.44,2690.00 1410.44,2690.00
             1410.44,2690.00 1409.68,2682.00 1409.68,2682.00
             1409.68,2682.00 1406.70,2664.00 1406.70,2664.00
             1406.70,2664.00 1404.44,2653.00 1404.44,2653.00
             1404.44,2653.00 1397.83,2606.00 1397.83,2606.00
             1397.83,2606.00 1395.42,2592.00 1395.42,2592.00
             1395.42,2592.00 1394.83,2581.00 1394.83,2581.00
             1394.83,2581.00 1392.00,2552.00 1392.00,2552.00
             1392.00,2552.00 1392.00,2519.00 1392.00,2519.00
             1392.00,2519.00 1391.32,2508.00 1391.32,2508.00
             1391.32,2508.00 1392.00,2498.00 1392.00,2498.00
             1392.00,2498.00 1392.00,2347.00 1392.00,2347.00
             1392.00,2347.00 1390.47,2329.00 1390.47,2329.00
             1391.56,2324.33 1397.33,2315.55 1399.92,2311.00
             1399.92,2311.00 1414.61,2286.21 1414.61,2286.21
             1414.61,2286.21 1425.00,2277.00 1425.00,2277.00
             1431.07,2271.01 1435.35,2265.71 1444.00,2263.60
             1449.69,2262.20 1457.99,2264.26 1464.00,2264.96
             1464.00,2264.96 1473.00,2264.96 1473.00,2264.96
             1478.71,2265.48 1482.91,2267.30 1487.86,2262.72
             1492.34,2258.58 1491.99,2251.67 1492.92,2246.00
             1495.28,2231.56 1493.91,2216.23 1498.00,2202.00 Z
           M 1999.00,2832.12
           C 1999.00,2832.12 2019.00,2832.12 2019.00,2832.12
             2027.72,2829.07 2024.40,2821.69 2018.00,2818.31
             2014.48,2816.45 2008.95,2816.12 2005.00,2816.00
             2002.60,2815.93 1999.86,2816.18 1998.59,2813.69
             1997.73,2811.97 1997.03,2802.51 1996.72,2800.00
             1996.72,2800.00 1995.00,2755.00 1995.00,2755.00
             1994.93,2747.91 1993.37,2745.16 2002.00,2745.00
             2002.00,2745.00 2015.00,2745.00 2015.00,2745.00
             2022.12,2744.90 2021.89,2743.64 2026.00,2743.29
             2029.42,2743.01 2032.97,2744.46 2036.30,2740.61
             2039.92,2736.42 2038.42,2731.82 2038.00,2727.00
             2038.00,2727.00 2038.00,2715.00 2038.00,2715.00
             2038.00,2715.00 2037.00,2703.00 2037.00,2703.00
             2037.00,2703.00 2037.00,2679.00 2037.00,2679.00
             2037.00,2679.00 2036.04,2667.00 2036.04,2667.00
             2036.04,2667.00 2036.04,2656.00 2036.04,2656.00
             2036.04,2656.00 2035.00,2641.00 2035.00,2641.00
             2035.00,2641.00 2035.00,2600.00 2035.00,2600.00
             2035.00,2600.00 2034.00,2584.00 2034.00,2584.00
             2034.00,2584.00 2034.00,2557.00 2034.00,2557.00
             2034.00,2557.00 2035.00,2542.00 2035.00,2542.00
             2035.00,2542.00 2035.00,2509.00 2035.00,2509.00
             2035.00,2509.00 2036.00,2487.00 2036.00,2487.00
             2036.00,2487.00 2037.00,2472.00 2037.00,2472.00
             2037.00,2472.00 2037.00,2451.00 2037.00,2451.00
             2037.00,2451.00 2038.00,2429.00 2038.00,2429.00
             2038.00,2429.00 2040.00,2404.00 2040.00,2404.00
             2040.00,2404.00 2041.09,2373.00 2041.09,2373.00
             2041.09,2373.00 2042.87,2358.00 2042.87,2358.00
             2042.93,2352.60 2040.28,2350.64 2040.20,2346.00
             2040.16,2344.08 2040.73,2341.83 2041.31,2340.00
             2043.39,2333.50 2045.90,2334.01 2052.00,2334.00
             2052.00,2334.00 2059.00,2334.00 2059.00,2334.00
             2068.88,2333.88 2090.58,2328.03 2101.00,2325.68
             2101.00,2325.68 2124.00,2321.68 2124.00,2321.68
             2124.00,2321.68 2162.00,2312.71 2162.00,2312.71
             2175.20,2309.12 2210.88,2298.00 2222.00,2292.22
             2222.00,2292.22 2241.00,2280.18 2241.00,2280.18
             2243.27,2278.69 2248.39,2275.22 2251.00,2275.11
             2255.84,2274.92 2259.05,2281.87 2269.00,2287.00
             2267.05,2293.70 2259.70,2303.55 2256.11,2311.00
             2250.38,2322.89 2248.85,2332.95 2249.00,2346.00
             2249.16,2359.67 2253.73,2375.93 2260.12,2388.00
             2260.12,2388.00 2271.57,2407.00 2271.57,2407.00
             2271.57,2407.00 2274.00,2439.00 2274.00,2439.00
             2274.00,2439.00 2277.00,2484.00 2277.00,2484.00
             2277.00,2484.00 2280.00,2520.00 2280.00,2520.00
             2280.00,2520.00 2283.04,2545.00 2283.04,2545.00
             2283.04,2545.00 2283.04,2555.00 2283.04,2555.00
             2283.04,2555.00 2286.00,2574.00 2286.00,2574.00
             2286.00,2574.00 2286.00,2583.00 2286.00,2583.00
             2286.00,2583.00 2289.06,2601.00 2289.06,2601.00
             2289.06,2601.00 2289.06,2610.00 2289.06,2610.00
             2289.06,2610.00 2292.06,2626.00 2292.06,2626.00
             2292.06,2626.00 2292.06,2634.00 2292.06,2634.00
             2292.06,2634.00 2294.71,2648.00 2294.71,2648.00
             2294.71,2648.00 2295.29,2656.00 2295.29,2656.00
             2295.29,2656.00 2297.71,2670.00 2297.71,2670.00
             2297.71,2670.00 2298.46,2679.00 2298.46,2679.00
             2298.46,2679.00 2300.71,2690.00 2300.71,2690.00
             2311.14,2769.16 2332.60,2867.44 2355.57,2944.00
             2368.54,2987.23 2383.49,3030.31 2400.86,3072.00
             2400.86,3072.00 2418.08,3110.00 2418.08,3110.00
             2421.41,3116.69 2427.33,3126.86 2428.00,3134.00
             2428.00,3134.00 2410.00,3135.95 2410.00,3135.95
             2400.55,3139.02 2394.15,3143.91 2386.00,3149.21
             2362.89,3164.25 2354.85,3171.21 2337.00,3192.00
             2337.00,3192.00 2315.88,3219.00 2315.88,3219.00
             2307.85,3231.69 2312.79,3234.25 2301.00,3233.99
             2301.00,3233.99 2266.00,3231.00 2266.00,3231.00
             2266.00,3231.00 2237.00,3229.83 2237.00,3229.83
             2237.00,3229.83 2225.00,3227.94 2225.00,3227.94
             2225.00,3227.94 2215.00,3227.94 2215.00,3227.94
             2198.19,3225.70 2181.27,3221.67 2165.00,3217.04
             2154.85,3214.14 2132.93,3211.48 2125.13,3205.67
             2121.47,3202.94 2120.43,3192.76 2119.03,3188.00
             2119.03,3188.00 2105.42,3138.00 2105.42,3138.00
             2105.42,3138.00 2076.67,3017.00 2076.67,3017.00
             2076.67,3017.00 2075.49,3009.00 2075.49,3009.00
             2075.49,3009.00 2067.81,2971.00 2067.81,2971.00
             2067.81,2971.00 2065.42,2957.00 2065.42,2957.00
             2065.42,2957.00 2060.70,2929.00 2060.70,2929.00
             2060.70,2929.00 2058.15,2916.00 2058.15,2916.00
             2057.22,2908.49 2055.90,2897.71 2049.82,2892.61
             2046.13,2889.53 2035.81,2885.98 2031.00,2886.41
             2028.88,2886.60 2022.14,2888.64 2020.00,2889.46
             2014.32,2891.64 2011.23,2894.30 2005.00,2895.00
             2005.00,2895.00 2001.00,2859.00 2001.00,2859.00
             2001.00,2859.00 2001.00,2848.00 2001.00,2848.00
             2001.00,2848.00 1999.00,2832.12 1999.00,2832.12 Z
           M 3036.00,2811.00
           C 3036.00,2811.00 3161.00,2811.00 3161.00,2811.00
             3161.00,2811.00 3161.00,2997.00 3161.00,2997.00
             3161.00,2997.00 3349.00,2997.00 3349.00,2997.00
             3349.00,2997.00 3349.00,3125.00 3349.00,3125.00
             3349.00,3125.00 3161.00,3125.00 3161.00,3125.00
             3161.00,3125.00 3161.00,3311.00 3161.00,3311.00
             3161.00,3311.00 3036.00,3311.00 3036.00,3311.00
             3036.00,3311.00 3036.00,3125.00 3036.00,3125.00
             3036.00,3125.00 2848.00,3125.00 2848.00,3125.00
             2848.00,3125.00 2848.00,2997.00 2848.00,2997.00
             2848.00,2997.00 3036.00,2997.00 3036.00,2997.00
             3036.00,2997.00 3036.00,2811.00 3036.00,2811.00 Z" />
</svg>
