<?xml version="1.0" encoding="UTF-8" standalone="no"?>
<!DOCTYPE svg PUBLIC "-//W3C//DTD SVG 20010904//EN"
              "http://www.w3.org/TR/2001/REC-SVG-20010904/DTD/svg10.dtd">

<svg xmlns="http://www.w3.org/2000/svg"
     width="12in" height="12in"
     viewBox="0 0 3600 3600">
  <path id="7 - dark horn"
        fill="none" stroke="black" stroke-width="1"
        d="M 2176.00,250.42
           C 2187.39,249.04 2206.66,251.52 2217.00,256.47
             2224.96,260.28 2231.70,266.07 2239.00,270.93
             2249.39,277.84 2260.72,283.80 2269.96,292.29
             2269.96,292.29 2293.43,322.00 2293.43,322.00
             2300.69,332.42 2301.06,336.97 2301.00,349.00
             2300.96,356.73 2297.90,367.26 2288.02,365.85
             2282.68,365.09 2283.42,360.98 2281.81,357.00
             2279.79,351.98 2276.84,347.33 2273.62,343.00
             2262.53,328.10 2251.79,320.51 2234.00,315.59
             2225.91,313.36 2204.13,309.72 2196.00,309.86
             2185.56,310.05 2171.97,313.73 2162.00,316.92
             2150.51,320.59 2140.42,323.27 2130.00,329.88
             2121.33,335.37 2110.99,346.68 2104.88,355.00
             2095.54,367.75 2086.42,384.72 2088.17,401.00
             2089.24,410.98 2096.48,432.21 2101.50,441.00
             2116.05,466.47 2151.76,477.82 2177.00,490.08
             2177.00,490.08 2196.98,499.03 2196.98,499.03
             2200.06,500.65 2202.58,503.06 2201.67,506.87
             2200.98,509.74 2198.25,510.67 2196.00,512.11
             2191.54,514.96 2188.89,517.42 2185.00,520.85
             2168.11,535.71 2161.31,544.37 2152.73,565.00
             2150.36,570.70 2149.19,580.86 2141.00,579.64
             2141.00,579.64 2100.00,564.04 2100.00,564.04
             2080.29,563.02 2069.75,585.23 2068.33,602.00
             2067.84,607.71 2070.73,614.24 2073.66,619.00
             2078.02,626.07 2092.06,638.95 2085.40,647.85
             2078.67,656.87 2065.33,645.59 2060.04,640.72
             2060.04,640.72 2052.05,632.00 2052.05,632.00
             2036.91,614.87 2033.74,603.38 2034.00,581.00
             2034.00,581.00 2035.04,571.00 2035.04,571.00
             2035.04,571.00 2035.04,561.00 2035.04,561.00
             2036.17,551.64 2040.08,538.21 2048.01,532.69
             2056.45,526.45 2068.93,531.94 2078.00,532.69
             2081.84,533.28 2086.14,531.44 2086.08,527.00
             2086.04,524.39 2082.95,519.11 2081.39,517.00
             2076.39,510.23 2069.72,507.73 2061.44,496.00
             2053.39,484.59 2048.20,471.23 2041.52,459.00
             2032.17,441.88 2019.03,423.18 2019.00,403.00
             2018.97,382.93 2019.19,368.53 2025.59,349.00
             2030.40,334.33 2039.05,322.88 2048.55,311.00
             2063.46,292.37 2075.06,279.30 2097.00,268.78
             2108.19,263.42 2124.80,257.72 2137.00,255.46
             2137.00,255.46 2144.00,254.54 2144.00,254.54
             2144.00,254.54 2155.00,252.29 2155.00,252.29
             2155.00,252.29 2176.00,250.42 2176.00,250.42 Z
           M 754.00,511.00
           C 754.00,511.00 879.00,511.00 879.00,511.00
             879.00,511.00 879.00,697.00 879.00,697.00
             879.00,697.00 1067.00,697.00 1067.00,697.00
             1067.00,697.00 1067.00,825.00 1067.00,825.00
             1067.00,825.00 879.00,825.00 879.00,825.00
             879.00,825.00 879.00,1011.00 879.00,1011.00
             879.00,1011.00 754.00,1011.00 754.00,1011.00
             754.00,1011.00 754.00,825.00 754.00,825.00
             754.00,825.00 566.00,825.00 566.00,825.00
             566.00,825.00 566.00,697.00 566.00,697.00
             566.00,697.00 754.00,697.00 754.00,697.00
             754.00,697.00 754.00,511.00 754.00,511.00 Z
           M 2272.00,529.59
           C 2279.61,528.28 2284.51,531.56 2291.00,535.08
             2305.74,543.09 2314.46,549.98 2326.70,561.33
             2330.27,564.65 2338.73,572.50 2339.67,577.00
             2340.23,579.69 2339.43,582.07 2336.85,583.27
             2334.46,584.38 2326.94,584.79 2324.00,585.18
             2324.00,585.18 2312.00,587.93 2312.00,587.93
             2288.19,592.73 2259.10,608.12 2240.00,622.89
             2233.24,628.12 2227.02,633.95 2221.00,640.00
             2218.55,642.46 2214.13,647.88 2210.91,648.68
             2202.99,650.65 2200.35,641.30 2197.35,636.00
             2194.00,630.09 2183.42,616.41 2183.15,611.00
             2182.95,606.98 2185.39,602.62 2187.02,599.00
             2198.24,574.21 2220.88,554.17 2244.00,540.78
             2244.00,540.78 2255.00,534.71 2255.00,534.71
             2261.72,531.73 2265.32,531.43 2272.00,529.59 Z
           M 2373.00,650.42
           C 2376.48,650.01 2380.80,649.48 2383.41,652.43
             2385.25,654.51 2386.67,663.01 2387.13,666.00
             2387.13,666.00 2389.56,678.00 2389.56,678.00
             2389.56,678.00 2391.04,697.00 2391.04,697.00
             2391.04,697.00 2393.72,717.00 2393.72,717.00
             2393.72,717.00 2395.00,743.00 2395.00,743.00
             2395.05,775.81 2393.15,796.70 2381.82,828.00
             2381.82,828.00 2371.31,856.00 2371.31,856.00
             2369.94,859.62 2369.42,863.69 2364.98,864.67
             2359.74,865.83 2349.05,857.32 2344.00,854.48
             2328.56,845.81 2310.68,837.50 2294.00,831.54
             2276.74,825.37 2258.92,820.27 2241.00,816.51
             2241.00,816.51 2231.00,815.00 2231.00,815.00
             2231.00,815.00 2213.00,811.42 2213.00,811.42
             2211.03,810.85 2208.26,810.26 2207.02,808.49
             2204.35,804.68 2208.54,798.54 2210.14,795.00
             2213.82,786.85 2220.67,768.51 2222.48,760.00
             2222.48,760.00 2226.04,730.00 2226.04,730.00
             2226.35,723.14 2224.11,720.00 2226.04,716.17
             2227.27,714.14 2231.20,710.75 2233.00,708.99
             2233.00,708.99 2248.00,694.85 2248.00,694.85
             2264.90,679.97 2274.79,677.00 2295.00,668.72
             2314.10,660.89 2329.55,655.70 2350.00,652.28
             2350.00,652.28 2373.00,650.42 2373.00,650.42 Z
           M 3036.00,2811.00
           C 3036.00,2811.00 3161.00,2811.00 3161.00,2811.00
             3161.00,2811.00 3161.00,2997.00 3161.00,2997.00
             3161.00,2997.00 3349.00,2997.00 3349.00,2997.00
             3349.00,2997.00 3349.00,3125.00 3349.00,3125.00
             3349.00,3125.00 3161.00,3125.00 3161.00,3125.00
             3161.00,3125.00 3161.00,3311.00 3161.00,3311.00
             3161.00,3311.00 3036.00,3311.00 3036.00,3311.00
             3036.00,3311.00 3036.00,3125.00 3036.00,3125.00
             3036.00,3125.00 2848.00,3125.00 2848.00,3125.00
             2848.00,3125.00 2848.00,2997.00 2848.00,2997.00
             2848.00,2997.00 3036.00,2997.00 3036.00,2997.00
             3036.00,2997.00 3036.00,2811.00 3036.00,2811.00 Z" />
</svg>
