<?xml version="1.0" encoding="UTF-8" standalone="no"?>
<!DOCTYPE svg PUBLIC "-//W3C//DTD SVG 20010904//EN"
              "http://www.w3.org/TR/2001/REC-SVG-20010904/DTD/svg10.dtd">

<svg xmlns="http://www.w3.org/2000/svg"
     width="12in" height="12in"
     viewBox="0 0 3600 3600">
  <path id="8 - light horn"
        fill="none" stroke="black" stroke-width="1"
        d="M 2215.00,509.43
           C 2223.76,508.54 2238.59,515.72 2248.00,518.36
             2251.22,519.27 2257.15,520.54 2258.34,524.12
             2260.07,529.29 2250.49,532.43 2247.00,534.43
             2233.98,541.88 2218.26,551.80 2208.28,563.00
             2199.96,572.35 2191.91,582.15 2185.62,593.00
             2183.92,595.92 2180.92,604.49 2177.79,605.18
             2174.21,605.96 2169.35,600.27 2167.00,598.04
             2159.17,590.60 2149.32,588.58 2153.36,576.00
             2153.36,576.00 2161.49,555.00 2161.49,555.00
             2171.42,536.03 2193.19,513.03 2215.00,509.43 Z
           M 754.00,511.00
           C 754.00,511.00 879.00,511.00 879.00,511.00
             879.00,511.00 879.00,697.00 879.00,697.00
             879.00,697.00 1067.00,697.00 1067.00,697.00
             1067.00,697.00 1067.00,825.00 1067.00,825.00
             1067.00,825.00 879.00,825.00 879.00,825.00
             879.00,825.00 879.00,1011.00 879.00,1011.00
             879.00,1011.00 754.00,1011.00 754.00,1011.00
             754.00,1011.00 754.00,825.00 754.00,825.00
             754.00,825.00 566.00,825.00 566.00,825.00
             566.00,825.00 566.00,697.00 566.00,697.00
             566.00,697.00 754.00,697.00 754.00,697.00
             754.00,697.00 754.00,511.00 754.00,511.00 Z
           M 2336.00,588.44
           C 2339.59,587.98 2346.66,587.38 2349.82,589.17
             2352.31,590.59 2355.58,595.55 2357.36,598.00
             2363.03,605.81 2368.23,615.42 2372.70,624.00
             2372.70,624.00 2380.22,639.98 2380.22,639.98
             2380.39,641.28 2380.14,642.42 2379.24,643.40
             2377.27,645.56 2371.83,644.90 2369.00,645.17
             2369.00,645.17 2340.00,649.12 2340.00,649.12
             2324.14,652.41 2308.96,658.65 2294.00,664.69
             2283.15,669.08 2270.96,673.59 2261.00,679.80
             2252.49,685.11 2245.43,692.31 2238.28,699.27
             2236.00,701.49 2231.12,707.23 2227.97,707.54
             2222.62,708.07 2222.88,696.68 2222.24,693.00
             2221.31,687.65 2217.80,677.12 2215.69,672.00
             2212.10,663.28 2207.94,660.07 2215.16,651.42
             2235.22,627.38 2265.48,607.75 2295.00,597.54
             2311.24,591.93 2319.98,591.39 2336.00,588.44 Z
           M 2373.00,2093.42
           C 2375.55,2093.15 2379.01,2092.46 2380.40,2095.31
             2381.99,2098.57 2379.04,2112.75 2378.43,2117.00
             2377.09,2126.32 2378.77,2133.19 2381.59,2142.00
             2382.75,2145.60 2386.68,2155.03 2388.69,2158.00
             2391.38,2161.97 2393.72,2163.01 2396.32,2168.00
             2400.14,2175.34 2401.52,2183.89 2402.09,2192.00
             2402.38,2196.20 2404.79,2206.25 2400.69,2208.98
             2398.84,2210.21 2395.19,2210.00 2393.00,2210.00
             2393.00,2210.00 2366.00,2211.00 2366.00,2211.00
             2353.90,2211.15 2330.18,2215.84 2321.65,2204.83
             2318.37,2200.60 2319.25,2196.86 2318.91,2192.00
             2318.61,2187.65 2317.84,2185.99 2318.04,2181.00
             2318.04,2181.00 2321.81,2162.00 2321.81,2162.00
             2323.20,2145.19 2305.24,2145.14 2305.21,2127.00
             2304.97,2124.81 2304.91,2121.04 2305.21,2119.00
             2306.13,2116.13 2308.08,2113.34 2309.90,2111.04
             2321.52,2096.36 2343.88,2096.08 2361.00,2094.91
             2361.00,2094.91 2373.00,2093.42 2373.00,2093.42 Z
           M 2495.59,2099.04
           C 2501.26,2097.11 2507.63,2105.21 2509.53,2110.00
             2510.56,2112.60 2511.01,2116.22 2510.82,2119.00
             2510.08,2129.41 2506.47,2138.95 2503.97,2149.00
             2502.89,2153.31 2500.89,2157.47 2501.34,2162.00
             2501.34,2162.00 2503.83,2174.00 2503.83,2174.00
             2504.92,2184.23 2504.14,2191.38 2500.83,2201.00
             2498.86,2206.72 2496.93,2211.67 2491.00,2214.35
             2486.95,2216.18 2481.39,2216.08 2477.00,2216.00
             2469.73,2215.86 2468.86,2213.31 2472.24,2207.00
             2476.33,2199.39 2481.10,2192.19 2484.06,2184.00
             2484.06,2184.00 2487.48,2173.00 2487.48,2173.00
             2487.48,2173.00 2488.95,2166.00 2488.95,2166.00
             2491.38,2158.86 2495.94,2151.98 2495.32,2144.00
             2494.71,2136.25 2491.81,2135.00 2491.14,2130.00
             2490.36,2124.10 2493.22,2118.06 2493.83,2112.00
             2494.26,2107.70 2492.97,2102.67 2495.59,2099.04 Z
           M 3036.00,2811.00
           C 3036.00,2811.00 3161.00,2811.00 3161.00,2811.00
             3161.00,2811.00 3161.00,2997.00 3161.00,2997.00
             3161.00,2997.00 3349.00,2997.00 3349.00,2997.00
             3349.00,2997.00 3349.00,3125.00 3349.00,3125.00
             3349.00,3125.00 3161.00,3125.00 3161.00,3125.00
             3161.00,3125.00 3161.00,3311.00 3161.00,3311.00
             3161.00,3311.00 3036.00,3311.00 3036.00,3311.00
             3036.00,3311.00 3036.00,3125.00 3036.00,3125.00
             3036.00,3125.00 2848.00,3125.00 2848.00,3125.00
             2848.00,3125.00 2848.00,2997.00 2848.00,2997.00
             2848.00,2997.00 3036.00,2997.00 3036.00,2997.00
             3036.00,2997.00 3036.00,2811.00 3036.00,2811.00 Z" />
</svg>
