<?xml version="1.0" encoding="UTF-8" standalone="no"?>
<!DOCTYPE svg PUBLIC "-//W3C//DTD SVG 20010904//EN"
              "http://www.w3.org/TR/2001/REC-SVG-20010904/DTD/svg10.dtd">

<svg xmlns="http://www.w3.org/2000/svg"
     width="12in" height="12in"
     viewBox="0 0 3600 3600">
  <path id="9 - skull"
        fill="none" stroke="black" stroke-width="1"
        d="M 754.00,511.00
           C 754.00,511.00 879.00,511.00 879.00,511.00
             879.00,511.00 879.00,697.00 879.00,697.00
             879.00,697.00 1067.00,697.00 1067.00,697.00
             1067.00,697.00 1067.00,825.00 1067.00,825.00
             1067.00,825.00 879.00,825.00 879.00,825.00
             879.00,825.00 879.00,1011.00 879.00,1011.00
             879.00,1011.00 754.00,1011.00 754.00,1011.00
             754.00,1011.00 754.00,825.00 754.00,825.00
             754.00,825.00 566.00,825.00 566.00,825.00
             566.00,825.00 566.00,697.00 566.00,697.00
             566.00,697.00 754.00,697.00 754.00,697.00
             754.00,697.00 754.00,511.00 754.00,511.00 Z
           M 2429.00,2061.44
           C 2440.08,2060.01 2463.71,2059.85 2472.96,2066.25
             2479.35,2070.67 2483.86,2079.57 2485.66,2087.00
             2487.40,2094.17 2487.08,2101.67 2487.00,2109.00
             2487.00,2109.00 2486.00,2122.00 2486.00,2122.00
             2485.97,2125.19 2486.40,2130.20 2484.98,2132.99
             2482.99,2136.86 2478.99,2138.23 2475.10,2144.00
             2472.18,2148.34 2466.58,2160.95 2465.53,2166.00
             2463.16,2177.37 2477.50,2175.56 2477.67,2183.02
             2477.76,2187.24 2471.65,2196.84 2469.63,2201.00
             2465.19,2210.13 2462.22,2219.44 2458.93,2229.00
             2458.93,2229.00 2456.97,2236.98 2456.97,2236.98
             2454.76,2241.26 2451.35,2241.92 2447.00,2242.00
             2447.00,2242.00 2432.00,2242.00 2432.00,2242.00
             2424.25,2241.85 2425.25,2239.60 2419.71,2235.59
             2416.32,2233.14 2412.44,2231.96 2410.11,2227.91
             2407.48,2222.52 2409.53,2211.96 2410.11,2206.00
             2410.19,2201.66 2407.66,2183.58 2406.62,2179.00
             2404.21,2168.45 2393.07,2157.80 2388.74,2145.00
             2387.70,2141.92 2385.75,2136.03 2385.30,2133.00
             2383.95,2123.85 2385.41,2102.29 2389.26,2094.00
             2392.33,2087.39 2399.74,2080.06 2405.00,2075.04
             2412.05,2068.30 2419.33,2063.31 2429.00,2061.44 Z
           M 3036.00,2811.00
           C 3036.00,2811.00 3161.00,2811.00 3161.00,2811.00
             3161.00,2811.00 3161.00,2997.00 3161.00,2997.00
             3161.00,2997.00 3349.00,2997.00 3349.00,2997.00
             3349.00,2997.00 3349.00,3125.00 3349.00,3125.00
             3349.00,3125.00 3161.00,3125.00 3161.00,3125.00
             3161.00,3125.00 3161.00,3311.00 3161.00,3311.00
             3161.00,3311.00 3036.00,3311.00 3036.00,3311.00
             3036.00,3311.00 3036.00,3125.00 3036.00,3125.00
             3036.00,3125.00 2848.00,3125.00 2848.00,3125.00
             2848.00,3125.00 2848.00,2997.00 2848.00,2997.00
             2848.00,2997.00 3036.00,2997.00 3036.00,2997.00
             3036.00,2997.00 3036.00,2811.00 3036.00,2811.00 Z" />
</svg>
