<?xml version="1.0" encoding="UTF-8" standalone="no"?>
<!DOCTYPE svg PUBLIC "-//W3C//DTD SVG 20010904//EN"
              "http://www.w3.org/TR/2001/REC-SVG-20010904/DTD/svg10.dtd">

<svg xmlns="http://www.w3.org/2000/svg"
     width="8.5in" height="11in"
     viewBox="0 0 3400 4400">
  <path id="balloons"
        fill="none" stroke="black" stroke-width="1"
        d="M 2031.00,96.00
           C 2031.00,96.00 2093.00,96.00 2093.00,96.00
             2093.00,96.00 2093.00,189.00 2093.00,189.00
             2093.00,189.00 2187.00,189.00 2187.00,189.00
             2187.00,189.00 2187.00,252.00 2187.00,252.00
             2187.00,252.00 2093.00,252.00 2093.00,252.00
             2093.00,252.00 2093.00,345.00 2093.00,345.00
             2093.00,345.00 2031.00,345.00 2031.00,345.00
             2031.00,345.00 2031.00,252.00 2031.00,252.00
             2031.00,252.00 1937.00,252.00 1937.00,252.00
             1937.00,252.00 1937.00,189.00 1937.00,189.00
             1937.00,189.00 2031.00,189.00 2031.00,189.00
             2031.00,189.00 2031.00,96.00 2031.00,96.00 Z
           M 2526.00,563.00
           C 2516.16,557.75 2506.53,546.67 2499.60,538.00
             2485.83,520.76 2473.62,501.73 2463.75,482.00
             2445.21,444.91 2436.10,412.26 2432.04,371.00
             2432.04,371.00 2432.04,361.00 2432.04,361.00
             2432.04,361.00 2431.00,342.00 2431.00,342.00
             2431.00,342.00 2432.00,323.00 2432.00,323.00
             2432.30,297.85 2441.76,263.09 2451.72,240.00
             2460.56,219.50 2471.79,198.43 2487.09,182.00
             2501.05,167.01 2511.44,159.63 2529.00,149.58
             2556.05,134.10 2574.67,127.64 2606.00,128.00
             2627.12,128.25 2647.15,139.15 2663.00,152.25
             2677.32,164.08 2693.87,181.81 2703.13,198.00
             2710.44,210.80 2715.19,225.01 2719.66,239.00
             2725.95,258.70 2733.97,294.61 2734.00,315.00
             2734.00,315.00 2734.00,336.00 2734.00,336.00
             2734.00,336.00 2733.09,346.00 2733.09,346.00
             2733.09,346.00 2730.57,373.00 2730.57,373.00
             2723.72,419.25 2703.73,469.00 2676.57,507.00
             2663.21,525.70 2651.32,538.00 2633.00,551.87
             2626.55,556.76 2623.00,559.39 2616.00,563.60
             2613.45,565.13 2608.76,567.42 2607.76,570.21
             2606.56,572.72 2607.69,577.21 2607.76,580.00
             2607.76,580.00 2610.00,604.00 2610.00,604.00
             2610.19,620.72 2613.21,653.56 2595.00,661.64
             2589.09,664.26 2582.32,664.07 2576.00,664.00
             2566.46,663.88 2557.91,661.48 2549.00,658.31
             2544.54,656.72 2537.64,653.06 2533.00,654.60
             2529.91,655.62 2522.70,660.91 2520.00,663.09
             2509.78,671.38 2502.80,679.69 2494.79,690.00
             2481.69,706.85 2467.34,729.63 2460.74,750.00
             2452.62,775.09 2451.70,796.99 2452.00,823.00
             2452.52,866.99 2481.93,914.14 2500.74,953.00
             2512.10,976.46 2519.89,1005.56 2525.65,1031.00
             2529.86,1049.61 2532.32,1062.96 2534.17,1082.00
             2534.17,1082.00 2535.00,1091.00 2535.00,1091.00
             2535.42,1126.89 2532.39,1162.49 2511.66,1193.00
             2505.30,1202.36 2498.27,1210.62 2489.00,1217.22
             2474.07,1227.86 2450.71,1232.22 2433.00,1227.25
             2424.49,1224.87 2416.37,1220.46 2409.00,1215.66
             2397.85,1208.40 2390.48,1201.72 2383.87,1190.00
             2378.48,1180.43 2376.02,1165.93 2376.00,1155.00
             2375.96,1131.17 2383.50,1099.76 2409.00,1091.36
             2413.13,1090.00 2418.65,1088.82 2423.00,1089.09
             2435.17,1089.84 2443.95,1099.41 2448.65,1110.00
             2450.41,1113.96 2452.15,1120.79 2449.55,1124.70
             2447.81,1127.31 2444.92,1127.14 2443.14,1124.70
             2441.94,1123.04 2441.25,1119.14 2440.39,1117.00
             2438.60,1112.52 2433.84,1105.48 2429.96,1102.65
             2418.35,1094.15 2403.95,1104.22 2397.04,1114.00
             2384.32,1132.01 2382.38,1165.77 2393.34,1185.00
             2399.24,1195.36 2409.93,1203.72 2420.00,1209.80
             2428.86,1215.14 2437.50,1218.87 2448.00,1219.00
             2473.11,1219.29 2489.75,1206.24 2503.33,1186.00
             2519.23,1162.29 2522.19,1142.69 2524.09,1115.00
             2524.09,1115.00 2525.00,1093.00 2525.00,1093.00
             2524.79,1075.53 2520.21,1054.16 2516.42,1037.00
             2511.73,1015.75 2504.95,989.96 2496.58,970.00
             2483.46,938.74 2464.74,909.88 2453.05,878.00
             2447.51,862.87 2442.03,840.06 2442.00,824.00
             2441.96,796.73 2441.76,775.67 2450.02,749.00
             2455.13,732.54 2463.14,717.29 2472.67,703.00
             2485.29,684.06 2503.68,658.24 2525.00,649.00
             2517.55,644.51 2515.34,643.26 2509.00,637.00
             2504.32,632.37 2494.87,623.97 2492.85,618.00
             2490.44,610.88 2493.09,604.31 2496.25,598.00
             2502.46,585.61 2516.12,572.88 2526.00,563.00 Z
           M 2209.00,1002.00
           C 2202.58,999.63 2195.73,994.56 2190.00,990.66
             2175.19,980.57 2150.74,956.64 2138.72,943.00
             2138.72,943.00 2127.29,931.00 2127.29,931.00
             2113.95,915.79 2102.48,899.00 2093.26,881.00
             2080.64,856.38 2068.80,816.52 2065.28,789.00
             2065.28,789.00 2063.91,769.00 2063.91,769.00
             2063.91,769.00 2063.00,759.00 2063.00,759.00
             2063.00,759.00 2064.04,743.00 2064.04,743.00
             2064.04,743.00 2064.04,734.00 2064.04,734.00
             2064.04,734.00 2069.60,698.00 2069.60,698.00
             2076.56,663.21 2084.59,638.51 2108.43,611.00
             2117.28,600.79 2135.47,588.35 2147.00,580.67
             2165.25,568.50 2185.86,558.31 2208.00,555.96
             2208.00,555.96 2221.00,555.96 2221.00,555.96
             2259.66,554.33 2290.86,577.82 2317.00,604.00
             2345.72,632.76 2360.18,666.21 2369.87,705.00
             2375.92,729.17 2379.72,750.01 2380.00,775.00
             2380.00,775.00 2380.60,784.00 2380.60,784.00
             2380.60,784.00 2380.00,795.00 2380.00,795.00
             2379.86,828.09 2373.87,865.20 2361.55,896.00
             2350.70,923.12 2336.49,943.71 2317.92,966.00
             2317.92,966.00 2300.00,987.00 2300.00,987.00
             2298.23,988.79 2290.74,995.54 2290.09,997.17
             2289.16,999.51 2290.76,1001.95 2291.74,1004.00
             2291.74,1004.00 2298.00,1019.00 2298.00,1019.00
             2304.11,1036.88 2313.23,1054.79 2313.00,1074.00
             2312.92,1080.16 2311.68,1085.23 2306.82,1089.47
             2301.91,1093.75 2291.39,1096.03 2285.00,1097.63
             2285.00,1097.63 2267.00,1101.57 2267.00,1101.57
             2267.00,1101.57 2253.00,1104.00 2253.00,1104.00
             2258.89,1108.39 2262.77,1124.77 2264.34,1132.00
             2268.59,1151.64 2268.39,1173.47 2263.53,1193.00
             2263.53,1193.00 2254.32,1219.00 2254.32,1219.00
             2254.32,1219.00 2225.69,1286.00 2225.69,1286.00
             2216.07,1306.95 2205.85,1328.97 2199.02,1351.00
             2194.49,1365.64 2191.97,1380.86 2189.87,1396.00
             2189.87,1396.00 2187.04,1428.00 2187.04,1428.00
             2187.04,1428.00 2188.04,1436.00 2188.04,1436.00
             2188.04,1436.00 2188.04,1444.00 2188.04,1444.00
             2190.67,1470.20 2200.97,1495.72 2219.17,1514.96
             2226.86,1523.09 2242.93,1533.92 2253.00,1539.22
             2271.79,1549.11 2287.14,1551.24 2308.00,1551.00
             2329.75,1550.74 2354.61,1543.27 2372.00,1530.10
             2380.95,1523.32 2389.08,1513.31 2395.33,1504.00
             2401.23,1495.20 2408.49,1481.99 2411.92,1472.00
             2419.81,1449.00 2420.08,1418.13 2406.94,1397.00
             2400.75,1387.05 2385.97,1372.80 2373.00,1378.23
             2368.84,1379.97 2364.24,1384.44 2361.53,1388.00
             2359.59,1390.55 2358.08,1393.17 2357.87,1396.42
             2357.70,1398.91 2358.67,1404.33 2356.26,1405.95
             2353.71,1407.67 2347.51,1404.48 2348.04,1394.00
             2348.30,1388.92 2350.26,1385.08 2353.17,1381.08
             2368.13,1360.07 2392.45,1363.95 2408.56,1381.08
             2436.31,1410.82 2430.62,1462.93 2412.69,1496.00
             2404.40,1511.30 2392.05,1528.71 2378.00,1539.08
             2358.47,1553.48 2331.13,1560.96 2307.00,1561.00
             2307.00,1561.00 2296.00,1561.00 2296.00,1561.00
             2264.85,1560.95 2228.66,1541.77 2208.17,1519.00
             2187.58,1496.12 2179.97,1467.89 2177.91,1438.00
             2177.91,1438.00 2177.00,1424.00 2177.00,1424.00
             2177.00,1424.00 2177.91,1414.00 2177.91,1414.00
             2179.43,1391.85 2182.43,1369.30 2189.02,1348.00
             2196.83,1322.80 2208.44,1299.02 2219.14,1275.00
             2219.14,1275.00 2248.19,1206.00 2248.19,1206.00
             2257.50,1181.89 2259.48,1161.41 2254.74,1136.00
             2253.30,1128.28 2249.47,1114.53 2244.00,1109.00
             2242.28,1103.62 2237.32,1105.42 2233.00,1106.09
             2233.00,1106.09 2225.00,1106.09 2225.00,1106.09
             2215.69,1107.39 2212.16,1107.05 2203.00,1106.09
             2190.35,1104.94 2180.19,1105.09 2180.00,1089.00
             2179.78,1070.22 2189.27,1044.27 2196.72,1027.00
             2200.38,1018.50 2203.59,1009.57 2209.00,1002.00 Z
           M 2532.00,651.00
           C 2532.00,651.00 2531.00,651.00 2531.00,651.00
             2531.00,651.00 2532.00,652.00 2532.00,652.00
             2532.00,652.00 2532.00,651.00 2532.00,651.00 Z
           M 2534.00,652.00
           C 2534.00,652.00 2533.00,652.00 2533.00,652.00
             2533.00,652.00 2534.00,653.00 2534.00,653.00
             2534.00,653.00 2534.00,652.00 2534.00,652.00 Z
           M 2720.00,1085.00
           C 2708.42,1058.74 2701.88,1030.50 2699.04,1002.00
             2699.04,1002.00 2699.04,993.00 2699.04,993.00
             2699.04,993.00 2698.00,981.00 2698.00,981.00
             2698.00,981.00 2699.00,946.00 2699.00,946.00
             2699.00,946.00 2699.91,936.00 2699.91,936.00
             2702.70,897.82 2713.75,866.00 2730.75,832.00
             2746.78,799.95 2765.89,772.49 2794.00,749.80
             2810.98,736.10 2843.16,716.67 2864.00,710.44
             2875.64,706.96 2884.03,706.18 2896.00,705.74
             2914.14,705.08 2936.27,712.13 2953.00,719.01
             2969.56,725.82 2983.93,732.53 2995.33,747.00
             3021.12,779.74 3025.47,821.86 3025.00,862.00
             3025.00,862.00 3023.96,872.00 3023.96,872.00
             3023.96,872.00 3023.96,880.00 3023.96,880.00
             3018.96,930.89 2991.24,972.76 2959.41,1011.00
             2934.09,1041.43 2904.56,1069.79 2870.00,1089.57
             2853.79,1098.85 2832.07,1108.35 2814.00,1113.12
             2808.76,1114.50 2800.32,1116.31 2795.00,1116.83
             2792.39,1117.09 2788.70,1116.62 2786.73,1118.60
             2784.52,1120.82 2782.60,1134.21 2781.79,1138.00
             2778.92,1151.46 2771.60,1177.68 2766.28,1190.00
             2762.21,1199.42 2757.51,1206.63 2746.00,1205.82
             2731.03,1204.76 2721.15,1200.53 2708.00,1193.74
             2704.37,1191.87 2694.96,1185.21 2691.29,1186.12
             2688.25,1186.87 2673.02,1198.36 2670.00,1200.80
             2650.34,1216.70 2632.65,1240.37 2619.60,1262.00
             2607.20,1282.57 2598.04,1301.84 2591.43,1325.00
             2577.33,1374.41 2578.92,1426.13 2579.00,1477.00
             2579.00,1477.00 2580.00,1499.00 2580.00,1499.00
             2580.00,1499.00 2581.83,1520.00 2581.83,1520.00
             2581.83,1520.00 2586.04,1573.00 2586.04,1573.00
             2586.04,1573.00 2587.00,1584.00 2587.00,1584.00
             2587.00,1584.00 2587.00,1636.00 2587.00,1636.00
             2587.00,1636.00 2584.15,1670.00 2584.15,1670.00
             2579.34,1710.32 2566.10,1754.78 2537.91,1785.00
             2530.29,1793.17 2518.42,1802.52 2509.00,1808.66
             2499.60,1814.77 2482.85,1822.48 2472.00,1825.57
             2452.66,1831.09 2433.05,1833.23 2413.00,1833.00
             2379.92,1832.61 2352.05,1813.06 2334.34,1786.00
             2329.60,1778.75 2325.40,1771.29 2322.75,1763.00
             2318.39,1749.42 2318.84,1741.86 2319.00,1728.00
             2319.28,1704.60 2329.50,1679.13 2349.00,1665.44
             2359.17,1658.30 2374.16,1654.16 2384.96,1662.56
             2391.28,1667.47 2394.84,1677.12 2393.70,1685.00
             2393.32,1687.65 2392.23,1691.77 2389.79,1693.26
             2386.97,1694.97 2385.30,1692.40 2384.57,1689.98
             2383.26,1685.65 2385.35,1677.38 2378.79,1671.39
             2369.01,1662.47 2354.14,1673.77 2347.09,1681.04
             2335.06,1693.44 2329.03,1713.97 2329.00,1731.00
             2328.98,1740.98 2328.51,1746.10 2331.44,1756.00
             2338.97,1781.44 2362.45,1807.63 2387.00,1817.55
             2395.82,1821.11 2407.50,1822.99 2417.00,1823.00
             2434.75,1823.03 2457.29,1820.02 2474.00,1813.95
             2487.95,1808.88 2501.31,1802.00 2513.00,1792.79
             2523.93,1784.19 2532.19,1776.19 2540.52,1765.00
             2553.25,1747.90 2560.11,1729.28 2565.86,1709.00
             2571.69,1688.41 2574.63,1668.28 2576.09,1647.00
             2576.09,1647.00 2577.00,1635.00 2577.00,1635.00
             2577.00,1635.00 2577.00,1588.00 2577.00,1588.00
             2577.00,1588.00 2576.00,1569.00 2576.00,1569.00
             2576.00,1569.00 2574.17,1548.00 2574.17,1548.00
             2574.17,1548.00 2570.00,1494.00 2570.00,1494.00
             2570.00,1494.00 2569.00,1479.00 2569.00,1479.00
             2568.92,1427.52 2567.21,1371.84 2581.43,1322.00
             2589.72,1292.94 2603.91,1264.85 2621.02,1240.00
             2631.22,1225.20 2642.63,1211.24 2656.00,1199.17
             2656.00,1199.17 2679.00,1181.00 2679.00,1181.00
             2679.00,1181.00 2681.00,1182.00 2681.00,1182.00
             2681.00,1182.00 2684.00,1180.00 2684.00,1180.00
             2672.34,1169.99 2648.86,1156.74 2650.10,1139.00
             2650.72,1130.03 2657.83,1123.84 2664.00,1118.09
             2676.97,1106.01 2703.08,1090.65 2720.00,1085.00 Z
           M 2687.00,1180.00
           C 2687.00,1180.00 2686.00,1180.00 2686.00,1180.00
             2686.00,1180.00 2687.00,1181.00 2687.00,1181.00
             2687.00,1181.00 2687.00,1180.00 2687.00,1180.00 Z
           M 2690.00,1182.00
           C 2690.00,1182.00 2689.00,1182.00 2689.00,1182.00
             2689.00,1182.00 2690.00,1183.00 2690.00,1183.00
             2690.00,1183.00 2690.00,1182.00 2690.00,1182.00 Z
           M 2863.00,1456.00
           C 2863.00,1456.00 2925.00,1456.00 2925.00,1456.00
             2925.00,1456.00 2925.00,1549.00 2925.00,1549.00
             2925.00,1549.00 3019.00,1549.00 3019.00,1549.00
             3019.00,1549.00 3019.00,1612.00 3019.00,1612.00
             3019.00,1612.00 2925.00,1612.00 2925.00,1612.00
             2925.00,1612.00 2925.00,1705.00 2925.00,1705.00
             2925.00,1705.00 2863.00,1705.00 2863.00,1705.00
             2863.00,1705.00 2863.00,1612.00 2863.00,1612.00
             2863.00,1612.00 2769.00,1612.00 2769.00,1612.00
             2769.00,1612.00 2769.00,1549.00 2769.00,1549.00
             2769.00,1549.00 2863.00,1549.00 2863.00,1549.00
             2863.00,1549.00 2863.00,1456.00 2863.00,1456.00 Z" />
</svg>
