<?xml version="1.0" encoding="UTF-8" standalone="no"?>
<!DOCTYPE svg PUBLIC "-//W3C//DTD SVG 20010904//EN"
              "http://www.w3.org/TR/2001/REC-SVG-20010904/DTD/svg10.dtd">

<svg xmlns="http://www.w3.org/2000/svg"
     width="8.5in" height="11in"
     viewBox="0 0 3400 4400">
  <path id="blue"
        fill="none" stroke="black" stroke-width="1"
        d="M 2031.00,96.00
           C 2031.00,96.00 2093.00,96.00 2093.00,96.00
             2093.00,96.00 2093.00,189.00 2093.00,189.00
             2093.00,189.00 2187.00,189.00 2187.00,189.00
             2187.00,189.00 2187.00,252.00 2187.00,252.00
             2187.00,252.00 2093.00,252.00 2093.00,252.00
             2093.00,252.00 2093.00,345.00 2093.00,345.00
             2093.00,345.00 2031.00,345.00 2031.00,345.00
             2031.00,345.00 2031.00,252.00 2031.00,252.00
             2031.00,252.00 1937.00,252.00 1937.00,252.00
             1937.00,252.00 1937.00,189.00 1937.00,189.00
             1937.00,189.00 2031.00,189.00 2031.00,189.00
             2031.00,189.00 2031.00,96.00 2031.00,96.00 Z
           M 2209.00,1002.00
           C 2202.58,999.63 2195.73,994.56 2190.00,990.66
             2175.19,980.57 2150.74,956.64 2138.72,943.00
             2138.72,943.00 2128.17,932.00 2128.17,932.00
             2118.61,921.42 2108.23,907.32 2101.01,895.00
             2083.48,865.06 2069.69,823.46 2065.28,789.00
             2065.28,789.00 2063.91,769.00 2063.91,769.00
             2063.91,769.00 2063.00,759.00 2063.00,759.00
             2063.00,759.00 2064.04,743.00 2064.04,743.00
             2064.04,743.00 2064.04,734.00 2064.04,734.00
             2064.04,734.00 2070.40,694.00 2070.40,694.00
             2076.71,662.48 2087.67,632.87 2110.17,609.04
             2119.23,599.45 2135.81,588.13 2147.00,580.67
             2170.66,564.89 2195.12,554.69 2224.00,555.74
             2234.10,556.11 2238.89,555.94 2249.00,558.74
             2279.13,567.10 2315.04,598.37 2333.37,623.00
             2353.22,649.67 2362.41,675.15 2370.37,707.00
             2376.16,730.16 2379.73,751.09 2380.00,775.00
             2380.00,775.00 2380.60,784.00 2380.60,784.00
             2380.60,784.00 2380.00,795.00 2380.00,795.00
             2379.86,828.09 2373.87,865.20 2361.55,896.00
             2350.70,923.12 2336.49,943.71 2317.92,966.00
             2317.92,966.00 2300.00,987.00 2300.00,987.00
             2298.23,988.79 2290.74,995.54 2290.09,997.17
             2288.94,1000.07 2295.56,1012.38 2296.94,1016.00
             2301.40,1027.76 2312.86,1057.83 2313.00,1069.00
             2313.07,1075.17 2313.46,1080.56 2309.87,1085.96
             2306.37,1091.22 2301.71,1092.82 2296.00,1094.66
             2288.15,1097.17 2272.18,1100.87 2264.00,1102.00
             2257.72,1102.87 2248.71,1102.23 2244.00,1106.00
             2236.60,1104.22 2225.04,1106.90 2217.00,1107.00
             2217.00,1107.00 2200.00,1106.00 2200.00,1106.00
             2187.91,1105.41 2180.16,1102.46 2180.00,1089.00
             2179.78,1070.22 2189.27,1044.27 2196.72,1027.00
             2200.38,1018.50 2203.59,1009.57 2209.00,1002.00 Z
           M 2720.00,1085.00
           C 2708.42,1058.74 2701.88,1030.50 2699.04,1002.00
             2699.04,1002.00 2699.04,993.00 2699.04,993.00
             2699.04,993.00 2698.00,981.00 2698.00,981.00
             2698.00,981.00 2699.00,946.00 2699.00,946.00
             2699.00,946.00 2699.91,936.00 2699.91,936.00
             2702.70,897.82 2713.75,866.00 2730.75,832.00
             2746.78,799.95 2765.89,772.49 2794.00,749.80
             2810.98,736.10 2843.16,716.67 2864.00,710.44
             2875.64,706.96 2884.03,706.18 2896.00,705.74
             2914.14,705.08 2936.27,712.13 2953.00,719.01
             2969.56,725.82 2983.93,732.53 2995.33,747.00
             3021.12,779.74 3025.47,821.86 3025.00,862.00
             3025.00,862.00 3023.96,872.00 3023.96,872.00
             3023.96,872.00 3023.96,880.00 3023.96,880.00
             3018.48,935.98 2984.49,983.32 2948.16,1024.00
             2925.97,1048.85 2898.24,1073.82 2869.00,1090.14
             2852.34,1099.44 2834.36,1107.33 2816.00,1112.57
             2809.79,1114.34 2803.39,1115.65 2797.00,1116.57
             2794.51,1116.93 2789.22,1116.80 2787.43,1118.02
             2784.23,1120.21 2782.52,1134.73 2781.58,1139.00
             2778.47,1153.05 2771.47,1178.12 2765.85,1191.00
             2761.87,1200.09 2756.88,1206.59 2746.00,1205.82
             2724.50,1204.30 2705.58,1193.50 2688.00,1181.74
             2681.24,1177.22 2674.20,1173.01 2668.00,1167.70
             2659.84,1160.72 2649.29,1150.64 2650.10,1139.00
             2650.72,1130.03 2657.83,1123.84 2664.00,1118.09
             2676.97,1106.01 2703.08,1090.65 2720.00,1085.00 Z
           M 2254.00,1104.00
           C 2254.00,1104.00 2255.00,1104.00 2255.00,1104.00
             2255.00,1104.00 2254.00,1105.00 2254.00,1105.00
             2254.00,1105.00 2254.00,1104.00 2254.00,1104.00 Z
           M 2244.00,1108.00
           C 2244.00,1108.00 2245.00,1108.00 2245.00,1108.00
             2245.00,1108.00 2244.00,1109.00 2244.00,1109.00
             2244.00,1109.00 2244.00,1108.00 2244.00,1108.00 Z
           M 2258.00,1112.00
           C 2258.00,1112.00 2259.00,1112.00 2259.00,1112.00
             2259.00,1112.00 2258.00,1113.00 2258.00,1113.00
             2258.00,1113.00 2258.00,1112.00 2258.00,1112.00 Z
           M 2259.00,1114.00
           C 2259.00,1114.00 2260.00,1114.00 2260.00,1114.00
             2260.00,1114.00 2259.00,1115.00 2259.00,1115.00
             2259.00,1115.00 2259.00,1114.00 2259.00,1114.00 Z
           M 2681.00,1180.00
           C 2681.00,1180.00 2682.00,1180.00 2682.00,1180.00
             2682.00,1180.00 2681.00,1181.00 2681.00,1181.00
             2681.00,1181.00 2681.00,1180.00 2681.00,1180.00 Z
           M 2679.00,1181.00
           C 2679.00,1181.00 2680.00,1181.00 2680.00,1181.00
             2680.00,1181.00 2679.00,1182.00 2679.00,1182.00
             2679.00,1182.00 2679.00,1181.00 2679.00,1181.00 Z
           M 2676.00,1183.00
           C 2676.00,1183.00 2677.00,1183.00 2677.00,1183.00
             2677.00,1183.00 2676.00,1184.00 2676.00,1184.00
             2676.00,1184.00 2676.00,1183.00 2676.00,1183.00 Z
           M 2685.00,1189.00
           C 2685.00,1189.00 2686.00,1189.00 2686.00,1189.00
             2686.00,1189.00 2685.00,1190.00 2685.00,1190.00
             2685.00,1190.00 2685.00,1189.00 2685.00,1189.00 Z
           M 2863.00,1456.00
           C 2863.00,1456.00 2925.00,1456.00 2925.00,1456.00
             2925.00,1456.00 2925.00,1549.00 2925.00,1549.00
             2925.00,1549.00 3019.00,1549.00 3019.00,1549.00
             3019.00,1549.00 3019.00,1612.00 3019.00,1612.00
             3019.00,1612.00 2925.00,1612.00 2925.00,1612.00
             2925.00,1612.00 2925.00,1705.00 2925.00,1705.00
             2925.00,1705.00 2863.00,1705.00 2863.00,1705.00
             2863.00,1705.00 2863.00,1612.00 2863.00,1612.00
             2863.00,1612.00 2769.00,1612.00 2769.00,1612.00
             2769.00,1612.00 2769.00,1549.00 2769.00,1549.00
             2769.00,1549.00 2863.00,1549.00 2863.00,1549.00
             2863.00,1549.00 2863.00,1456.00 2863.00,1456.00 Z" />
</svg>
