<?xml version="1.0" encoding="UTF-8" standalone="no"?>
<!DOCTYPE svg PUBLIC "-//W3C//DTD SVG 20010904//EN"
              "http://www.w3.org/TR/2001/REC-SVG-20010904/DTD/svg10.dtd">

<svg xmlns="http://www.w3.org/2000/svg"
     width="8.5in" height="11in"
     viewBox="0 0 3400 4400">
  <path id="Selection"
        fill="none" stroke="black" stroke-width="1"
        d="M 1064.00,1472.00
           C 1052.80,1469.03 1048.18,1468.66 1038.00,1461.56
             1027.15,1453.99 1014.34,1441.93 1008.37,1430.00
             1002.41,1418.08 1002.78,1406.72 1001.91,1394.00
             1001.91,1394.00 1001.01,1385.00 1001.01,1385.00
             1000.90,1380.13 1001.40,1378.50 1001.83,1374.00
             1004.13,1350.27 1009.06,1328.60 1016.67,1306.00
             1021.73,1290.96 1031.39,1271.05 1040.35,1258.00
             1043.88,1252.86 1050.48,1244.21 1056.00,1241.45
             1059.73,1239.59 1064.88,1239.96 1069.00,1240.00
             1073.96,1240.06 1078.15,1240.94 1083.00,1241.75
             1111.47,1246.54 1135.44,1261.17 1156.00,1280.99
             1173.76,1298.12 1183.85,1308.34 1192.68,1332.00
             1201.48,1355.58 1210.85,1391.95 1212.00,1417.00
             1212.00,1417.00 1228.09,1398.00 1228.09,1398.00
             1235.63,1389.94 1252.74,1375.62 1262.00,1369.20
             1281.81,1355.48 1316.83,1340.86 1340.00,1333.33
             1347.88,1330.77 1369.35,1324.93 1377.00,1324.17
             1381.23,1323.75 1388.40,1323.23 1390.22,1328.11
             1391.39,1331.23 1389.54,1335.19 1388.22,1338.00
             1388.22,1338.00 1377.31,1359.00 1377.31,1359.00
             1367.12,1381.18 1352.29,1413.54 1352.00,1438.00
             1352.00,1438.00 1352.00,1445.00 1352.00,1445.00
             1352.03,1451.63 1352.89,1456.96 1355.79,1463.00
             1357.49,1466.56 1359.62,1470.00 1362.30,1472.91
             1376.09,1487.90 1392.40,1483.85 1408.00,1474.55
             1429.13,1461.95 1441.28,1441.62 1441.00,1417.00
             1440.90,1409.01 1438.12,1400.39 1432.00,1395.00
             1432.00,1415.00 1424.07,1440.96 1408.96,1454.82
             1401.63,1461.54 1387.56,1467.23 1379.34,1458.78
             1374.51,1453.82 1372.78,1442.73 1373.04,1436.00
             1373.80,1416.43 1386.19,1390.34 1396.59,1374.00
             1411.72,1350.21 1428.47,1335.84 1451.00,1319.58
             1466.29,1308.54 1475.41,1301.36 1493.00,1293.31
             1511.39,1284.88 1531.97,1281.31 1552.00,1279.91
             1552.00,1279.91 1564.00,1279.01 1564.00,1279.01
             1564.00,1279.01 1573.00,1279.91 1573.00,1279.91
             1598.33,1281.76 1612.64,1286.88 1632.00,1303.72
             1636.43,1307.58 1640.73,1311.19 1644.22,1316.00
             1655.51,1331.59 1660.03,1353.13 1661.96,1372.00
             1661.96,1372.00 1661.96,1382.00 1661.96,1382.00
             1661.96,1382.00 1662.99,1394.00 1662.99,1394.00
             1662.99,1394.00 1662.09,1403.00 1662.09,1403.00
             1662.09,1403.00 1660.72,1423.00 1660.72,1423.00
             1657.54,1448.49 1646.42,1488.18 1638.33,1513.00
             1633.10,1529.04 1620.18,1561.70 1620.00,1577.00
             1619.97,1579.70 1619.91,1583.42 1620.53,1586.15
             1625.04,1604.58 1648.15,1592.57 1658.00,1586.15
             1658.00,1586.15 1665.00,1581.65 1665.00,1581.65
             1674.88,1574.86 1689.71,1561.21 1695.79,1551.00
             1695.79,1551.00 1701.31,1538.00 1701.31,1538.00
             1701.31,1538.00 1706.74,1527.00 1706.74,1527.00
             1709.14,1522.04 1712.88,1506.58 1719.99,1508.66
             1727.09,1510.74 1726.69,1521.24 1727.09,1527.00
             1727.09,1527.00 1727.82,1534.00 1727.82,1534.00
             1727.82,1534.00 1726.96,1541.00 1726.96,1541.00
             1726.96,1541.00 1726.96,1550.00 1726.96,1550.00
             1725.84,1560.43 1724.31,1570.78 1721.99,1581.00
             1715.06,1611.54 1702.55,1631.51 1681.04,1654.00
             1673.00,1662.40 1664.82,1670.76 1655.00,1677.14
             1639.45,1687.23 1620.34,1691.21 1602.00,1691.00
             1577.01,1690.70 1558.03,1677.46 1547.49,1655.00
             1542.64,1644.68 1540.92,1633.16 1539.08,1622.00
             1536.75,1607.91 1537.47,1588.04 1525.98,1578.22
             1512.79,1566.93 1486.51,1581.84 1474.00,1588.86
             1454.65,1599.73 1427.66,1623.14 1413.44,1640.00
             1413.44,1640.00 1395.63,1664.00 1395.63,1664.00
             1389.31,1672.42 1373.90,1692.83 1371.00,1702.00
             1381.93,1704.59 1388.55,1713.10 1394.65,1722.00
             1404.10,1735.77 1410.50,1753.91 1414.85,1770.00
             1414.85,1770.00 1420.42,1790.00 1420.42,1790.00
             1423.73,1798.77 1430.93,1813.08 1439.00,1818.00
             1442.91,1820.38 1451.38,1821.78 1456.00,1821.96
             1466.15,1822.36 1477.70,1818.84 1487.00,1814.99
             1493.58,1812.26 1499.49,1807.74 1507.00,1809.28
             1512.26,1810.35 1518.38,1816.81 1521.51,1821.01
             1523.86,1824.17 1525.53,1827.33 1526.94,1831.00
             1530.79,1841.03 1531.20,1846.92 1533.20,1857.00
             1537.42,1878.21 1539.03,1883.93 1539.00,1906.00
             1538.98,1917.88 1536.71,1931.97 1532.31,1943.00
             1530.84,1946.67 1530.19,1949.79 1527.61,1952.96
             1519.59,1962.83 1497.47,1968.85 1485.00,1969.00
             1469.84,1969.17 1459.10,1966.36 1446.00,1958.55
             1446.00,1958.55 1431.00,1948.00 1431.00,1948.00
             1437.48,1961.73 1446.37,1976.04 1459.00,1984.96
             1466.43,1990.20 1467.33,1989.05 1473.98,1992.11
             1476.18,1993.12 1478.22,1994.33 1478.30,1997.04
             1478.45,2002.96 1465.37,2015.43 1461.00,2019.28
             1461.00,2019.28 1452.00,2027.71 1452.00,2027.71
             1436.57,2041.14 1419.74,2052.86 1402.00,2063.00
             1355.59,2089.52 1312.31,2094.61 1260.00,2094.00
             1260.00,2094.00 1250.00,2093.09 1250.00,2093.09
             1239.45,2092.37 1241.64,2093.53 1229.00,2091.41
             1225.78,2090.87 1218.76,2090.05 1216.19,2088.55
             1211.74,2085.96 1210.03,2077.75 1207.74,2073.00
             1201.95,2061.01 1197.22,2053.26 1188.56,2043.00
             1188.56,2043.00 1166.00,2020.00 1166.00,2020.00
             1163.01,2017.01 1157.18,2011.79 1155.74,2008.00
             1154.58,2004.96 1154.96,1992.01 1155.00,1988.00
             1155.16,1974.80 1160.04,1956.67 1163.98,1944.00
             1163.98,1944.00 1172.20,1920.00 1172.20,1920.00
             1177.77,1905.85 1182.72,1895.29 1190.14,1882.00
             1205.12,1855.16 1224.59,1831.39 1258.00,1831.00
             1266.27,1830.91 1271.95,1830.89 1280.00,1833.52
             1291.85,1837.39 1302.32,1846.33 1311.00,1855.00
             1319.61,1863.60 1327.91,1872.35 1335.35,1882.00
             1335.35,1882.00 1348.00,1899.00 1348.00,1899.00
             1347.79,1876.28 1339.85,1861.40 1326.00,1844.00
             1305.34,1818.06 1278.03,1800.05 1244.00,1800.00
             1231.02,1799.98 1217.81,1802.19 1206.00,1807.78
             1193.90,1813.51 1181.20,1822.52 1174.06,1834.00
             1166.66,1845.90 1169.22,1850.54 1164.72,1854.30
             1159.11,1859.01 1146.12,1858.08 1139.00,1858.00
             1124.64,1857.83 1099.50,1851.92 1085.00,1849.00
             1085.00,1849.00 1094.04,1858.71 1094.04,1858.71
             1101.71,1865.69 1119.48,1876.82 1129.00,1881.14
             1134.52,1883.64 1139.13,1885.53 1145.00,1887.12
             1147.62,1887.83 1151.24,1888.38 1152.38,1891.22
             1153.86,1894.90 1150.99,1897.09 1147.98,1898.29
             1143.15,1900.21 1136.19,1900.98 1131.00,1901.00
             1112.38,1901.08 1099.52,1896.96 1082.00,1893.00
             1098.56,1909.56 1108.22,1918.83 1131.00,1926.33
             1135.32,1927.75 1147.36,1929.35 1145.34,1935.96
             1143.28,1942.74 1129.05,1944.73 1123.00,1944.96
             1109.72,1945.48 1087.81,1939.13 1076.00,1933.00
             1083.31,1943.22 1104.68,1959.47 1116.00,1965.69
             1116.00,1965.69 1137.85,1976.65 1137.85,1976.65
             1142.28,1980.31 1142.13,1989.04 1136.89,1991.98
             1132.42,1994.49 1124.65,1991.54 1120.00,1990.37
             1111.13,1988.16 1095.94,1984.94 1087.00,1985.51
             1058.84,1987.30 1036.99,1989.11 1012.00,2004.20
             1003.52,2009.33 998.53,2013.49 991.00,2019.75
             985.35,2024.46 981.90,2028.90 974.00,2026.69
             967.57,2024.90 960.14,2017.88 955.73,2012.96
             946.18,2002.31 935.87,1986.51 928.72,1974.00
             909.84,1940.97 896.38,1904.82 891.28,1867.00
             887.65,1840.06 887.96,1813.14 888.00,1786.00
             888.00,1786.00 888.91,1774.00 888.91,1774.00
             890.00,1758.18 891.34,1741.97 897.06,1727.00
             898.59,1723.01 901.75,1716.03 905.10,1713.45
             909.19,1710.29 913.06,1712.04 913.95,1717.02
             913.95,1717.02 913.95,1722.00 913.95,1722.00
             913.95,1722.00 913.95,1734.00 913.95,1734.00
             913.95,1734.00 914.96,1745.00 914.96,1745.00
             916.83,1787.85 923.27,1819.10 935.98,1860.00
             935.98,1860.00 947.60,1894.00 947.60,1894.00
             952.68,1906.57 960.51,1922.75 969.30,1933.00
             971.25,1935.28 975.97,1940.54 978.98,1940.95
             983.71,1941.59 988.88,1929.85 989.60,1926.00
             990.63,1920.49 986.08,1913.65 983.42,1909.00
             983.42,1909.00 967.25,1878.00 967.25,1878.00
             958.91,1861.32 952.55,1843.55 946.31,1826.00
             936.82,1799.32 930.76,1781.99 924.58,1754.00
             924.58,1754.00 918.75,1725.00 918.75,1725.00
             918.09,1720.92 917.25,1714.88 919.31,1711.11
             921.35,1707.39 925.14,1706.60 929.00,1707.64
             929.00,1707.64 953.00,1718.78 953.00,1718.78
             976.75,1730.00 992.53,1746.38 1007.00,1768.00
             1012.35,1776.00 1018.26,1784.36 1020.00,1794.00
             1024.25,1790.26 1026.80,1784.68 1030.02,1780.00
             1035.10,1772.65 1041.78,1764.38 1048.01,1758.00
             1078.03,1727.25 1116.36,1701.86 1157.00,1687.69
             1180.30,1679.57 1205.65,1677.17 1230.00,1674.28
             1237.41,1673.41 1249.81,1674.04 1257.00,1672.00
             1257.00,1672.00 1226.00,1663.43 1226.00,1663.43
             1218.58,1662.19 1196.92,1659.77 1190.00,1660.04
             1190.00,1660.04 1182.00,1661.00 1182.00,1661.00
             1182.00,1661.00 1173.00,1661.00 1173.00,1661.00
             1173.00,1661.00 1140.00,1665.61 1140.00,1665.61
             1129.38,1667.60 1120.25,1669.90 1110.00,1673.33
             1110.00,1673.33 1092.00,1679.39 1092.00,1679.39
             1086.66,1680.10 1076.56,1675.75 1072.00,1672.94
             1057.73,1664.14 1045.31,1652.10 1037.76,1637.00
             1008.98,1579.48 1034.87,1523.18 1064.00,1472.00 Z
           M 847.00,1612.00
           C 827.45,1514.77 836.19,1398.07 901.92,1319.00
             917.83,1299.86 944.60,1272.15 967.00,1261.26
             973.04,1258.32 990.96,1251.49 996.69,1256.56
             999.76,1259.29 999.05,1263.63 997.64,1267.00
             997.64,1267.00 984.86,1291.00 984.86,1291.00
             984.86,1291.00 969.52,1327.00 969.52,1327.00
             962.58,1347.63 959.75,1373.31 960.00,1395.00
             960.24,1415.03 967.55,1442.37 978.75,1459.00
             982.48,1464.54 986.26,1468.36 991.00,1472.99
             997.60,1479.43 1003.80,1483.62 1012.00,1487.75
             1017.51,1490.53 1024.80,1493.42 1026.57,1500.00
             1028.70,1507.95 1018.88,1523.51 1015.26,1531.00
             1007.54,1546.95 999.21,1571.23 999.00,1589.00
             999.00,1589.00 999.00,1605.00 999.00,1605.00
             999.01,1612.00 999.85,1616.21 1001.20,1623.00
             1006.14,1647.81 1015.96,1663.41 1034.00,1680.99
             1044.26,1690.99 1052.82,1693.36 1057.89,1697.61
             1061.24,1700.40 1062.86,1703.80 1060.11,1707.70
             1057.33,1711.64 1043.77,1719.44 1039.00,1722.42
             1029.98,1728.07 1026.99,1730.76 1019.00,1737.41
             1015.79,1740.08 1012.52,1743.23 1008.00,1742.81
             1003.85,1742.43 1000.96,1738.97 998.44,1736.00
             998.44,1736.00 982.57,1716.00 982.57,1716.00
             970.15,1701.08 953.02,1686.08 937.00,1675.02
             928.27,1669.00 919.03,1663.41 908.00,1664.04
             900.71,1664.46 896.58,1671.12 893.31,1677.00
             886.09,1690.02 879.71,1703.56 875.88,1718.00
             868.98,1744.03 864.79,1770.17 862.91,1797.00
             862.91,1797.00 862.00,1809.00 862.00,1809.00
             862.00,1809.00 862.00,1831.00 862.00,1831.00
             862.00,1831.00 869.00,1885.00 869.00,1885.00
             869.03,1888.25 869.24,1895.15 868.35,1898.00
             864.78,1909.39 852.89,1910.11 843.00,1910.00
             829.02,1909.83 814.45,1902.53 803.00,1895.00
             796.42,1890.66 786.62,1884.18 781.09,1878.83
             769.88,1867.99 759.19,1847.56 757.00,1832.00
             744.73,1837.29 735.93,1841.83 722.00,1842.00
             699.91,1842.25 685.11,1835.53 667.00,1823.33
             662.46,1820.27 654.86,1814.73 651.17,1810.91
             646.05,1805.63 641.95,1799.29 638.20,1793.00
             632.28,1783.07 627.14,1771.75 627.00,1760.00
             626.91,1751.72 627.04,1747.10 629.44,1739.00
             634.56,1721.71 652.95,1696.52 664.95,1683.00
             676.55,1669.93 688.76,1657.65 703.00,1647.43
             732.57,1626.20 765.73,1613.82 802.00,1610.92
             802.00,1610.92 814.00,1610.00 814.00,1610.00
             814.00,1610.00 828.00,1610.00 828.00,1610.00
             835.23,1610.01 840.00,1611.08 847.00,1612.00 Z
           M 1312.00,2173.00
           C 1312.00,2173.00 1321.57,2187.00 1321.57,2187.00
             1321.57,2187.00 1343.43,2221.00 1343.43,2221.00
             1359.69,2243.75 1385.01,2274.09 1403.83,2295.00
             1411.52,2303.54 1422.47,2315.24 1431.00,2322.71
             1432.92,2324.40 1440.35,2331.05 1442.42,2331.35
             1444.61,2331.66 1448.24,2328.87 1450.00,2327.65
             1450.00,2327.65 1470.00,2311.55 1470.00,2311.55
             1470.00,2311.55 1515.00,2271.09 1515.00,2271.09
             1515.00,2271.09 1547.00,2241.00 1547.00,2241.00
             1616.59,2171.41 1677.42,2092.57 1733.72,2012.00
             1760.70,1973.39 1788.33,1935.43 1812.60,1895.00
             1812.60,1895.00 1840.28,1855.00 1840.28,1855.00
             1857.03,1831.03 1884.29,1790.31 1897.24,1765.00
             1902.43,1754.86 1914.13,1732.62 1924.00,1727.69
             1927.63,1725.87 1932.02,1725.80 1936.00,1726.09
             1955.80,1727.53 1974.04,1750.25 1985.11,1765.00
             1993.39,1776.04 2008.69,1798.92 2014.73,1811.00
             2014.73,1811.00 2024.01,1833.00 2024.01,1833.00
             2031.62,1851.30 2031.73,1850.38 2036.88,1870.00
             2040.55,1883.96 2043.83,1898.49 2044.00,1913.00
             2044.00,1913.00 2044.00,1925.00 2044.00,1925.00
             2043.96,1950.39 2026.44,1985.89 2014.30,2008.00
             1998.84,2036.17 1977.90,2067.82 1959.14,2094.00
             1959.14,2094.00 1916.42,2149.00 1916.42,2149.00
             1916.42,2149.00 1847.83,2229.00 1847.83,2229.00
             1847.83,2229.00 1801.04,2278.00 1801.04,2278.00
             1801.04,2278.00 1714.00,2367.00 1714.00,2367.00
             1714.00,2367.00 1670.00,2409.09 1670.00,2409.09
             1670.00,2409.09 1616.00,2458.27 1616.00,2458.27
             1616.00,2458.27 1576.00,2489.42 1576.00,2489.42
             1570.34,2493.51 1562.78,2499.95 1557.00,2503.00
             1562.81,2519.76 1568.21,2537.06 1568.00,2555.00
             1567.86,2566.28 1564.28,2570.24 1553.00,2569.99
             1553.00,2569.99 1530.00,2568.00 1530.00,2568.00
             1530.00,2568.00 1497.00,2568.00 1497.00,2568.00
             1497.00,2568.00 1485.00,2568.91 1485.00,2568.91
             1485.00,2568.91 1457.00,2570.91 1457.00,2570.91
             1457.00,2570.91 1434.00,2572.17 1434.00,2572.17
             1434.00,2572.17 1392.00,2576.82 1392.00,2576.82
             1376.33,2577.93 1368.09,2569.16 1358.75,2558.00
             1345.38,2542.01 1329.47,2518.02 1318.60,2500.00
             1311.56,2488.33 1302.89,2473.42 1297.58,2461.00
             1295.98,2457.26 1292.33,2448.85 1292.29,2445.00
             1292.22,2437.95 1297.92,2437.28 1303.00,2440.23
             1308.60,2443.47 1318.12,2454.06 1323.00,2459.00
             1353.22,2489.56 1389.33,2532.45 1436.00,2533.00
             1454.74,2533.21 1473.50,2525.63 1490.00,2517.24
             1494.74,2514.84 1504.62,2509.73 1505.36,2504.00
             1505.98,2499.25 1498.24,2485.43 1495.72,2481.00
             1495.72,2481.00 1463.33,2428.00 1463.33,2428.00
             1463.33,2428.00 1427.15,2377.00 1427.15,2377.00
             1386.94,2321.88 1350.04,2276.87 1301.00,2229.01
             1283.29,2211.73 1264.14,2195.26 1245.00,2179.58
             1241.48,2176.69 1229.62,2168.03 1228.02,2164.96
             1227.11,2163.22 1226.91,2160.92 1227.23,2159.00
             1228.41,2151.90 1236.34,2152.02 1242.00,2151.08
             1258.25,2148.39 1272.21,2145.59 1288.00,2140.66
             1351.42,2120.85 1400.73,2096.20 1452.00,2053.25
             1461.47,2045.31 1481.71,2026.26 1489.20,2017.00
             1492.37,2013.07 1497.48,2003.77 1503.58,2008.74
             1508.79,2012.98 1506.77,2022.65 1504.77,2028.00
             1499.95,2040.92 1485.78,2059.08 1477.00,2070.00
             1442.81,2112.51 1407.50,2131.25 1359.00,2152.86
             1359.00,2152.86 1312.00,2173.00 1312.00,2173.00 Z
           M 798.00,2074.00
           C 782.54,2071.61 754.62,2055.90 741.00,2047.42
             691.33,2016.49 643.93,1963.28 623.32,1908.00
             614.22,1883.59 612.76,1874.29 609.42,1849.00
             608.45,1841.62 609.28,1828.13 616.04,1823.60
             623.56,1818.56 630.19,1827.36 635.00,1831.96
             635.00,1831.96 644.00,1839.58 644.00,1839.58
             665.42,1856.21 694.63,1868.32 722.00,1868.00
             733.39,1867.86 738.94,1862.51 743.87,1865.19
             747.92,1867.39 750.76,1880.84 753.26,1886.00
             760.49,1900.97 768.27,1913.64 781.00,1924.71
             797.79,1939.32 823.34,1951.92 846.00,1951.92
             846.00,1951.92 878.00,1946.76 878.00,1946.76
             882.15,1946.28 884.43,1947.54 886.64,1951.05
             886.64,1951.05 891.27,1961.00 891.27,1961.00
             891.27,1961.00 901.28,1979.00 901.28,1979.00
             914.70,2002.56 926.29,2014.70 947.00,2031.92
             950.96,2035.21 964.72,2046.17 969.00,2047.44
             972.98,2048.62 975.41,2045.52 978.00,2042.99
             984.72,2036.45 989.23,2032.39 997.00,2027.02
             1021.09,2010.38 1037.78,2003.75 1067.00,2002.09
             1073.00,2001.75 1089.66,2004.12 1096.00,2005.40
             1105.88,2007.39 1114.06,2010.04 1123.00,2014.78
             1131.65,2019.37 1137.13,2024.14 1144.00,2031.00
             1151.78,2038.76 1156.80,2043.35 1162.55,2053.00
             1170.83,2066.89 1176.85,2089.99 1180.00,2106.00
             1181.24,2112.29 1183.86,2130.16 1183.16,2136.00
             1183.16,2136.00 1183.16,2143.00 1183.16,2143.00
             1183.16,2143.00 1183.16,2152.00 1183.16,2152.00
             1182.98,2163.42 1180.20,2178.53 1178.42,2190.00
             1176.17,2204.50 1173.94,2219.32 1168.40,2233.00
             1164.79,2241.90 1159.19,2253.91 1150.00,2258.03
             1133.87,2265.26 1121.84,2251.77 1118.51,2237.00
             1114.01,2216.99 1122.42,2191.94 1136.00,2177.00
             1124.75,2179.14 1117.07,2189.60 1111.72,2199.00
             1107.39,2206.61 1103.43,2215.24 1102.29,2224.00
             1099.47,2245.62 1111.95,2267.89 1129.00,2280.48
             1132.54,2283.10 1134.89,2283.99 1139.00,2285.33
             1153.31,2289.99 1162.50,2283.49 1169.66,2271.00
             1174.22,2263.06 1178.25,2252.03 1189.00,2251.11
             1198.47,2250.30 1203.63,2258.31 1207.00,2266.00
             1213.95,2281.92 1215.52,2292.01 1217.17,2309.00
             1217.17,2309.00 1218.00,2318.00 1218.00,2318.00
             1218.00,2318.00 1218.00,2331.00 1218.00,2331.00
             1217.97,2351.80 1208.59,2393.88 1200.14,2413.00
             1195.61,2423.26 1186.64,2437.54 1180.33,2447.00
             1167.38,2466.43 1160.21,2476.58 1141.00,2491.10
             1127.50,2501.31 1117.41,2505.84 1102.00,2512.00
             1111.01,2517.89 1119.59,2522.99 1125.96,2532.00
             1129.82,2537.46 1132.24,2542.91 1134.85,2549.00
             1144.51,2571.55 1144.70,2586.44 1139.42,2610.00
             1137.55,2618.36 1133.90,2629.66 1129.55,2637.00
             1125.62,2643.63 1119.45,2650.55 1114.00,2656.00
             1093.73,2676.26 1067.99,2688.66 1039.00,2689.00
             1007.81,2689.36 980.49,2675.36 964.62,2648.00
             960.51,2640.92 956.81,2631.23 956.37,2623.00
             956.18,2619.40 957.19,2613.89 960.23,2611.67
             962.53,2609.86 965.24,2610.00 967.48,2611.67
             970.36,2613.97 973.21,2621.06 982.00,2626.90
             994.90,2635.46 1010.03,2633.39 1024.00,2629.12
             1037.42,2625.01 1051.04,2616.05 1059.71,2605.00
             1065.71,2597.36 1068.42,2588.04 1063.67,2579.00
             1062.14,2576.08 1060.20,2573.41 1057.91,2571.04
             1054.94,2567.96 1050.77,2564.93 1047.00,2562.90
             1039.17,2558.67 1023.91,2556.65 1015.00,2557.04
             1015.00,2557.04 999.00,2558.00 999.00,2558.00
             999.00,2558.00 984.00,2559.00 984.00,2559.00
             984.00,2559.00 965.00,2560.00 965.00,2560.00
             932.42,2560.05 890.18,2549.51 871.09,2521.00
             864.67,2511.42 858.83,2497.17 855.88,2486.00
             851.68,2470.06 851.81,2465.20 852.00,2449.00
             852.09,2441.99 854.39,2430.92 856.13,2424.00
             862.33,2399.29 870.28,2381.87 886.61,2362.00
             892.08,2355.35 905.42,2340.66 915.00,2342.34
             917.88,2342.84 921.19,2345.48 924.00,2346.87
             928.65,2349.16 937.90,2352.40 943.00,2353.98
             965.80,2361.04 986.39,2361.32 1007.00,2347.64
             1017.35,2340.78 1024.57,2332.90 1025.67,2320.00
             1026.61,2309.06 1017.69,2299.65 1010.00,2293.14
             992.04,2277.96 974.56,2278.11 953.00,2283.63
             942.69,2286.27 932.66,2290.39 926.00,2299.00
             941.93,2293.69 959.13,2289.08 976.00,2291.92
             982.93,2293.09 991.60,2295.51 996.21,2301.18
             1003.66,2310.35 999.46,2320.56 990.00,2326.05
             979.47,2332.16 958.23,2332.14 946.00,2332.00
             932.09,2331.83 910.75,2328.46 897.00,2325.42
             857.14,2316.63 818.74,2302.48 787.00,2276.08
             772.54,2264.05 756.10,2244.94 749.70,2227.00
             744.59,2212.70 744.83,2202.76 745.00,2188.00
             745.30,2162.73 757.05,2126.79 771.19,2106.00
             784.07,2087.07 791.98,2082.41 798.00,2074.00 Z
           M 1131.00,1891.00
           C 1131.00,1891.00 1130.00,1891.00 1130.00,1891.00
             1130.00,1891.00 1131.00,1892.00 1131.00,1892.00
             1131.00,1892.00 1131.00,1891.00 1131.00,1891.00 Z
           M 1242.23,2256.04
           C 1247.20,2254.64 1249.15,2257.03 1251.91,2261.00
             1255.52,2266.20 1259.65,2275.03 1261.94,2281.00
             1273.13,2310.26 1277.36,2344.83 1277.00,2376.00
             1277.00,2376.00 1276.09,2386.00 1276.09,2386.00
             1276.09,2386.00 1274.00,2428.00 1274.00,2428.00
             1274.02,2441.02 1279.24,2452.99 1283.81,2465.00
             1293.39,2490.17 1305.39,2512.93 1319.20,2536.00
             1327.54,2549.92 1335.59,2564.29 1347.01,2576.00
             1350.39,2579.46 1354.78,2584.25 1359.00,2586.47
             1374.75,2594.75 1386.00,2594.00 1403.00,2594.00
             1403.00,2594.00 1429.00,2594.00 1429.00,2594.00
             1429.00,2594.00 1460.00,2592.00 1460.00,2592.00
             1460.00,2592.00 1497.00,2592.00 1497.00,2592.00
             1497.00,2592.00 1519.00,2591.00 1519.00,2591.00
             1519.00,2591.00 1531.00,2591.91 1531.00,2591.91
             1565.44,2594.32 1602.48,2606.34 1631.00,2626.02
             1656.85,2643.86 1689.20,2679.08 1708.79,2704.00
             1720.26,2718.59 1726.25,2730.54 1735.45,2746.00
             1735.45,2746.00 1754.69,2777.00 1754.69,2777.00
             1765.43,2796.85 1774.18,2817.62 1781.33,2839.00
             1785.10,2850.26 1794.52,2874.08 1794.96,2885.00
             1795.67,2902.67 1784.88,2909.10 1770.00,2915.14
             1747.29,2924.34 1712.46,2926.28 1688.00,2926.00
             1652.39,2925.58 1601.74,2907.08 1582.23,2876.00
             1577.09,2867.81 1573.36,2858.86 1569.58,2850.00
             1554.89,2815.58 1545.98,2777.01 1517.00,2751.17
             1504.11,2739.68 1479.13,2731.83 1462.00,2730.17
             1462.00,2730.17 1426.00,2729.00 1426.00,2729.00
             1426.00,2729.00 1413.00,2728.00 1413.00,2728.00
             1413.00,2728.00 1399.00,2728.00 1399.00,2728.00
             1399.00,2728.00 1383.00,2727.00 1383.00,2727.00
             1357.98,2726.96 1331.75,2727.95 1309.00,2715.69
             1289.72,2705.30 1277.02,2685.33 1266.00,2667.00
             1253.55,2646.30 1243.52,2624.80 1233.22,2603.00
             1233.22,2603.00 1208.20,2549.00 1208.20,2549.00
             1208.20,2549.00 1193.80,2513.00 1193.80,2513.00
             1191.72,2507.84 1187.26,2498.40 1187.36,2493.00
             1187.45,2487.71 1191.85,2481.15 1194.88,2477.00
             1199.40,2470.82 1203.76,2464.65 1207.57,2458.00
             1218.07,2439.66 1227.81,2412.83 1231.58,2392.00
             1231.58,2392.00 1238.00,2339.00 1238.00,2339.00
             1238.00,2339.00 1238.00,2330.00 1238.00,2330.00
             1238.00,2330.00 1240.00,2296.00 1240.00,2296.00
             1240.00,2296.00 1239.00,2282.00 1239.00,2282.00
             1238.96,2277.84 1238.52,2261.96 1239.74,2259.06
             1240.56,2257.08 1240.85,2257.29 1242.23,2256.04 Z
           M 1169.00,2687.00
           C 1157.89,2694.40 1146.74,2700.84 1133.00,2701.00
             1133.00,2701.00 1117.00,2700.03 1117.00,2700.03
             1111.95,2699.76 1095.40,2699.96 1098.62,2691.10
             1100.10,2687.03 1107.31,2685.04 1111.00,2683.19
             1120.08,2678.65 1129.20,2672.56 1137.00,2666.08
             1158.44,2648.25 1167.66,2632.10 1178.01,2607.00
             1181.84,2597.72 1186.56,2586.10 1186.92,2576.00
             1186.92,2576.00 1186.92,2571.00 1186.92,2571.00
             1186.80,2568.61 1187.31,2561.89 1191.52,2564.74
             1192.75,2565.57 1194.27,2568.65 1195.08,2570.00
             1200.54,2579.11 1205.81,2588.29 1210.14,2598.00
             1223.97,2629.04 1240.31,2658.50 1257.15,2688.00
             1265.04,2701.82 1275.32,2721.04 1289.00,2729.53
             1303.62,2738.61 1311.94,2738.90 1328.00,2741.13
             1328.00,2741.13 1347.00,2742.96 1347.00,2742.96
             1347.00,2742.96 1360.00,2742.00 1360.00,2742.00
             1360.00,2742.00 1434.00,2742.00 1434.00,2742.00
             1448.53,2742.02 1473.86,2747.16 1486.00,2755.10
             1505.52,2767.86 1516.17,2787.85 1526.25,2808.00
             1526.25,2808.00 1557.77,2870.00 1557.77,2870.00
             1563.98,2881.43 1570.87,2892.55 1578.63,2903.00
             1582.20,2907.81 1589.94,2916.43 1590.79,2922.00
             1591.66,2927.71 1588.58,2938.19 1587.13,2944.00
             1587.13,2944.00 1573.58,2990.00 1573.58,2990.00
             1568.95,3002.25 1562.53,3011.67 1556.30,3023.00
             1547.96,3038.19 1533.33,3063.69 1521.91,3076.00
             1516.78,3081.54 1507.61,3090.29 1501.00,3093.81
             1496.17,3096.38 1491.40,3096.28 1490.07,3089.98
             1490.07,3089.98 1490.07,3084.00 1490.07,3084.00
             1490.07,3084.00 1490.07,3049.00 1490.07,3049.00
             1490.07,3049.00 1489.00,3034.00 1489.00,3034.00
             1488.96,3009.01 1484.38,2988.03 1478.37,2964.00
             1473.28,2943.63 1466.95,2922.91 1454.00,2906.00
             1454.00,2906.00 1455.00,2920.00 1455.00,2920.00
             1455.00,2920.00 1455.00,2962.00 1455.00,2962.00
             1455.00,2962.00 1454.00,2979.00 1454.00,2979.00
             1454.00,2979.00 1454.00,3000.00 1454.00,3000.00
             1454.00,3000.00 1453.00,3016.00 1453.00,3016.00
             1453.00,3016.00 1452.00,3047.00 1452.00,3047.00
             1452.00,3047.00 1450.09,3074.00 1450.09,3074.00
             1447.52,3111.40 1441.46,3144.66 1432.37,3181.00
             1425.09,3210.13 1417.39,3238.68 1407.31,3267.00
             1391.64,3311.03 1376.51,3344.23 1351.58,3384.00
             1346.74,3391.71 1336.48,3405.92 1330.00,3411.91
             1326.87,3414.79 1321.41,3419.18 1317.60,3414.69
             1315.35,3412.03 1316.95,3399.31 1317.00,3395.00
             1317.00,3395.00 1317.79,3384.00 1317.79,3384.00
             1317.79,3384.00 1313.00,3335.00 1313.00,3335.00
             1312.98,3321.92 1311.97,3292.22 1314.20,3281.00
             1315.60,3273.93 1316.76,3266.23 1323.04,3261.65
             1327.49,3258.41 1331.86,3259.06 1337.00,3258.85
             1337.00,3258.85 1342.00,3258.85 1342.00,3258.85
             1356.69,3256.70 1345.16,3246.78 1344.20,3237.00
             1343.45,3229.46 1354.50,3213.23 1358.14,3205.00
             1366.33,3186.46 1372.15,3167.16 1374.17,3147.00
             1374.68,3141.92 1375.35,3139.39 1374.83,3134.00
             1374.44,3129.93 1373.10,3122.68 1371.47,3119.00
             1367.77,3110.65 1356.96,3099.36 1348.00,3096.79
             1345.09,3095.95 1342.00,3095.94 1339.00,3096.01
             1328.10,3096.28 1319.84,3103.56 1312.01,3110.43
             1299.37,3121.52 1290.08,3140.05 1290.00,3157.00
             1290.00,3157.00 1290.00,3172.00 1290.00,3172.00
             1290.11,3180.82 1295.23,3200.20 1298.03,3209.00
             1299.40,3213.30 1304.03,3221.35 1303.48,3225.00
             1303.04,3227.95 1299.71,3232.44 1298.00,3235.00
             1298.00,3235.00 1287.00,3252.00 1287.00,3252.00
             1292.19,3253.18 1306.34,3256.46 1307.67,3262.04
             1308.80,3266.80 1304.20,3275.07 1302.72,3280.00
             1300.02,3289.00 1298.89,3299.62 1299.00,3309.00
             1299.00,3309.00 1299.91,3319.00 1299.91,3319.00
             1299.91,3319.00 1301.17,3341.00 1301.17,3341.00
             1301.17,3341.00 1304.00,3374.00 1304.00,3374.00
             1304.00,3374.00 1304.00,3393.00 1304.00,3393.00
             1303.99,3401.98 1302.68,3414.55 1297.36,3422.00
             1295.14,3425.12 1291.41,3428.77 1288.00,3430.56
             1279.75,3434.89 1264.52,3433.22 1258.19,3425.90
             1253.72,3420.26 1253.97,3409.97 1258.19,3404.04
             1260.29,3400.60 1263.10,3399.39 1263.66,3397.67
             1264.66,3394.61 1260.22,3393.24 1258.00,3393.21
             1248.39,3393.08 1239.88,3405.00 1239.87,3414.00
             1240.16,3419.42 1243.50,3424.66 1239.87,3426.93
             1237.17,3428.43 1234.16,3426.57 1232.00,3425.30
             1224.97,3421.18 1215.46,3413.53 1208.28,3421.21
             1207.13,3422.43 1205.95,3424.21 1205.88,3425.94
             1205.69,3430.79 1212.10,3429.60 1217.00,3430.93
             1224.47,3432.95 1229.11,3436.99 1229.81,3445.00
             1231.48,3463.97 1213.48,3477.62 1196.00,3469.65
             1182.84,3463.65 1175.19,3445.96 1176.18,3432.00
             1176.18,3432.00 1179.71,3406.00 1179.71,3406.00
             1179.71,3406.00 1181.28,3387.00 1181.28,3387.00
             1182.50,3376.78 1184.35,3361.08 1182.54,3351.00
             1181.86,3347.24 1178.05,3335.73 1176.55,3332.00
             1175.54,3329.50 1173.33,3325.74 1173.64,3323.09
             1173.91,3320.71 1176.60,3317.76 1178.30,3316.18
             1179.55,3315.02 1180.47,3314.32 1182.01,3313.57
             1194.72,3307.38 1195.33,3320.16 1207.00,3324.34
             1221.15,3329.41 1238.98,3315.11 1244.66,3303.00
             1248.89,3294.04 1246.74,3284.20 1244.66,3275.00
             1239.88,3254.02 1235.60,3247.81 1229.33,3229.00
             1226.89,3221.67 1223.59,3213.82 1224.04,3206.00
             1224.80,3192.93 1243.05,3199.84 1245.08,3189.96
             1245.56,3187.59 1243.77,3184.11 1242.74,3182.00
             1239.83,3176.01 1231.67,3165.90 1232.25,3160.00
             1232.69,3155.59 1239.30,3146.28 1241.57,3141.00
             1246.15,3130.38 1250.86,3111.53 1251.00,3100.00
             1251.09,3091.86 1251.10,3086.10 1249.54,3078.00
             1247.01,3064.82 1237.90,3045.27 1227.91,3036.32
             1223.18,3032.09 1216.98,3029.02 1211.00,3027.00
             1194.44,3021.42 1183.86,3023.63 1170.00,3034.24
             1164.45,3038.48 1159.98,3042.83 1156.53,3049.00
             1150.70,3059.41 1150.87,3075.33 1151.00,3087.00
             1151.24,3106.95 1165.15,3131.68 1177.21,3147.00
             1182.53,3153.76 1184.09,3155.06 1190.00,3161.00
             1192.43,3163.45 1195.94,3166.51 1196.65,3170.00
             1197.39,3173.72 1191.51,3188.47 1190.00,3193.00
             1194.21,3194.38 1209.44,3197.33 1211.40,3199.51
             1213.39,3201.72 1212.89,3205.23 1213.09,3208.00
             1213.09,3208.00 1215.16,3223.00 1215.16,3223.00
             1215.16,3223.00 1227.69,3260.00 1227.69,3260.00
             1230.91,3269.05 1233.88,3275.04 1234.00,3285.00
             1234.06,3290.30 1234.16,3294.13 1231.60,3299.00
             1226.52,3308.66 1215.00,3311.75 1206.02,3305.35
             1200.73,3301.59 1199.28,3296.69 1197.00,3291.00
             1192.08,3295.59 1191.74,3299.68 1187.90,3301.26
             1182.39,3303.52 1167.80,3297.91 1165.02,3292.90
             1163.84,3290.77 1163.96,3287.40 1164.01,3285.00
             1164.01,3285.00 1166.00,3258.00 1166.00,3258.00
             1166.28,3233.56 1157.62,3196.37 1140.83,3178.01
             1135.08,3171.73 1123.31,3163.17 1115.00,3160.93
             1100.50,3157.01 1081.60,3165.28 1072.92,3177.00
             1063.21,3190.12 1061.82,3202.32 1062.00,3218.00
             1062.32,3244.98 1081.66,3279.33 1103.00,3295.24
             1108.27,3299.17 1114.91,3303.06 1121.00,3305.55
             1124.50,3306.98 1130.89,3308.70 1133.35,3311.41
             1138.18,3316.74 1132.46,3329.76 1137.74,3335.64
             1141.77,3340.14 1150.56,3331.64 1158.00,3332.72
             1166.92,3334.01 1170.91,3353.50 1171.00,3361.00
             1171.00,3361.00 1171.00,3372.00 1171.00,3372.00
             1171.00,3372.00 1165.91,3422.00 1165.91,3422.00
             1165.91,3422.00 1165.00,3432.00 1165.00,3432.00
             1164.74,3454.68 1172.98,3486.34 1201.00,3486.99
             1204.01,3487.06 1207.09,3487.05 1210.00,3486.21
             1219.64,3483.44 1233.40,3470.99 1237.68,3462.00
             1242.26,3452.34 1240.88,3445.32 1244.43,3443.04
             1247.58,3441.01 1253.71,3444.54 1257.00,3445.64
             1265.58,3448.53 1274.09,3449.62 1283.00,3447.91
             1292.78,3446.02 1300.51,3439.32 1305.00,3437.43
             1308.24,3436.07 1311.87,3436.28 1313.17,3440.11
             1314.94,3445.31 1307.51,3455.64 1304.81,3460.00
             1304.81,3460.00 1274.05,3509.00 1274.05,3509.00
             1257.35,3535.62 1242.51,3559.26 1229.31,3588.00
             1214.79,3619.62 1204.20,3656.71 1198.25,3691.00
             1198.25,3691.00 1191.85,3742.00 1191.85,3742.00
             1191.85,3742.00 1188.00,3778.00 1188.00,3778.00
             1188.00,3778.00 1187.00,3794.00 1187.00,3794.00
             1186.93,3836.08 1190.65,3878.16 1194.83,3920.00
             1198.79,3959.63 1203.73,3999.46 1214.15,4038.00
             1222.21,4067.80 1237.14,4123.11 1248.42,4150.00
             1248.42,4150.00 1267.31,4192.00 1267.31,4192.00
             1271.34,4200.78 1275.20,4204.86 1274.98,4215.00
             1274.69,4228.96 1262.00,4232.14 1251.00,4235.66
             1228.06,4242.99 1196.04,4248.72 1172.00,4249.00
             1172.00,4249.00 1157.00,4250.00 1157.00,4250.00
             1157.00,4250.00 1046.00,4250.00 1046.00,4250.00
             1046.00,4250.00 1031.00,4249.00 1031.00,4249.00
             1031.00,4249.00 1026.00,4249.00 1026.00,4249.00
             1015.77,4248.88 995.23,4246.12 985.00,4244.00
             979.75,4242.91 969.28,4240.22 965.01,4237.30
             955.32,4230.67 944.01,4205.45 940.34,4194.00
             926.90,4152.05 928.93,4106.46 929.00,4063.00
             929.00,4063.00 930.00,4043.00 930.00,4043.00
             930.00,4043.00 930.91,4031.00 930.91,4031.00
             930.91,4031.00 935.72,3975.00 935.72,3975.00
             935.72,3975.00 940.70,3939.00 940.70,3939.00
             943.01,3933.49 949.50,3928.06 953.54,3923.72
             953.54,3923.72 964.31,3909.00 964.31,3909.00
             985.98,3875.74 996.61,3856.76 1002.13,3817.00
             1003.01,3810.67 1003.99,3804.40 1004.00,3798.00
             1004.00,3798.00 1004.00,3776.00 1004.00,3776.00
             1004.00,3776.00 1001.17,3742.00 1001.17,3742.00
             1000.13,3731.32 999.53,3720.51 997.11,3710.00
             997.11,3710.00 985.76,3666.00 985.76,3666.00
             984.24,3659.88 981.23,3656.46 981.28,3652.00
             981.28,3652.00 985.58,3633.00 985.58,3633.00
             985.58,3633.00 997.35,3588.00 997.35,3588.00
             1001.00,3577.07 1010.18,3554.67 1019.09,3547.79
             1025.55,3542.80 1032.34,3542.43 1040.00,3540.79
             1045.96,3539.51 1053.31,3537.05 1059.00,3534.80
             1088.45,3523.13 1105.36,3497.55 1105.00,3466.00
             1104.87,3454.82 1098.24,3439.97 1093.25,3430.00
             1084.17,3411.89 1072.20,3399.35 1059.43,3384.00
             1048.77,3371.19 1038.02,3356.29 1029.45,3342.00
             1010.25,3310.00 996.89,3267.21 993.92,3230.00
             993.92,3230.00 993.00,3220.00 993.00,3220.00
             993.00,3220.00 992.00,3201.00 992.00,3201.00
             992.00,3201.00 992.00,3186.00 992.00,3186.00
             992.00,3186.00 993.00,3168.00 993.00,3168.00
             993.28,3144.81 1005.05,3103.02 1013.42,3081.00
             1013.42,3081.00 1024.86,3054.00 1024.86,3054.00
             1025.92,3051.67 1029.84,3045.58 1029.58,3043.58
             1029.28,3041.20 1025.63,3037.69 1023.99,3036.00
             1017.54,3029.38 1013.45,3025.64 1006.00,3020.15
             979.72,3000.80 949.08,2987.62 916.00,2988.00
             907.79,2988.10 899.91,2990.14 892.00,2992.13
             863.79,2999.21 835.09,3016.67 818.67,3041.00
             810.35,3053.34 802.49,3074.10 807.53,3088.99
             809.28,3094.15 813.61,3095.96 818.00,3098.60
             825.77,3103.27 832.78,3107.69 840.00,3113.23
             861.53,3129.77 880.33,3150.36 896.63,3172.00
             921.07,3204.46 931.95,3223.95 947.85,3261.00
             947.85,3261.00 961.28,3296.00 961.28,3296.00
             961.28,3296.00 971.20,3338.00 971.20,3338.00
             974.53,3354.67 978.97,3381.36 979.00,3398.00
             979.00,3398.00 979.00,3435.00 979.00,3435.00
             979.00,3435.00 978.09,3445.00 978.09,3445.00
             976.34,3470.54 972.44,3490.90 963.42,3515.00
             960.45,3522.96 957.38,3532.70 953.12,3540.00
             949.87,3545.58 942.36,3554.99 935.46,3548.69
             935.46,3548.69 924.12,3533.00 924.12,3533.00
             918.18,3524.94 911.54,3517.42 904.83,3510.00
             876.87,3479.10 843.19,3450.90 803.00,3437.67
             778.95,3429.76 748.01,3429.54 739.75,3459.00
             738.54,3463.28 737.86,3467.55 738.04,3472.00
             738.49,3483.48 744.43,3495.60 750.67,3505.00
             762.04,3522.13 777.10,3538.02 795.00,3548.38
             803.34,3553.21 820.47,3559.27 830.00,3557.00
             819.35,3552.24 796.91,3534.76 789.44,3526.00
             783.39,3518.90 780.16,3513.65 776.81,3505.00
             773.97,3497.67 771.25,3486.71 773.85,3479.00
             777.91,3467.00 791.69,3463.60 803.00,3464.04
             832.98,3465.21 863.33,3496.03 881.95,3517.00
             900.15,3537.51 913.03,3558.30 926.42,3582.00
             940.98,3607.76 954.80,3634.65 963.65,3663.00
             968.76,3679.35 971.73,3696.15 974.44,3713.00
             974.44,3713.00 978.05,3727.09 978.05,3727.09
             978.05,3727.09 981.00,3753.00 981.00,3753.00
             981.00,3753.00 982.00,3772.00 982.00,3772.00
             982.26,3794.94 980.29,3822.07 973.25,3844.00
             970.14,3853.70 963.65,3865.89 958.88,3875.00
             958.88,3875.00 955.02,3884.00 955.02,3884.00
             949.01,3895.11 935.66,3907.85 924.00,3912.96
             913.32,3917.64 902.43,3918.13 891.00,3918.00
             891.00,3918.00 874.00,3916.13 874.00,3916.13
             859.42,3914.10 846.39,3911.03 833.00,3904.68
             802.81,3890.37 773.23,3858.82 752.60,3833.00
             735.62,3811.74 717.88,3785.40 710.43,3759.00
             704.89,3739.39 704.77,3721.10 705.00,3701.00
             705.23,3681.82 714.71,3667.17 721.00,3650.00
             699.97,3645.20 669.67,3624.53 652.00,3611.86
             627.82,3594.52 604.54,3575.01 588.00,3550.00
             566.63,3517.68 554.42,3476.27 549.85,3438.00
             549.85,3438.00 548.00,3415.00 548.00,3415.00
             548.00,3415.00 547.04,3401.00 547.04,3401.00
             547.04,3401.00 548.00,3390.00 548.00,3390.00
             548.27,3366.74 554.02,3346.46 562.60,3325.00
             578.01,3286.47 596.07,3259.00 627.00,3230.93
             627.00,3230.93 646.00,3213.96 646.00,3213.96
             653.62,3206.67 661.51,3197.88 671.00,3193.00
             664.19,3182.27 653.54,3175.04 645.90,3165.00
             645.90,3165.00 630.95,3142.00 630.95,3142.00
             613.35,3113.88 604.22,3096.62 601.91,3063.00
             601.91,3063.00 601.00,3053.00 601.00,3053.00
             600.85,3039.74 603.02,3012.45 606.72,3000.00
             611.75,2983.06 620.93,2967.61 630.67,2953.00
             639.62,2939.57 651.38,2924.16 663.00,2913.04
             682.46,2894.42 717.41,2872.85 743.00,2864.08
             768.15,2855.45 794.65,2853.70 821.00,2854.00
             821.00,2854.00 831.00,2854.91 831.00,2854.91
             842.08,2855.67 853.05,2856.24 864.00,2858.45
             892.83,2864.25 917.10,2875.45 944.00,2886.40
             981.96,2901.85 1011.20,2915.25 1041.00,2945.00
             1050.02,2954.01 1060.75,2964.24 1066.00,2976.00
             1066.00,2976.00 1068.00,2976.00 1068.00,2976.00
             1070.94,2969.11 1086.18,2950.48 1091.58,2943.00
             1104.17,2925.56 1119.48,2901.88 1129.69,2883.00
             1146.19,2852.50 1158.81,2820.29 1164.57,2786.00
             1167.71,2767.29 1166.97,2752.67 1167.00,2734.00
             1167.00,2734.00 1168.00,2719.00 1168.00,2719.00
             1168.00,2719.00 1168.00,2705.00 1168.00,2705.00
             1168.00,2705.00 1169.00,2687.00 1169.00,2687.00 Z
           M 1635.00,2969.00
           C 1630.41,3003.63 1613.69,3031.21 1596.72,3061.00
             1596.72,3061.00 1583.55,3084.00 1583.55,3084.00
             1581.67,3087.11 1577.34,3092.89 1576.52,3096.00
             1575.61,3099.46 1577.20,3104.38 1577.72,3108.00
             1577.72,3108.00 1580.04,3134.00 1580.04,3134.00
             1580.04,3134.00 1580.04,3147.00 1580.04,3147.00
             1580.35,3150.87 1581.15,3152.71 1580.91,3157.00
             1580.91,3157.00 1580.00,3169.00 1580.00,3169.00
             1580.00,3169.00 1577.09,3231.00 1577.09,3231.00
             1573.29,3286.51 1566.54,3343.15 1544.99,3395.00
             1535.96,3416.73 1519.96,3447.03 1506.26,3466.00
             1494.87,3481.76 1481.52,3495.48 1468.72,3510.00
             1468.72,3510.00 1449.00,3531.00 1449.00,3531.00
             1442.89,3537.14 1431.24,3548.45 1429.20,3557.00
             1428.89,3559.28 1428.98,3563.55 1429.20,3566.00
             1429.13,3576.95 1435.92,3602.99 1438.58,3615.00
             1438.58,3615.00 1453.43,3678.00 1453.43,3678.00
             1453.43,3678.00 1469.00,3726.00 1469.00,3726.00
             1469.00,3726.00 1486.67,3784.00 1486.67,3784.00
             1503.60,3835.91 1531.78,3911.38 1553.86,3961.00
             1553.86,3961.00 1578.69,4015.00 1578.69,4015.00
             1578.69,4015.00 1597.31,4057.00 1597.31,4057.00
             1603.65,4070.84 1618.22,4101.84 1619.70,4116.00
             1621.00,4128.49 1603.30,4136.70 1594.00,4141.69
             1573.84,4152.52 1544.72,4159.44 1522.00,4162.15
             1522.00,4162.15 1493.00,4165.00 1493.00,4165.00
             1493.00,4165.00 1454.00,4165.00 1454.00,4165.00
             1454.00,4165.00 1444.00,4164.09 1444.00,4164.09
             1421.05,4162.41 1398.16,4159.07 1376.00,4152.71
             1367.07,4150.15 1351.85,4145.07 1345.21,4138.67
             1338.74,4132.44 1330.11,4110.11 1327.00,4101.00
             1327.00,4101.00 1302.28,4022.00 1302.28,4022.00
             1286.60,3969.73 1280.11,3927.61 1269.60,3875.00
             1263.30,3843.45 1256.48,3811.91 1252.28,3780.00
             1252.28,3780.00 1247.17,3737.00 1247.17,3737.00
             1247.17,3737.00 1244.83,3701.00 1244.83,3701.00
             1244.83,3701.00 1240.91,3664.00 1240.91,3664.00
             1240.91,3664.00 1240.00,3654.00 1240.00,3654.00
             1240.00,3654.00 1239.00,3635.00 1239.00,3635.00
             1239.00,3635.00 1239.00,3609.00 1239.00,3609.00
             1239.03,3591.51 1243.65,3589.31 1253.63,3576.00
             1253.63,3576.00 1272.00,3551.00 1272.00,3551.00
             1298.94,3513.21 1334.67,3463.46 1357.58,3424.00
             1357.58,3424.00 1384.69,3377.00 1384.69,3377.00
             1397.30,3353.68 1421.47,3299.02 1430.00,3274.00
             1436.58,3254.68 1443.17,3234.94 1447.58,3215.00
             1447.58,3215.00 1450.72,3198.00 1450.72,3198.00
             1451.24,3193.92 1451.18,3188.71 1453.16,3185.01
             1455.02,3181.56 1460.82,3177.19 1464.00,3174.61
             1464.00,3174.61 1495.00,3151.84 1495.00,3151.84
             1518.82,3131.15 1540.60,3102.77 1555.69,3075.00
             1571.78,3045.39 1584.77,3013.56 1596.58,2982.00
             1596.58,2982.00 1606.67,2953.00 1606.67,2953.00
             1607.70,2949.92 1610.95,2940.36 1612.70,2938.23
             1615.31,2935.03 1623.04,2933.81 1627.00,2934.34
             1627.00,2934.34 1646.00,2939.63 1646.00,2939.63
             1646.00,2939.63 1668.00,2944.39 1668.00,2944.39
             1709.24,2952.12 1752.03,2954.16 1793.00,2943.87
             1805.34,2940.78 1829.65,2935.12 1835.43,2923.00
             1837.59,2918.47 1837.06,2909.23 1837.00,2904.00
             1836.80,2887.18 1825.12,2854.84 1818.28,2839.00
             1795.38,2785.91 1755.40,2737.23 1718.59,2693.00
             1718.59,2693.00 1671.01,2640.00 1671.01,2640.00
             1667.66,2636.53 1655.70,2624.84 1656.95,2620.15
             1657.78,2617.02 1661.40,2616.92 1664.00,2617.33
             1668.55,2618.05 1678.44,2623.47 1683.00,2625.75
             1708.66,2638.61 1730.85,2657.03 1752.00,2676.17
             1752.00,2676.17 1772.09,2697.00 1772.09,2697.00
             1808.40,2735.98 1825.54,2761.58 1849.25,2809.00
             1864.53,2839.57 1877.40,2872.27 1877.00,2907.00
             1876.60,2940.92 1848.85,2956.22 1821.00,2966.81
             1799.44,2975.00 1778.98,2979.41 1756.00,2981.09
             1756.00,2981.09 1744.00,2982.00 1744.00,2982.00
             1744.00,2982.00 1728.00,2982.00 1728.00,2982.00
             1728.00,2982.00 1714.00,2981.00 1714.00,2981.00
             1692.58,2980.75 1654.29,2977.46 1635.00,2969.00 Z
           M 1681.00,2635.00
           C 1681.00,2635.00 1680.00,2635.00 1680.00,2635.00
             1680.00,2635.00 1681.00,2636.00 1681.00,2636.00
             1681.00,2636.00 1681.00,2635.00 1681.00,2635.00 Z
           M 1682.00,2636.00
           C 1682.00,2636.00 1681.00,2636.00 1681.00,2636.00
             1681.00,2636.00 1682.00,2637.00 1682.00,2637.00
             1682.00,2637.00 1682.00,2636.00 1682.00,2636.00 Z
           M 512.00,2882.00
           C 508.25,2875.74 503.66,2867.78 501.06,2861.00
             495.99,2847.75 491.84,2816.40 492.00,2802.00
             492.39,2769.08 505.79,2739.39 526.00,2714.00
             531.28,2707.37 536.70,2700.86 543.00,2695.17
             561.09,2678.83 594.61,2660.27 618.00,2653.02
             629.72,2649.39 650.75,2645.34 663.00,2644.04
             663.00,2644.04 672.00,2644.04 672.00,2644.04
             672.00,2644.04 683.00,2643.04 683.00,2643.04
             683.00,2643.04 695.00,2644.00 695.00,2644.00
             695.00,2644.00 699.00,2644.00 699.00,2644.00
             699.00,2644.00 711.00,2644.96 711.00,2644.96
             770.66,2647.56 817.12,2663.02 871.00,2687.69
             908.61,2704.92 949.70,2727.80 982.00,2753.60
             1007.81,2774.22 1027.64,2795.10 1048.00,2821.00
             1058.22,2834.00 1072.90,2854.89 1079.14,2870.00
             1079.14,2870.00 1084.40,2887.00 1084.40,2887.00
             1085.46,2890.20 1087.15,2892.43 1086.57,2896.00
             1085.88,2900.15 1079.52,2909.11 1077.05,2913.00
             1074.12,2917.64 1070.82,2925.97 1064.00,2924.53
             1059.44,2923.56 1052.60,2915.44 1049.00,2912.09
             1041.62,2905.21 1031.58,2897.79 1023.00,2892.42
             991.20,2872.52 957.65,2858.74 922.00,2847.34
             900.00,2840.31 877.00,2835.36 854.00,2833.04
             854.00,2833.04 844.00,2833.04 844.00,2833.04
             844.00,2833.04 827.00,2832.00 827.00,2832.00
             827.00,2832.00 817.00,2832.96 817.00,2832.96
             817.00,2832.96 804.00,2832.96 804.00,2832.96
             804.00,2832.96 775.00,2836.42 775.00,2836.42
             751.55,2840.65 729.15,2848.61 707.00,2857.19
             680.19,2867.58 655.48,2881.42 633.00,2899.40
             633.00,2899.40 620.17,2910.17 620.17,2910.17
             616.46,2913.88 611.37,2920.67 608.13,2925.00
             591.56,2947.12 580.18,2968.23 573.12,2995.00
             569.23,3009.73 566.30,3023.83 564.83,3039.00
             564.53,3042.16 563.94,3043.58 564.18,3047.00
             565.76,3069.14 576.44,3100.81 587.43,3120.00
             587.43,3120.00 615.14,3161.00 615.14,3161.00
             623.02,3171.99 628.52,3179.67 639.00,3188.70
             642.24,3191.50 648.03,3194.73 646.22,3199.91
             644.74,3204.13 633.82,3210.03 630.04,3213.32
             630.04,3213.32 621.96,3221.33 621.96,3221.33
             621.96,3221.33 608.00,3231.50 608.00,3231.50
             608.00,3231.50 587.00,3250.00 587.00,3250.00
             567.96,3269.05 541.82,3300.19 529.32,3324.00
             517.51,3346.50 510.85,3370.89 507.85,3396.00
             507.85,3396.00 506.00,3414.00 506.00,3414.00
             506.00,3414.00 506.00,3433.00 506.00,3433.00
             506.02,3446.67 510.78,3468.67 514.58,3482.00
             527.77,3528.28 550.27,3565.78 583.09,3601.00
             601.68,3620.95 625.30,3638.18 649.00,3651.58
             656.58,3655.86 664.02,3658.69 672.00,3662.01
             675.55,3663.49 680.84,3665.53 682.67,3669.10
             684.97,3673.60 681.01,3683.14 679.73,3688.00
             677.18,3697.68 676.89,3710.93 677.00,3721.00
             677.00,3721.00 677.91,3731.00 677.91,3731.00
             679.94,3760.62 684.94,3790.15 698.37,3817.00
             713.70,3847.65 747.12,3880.47 776.00,3898.58
             795.15,3910.59 815.36,3922.75 837.00,3929.66
             843.09,3931.60 847.77,3932.50 854.00,3933.59
             857.43,3934.19 861.02,3934.63 862.79,3938.11
             864.43,3941.34 862.61,3945.03 861.22,3948.00
             857.16,3956.68 854.75,3961.97 847.99,3969.00
             847.99,3969.00 835.00,3982.56 835.00,3982.56
             820.22,3995.09 799.80,4005.91 780.00,4006.00
             780.00,4006.00 771.00,4006.00 771.00,4006.00
             771.00,4006.00 760.00,4005.00 760.00,4005.00
             766.26,4014.73 768.01,4021.56 768.00,4033.00
             767.99,4043.66 766.23,4052.82 760.53,4062.00
             747.67,4082.74 717.54,4095.82 694.00,4098.71
             674.33,4101.14 649.66,4098.03 630.00,4094.75
             573.85,4085.40 520.02,4063.03 477.00,4025.15
             448.84,4000.37 423.55,3963.98 424.00,3925.00
             424.11,3916.08 427.47,3906.41 434.09,3900.19
             437.01,3897.45 441.80,3894.64 445.78,3897.02
             449.40,3899.20 449.91,3906.14 450.90,3910.00
             452.89,3917.83 456.61,3925.15 460.81,3932.00
             464.80,3938.51 469.25,3944.26 474.29,3950.00
             478.28,3954.55 481.38,3957.27 486.00,3961.08
             499.83,3972.47 528.78,3986.97 547.00,3980.45
             552.58,3978.46 556.95,3974.51 560.67,3970.00
             563.34,3966.77 565.48,3962.85 567.13,3959.00
             568.55,3955.69 570.19,3950.55 570.70,3947.00
             573.32,3928.87 562.69,3918.77 548.00,3910.70
             548.00,3910.70 501.00,3886.69 501.00,3886.69
             491.35,3881.46 476.84,3871.50 469.00,3863.96
             445.99,3841.86 431.63,3807.94 432.00,3776.00
             432.32,3749.20 447.26,3712.55 471.00,3698.47
             476.92,3694.96 486.10,3692.33 493.00,3692.34
             505.74,3692.35 522.11,3701.27 527.48,3713.00
             529.97,3718.44 530.06,3722.18 530.00,3728.00
             529.82,3743.11 520.19,3754.31 508.00,3762.30
             508.00,3762.30 493.00,3772.00 493.00,3772.00
             505.94,3773.82 507.23,3776.47 521.00,3772.57
             551.53,3763.92 562.13,3727.77 548.73,3701.00
             537.35,3678.25 514.05,3664.71 489.00,3665.00
             473.84,3665.18 452.70,3673.15 442.09,3684.04
             433.15,3693.21 427.40,3704.67 421.75,3716.00
             414.80,3729.94 408.98,3745.30 408.09,3761.00
             407.92,3764.05 409.21,3774.83 409.88,3778.00
             410.70,3781.81 411.91,3786.22 409.11,3789.57
             402.85,3797.05 384.05,3788.32 377.00,3785.28
             367.44,3781.16 355.79,3776.36 347.00,3770.94
             332.36,3761.90 326.23,3755.48 314.00,3744.09
             308.59,3739.05 304.38,3736.00 299.46,3730.00
             299.46,3730.00 290.98,3718.00 290.98,3718.00
             280.04,3702.13 272.11,3689.39 265.69,3671.00
             248.89,3622.82 252.70,3560.90 268.67,3513.00
             278.57,3483.29 290.95,3458.49 312.17,3435.00
             321.80,3424.34 342.47,3408.04 355.00,3400.87
             355.00,3400.87 375.00,3391.00 375.00,3391.00
             367.75,3389.86 359.59,3385.55 353.00,3382.25
             342.45,3376.96 322.66,3364.75 313.00,3357.86
             287.95,3339.99 261.62,3314.03 245.05,3288.00
             228.34,3261.73 218.87,3231.35 212.80,3201.00
             210.32,3188.58 207.15,3167.42 207.00,3155.00
             207.00,3155.00 207.00,3129.00 207.00,3129.00
             207.02,3115.80 209.99,3099.03 212.60,3086.00
             218.50,3056.52 227.03,3030.01 242.45,3004.00
             263.71,2968.16 298.48,2937.72 334.00,2916.40
             352.71,2905.17 365.84,2898.00 387.00,2891.72
             405.38,2886.26 427.88,2884.68 447.00,2882.83
             468.74,2880.73 490.30,2878.05 512.00,2882.00 Z" />
</svg>
