<?xml version="1.0" encoding="UTF-8" standalone="no"?>
<!DOCTYPE svg PUBLIC "-//W3C//DTD SVG 20010904//EN"
              "http://www.w3.org/TR/2001/REC-SVG-20010904/DTD/svg10.dtd">

<svg xmlns="http://www.w3.org/2000/svg"
     width="1199.29mm" height="1552.03mm"
     viewBox="0 0 3400 4400">
  <path id="ponk"
        fill="none" stroke="black" stroke-width="1"
        d="M 1064.00,1471.00
           C 1052.06,1470.00 1041.26,1464.08 1032.00,1456.79
             1022.56,1449.36 1012.74,1439.15 1007.87,1428.00
             1001.51,1413.43 1001.82,1391.85 1002.00,1376.00
             1002.27,1353.11 1013.07,1314.20 1022.15,1293.00
             1027.83,1279.73 1035.06,1265.42 1043.89,1254.00
             1046.79,1250.24 1052.68,1243.34 1057.00,1241.74
             1064.01,1238.67 1074.70,1240.69 1082.00,1241.74
             1107.43,1246.21 1128.54,1257.47 1148.00,1274.13
             1163.20,1287.15 1178.98,1302.69 1187.68,1321.00
             1196.32,1339.17 1204.95,1371.89 1208.58,1392.00
             1208.58,1392.00 1212.00,1418.00 1212.00,1418.00
             1243.15,1374.19 1290.27,1350.17 1340.00,1333.67
             1349.67,1330.46 1366.04,1326.05 1376.00,1324.95
             1380.21,1324.48 1387.30,1323.06 1389.40,1328.14
             1390.84,1331.62 1388.74,1335.92 1387.24,1339.00
             1387.24,1339.00 1376.22,1361.00 1376.22,1361.00
             1363.24,1388.02 1353.34,1410.67 1351.18,1441.00
             1350.96,1444.17 1351.48,1445.95 1351.85,1449.00
             1354.18,1468.46 1368.36,1487.23 1390.00,1482.49
             1416.64,1476.65 1437.33,1452.52 1441.00,1426.00
             1441.90,1419.47 1442.09,1414.50 1440.21,1408.00
             1438.67,1402.67 1435.34,1397.37 1432.00,1393.00
             1432.00,1413.21 1424.97,1437.01 1410.91,1452.00
             1402.24,1461.24 1385.51,1469.50 1377.09,1455.00
             1373.49,1448.81 1373.92,1439.95 1374.00,1433.00
             1374.22,1414.47 1388.85,1386.32 1399.00,1371.00
             1412.45,1350.71 1430.42,1334.87 1450.00,1320.71
             1465.85,1309.25 1477.66,1300.27 1496.00,1292.43
             1519.58,1282.34 1545.62,1279.71 1571.00,1280.00
             1596.29,1280.30 1616.84,1289.73 1635.00,1306.97
             1639.08,1310.84 1641.19,1312.19 1644.48,1317.00
             1656.09,1334.00 1661.97,1361.56 1662.00,1382.00
             1662.00,1382.00 1662.00,1404.00 1662.00,1404.00
             1661.97,1422.27 1655.40,1452.09 1650.42,1470.00
             1650.42,1470.00 1630.33,1536.00 1630.33,1536.00
             1626.02,1548.81 1621.64,1560.47 1619.73,1574.00
             1618.82,1580.47 1619.17,1587.97 1624.13,1592.86
             1632.02,1600.63 1646.11,1593.60 1654.00,1588.99
             1669.00,1580.23 1686.13,1566.79 1695.44,1552.00
             1695.44,1552.00 1703.75,1534.00 1703.75,1534.00
             1703.75,1534.00 1711.94,1516.00 1711.94,1516.00
             1713.01,1513.31 1713.97,1509.80 1717.11,1508.84
             1725.79,1506.20 1726.97,1522.81 1727.00,1528.00
             1727.07,1543.80 1726.40,1556.36 1723.58,1572.00
             1717.24,1607.07 1703.11,1631.78 1678.00,1657.00
             1667.65,1667.40 1656.65,1677.28 1643.00,1683.13
             1620.84,1692.62 1588.47,1694.87 1568.00,1680.21
             1561.72,1675.72 1555.87,1668.55 1551.81,1662.00
             1548.10,1656.00 1545.71,1650.83 1543.88,1644.00
             1540.35,1630.77 1538.85,1617.52 1537.00,1604.00
             1535.67,1594.31 1534.17,1583.89 1525.98,1577.39
             1520.91,1573.36 1515.13,1573.28 1509.00,1574.14
             1498.51,1575.60 1482.23,1583.61 1473.00,1589.01
             1450.89,1601.95 1426.84,1623.25 1410.61,1643.00
             1410.61,1643.00 1396.63,1662.00 1396.63,1662.00
             1388.72,1672.59 1375.56,1690.45 1370.00,1702.00
             1381.15,1704.62 1387.94,1712.95 1394.28,1722.00
             1401.41,1732.18 1409.13,1750.93 1412.57,1763.00
             1412.57,1763.00 1419.69,1789.00 1419.69,1789.00
             1422.15,1796.03 1423.60,1798.69 1427.40,1805.00
             1434.89,1817.42 1440.09,1821.82 1455.00,1822.00
             1466.12,1822.13 1473.61,1820.67 1484.00,1816.55
             1489.21,1814.48 1499.01,1809.24 1504.00,1809.14
             1515.84,1808.90 1525.13,1826.26 1528.25,1836.00
             1528.25,1836.00 1533.80,1862.00 1533.80,1862.00
             1536.23,1874.16 1538.98,1886.55 1539.00,1899.00
             1539.02,1913.97 1536.39,1936.74 1529.33,1950.00
             1525.33,1957.51 1513.85,1962.48 1506.00,1964.97
             1498.86,1967.24 1491.44,1968.12 1484.00,1968.68
             1480.86,1968.91 1479.05,1968.33 1476.00,1968.08
             1456.67,1966.54 1445.69,1958.92 1431.00,1947.00
             1433.29,1959.22 1449.73,1979.50 1460.00,1986.13
             1470.38,1992.84 1478.93,1991.74 1477.29,1999.00
             1476.02,2004.66 1466.18,2013.84 1462.00,2018.00
             1448.64,2031.29 1426.32,2048.38 1410.00,2057.99
             1389.81,2069.87 1366.78,2080.41 1344.00,2086.11
             1331.43,2089.25 1305.80,2092.98 1293.00,2093.00
             1293.00,2093.00 1268.00,2094.00 1268.00,2094.00
             1268.00,2094.00 1258.00,2093.04 1258.00,2093.04
             1258.00,2093.04 1245.00,2093.04 1245.00,2093.04
             1239.20,2092.93 1230.89,2091.40 1225.00,2090.41
             1222.28,2089.96 1218.42,2089.54 1216.11,2088.07
             1211.90,2085.39 1210.03,2076.75 1207.74,2072.00
             1202.52,2061.19 1197.32,2053.32 1189.74,2044.00
             1183.41,2036.22 1176.34,2028.93 1169.00,2022.09
             1164.85,2018.22 1159.01,2014.26 1156.65,2009.00
             1154.53,2004.29 1154.94,1996.24 1155.00,1991.00
             1155.17,1976.45 1160.38,1955.88 1165.00,1942.00
             1173.07,1917.77 1179.35,1901.43 1192.15,1879.00
             1200.49,1864.38 1211.38,1849.37 1226.00,1840.46
             1235.88,1834.44 1248.44,1831.28 1260.00,1831.01
             1292.05,1830.29 1314.88,1857.19 1333.39,1880.00
             1338.03,1885.72 1344.39,1895.86 1349.00,1900.00
             1349.00,1900.00 1345.52,1878.00 1345.52,1878.00
             1342.96,1868.03 1337.85,1859.27 1331.85,1851.00
             1320.23,1835.00 1306.54,1820.82 1289.00,1811.31
             1259.20,1795.15 1221.29,1795.48 1193.00,1814.75
             1185.80,1819.65 1176.51,1828.37 1172.31,1836.00
             1169.76,1840.63 1166.89,1852.07 1164.57,1853.93
             1159.13,1858.30 1148.64,1858.07 1142.00,1858.00
             1130.01,1857.86 1095.55,1851.78 1084.00,1848.00
             1098.78,1865.03 1108.04,1870.84 1128.00,1880.75
             1133.65,1883.56 1137.93,1885.36 1144.00,1887.14
             1146.46,1887.86 1150.63,1888.83 1151.92,1891.27
             1155.84,1898.70 1138.75,1899.83 1135.00,1900.28
             1120.36,1902.06 1095.19,1896.64 1081.00,1892.00
             1091.51,1905.89 1106.40,1915.90 1122.00,1923.22
             1127.13,1925.62 1132.60,1927.21 1138.00,1928.86
             1140.50,1929.63 1143.68,1930.51 1144.87,1933.13
             1146.34,1936.36 1143.45,1938.96 1140.96,1940.47
             1135.88,1943.55 1129.77,1943.99 1124.00,1944.00
             1102.95,1944.03 1092.97,1940.16 1074.00,1932.00
             1085.97,1943.97 1095.38,1953.37 1110.00,1962.39
             1115.51,1965.79 1121.11,1968.99 1127.00,1971.69
             1129.87,1973.01 1135.46,1975.11 1137.72,1976.96
             1142.04,1980.50 1141.67,1988.89 1136.78,1991.83
             1132.68,1994.29 1126.26,1991.72 1122.00,1990.63
             1112.18,1988.11 1099.06,1985.05 1089.00,1985.00
             1089.00,1985.00 1075.00,1985.91 1075.00,1985.91
             1053.38,1987.49 1031.76,1991.48 1013.00,2003.06
             1004.45,2008.34 997.71,2013.71 990.00,2020.08
             985.12,2024.11 980.83,2028.38 974.00,2026.35
             967.92,2024.55 960.35,2017.57 956.09,2013.00
             946.28,2002.48 932.28,1979.98 925.23,1967.00
             904.96,1929.70 892.87,1890.37 889.91,1848.00
             889.91,1848.00 889.00,1838.00 889.00,1838.00
             889.00,1838.00 888.00,1818.00 888.00,1818.00
             887.97,1795.91 888.33,1773.91 891.28,1752.00
             892.72,1741.34 896.67,1726.12 902.35,1717.02
             904.54,1713.51 909.59,1709.74 912.83,1714.43
             914.24,1716.47 914.00,1720.56 914.00,1723.00
             914.00,1723.00 914.00,1741.00 914.00,1741.00
             914.00,1741.00 914.91,1751.00 914.91,1751.00
             914.91,1751.00 917.28,1781.00 917.28,1781.00
             921.48,1814.64 935.35,1865.81 948.42,1897.00
             953.76,1909.72 961.84,1925.86 971.29,1935.91
             973.20,1937.95 976.94,1941.55 979.98,1941.10
             984.41,1940.45 989.86,1929.10 990.29,1925.00
             990.82,1919.94 985.76,1912.36 983.28,1908.00
             983.28,1908.00 965.26,1873.00 965.26,1873.00
             951.24,1844.03 935.02,1794.58 927.13,1763.00
             927.13,1763.00 919.28,1726.00 919.28,1726.00
             918.65,1721.50 917.38,1715.11 919.93,1711.11
             922.49,1707.10 925.92,1706.98 930.00,1708.47
             930.00,1708.47 954.00,1719.76 954.00,1719.76
             977.67,1731.40 991.12,1745.47 1005.98,1767.00
             1011.55,1775.08 1018.24,1785.25 1020.00,1795.00
             1023.77,1791.30 1026.10,1786.39 1029.00,1782.00
             1033.44,1775.30 1038.48,1768.81 1044.04,1763.00
             1074.68,1730.96 1113.61,1702.65 1156.00,1688.51
             1178.18,1681.12 1201.77,1677.42 1225.00,1675.17
             1234.71,1674.23 1249.44,1674.51 1258.00,1672.00
             1258.00,1672.00 1228.00,1663.42 1228.00,1663.42
             1198.37,1658.07 1174.50,1659.72 1145.00,1664.27
             1133.53,1666.04 1120.01,1669.65 1109.00,1673.33
             1101.97,1675.68 1094.48,1679.85 1087.00,1678.54
             1076.19,1676.64 1066.21,1669.15 1058.00,1662.25
             1036.83,1644.46 1027.78,1616.77 1025.91,1590.00
             1025.91,1590.00 1025.18,1583.00 1025.18,1583.00
             1025.18,1583.00 1025.91,1576.00 1025.91,1576.00
             1027.32,1555.91 1033.31,1536.57 1041.01,1518.00
             1041.01,1518.00 1057.25,1485.00 1057.25,1485.00
             1059.60,1480.34 1062.53,1476.03 1064.00,1471.00 Z
           M 848.00,1612.86
           C 844.33,1601.89 843.07,1589.59 841.84,1578.00
             839.48,1555.98 837.90,1534.17 838.00,1512.00
             838.00,1512.00 839.00,1493.00 839.00,1493.00
             839.00,1493.00 843.75,1453.00 843.75,1453.00
             852.19,1402.46 871.97,1355.47 904.92,1316.00
             920.40,1297.46 945.30,1272.45 967.00,1261.76
             973.07,1258.77 988.41,1252.96 994.89,1255.74
             998.82,1257.42 999.30,1261.31 998.15,1265.00
             998.15,1265.00 987.26,1285.00 987.26,1285.00
             987.26,1285.00 979.14,1303.00 979.14,1303.00
             979.14,1303.00 969.08,1327.00 969.08,1327.00
             964.43,1340.55 960.57,1367.33 959.17,1382.00
             958.53,1388.69 959.46,1391.84 959.91,1398.00
             961.78,1423.60 968.54,1449.50 986.17,1469.00
             995.92,1479.78 1004.65,1484.19 1017.00,1490.78
             1022.79,1493.87 1027.56,1497.70 1026.63,1505.00
             1025.98,1510.13 1015.79,1528.49 1013.00,1535.00
             1004.29,1555.33 997.90,1576.70 998.00,1599.00
             998.15,1630.32 1010.97,1662.10 1035.00,1682.70
             1044.46,1690.81 1053.49,1694.62 1056.94,1697.53
             1060.22,1700.29 1062.20,1703.88 1059.40,1707.82
             1057.64,1710.30 1049.91,1715.08 1047.00,1717.00
             1036.58,1723.87 1029.72,1727.48 1020.00,1736.05
             1016.33,1739.29 1011.39,1744.16 1006.00,1742.25
             1001.12,1740.51 992.97,1728.47 989.40,1724.00
             976.36,1707.68 971.09,1702.21 955.00,1688.75
             945.33,1680.66 931.02,1668.71 919.00,1665.04
             911.21,1662.66 905.32,1661.59 899.18,1668.05
             889.65,1678.09 879.23,1705.30 875.29,1719.00
             867.04,1747.74 863.26,1778.23 861.96,1808.00
             861.96,1808.00 861.00,1819.00 861.00,1819.00
             860.85,1832.12 862.60,1845.08 864.75,1858.00
             864.75,1858.00 868.15,1880.00 868.15,1880.00
             869.68,1892.79 870.54,1905.11 855.00,1908.96
             851.17,1909.91 847.92,1910.07 844.00,1909.99
             828.17,1909.63 813.79,1901.53 801.00,1893.00
             787.11,1883.75 780.16,1879.53 770.69,1865.00
             765.97,1857.74 763.10,1852.23 760.35,1844.00
             759.57,1841.63 758.27,1835.10 756.44,1833.81
             753.99,1832.08 747.66,1835.75 745.00,1836.80
             736.88,1839.99 725.73,1842.18 717.00,1841.99
             703.43,1841.68 690.81,1836.59 679.00,1830.29
             670.64,1825.83 659.78,1818.51 653.00,1811.96
             646.92,1806.08 642.89,1800.21 638.60,1793.00
             626.04,1771.88 623.01,1752.85 633.31,1730.00
             639.79,1715.64 653.44,1697.00 663.73,1685.00
             697.98,1645.04 737.57,1620.23 790.00,1612.86
             807.90,1610.17 830.51,1607.94 848.00,1612.86 Z
           M 1311.00,2173.00
           C 1311.00,2173.00 1344.43,2223.00 1344.43,2223.00
             1361.61,2247.05 1381.24,2269.69 1400.58,2292.00
             1409.75,2302.59 1419.35,2313.14 1430.00,2322.27
             1432.47,2324.38 1439.19,2330.73 1442.00,2331.33
             1445.50,2332.08 1450.44,2327.97 1453.00,2325.91
             1453.00,2325.91 1478.00,2305.57 1478.00,2305.57
             1478.00,2305.57 1507.00,2279.09 1507.00,2279.09
             1531.43,2256.33 1555.34,2233.46 1578.09,2209.00
             1651.27,2130.32 1714.10,2042.33 1774.98,1954.00
             1774.98,1954.00 1809.94,1900.00 1809.94,1900.00
             1809.94,1900.00 1817.08,1888.00 1817.08,1888.00
             1817.08,1888.00 1835.00,1863.00 1835.00,1863.00
             1850.98,1840.58 1879.08,1798.53 1892.14,1775.00
             1892.14,1775.00 1909.42,1744.00 1909.42,1744.00
             1912.76,1738.66 1917.49,1731.69 1923.00,1728.70
             1930.07,1724.48 1938.82,1725.84 1946.00,1728.70
             1960.34,1734.93 1972.21,1748.98 1981.58,1761.00
             1990.43,1772.36 2005.89,1795.41 2012.69,1808.00
             2012.69,1808.00 2022.42,1830.00 2022.42,1830.00
             2022.42,1830.00 2029.95,1848.00 2029.95,1848.00
             2038.05,1870.11 2044.27,1899.45 2044.00,1923.00
             2043.75,1944.03 2032.58,1971.33 2023.25,1990.00
             2006.80,2022.90 1985.07,2057.01 1963.71,2087.00
             1924.01,2142.72 1873.59,2200.90 1826.91,2251.00
             1826.91,2251.00 1786.04,2293.00 1786.04,2293.00
             1786.04,2293.00 1706.00,2374.99 1706.00,2374.99
             1706.00,2374.99 1696.00,2384.04 1696.00,2384.04
             1696.00,2384.04 1646.00,2431.09 1646.00,2431.09
             1627.42,2448.37 1608.31,2464.89 1588.00,2480.13
             1588.00,2480.13 1568.00,2495.13 1568.00,2495.13
             1565.63,2496.90 1560.09,2500.70 1558.78,2503.09
             1557.06,2506.23 1561.15,2516.10 1562.13,2520.00
             1564.50,2529.49 1569.58,2550.89 1567.47,2560.00
             1566.01,2566.31 1562.60,2569.62 1556.00,2569.87
             1556.00,2569.87 1520.00,2567.04 1520.00,2567.04
             1520.00,2567.04 1507.00,2567.04 1507.00,2567.04
             1507.00,2567.04 1495.00,2568.00 1495.00,2568.00
             1495.00,2568.00 1489.00,2568.00 1489.00,2568.00
             1489.00,2568.00 1465.00,2569.91 1465.00,2569.91
             1465.00,2569.91 1419.00,2573.17 1419.00,2573.17
             1419.00,2573.17 1394.00,2576.00 1394.00,2576.00
             1387.76,2576.07 1381.79,2576.38 1376.00,2573.60
             1368.67,2570.08 1361.92,2561.32 1356.80,2555.00
             1345.23,2540.72 1335.11,2525.53 1325.32,2510.00
             1316.38,2495.81 1303.32,2474.21 1297.01,2459.00
             1295.26,2454.79 1290.19,2443.35 1295.31,2440.03
             1299.11,2437.56 1304.12,2441.14 1307.00,2443.47
             1307.00,2443.47 1330.99,2467.00 1330.99,2467.00
             1330.99,2467.00 1340.04,2477.00 1340.04,2477.00
             1363.36,2501.39 1397.04,2532.58 1433.00,2533.00
             1455.03,2533.25 1469.45,2528.16 1489.00,2518.24
             1494.03,2515.69 1504.65,2509.96 1505.58,2504.00
             1506.28,2499.55 1498.97,2486.24 1496.58,2482.00
             1496.58,2482.00 1466.19,2432.00 1466.19,2432.00
             1466.19,2432.00 1430.42,2381.00 1430.42,2381.00
             1407.28,2348.95 1383.52,2317.51 1357.16,2288.00
             1344.09,2273.35 1316.63,2242.41 1303.00,2230.58
             1303.00,2230.58 1280.00,2209.17 1280.00,2209.17
             1280.00,2209.17 1246.00,2179.92 1246.00,2179.92
             1241.19,2175.93 1227.44,2167.36 1227.33,2161.00
             1227.20,2153.04 1236.17,2152.33 1242.00,2151.42
             1258.80,2148.81 1277.85,2144.60 1294.00,2139.33
             1317.01,2131.83 1357.10,2115.99 1378.00,2104.69
             1399.95,2092.82 1423.12,2076.28 1443.00,2061.12
             1457.88,2049.77 1470.87,2036.28 1484.00,2023.00
             1486.57,2020.39 1496.14,2008.31 1498.18,2007.66
             1501.44,2006.60 1504.10,2009.28 1505.30,2012.02
             1507.71,2017.51 1505.70,2024.72 1503.55,2030.00
             1496.81,2046.56 1474.83,2072.28 1462.72,2086.00
             1457.97,2091.37 1455.87,2092.60 1451.00,2097.08
             1423.60,2122.29 1398.67,2133.45 1366.00,2149.26
             1355.73,2154.23 1320.32,2170.48 1311.00,2173.00 Z
           M 799.00,2074.00
           C 781.61,2070.45 756.16,2056.56 741.00,2047.05
             700.94,2021.92 663.98,1984.15 640.43,1943.00
             640.43,1943.00 629.26,1921.00 629.26,1921.00
             617.21,1896.11 609.68,1867.70 610.00,1840.00
             610.08,1833.37 612.64,1820.50 622.00,1822.47
             625.75,1823.26 629.26,1827.37 632.00,1829.91
             636.64,1834.21 643.83,1840.02 649.00,1843.70
             665.38,1855.37 682.44,1862.26 702.00,1866.58
             711.07,1868.58 719.84,1869.76 729.00,1867.79
             733.63,1866.79 740.57,1863.31 744.72,1866.60
             747.50,1868.80 748.55,1874.61 749.67,1878.00
             751.82,1884.52 755.01,1890.98 758.31,1897.00
             767.94,1914.53 783.71,1929.26 801.00,1939.13
             814.67,1946.93 834.11,1953.42 850.00,1951.83
             850.00,1951.83 872.00,1948.47 872.00,1948.47
             875.87,1947.55 880.24,1945.96 883.79,1948.47
             886.59,1950.68 888.58,1955.85 890.11,1959.00
             890.11,1959.00 900.85,1979.00 900.85,1979.00
             914.35,2002.52 927.85,2016.99 949.00,2034.00
             952.64,2036.93 965.84,2047.60 969.72,2048.40
             972.87,2049.04 975.88,2045.07 978.00,2043.17
             983.84,2037.92 989.65,2032.76 996.00,2028.15
             1014.93,2014.41 1037.13,2003.28 1061.00,2003.00
             1084.31,2002.73 1105.33,2004.91 1126.00,2016.87
             1133.51,2021.22 1137.98,2025.98 1144.00,2032.00
             1150.17,2038.17 1156.16,2043.59 1160.91,2051.00
             1169.27,2064.03 1175.08,2084.82 1178.42,2100.00
             1180.93,2111.36 1183.13,2124.39 1183.00,2136.00
             1182.74,2158.06 1180.78,2172.35 1177.42,2194.00
             1174.48,2212.95 1170.93,2230.20 1161.12,2247.00
             1151.94,2262.72 1134.32,2264.25 1123.65,2249.00
             1118.17,2241.17 1117.90,2231.14 1118.00,2222.00
             1118.19,2205.94 1126.70,2188.00 1137.00,2176.00
             1124.43,2178.95 1116.59,2189.06 1110.78,2200.00
             1107.27,2206.62 1103.81,2213.56 1102.46,2221.00
             1098.44,2243.18 1109.67,2265.91 1127.00,2279.48
             1132.44,2283.74 1144.02,2288.90 1151.00,2287.46
             1159.69,2285.66 1167.03,2276.34 1171.14,2269.00
             1173.36,2265.04 1174.71,2261.67 1177.68,2258.04
             1183.11,2251.39 1191.71,2248.53 1198.91,2254.42
             1203.58,2258.24 1207.02,2266.40 1209.19,2272.00
             1214.60,2285.97 1216.06,2297.25 1217.09,2312.00
             1217.09,2312.00 1218.00,2322.00 1218.00,2322.00
             1218.28,2346.67 1210.10,2389.46 1200.14,2412.00
             1194.42,2424.95 1186.48,2437.40 1178.43,2449.00
             1172.59,2457.42 1168.99,2464.05 1161.83,2472.00
             1146.16,2489.41 1123.12,2504.28 1101.00,2512.00
             1109.90,2517.36 1118.35,2522.62 1124.76,2531.00
             1135.00,2544.38 1142.66,2568.12 1142.66,2585.00
             1142.66,2600.00 1136.31,2625.23 1128.54,2638.00
             1120.30,2651.53 1099.21,2670.52 1085.00,2677.63
             1076.61,2681.83 1064.28,2685.14 1055.00,2686.75
             1051.33,2687.39 1038.20,2689.04 1035.00,2688.82
             1006.12,2686.77 981.80,2675.32 966.06,2650.00
             961.61,2642.83 957.21,2632.52 957.01,2624.00
             956.91,2619.42 957.57,2608.70 964.96,2610.84
             969.10,2612.05 970.55,2617.50 976.09,2622.83
             982.99,2629.47 991.47,2632.88 1001.00,2633.00
             1022.12,2633.24 1043.74,2623.78 1057.83,2608.00
             1062.57,2602.69 1066.54,2596.34 1066.74,2589.00
             1067.09,2576.00 1052.31,2563.63 1041.00,2560.03
             1029.76,2556.45 1020.56,2556.87 1009.00,2557.00
             1009.00,2557.00 999.00,2557.96 999.00,2557.96
             999.00,2557.96 990.00,2557.96 990.00,2557.96
             990.00,2557.96 972.00,2559.00 972.00,2559.00
             972.00,2559.00 961.00,2559.66 961.00,2559.66
             939.09,2559.66 906.94,2551.43 889.00,2538.79
             874.86,2528.83 866.56,2514.85 860.58,2499.00
             854.49,2482.89 851.80,2469.23 852.00,2452.00
             852.28,2428.74 863.25,2396.28 876.00,2377.00
             881.64,2368.48 891.11,2355.72 899.00,2349.52
             903.03,2346.35 910.65,2341.14 916.00,2342.76
             916.00,2342.76 934.00,2351.31 934.00,2351.31
             960.61,2360.79 981.89,2363.55 1007.00,2347.94
             1017.69,2341.29 1026.84,2330.33 1025.90,2317.00
             1025.18,2306.64 1015.90,2296.99 1008.00,2291.16
             989.90,2277.81 973.99,2277.94 953.00,2283.13
             942.66,2285.69 932.39,2290.16 926.00,2299.00
             945.89,2294.46 962.09,2287.42 983.00,2293.72
             991.45,2296.27 1000.97,2302.86 999.63,2313.00
             998.62,2320.67 990.81,2326.00 984.00,2328.25
             976.95,2330.59 970.31,2330.92 963.00,2331.00
             963.00,2331.00 953.00,2331.82 953.00,2331.82
             953.00,2331.82 939.00,2331.00 939.00,2331.00
             923.56,2330.97 896.24,2325.28 881.00,2321.15
             834.35,2308.52 790.45,2288.49 761.43,2248.00
             755.76,2240.09 751.09,2231.39 748.43,2222.00
             738.70,2187.69 751.19,2137.28 770.34,2108.00
             776.30,2098.89 789.77,2080.96 799.00,2076.00
             799.00,2076.00 799.00,2074.00 799.00,2074.00 Z
           M 1243.14,2255.95
           C 1248.87,2255.91 1251.48,2260.44 1254.13,2265.00
             1259.36,2274.03 1263.13,2284.00 1266.00,2294.00
             1270.56,2309.87 1275.97,2338.71 1276.00,2355.00
             1276.00,2355.00 1276.00,2376.00 1276.00,2376.00
             1276.00,2376.00 1273.91,2415.00 1273.91,2415.00
             1273.91,2415.00 1273.01,2427.00 1273.01,2427.00
             1273.29,2439.31 1280.01,2456.43 1284.60,2468.00
             1296.36,2497.63 1309.76,2521.99 1326.58,2549.00
             1332.82,2559.03 1347.18,2580.20 1357.00,2585.78
             1365.74,2590.75 1375.96,2593.98 1386.00,2594.00
             1386.00,2594.00 1405.00,2595.00 1405.00,2595.00
             1405.00,2595.00 1417.00,2595.00 1417.00,2595.00
             1417.00,2595.00 1435.00,2594.00 1435.00,2594.00
             1435.00,2594.00 1466.00,2592.00 1466.00,2592.00
             1466.00,2592.00 1504.00,2592.00 1504.00,2592.00
             1504.00,2592.00 1517.00,2591.09 1517.00,2591.09
             1517.00,2591.09 1551.00,2594.43 1551.00,2594.43
             1574.86,2598.45 1609.07,2611.41 1629.00,2625.03
             1646.73,2637.14 1656.11,2647.11 1671.00,2662.00
             1684.05,2675.05 1701.22,2694.20 1712.12,2709.00
             1712.12,2709.00 1735.20,2746.00 1735.20,2746.00
             1735.20,2746.00 1753.69,2776.00 1753.69,2776.00
             1766.37,2799.45 1774.46,2819.92 1783.00,2845.00
             1787.60,2858.50 1799.43,2884.48 1792.69,2898.00
             1788.76,2905.89 1777.00,2912.14 1769.00,2915.19
             1750.90,2922.07 1713.64,2926.23 1694.00,2926.00
             1694.00,2926.00 1684.00,2925.09 1684.00,2925.09
             1676.53,2924.58 1669.38,2924.04 1662.00,2922.55
             1637.79,2917.68 1605.56,2904.05 1589.44,2885.00
             1560.56,2850.87 1554.69,2775.81 1512.00,2746.75
             1502.99,2740.61 1493.46,2737.01 1483.00,2734.15
             1462.93,2728.66 1456.00,2729.23 1436.00,2729.00
             1436.00,2729.00 1426.00,2728.04 1426.00,2728.04
             1426.00,2728.04 1411.00,2728.04 1411.00,2728.04
             1411.00,2728.04 1398.00,2727.00 1398.00,2727.00
             1372.80,2726.71 1336.81,2728.76 1314.00,2717.74
             1291.56,2706.90 1278.86,2687.76 1266.40,2667.00
             1252.96,2644.62 1242.34,2621.54 1231.22,2598.00
             1231.22,2598.00 1209.72,2552.00 1209.72,2552.00
             1209.72,2552.00 1194.40,2514.00 1194.40,2514.00
             1191.77,2507.44 1187.60,2499.07 1188.10,2492.00
             1188.54,2485.66 1191.77,2481.94 1195.29,2477.00
             1195.29,2477.00 1208.57,2457.00 1208.57,2457.00
             1219.34,2438.18 1226.91,2415.14 1231.58,2394.00
             1235.77,2374.99 1236.77,2355.33 1238.09,2336.00
             1238.09,2336.00 1240.00,2309.00 1240.00,2309.00
             1240.00,2309.00 1240.00,2289.00 1240.00,2289.00
             1240.00,2289.00 1239.17,2265.00 1239.17,2265.00
             1239.56,2261.02 1239.55,2258.06 1243.14,2255.95 Z
           M 926.00,2299.00
           C 926.00,2299.00 925.00,2299.00 925.00,2299.00
             925.00,2299.00 926.00,2300.00 926.00,2300.00
             926.00,2300.00 926.00,2299.00 926.00,2299.00 Z
           M 1169.00,2686.00
           C 1151.16,2699.77 1138.84,2702.34 1117.00,2699.72
             1112.44,2699.17 1095.85,2699.59 1098.79,2691.21
             1100.00,2687.78 1106.89,2685.59 1110.00,2684.03
             1119.06,2679.50 1129.26,2673.08 1137.00,2666.56
             1159.14,2647.91 1172.73,2625.10 1182.00,2598.00
             1185.57,2587.55 1186.97,2584.23 1187.00,2573.00
             1187.01,2570.78 1186.45,2563.18 1190.85,2565.17
             1193.13,2566.20 1196.96,2573.57 1198.40,2576.00
             1198.40,2576.00 1215.24,2610.00 1215.24,2610.00
             1215.24,2610.00 1226.26,2633.00 1226.26,2633.00
             1226.26,2633.00 1256.15,2687.00 1256.15,2687.00
             1262.77,2698.61 1273.79,2718.36 1284.00,2726.48
             1297.26,2737.03 1309.94,2739.19 1326.00,2741.28
             1326.00,2741.28 1344.00,2743.00 1344.00,2743.00
             1344.00,2743.00 1366.00,2742.32 1366.00,2742.32
             1366.00,2742.32 1382.00,2743.00 1382.00,2743.00
             1382.00,2743.00 1397.00,2742.00 1397.00,2742.00
             1423.43,2741.96 1456.72,2740.83 1481.00,2752.49
             1491.80,2757.68 1502.31,2769.49 1509.37,2779.00
             1524.33,2799.13 1539.87,2838.96 1553.42,2863.00
             1560.92,2876.30 1568.22,2889.74 1577.37,2902.00
             1581.60,2907.65 1590.34,2917.08 1590.73,2924.00
             1590.92,2927.46 1588.78,2935.36 1587.87,2939.00
             1587.87,2939.00 1581.02,2964.00 1581.02,2964.00
             1581.02,2964.00 1571.99,2993.00 1571.99,2993.00
             1567.80,3003.09 1561.79,3012.49 1556.42,3022.00
             1556.42,3022.00 1531.57,3063.00 1531.57,3063.00
             1523.09,3074.87 1517.80,3081.24 1506.00,3090.10
             1504.61,3091.14 1502.52,3092.66 1501.00,3093.43
             1490.90,3098.58 1490.01,3089.22 1490.00,3082.00
             1490.00,3082.00 1490.00,3038.00 1490.00,3038.00
             1490.00,3038.00 1488.96,3028.00 1488.96,3028.00
             1488.96,3028.00 1488.96,3019.00 1488.96,3019.00
             1487.04,3000.25 1484.94,2988.28 1480.37,2970.00
             1473.61,2942.93 1469.82,2928.75 1454.00,2905.00
             1454.00,2905.00 1455.00,2927.00 1455.00,2927.00
             1455.00,2927.00 1455.00,2948.00 1455.00,2948.00
             1455.00,2948.00 1454.00,2964.00 1454.00,2964.00
             1454.00,2964.00 1454.00,2989.00 1454.00,2989.00
             1454.00,2989.00 1453.00,3004.00 1453.00,3004.00
             1453.00,3004.00 1453.00,3019.00 1453.00,3019.00
             1453.00,3019.00 1452.00,3036.00 1452.00,3036.00
             1452.00,3036.00 1451.00,3059.00 1451.00,3059.00
             1451.00,3059.00 1450.09,3070.00 1450.09,3070.00
             1450.09,3070.00 1446.72,3107.00 1446.72,3107.00
             1439.92,3158.63 1424.78,3214.72 1408.00,3264.00
             1393.33,3307.06 1374.95,3346.64 1350.41,3385.00
             1345.67,3392.42 1336.03,3405.87 1329.83,3411.70
             1327.46,3413.93 1322.73,3417.87 1319.28,3415.93
             1316.10,3414.15 1316.80,3410.00 1316.93,3407.00
             1316.93,3407.00 1318.00,3383.00 1318.00,3383.00
             1318.00,3383.00 1313.00,3331.00 1313.00,3331.00
             1312.98,3316.31 1311.77,3292.52 1314.89,3279.00
             1317.82,3266.26 1320.31,3259.18 1335.00,3258.94
             1335.00,3258.94 1339.00,3258.94 1339.00,3258.94
             1339.00,3258.94 1344.00,3258.94 1344.00,3258.94
             1350.86,3257.86 1350.79,3254.58 1348.77,3249.00
             1346.37,3242.38 1342.70,3237.11 1345.48,3230.00
             1345.48,3230.00 1357.69,3207.00 1357.69,3207.00
             1366.00,3188.87 1374.76,3161.99 1375.00,3142.00
             1375.09,3133.90 1375.19,3127.80 1372.29,3120.00
             1368.03,3108.54 1352.14,3094.19 1339.00,3095.18
             1329.30,3095.92 1321.00,3101.87 1314.00,3108.17
             1296.38,3124.03 1288.74,3142.49 1289.00,3166.00
             1289.14,3177.75 1293.51,3195.65 1297.02,3207.00
             1298.44,3211.57 1303.21,3221.21 1302.69,3225.00
             1301.97,3230.18 1290.23,3245.39 1287.00,3252.00
             1292.03,3253.93 1306.16,3256.61 1307.53,3262.10
             1308.53,3266.11 1303.10,3277.10 1301.74,3282.00
             1298.89,3292.32 1298.88,3302.42 1299.00,3313.00
             1299.00,3313.00 1300.00,3323.00 1300.00,3323.00
             1300.00,3323.00 1300.00,3331.00 1300.00,3331.00
             1300.00,3331.00 1304.00,3389.00 1304.00,3389.00
             1303.97,3406.18 1300.73,3430.98 1279.00,3432.81
             1266.42,3433.87 1254.13,3426.81 1255.10,3413.00
             1255.38,3408.97 1256.56,3406.14 1259.22,3403.09
             1260.42,3401.71 1263.19,3399.51 1263.66,3397.85
             1264.61,3394.55 1259.31,3389.85 1251.00,3394.99
             1244.87,3398.79 1240.12,3405.73 1239.48,3413.00
             1239.16,3417.58 1242.77,3424.61 1239.48,3426.72
             1237.24,3428.11 1233.91,3426.06 1232.00,3424.98
             1227.85,3422.64 1220.70,3417.74 1216.00,3417.43
             1211.56,3417.15 1203.95,3422.82 1205.66,3427.77
             1207.19,3432.23 1213.98,3430.23 1219.00,3431.80
             1227.74,3434.54 1229.17,3440.91 1228.99,3449.00
             1228.55,3467.77 1209.65,3477.06 1194.00,3468.12
             1181.36,3460.91 1177.02,3447.82 1177.00,3434.00
             1176.98,3420.44 1178.56,3418.77 1179.84,3407.00
             1179.84,3407.00 1183.09,3372.00 1183.09,3372.00
             1183.41,3367.57 1184.16,3366.06 1183.96,3361.00
             1183.62,3352.35 1181.12,3344.12 1178.33,3336.00
             1177.28,3332.93 1174.28,3326.76 1174.33,3324.00
             1174.41,3319.80 1178.49,3315.81 1182.04,3314.05
             1195.18,3307.52 1195.39,3321.42 1208.00,3325.20
             1223.29,3329.79 1249.17,3309.70 1247.68,3290.00
             1246.12,3269.55 1237.09,3251.09 1230.67,3232.00
             1228.42,3225.31 1223.91,3213.69 1224.03,3207.00
             1224.29,3192.85 1242.54,3200.64 1245.22,3189.98
             1247.11,3182.44 1231.59,3167.54 1232.49,3160.00
             1232.96,3156.08 1238.09,3148.82 1240.11,3145.00
             1243.13,3139.31 1246.05,3130.31 1247.63,3124.00
             1249.24,3117.53 1252.26,3100.21 1251.82,3094.00
             1249.85,3066.25 1238.80,3035.59 1210.00,3026.09
             1204.32,3024.21 1199.89,3023.93 1194.00,3024.00
             1185.39,3024.10 1179.94,3026.86 1173.00,3031.72
             1167.40,3035.64 1160.89,3041.17 1157.27,3047.00
             1148.33,3061.39 1148.92,3087.19 1153.43,3103.00
             1158.47,3120.68 1167.72,3135.81 1179.26,3150.00
             1182.34,3153.78 1185.45,3157.56 1189.00,3160.91
             1191.09,3162.88 1194.74,3165.56 1195.96,3168.04
             1198.05,3172.25 1193.80,3180.70 1192.19,3185.00
             1191.40,3187.13 1189.87,3190.38 1191.11,3192.57
             1193.77,3197.27 1208.38,3195.25 1211.98,3201.22
             1213.40,3203.58 1212.92,3208.21 1213.04,3211.00
             1213.21,3214.84 1214.38,3221.27 1215.43,3225.00
             1215.43,3225.00 1221.31,3242.00 1221.31,3242.00
             1221.31,3242.00 1227.05,3259.00 1227.05,3259.00
             1230.37,3268.09 1234.36,3278.15 1233.96,3288.00
             1233.49,3299.52 1227.42,3308.60 1215.00,3307.96
             1210.85,3307.74 1207.39,3306.33 1204.33,3303.47
             1200.75,3300.14 1199.09,3295.63 1198.00,3291.00
             1190.74,3294.64 1192.24,3299.43 1186.96,3301.17
             1184.38,3302.03 1179.57,3300.78 1177.00,3299.95
             1173.68,3298.88 1166.80,3295.80 1164.80,3292.79
             1163.31,3289.88 1164.15,3284.25 1164.80,3281.00
             1164.80,3281.00 1166.00,3263.00 1166.00,3263.00
             1166.00,3263.00 1166.00,3248.00 1166.00,3248.00
             1165.98,3238.31 1164.19,3232.22 1161.87,3223.00
             1156.61,3202.04 1150.23,3184.74 1133.00,3170.62
             1128.38,3166.83 1123.68,3163.57 1118.00,3161.55
             1094.89,3153.29 1071.10,3170.98 1064.44,3193.00
             1057.57,3215.69 1062.91,3238.20 1073.25,3259.00
             1081.21,3275.02 1091.19,3287.53 1106.00,3297.80
             1111.60,3301.68 1116.63,3304.30 1123.00,3306.68
             1126.59,3308.02 1132.02,3309.61 1133.98,3313.11
             1135.44,3315.72 1134.97,3321.85 1135.24,3325.00
             1135.03,3327.12 1135.06,3328.90 1135.24,3331.00
             1138.49,3346.49 1151.12,3328.46 1160.68,3334.17
             1169.10,3339.21 1171.10,3359.03 1171.00,3368.00
             1171.00,3368.00 1169.94,3377.00 1169.94,3377.00
             1169.94,3377.00 1169.94,3386.00 1169.94,3386.00
             1166.97,3409.14 1160.76,3436.43 1168.36,3459.00
             1173.44,3474.11 1186.46,3489.27 1204.00,3487.81
             1216.40,3486.78 1232.95,3472.90 1238.11,3462.00
             1243.74,3450.10 1240.63,3441.16 1248.04,3442.68
             1253.16,3443.73 1260.22,3449.18 1276.00,3449.00
             1283.34,3448.91 1288.58,3447.19 1295.00,3443.69
             1297.94,3442.08 1303.25,3438.20 1306.00,3437.52
             1314.90,3435.33 1313.21,3445.12 1310.56,3450.00
             1310.56,3450.00 1302.42,3463.00 1302.42,3463.00
             1302.42,3463.00 1283.05,3494.00 1283.05,3494.00
             1260.18,3530.06 1236.99,3566.13 1221.20,3606.00
             1205.65,3645.29 1196.89,3688.08 1192.83,3730.00
             1192.83,3730.00 1188.04,3767.00 1188.04,3767.00
             1188.04,3767.00 1188.04,3775.00 1188.04,3775.00
             1188.04,3775.00 1187.00,3787.00 1187.00,3787.00
             1187.00,3787.00 1187.00,3821.00 1187.00,3821.00
             1187.00,3821.00 1188.00,3840.00 1188.00,3840.00
             1188.00,3840.00 1188.91,3851.00 1188.91,3851.00
             1188.91,3851.00 1190.83,3879.00 1190.83,3879.00
             1190.83,3879.00 1193.17,3910.00 1193.17,3910.00
             1193.17,3910.00 1198.28,3954.00 1198.28,3954.00
             1204.46,4004.05 1210.87,4028.91 1224.58,4077.00
             1224.58,4077.00 1244.81,4142.00 1244.81,4142.00
             1244.81,4142.00 1268.31,4195.00 1268.31,4195.00
             1271.98,4202.99 1277.27,4210.79 1274.15,4220.00
             1270.32,4231.31 1253.33,4234.70 1243.00,4237.58
             1216.71,4244.89 1189.26,4248.96 1162.00,4249.00
             1162.00,4249.00 1145.00,4250.00 1145.00,4250.00
             1145.00,4250.00 1055.00,4250.00 1055.00,4250.00
             1055.00,4250.00 1040.00,4249.00 1040.00,4249.00
             1023.22,4248.81 1006.58,4247.37 990.00,4244.59
             983.24,4243.45 971.62,4241.05 966.00,4237.30
             957.61,4231.70 951.83,4219.97 947.69,4211.00
             947.69,4211.00 941.35,4196.00 941.35,4196.00
             936.09,4180.21 930.03,4145.57 930.00,4129.00
             930.00,4129.00 929.00,4107.00 929.00,4107.00
             929.00,4107.00 929.00,4073.00 929.00,4073.00
             929.00,4073.00 930.00,4056.00 930.00,4056.00
             930.05,4026.31 934.56,3985.97 938.15,3956.00
             938.15,3956.00 943.59,3919.00 943.59,3919.00
             943.59,3919.00 946.29,3897.00 946.29,3897.00
             946.29,3897.00 946.29,3890.00 946.29,3890.00
             946.29,3890.00 950.72,3857.00 950.72,3857.00
             950.72,3857.00 958.73,3799.00 958.73,3799.00
             958.73,3799.00 968.72,3727.00 968.72,3727.00
             968.72,3727.00 976.42,3674.00 976.42,3674.00
             976.42,3674.00 995.72,3595.00 995.72,3595.00
             999.87,3581.22 1008.98,3554.90 1021.00,3546.85
             1021.00,3546.85 1057.00,3535.94 1057.00,3535.94
             1065.28,3532.80 1075.34,3527.53 1081.99,3521.70
             1095.49,3509.86 1104.79,3490.01 1105.00,3472.00
             1105.00,3472.00 1105.00,3466.00 1105.00,3466.00
             1104.98,3454.54 1100.25,3443.18 1095.24,3433.00
             1081.66,3405.37 1061.07,3387.71 1043.72,3363.00
             1014.47,3321.33 997.47,3275.86 993.91,3225.00
             993.91,3225.00 993.00,3213.00 993.00,3213.00
             993.00,3213.00 993.00,3174.00 993.00,3174.00
             993.04,3146.98 1003.27,3111.63 1012.00,3086.00
             1012.00,3086.00 1025.31,3054.00 1025.31,3054.00
             1028.84,3046.36 1031.54,3045.16 1028.10,3040.00
             1022.53,3031.65 1005.69,3019.12 997.00,3013.33
             977.52,3000.34 947.71,2988.04 924.00,2988.00
             924.00,2988.00 916.00,2988.00 916.00,2988.00
             896.66,2988.03 871.58,2997.31 855.00,3007.01
             845.03,3012.85 839.13,3017.86 831.00,3026.00
             815.41,3041.61 805.74,3057.44 806.00,3080.00
             806.05,3083.78 806.50,3089.53 808.85,3092.62
             810.60,3094.93 816.32,3097.98 819.00,3099.60
             819.00,3099.60 836.00,3110.74 836.00,3110.74
             858.64,3127.11 879.34,3149.93 896.35,3172.00
             924.50,3208.53 949.89,3257.55 962.57,3302.00
             962.57,3302.00 971.00,3339.00 971.00,3339.00
             971.00,3339.00 977.96,3384.00 977.96,3384.00
             977.96,3384.00 977.96,3393.00 977.96,3393.00
             977.96,3393.00 979.00,3403.00 979.00,3403.00
             979.00,3403.00 979.00,3424.00 979.00,3424.00
             979.00,3424.00 978.00,3445.00 978.00,3445.00
             978.00,3445.00 977.17,3454.00 977.17,3454.00
             974.79,3477.80 970.30,3495.61 961.95,3518.00
             958.97,3526.00 955.13,3537.27 950.07,3543.98
             947.65,3547.20 943.47,3551.10 939.01,3550.10
             935.81,3549.38 933.25,3545.53 931.43,3543.00
             931.43,3543.00 918.20,3525.00 918.20,3525.00
             903.38,3506.65 881.77,3484.32 863.00,3470.13
             838.56,3451.65 806.53,3432.63 775.00,3433.00
             751.00,3433.28 737.74,3448.52 738.00,3472.00
             738.13,3482.78 742.70,3492.94 748.20,3502.00
             758.69,3519.28 778.96,3540.47 797.00,3549.74
             806.00,3554.37 820.97,3559.85 831.00,3557.00
             823.58,3554.26 817.27,3549.08 811.00,3544.37
             795.95,3533.07 784.24,3522.90 777.20,3505.00
             771.30,3489.97 769.38,3471.30 789.00,3465.93
             792.30,3465.02 800.49,3464.60 804.00,3464.75
             817.61,3465.31 828.93,3471.24 840.00,3478.67
             857.39,3490.34 881.13,3515.17 893.87,3532.00
             915.63,3560.74 940.39,3604.47 953.80,3638.00
             953.80,3638.00 967.78,3676.00 967.78,3676.00
             967.78,3676.00 963.13,3713.00 963.13,3713.00
             963.13,3713.00 952.27,3792.00 952.27,3792.00
             952.27,3792.00 941.00,3873.00 941.00,3873.00
             941.00,3873.00 938.00,3895.00 938.00,3895.00
             937.59,3897.98 937.31,3903.02 935.43,3905.33
             927.85,3914.66 905.50,3918.13 894.00,3918.00
             894.00,3918.00 876.00,3916.13 876.00,3916.13
             860.73,3914.01 848.11,3911.20 834.00,3904.69
             808.38,3892.87 780.86,3866.46 762.92,3845.00
             743.41,3821.66 721.73,3793.28 712.34,3764.00
             706.25,3744.98 704.77,3724.85 705.00,3705.00
             705.23,3685.79 713.16,3666.74 722.00,3650.00
             701.74,3645.25 674.17,3626.91 657.00,3615.02
             632.21,3597.86 605.14,3575.16 588.35,3550.00
             570.46,3523.17 560.27,3492.38 554.00,3461.00
             547.28,3427.38 544.88,3390.68 552.42,3357.00
             554.88,3346.02 558.83,3335.42 563.00,3325.00
             576.75,3290.63 591.62,3266.38 618.00,3240.00
             618.00,3240.00 639.00,3220.83 639.00,3220.83
             639.00,3220.83 653.00,3207.72 653.00,3207.72
             658.97,3202.46 664.57,3196.17 672.00,3193.00
             672.00,3193.00 644.15,3162.00 644.15,3162.00
             644.15,3162.00 630.20,3140.00 630.20,3140.00
             619.89,3122.81 610.88,3108.84 605.89,3089.00
             601.30,3070.72 601.79,3054.62 602.00,3036.00
             602.00,3036.00 602.92,3026.00 602.92,3026.00
             605.29,2996.28 614.56,2977.55 631.00,2953.00
             642.22,2936.25 657.35,2917.46 673.00,2904.80
             691.09,2890.18 719.99,2872.37 742.00,2864.69
             764.15,2856.97 790.63,2853.89 814.00,2854.00
             814.00,2854.00 825.00,2855.00 825.00,2855.00
             825.00,2855.00 834.00,2855.00 834.00,2855.00
             844.94,2855.84 856.28,2857.06 867.00,2859.42
             898.20,2866.31 917.28,2876.10 946.00,2887.60
             983.91,2902.78 1004.90,2913.06 1036.00,2940.84
             1045.66,2949.46 1061.37,2964.90 1066.00,2977.00
             1077.51,2963.60 1094.97,2939.04 1105.00,2924.00
             1131.74,2883.88 1154.02,2841.66 1163.55,2794.00
             1168.87,2767.42 1167.69,2742.75 1168.00,2716.00
             1168.00,2716.00 1169.00,2703.00 1169.00,2703.00
             1169.00,2703.00 1169.00,2686.00 1169.00,2686.00 Z
           M 1635.00,2969.00
           C 1635.00,2969.00 1627.31,3000.00 1627.31,3000.00
             1621.34,3016.77 1611.78,3033.42 1603.14,3049.00
             1603.14,3049.00 1583.72,3083.00 1583.72,3083.00
             1582.03,3085.93 1576.66,3093.62 1576.01,3096.00
             1575.24,3098.82 1577.28,3106.56 1577.72,3110.00
             1577.72,3110.00 1580.00,3138.00 1580.00,3138.00
             1580.00,3138.00 1580.00,3176.00 1580.00,3176.00
             1580.00,3176.00 1579.00,3191.00 1579.00,3191.00
             1578.72,3214.98 1576.55,3239.14 1574.17,3263.00
             1569.72,3307.46 1562.20,3352.49 1544.99,3394.00
             1526.65,3438.24 1503.39,3473.60 1469.99,3508.00
             1469.99,3508.00 1442.91,3537.00 1442.91,3537.00
             1435.14,3545.35 1427.30,3552.60 1428.09,3565.00
             1428.87,3577.22 1434.75,3599.29 1437.58,3612.00
             1437.58,3612.00 1451.42,3672.00 1451.42,3672.00
             1451.42,3672.00 1468.66,3726.00 1468.66,3726.00
             1468.66,3726.00 1485.67,3782.00 1485.67,3782.00
             1485.67,3782.00 1511.95,3856.00 1511.95,3856.00
             1523.99,3888.94 1536.47,3921.81 1550.42,3954.00
             1550.42,3954.00 1579.69,4018.00 1579.69,4018.00
             1579.69,4018.00 1598.78,4061.00 1598.78,4061.00
             1598.78,4061.00 1614.67,4099.00 1614.67,4099.00
             1616.90,4105.68 1619.37,4111.82 1618.96,4119.00
             1618.61,4125.07 1615.50,4127.15 1611.00,4130.71
             1603.78,4136.44 1592.53,4142.20 1584.00,4145.85
             1557.56,4157.17 1528.54,4162.09 1500.00,4164.09
             1500.00,4164.09 1488.00,4165.00 1488.00,4165.00
             1488.00,4165.00 1460.00,4165.00 1460.00,4165.00
             1460.00,4165.00 1450.00,4164.09 1450.00,4164.09
             1425.40,4162.40 1400.79,4159.54 1377.00,4152.71
             1367.43,4149.96 1353.40,4145.61 1346.09,4138.79
             1339.41,4132.56 1332.57,4114.88 1329.19,4106.00
             1329.19,4106.00 1302.98,4023.00 1302.98,4023.00
             1286.66,3970.49 1277.51,3915.98 1267.39,3862.00
             1267.39,3862.00 1253.28,3785.00 1253.28,3785.00
             1253.28,3785.00 1247.17,3733.00 1247.17,3733.00
             1247.17,3733.00 1244.83,3697.00 1244.83,3697.00
             1244.83,3697.00 1242.17,3677.00 1242.17,3677.00
             1242.17,3677.00 1240.91,3659.00 1240.91,3659.00
             1240.91,3659.00 1240.00,3649.00 1240.00,3649.00
             1240.00,3649.00 1240.00,3637.00 1240.00,3637.00
             1240.00,3637.00 1239.00,3615.00 1239.00,3615.00
             1239.02,3610.80 1240.05,3597.52 1241.48,3594.00
             1243.22,3589.72 1248.88,3582.99 1251.87,3579.00
             1251.87,3579.00 1271.85,3552.00 1271.85,3552.00
             1271.85,3552.00 1291.42,3524.00 1291.42,3524.00
             1291.42,3524.00 1346.95,3442.00 1346.95,3442.00
             1381.79,3386.96 1410.45,3330.43 1432.31,3269.00
             1438.19,3252.49 1444.79,3229.15 1448.58,3212.00
             1448.58,3212.00 1453.17,3186.00 1453.17,3186.00
             1455.00,3182.37 1459.87,3178.69 1463.00,3176.00
             1463.00,3176.00 1493.00,3154.00 1493.00,3154.00
             1510.01,3140.43 1529.08,3117.18 1541.33,3099.00
             1561.84,3068.57 1580.04,3027.52 1592.95,2993.00
             1592.95,2993.00 1606.34,2955.00 1606.34,2955.00
             1607.59,2951.42 1611.15,2940.59 1613.42,2938.31
             1615.55,2936.17 1623.01,2934.18 1626.00,2934.48
             1626.00,2934.48 1632.00,2936.12 1632.00,2936.12
             1632.00,2936.12 1665.00,2944.20 1665.00,2944.20
             1707.78,2952.45 1755.75,2955.13 1798.00,2943.00
             1808.54,2939.98 1827.90,2935.18 1834.15,2925.99
             1836.90,2921.93 1837.88,2915.84 1837.99,2911.00
             1838.39,2893.06 1828.35,2862.88 1821.60,2846.00
             1799.55,2790.89 1759.30,2741.32 1721.59,2696.00
             1721.59,2696.00 1697.83,2668.00 1697.83,2668.00
             1697.83,2668.00 1672.28,2641.00 1672.28,2641.00
             1668.59,2636.80 1656.28,2625.63 1657.37,2620.15
             1658.11,2616.43 1662.28,2617.05 1665.00,2617.78
             1672.16,2619.71 1678.53,2623.78 1685.00,2627.22
             1712.55,2641.85 1736.02,2661.02 1758.00,2683.00
             1774.24,2699.24 1789.77,2715.74 1803.77,2734.00
             1826.98,2764.29 1851.91,2811.17 1865.42,2847.00
             1871.39,2862.81 1874.86,2879.17 1876.09,2896.00
             1876.09,2896.00 1876.96,2904.00 1876.96,2904.00
             1877.22,2912.11 1874.42,2923.90 1870.49,2931.00
             1860.16,2949.63 1840.34,2959.57 1821.00,2966.34
             1798.92,2974.08 1774.61,2980.96 1751.00,2981.00
             1751.00,2981.00 1715.00,2981.00 1715.00,2981.00
             1715.00,2981.00 1692.00,2979.17 1692.00,2979.17
             1667.41,2976.79 1659.41,2977.13 1635.00,2969.00 Z
           M 513.00,2882.00
           C 494.82,2858.24 492.67,2823.84 493.00,2795.00
             493.29,2770.47 505.55,2742.66 519.58,2723.00
             527.56,2711.82 536.61,2701.32 547.00,2692.29
             578.44,2664.94 632.10,2644.07 674.00,2644.00
             702.97,2643.95 736.61,2645.77 765.00,2651.45
             798.08,2658.06 823.19,2667.43 854.00,2680.58
             896.10,2698.54 938.37,2721.11 975.00,2748.63
             1002.38,2769.19 1026.42,2794.04 1047.42,2821.00
             1056.18,2832.23 1072.11,2854.33 1077.57,2867.00
             1077.57,2867.00 1083.98,2887.00 1083.98,2887.00
             1085.02,2890.27 1086.76,2892.42 1086.11,2896.00
             1085.26,2900.61 1079.72,2907.96 1077.08,2912.00
             1074.34,2916.20 1070.26,2925.85 1064.00,2924.16
             1060.58,2923.23 1053.22,2915.20 1050.00,2912.42
             1038.90,2902.84 1031.47,2897.19 1019.00,2889.42
             988.95,2870.71 952.80,2856.53 919.00,2846.02
             897.34,2839.29 863.52,2832.04 841.00,2832.00
             841.00,2832.00 817.00,2832.00 817.00,2832.00
             817.00,2832.00 805.00,2833.00 805.00,2833.00
             805.00,2833.00 797.00,2833.00 797.00,2833.00
             797.00,2833.00 772.00,2836.61 772.00,2836.61
             751.02,2840.57 730.90,2847.62 711.00,2855.19
             682.98,2865.85 662.00,2876.96 638.00,2895.13
             638.00,2895.13 620.04,2910.04 620.04,2910.04
             607.42,2922.66 588.56,2952.31 581.43,2969.00
             581.43,2969.00 573.00,2994.00 573.00,2994.00
             568.25,3010.55 563.80,3030.79 564.00,3048.00
             564.12,3057.82 568.19,3073.56 571.33,3083.00
             583.13,3118.38 593.45,3131.16 614.71,3161.00
             621.81,3170.96 628.47,3180.51 638.00,3188.39
             641.40,3191.20 647.19,3194.69 645.38,3199.96
             643.81,3204.55 632.30,3210.54 628.28,3214.32
             628.28,3214.32 621.00,3221.54 621.00,3221.54
             621.00,3221.54 599.00,3238.43 599.00,3238.43
             599.00,3238.43 578.00,3259.00 578.00,3259.00
             567.92,3269.20 558.73,3280.53 550.13,3292.00
             524.96,3325.55 513.15,3352.39 507.72,3394.00
             507.72,3394.00 505.83,3414.00 505.83,3414.00
             505.83,3414.00 505.00,3423.00 505.00,3423.00
             504.81,3439.75 508.56,3459.72 512.63,3476.00
             526.78,3532.60 561.05,3585.61 606.00,3622.75
             619.53,3633.93 639.16,3647.62 655.00,3655.11
             655.00,3655.11 674.00,3663.31 674.00,3663.31
             676.81,3664.61 680.43,3666.30 681.98,3669.10
             684.66,3673.97 680.12,3684.56 678.89,3690.00
             676.30,3701.41 676.86,3716.14 677.00,3728.00
             677.00,3728.00 677.91,3738.00 677.91,3738.00
             680.29,3770.55 689.02,3805.46 707.08,3833.00
             725.15,3860.56 755.80,3887.05 784.00,3904.00
             801.41,3914.47 818.37,3924.43 838.00,3930.28
             843.03,3931.78 848.81,3933.09 854.00,3933.87
             856.87,3934.30 860.26,3934.52 861.98,3937.28
             863.80,3940.20 862.47,3944.15 861.20,3947.00
             858.23,3953.70 853.81,3962.66 848.91,3968.00
             829.08,3989.59 805.51,4006.34 775.00,4006.00
             775.00,4006.00 760.00,4005.00 760.00,4005.00
             765.18,4014.81 768.40,4022.61 767.96,4034.00
             767.70,4040.65 766.12,4049.88 763.54,4056.00
             759.27,4066.11 749.88,4074.56 741.00,4080.65
             717.08,4097.08 697.05,4099.32 669.00,4099.00
             669.00,4099.00 625.00,4093.41 625.00,4093.41
             565.61,4083.45 501.89,4054.09 461.17,4009.00
             442.46,3988.29 424.01,3955.69 424.01,3927.00
             424.01,3917.36 427.12,3907.92 434.04,3901.04
             436.59,3898.52 440.01,3895.56 443.90,3896.47
             448.63,3897.58 448.80,3903.16 449.66,3907.00
             451.90,3916.93 456.22,3925.51 461.69,3934.00
             477.71,3958.86 507.09,3982.37 538.00,3982.00
             543.50,3981.93 548.29,3980.86 553.00,3977.87
             568.11,3968.26 578.68,3938.80 563.82,3922.00
             556.17,3913.36 548.60,3910.88 539.00,3905.69
             519.14,3894.96 500.66,3887.86 482.00,3874.12
             457.37,3855.98 440.14,3829.12 434.46,3799.00
             432.65,3789.40 432.89,3779.72 433.00,3770.00
             433.18,3755.14 438.43,3740.76 445.72,3728.00
             454.91,3711.92 465.17,3698.41 484.00,3693.90
             505.86,3688.66 530.90,3703.94 529.96,3728.00
             529.11,3749.83 509.82,3762.43 492.00,3771.00
             514.47,3780.55 538.74,3770.78 549.63,3749.00
             552.34,3743.58 554.25,3735.06 554.83,3729.00
             557.92,3697.13 528.23,3668.33 498.00,3664.95
             495.19,3664.64 492.85,3664.11 490.00,3664.32
             476.99,3665.30 458.29,3670.42 448.00,3678.52
             434.30,3689.29 424.93,3707.21 418.15,3723.00
             413.26,3734.39 408.15,3747.47 408.00,3760.00
             407.92,3767.39 407.89,3769.64 409.26,3777.00
             409.81,3779.97 411.25,3784.09 410.22,3786.96
             408.48,3791.82 403.40,3792.15 399.00,3791.96
             391.21,3791.62 378.41,3785.58 371.00,3782.42
             345.34,3771.47 333.06,3762.58 313.00,3743.01
             307.74,3737.88 305.74,3737.08 300.80,3731.00
             287.61,3714.76 272.71,3690.87 266.00,3671.00
             257.13,3644.69 254.68,3616.58 255.00,3589.00
             255.13,3578.07 258.20,3556.01 260.40,3545.00
             271.32,3490.34 296.16,3441.55 343.00,3409.34
             355.21,3400.94 360.75,3396.97 375.00,3392.00
             375.00,3392.00 345.00,3377.57 345.00,3377.57
             329.44,3368.67 306.08,3353.64 293.00,3341.83
             293.00,3341.83 277.00,3326.00 277.00,3326.00
             265.84,3314.84 256.31,3304.18 247.51,3291.00
             231.35,3266.76 221.75,3239.27 215.35,3211.00
             211.34,3193.29 209.15,3176.06 207.91,3158.00
             207.91,3158.00 207.00,3148.00 207.00,3148.00
             206.41,3096.82 219.90,3037.90 248.51,2995.00
             273.16,2958.05 318.09,2922.71 358.00,2903.26
             387.82,2888.72 418.38,2885.19 451.00,2882.91
             451.00,2882.91 485.00,2880.09 485.00,2880.09
             485.00,2880.09 498.00,2880.09 498.00,2880.09
             498.00,2880.09 513.00,2882.00 513.00,2882.00 Z" />
</svg>
