<?xml version="1.0" encoding="UTF-8" standalone="no"?>
<!DOCTYPE svg PUBLIC "-//W3C//DTD SVG 20010904//EN"
              "http://www.w3.org/TR/2001/REC-SVG-20010904/DTD/svg10.dtd">

<svg xmlns="http://www.w3.org/2000/svg"
     width="8.5in" height="11in"
     viewBox="0 0 3400 4400">
  <path id="strings"
        fill="none" stroke="black" stroke-width="1"
        d="M 2031.00,96.00
           C 2031.00,96.00 2093.00,96.00 2093.00,96.00
             2093.00,96.00 2093.00,189.00 2093.00,189.00
             2093.00,189.00 2187.00,189.00 2187.00,189.00
             2187.00,189.00 2187.00,252.00 2187.00,252.00
             2187.00,252.00 2093.00,252.00 2093.00,252.00
             2093.00,252.00 2093.00,345.00 2093.00,345.00
             2093.00,345.00 2031.00,345.00 2031.00,345.00
             2031.00,345.00 2031.00,252.00 2031.00,252.00
             2031.00,252.00 1937.00,252.00 1937.00,252.00
             1937.00,252.00 1937.00,189.00 1937.00,189.00
             1937.00,189.00 2031.00,189.00 2031.00,189.00
             2031.00,189.00 2031.00,96.00 2031.00,96.00 Z
           M 2534.00,653.00
           C 2534.00,653.00 2513.00,669.09 2513.00,669.09
             2502.56,678.86 2489.99,695.89 2482.00,708.00
             2473.56,720.80 2466.08,734.45 2461.08,749.00
             2448.56,785.37 2448.63,832.69 2461.08,869.00
             2472.66,902.78 2492.97,933.00 2506.40,966.00
             2515.46,988.27 2522.13,1014.45 2527.21,1038.00
             2530.94,1055.28 2534.97,1075.35 2535.00,1093.00
             2535.00,1093.00 2535.00,1108.00 2535.00,1108.00
             2535.00,1108.00 2534.09,1118.00 2534.09,1118.00
             2531.82,1151.15 2526.74,1175.52 2504.92,1202.00
             2495.27,1213.70 2485.57,1221.36 2471.00,1225.97
             2460.71,1229.23 2455.51,1229.12 2445.00,1229.00
             2433.90,1228.87 2424.47,1224.69 2415.00,1219.28
             2389.91,1204.94 2376.35,1186.43 2376.00,1157.00
             2375.72,1132.65 2382.73,1100.02 2409.00,1091.36
             2413.13,1090.00 2418.65,1088.82 2423.00,1089.09
             2435.17,1089.84 2443.95,1099.41 2448.65,1110.00
             2450.41,1113.96 2452.15,1120.79 2449.55,1124.70
             2447.81,1127.31 2444.92,1127.14 2443.14,1124.70
             2441.94,1123.04 2441.25,1119.14 2440.39,1117.00
             2438.60,1112.52 2433.84,1105.48 2429.96,1102.65
             2418.35,1094.15 2403.95,1104.22 2397.04,1114.00
             2384.32,1132.01 2382.38,1165.77 2393.34,1185.00
             2399.24,1195.36 2409.93,1203.72 2420.00,1209.80
             2428.86,1215.14 2437.50,1218.87 2448.00,1219.00
             2472.51,1219.28 2489.22,1206.77 2502.66,1187.00
             2519.10,1162.81 2522.15,1143.37 2524.09,1115.00
             2524.09,1115.00 2525.00,1103.00 2525.00,1103.00
             2525.04,1076.15 2519.87,1049.98 2513.37,1024.00
             2508.80,1005.70 2503.89,987.42 2496.58,970.00
             2480.84,932.49 2457.63,898.76 2447.15,859.00
             2441.15,836.21 2441.96,820.92 2442.00,798.00
             2442.01,791.33 2442.95,784.60 2443.87,778.00
             2449.17,739.82 2466.14,707.42 2490.75,678.00
             2496.80,670.78 2506.46,660.66 2514.00,655.16
             2516.76,653.15 2521.52,649.82 2525.00,649.76
             2527.89,649.72 2531.48,651.69 2534.00,653.00 Z
           M 2244.00,1104.10
           C 2246.17,1103.95 2251.07,1103.37 2252.79,1104.10
             2255.29,1105.39 2257.07,1109.55 2258.13,1112.00
             2260.93,1118.50 2263.16,1126.06 2264.55,1133.00
             2271.74,1168.73 2265.47,1191.07 2252.40,1224.00
             2252.40,1224.00 2225.69,1286.00 2225.69,1286.00
             2216.07,1306.95 2205.85,1328.97 2199.02,1351.00
             2194.49,1365.64 2191.97,1380.86 2189.87,1396.00
             2189.87,1396.00 2187.04,1428.00 2187.04,1428.00
             2187.04,1428.00 2188.04,1436.00 2188.04,1436.00
             2188.04,1436.00 2188.04,1444.00 2188.04,1444.00
             2190.67,1470.18 2201.30,1497.13 2220.09,1515.91
             2228.01,1523.83 2242.98,1533.94 2253.00,1539.22
             2271.79,1549.11 2287.14,1551.24 2308.00,1551.00
             2329.75,1550.74 2354.61,1543.27 2372.00,1530.10
             2380.95,1523.32 2389.08,1513.31 2395.33,1504.00
             2401.23,1495.20 2408.49,1481.99 2411.92,1472.00
             2419.95,1448.59 2420.09,1417.29 2406.30,1396.00
             2398.58,1384.08 2381.91,1370.06 2368.00,1381.34
             2365.56,1383.31 2362.59,1386.42 2360.80,1389.00
             2358.88,1391.77 2357.91,1393.91 2357.85,1397.28
             2357.82,1399.60 2358.50,1404.45 2356.26,1405.95
             2351.71,1409.01 2348.22,1400.19 2348.04,1397.00
             2347.33,1384.37 2358.30,1371.69 2370.00,1368.05
             2373.81,1366.87 2377.07,1366.96 2381.00,1367.00
             2393.67,1367.15 2405.22,1376.21 2412.52,1386.00
             2428.10,1406.87 2430.23,1436.14 2425.54,1461.00
             2420.45,1487.96 2400.02,1522.84 2378.00,1539.08
             2358.47,1553.48 2331.13,1560.96 2307.00,1561.00
             2282.44,1561.04 2265.82,1558.68 2244.00,1546.28
             2228.95,1537.73 2215.76,1528.68 2204.81,1515.00
             2186.53,1492.18 2179.87,1466.52 2177.91,1438.00
             2177.91,1438.00 2177.00,1428.00 2177.00,1428.00
             2177.00,1428.00 2177.00,1424.00 2177.00,1424.00
             2177.00,1424.00 2177.91,1414.00 2177.91,1414.00
             2179.43,1391.85 2182.43,1369.30 2189.02,1348.00
             2196.68,1323.26 2207.91,1299.48 2218.69,1276.00
             2218.69,1276.00 2233.42,1242.00 2233.42,1242.00
             2239.42,1227.94 2251.45,1199.98 2254.58,1186.00
             2257.35,1173.61 2257.14,1165.47 2257.00,1153.00
             2256.91,1145.36 2253.88,1130.26 2251.30,1123.00
             2249.06,1116.70 2245.22,1110.48 2244.00,1104.10 Z
           M 2692.00,1184.00
           C 2692.00,1184.00 2673.00,1198.42 2673.00,1198.42
             2665.48,1204.29 2654.56,1214.84 2648.29,1222.00
             2639.93,1231.53 2632.19,1242.36 2625.31,1253.00
             2594.82,1300.18 2580.65,1347.85 2580.00,1404.00
             2580.00,1404.00 2579.00,1419.00 2579.00,1419.00
             2579.00,1419.00 2579.00,1477.00 2579.00,1477.00
             2579.00,1477.00 2580.00,1499.00 2580.00,1499.00
             2580.00,1499.00 2581.83,1520.00 2581.83,1520.00
             2581.83,1520.00 2586.04,1573.00 2586.04,1573.00
             2586.04,1573.00 2587.00,1586.00 2587.00,1586.00
             2587.00,1586.00 2587.00,1636.00 2587.00,1636.00
             2587.00,1636.00 2586.09,1648.00 2586.09,1648.00
             2583.39,1687.32 2575.04,1731.26 2553.56,1765.00
             2527.78,1805.51 2483.02,1828.32 2436.00,1832.08
             2436.00,1832.08 2424.00,1833.00 2424.00,1833.00
             2408.46,1833.02 2395.72,1832.51 2381.00,1826.55
             2363.48,1819.45 2346.14,1803.53 2335.67,1788.00
             2326.86,1774.93 2319.19,1759.10 2319.00,1743.00
             2319.00,1743.00 2319.00,1730.00 2319.00,1730.00
             2319.04,1707.32 2327.78,1682.00 2346.00,1667.84
             2358.56,1657.79 2379.40,1651.67 2389.87,1667.84
             2391.48,1670.52 2392.40,1673.11 2393.32,1676.00
             2393.96,1679.50 2394.22,1682.43 2393.32,1686.00
             2393.01,1688.70 2390.50,1696.04 2386.51,1693.26
             2383.78,1691.36 2384.16,1685.90 2383.91,1683.00
             2383.40,1677.14 2380.72,1671.35 2375.00,1669.01
             2367.01,1665.73 2357.95,1671.77 2352.00,1676.62
             2337.15,1688.70 2329.22,1710.11 2329.00,1729.00
             2328.82,1744.85 2328.76,1752.18 2335.78,1767.00
             2340.25,1776.45 2346.17,1785.23 2353.17,1793.00
             2369.34,1810.97 2390.49,1822.71 2415.00,1823.00
             2465.45,1823.59 2514.38,1803.95 2543.33,1761.00
             2565.06,1728.76 2573.46,1685.22 2576.09,1647.00
             2576.09,1647.00 2577.00,1635.00 2577.00,1635.00
             2577.00,1635.00 2577.00,1588.00 2577.00,1588.00
             2577.00,1588.00 2576.00,1569.00 2576.00,1569.00
             2576.00,1569.00 2573.17,1538.00 2573.17,1538.00
             2573.17,1538.00 2570.91,1510.00 2570.91,1510.00
             2570.91,1510.00 2570.00,1498.00 2570.00,1498.00
             2570.00,1498.00 2569.00,1479.00 2569.00,1479.00
             2568.90,1417.87 2566.78,1361.71 2587.69,1303.00
             2600.36,1267.43 2626.10,1228.26 2653.00,1202.01
             2659.40,1195.77 2666.52,1190.24 2674.00,1185.34
             2676.28,1183.86 2681.40,1180.30 2684.00,1180.20
             2686.69,1180.10 2689.83,1182.56 2692.00,1184.00 Z
           M 2863.00,1456.00
           C 2863.00,1456.00 2925.00,1456.00 2925.00,1456.00
             2925.00,1456.00 2925.00,1549.00 2925.00,1549.00
             2925.00,1549.00 3019.00,1549.00 3019.00,1549.00
             3019.00,1549.00 3019.00,1612.00 3019.00,1612.00
             3019.00,1612.00 2925.00,1612.00 2925.00,1612.00
             2925.00,1612.00 2925.00,1705.00 2925.00,1705.00
             2925.00,1705.00 2863.00,1705.00 2863.00,1705.00
             2863.00,1705.00 2863.00,1612.00 2863.00,1612.00
             2863.00,1612.00 2769.00,1612.00 2769.00,1612.00
             2769.00,1612.00 2769.00,1549.00 2769.00,1549.00
             2769.00,1549.00 2863.00,1549.00 2863.00,1549.00
             2863.00,1549.00 2863.00,1456.00 2863.00,1456.00 Z" />
</svg>
