<?xml version="1.0" encoding="UTF-8" standalone="no"?>
<!DOCTYPE svg PUBLIC "-//W3C//DTD SVG 20010904//EN"
              "http://www.w3.org/TR/2001/REC-SVG-20010904/DTD/svg10.dtd">

<svg xmlns="http://www.w3.org/2000/svg"
     width="8.5in" height="11in"
     viewBox="0 0 3400 4400">
  <path id="yellow"
        fill="none" stroke="black" stroke-width="1"
        d="M 2031.00,96.00
           C 2031.00,96.00 2093.00,96.00 2093.00,96.00
             2093.00,96.00 2093.00,189.00 2093.00,189.00
             2093.00,189.00 2187.00,189.00 2187.00,189.00
             2187.00,189.00 2187.00,252.00 2187.00,252.00
             2187.00,252.00 2093.00,252.00 2093.00,252.00
             2093.00,252.00 2093.00,345.00 2093.00,345.00
             2093.00,345.00 2031.00,345.00 2031.00,345.00
             2031.00,345.00 2031.00,252.00 2031.00,252.00
             2031.00,252.00 1937.00,252.00 1937.00,252.00
             1937.00,252.00 1937.00,189.00 1937.00,189.00
             1937.00,189.00 2031.00,189.00 2031.00,189.00
             2031.00,189.00 2031.00,96.00 2031.00,96.00 Z
           M 2526.00,563.00
           C 2516.16,557.75 2506.53,546.67 2499.60,538.00
             2485.27,520.06 2473.01,500.51 2462.75,480.00
             2444.25,443.00 2433.76,403.34 2431.96,362.00
             2431.96,362.00 2431.00,349.00 2431.00,349.00
             2431.00,349.00 2431.00,340.00 2431.00,340.00
             2431.00,340.00 2432.00,323.00 2432.00,323.00
             2432.25,301.84 2439.55,271.86 2446.95,252.00
             2463.83,206.72 2485.21,174.61 2528.00,150.15
             2548.48,138.44 2570.94,128.29 2595.00,128.00
             2609.27,127.84 2618.31,128.46 2632.00,133.44
             2645.12,138.21 2654.39,145.06 2665.00,153.92
             2689.93,174.73 2705.77,197.33 2716.00,228.00
             2724.11,252.31 2733.96,289.56 2734.00,315.00
             2734.00,315.00 2734.00,335.00 2734.00,335.00
             2734.00,335.00 2733.09,346.00 2733.09,346.00
             2729.52,398.15 2715.03,445.16 2687.80,490.00
             2674.80,511.41 2659.50,530.57 2640.00,546.39
             2633.28,551.84 2625.37,557.94 2618.00,562.40
             2615.17,564.11 2608.85,567.22 2607.76,570.21
             2606.56,572.72 2607.69,577.21 2607.76,580.00
             2607.76,580.00 2610.00,606.00 2610.00,606.00
             2610.00,606.00 2610.00,627.00 2610.00,627.00
             2609.85,639.42 2607.75,655.98 2595.00,661.64
             2589.09,664.26 2582.32,664.07 2576.00,664.00
             2564.45,663.86 2554.66,660.41 2544.00,656.42
             2526.32,649.81 2519.76,647.75 2506.00,634.00
             2498.58,626.58 2491.21,621.51 2492.09,610.00
             2493.33,593.92 2515.10,573.90 2526.00,563.00 Z
           M 2863.00,1456.00
           C 2863.00,1456.00 2925.00,1456.00 2925.00,1456.00
             2925.00,1456.00 2925.00,1549.00 2925.00,1549.00
             2925.00,1549.00 3019.00,1549.00 3019.00,1549.00
             3019.00,1549.00 3019.00,1612.00 3019.00,1612.00
             3019.00,1612.00 2925.00,1612.00 2925.00,1612.00
             2925.00,1612.00 2925.00,1705.00 2925.00,1705.00
             2925.00,1705.00 2863.00,1705.00 2863.00,1705.00
             2863.00,1705.00 2863.00,1612.00 2863.00,1612.00
             2863.00,1612.00 2769.00,1612.00 2769.00,1612.00
             2769.00,1612.00 2769.00,1549.00 2769.00,1549.00
             2769.00,1549.00 2863.00,1549.00 2863.00,1549.00
             2863.00,1549.00 2863.00,1456.00 2863.00,1456.00 Z" />
</svg>
