<?xml version="1.0" encoding="UTF-8" standalone="no"?>
<!DOCTYPE svg PUBLIC "-//W3C//DTD SVG 20010904//EN"
              "http://www.w3.org/TR/2001/REC-SVG-20010904/DTD/svg10.dtd">

<svg xmlns="http://www.w3.org/2000/svg"
     width="304.762mm" height="304.762mm"
     viewBox="0 0 864 864">
  <path id="1 - white"
        fill="none" stroke="black" stroke-width="1"
        d="M 611.00,88.00
           C 611.00,88.00 629.00,88.00 629.00,88.00
             629.00,88.00 629.00,115.00 629.00,115.00
             629.00,115.00 656.00,115.00 656.00,115.00
             656.00,115.00 656.00,133.00 656.00,133.00
             656.00,133.00 629.00,133.00 629.00,133.00
             629.00,133.00 629.00,160.00 629.00,160.00
             629.00,160.00 611.00,160.00 611.00,160.00
             611.00,160.00 611.00,133.00 611.00,133.00
             611.00,133.00 584.00,133.00 584.00,133.00
             584.00,133.00 584.00,115.00 584.00,115.00
             584.00,115.00 611.00,115.00 611.00,115.00
             611.00,115.00 611.00,88.00 611.00,88.00 Z
           M 337.00,648.00
           C 304.93,637.31 285.62,628.21 257.00,610.05
             243.31,601.37 229.28,590.88 218.27,578.91
             196.10,554.80 178.05,516.18 178.00,483.00
             177.98,472.84 177.77,458.93 182.88,450.00
             187.03,442.75 193.30,437.69 202.00,438.10
             206.40,438.31 215.00,442.99 217.58,438.81
             217.58,438.81 225.20,416.00 225.20,416.00
             231.10,401.11 237.64,389.56 246.00,376.00
             249.66,370.06 258.07,357.63 263.09,353.34
             267.41,349.65 275.34,348.90 281.00,347.29
             281.00,347.29 327.00,335.57 327.00,335.57
             327.00,335.57 343.00,330.88 343.00,330.88
             345.17,330.30 348.64,329.71 349.94,327.57
             350.59,326.15 350.00,319.13 349.94,317.00
             349.94,317.00 349.94,303.00 349.94,303.00
             349.94,303.00 351.00,287.00 351.00,287.00
             351.00,287.00 351.00,274.00 351.00,274.00
             351.00,274.00 352.00,254.00 352.00,254.00
             352.00,254.00 353.00,239.00 353.00,239.00
             353.18,223.38 355.39,200.43 361.26,186.00
             365.70,175.06 374.32,169.79 383.91,179.11
             392.98,187.93 400.07,207.83 403.72,220.00
             403.72,220.00 417.50,275.00 417.50,275.00
             417.50,275.00 426.00,314.00 426.00,314.00
             451.91,314.00 482.42,322.47 503.00,338.51
             507.39,341.93 514.02,348.82 517.91,353.00
             517.91,353.00 541.75,381.00 541.75,381.00
             541.75,381.00 551.18,392.54 551.18,392.54
             554.34,394.68 556.50,392.34 559.00,390.44
             566.44,384.80 569.74,383.26 578.00,379.26
             590.24,373.34 613.70,365.22 627.00,362.92
             631.44,362.15 640.85,359.66 644.78,362.02
             647.49,363.65 648.91,368.10 649.80,371.00
             652.27,379.04 653.99,388.60 654.00,397.00
             654.00,397.00 654.00,420.00 654.00,420.00
             653.98,432.50 649.96,449.10 646.00,461.00
             635.35,492.96 616.23,523.86 589.00,544.26
             576.43,553.67 567.57,558.56 553.00,564.19
             548.89,565.78 534.66,569.42 532.53,571.43
             530.21,573.61 526.32,580.93 524.76,584.00
             524.76,584.00 513.61,609.00 513.61,609.00
             512.12,612.89 511.18,617.52 508.87,620.91
             508.87,620.91 484.75,646.58 484.75,646.58
             466.43,667.36 453.19,687.58 447.00,715.00
             447.00,715.00 406.00,719.09 406.00,719.09
             406.00,719.09 394.00,720.00 394.00,720.00
             394.00,720.00 351.00,720.00 351.00,720.00
             351.00,720.00 341.00,719.09 341.00,719.09
             341.00,719.09 314.00,717.09 314.00,717.09
             311.09,716.89 302.81,717.99 301.73,714.69
             300.83,711.94 307.23,700.01 308.76,697.00
             308.76,697.00 322.55,674.00 322.55,674.00
             322.55,674.00 337.00,648.00 337.00,648.00 Z
           M 670.00,635.00
           C 670.00,635.00 688.00,635.00 688.00,635.00
             688.00,635.00 688.00,662.00 688.00,662.00
             688.00,662.00 715.00,662.00 715.00,662.00
             715.00,662.00 715.00,680.00 715.00,680.00
             715.00,680.00 688.00,680.00 688.00,680.00
             688.00,680.00 688.00,707.00 688.00,707.00
             688.00,707.00 670.00,707.00 670.00,707.00
             670.00,707.00 670.00,680.00 670.00,680.00
             670.00,680.00 643.00,680.00 643.00,680.00
             643.00,680.00 643.00,662.00 643.00,662.00
             643.00,662.00 670.00,662.00 670.00,662.00
             670.00,662.00 670.00,635.00 670.00,635.00 Z
           M 192.00,653.00
           C 192.00,653.00 210.00,653.00 210.00,653.00
             210.00,653.00 210.00,680.00 210.00,680.00
             210.00,680.00 237.00,680.00 237.00,680.00
             237.00,680.00 237.00,698.00 237.00,698.00
             237.00,698.00 210.00,698.00 210.00,698.00
             210.00,698.00 210.00,725.00 210.00,725.00
             210.00,725.00 192.00,725.00 192.00,725.00
             192.00,725.00 192.00,698.00 192.00,698.00
             192.00,698.00 165.00,698.00 165.00,698.00
             165.00,698.00 165.00,680.00 165.00,680.00
             165.00,680.00 192.00,680.00 192.00,680.00
             192.00,680.00 192.00,653.00 192.00,653.00 Z" />
</svg>
