<?xml version="1.0" encoding="UTF-8" standalone="no"?>
<!DOCTYPE svg PUBLIC "-//W3C//DTD SVG 20010904//EN"
              "http://www.w3.org/TR/2001/REC-SVG-20010904/DTD/svg10.dtd">

<svg xmlns="http://www.w3.org/2000/svg"
     width="304.762mm" height="304.762mm"
     viewBox="0 0 864 864">
  <path id="10 - white outline.svg"
        fill="none" stroke="black" stroke-width="1"
        d="M 611.00,88.00
           C 611.00,88.00 629.00,88.00 629.00,88.00
             629.00,88.00 629.00,115.00 629.00,115.00
             629.00,115.00 656.00,115.00 656.00,115.00
             656.00,115.00 656.00,133.00 656.00,133.00
             656.00,133.00 629.00,133.00 629.00,133.00
             629.00,133.00 629.00,160.00 629.00,160.00
             629.00,160.00 611.00,160.00 611.00,160.00
             611.00,160.00 611.00,133.00 611.00,133.00
             611.00,133.00 584.00,133.00 584.00,133.00
             584.00,133.00 584.00,115.00 584.00,115.00
             584.00,115.00 611.00,115.00 611.00,115.00
             611.00,115.00 611.00,88.00 611.00,88.00 Z
           M 358.00,344.00
           C 352.04,342.03 351.41,335.61 350.79,330.00
             350.79,330.00 350.79,322.00 350.79,322.00
             350.79,322.00 350.79,315.00 350.79,315.00
             350.72,310.93 349.82,309.61 350.04,304.00
             350.04,304.00 351.00,291.00 351.00,291.00
             351.00,291.00 351.00,274.00 351.00,274.00
             351.00,274.00 352.00,258.00 352.00,258.00
             352.03,241.14 353.50,218.51 356.61,202.00
             358.17,193.73 361.72,176.93 371.00,174.43
             378.70,172.36 384.42,178.30 388.43,184.00
             396.06,194.84 402.01,213.13 405.71,226.00
             405.71,226.00 421.27,290.00 421.27,290.00
             422.44,294.45 424.80,309.96 427.51,312.40
             429.50,314.20 439.78,314.69 443.00,315.05
             451.56,316.01 464.93,319.12 473.00,322.05
             501.68,332.48 514.20,347.22 533.25,370.00
             538.23,375.96 549.21,388.47 552.00,395.00
             552.00,395.00 565.00,385.81 565.00,385.81
             580.20,376.39 603.49,368.11 621.00,364.21
             626.21,363.05 641.12,359.05 645.58,362.02
             648.04,363.66 649.26,369.19 650.16,372.00
             652.98,380.81 654.89,396.70 655.00,406.00
             655.16,420.13 652.86,436.34 649.28,450.00
             632.84,512.85 588.59,563.17 522.00,572.00
             523.79,567.39 531.61,565.61 536.00,563.72
             547.98,558.55 559.37,552.17 570.00,544.57
             601.31,522.20 622.57,493.42 634.67,457.00
             638.35,445.90 641.81,430.66 642.00,419.00
             642.00,419.00 642.82,409.00 642.82,409.00
             642.82,403.57 641.35,389.36 640.11,384.00
             639.38,380.80 638.32,374.11 634.66,373.16
             631.62,372.38 620.42,375.60 617.00,376.58
             601.06,381.13 583.69,388.67 570.00,398.03
             567.92,399.45 564.03,402.08 562.77,404.17
             562.05,405.36 561.29,421.00 553.46,415.38
             551.63,414.07 545.42,405.38 543.63,403.00
             543.63,403.00 524.57,379.00 524.57,379.00
             517.93,371.03 502.58,353.48 495.00,347.52
             478.71,334.68 449.75,325.19 429.00,325.00
             429.00,327.82 429.33,332.46 427.98,334.90
             424.85,340.54 412.97,342.72 407.00,343.00
             409.27,335.26 414.70,334.49 415.79,327.00
             416.43,322.58 414.64,317.33 413.65,313.00
             413.65,313.00 407.71,288.00 407.71,288.00
             407.71,288.00 404.58,272.00 404.58,272.00
             404.58,272.00 398.50,246.00 398.50,246.00
             398.50,246.00 393.62,223.00 393.62,223.00
             391.81,215.99 385.31,201.30 381.55,195.00
             380.19,192.73 376.70,186.22 373.38,187.91
             370.87,189.19 369.25,195.38 368.66,198.00
             366.52,207.52 365.39,217.29 364.96,227.00
             364.96,227.00 362.93,251.00 362.93,251.00
             362.93,251.00 362.93,267.04 362.93,267.04
             362.93,267.04 362.00,277.00 362.00,277.00
             362.00,277.00 361.00,296.00 361.00,296.00
             361.00,296.00 359.83,332.00 359.83,332.00
             359.83,332.00 358.00,344.00 358.00,344.00 Z
           M 217.00,441.00
           C 218.29,426.63 231.75,396.49 239.47,384.00
             239.47,384.00 245.88,375.00 245.88,375.00
             249.70,369.02 257.49,355.64 263.33,351.92
             266.09,350.16 279.23,347.53 283.00,347.00
             283.00,347.00 280.00,356.00 280.00,356.00
             271.53,360.02 260.06,377.47 255.64,386.00
             255.64,386.00 241.32,411.00 241.32,411.00
             235.82,422.60 232.55,434.74 229.00,447.00
             229.00,447.00 252.00,450.00 252.00,450.00
             250.36,454.69 246.46,455.56 242.00,456.97
             235.94,458.90 228.18,459.99 222.00,458.10
             215.01,455.96 203.80,449.00 197.11,454.43
             192.88,457.86 192.45,462.04 191.73,467.00
             190.31,476.85 191.10,488.24 193.00,498.00
             194.01,503.15 194.14,508.65 199.06,511.59
             206.68,516.14 218.89,517.33 227.00,513.46
             232.10,511.03 233.86,507.63 239.00,506.00
             238.44,510.92 237.24,513.27 233.82,516.96
             225.18,526.27 211.42,524.51 200.00,523.00
             213.58,561.92 244.59,589.73 278.00,612.00
             288.64,619.09 299.57,626.00 311.00,631.75
             321.67,637.12 332.67,642.17 344.00,646.00
             349.43,647.83 358.12,648.70 362.00,652.00
             354.92,653.99 352.57,651.25 349.39,653.64
             347.36,655.16 343.56,663.26 342.00,666.00
             342.00,666.00 324.20,696.00 324.20,696.00
             321.72,700.12 315.19,713.87 311.79,715.90
             308.80,717.50 304.18,716.70 301.00,715.90
             301.00,715.90 308.02,698.96 308.02,698.96
             308.02,698.96 310.82,691.00 310.82,691.00
             310.82,691.00 322.40,672.00 322.40,672.00
             322.40,672.00 336.00,648.00 336.00,648.00
             322.84,645.97 301.21,635.71 289.00,629.60
             245.96,608.08 206.96,580.28 188.45,534.00
             179.36,511.28 176.89,495.25 177.00,471.00
             177.07,456.34 184.20,436.26 202.00,437.10
             206.53,437.32 212.62,439.54 217.00,441.00 Z
           M 608.00,436.00
           C 608.00,436.00 611.00,436.00 611.00,436.00
             610.32,443.54 606.90,451.16 603.77,458.00
             596.46,473.98 587.47,487.52 574.00,499.00
             567.56,504.48 558.58,511.09 550.00,512.00
             551.71,506.66 554.97,505.46 559.00,501.83
             559.00,501.83 574.96,486.00 574.96,486.00
             586.14,474.31 601.56,450.96 608.00,436.00 Z
           M 216.00,476.00
           C 216.00,476.00 225.00,478.14 225.00,478.14
             225.00,478.14 234.00,476.00 234.00,476.00
             232.03,488.15 217.68,491.73 216.00,476.00 Z
           M 200.00,522.00
           C 200.00,522.00 199.00,522.00 199.00,522.00
             199.00,522.00 200.00,523.00 200.00,523.00
             200.00,523.00 200.00,522.00 200.00,522.00 Z
           M 670.00,635.00
           C 670.00,635.00 688.00,635.00 688.00,635.00
             688.00,635.00 688.00,662.00 688.00,662.00
             688.00,662.00 715.00,662.00 715.00,662.00
             715.00,662.00 715.00,680.00 715.00,680.00
             715.00,680.00 688.00,680.00 688.00,680.00
             688.00,680.00 688.00,707.00 688.00,707.00
             688.00,707.00 670.00,707.00 670.00,707.00
             670.00,707.00 670.00,680.00 670.00,680.00
             670.00,680.00 643.00,680.00 643.00,680.00
             643.00,680.00 643.00,662.00 643.00,662.00
             643.00,662.00 670.00,662.00 670.00,662.00
             670.00,662.00 670.00,635.00 670.00,635.00 Z
           M 192.00,653.00
           C 192.00,653.00 210.00,653.00 210.00,653.00
             210.00,653.00 210.00,680.00 210.00,680.00
             210.00,680.00 237.00,680.00 237.00,680.00
             237.00,680.00 237.00,698.00 237.00,698.00
             237.00,698.00 210.00,698.00 210.00,698.00
             210.00,698.00 210.00,725.00 210.00,725.00
             210.00,725.00 192.00,725.00 192.00,725.00
             192.00,725.00 192.00,698.00 192.00,698.00
             192.00,698.00 165.00,698.00 165.00,698.00
             165.00,698.00 165.00,680.00 165.00,680.00
             165.00,680.00 192.00,680.00 192.00,680.00
             192.00,680.00 192.00,653.00 192.00,653.00 Z" />
</svg>
