<?xml version="1.0" encoding="UTF-8" standalone="no"?>
<!DOCTYPE svg PUBLIC "-//W3C//DTD SVG 20010904//EN"
              "http://www.w3.org/TR/2001/REC-SVG-20010904/DTD/svg10.dtd">

<svg xmlns="http://www.w3.org/2000/svg"
     width="304.762mm" height="304.762mm"
     viewBox="0 0 864 864">
  <path id="12 - eye gradient dark"
        fill="none" stroke="black" stroke-width="1"
        d="M 611.00,88.00
           C 611.00,88.00 629.00,88.00 629.00,88.00
             629.00,88.00 629.00,115.00 629.00,115.00
             629.00,115.00 656.00,115.00 656.00,115.00
             656.00,115.00 656.00,133.00 656.00,133.00
             656.00,133.00 629.00,133.00 629.00,133.00
             629.00,133.00 629.00,160.00 629.00,160.00
             629.00,160.00 611.00,160.00 611.00,160.00
             611.00,160.00 611.00,133.00 611.00,133.00
             611.00,133.00 584.00,133.00 584.00,133.00
             584.00,133.00 584.00,115.00 584.00,115.00
             584.00,115.00 611.00,115.00 611.00,115.00
             611.00,115.00 611.00,88.00 611.00,88.00 Z
           M 228.00,449.00
           C 228.33,434.17 236.79,417.06 245.03,405.00
             247.12,401.94 252.68,393.69 256.09,392.70
             258.97,391.87 264.17,393.97 262.87,398.04
             262.31,399.79 258.66,404.29 257.37,406.00
             253.48,411.19 250.66,415.35 247.43,421.00
             243.37,428.10 236.40,446.96 236.58,446.69
             234.72,449.55 231.00,448.99 228.00,449.00 Z
           M 393.00,443.00
           C 395.73,443.13 400.19,443.30 402.01,445.70
             403.45,447.61 402.93,451.78 402.54,454.00
             401.36,460.65 398.51,468.85 395.69,475.00
             387.38,493.13 374.23,509.46 356.00,518.22
             351.17,520.54 345.40,522.68 340.00,522.90
             331.75,523.23 319.43,513.57 313.00,508.58
             310.68,506.77 306.29,503.55 305.06,500.96
             303.26,497.15 308.71,482.83 311.19,479.41
             312.21,478.02 312.70,477.91 314.00,477.00
             314.35,492.91 322.99,511.54 342.00,507.48
             344.79,506.89 348.49,505.47 351.00,504.10
             362.75,497.66 365.27,491.41 373.34,482.53
             376.81,478.71 379.74,478.20 383.53,473.91
             391.61,464.76 393.00,454.63 393.00,443.00 Z
           M 670.00,635.00
           C 670.00,635.00 688.00,635.00 688.00,635.00
             688.00,635.00 688.00,662.00 688.00,662.00
             688.00,662.00 715.00,662.00 715.00,662.00
             715.00,662.00 715.00,680.00 715.00,680.00
             715.00,680.00 688.00,680.00 688.00,680.00
             688.00,680.00 688.00,707.00 688.00,707.00
             688.00,707.00 670.00,707.00 670.00,707.00
             670.00,707.00 670.00,680.00 670.00,680.00
             670.00,680.00 643.00,680.00 643.00,680.00
             643.00,680.00 643.00,662.00 643.00,662.00
             643.00,662.00 670.00,662.00 670.00,662.00
             670.00,662.00 670.00,635.00 670.00,635.00 Z
           M 192.00,653.00
           C 192.00,653.00 210.00,653.00 210.00,653.00
             210.00,653.00 210.00,680.00 210.00,680.00
             210.00,680.00 237.00,680.00 237.00,680.00
             237.00,680.00 237.00,698.00 237.00,698.00
             237.00,698.00 210.00,698.00 210.00,698.00
             210.00,698.00 210.00,725.00 210.00,725.00
             210.00,725.00 192.00,725.00 192.00,725.00
             192.00,725.00 192.00,698.00 192.00,698.00
             192.00,698.00 165.00,698.00 165.00,698.00
             165.00,698.00 165.00,680.00 165.00,680.00
             165.00,680.00 192.00,680.00 192.00,680.00
             192.00,680.00 192.00,653.00 192.00,653.00 Z" />
</svg>
