<?xml version="1.0" encoding="UTF-8" standalone="no"?>
<!DOCTYPE svg PUBLIC "-//W3C//DTD SVG 20010904//EN"
              "http://www.w3.org/TR/2001/REC-SVG-20010904/DTD/svg10.dtd">

<svg xmlns="http://www.w3.org/2000/svg"
     width="304.762mm" height="304.762mm"
     viewBox="0 0 864 864">
  <path id="15 - black"
        fill="none" stroke="black" stroke-width="1"
        d="M 611.00,88.00
           C 611.00,88.00 629.00,88.00 629.00,88.00
             629.00,88.00 629.00,115.00 629.00,115.00
             629.00,115.00 656.00,115.00 656.00,115.00
             656.00,115.00 656.00,133.00 656.00,133.00
             656.00,133.00 629.00,133.00 629.00,133.00
             629.00,133.00 629.00,160.00 629.00,160.00
             629.00,160.00 611.00,160.00 611.00,160.00
             611.00,160.00 611.00,133.00 611.00,133.00
             611.00,133.00 584.00,133.00 584.00,133.00
             584.00,133.00 584.00,115.00 584.00,115.00
             584.00,115.00 611.00,115.00 611.00,115.00
             611.00,115.00 611.00,88.00 611.00,88.00 Z
           M 274.00,362.12
           C 274.70,357.67 276.14,354.73 281.00,354.18
             281.00,354.18 292.00,355.00 292.00,355.00
             300.69,355.10 308.50,355.49 317.00,353.33
             327.80,350.59 326.52,346.11 333.00,344.00
             332.69,358.25 326.77,360.12 314.00,362.12
             299.95,364.59 287.90,363.13 274.00,362.12 Z
           M 531.00,437.24
           C 531.00,437.24 522.00,437.24 522.00,437.24
             509.88,436.70 497.40,432.02 486.00,428.08
             461.92,419.74 438.87,408.28 418.00,393.56
             410.88,388.54 399.13,378.90 395.56,371.00
             392.06,363.27 395.69,353.46 403.83,351.00
             403.75,354.15 402.80,358.02 403.83,361.00
             405.80,368.40 419.66,379.58 426.00,383.98
             449.21,400.08 469.67,410.76 496.00,420.94
             496.00,420.94 520.00,429.34 520.00,429.34
             525.54,431.07 529.11,430.94 531.00,437.24 Z
           M 247.00,391.00
           C 246.91,384.39 243.60,384.48 241.31,380.56
             239.99,378.30 239.86,371.65 240.11,369.00
             240.40,365.87 241.78,362.25 244.52,360.45
             246.17,359.36 248.42,359.06 249.07,361.30
             249.68,362.59 249.01,364.99 249.07,366.42
             248.56,371.63 249.25,378.94 253.27,382.69
             257.09,386.24 259.86,383.78 267.00,387.38
             274.99,391.41 279.94,399.90 283.04,408.00
             284.09,410.76 285.82,415.06 285.41,418.00
             285.15,419.89 284.26,421.45 283.20,423.00
             280.69,426.67 272.54,434.46 269.00,438.00
             263.91,443.09 259.42,448.87 252.00,450.00
             249.54,442.21 247.04,447.75 242.83,449.40
             240.97,450.13 238.02,449.99 236.00,450.00
             236.12,437.03 243.43,422.84 250.23,412.00
             250.23,412.00 260.33,397.47 260.33,397.47
             260.79,394.07 254.38,392.57 252.00,392.00
             250.90,395.33 247.45,402.21 243.82,403.22
             241.47,403.87 237.52,401.91 235.00,401.37
             232.83,400.90 231.22,401.02 229.00,400.16
             221.56,397.29 214.58,390.04 214.00,382.00
             221.60,383.22 233.28,395.65 242.00,397.00
             236.61,391.05 229.46,392.54 226.57,382.00
             225.84,379.37 225.50,365.30 231.42,369.13
             233.35,370.38 232.60,373.51 234.84,378.00
             237.47,383.29 241.84,388.17 247.00,391.00 Z
           M 428.00,412.00
           C 428.00,412.00 431.00,412.00 431.00,412.00
             430.11,422.63 426.11,430.19 419.00,438.00
             423.87,439.93 437.50,445.90 442.00,443.94
             449.50,440.68 453.97,431.03 460.00,429.00
             458.49,439.63 454.43,442.41 449.00,451.00
             449.00,451.00 468.00,458.03 468.00,458.03
             468.00,458.03 496.00,448.00 496.00,448.00
             493.66,455.97 484.58,460.83 477.00,463.00
             477.00,463.00 477.00,465.00 477.00,465.00
             477.00,465.00 489.00,469.33 489.00,469.33
             500.34,470.42 511.05,463.86 521.00,462.00
             518.55,470.32 510.22,472.77 503.00,476.00
             512.65,479.84 523.55,483.52 534.00,484.00
             532.21,488.59 527.45,488.18 523.00,488.72
             512.26,490.00 502.05,487.96 492.00,484.31
             492.00,484.31 457.00,468.61 457.00,468.61
             439.65,460.55 422.28,452.72 404.00,446.98
             398.35,445.20 376.09,438.77 371.30,439.07
             366.53,439.37 364.18,447.21 362.98,451.00
             359.52,461.90 359.65,478.72 374.00,481.00
             373.23,487.72 369.65,491.33 364.99,495.99
             356.55,504.42 348.11,509.23 336.00,508.98
             331.83,508.90 327.62,508.22 324.09,505.86
             312.04,497.79 315.38,485.37 313.00,477.00
             313.00,477.00 307.07,495.41 307.07,495.41
             307.07,495.41 304.00,497.00 304.00,497.00
             304.37,489.15 307.35,480.54 309.66,473.00
             313.03,461.94 316.35,451.30 321.78,441.00
             326.80,431.47 329.60,426.02 341.00,426.00
             341.00,426.00 351.00,426.00 351.00,426.00
             362.64,426.06 380.22,429.30 392.00,431.28
             395.86,431.94 402.72,434.44 406.00,434.15
             414.19,433.41 425.97,419.55 428.00,412.00 Z
           M 465.00,511.00
           C 467.18,503.10 472.39,503.59 479.00,505.94
             487.53,508.97 504.05,515.99 507.00,525.00
             501.62,524.20 496.94,521.04 492.00,518.86
             483.68,515.18 474.10,511.74 465.00,511.00 Z
           M 477.00,555.00
           C 472.10,553.55 468.84,549.44 465.07,546.09
             459.25,540.91 456.67,539.08 450.00,535.01
             447.73,533.63 440.85,530.90 443.07,527.39
             446.07,522.65 452.99,527.64 456.00,529.67
             463.84,534.96 475.64,545.24 477.00,555.00 Z
           M 670.00,635.00
           C 670.00,635.00 688.00,635.00 688.00,635.00
             688.00,635.00 688.00,662.00 688.00,662.00
             688.00,662.00 715.00,662.00 715.00,662.00
             715.00,662.00 715.00,680.00 715.00,680.00
             715.00,680.00 688.00,680.00 688.00,680.00
             688.00,680.00 688.00,707.00 688.00,707.00
             688.00,707.00 670.00,707.00 670.00,707.00
             670.00,707.00 670.00,680.00 670.00,680.00
             670.00,680.00 643.00,680.00 643.00,680.00
             643.00,680.00 643.00,662.00 643.00,662.00
             643.00,662.00 670.00,662.00 670.00,662.00
             670.00,662.00 670.00,635.00 670.00,635.00 Z
           M 192.00,653.00
           C 192.00,653.00 210.00,653.00 210.00,653.00
             210.00,653.00 210.00,680.00 210.00,680.00
             210.00,680.00 237.00,680.00 237.00,680.00
             237.00,680.00 237.00,698.00 237.00,698.00
             237.00,698.00 210.00,698.00 210.00,698.00
             210.00,698.00 210.00,725.00 210.00,725.00
             210.00,725.00 192.00,725.00 192.00,725.00
             192.00,725.00 192.00,698.00 192.00,698.00
             192.00,698.00 165.00,698.00 165.00,698.00
             165.00,698.00 165.00,680.00 165.00,680.00
             165.00,680.00 192.00,680.00 192.00,680.00
             192.00,680.00 192.00,653.00 192.00,653.00 Z" />
</svg>
