<?xml version="1.0" encoding="UTF-8" standalone="no"?>
<!DOCTYPE svg PUBLIC "-//W3C//DTD SVG 20010904//EN"
              "http://www.w3.org/TR/2001/REC-SVG-20010904/DTD/svg10.dtd">

<svg xmlns="http://www.w3.org/2000/svg"
     width="304.762mm" height="304.762mm"
     viewBox="0 0 864 864">
  <path id="16 - eye whites"
        fill="none" stroke="black" stroke-width="1"
        d="M 611.00,88.00
           C 611.00,88.00 629.00,88.00 629.00,88.00
             629.00,88.00 629.00,115.00 629.00,115.00
             629.00,115.00 656.00,115.00 656.00,115.00
             656.00,115.00 656.00,133.00 656.00,133.00
             656.00,133.00 629.00,133.00 629.00,133.00
             629.00,133.00 629.00,160.00 629.00,160.00
             629.00,160.00 611.00,160.00 611.00,160.00
             611.00,160.00 611.00,133.00 611.00,133.00
             611.00,133.00 584.00,133.00 584.00,133.00
             584.00,133.00 584.00,115.00 584.00,115.00
             584.00,115.00 611.00,115.00 611.00,115.00
             611.00,115.00 611.00,88.00 611.00,88.00 Z
           M 235.00,423.00
           C 236.90,413.56 240.21,406.77 245.88,399.00
             249.38,394.20 249.94,391.48 256.00,391.00
             254.93,397.75 249.32,402.41 245.70,408.00
             242.61,412.78 239.83,419.97 235.00,423.00 Z
           M 267.99,405.17
           C 268.49,405.12 269.19,404.53 270.82,405.17
             275.25,406.92 279.63,418.46 278.56,423.00
             277.70,426.65 273.69,431.13 271.25,434.00
             269.06,436.56 266.00,440.58 262.11,439.34
             258.20,438.11 257.17,432.52 257.04,429.00
             256.72,420.19 260.34,409.95 267.99,405.17 Z
           M 394.00,442.00
           C 394.00,454.49 394.01,466.06 384.82,475.96
             379.77,481.40 371.66,484.61 365.21,479.35
             357.96,473.45 359.32,455.96 362.08,448.00
             363.17,444.83 364.89,439.99 368.19,438.60
             373.05,436.54 388.15,441.18 394.00,442.00 Z
           M 244.00,451.00
           C 244.20,447.64 244.53,443.45 248.99,443.45
             250.13,443.45 251.26,443.84 252.01,444.74
             253.18,446.16 252.98,449.23 253.00,451.00
             253.00,451.00 244.00,451.00 244.00,451.00 Z
           M 402.00,446.00
           C 412.51,446.51 429.04,454.32 439.00,458.58
             439.00,458.58 474.00,474.75 474.00,474.75
             476.76,476.06 484.64,478.86 485.85,481.39
             487.16,484.14 483.77,488.74 482.31,491.00
             477.53,498.36 468.29,509.30 461.91,515.28
             454.67,522.07 453.35,522.76 445.00,527.50
             440.10,530.28 437.54,532.31 432.00,534.55
             413.05,542.21 386.56,541.02 367.00,536.13
             358.15,533.91 354.39,532.48 346.00,528.99
             341.82,527.25 338.57,526.49 337.00,522.00
             350.06,520.90 362.80,512.96 372.00,503.99
             386.88,489.47 401.01,467.41 402.00,446.00 Z
           M 344.11,474.03
           C 356.29,470.09 357.77,487.17 350.89,490.81
             342.75,495.13 334.95,481.42 344.11,474.03 Z
           M 670.00,635.00
           C 670.00,635.00 688.00,635.00 688.00,635.00
             688.00,635.00 688.00,662.00 688.00,662.00
             688.00,662.00 715.00,662.00 715.00,662.00
             715.00,662.00 715.00,680.00 715.00,680.00
             715.00,680.00 688.00,680.00 688.00,680.00
             688.00,680.00 688.00,707.00 688.00,707.00
             688.00,707.00 670.00,707.00 670.00,707.00
             670.00,707.00 670.00,680.00 670.00,680.00
             670.00,680.00 643.00,680.00 643.00,680.00
             643.00,680.00 643.00,662.00 643.00,662.00
             643.00,662.00 670.00,662.00 670.00,662.00
             670.00,662.00 670.00,635.00 670.00,635.00 Z
           M 192.00,653.00
           C 192.00,653.00 210.00,653.00 210.00,653.00
             210.00,653.00 210.00,680.00 210.00,680.00
             210.00,680.00 237.00,680.00 237.00,680.00
             237.00,680.00 237.00,698.00 237.00,698.00
             237.00,698.00 210.00,698.00 210.00,698.00
             210.00,698.00 210.00,725.00 210.00,725.00
             210.00,725.00 192.00,725.00 192.00,725.00
             192.00,725.00 192.00,698.00 192.00,698.00
             192.00,698.00 165.00,698.00 165.00,698.00
             165.00,698.00 165.00,680.00 165.00,680.00
             165.00,680.00 192.00,680.00 192.00,680.00
             192.00,680.00 192.00,653.00 192.00,653.00 Z" />
</svg>
