<?xml version="1.0" encoding="UTF-8" standalone="no"?>
<!DOCTYPE svg PUBLIC "-//W3C//DTD SVG 20010904//EN"
              "http://www.w3.org/TR/2001/REC-SVG-20010904/DTD/svg10.dtd">

<svg xmlns="http://www.w3.org/2000/svg"
     width="304.762mm" height="304.762mm"
     viewBox="0 0 864 864">
  <path id="2 - mint mane"
        fill="none" stroke="black" stroke-width="1"
        d="M 647.00,455.00
           C 647.00,455.00 650.39,440.00 650.39,440.00
             651.83,432.38 654.13,414.40 653.98,407.00
             653.98,407.00 653.09,398.00 653.09,398.00
             652.65,391.69 653.27,392.02 651.79,385.00
             650.57,379.21 648.21,365.94 642.90,363.02
             639.06,360.91 628.37,363.85 624.00,364.88
             606.96,368.93 587.46,375.84 572.00,384.04
             556.41,392.31 555.30,400.31 547.81,391.41
             547.81,391.41 535.99,376.91 535.99,376.91
             534.39,375.00 531.23,371.37 530.72,369.00
             529.97,365.56 533.68,361.00 535.33,358.00
             539.04,351.30 541.48,344.49 543.00,337.00
             547.24,316.07 543.04,293.80 535.58,274.00
             528.26,254.60 516.38,233.15 501.00,219.06
             493.36,212.06 490.05,216.14 485.78,211.69
             485.78,211.69 477.05,198.00 477.05,198.00
             477.05,198.00 458.85,171.00 458.85,171.00
             458.85,171.00 431.29,136.91 431.29,136.91
             418.45,119.29 406.03,91.08 406.00,69.00
             405.97,52.35 404.86,42.10 411.31,26.00
             413.68,20.08 415.01,14.00 422.00,13.00
             422.00,13.00 424.01,31.28 424.01,31.28
             427.34,53.87 438.97,87.16 452.62,105.39
             458.15,112.78 480.72,134.52 488.00,141.17
             488.00,141.17 497.09,150.27 497.09,150.27
             510.20,162.36 523.61,173.73 538.00,184.27
             563.71,203.09 582.67,212.27 602.52,239.00
             609.86,248.88 617.07,263.08 620.25,275.00
             620.25,275.00 624.00,290.00 624.00,290.00
             624.00,290.00 625.00,276.00 625.00,276.00
             625.00,276.00 625.00,266.00 625.00,266.00
             625.00,266.00 620.73,231.00 620.73,231.00
             620.73,231.00 617.11,213.00 617.11,213.00
             616.64,211.12 615.19,207.07 615.78,205.31
             617.76,199.40 627.11,208.24 629.00,210.04
             639.74,220.29 646.87,231.04 651.95,245.00
             656.11,256.47 655.32,257.80 656.09,269.00
             656.09,269.00 656.99,278.00 656.99,278.00
             656.99,278.00 656.44,289.00 656.44,289.00
             656.44,289.00 656.44,298.00 656.44,298.00
             655.44,314.23 649.99,332.93 644.00,348.00
             656.83,345.42 669.84,342.06 683.00,342.00
             683.00,342.00 712.00,342.00 712.00,342.00
             720.28,342.04 730.00,343.71 738.00,345.86
             743.01,347.21 745.31,346.72 747.00,352.00
             747.00,352.00 729.00,356.62 729.00,356.62
             729.00,356.62 700.00,367.42 700.00,367.42
             700.00,367.42 666.00,383.00 666.00,383.00
             666.00,383.00 666.00,385.00 666.00,385.00
             691.78,392.97 709.48,423.65 713.72,449.00
             713.72,449.00 715.96,467.00 715.96,467.00
             716.02,468.72 716.12,472.01 714.98,473.38
             711.80,477.22 704.11,467.12 702.00,465.00
             706.55,480.59 706.19,481.97 706.00,498.00
             705.94,502.44 705.21,506.96 703.09,510.94
             702.15,512.69 700.66,514.93 698.35,513.83
             696.43,512.92 694.71,508.87 693.74,507.00
             691.23,502.16 688.12,497.41 684.86,493.04
             684.86,493.04 669.79,474.09 669.79,474.09
             665.67,469.60 652.29,458.54 647.00,455.00 Z
           M 611.00,88.00
           C 611.00,88.00 629.00,88.00 629.00,88.00
             629.00,88.00 629.00,115.00 629.00,115.00
             629.00,115.00 656.00,115.00 656.00,115.00
             656.00,115.00 656.00,133.00 656.00,133.00
             656.00,133.00 629.00,133.00 629.00,133.00
             629.00,133.00 629.00,160.00 629.00,160.00
             629.00,160.00 611.00,160.00 611.00,160.00
             611.00,160.00 611.00,133.00 611.00,133.00
             611.00,133.00 584.00,133.00 584.00,133.00
             584.00,133.00 584.00,115.00 584.00,115.00
             584.00,115.00 611.00,115.00 611.00,115.00
             611.00,115.00 611.00,88.00 611.00,88.00 Z
           M 25.00,309.00
           C 25.00,309.00 41.99,308.30 41.99,308.30
             50.05,307.61 58.68,319.19 68.00,319.88
             68.00,319.88 93.00,317.09 93.00,317.09
             93.00,317.09 104.00,317.09 104.00,317.09
             104.00,317.09 117.00,318.00 117.00,318.00
             117.00,318.00 143.00,319.00 143.00,319.00
             143.00,319.00 159.00,318.00 159.00,318.00
             171.94,317.98 185.17,316.41 198.00,314.72
             226.12,311.02 253.87,304.45 281.00,296.28
             302.58,289.78 329.44,280.02 352.00,280.00
             352.00,280.00 351.00,303.00 351.00,303.00
             351.00,303.00 352.00,330.00 352.00,330.00
             352.00,330.00 320.00,339.12 320.00,339.12
             320.00,339.12 271.00,350.84 271.00,350.84
             271.00,350.84 259.00,355.18 259.00,355.18
             246.18,358.12 207.52,363.98 195.00,364.00
             195.00,364.00 161.00,364.00 161.00,364.00
             143.95,363.97 111.37,356.54 95.00,350.86
             76.09,344.30 58.07,337.07 41.00,326.42
             33.89,321.99 26.05,318.05 25.00,309.00 Z
           M 418.00,281.00
           C 425.66,281.17 432.99,284.10 440.00,287.01
             457.25,294.17 473.83,305.85 487.00,319.00
             492.57,324.56 501.33,331.15 503.00,339.00
             503.00,339.00 476.00,325.20 476.00,325.20
             456.40,317.44 445.14,316.66 425.00,314.00
             425.00,314.00 418.00,281.00 418.00,281.00 Z
           M 644.00,348.00
           C 644.00,348.00 643.00,348.00 643.00,348.00
             643.00,348.00 644.00,349.00 644.00,349.00
             644.00,349.00 644.00,348.00 644.00,348.00 Z
           M 626.00,617.00
           C 626.00,617.00 626.82,603.00 626.82,603.00
             626.82,603.00 623.73,549.00 623.73,549.00
             623.73,549.00 619.65,531.00 619.65,531.00
             619.65,531.00 615.83,520.00 615.83,520.00
             614.82,515.27 617.97,511.62 620.66,508.05
             621.83,506.50 623.47,504.04 625.77,504.71
             627.95,505.34 629.76,509.11 630.74,511.00
             633.92,517.12 636.58,523.53 638.95,530.00
             643.59,542.66 645.83,555.65 647.17,569.00
             648.63,583.58 650.36,591.57 641.02,603.83
             636.91,609.24 633.14,615.86 626.00,617.00 Z
           M 670.00,635.00
           C 670.00,635.00 688.00,635.00 688.00,635.00
             688.00,635.00 688.00,662.00 688.00,662.00
             688.00,662.00 715.00,662.00 715.00,662.00
             715.00,662.00 715.00,680.00 715.00,680.00
             715.00,680.00 688.00,680.00 688.00,680.00
             688.00,680.00 688.00,707.00 688.00,707.00
             688.00,707.00 670.00,707.00 670.00,707.00
             670.00,707.00 670.00,680.00 670.00,680.00
             670.00,680.00 643.00,680.00 643.00,680.00
             643.00,680.00 643.00,662.00 643.00,662.00
             643.00,662.00 670.00,662.00 670.00,662.00
             670.00,662.00 670.00,635.00 670.00,635.00 Z
           M 192.00,653.00
           C 192.00,653.00 210.00,653.00 210.00,653.00
             210.00,653.00 210.00,680.00 210.00,680.00
             210.00,680.00 237.00,680.00 237.00,680.00
             237.00,680.00 237.00,698.00 237.00,698.00
             237.00,698.00 210.00,698.00 210.00,698.00
             210.00,698.00 210.00,725.00 210.00,725.00
             210.00,725.00 192.00,725.00 192.00,725.00
             192.00,725.00 192.00,698.00 192.00,698.00
             192.00,698.00 165.00,698.00 165.00,698.00
             165.00,698.00 165.00,680.00 165.00,680.00
             165.00,680.00 192.00,680.00 192.00,680.00
             192.00,680.00 192.00,653.00 192.00,653.00 Z
           M 413.00,839.00
           C 413.65,831.85 418.05,824.10 420.56,817.00
             420.56,817.00 426.59,796.00 426.59,796.00
             426.59,796.00 429.84,786.00 429.84,786.00
             429.84,786.00 433.70,766.99 433.70,766.99
             433.70,766.99 438.38,749.00 438.38,749.00
             442.70,726.48 440.80,723.97 449.43,700.00
             452.80,690.65 457.77,679.38 463.05,671.00
             466.03,666.27 467.22,662.98 473.00,662.00
             473.45,667.58 474.46,671.10 473.83,677.00
             473.12,683.64 471.10,685.53 471.00,694.00
             471.00,694.00 471.00,737.00 471.00,737.00
             471.00,737.00 471.96,749.00 471.96,749.00
             471.96,749.00 471.96,765.00 471.96,765.00
             472.00,767.68 472.10,770.40 471.37,773.00
             471.37,773.00 456.60,803.00 456.60,803.00
             449.50,815.00 441.41,823.79 430.00,831.80
             423.50,836.36 421.09,838.80 413.00,839.00 Z" />
</svg>
