<?xml version="1.0" encoding="UTF-8" standalone="no"?>
<!DOCTYPE svg PUBLIC "-//W3C//DTD SVG 20010904//EN"
              "http://www.w3.org/TR/2001/REC-SVG-20010904/DTD/svg10.dtd">

<svg xmlns="http://www.w3.org/2000/svg"
     width="304.762mm" height="304.762mm"
     viewBox="0 0 864 864">
  <path id="3 - yellow mane"
        fill="none" stroke="black" stroke-width="1"
        d="M 234.00,81.00
           C 242.19,81.87 257.54,91.96 265.00,96.58
             265.00,96.58 306.00,117.58 306.00,117.58
             350.97,137.13 399.07,150.29 437.00,183.29
             460.19,203.46 478.36,232.62 489.80,261.00
             495.61,275.40 501.29,293.44 502.00,309.00
             496.76,307.31 495.10,303.21 491.79,299.00
             486.68,292.51 483.77,289.74 478.00,284.00
             465.25,271.31 447.74,258.65 432.00,249.86
             432.00,249.86 417.00,241.86 417.00,241.86
             413.58,240.31 409.27,239.10 407.14,235.79
             405.79,233.72 403.62,225.00 402.66,222.00
             398.50,209.00 390.64,185.29 379.00,177.70
             373.19,173.92 369.23,177.05 365.63,182.00
             360.69,188.82 358.47,199.76 357.08,208.00
             356.46,211.69 356.68,217.34 351.94,217.77
             349.86,217.95 344.45,216.52 342.00,216.08
             323.05,212.73 319.00,210.49 304.17,197.45
             290.97,185.85 283.89,179.72 273.43,165.00
             265.29,153.54 257.34,136.73 250.90,124.00
             246.29,114.91 241.07,105.72 237.91,96.00
             237.91,96.00 236.54,90.17 236.54,90.17
             235.13,85.51 234.59,87.44 234.00,81.00 Z
           M 611.00,88.00
           C 611.00,88.00 629.00,88.00 629.00,88.00
             629.00,88.00 629.00,115.00 629.00,115.00
             629.00,115.00 656.00,115.00 656.00,115.00
             656.00,115.00 656.00,133.00 656.00,133.00
             656.00,133.00 629.00,133.00 629.00,133.00
             629.00,133.00 629.00,160.00 629.00,160.00
             629.00,160.00 611.00,160.00 611.00,160.00
             611.00,160.00 611.00,133.00 611.00,133.00
             611.00,133.00 584.00,133.00 584.00,133.00
             584.00,133.00 584.00,115.00 584.00,115.00
             584.00,115.00 611.00,115.00 611.00,115.00
             611.00,115.00 611.00,88.00 611.00,88.00 Z
           M 578.00,652.00
           C 584.48,646.29 587.96,635.10 590.67,627.00
             598.09,604.80 603.28,590.87 603.00,567.00
             602.93,560.94 601.18,551.99 599.76,546.00
             599.15,543.40 597.20,538.54 597.74,536.17
             598.22,534.09 609.40,522.05 611.42,520.32
             615.39,516.90 617.27,518.94 618.93,523.02
             620.77,527.51 622.83,536.10 623.80,541.00
             627.59,560.04 626.97,572.09 627.00,591.00
             627.00,591.00 627.92,604.00 627.92,604.00
             627.92,604.00 627.09,612.00 627.09,612.00
             626.94,613.93 627.08,616.17 626.40,618.00
             625.07,621.62 619.92,626.05 617.05,628.71
             611.74,633.64 606.65,638.73 600.71,642.95
             595.72,646.51 587.97,650.69 585.00,656.00
             580.83,655.85 579.48,656.21 578.00,652.00 Z
           M 458.75,814.00
           C 458.75,814.00 458.75,795.00 458.75,795.00
             458.75,795.00 469.90,772.00 469.90,772.00
             471.64,766.79 471.01,754.97 471.00,749.00
             471.00,749.00 470.00,732.00 470.00,732.00
             470.00,732.00 470.00,695.00 470.00,695.00
             470.00,695.00 472.81,671.00 472.81,671.00
             472.55,667.84 470.95,663.90 471.52,661.00
             472.45,656.22 485.04,643.25 488.84,639.00
             494.04,633.18 501.51,623.20 509.00,621.00
             509.00,621.00 503.44,647.00 503.44,647.00
             503.44,647.00 501.72,662.00 501.72,662.00
             501.72,662.00 498.83,687.00 498.83,687.00
             498.83,687.00 497.91,693.42 497.91,693.42
             497.91,693.42 497.91,700.00 497.91,700.00
             497.91,700.00 495.80,722.00 495.80,722.00
             495.80,722.00 495.80,737.00 495.80,737.00
             495.98,746.68 493.72,762.83 490.67,772.00
             486.22,785.34 481.65,793.57 472.33,804.17
             468.17,808.91 465.51,812.95 458.75,814.00 Z
           M 670.00,635.00
           C 670.00,635.00 688.00,635.00 688.00,635.00
             688.00,635.00 688.00,662.00 688.00,662.00
             688.00,662.00 715.00,662.00 715.00,662.00
             715.00,662.00 715.00,680.00 715.00,680.00
             715.00,680.00 688.00,680.00 688.00,680.00
             688.00,680.00 688.00,707.00 688.00,707.00
             688.00,707.00 670.00,707.00 670.00,707.00
             670.00,707.00 670.00,680.00 670.00,680.00
             670.00,680.00 643.00,680.00 643.00,680.00
             643.00,680.00 643.00,662.00 643.00,662.00
             643.00,662.00 670.00,662.00 670.00,662.00
             670.00,662.00 670.00,635.00 670.00,635.00 Z
           M 192.00,653.00
           C 192.00,653.00 210.00,653.00 210.00,653.00
             210.00,653.00 210.00,680.00 210.00,680.00
             210.00,680.00 237.00,680.00 237.00,680.00
             237.00,680.00 237.00,698.00 237.00,698.00
             237.00,698.00 210.00,698.00 210.00,698.00
             210.00,698.00 210.00,725.00 210.00,725.00
             210.00,725.00 192.00,725.00 192.00,725.00
             192.00,725.00 192.00,698.00 192.00,698.00
             192.00,698.00 165.00,698.00 165.00,698.00
             165.00,698.00 165.00,680.00 165.00,680.00
             165.00,680.00 192.00,680.00 192.00,680.00
             192.00,680.00 192.00,653.00 192.00,653.00 Z" />
</svg>
