<?xml version="1.0" encoding="UTF-8" standalone="no"?>
<!DOCTYPE svg PUBLIC "-//W3C//DTD SVG 20010904//EN"
              "http://www.w3.org/TR/2001/REC-SVG-20010904/DTD/svg10.dtd">

<svg xmlns="http://www.w3.org/2000/svg"
     width="304.762mm" height="304.762mm"
     viewBox="0 0 864 864">
  <path id="4 - purple mane"
        fill="none" stroke="black" stroke-width="1"
        d="M 211.00,33.00
           C 213.03,33.23 214.06,33.25 216.00,34.14
             216.00,34.14 239.00,51.37 239.00,51.37
             254.80,63.10 270.79,72.63 289.00,80.14
             289.00,80.14 328.00,94.45 328.00,94.45
             364.24,109.20 407.39,129.42 438.00,153.81
             446.80,160.82 466.16,178.43 472.77,187.00
             472.77,187.00 488.53,210.49 488.53,210.49
             491.44,213.14 494.64,212.75 498.00,214.03
             501.33,215.29 503.50,217.46 505.91,220.00
             534.33,250.00 554.16,305.12 542.57,346.00
             540.19,354.41 536.49,360.64 532.00,368.00
             525.18,366.00 522.67,360.93 517.96,356.00
             517.96,356.00 507.29,345.00 507.29,345.00
             507.29,345.00 488.00,323.00 488.00,323.00
             475.15,310.24 460.22,299.31 444.00,291.25
             438.00,288.27 433.33,286.44 427.00,284.33
             424.60,283.53 419.66,282.38 418.14,280.47
             416.66,278.61 415.31,270.77 414.63,268.00
             412.56,259.63 408.37,244.95 408.00,237.00
             415.70,237.82 430.99,246.60 438.00,250.80
             452.94,259.75 469.77,271.63 481.99,284.00
             489.02,291.13 494.77,299.21 501.00,307.00
             501.00,307.00 494.98,281.00 494.98,281.00
             485.55,250.55 465.77,214.37 442.99,192.04
             422.07,171.53 395.38,157.39 369.00,145.31
             369.00,145.31 326.00,128.19 326.00,128.19
             305.49,120.24 277.46,107.31 259.00,95.68
             259.00,95.68 234.56,81.25 234.56,81.25
             234.56,81.25 225.49,60.00 225.49,60.00
             221.50,52.74 211.86,40.48 211.00,33.00 Z
           M 611.00,88.00
           C 611.00,88.00 629.00,88.00 629.00,88.00
             629.00,88.00 629.00,115.00 629.00,115.00
             629.00,115.00 656.00,115.00 656.00,115.00
             656.00,115.00 656.00,133.00 656.00,133.00
             656.00,133.00 629.00,133.00 629.00,133.00
             629.00,133.00 629.00,160.00 629.00,160.00
             629.00,160.00 611.00,160.00 611.00,160.00
             611.00,160.00 611.00,133.00 611.00,133.00
             611.00,133.00 584.00,133.00 584.00,133.00
             584.00,133.00 584.00,115.00 584.00,115.00
             584.00,115.00 611.00,115.00 611.00,115.00
             611.00,115.00 611.00,88.00 611.00,88.00 Z
           M 146.00,188.00
           C 155.95,188.03 167.08,191.83 177.00,194.11
             177.00,194.11 219.00,201.57 219.00,201.57
             219.00,201.57 228.00,202.29 228.00,202.29
             228.00,202.29 236.00,203.71 236.00,203.71
             236.00,203.71 273.00,206.00 273.00,206.00
             273.00,206.00 290.00,207.00 290.00,207.00
             290.00,207.00 313.00,208.17 313.00,208.17
             325.27,209.36 322.99,210.03 333.00,212.71
             333.00,212.71 355.00,217.00 355.00,217.00
             355.00,217.00 354.00,236.00 354.00,236.00
             354.00,236.00 353.00,251.00 353.00,251.00
             353.00,251.00 352.00,281.00 352.00,281.00
             334.70,281.38 309.68,289.32 293.00,294.66
             273.99,300.73 254.55,305.95 235.00,310.00
             211.19,314.93 187.25,317.98 163.00,319.04
             163.00,319.04 150.00,320.00 150.00,320.00
             150.00,320.00 130.00,320.00 130.00,320.00
             130.00,320.00 118.00,318.96 118.00,318.96
             118.00,318.96 108.00,318.96 108.00,318.96
             103.90,318.44 102.56,317.86 98.00,317.88
             84.22,318.57 68.86,324.87 56.00,317.88
             51.26,315.08 46.96,313.70 46.00,308.00
             46.00,308.00 64.00,308.00 64.00,308.00
             72.25,307.99 79.92,306.35 88.00,305.13
             103.68,302.77 121.54,299.57 136.00,292.88
             149.99,286.42 157.37,279.83 170.00,271.69
             186.11,261.32 211.98,247.02 230.00,241.00
             230.00,241.00 199.00,230.19 199.00,230.19
             187.97,225.90 174.60,218.48 165.00,211.57
             157.43,206.13 147.10,197.76 146.00,188.00 Z
           M 502.00,363.00
           C 510.72,364.01 513.79,369.82 514.00,378.00
             505.96,376.29 502.44,370.90 502.00,363.00 Z
           M 512.00,394.00
           C 504.94,393.58 501.14,390.35 497.82,384.00
             497.13,382.24 495.62,378.58 497.82,377.07
             499.84,375.41 503.31,377.79 504.96,379.23
             509.69,383.33 511.66,387.89 512.00,394.00 Z
           M 516.60,387.13
           C 520.34,386.39 523.07,388.59 524.67,392.01
             525.49,393.77 525.95,396.45 523.67,397.34
             519.80,398.86 512.83,392.33 516.60,387.13 Z
           M 647.00,453.00
           C 653.07,454.73 658.33,459.91 663.00,464.05
             667.58,468.11 672.33,471.66 675.52,477.00
             679.07,482.95 681.91,496.02 682.00,503.00
             682.00,503.00 682.00,521.00 682.00,521.00
             681.84,534.45 675.85,547.76 670.88,560.00
             667.00,569.58 660.34,581.33 654.66,590.00
             653.37,591.97 649.63,598.58 646.54,596.83
             643.84,595.26 646.03,589.30 646.54,587.00
             647.33,582.77 645.60,564.89 644.75,560.00
             642.55,547.31 638.99,533.76 633.69,522.00
             631.60,517.37 624.64,506.53 625.55,502.00
             625.55,502.00 634.74,484.00 634.74,484.00
             639.81,474.05 643.48,463.57 647.00,453.00 Z
           M 599.00,536.00
           C 601.31,547.49 603.98,554.70 604.00,567.00
             604.04,590.40 601.37,600.90 594.00,623.00
             590.90,632.31 586.79,645.17 581.07,653.00
             570.17,667.95 551.59,676.12 539.04,695.00
             531.21,706.77 531.24,723.62 516.82,740.00
             514.77,742.33 507.20,751.27 503.74,748.95
             501.54,747.48 501.13,735.02 500.83,732.00
             500.83,732.00 498.00,683.00 498.00,683.00
             498.00,683.00 500.71,658.00 500.71,658.00
             503.95,633.97 506.96,618.62 516.72,596.00
             519.07,590.55 526.69,574.00 530.53,570.51
             532.89,568.36 540.46,566.84 544.00,565.67
             553.88,562.39 560.85,559.81 570.00,554.57
             577.17,550.47 593.70,537.51 599.00,536.00 Z
           M 670.00,635.00
           C 670.00,635.00 688.00,635.00 688.00,635.00
             688.00,635.00 688.00,662.00 688.00,662.00
             688.00,662.00 715.00,662.00 715.00,662.00
             715.00,662.00 715.00,680.00 715.00,680.00
             715.00,680.00 688.00,680.00 688.00,680.00
             688.00,680.00 688.00,707.00 688.00,707.00
             688.00,707.00 670.00,707.00 670.00,707.00
             670.00,707.00 670.00,680.00 670.00,680.00
             670.00,680.00 643.00,680.00 643.00,680.00
             643.00,680.00 643.00,662.00 643.00,662.00
             643.00,662.00 670.00,662.00 670.00,662.00
             670.00,662.00 670.00,635.00 670.00,635.00 Z
           M 192.00,653.00
           C 192.00,653.00 210.00,653.00 210.00,653.00
             210.00,653.00 210.00,680.00 210.00,680.00
             210.00,680.00 237.00,680.00 237.00,680.00
             237.00,680.00 237.00,698.00 237.00,698.00
             237.00,698.00 210.00,698.00 210.00,698.00
             210.00,698.00 210.00,725.00 210.00,725.00
             210.00,725.00 192.00,725.00 192.00,725.00
             192.00,725.00 192.00,698.00 192.00,698.00
             192.00,698.00 165.00,698.00 165.00,698.00
             165.00,698.00 165.00,680.00 165.00,680.00
             165.00,680.00 192.00,680.00 192.00,680.00
             192.00,680.00 192.00,653.00 192.00,653.00 Z" />
</svg>
