<?xml version="1.0" encoding="UTF-8" standalone="no"?>
<!DOCTYPE svg PUBLIC "-//W3C//DTD SVG 20010904//EN"
              "http://www.w3.org/TR/2001/REC-SVG-20010904/DTD/svg10.dtd">

<svg xmlns="http://www.w3.org/2000/svg"
     width="304.762mm" height="304.762mm"
     viewBox="0 0 864 864">
  <path id="5 - Minty Mane outline 1"
        fill="none" stroke="black" stroke-width="1"
        d="M 499.00,215.00
           C 495.92,214.93 489.91,214.63 487.33,212.99
             484.64,211.29 480.83,204.00 478.95,201.00
             478.95,201.00 460.98,174.00 460.98,174.00
             460.98,174.00 423.46,125.00 423.46,125.00
             414.68,110.47 406.03,86.05 406.00,69.00
             406.00,69.00 406.00,50.00 406.00,50.00
             406.11,41.14 409.13,31.12 412.58,23.00
             414.87,17.63 415.71,13.90 422.00,13.00
             422.00,13.00 424.01,31.28 424.01,31.28
             427.34,53.87 438.97,87.16 452.62,105.39
             458.15,112.78 480.72,134.52 488.00,141.17
             488.00,141.17 497.09,150.27 497.09,150.27
             510.20,162.36 523.61,173.73 538.00,184.27
             563.71,203.09 582.67,212.27 602.52,239.00
             609.86,248.88 617.07,263.08 620.25,275.00
             620.25,275.00 624.00,290.00 624.00,290.00
             624.00,290.00 625.00,276.00 625.00,276.00
             625.00,276.00 625.00,266.00 625.00,266.00
             625.00,266.00 620.73,231.00 620.73,231.00
             620.73,231.00 617.11,213.00 617.11,213.00
             616.64,211.12 615.19,207.07 615.78,205.31
             617.76,199.40 627.11,208.24 629.00,210.04
             639.74,220.29 646.87,231.04 651.95,245.00
             656.11,256.47 655.32,257.80 656.09,269.00
             656.09,269.00 656.99,278.00 656.99,278.00
             656.99,278.00 656.44,289.00 656.44,289.00
             656.44,289.00 656.44,298.00 656.44,298.00
             655.44,314.23 649.99,332.93 644.00,348.00
             656.83,345.42 669.84,342.06 683.00,342.00
             683.00,342.00 712.00,342.00 712.00,342.00
             720.28,342.04 730.00,343.71 738.00,345.86
             743.01,347.21 745.31,346.72 747.00,352.00
             747.00,352.00 729.00,356.62 729.00,356.62
             729.00,356.62 700.00,367.42 700.00,367.42
             700.00,367.42 666.00,383.00 666.00,383.00
             666.00,383.00 666.00,385.00 666.00,385.00
             691.78,392.97 709.48,423.65 713.72,449.00
             713.72,449.00 715.96,467.00 715.96,467.00
             716.02,468.72 716.12,472.01 714.98,473.38
             711.80,477.22 704.11,467.12 702.00,465.00
             706.55,480.59 706.19,481.97 706.00,498.00
             705.94,502.44 705.21,506.96 703.09,510.94
             702.15,512.69 700.66,514.93 698.35,513.83
             696.43,512.92 694.71,508.87 693.74,507.00
             691.23,502.16 688.12,497.41 684.86,493.04
             684.86,493.04 669.79,474.09 669.79,474.09
             665.67,469.60 652.29,458.54 647.00,455.00
             647.00,455.00 650.00,440.00 650.00,440.00
             656.67,441.36 660.91,445.49 666.00,449.75
             679.74,461.24 682.95,467.37 693.00,481.00
             690.61,464.08 681.19,449.19 670.79,436.00
             667.42,431.73 655.93,419.67 654.60,416.00
             654.01,414.38 654.06,412.69 654.00,411.00
             660.35,411.72 665.86,415.83 671.00,419.44
             683.11,427.93 690.58,434.58 701.00,445.00
             698.38,428.26 683.36,411.86 670.00,402.44
             655.53,392.24 654.05,396.71 651.84,386.00
             651.66,384.19 651.11,381.88 651.84,380.09
             652.86,376.44 660.66,371.79 664.00,369.87
             671.72,365.43 679.77,361.43 688.00,358.01
             692.83,356.00 699.08,354.38 703.00,351.00
             688.97,351.01 666.99,354.10 653.00,356.80
             653.00,356.80 626.00,362.00 626.00,362.00
             626.00,362.00 638.58,326.00 638.58,326.00
             647.80,294.44 648.22,264.19 634.00,234.00
             635.18,242.71 636.99,251.15 637.00,260.00
             637.04,288.60 634.33,309.61 619.85,335.00
             615.81,342.08 607.75,357.61 600.00,360.00
             601.65,353.24 606.76,347.37 609.59,341.00
             611.12,337.54 611.95,328.94 612.00,325.00
             612.37,293.47 602.15,261.69 580.83,238.00
             565.91,221.42 555.30,214.87 538.00,202.12
             538.00,202.12 508.00,179.20 508.00,179.20
             478.06,155.34 450.06,129.63 430.87,96.00
             430.87,96.00 421.00,76.00 421.00,76.00
             421.74,84.85 426.51,96.87 430.23,105.00
             439.80,125.91 448.83,135.36 462.58,153.00
             462.58,153.00 479.67,177.00 479.67,177.00
             485.37,185.57 497.96,205.23 499.00,215.00 Z
           M 611.00,88.00
           C 611.00,88.00 629.00,88.00 629.00,88.00
             629.00,88.00 629.00,115.00 629.00,115.00
             629.00,115.00 656.00,115.00 656.00,115.00
             656.00,115.00 656.00,133.00 656.00,133.00
             656.00,133.00 629.00,133.00 629.00,133.00
             629.00,133.00 629.00,160.00 629.00,160.00
             629.00,160.00 611.00,160.00 611.00,160.00
             611.00,160.00 611.00,133.00 611.00,133.00
             611.00,133.00 584.00,133.00 584.00,133.00
             584.00,133.00 584.00,115.00 584.00,115.00
             584.00,115.00 611.00,115.00 611.00,115.00
             611.00,115.00 611.00,88.00 611.00,88.00 Z
           M 634.00,232.00
           C 634.00,232.00 633.00,232.00 633.00,232.00
             633.00,232.00 634.00,233.00 634.00,233.00
             634.00,233.00 634.00,232.00 634.00,232.00 Z
           M 575.00,296.00
           C 575.00,296.00 578.00,296.00 578.00,296.00
             578.00,296.00 578.99,313.00 578.99,313.00
             579.37,329.20 575.74,348.12 567.19,362.00
             563.11,368.61 555.99,376.91 550.00,381.77
             547.23,384.02 542.02,386.15 540.74,380.98
             539.96,377.82 544.02,374.90 546.00,372.96
             552.23,366.89 555.27,363.34 559.95,356.00
             571.81,337.37 575.00,317.66 575.00,296.00 Z
           M 25.00,309.00
           C 25.00,309.00 41.99,308.30 41.99,308.30
             47.41,307.83 54.31,313.58 59.00,316.40
             71.80,324.08 79.22,327.38 93.00,332.80
             121.51,343.99 152.37,350.35 183.00,350.00
             183.00,350.00 193.00,349.09 193.00,349.09
             228.30,346.66 264.65,339.11 299.00,330.63
             299.00,330.63 332.00,322.12 332.00,322.12
             339.00,320.27 343.61,318.17 351.00,318.00
             351.00,318.00 352.00,330.00 352.00,330.00
             352.00,330.00 320.00,339.12 320.00,339.12
             320.00,339.12 271.00,350.84 271.00,350.84
             271.00,350.84 259.00,355.18 259.00,355.18
             246.18,358.12 207.52,363.98 195.00,364.00
             195.00,364.00 161.00,364.00 161.00,364.00
             143.95,363.97 111.37,356.54 95.00,350.86
             76.09,344.30 58.07,337.07 41.00,326.42
             33.89,321.99 26.05,318.05 25.00,309.00 Z
           M 425.00,311.00
           C 430.66,311.00 442.57,309.78 445.00,316.00
             445.00,316.00 425.00,314.00 425.00,314.00
             425.00,314.00 425.00,311.00 425.00,311.00 Z
           M 595.00,331.00
           C 595.00,331.00 598.00,331.00 598.00,331.00
             595.75,346.96 588.16,369.99 576.00,380.87
             576.00,380.87 556.00,394.55 556.00,394.55
             553.43,395.81 549.85,395.70 549.74,392.05
             549.67,389.30 553.02,387.65 555.00,386.39
             560.12,383.15 565.61,379.09 569.99,374.91
             581.20,364.22 590.97,345.96 595.00,331.00 Z
           M 644.00,348.00
           C 644.00,348.00 643.00,348.00 643.00,348.00
             643.00,348.00 644.00,349.00 644.00,349.00
             644.00,349.00 644.00,348.00 644.00,348.00 Z
           M 702.00,445.00
           C 702.00,445.00 701.00,445.00 701.00,445.00
             701.00,445.00 702.00,446.00 702.00,446.00
             702.00,446.00 702.00,445.00 702.00,445.00 Z
           M 626.86,618.00
           C 625.57,612.95 626.13,611.97 626.86,607.00
             627.05,604.18 626.82,600.53 627.72,598.00
             628.72,595.20 634.87,587.18 637.00,584.00
             640.11,579.36 642.47,573.79 648.00,572.00
             648.00,576.99 648.40,588.78 647.29,593.00
             645.30,600.61 633.82,614.34 626.86,618.00 Z
           M 670.00,635.00
           C 670.00,635.00 688.00,635.00 688.00,635.00
             688.00,635.00 688.00,662.00 688.00,662.00
             688.00,662.00 715.00,662.00 715.00,662.00
             715.00,662.00 715.00,680.00 715.00,680.00
             715.00,680.00 688.00,680.00 688.00,680.00
             688.00,680.00 688.00,707.00 688.00,707.00
             688.00,707.00 670.00,707.00 670.00,707.00
             670.00,707.00 670.00,680.00 670.00,680.00
             670.00,680.00 643.00,680.00 643.00,680.00
             643.00,680.00 643.00,662.00 643.00,662.00
             643.00,662.00 670.00,662.00 670.00,662.00
             670.00,662.00 670.00,635.00 670.00,635.00 Z
           M 192.00,653.00
           C 192.00,653.00 210.00,653.00 210.00,653.00
             210.00,653.00 210.00,680.00 210.00,680.00
             210.00,680.00 237.00,680.00 237.00,680.00
             237.00,680.00 237.00,698.00 237.00,698.00
             237.00,698.00 210.00,698.00 210.00,698.00
             210.00,698.00 210.00,725.00 210.00,725.00
             210.00,725.00 192.00,725.00 192.00,725.00
             192.00,725.00 192.00,698.00 192.00,698.00
             192.00,698.00 165.00,698.00 165.00,698.00
             165.00,698.00 165.00,680.00 165.00,680.00
             165.00,680.00 192.00,680.00 192.00,680.00
             192.00,680.00 192.00,653.00 192.00,653.00 Z
           M 463.00,671.00
           C 464.18,673.98 463.99,675.84 463.84,679.00
             463.84,679.00 463.84,695.00 463.84,695.00
             463.84,695.00 456.88,717.00 456.88,717.00
             448.69,748.08 450.90,774.81 437.23,805.00
             437.23,805.00 425.28,828.00 425.28,828.00
             421.43,834.78 421.18,838.71 413.00,839.00
             413.65,831.85 418.05,824.10 420.56,817.00
             420.56,817.00 426.59,796.00 426.59,796.00
             426.59,796.00 430.10,785.00 430.10,785.00
             430.10,785.00 433.00,772.42 433.00,772.42
             433.00,772.42 433.93,766.00 433.93,766.00
             433.93,766.00 438.38,749.00 438.38,749.00
             438.38,749.00 443.70,717.00 443.70,717.00
             443.70,717.00 446.96,708.00 446.96,708.00
             451.50,694.28 455.55,683.56 463.00,671.00 Z" />
</svg>
