<?xml version="1.0" encoding="UTF-8" standalone="no"?>
<!DOCTYPE svg PUBLIC "-//W3C//DTD SVG 20010904//EN"
              "http://www.w3.org/TR/2001/REC-SVG-20010904/DTD/svg10.dtd">

<svg xmlns="http://www.w3.org/2000/svg"
     width="304.762mm" height="304.762mm"
     viewBox="0 0 864 864">
  <path id="7 - purple mane outline"
        fill="none" stroke="black" stroke-width="1"
        d="M 211.00,33.00
           C 218.97,33.92 229.29,44.10 236.00,49.13
             250.66,60.12 266.16,70.25 283.00,77.58
             283.00,77.58 328.00,94.45 328.00,94.45
             371.33,112.09 418.02,134.54 452.82,166.28
             452.82,166.28 473.53,188.00 473.53,188.00
             473.53,188.00 486.44,207.95 486.44,207.95
             491.74,215.52 497.08,211.29 500.93,216.30
             503.07,219.10 506.39,230.19 507.37,234.00
             512.35,253.33 512.00,260.61 512.00,280.00
             506.97,278.29 506.66,274.63 504.80,270.00
             504.80,270.00 494.24,247.00 494.24,247.00
             483.09,225.05 462.12,195.57 444.00,179.17
             408.77,147.29 363.74,124.05 320.00,106.01
             300.25,97.86 261.68,86.21 246.00,75.00
             246.00,75.00 249.00,88.00 249.00,88.00
             244.83,87.22 236.54,83.94 233.93,80.53
             233.93,80.53 224.31,58.00 224.31,58.00
             220.45,51.61 211.78,39.79 211.00,33.00 Z
           M 611.00,88.00
           C 611.00,88.00 629.00,88.00 629.00,88.00
             629.00,88.00 629.00,115.00 629.00,115.00
             629.00,115.00 656.00,115.00 656.00,115.00
             656.00,115.00 656.00,133.00 656.00,133.00
             656.00,133.00 629.00,133.00 629.00,133.00
             629.00,133.00 629.00,160.00 629.00,160.00
             629.00,160.00 611.00,160.00 611.00,160.00
             611.00,160.00 611.00,133.00 611.00,133.00
             611.00,133.00 584.00,133.00 584.00,133.00
             584.00,133.00 584.00,115.00 584.00,115.00
             584.00,115.00 611.00,115.00 611.00,115.00
             611.00,115.00 611.00,88.00 611.00,88.00 Z
           M 146.00,188.00
           C 155.95,188.03 167.08,191.83 177.00,194.11
             177.00,194.11 219.00,201.57 219.00,201.57
             219.00,201.57 259.00,205.06 259.00,205.06
             259.00,205.06 275.01,205.06 275.01,205.06
             275.01,205.06 282.00,206.00 282.00,206.00
             282.00,206.00 291.00,206.00 291.00,206.00
             291.00,206.00 313.00,208.17 313.00,208.17
             325.27,209.36 322.99,210.03 333.00,212.71
             333.00,212.71 355.00,217.00 355.00,217.00
             355.00,217.00 354.00,229.00 354.00,229.00
             354.00,229.00 310.00,221.28 310.00,221.28
             288.33,218.58 266.82,218.03 245.00,218.00
             245.00,218.00 217.00,215.58 217.00,215.58
             211.71,214.83 205.11,212.97 200.00,214.00
             200.00,214.00 217.00,220.58 217.00,220.58
             229.68,225.36 245.49,229.75 259.00,230.94
             267.41,231.67 275.69,229.28 284.00,228.28
             284.00,228.28 299.00,227.18 299.00,227.18
             303.80,226.84 321.74,228.93 327.00,230.00
             331.15,230.85 334.35,230.78 336.00,235.00
             336.00,235.00 325.00,234.18 325.00,234.18
             325.00,234.18 301.00,236.43 301.00,236.43
             270.40,240.96 233.17,254.62 206.00,269.31
             206.00,269.31 177.00,285.60 177.00,285.60
             154.76,298.86 147.02,305.16 121.00,312.58
             106.86,316.61 84.60,320.83 70.00,320.75
             67.63,321.02 64.24,321.11 62.00,320.75
             58.93,319.67 48.66,314.01 46.99,311.48
             46.14,310.18 46.23,309.39 46.00,308.00
             46.00,308.00 62.00,307.09 62.00,307.09
             86.94,305.38 112.89,303.57 136.00,292.88
             149.99,286.42 157.37,279.83 170.00,271.69
             186.11,261.32 211.98,247.02 230.00,241.00
             230.00,241.00 199.00,230.19 199.00,230.19
             187.97,225.90 174.60,218.48 165.00,211.57
             157.43,206.13 147.10,197.76 146.00,188.00 Z
           M 408.00,237.00
           C 415.70,237.82 430.99,246.60 438.00,250.80
             460.12,264.05 480.02,279.23 495.63,300.00
             501.27,307.51 508.24,316.61 510.00,326.00
             503.49,323.92 493.00,308.72 486.99,303.28
             469.53,287.51 454.40,275.02 434.00,263.01
             434.00,263.01 420.00,255.25 420.00,255.25
             417.32,253.90 412.63,251.93 410.85,249.61
             408.71,246.82 408.16,240.49 408.00,237.00 Z
           M 597.00,611.00
           C 596.07,621.32 586.06,646.96 579.53,655.00
             573.36,662.61 564.53,669.24 557.00,675.59
             549.90,681.59 540.86,690.66 536.66,699.00
             536.66,699.00 532.36,711.00 532.36,711.00
             530.82,715.23 526.24,726.41 524.08,730.00
             521.24,734.71 511.14,748.03 506.11,749.27
             501.01,750.52 501.20,737.28 500.98,734.00
             500.98,734.00 499.71,720.00 499.71,720.00
             498.89,713.69 498.04,713.34 498.00,706.00
             498.00,706.00 498.00,683.00 498.00,683.00
             498.00,683.00 500.71,658.00 500.71,658.00
             504.09,632.94 507.02,618.59 517.15,595.00
             519.44,589.67 527.21,572.85 531.33,569.85
             533.89,567.99 542.68,566.30 546.00,566.00
             545.06,572.21 540.55,577.62 537.42,583.00
             531.11,593.88 528.90,598.33 524.20,610.00
             515.21,632.29 513.52,649.44 511.91,673.00
             511.91,673.00 511.00,685.00 511.00,685.00
             510.99,693.70 510.10,720.33 512.00,727.00
             513.92,722.53 515.93,718.73 517.25,714.00
             520.31,703.11 518.44,700.23 525.70,689.00
             538.58,669.05 558.37,658.17 573.83,641.00
             577.98,636.39 584.92,627.28 588.19,622.00
             590.71,617.93 592.28,612.65 597.00,611.00 Z
           M 670.00,635.00
           C 670.00,635.00 688.00,635.00 688.00,635.00
             688.00,635.00 688.00,662.00 688.00,662.00
             688.00,662.00 715.00,662.00 715.00,662.00
             715.00,662.00 715.00,680.00 715.00,680.00
             715.00,680.00 688.00,680.00 688.00,680.00
             688.00,680.00 688.00,707.00 688.00,707.00
             688.00,707.00 670.00,707.00 670.00,707.00
             670.00,707.00 670.00,680.00 670.00,680.00
             670.00,680.00 643.00,680.00 643.00,680.00
             643.00,680.00 643.00,662.00 643.00,662.00
             643.00,662.00 670.00,662.00 670.00,662.00
             670.00,662.00 670.00,635.00 670.00,635.00 Z
           M 192.00,653.00
           C 192.00,653.00 210.00,653.00 210.00,653.00
             210.00,653.00 210.00,680.00 210.00,680.00
             210.00,680.00 237.00,680.00 237.00,680.00
             237.00,680.00 237.00,698.00 237.00,698.00
             237.00,698.00 210.00,698.00 210.00,698.00
             210.00,698.00 210.00,725.00 210.00,725.00
             210.00,725.00 192.00,725.00 192.00,725.00
             192.00,725.00 192.00,698.00 192.00,698.00
             192.00,698.00 165.00,698.00 165.00,698.00
             165.00,698.00 165.00,680.00 165.00,680.00
             165.00,680.00 192.00,680.00 192.00,680.00
             192.00,680.00 192.00,653.00 192.00,653.00 Z" />
</svg>
