<?xml version="1.0" encoding="UTF-8" standalone="no"?>
<!DOCTYPE svg PUBLIC "-//W3C//DTD SVG 20010904//EN"
              "http://www.w3.org/TR/2001/REC-SVG-20010904/DTD/svg10.dtd">

<svg xmlns="http://www.w3.org/2000/svg"
     width="304.762mm" height="304.762mm"
     viewBox="0 0 864 864">
  <path id="8 - other purple outline"
        fill="none" stroke="black" stroke-width="1"
        d="M 611.00,88.00
           C 611.00,88.00 629.00,88.00 629.00,88.00
             629.00,88.00 629.00,115.00 629.00,115.00
             629.00,115.00 656.00,115.00 656.00,115.00
             656.00,115.00 656.00,133.00 656.00,133.00
             656.00,133.00 629.00,133.00 629.00,133.00
             629.00,133.00 629.00,160.00 629.00,160.00
             629.00,160.00 611.00,160.00 611.00,160.00
             611.00,160.00 611.00,133.00 611.00,133.00
             611.00,133.00 584.00,133.00 584.00,133.00
             584.00,133.00 584.00,115.00 584.00,115.00
             584.00,115.00 611.00,115.00 611.00,115.00
             611.00,115.00 611.00,88.00 611.00,88.00 Z
           M 647.00,453.00
           C 653.07,454.73 658.33,459.91 663.00,464.05
             667.58,468.11 672.33,471.66 675.52,477.00
             679.07,482.95 681.91,496.02 682.00,503.00
             682.00,503.00 682.00,521.00 682.00,521.00
             681.84,534.45 675.85,547.76 670.88,560.00
             667.00,569.58 660.34,581.33 654.66,590.00
             653.37,591.97 649.63,598.58 646.74,596.83
             643.28,594.93 647.14,587.79 646.74,582.00
             646.25,566.70 643.75,551.68 639.28,537.00
             636.85,529.02 633.49,521.44 629.75,514.00
             628.03,510.57 624.77,505.86 625.55,502.00
             626.01,499.73 629.71,493.69 631.00,491.00
             637.53,493.11 641.49,502.97 643.99,509.00
             648.69,520.32 651.78,531.88 653.57,544.00
             653.57,544.00 656.00,563.00 656.00,563.00
             656.00,563.00 661.80,550.00 661.80,550.00
             667.83,534.76 672.04,517.21 667.85,501.00
             665.44,491.69 661.35,481.34 656.57,473.00
             652.94,466.64 647.54,460.50 647.00,453.00 Z
           M 670.00,635.00
           C 670.00,635.00 688.00,635.00 688.00,635.00
             688.00,635.00 688.00,662.00 688.00,662.00
             688.00,662.00 715.00,662.00 715.00,662.00
             715.00,662.00 715.00,680.00 715.00,680.00
             715.00,680.00 688.00,680.00 688.00,680.00
             688.00,680.00 688.00,707.00 688.00,707.00
             688.00,707.00 670.00,707.00 670.00,707.00
             670.00,707.00 670.00,680.00 670.00,680.00
             670.00,680.00 643.00,680.00 643.00,680.00
             643.00,680.00 643.00,662.00 643.00,662.00
             643.00,662.00 670.00,662.00 670.00,662.00
             670.00,662.00 670.00,635.00 670.00,635.00 Z
           M 192.00,653.00
           C 192.00,653.00 210.00,653.00 210.00,653.00
             210.00,653.00 210.00,680.00 210.00,680.00
             210.00,680.00 237.00,680.00 237.00,680.00
             237.00,680.00 237.00,698.00 237.00,698.00
             237.00,698.00 210.00,698.00 210.00,698.00
             210.00,698.00 210.00,725.00 210.00,725.00
             210.00,725.00 192.00,725.00 192.00,725.00
             192.00,725.00 192.00,698.00 192.00,698.00
             192.00,698.00 165.00,698.00 165.00,698.00
             165.00,698.00 165.00,680.00 165.00,680.00
             165.00,680.00 192.00,680.00 192.00,680.00
             192.00,680.00 192.00,653.00 192.00,653.00 Z" />
</svg>
