<?xml version="1.0" encoding="UTF-8" standalone="no"?>
<!DOCTYPE svg PUBLIC "-//W3C//DTD SVG 20010904//EN"
              "http://www.w3.org/TR/2001/REC-SVG-20010904/DTD/svg10.dtd">

<svg xmlns="http://www.w3.org/2000/svg"
     width="304.762mm" height="304.762mm"
     viewBox="0 0 864 864">
  <path id="9 - yellow mane outline"
        fill="none" stroke="black" stroke-width="1"
        d="M 234.00,81.00
           C 239.07,81.54 246.01,84.26 249.30,88.33
             250.80,90.18 253.03,96.39 254.15,99.00
             254.15,99.00 263.31,120.00 263.31,120.00
             275.50,146.36 297.77,175.09 321.00,192.37
             328.70,198.10 339.45,204.89 348.00,209.24
             350.04,210.28 357.39,213.09 354.93,216.26
             352.86,219.26 344.98,216.61 342.00,216.26
             324.69,213.02 320.82,211.52 307.01,199.92
             292.86,188.02 283.44,179.48 272.72,164.00
             264.67,152.35 257.35,136.75 250.90,124.00
             246.29,114.91 241.07,105.72 237.91,96.00
             237.91,96.00 236.54,90.17 236.54,90.17
             235.13,85.51 234.59,87.44 234.00,81.00 Z
           M 611.00,88.00
           C 611.00,88.00 629.00,88.00 629.00,88.00
             629.00,88.00 629.00,115.00 629.00,115.00
             629.00,115.00 656.00,115.00 656.00,115.00
             656.00,115.00 656.00,133.00 656.00,133.00
             656.00,133.00 629.00,133.00 629.00,133.00
             629.00,133.00 629.00,160.00 629.00,160.00
             629.00,160.00 611.00,160.00 611.00,160.00
             611.00,160.00 611.00,133.00 611.00,133.00
             611.00,133.00 584.00,133.00 584.00,133.00
             584.00,133.00 584.00,115.00 584.00,115.00
             584.00,115.00 611.00,115.00 611.00,115.00
             611.00,115.00 611.00,88.00 611.00,88.00 Z
           M 604.00,528.00
           C 604.00,528.00 607.00,528.00 607.00,528.00
             608.81,532.27 610.85,536.51 612.08,541.00
             618.72,565.25 613.91,597.17 607.00,621.00
             607.00,621.00 627.00,600.00 627.00,600.00
             627.00,600.00 627.00,613.00 627.00,613.00
             626.85,621.01 622.64,623.52 617.05,628.71
             611.74,633.64 606.65,638.73 600.71,642.95
             595.72,646.51 587.97,650.69 585.00,656.00
             580.83,655.85 579.48,656.21 578.00,652.00
             584.48,646.29 587.96,635.10 590.67,627.00
             598.09,604.80 603.28,590.87 603.00,567.00
             602.93,560.94 601.18,551.99 599.76,546.00
             599.15,543.40 597.20,538.54 597.74,536.17
             598.25,533.95 602.35,530.12 604.00,528.00 Z
           M 473.00,673.00
           C 472.68,669.23 470.77,663.10 471.77,660.00
             472.90,656.52 478.32,650.87 480.85,648.00
             487.25,640.73 500.24,623.57 509.00,621.00
             509.00,621.00 503.44,647.00 503.44,647.00
             503.44,647.00 501.72,662.00 501.72,662.00
             501.72,662.00 498.83,687.00 498.83,687.00
             498.83,687.00 497.91,693.42 497.91,693.42
             497.91,693.42 497.91,700.00 497.91,700.00
             497.91,700.00 495.80,722.00 495.80,722.00
             495.80,722.00 495.80,737.00 495.80,737.00
             495.98,746.68 493.72,762.83 490.67,772.00
             486.22,785.34 481.65,793.57 472.33,804.17
             468.17,808.91 465.51,812.95 458.75,814.00
             458.75,814.00 458.75,795.00 458.75,795.00
             458.75,795.00 468.00,776.00 468.00,776.00
             468.00,776.00 471.00,779.00 471.00,779.00
             487.13,759.15 483.96,724.32 484.00,700.00
             484.01,690.74 486.40,676.18 488.42,667.00
             489.65,661.44 491.76,655.65 492.00,650.00
             489.18,655.28 485.21,659.18 481.75,664.00
             478.71,668.22 478.13,671.32 473.00,673.00 Z
           M 670.00,635.00
           C 670.00,635.00 688.00,635.00 688.00,635.00
             688.00,635.00 688.00,662.00 688.00,662.00
             688.00,662.00 715.00,662.00 715.00,662.00
             715.00,662.00 715.00,680.00 715.00,680.00
             715.00,680.00 688.00,680.00 688.00,680.00
             688.00,680.00 688.00,707.00 688.00,707.00
             688.00,707.00 670.00,707.00 670.00,707.00
             670.00,707.00 670.00,680.00 670.00,680.00
             670.00,680.00 643.00,680.00 643.00,680.00
             643.00,680.00 643.00,662.00 643.00,662.00
             643.00,662.00 670.00,662.00 670.00,662.00
             670.00,662.00 670.00,635.00 670.00,635.00 Z
           M 192.00,653.00
           C 192.00,653.00 210.00,653.00 210.00,653.00
             210.00,653.00 210.00,680.00 210.00,680.00
             210.00,680.00 237.00,680.00 237.00,680.00
             237.00,680.00 237.00,698.00 237.00,698.00
             237.00,698.00 210.00,698.00 210.00,698.00
             210.00,698.00 210.00,725.00 210.00,725.00
             210.00,725.00 192.00,725.00 192.00,725.00
             192.00,725.00 192.00,698.00 192.00,698.00
             192.00,698.00 165.00,698.00 165.00,698.00
             165.00,698.00 165.00,680.00 165.00,680.00
             165.00,680.00 192.00,680.00 192.00,680.00
             192.00,680.00 192.00,653.00 192.00,653.00 Z" />
</svg>
