<?xml version="1.0" encoding="UTF-8" standalone="no"?>
<!DOCTYPE svg PUBLIC "-//W3C//DTD SVG 20010904//EN"
              "http://www.w3.org/TR/2001/REC-SVG-20010904/DTD/svg10.dtd">

<svg xmlns="http://www.w3.org/2000/svg"
     width="14.2222in" height="14.2222in"
     viewBox="0 0 1024 1024">
  <path id="Selection #1"
        fill="none" stroke="black" stroke-width="1"
        d="M 205.00,429.00
           C 201.71,426.45 202.02,423.72 200.76,420.00
             200.76,420.00 193.96,400.00 193.96,400.00
             193.96,400.00 189.51,387.00 189.51,387.00
             185.15,373.11 176.16,340.66 176.00,327.00
             175.93,320.74 175.29,308.68 184.00,307.75
             190.77,307.03 202.06,317.50 207.00,321.73
             207.00,321.73 245.00,356.72 245.00,356.72
             245.00,356.72 255.00,365.91 255.00,365.91
             262.20,372.65 263.87,373.61 264.00,384.00
             264.08,391.38 264.40,398.88 262.32,406.04
             259.36,416.25 246.23,436.70 238.00,443.18
             232.37,447.61 226.08,450.71 219.00,451.92
             216.57,452.33 213.53,453.06 211.43,451.36
             209.36,449.69 208.14,442.96 207.00,440.00
             205.25,435.46 204.04,433.99 205.00,429.00 Z
           M 286.00,399.00
           C 287.99,399.43 289.06,399.51 290.83,400.74
             290.83,400.74 306.58,416.83 306.58,416.83
             306.58,416.83 349.00,461.00 349.00,461.00
             351.84,463.88 362.73,474.97 364.07,478.01
             364.97,480.07 364.96,481.82 365.00,484.00
             365.00,484.00 364.42,516.00 364.42,516.00
             363.77,520.49 364.05,524.27 360.00,527.00
             360.82,533.41 357.46,537.77 354.22,543.00
             346.80,555.02 340.42,563.17 329.00,571.87
             324.48,575.31 319.90,579.94 314.00,580.00
             314.00,580.00 311.71,583.04 311.71,583.04
             311.71,583.04 290.00,591.18 290.00,591.18
             290.00,591.18 286.00,591.18 286.00,591.18
             283.74,594.10 281.86,593.75 281.00,590.00
             276.31,587.27 276.27,584.42 273.80,580.00
             273.80,580.00 265.16,566.00 265.16,566.00
             259.04,556.31 236.08,511.08 231.34,500.00
             227.92,491.98 221.22,482.85 222.00,474.00
             249.01,470.36 265.54,450.02 277.24,427.00
             283.50,414.70 285.99,413.36 286.00,399.00 Z
           M 387.00,506.00
           C 393.61,508.04 393.74,512.08 398.20,516.72
             398.20,516.72 417.87,538.00 417.87,538.00
             417.87,538.00 423.26,544.42 423.26,544.42
             423.26,544.42 439.92,563.34 439.92,563.34
             439.92,563.34 464.60,589.83 464.60,589.83
             468.19,593.87 477.32,602.41 478.86,607.00
             479.08,608.86 479.00,612.01 478.86,614.00
             478.86,614.00 478.86,631.00 478.86,631.00
             478.98,645.79 470.58,678.90 466.29,694.00
             466.29,694.00 462.80,706.00 462.80,706.00
             460.22,712.25 453.57,722.48 449.47,728.00
             435.48,746.80 421.54,758.46 398.00,762.41
             393.82,763.11 377.51,765.84 374.37,764.43
             369.92,762.42 364.89,748.62 362.17,744.00
             362.17,744.00 355.23,732.09 355.23,732.09
             355.23,732.09 350.79,725.91 350.79,725.91
             350.79,725.91 330.25,688.00 330.25,688.00
             330.25,688.00 302.19,634.83 302.19,634.83
             300.26,631.03 292.48,619.29 293.73,615.27
             294.69,612.18 302.13,610.30 305.00,609.41
             314.71,606.43 324.72,602.02 333.00,596.08
             333.00,596.08 349.00,583.83 349.00,583.83
             370.80,564.33 386.98,535.67 387.00,506.00 Z
           M 504.00,633.00
           C 511.52,639.23 515.57,648.54 521.75,656.00
             521.75,656.00 547.42,687.72 547.42,687.72
             547.42,687.72 565.27,711.00 565.27,711.00
             566.57,714.35 566.99,722.26 567.00,726.00
             567.00,726.00 567.00,763.00 567.00,763.00
             567.00,763.00 565.96,775.00 565.96,775.00
             565.96,775.00 565.96,785.00 565.96,785.00
             565.96,785.00 563.61,797.00 563.61,797.00
             560.28,814.77 555.63,831.66 545.66,847.00
             545.66,847.00 538.47,858.00 538.47,858.00
             538.47,858.00 529.04,868.00 529.04,868.00
             529.04,868.00 520.96,876.91 520.96,876.91
             511.13,886.44 495.29,896.12 483.00,902.25
             473.71,906.88 473.42,906.44 464.00,909.34
             460.99,910.27 457.16,911.57 454.04,910.40
             450.67,909.13 448.54,905.00 446.86,902.00
             446.86,902.00 435.66,881.00 435.66,881.00
             435.66,881.00 414.14,841.00 414.14,841.00
             414.14,841.00 386.00,789.00 386.00,789.00
             386.00,789.00 409.00,784.55 409.00,784.55
             415.07,783.31 428.64,777.74 434.00,774.55
             452.93,763.27 464.58,749.69 475.80,731.00
             479.00,725.67 483.23,719.75 485.30,714.00
             485.30,714.00 498.74,661.00 498.74,661.00
             498.74,661.00 504.00,633.00 504.00,633.00 Z
           M 588.12,742.00
           C 595.42,743.23 603.64,756.32 609.05,761.83
             609.05,761.83 626.29,778.45 626.29,778.45
             630.66,782.07 636.56,785.62 638.91,791.00
             640.08,793.68 639.99,796.15 640.00,799.00
             640.05,809.40 637.36,823.45 635.87,834.00
             633.56,850.40 631.55,848.95 625.42,863.00
             619.97,875.51 607.59,898.03 598.82,908.00
             598.82,908.00 586.00,920.09 586.00,920.09
             582.51,923.34 580.01,926.32 576.00,929.10
             565.24,936.56 557.69,938.73 546.00,943.40
             535.15,947.74 521.71,953.94 510.00,954.00
             510.00,954.00 487.00,954.00 487.00,954.00
             483.31,953.98 479.41,953.99 476.18,951.91
             473.30,950.05 470.86,946.00 469.26,943.00
             467.95,940.53 464.68,935.13 465.67,932.39
             466.43,930.28 469.07,929.50 471.00,928.91
             471.00,928.91 486.00,924.13 486.00,924.13
             499.75,918.12 522.11,904.00 533.00,893.91
             547.59,880.39 560.74,864.77 569.87,847.00
             569.87,847.00 573.81,837.00 573.81,837.00
             580.39,819.65 581.36,816.32 584.43,798.00
             585.33,792.66 587.26,787.44 587.07,782.00
             587.07,782.00 587.07,776.00 587.07,776.00
             587.19,770.94 588.68,769.85 588.12,765.00
             588.12,765.00 588.12,758.00 588.12,758.00
             588.12,758.00 588.12,742.00 588.12,742.00 Z
           M 276.00,818.00
           C 276.00,818.00 289.00,818.00 289.00,818.00
             289.00,818.00 289.00,838.00 289.00,838.00
             289.00,838.00 309.00,838.00 309.00,838.00
             309.00,838.00 309.00,851.00 309.00,851.00
             309.00,851.00 289.00,851.00 289.00,851.00
             289.00,851.00 289.00,871.00 289.00,871.00
             289.00,871.00 276.00,871.00 276.00,871.00
             276.00,871.00 276.00,851.00 276.00,851.00
             276.00,851.00 256.00,851.00 256.00,851.00
             256.00,851.00 256.00,838.00 256.00,838.00
             256.00,838.00 276.00,838.00 276.00,838.00
             276.00,838.00 276.00,818.00 276.00,818.00 Z" />
</svg>
