<?xml version="1.0" encoding="UTF-8" standalone="no"?>
<!DOCTYPE svg PUBLIC "-//W3C//DTD SVG 20010904//EN"
              "http://www.w3.org/TR/2001/REC-SVG-20010904/DTD/svg10.dtd">

<svg xmlns="http://www.w3.org/2000/svg"
     width="14.2222in" height="14.2222in"
     viewBox="0 0 1024 1024">
  <path id="Selection"
        fill="none" stroke="black" stroke-width="1"
        d="M 142.00,282.00
           C 147.20,279.39 146.80,277.68 151.01,274.47
             154.39,271.90 161.77,269.81 166.00,269.41
             178.37,268.25 189.57,276.34 198.00,275.00
             199.46,279.39 205.29,280.28 209.00,282.35
             209.00,282.35 230.00,297.00 230.00,297.00
             230.00,297.00 228.00,295.00 228.00,295.00
             228.00,295.00 228.00,294.00 228.00,294.00
             228.00,294.00 230.00,299.00 230.00,299.00
             236.78,302.50 245.14,312.50 251.00,313.00
             251.00,313.00 263.96,325.20 263.96,325.20
             263.96,325.20 271.00,330.00 271.00,330.00
             271.97,333.36 277.49,339.31 281.00,340.00
             281.00,340.00 294.20,353.03 294.20,353.03
             294.20,353.03 302.00,359.00 302.00,359.00
             304.63,362.59 315.11,373.92 319.00,375.00
             324.10,381.93 336.89,394.24 344.00,399.00
             344.00,399.00 343.00,401.00 343.00,401.00
             347.18,402.81 348.58,403.58 350.00,408.00
             350.00,408.00 359.00,414.00 359.00,414.00
             359.96,417.50 361.49,419.08 365.00,420.00
             365.93,424.38 372.28,429.02 375.41,432.28
             375.41,432.28 399.43,458.28 399.43,458.28
             402.16,461.12 405.29,465.92 409.00,467.00
             409.94,470.25 414.72,476.07 418.00,477.00
             419.06,480.78 423.17,485.93 427.00,487.00
             427.00,487.00 442.25,506.00 442.25,506.00
             442.25,506.00 473.50,542.12 473.50,542.12
             473.50,542.12 486.00,556.00 486.00,556.00
             486.00,556.00 493.72,566.42 493.72,566.42
             493.72,566.42 506.00,580.00 506.00,580.00
             507.21,585.39 512.11,589.31 515.48,593.47
             517.25,595.67 518.22,598.22 521.00,599.00
             521.00,599.00 526.00,605.00 526.00,605.00
             526.71,608.53 531.14,612.90 534.00,615.00
             534.00,615.00 533.00,617.00 533.00,617.00
             536.81,618.83 545.06,630.07 547.97,634.01
             547.97,634.01 554.82,642.08 554.82,642.08
             560.30,648.76 569.49,662.30 576.00,667.00
             576.00,667.00 575.00,669.00 575.00,669.00
             580.38,672.62 586.67,681.68 590.69,686.96
             594.54,692.03 597.86,695.11 601.00,701.00
             601.00,701.00 603.00,700.00 603.00,700.00
             603.00,700.00 604.00,701.00 604.00,701.00
             604.00,701.00 616.79,718.44 616.79,718.44
             616.79,718.44 623.00,725.00 623.00,725.00
             623.74,727.46 634.36,739.89 636.79,743.00
             636.79,743.00 659.21,772.00 659.21,772.00
             662.60,776.32 669.67,785.03 671.20,790.00
             672.30,793.56 672.04,801.02 672.00,805.00
             671.88,814.88 668.79,816.05 668.10,823.00
             668.10,823.00 666.70,838.00 666.70,838.00
             664.23,854.80 659.88,871.91 654.51,888.00
             651.36,897.47 648.13,907.48 642.65,915.91
             642.65,915.91 626.30,935.00 626.30,935.00
             621.40,940.75 612.77,951.99 607.00,956.22
             599.17,961.94 589.05,964.34 580.00,967.68
             580.00,967.68 540.01,981.95 540.01,981.95
             540.01,981.95 528.00,983.75 528.00,983.75
             528.00,983.75 505.00,988.56 505.00,988.56
             505.00,988.56 498.00,988.56 498.00,988.56
             498.00,988.56 483.00,990.75 483.00,990.75
             478.92,991.43 463.03,994.34 460.04,993.56
             453.18,991.75 448.99,975.70 444.00,974.00
             443.32,969.32 440.28,964.39 437.00,961.00
             436.59,956.76 433.13,951.76 430.00,949.00
             429.70,944.27 424.36,935.35 421.00,932.00
             420.73,927.27 417.05,922.20 414.84,918.00
             410.74,910.22 405.68,897.34 400.00,891.00
             400.00,891.00 401.00,889.00 401.00,889.00
             395.91,885.73 396.30,879.02 393.68,874.00
             393.68,874.00 380.26,850.00 380.26,850.00
             377.72,845.08 373.89,836.44 370.00,833.00
             369.33,828.86 364.97,821.92 362.00,819.00
             361.64,815.37 360.60,814.44 358.00,812.00
             358.00,812.00 359.00,810.00 359.00,810.00
             355.27,807.50 352.78,801.04 350.73,797.00
             348.70,792.99 337.51,773.62 335.00,771.00
             335.00,771.00 336.00,769.00 336.00,769.00
             336.00,769.00 326.00,755.00 326.00,755.00
             326.00,755.00 323.00,750.00 323.00,750.00
             322.75,745.48 319.14,740.17 316.00,737.00
             316.00,737.00 313.00,732.00 313.00,732.00
             312.65,728.46 304.66,714.53 302.00,712.00
             302.00,712.00 300.00,708.00 300.00,708.00
             300.00,708.00 296.00,697.00 296.00,697.00
             296.00,697.00 295.00,695.00 295.00,695.00
             295.00,695.00 292.00,694.00 292.00,694.00
             292.00,694.00 286.46,681.00 286.46,681.00
             286.46,681.00 276.14,661.00 276.14,661.00
             276.14,661.00 271.00,650.00 271.00,650.00
             271.00,650.00 264.00,641.00 264.00,641.00
             264.00,641.00 262.00,637.00 262.00,637.00
             262.00,637.00 263.00,635.00 263.00,635.00
             263.00,635.00 261.00,635.00 261.00,635.00
             261.00,635.00 255.52,623.17 255.52,623.17
             255.52,623.17 246.68,606.09 246.68,606.09
             246.68,606.09 233.52,579.09 233.52,579.09
             233.52,579.09 229.05,571.00 229.05,571.00
             229.05,571.00 218.00,550.00 218.00,550.00
             218.00,550.00 219.00,548.00 219.00,548.00
             219.00,548.00 217.00,548.00 217.00,548.00
             217.00,548.00 218.00,546.00 218.00,546.00
             218.00,546.00 216.00,546.00 216.00,546.00
             216.00,546.00 210.00,529.00 210.00,529.00
             210.00,529.00 208.00,529.00 208.00,529.00
             207.96,524.37 201.17,510.32 198.00,507.00
             197.62,502.51 193.04,492.41 190.00,489.00
             190.00,489.00 188.00,484.00 188.00,484.00
             187.30,480.13 180.74,465.87 178.00,463.00
             178.00,463.00 179.00,460.00 179.00,460.00
             176.54,458.35 175.38,452.86 174.32,450.00
             174.32,450.00 165.00,424.00 165.00,424.00
             152.84,388.47 146.56,371.06 141.85,333.00
             141.85,333.00 140.00,312.00 140.00,312.00
             139.99,304.74 139.61,298.15 141.34,291.00
             142.13,287.71 144.59,284.63 142.00,282.00 Z
           M 184.00,308.64
           C 176.00,311.26 176.97,319.01 177.00,326.00
             177.06,337.99 181.56,355.37 184.97,367.00
             184.97,367.00 196.52,406.00 196.52,406.00
             196.52,406.00 201.76,420.00 201.76,420.00
             201.76,420.00 205.74,434.00 205.74,434.00
             205.74,434.00 209.10,443.00 209.10,443.00
             210.32,446.81 209.91,451.37 215.04,451.43
             224.23,451.53 236.70,444.58 242.68,437.91
             245.68,434.56 252.76,423.26 255.14,419.00
             259.79,410.66 262.88,404.76 263.00,395.00
             263.06,389.51 263.58,378.92 261.39,374.18
             259.62,370.35 249.44,361.82 245.83,358.54
             245.83,358.54 213.09,328.29 213.09,328.29
             206.27,322.11 193.22,309.18 184.00,308.64 Z
           M 282.00,593.00
           C 282.00,593.00 307.00,584.69 307.00,584.69
             331.76,573.53 354.81,549.44 362.22,523.00
             364.77,513.89 364.02,496.04 364.00,486.00
             363.98,475.21 359.11,472.67 351.91,465.00
             351.91,465.00 321.01,433.00 321.01,433.00
             321.01,433.00 299.00,410.00 299.00,410.00
             295.05,406.02 292.34,401.91 287.00,400.00
             286.96,413.31 284.02,415.64 278.24,427.00
             266.46,450.17 249.18,471.33 222.00,475.00
             223.32,483.39 235.41,507.25 239.75,516.00
             239.75,516.00 264.23,563.00 264.23,563.00
             264.23,563.00 274.23,579.00 274.23,579.00
             274.23,579.00 282.00,593.00 282.00,593.00 Z
           M 389.00,507.00
           C 389.00,507.00 385.91,526.00 385.91,526.00
             385.03,530.54 380.74,541.66 378.68,546.00
             366.98,570.62 343.93,592.15 320.00,604.68
             320.00,604.68 293.00,615.00 293.00,615.00
             293.00,615.00 315.74,659.00 315.74,659.00
             315.74,659.00 338.89,703.00 338.89,703.00
             338.89,703.00 351.96,726.91 351.96,726.91
             351.96,726.91 356.20,732.17 356.20,732.17
             360.88,738.92 364.33,746.61 367.79,754.00
             369.04,756.66 371.66,762.19 374.38,763.25
             377.08,764.65 382.96,763.36 386.00,763.25
             397.95,761.97 407.09,760.47 418.00,755.22
             435.80,746.65 454.29,724.16 461.80,706.00
             461.80,706.00 470.87,672.00 470.87,672.00
             473.20,662.69 477.89,642.00 477.84,633.00
             477.84,633.00 477.84,617.00 477.84,617.00
             478.00,614.06 478.55,608.46 477.84,606.00
             476.31,603.10 472.38,599.42 470.17,597.04
             470.17,597.04 456.39,581.83 456.39,581.83
             456.39,581.83 411.51,532.28 411.51,532.28
             411.51,532.28 396.33,515.83 396.33,515.83
             393.20,512.16 393.05,510.64 389.00,507.00 Z
           M 505.00,634.00
           C 502.88,637.65 500.78,655.42 499.74,661.00
             499.74,661.00 487.28,711.00 487.28,711.00
             484.82,719.15 480.54,724.77 476.20,732.00
             461.19,757.01 442.09,775.09 414.00,784.25
             407.67,786.32 394.01,788.08 387.00,789.00
             387.00,789.00 415.14,841.00 415.14,841.00
             415.14,841.00 436.05,880.00 436.05,880.00
             436.05,880.00 447.31,901.00 447.31,901.00
             448.83,903.81 451.01,908.18 454.10,909.40
             458.19,911.00 472.70,905.97 477.00,904.13
             490.36,898.41 508.21,887.40 518.91,877.72
             518.91,877.72 530.00,866.00 530.00,866.00
             548.60,847.24 557.81,823.59 562.42,798.00
             562.42,798.00 564.96,785.00 564.96,785.00
             564.96,785.00 564.96,775.00 564.96,775.00
             564.96,775.00 566.00,763.00 566.00,763.00
             566.00,763.00 566.00,726.00 566.00,726.00
             565.99,722.26 565.57,714.35 564.27,711.00
             563.08,707.95 548.95,690.99 545.72,687.00
             545.72,687.00 517.51,652.00 517.51,652.00
             517.51,652.00 505.00,634.00 505.00,634.00 Z
           M 590.00,742.00
           C 588.25,746.40 589.01,756.83 589.00,762.00
             589.00,762.00 588.00,778.00 588.00,778.00
             587.95,788.08 584.10,807.93 581.52,818.00
             581.52,818.00 576.68,832.00 576.68,832.00
             576.68,832.00 571.37,846.00 571.37,846.00
             571.37,846.00 564.81,857.00 564.81,857.00
             552.29,877.20 539.13,890.79 520.00,904.88
             520.00,904.88 508.00,913.54 508.00,913.54
             503.13,916.50 486.13,925.26 481.00,927.00
             481.00,927.00 465.00,932.00 465.00,932.00
             466.28,936.40 467.50,938.06 469.58,942.00
             474.64,951.63 477.07,953.98 488.00,954.00
             488.00,954.00 509.00,954.00 509.00,954.00
             521.56,953.98 533.50,948.40 545.00,943.80
             552.36,940.86 560.10,938.50 567.00,934.57
             567.00,934.57 577.00,928.39 577.00,928.39
             580.54,925.76 597.72,909.51 600.48,906.00
             600.48,906.00 611.05,890.00 611.05,890.00
             618.87,877.68 620.77,872.73 626.78,860.00
             626.78,860.00 633.78,845.00 633.78,845.00
             633.78,845.00 640.00,802.00 640.00,802.00
             640.03,798.69 640.32,793.96 638.83,791.00
             636.96,787.32 632.20,784.01 629.00,781.39
             629.00,781.39 615.05,768.87 615.05,768.87
             615.05,768.87 590.00,742.00 590.00,742.00 Z
           M 276.00,818.00
           C 276.00,818.00 289.00,818.00 289.00,818.00
             289.00,818.00 289.00,838.00 289.00,838.00
             289.00,838.00 309.00,838.00 309.00,838.00
             309.00,838.00 309.00,851.00 309.00,851.00
             309.00,851.00 289.00,851.00 289.00,851.00
             289.00,851.00 289.00,871.00 289.00,871.00
             289.00,871.00 276.00,871.00 276.00,871.00
             276.00,871.00 276.00,851.00 276.00,851.00
             276.00,851.00 256.00,851.00 256.00,851.00
             256.00,851.00 256.00,838.00 256.00,838.00
             256.00,838.00 276.00,838.00 276.00,838.00
             276.00,838.00 276.00,818.00 276.00,818.00 Z" />
</svg>
