<?xml version="1.0" encoding="UTF-8" standalone="no"?>
<!DOCTYPE svg PUBLIC "-//W3C//DTD SVG 20010904//EN"
              "http://www.w3.org/TR/2001/REC-SVG-20010904/DTD/svg10.dtd">

<svg xmlns="http://www.w3.org/2000/svg"
     width="1.43in" height="1.5in"
     viewBox="0 0 429 450">
  <path id="Selection"
        fill="none" stroke="black" stroke-width="1"
        d="M 135.60,40.02
           C 142.73,36.99 147.27,39.61 153.00,43.48
             161.41,49.16 160.67,48.67 168.00,56.00
             178.61,66.61 180.93,69.78 185.52,84.00
             187.15,89.06 187.88,87.81 188.00,94.00
             188.00,94.00 188.00,102.00 188.00,102.00
             187.95,110.00 187.04,107.73 185.54,113.00
             184.68,116.04 185.37,117.57 184.12,121.00
             180.03,132.23 167.89,146.41 164.54,158.00
             163.73,160.82 163.94,170.56 164.00,174.00
             164.12,180.39 170.75,193.67 174.54,199.00
             176.12,201.21 178.12,203.04 179.98,205.00
             182.56,207.71 187.12,212.65 183.40,216.40
             181.09,218.74 172.00,218.24 169.00,217.32
             169.00,217.32 161.00,213.59 161.00,213.59
             148.73,207.42 145.14,201.77 139.26,190.00
             139.26,190.00 134.54,180.00 134.54,180.00
             134.54,180.00 133.71,174.00 133.71,174.00
             132.55,168.60 131.06,170.72 131.00,162.00
             131.00,162.00 131.00,150.00 131.00,150.00
             131.13,143.07 136.79,130.15 140.30,124.00
             140.30,124.00 145.12,117.00 145.12,117.00
             150.03,109.07 156.19,94.40 154.86,85.04
             154.40,81.80 153.39,81.39 152.54,78.83
             150.91,73.96 150.52,70.12 146.99,65.66
             140.47,57.43 133.53,56.76 134.02,45.00
             134.13,42.25 134.04,42.19 135.60,40.02 Z
           M 188.00,39.00
           C 188.00,39.00 194.00,39.00 194.00,39.00
             208.18,39.03 221.29,50.39 229.70,61.00
             229.70,61.00 233.52,67.00 233.52,67.00
             233.52,67.00 236.99,72.00 236.99,72.00
             239.20,76.43 240.99,84.00 240.92,89.00
             240.92,89.00 240.92,111.00 240.92,111.00
             240.92,111.00 240.92,116.83 240.92,116.83
             240.92,116.83 221.04,154.17 221.04,154.17
             219.38,158.30 219.91,170.98 220.00,176.00
             220.11,182.00 224.58,191.30 228.30,196.00
             228.30,196.00 239.40,208.00 239.40,208.00
             240.42,209.60 240.89,211.08 240.89,212.98
             240.89,218.72 236.22,217.99 232.00,218.00
             232.00,218.00 228.00,218.00 228.00,218.00
             220.70,217.86 220.93,215.91 215.00,212.28
             201.87,204.26 195.06,193.21 190.48,179.00
             188.85,173.94 188.12,175.19 188.15,169.00
             188.15,169.00 188.15,143.00 188.15,143.00
             188.15,143.00 191.88,132.00 191.88,132.00
             194.19,125.94 196.32,124.61 199.11,120.00
             199.11,120.00 208.32,101.00 208.32,101.00
             209.34,97.68 209.07,87.00 209.00,83.00
             208.87,76.02 203.14,64.79 197.98,60.14
             194.15,56.69 190.94,56.47 189.02,52.94
             187.52,50.18 188.00,42.41 188.00,39.00 Z
           M 245.60,39.95
           C 248.80,38.66 255.33,38.27 258.54,39.95
             258.54,39.95 264.13,43.96 264.13,43.96
             271.78,48.42 271.77,46.52 278.87,53.63
             278.87,53.63 284.03,58.88 284.03,58.88
             284.03,58.88 287.41,64.72 287.41,64.72
             290.07,68.67 292.87,71.14 294.50,76.28
             294.50,76.28 295.54,83.83 295.54,83.83
             295.54,83.83 297.70,89.09 297.70,89.09
             298.18,91.24 298.16,107.79 297.70,110.00
             297.70,110.00 293.70,122.00 293.70,122.00
             293.70,122.00 285.12,139.00 285.12,139.00
             282.40,143.40 279.89,145.49 277.88,151.00
             276.63,154.43 277.32,155.96 276.46,159.00
             275.39,162.75 273.61,163.81 274.06,170.00
             274.37,174.25 275.50,174.62 276.46,178.00
             276.46,178.00 277.55,184.91 277.55,184.91
             279.45,190.91 282.59,193.29 285.17,197.45
             285.17,197.45 288.01,202.54 288.01,202.54
             288.01,202.54 292.34,207.13 292.34,207.13
             294.42,209.45 296.57,214.35 293.43,216.83
             291.65,218.22 287.23,218.02 285.00,218.00
             273.15,217.85 266.34,208.84 258.63,201.13
             258.63,201.13 251.41,193.54 251.41,193.54
             248.19,188.93 248.03,185.88 246.46,181.17
             243.01,170.82 240.98,169.61 241.00,158.00
             241.02,147.73 242.43,150.98 243.71,145.00
             244.26,142.39 243.69,141.24 244.88,138.28
             244.88,138.28 259.40,109.13 259.40,109.13
             262.07,103.66 264.88,100.28 265.00,94.00
             265.00,94.00 265.00,85.00 265.00,85.00
             264.91,80.05 260.88,68.41 258.21,64.17
             253.57,56.82 244.36,56.92 244.02,47.00
             243.91,43.79 243.75,42.61 245.60,39.95 Z
           M 319.00,375.00
           C 319.00,375.00 342.00,375.00 342.00,375.00
             342.00,375.00 389.00,375.00 389.00,375.00
             391.26,375.00 395.62,374.75 397.43,376.17
             399.89,378.12 399.26,387.43 397.98,390.00
             396.98,392.00 394.68,394.38 393.00,395.86
             387.06,401.08 379.21,403.25 372.00,405.87
             372.00,405.87 350.00,413.46 350.00,413.46
             350.00,413.46 344.00,414.29 344.00,414.29
             340.83,414.97 339.60,416.37 336.00,417.08
             336.00,417.08 329.00,417.08 329.00,417.08
             325.88,417.94 324.62,419.37 321.00,420.08
             321.00,420.08 311.00,420.08 311.00,420.08
             311.00,420.08 304.00,422.70 304.00,422.70
             304.00,422.70 296.06,423.31 296.06,423.31
             291.77,424.48 292.23,427.95 288.86,430.40
             286.29,432.27 283.01,431.99 280.00,432.00
             280.00,432.00 167.00,432.00 167.00,432.00
             163.99,431.99 160.71,432.27 158.14,430.40
             154.43,427.70 155.41,424.02 149.98,422.93
             149.98,422.93 143.00,422.93 143.00,422.93
             139.88,422.06 138.62,420.63 135.00,419.92
             135.00,419.92 125.00,419.92 125.00,419.92
             125.00,419.92 119.00,417.54 119.00,417.54
             119.00,417.54 110.00,416.70 110.00,416.70
             110.00,416.70 103.00,414.30 103.00,414.30
             103.00,414.30 95.00,413.70 95.00,413.70
             90.51,412.77 72.49,406.01 68.00,403.75
             61.42,400.45 53.71,397.49 49.59,391.00
             47.86,388.25 46.69,378.44 49.59,376.17
             51.38,374.75 55.74,375.00 58.00,375.00
             58.00,375.00 111.00,375.00 111.00,375.00
             113.45,375.01 120.47,376.00 121.10,372.77
             121.46,370.93 119.72,369.13 118.61,367.88
             114.28,363.04 114.77,363.94 111.75,358.00
             111.75,358.00 104.68,343.83 104.68,343.83
             104.68,343.83 103.52,339.17 103.52,339.17
             103.52,339.17 101.41,333.91 101.41,333.91
             101.41,333.91 100.71,328.09 100.71,328.09
             99.50,322.81 98.02,326.23 98.00,316.00
             98.00,316.00 98.00,254.00 98.00,254.00
             98.02,244.12 101.12,239.88 108.00,233.00
             109.90,231.10 112.59,228.25 114.96,227.05
             116.72,226.17 117.75,226.39 119.34,225.93
             124.49,224.42 121.11,223.02 132.00,223.00
             132.00,223.00 309.00,223.00 309.00,223.00
             319.25,223.02 316.20,224.47 321.42,225.93
             328.77,227.97 335.56,229.12 337.00,238.00
             349.12,237.85 348.26,232.20 359.00,232.00
             372.78,231.76 373.18,232.46 386.00,237.13
             386.00,237.13 392.00,239.02 392.00,239.02
             396.47,241.35 406.02,256.03 407.46,261.00
             407.46,261.00 408.30,270.00 408.30,270.00
             409.50,275.80 410.98,272.68 411.00,283.00
             411.01,287.14 411.43,293.21 410.12,297.00
             410.12,297.00 408.30,302.00 408.30,302.00
             408.30,302.00 407.46,311.00 407.46,311.00
             407.46,311.00 401.26,324.00 401.26,324.00
             399.46,327.59 394.19,336.63 391.46,339.12
             391.46,339.12 386.00,343.14 386.00,343.14
             386.00,343.14 379.00,349.70 379.00,349.70
             376.63,351.58 366.89,356.62 364.00,357.46
             364.00,357.46 358.00,358.29 358.00,358.29
             352.03,359.57 355.27,360.98 345.00,361.00
             341.14,361.01 332.13,360.45 329.00,362.02
             323.98,364.55 321.63,370.36 319.00,375.00 Z
           M 360.00,262.54
           C 355.88,264.14 346.08,268.26 344.02,272.06
             342.49,274.88 343.00,283.46 343.00,287.00
             343.00,287.00 343.00,322.00 343.00,322.00
             343.00,323.99 342.77,327.81 344.02,329.40
             348.36,334.88 360.65,326.21 364.00,322.98
             370.21,317.02 380.87,302.06 383.50,293.72
             384.12,291.74 384.00,289.08 384.00,287.00
             384.01,279.47 384.14,279.81 380.75,273.00
             376.01,263.45 370.87,260.49 360.00,262.54 Z" />
</svg>
