<?xml version="1.0" encoding="UTF-8" standalone="no"?>
<!DOCTYPE svg PUBLIC "-//W3C//DTD SVG 20010904//EN"
              "http://www.w3.org/TR/2001/REC-SVG-20010904/DTD/svg10.dtd">

<svg xmlns="http://www.w3.org/2000/svg"
     width="1.28in" height="1.5in"
     viewBox="0 0 384 450">
  <path id="Selection"
        fill="none" stroke="black" stroke-width="1"
        d="M 197.00,64.00
           C 208.35,30.01 240.54,-10.59 281.00,3.00
             286.90,4.99 290.79,6.49 296.00,10.03
             305.25,16.31 311.47,23.10 318.10,32.00
             331.10,49.43 341.97,82.18 342.10,104.00
             342.10,104.00 342.10,120.00 342.10,120.00
             342.10,120.00 342.10,128.00 342.10,128.00
             341.90,143.37 335.43,169.59 328.00,183.00
             339.96,183.00 347.74,182.49 359.00,187.98
             379.55,198.00 386.73,222.40 378.94,243.00
             376.15,250.36 372.06,256.47 366.00,261.54
             363.60,263.54 358.42,266.39 359.03,270.01
             359.36,272.00 367.48,282.16 369.30,285.00
             375.89,295.23 382.85,308.61 383.00,321.00
             383.00,321.00 383.00,330.00 383.00,330.00
             382.97,346.46 373.31,361.66 362.00,373.00
             345.67,389.38 324.97,400.80 304.00,410.14
             304.00,410.14 293.00,414.94 293.00,414.94
             293.00,414.94 284.00,418.04 284.00,418.04
             284.00,418.04 249.00,437.69 249.00,437.69
             233.56,444.65 216.78,447.92 200.00,449.09
             200.00,449.09 192.00,449.92 192.00,449.92
             192.00,449.92 177.00,448.83 177.00,448.83
             157.23,446.92 138.35,440.10 121.00,430.69
             121.00,430.69 101.00,418.24 101.00,418.24
             101.00,418.24 77.00,408.69 77.00,408.69
             42.14,392.69 0.50,367.24 1.00,324.00
             1.14,312.14 7.33,296.90 13.70,287.00
             15.74,283.82 25.11,272.66 24.99,270.01
             24.86,267.13 17.31,261.32 15.01,259.00
             8.95,252.85 4.93,246.41 2.76,238.00
             1.04,231.32 1.07,227.65 1.89,221.00
             2.58,215.43 2.84,212.27 5.33,207.00
             15.65,185.14 42.65,177.65 64.00,187.00
             63.85,181.30 60.99,176.29 59.05,171.00
             59.05,171.00 52.46,148.00 52.46,148.00
             52.46,148.00 50.00,124.00 50.00,124.00
             49.63,92.37 52.77,69.28 68.31,41.00
             73.11,32.26 80.58,22.80 88.00,16.17
             93.08,11.64 97.87,8.66 104.00,5.78
             114.15,1.01 119.15,0.88 130.00,1.00
             155.30,1.30 175.06,23.53 186.30,44.00
             189.94,50.63 193.01,56.63 195.00,64.00
             195.00,64.00 197.00,64.00 197.00,64.00 Z
           M 186.00,86.00
           C 181.95,57.31 161.07,16.38 128.00,16.00
             99.59,15.68 80.88,40.09 72.67,65.00
             70.73,70.90 67.43,80.01 68.00,86.00
             68.00,86.00 93.00,65.99 93.00,65.99
             114.59,53.28 137.20,54.21 159.00,65.99
             171.51,72.42 179.44,82.90 186.00,86.00 Z
           M 324.00,86.00
           C 323.81,77.54 321.56,70.85 318.68,63.00
             309.64,38.34 292.51,15.68 264.00,16.00
             256.24,16.09 249.68,18.35 243.00,22.23
             227.83,31.04 216.80,49.66 211.35,66.00
             211.35,66.00 206.00,86.00 206.00,86.00
             212.49,83.79 215.13,79.60 220.00,75.09
             224.46,70.96 230.55,66.69 236.00,63.97
             257.95,52.99 281.48,54.86 302.00,68.09
             302.00,68.09 324.00,86.00 324.00,86.00 Z
           M 121.00,17.00
           C 121.00,17.00 122.00,17.00 122.00,17.00
             122.00,17.00 121.00,18.00 121.00,18.00
             121.00,18.00 121.00,17.00 121.00,17.00 Z
           M 185.00,137.00
           C 189.48,135.40 185.65,121.59 184.48,118.00
             178.39,99.30 169.05,86.04 151.00,77.26
             140.33,72.07 130.51,71.66 118.91,72.18
             114.15,72.39 108.37,74.40 104.00,76.29
             83.04,85.33 68.94,106.55 66.29,129.00
             64.40,144.91 75.16,172.22 83.00,186.00
             86.29,184.45 93.26,179.63 94.08,175.91
             94.54,173.80 92.20,166.63 91.67,164.00
             90.66,159.12 91.00,152.15 91.00,147.00
             94.79,147.00 102.70,147.31 106.00,146.36
             117.25,143.13 122.55,134.09 122.70,123.00
             122.87,110.83 119.88,113.27 118.00,104.00
             118.00,104.00 135.00,101.00 135.00,101.00
             136.97,103.29 145.66,105.54 151.00,109.68
             162.06,118.24 165.78,128.34 170.00,141.00
             174.02,139.20 183.44,142.43 185.00,137.00 Z
           M 306.00,191.00
           C 315.44,176.83 324.72,154.10 325.91,137.00
             327.43,115.27 312.97,89.36 294.00,78.90
             283.40,73.06 275.90,72.22 264.25,72.19
             232.00,72.13 208.63,99.19 205.29,130.00
             205.29,130.00 206.00,140.00 206.00,140.00
             209.14,140.57 218.76,142.88 221.31,141.00
             223.61,139.28 224.58,133.72 225.00,131.00
             229.11,133.74 232.96,137.30 237.91,138.41
             261.64,143.70 275.05,124.75 268.00,103.00
             289.36,109.09 302.64,132.50 301.96,154.00
             301.39,171.81 288.28,182.60 306.00,191.00 Z
           M 179.00,109.00
           C 179.00,109.00 180.00,109.00 180.00,109.00
             180.00,109.00 179.00,110.00 179.00,110.00
             179.00,110.00 179.00,109.00 179.00,109.00 Z
           M 211.00,139.00
           C 211.00,139.00 212.00,139.00 212.00,139.00
             212.00,139.00 211.00,140.00 211.00,140.00
             211.00,140.00 211.00,139.00 211.00,139.00 Z
           M 50.00,143.00
           C 50.00,143.00 51.00,143.00 51.00,143.00
             51.00,143.00 50.00,144.00 50.00,144.00
             50.00,144.00 50.00,143.00 50.00,143.00 Z
           M 183.00,155.28
           C 162.69,158.22 150.98,159.78 132.00,169.27
             99.19,185.67 72.42,218.75 62.43,254.00
             57.71,270.66 56.80,284.87 57.00,302.00
             57.09,309.37 58.97,319.72 60.58,327.00
             66.75,355.02 78.74,375.73 99.00,396.00
             104.35,401.36 108.74,406.03 115.00,410.43
             122.46,415.68 130.63,419.84 139.00,423.42
             150.75,428.44 169.23,434.12 182.00,433.97
             186.89,433.91 187.83,432.68 191.00,432.27
             195.42,431.71 196.39,433.70 201.04,433.95
             204.72,434.15 217.11,432.44 221.00,431.58
             261.90,422.43 295.51,394.64 313.74,357.00
             320.67,342.70 326.98,320.91 327.00,305.00
             327.00,305.00 327.00,289.00 327.00,289.00
             326.65,250.03 308.29,212.77 279.00,187.29
             262.38,172.83 246.95,165.48 226.00,159.58
             214.17,156.24 209.58,156.70 198.00,155.91
             191.25,155.45 190.66,154.57 183.00,155.28 Z
           M 45.00,262.00
           C 48.28,249.00 52.23,235.96 58.48,224.00
             60.21,220.70 66.95,210.32 66.19,207.18
             65.47,204.24 60.51,202.02 58.00,200.65
             49.12,196.32 39.97,195.44 31.00,200.65
             18.39,207.70 15.28,218.58 16.12,232.01
             16.85,243.70 34.83,258.11 45.00,262.00 Z
           M 339.00,261.00
           C 344.47,259.65 347.63,256.76 352.00,253.34
             357.44,249.07 363.21,244.51 366.04,238.00
             372.29,223.62 363.56,205.92 350.00,199.40
             342.08,195.59 331.46,196.63 324.00,201.02
             321.77,202.33 318.38,204.28 317.87,207.04
             317.31,210.06 324.07,220.63 325.75,224.00
             331.28,235.05 336.72,248.87 339.00,261.00 Z
           M 154.00,204.00
           C 154.00,204.00 156.00,204.00 156.00,204.00
             160.89,208.74 162.86,208.46 163.00,216.00
             163.00,216.00 163.00,265.00 163.00,265.00
             162.99,267.92 163.29,271.33 161.40,273.77
             158.53,277.50 151.66,278.09 149.02,273.77
             147.89,271.92 148.01,269.11 148.00,267.00
             148.00,267.00 148.00,248.00 148.00,248.00
             147.98,237.59 146.31,237.73 146.04,231.00
             145.76,223.99 147.10,223.95 147.79,219.00
             149.19,209.00 145.92,212.07 154.00,204.00 Z
           M 229.00,204.00
           C 237.24,209.50 236.99,212.42 237.00,222.00
             237.00,222.00 237.00,253.00 237.00,253.00
             237.00,256.00 236.06,272.00 234.98,273.77
             232.60,277.66 226.05,277.96 222.89,273.77
             221.09,271.39 221.05,268.83 221.00,266.00
             221.00,266.00 221.00,217.00 221.00,217.00
             221.06,208.60 222.55,208.79 229.00,204.00 Z
           M 345.00,279.00
           C 342.06,282.99 343.01,291.92 343.00,297.00
             342.99,303.87 341.81,315.23 340.54,322.00
             337.39,338.79 332.40,351.81 324.75,367.00
             321.40,373.65 314.54,382.72 313.00,389.00
             319.48,387.11 330.33,380.27 336.00,376.28
             345.30,369.74 355.55,360.73 361.53,351.00
             377.04,325.81 363.80,297.85 345.00,279.00 Z
           M 40.97,280.00
           C 32.93,282.39 25.34,295.59 21.78,303.00
             6.61,334.59 23.34,359.46 50.00,377.33
             55.91,381.29 65.26,387.08 72.00,389.00
             69.79,383.22 65.70,378.45 62.78,373.00
             56.16,360.61 51.55,350.46 47.35,337.00
             47.35,337.00 43.80,321.00 43.80,321.00
             43.20,317.81 43.50,315.23 40.97,313.00
             43.23,305.15 41.49,298.31 40.97,290.58
             40.97,290.58 40.97,280.00 40.97,280.00 Z" />
</svg>
