<?xml version="1.0" encoding="UTF-8" standalone="no"?>
<!DOCTYPE svg PUBLIC "-//W3C//DTD SVG 20010904//EN"
              "http://www.w3.org/TR/2001/REC-SVG-20010904/DTD/svg10.dtd">

<svg xmlns="http://www.w3.org/2000/svg"
     width="6in" height="6in"
     viewBox="0 0 1800 1800">
  <path id="Black"
        fill="none" stroke="black" stroke-width="1"
        d="M 1204.00,518.00
           C 1204.00,518.00 1204.00,486.00 1204.00,486.00
             1204.08,479.70 1205.03,476.70 1206.54,470.83
             1209.20,460.52 1210.96,450.23 1224.00,450.00
             1227.22,449.95 1231.06,449.75 1233.96,451.31
             1235.69,452.25 1237.01,453.55 1238.20,455.09
             1238.20,455.09 1249.79,473.25 1249.79,473.25
             1249.79,473.25 1270.96,512.57 1270.96,512.57
             1270.96,512.57 1280.01,526.11 1280.01,526.11
             1280.01,526.11 1286.78,535.55 1286.78,535.55
             1286.78,535.55 1296.00,543.00 1296.00,543.00
             1300.73,537.72 1315.69,542.02 1316.81,555.00
             1317.52,563.16 1313.09,571.01 1305.00,573.46
             1302.36,574.25 1294.15,574.04 1291.00,574.00
             1282.05,573.86 1273.08,566.92 1267.00,560.80
             1249.57,543.24 1245.49,532.76 1234.00,512.00
             1234.00,519.94 1233.85,530.18 1235.26,537.91
             1235.26,537.91 1236.78,543.17 1236.78,543.17
             1237.25,545.39 1237.04,546.75 1238.17,549.00
             1241.53,555.66 1252.62,559.55 1252.98,571.01
             1253.24,578.95 1250.84,585.13 1243.15,588.28
             1240.15,589.51 1238.45,590.22 1235.08,589.88
             1232.90,589.66 1227.07,587.35 1225.01,586.36
             1219.12,583.50 1214.45,577.43 1211.68,571.57
             1210.00,568.02 1210.48,565.73 1207.98,562.46
             1207.98,562.46 1196.55,551.32 1196.55,551.32
             1193.12,548.61 1190.39,547.99 1188.00,544.00
             1182.16,543.35 1177.94,539.75 1172.87,537.15
             1165.64,533.44 1166.81,534.67 1160.28,532.60
             1160.28,532.60 1153.16,529.80 1153.16,529.80
             1153.16,529.80 1133.09,526.05 1133.09,526.05
             1133.09,526.05 1125.96,524.09 1125.96,524.09
             1125.96,524.09 1113.17,522.76 1113.17,522.76
             1113.17,522.76 1107.91,521.26 1107.91,521.26
             1107.91,521.26 1092.09,519.90 1092.09,519.90
             1092.09,519.90 1084.96,518.07 1084.96,518.07
             1084.96,518.07 1076.00,518.07 1076.00,518.07
             1069.30,518.12 1070.39,519.35 1065.91,519.89
             1065.91,519.89 1050.00,521.26 1050.00,521.26
             1050.00,521.26 1044.00,522.74 1044.00,522.74
             1044.00,522.74 1034.04,523.96 1034.04,523.96
             1027.59,525.38 1018.43,529.25 1012.00,528.00
             1008.79,532.43 1005.59,532.04 1001.28,534.34
             1001.28,534.34 991.91,539.80 991.91,539.80
             981.09,545.92 967.11,554.86 958.46,563.71
             953.07,569.22 943.38,580.67 936.00,582.00
             933.24,587.41 920.68,595.10 915.00,598.00
             927.67,598.01 922.93,599.23 930.00,601.45
             930.00,601.45 935.72,602.43 935.72,602.43
             935.72,602.43 941.04,603.94 941.04,603.94
             941.04,603.94 951.13,603.94 951.13,603.94
             951.13,603.94 957.17,602.24 957.17,602.24
             965.81,600.71 974.67,602.49 977.28,612.00
             977.82,613.97 977.97,615.97 977.82,618.00
             976.42,636.26 956.57,635.15 943.00,634.87
             943.00,634.87 934.04,634.87 934.04,634.87
             931.21,635.49 920.04,646.21 917.37,648.87
             917.37,648.87 899.88,666.36 899.88,666.36
             899.88,666.36 891.04,673.47 891.04,673.47
             878.60,687.48 877.43,691.65 868.82,706.73
             868.82,706.73 861.24,720.17 861.24,720.17
             861.24,720.17 857.89,728.00 857.89,728.00
             857.89,728.00 852.31,739.58 852.31,739.58
             852.31,739.58 845.45,752.17 845.45,752.17
             845.45,752.17 843.62,758.71 843.62,758.71
             843.62,758.71 839.68,766.29 839.68,766.29
             839.68,766.29 836.72,774.72 836.72,774.72
             836.72,774.72 832.19,784.16 832.19,784.16
             832.19,784.16 827.60,799.72 827.60,799.72
             827.60,799.72 825.84,804.09 825.84,804.09
             824.39,808.54 823.01,822.31 820.00,825.00
             821.06,830.86 817.92,838.42 816.46,844.17
             816.46,844.17 815.00,858.00 815.00,858.00
             815.00,858.00 815.00,899.00 815.00,899.00
             815.00,899.00 816.02,911.00 816.02,911.00
             816.02,911.00 816.02,918.96 816.02,918.96
             816.02,918.96 817.78,925.17 817.78,925.17
             818.44,928.45 820.40,944.46 820.00,947.00
             822.76,949.37 822.97,953.60 823.99,957.00
             823.99,957.00 831.80,980.95 831.80,980.95
             831.80,980.95 836.83,992.00 836.83,992.00
             836.83,992.00 840.04,1000.57 840.04,1000.57
             840.04,1000.57 843.58,1007.29 843.58,1007.29
             843.58,1007.29 845.76,1014.72 845.76,1014.72
             845.76,1014.72 856.68,1036.28 856.68,1036.28
             860.88,1044.98 868.09,1062.00 873.66,1069.00
             880.23,1077.26 898.29,1090.16 907.01,1097.37
             907.01,1097.37 930.83,1120.25 930.83,1120.25
             942.17,1129.12 937.73,1122.31 952.63,1137.13
             955.46,1139.94 957.68,1141.20 959.00,1145.00
             963.26,1145.70 965.21,1147.80 966.00,1152.00
             971.23,1155.04 978.95,1171.88 980.46,1178.00
             980.46,1178.00 982.78,1184.28 982.78,1184.28
             983.24,1186.94 983.01,1194.83 982.78,1198.00
             982.97,1215.49 968.20,1233.91 950.00,1234.00
             943.83,1234.03 943.14,1234.10 937.00,1233.00
             937.00,1233.00 943.39,1242.91 943.39,1242.91
             943.39,1242.91 970.56,1264.58 970.56,1264.58
             970.56,1264.58 988.42,1277.92 988.42,1277.92
             988.42,1277.92 1007.42,1286.92 1007.42,1286.92
             1007.42,1286.92 1015.00,1291.00 1015.00,1291.00
             1023.21,1289.71 1037.93,1296.91 1046.00,1298.76
             1048.67,1299.06 1051.30,1299.00 1054.00,1298.76
             1054.00,1298.76 1090.99,1298.23 1090.99,1298.23
             1090.99,1298.23 1098.17,1296.15 1098.17,1296.15
             1098.17,1296.15 1128.00,1291.00 1128.00,1291.00
             1130.24,1287.70 1133.60,1287.22 1136.80,1284.68
             1136.80,1284.68 1145.00,1277.73 1145.00,1277.73
             1147.24,1276.35 1148.49,1276.31 1150.83,1275.58
             1159.15,1273.00 1162.81,1275.76 1170.00,1280.00
             1170.00,1280.00 1169.00,1282.00 1169.00,1282.00
             1172.99,1284.78 1172.05,1289.53 1172.00,1294.00
             1171.97,1296.23 1171.97,1298.73 1171.15,1300.83
             1169.13,1306.01 1160.42,1313.43 1155.00,1314.00
             1152.05,1318.22 1148.65,1318.67 1144.28,1320.70
             1128.78,1327.95 1128.24,1326.75 1112.04,1329.11
             1112.04,1329.11 1105.83,1330.85 1105.83,1330.85
             1105.83,1330.85 1098.00,1332.22 1098.00,1332.22
             1089.56,1333.98 1090.94,1334.98 1081.00,1334.92
             1081.00,1334.92 1059.00,1334.92 1059.00,1334.92
             1059.00,1334.92 1050.17,1333.77 1050.17,1333.77
             1050.17,1333.77 1043.96,1331.90 1043.96,1331.90
             1043.96,1331.90 1033.04,1331.90 1033.04,1331.90
             1033.04,1331.90 1026.83,1329.44 1026.83,1329.44
             1026.83,1329.44 1019.00,1327.83 1019.00,1327.83
             1019.00,1327.83 1013.00,1325.83 1013.00,1325.83
             1005.90,1323.60 989.40,1319.81 985.00,1314.00
             974.98,1314.62 962.59,1303.79 954.71,1298.36
             954.71,1298.36 940.39,1286.75 940.39,1286.75
             929.61,1278.84 918.98,1271.65 911.52,1260.20
             906.72,1252.82 901.10,1234.88 899.59,1225.99
             899.59,1225.99 898.74,1219.09 898.74,1219.09
             898.74,1219.09 897.22,1213.83 897.22,1213.83
             897.22,1213.83 895.75,1203.09 895.75,1203.09
             894.53,1197.18 893.27,1196.20 894.11,1189.09
             895.23,1179.64 903.91,1173.43 913.00,1174.10
             923.25,1174.85 925.75,1181.90 931.36,1188.70
             936.56,1194.99 939.34,1196.71 947.00,1199.00
             947.94,1191.92 947.27,1191.12 944.72,1184.83
             944.72,1184.83 941.81,1177.44 941.81,1177.44
             937.12,1169.42 921.54,1157.61 913.72,1152.22
             913.72,1152.22 905.66,1146.76 905.66,1146.76
             905.66,1146.76 880.91,1122.98 880.91,1122.98
             880.91,1122.98 862.75,1108.47 862.75,1108.47
             858.82,1105.40 854.97,1103.10 854.00,1098.00
             844.48,1093.50 840.06,1083.91 835.75,1075.07
             835.75,1075.07 822.86,1049.17 822.86,1049.17
             820.27,1043.67 815.63,1037.05 816.00,1031.00
             812.43,1028.58 811.92,1024.85 810.36,1021.05
             810.36,1021.05 803.32,1004.28 803.32,1004.28
             803.32,1004.28 795.62,987.00 795.62,987.00
             795.62,987.00 792.22,974.83 792.22,974.83
             792.22,974.83 791.02,968.09 791.02,968.09
             791.02,968.09 786.43,953.72 786.43,953.72
             786.43,953.72 784.75,940.09 784.75,940.09
             784.75,940.09 783.24,934.83 783.24,934.83
             783.24,934.83 781.87,918.04 781.87,918.04
             781.21,912.54 780.02,915.67 780.00,906.00
             780.00,906.00 780.00,854.00 780.00,854.00
             780.02,844.24 785.59,823.19 788.16,812.96
             788.16,812.96 790.75,802.91 790.75,802.91
             790.75,802.91 792.20,793.17 792.20,793.17
             792.20,793.17 794.30,786.96 794.30,786.96
             794.30,786.96 796.10,779.00 796.10,779.00
             796.10,779.00 806.32,755.72 806.32,755.72
             806.32,755.72 816.49,730.00 816.49,730.00
             816.49,730.00 823.42,717.00 823.42,717.00
             834.50,694.83 840.83,679.20 856.28,659.02
             862.85,650.45 868.40,646.32 875.83,639.04
             881.06,633.92 887.07,627.13 893.00,623.00
             893.00,623.00 880.46,614.42 880.46,614.42
             880.46,614.42 873.28,608.25 873.28,608.25
             869.20,605.15 866.14,605.31 863.07,598.41
             858.71,588.61 866.02,574.07 880.00,578.00
             882.52,574.95 889.14,573.89 893.00,572.63
             897.31,571.23 904.84,566.88 908.58,564.19
             914.95,559.60 921.43,555.02 926.88,549.31
             926.88,549.31 935.88,539.80 935.88,539.80
             935.88,539.80 943.88,533.83 943.88,533.83
             943.88,533.83 949.19,529.03 949.19,529.03
             949.19,529.03 967.02,517.19 967.02,517.19
             973.17,513.26 984.94,504.83 992.00,505.00
             994.34,501.62 999.21,500.83 1002.96,499.42
             1011.55,496.19 1010.97,497.31 1018.91,495.74
             1018.91,495.74 1026.04,493.47 1026.04,493.47
             1026.04,493.47 1033.96,492.87 1033.96,492.87
             1033.96,492.87 1040.17,491.24 1040.17,491.24
             1040.17,491.24 1058.96,489.87 1058.96,489.87
             1064.45,489.21 1061.32,488.02 1071.00,488.06
             1071.00,488.06 1089.91,488.06 1089.91,488.06
             1089.91,488.06 1098.01,489.95 1098.01,489.95
             1098.01,489.95 1116.91,491.11 1116.91,491.11
             1116.91,491.11 1124.04,492.87 1124.04,492.87
             1124.04,492.87 1134.96,493.62 1134.96,493.62
             1134.96,493.62 1141.17,495.53 1141.17,495.53
             1141.17,495.53 1150.96,496.76 1150.96,496.76
             1150.96,496.76 1166.28,501.28 1166.28,501.28
             1169.79,502.45 1171.58,501.89 1174.00,505.00
             1178.21,504.24 1178.23,505.24 1182.04,506.50
             1188.95,508.78 1198.63,513.11 1204.00,518.00 Z
           M 1554.00,746.00
           C 1564.29,745.96 1581.83,739.71 1588.77,731.95
             1588.77,731.95 1598.32,720.41 1598.32,720.41
             1600.47,717.30 1604.21,711.16 1607.47,709.28
             1609.88,707.88 1613.29,708.01 1616.00,708.00
             1623.15,707.97 1632.36,708.40 1632.00,718.00
             1634.71,720.05 1635.74,723.19 1637.66,726.00
             1642.88,733.63 1648.86,745.67 1649.00,755.00
             1649.00,755.00 1649.00,790.00 1649.00,790.00
             1648.99,798.36 1648.64,795.13 1646.84,802.04
             1641.36,823.02 1628.90,836.87 1613.00,851.00
             1616.38,853.61 1619.88,863.66 1621.64,867.95
             1624.90,875.88 1628.70,885.62 1630.37,894.00
             1630.37,894.00 1631.26,902.00 1631.26,902.00
             1631.26,902.00 1632.76,908.00 1632.76,908.00
             1632.76,908.00 1635.22,923.91 1635.22,923.91
             1635.22,923.91 1636.80,929.17 1636.80,929.17
             1636.80,929.17 1638.18,936.91 1638.18,936.91
             1638.18,936.91 1639.90,942.17 1639.90,942.17
             1639.90,942.17 1639.90,950.00 1639.90,950.00
             1639.90,950.00 1641.00,961.00 1641.00,961.00
             1641.00,961.00 1641.00,979.00 1641.00,979.00
             1641.00,979.00 1641.00,998.00 1641.00,998.00
             1641.00,998.00 1640.04,1010.00 1640.04,1010.00
             1640.04,1010.00 1640.04,1023.00 1640.04,1023.00
             1640.04,1023.00 1635.22,1052.00 1635.22,1052.00
             1635.22,1052.00 1627.18,1091.00 1627.18,1091.00
             1627.18,1091.00 1614.37,1124.83 1614.37,1124.83
             1614.37,1124.83 1603.15,1145.13 1603.15,1145.13
             1594.37,1162.58 1584.17,1179.40 1571.60,1194.37
             1567.82,1198.87 1564.80,1205.98 1559.00,1208.00
             1558.30,1214.58 1547.63,1226.57 1543.33,1232.29
             1543.33,1232.29 1522.65,1260.96 1522.65,1260.96
             1522.65,1260.96 1513.55,1270.72 1513.55,1270.72
             1513.55,1270.72 1501.61,1289.28 1501.61,1289.28
             1498.84,1294.76 1493.55,1309.09 1494.52,1314.99
             1495.47,1320.83 1500.62,1325.13 1502.27,1329.42
             1503.25,1331.97 1503.04,1337.14 1503.00,1340.00
             1502.86,1348.79 1500.01,1349.99 1492.00,1350.00
             1492.00,1350.00 1442.00,1350.00 1442.00,1350.00
             1437.92,1349.99 1428.96,1348.43 1425.17,1347.19
             1425.17,1347.19 1419.91,1344.98 1419.91,1344.98
             1419.91,1344.98 1407.28,1340.87 1407.28,1340.87
             1407.28,1340.87 1396.91,1335.79 1396.91,1335.79
             1387.80,1331.88 1369.50,1323.03 1365.00,1314.00
             1360.74,1313.29 1358.75,1310.22 1356.04,1306.99
             1350.15,1299.97 1345.13,1292.00 1341.60,1283.58
             1334.42,1266.45 1334.00,1253.19 1334.00,1235.00
             1334.00,1219.95 1334.69,1205.13 1339.70,1190.83
             1339.70,1190.83 1341.40,1184.28 1341.40,1184.28
             1342.80,1179.87 1348.56,1167.40 1352.00,1165.00
             1352.39,1157.64 1364.05,1143.10 1371.01,1140.70
             1373.18,1139.95 1375.72,1140.00 1378.00,1140.00
             1387.74,1140.00 1393.94,1143.96 1395.76,1154.17
             1397.38,1163.18 1391.18,1169.34 1386.25,1175.80
             1382.60,1180.59 1376.34,1191.40 1374.69,1197.04
             1374.69,1197.04 1369.85,1216.83 1369.85,1216.83
             1369.85,1216.83 1368.13,1222.09 1368.13,1222.09
             1368.13,1222.09 1368.13,1245.00 1368.13,1245.00
             1368.04,1251.35 1373.31,1268.22 1376.30,1273.99
             1380.57,1282.23 1389.59,1288.22 1393.00,1294.00
             1397.43,1294.63 1399.05,1296.82 1402.75,1299.05
             1402.75,1299.05 1416.42,1305.97 1416.42,1305.97
             1425.62,1310.51 1449.87,1317.78 1460.00,1318.00
             1460.00,1318.00 1461.54,1293.09 1461.54,1293.09
             1461.54,1293.09 1463.69,1287.83 1463.69,1287.83
             1463.69,1287.83 1465.73,1281.42 1465.73,1281.42
             1470.74,1269.73 1480.79,1253.97 1488.82,1244.17
             1488.82,1244.17 1500.72,1230.70 1500.72,1230.70
             1500.72,1230.70 1507.17,1220.67 1507.17,1220.67
             1507.17,1220.67 1513.29,1213.74 1513.29,1213.74
             1513.29,1213.74 1525.52,1195.00 1525.52,1195.00
             1525.52,1195.00 1534.85,1183.54 1534.85,1183.54
             1534.85,1183.54 1545.50,1169.70 1545.50,1169.70
             1552.01,1161.59 1557.35,1154.20 1562.25,1145.00
             1565.16,1139.52 1568.79,1130.27 1574.00,1127.00
             1574.54,1122.45 1583.81,1105.19 1586.40,1099.72
             1586.40,1099.72 1596.53,1069.83 1596.53,1069.83
             1596.53,1069.83 1597.59,1062.01 1597.59,1062.01
             1597.59,1062.01 1599.74,1053.91 1599.74,1053.91
             1599.74,1053.91 1600.33,1048.04 1600.33,1048.04
             1600.33,1048.04 1602.73,1040.91 1602.73,1040.91
             1602.73,1040.91 1604.11,1023.09 1604.11,1023.09
             1604.68,1018.20 1605.95,1020.15 1606.00,1012.00
             1606.00,1012.00 1607.00,994.00 1607.00,994.00
             1607.00,994.00 1607.00,970.00 1607.00,970.00
             1607.00,970.00 1605.74,952.09 1605.74,952.09
             1605.74,952.09 1604.23,946.83 1604.23,946.83
             1604.23,946.83 1602.75,935.09 1602.75,935.09
             1602.75,935.09 1600.69,928.91 1600.69,928.91
             1600.69,928.91 1598.42,918.72 1598.42,918.72
             1598.42,918.72 1596.91,908.00 1596.91,908.00
             1596.91,908.00 1594.29,896.04 1594.29,896.04
             1594.29,896.04 1586.54,876.00 1586.54,876.00
             1586.54,876.00 1578.26,861.10 1578.26,861.10
             1574.78,857.11 1570.50,856.59 1567.20,850.39
             1565.72,847.60 1566.20,845.85 1565.45,843.04
             1563.18,834.54 1562.82,840.24 1563.00,828.00
             1563.12,819.86 1568.86,808.26 1577.01,805.56
             1579.31,804.80 1585.34,804.96 1588.00,805.00
             1594.61,805.10 1596.68,807.41 1600.00,813.00
             1609.63,802.16 1611.37,799.25 1614.22,785.17
             1614.22,785.17 1615.74,779.91 1615.74,779.91
             1616.94,773.25 1614.86,764.45 1613.00,758.00
             1609.86,763.28 1602.34,769.29 1596.00,769.00
             1593.43,772.40 1581.29,776.64 1576.96,777.53
             1576.96,777.53 1571.09,778.26 1571.09,778.26
             1566.37,779.17 1568.80,779.96 1561.00,780.00
             1561.00,780.00 1554.00,780.00 1554.00,780.00
             1544.34,779.95 1527.50,774.43 1522.15,765.80
             1518.33,759.62 1518.90,751.94 1519.00,745.00
             1519.18,733.04 1526.57,727.74 1538.00,728.01
             1542.84,728.13 1545.70,728.42 1548.00,733.00
             1548.00,733.00 1550.00,732.00 1550.00,732.00
             1553.64,738.70 1553.97,738.35 1554.00,746.00 Z
           M 915.00,815.00
           C 900.49,815.37 905.52,823.76 891.00,824.82
             871.07,826.27 866.51,803.84 878.04,793.26
             886.14,785.82 892.60,783.47 902.91,780.82
             908.51,779.39 906.15,779.04 913.00,779.00
             913.00,779.00 934.00,779.00 934.00,779.00
             934.00,779.00 953.83,782.22 953.83,782.22
             953.83,782.22 960.04,784.04 960.04,784.04
             960.04,784.04 978.00,786.25 978.00,786.25
             978.00,786.25 988.00,788.57 988.00,788.57
             988.00,788.57 995.83,789.24 995.83,789.24
             1000.55,790.07 997.66,790.98 1007.00,791.00
             1007.00,791.00 1048.00,791.00 1048.00,791.00
             1057.75,790.98 1074.86,785.64 1084.28,782.35
             1094.05,778.93 1110.83,772.64 1117.60,764.79
             1122.91,758.64 1120.29,746.80 1125.75,735.44
             1130.04,726.48 1145.64,719.93 1152.00,730.00
             1152.00,730.00 1154.00,729.00 1154.00,729.00
             1154.00,729.00 1155.00,733.00 1155.00,733.00
             1159.29,734.03 1161.05,738.91 1161.70,743.00
             1162.99,751.12 1161.07,762.22 1158.83,770.02
             1158.00,772.90 1155.70,777.28 1156.26,779.85
             1159.44,794.39 1176.51,807.59 1189.02,814.00
             1187.33,804.67 1187.94,796.33 1189.02,787.00
             1189.02,787.00 1189.02,779.17 1189.02,779.17
             1189.02,779.17 1191.16,772.96 1191.16,772.96
             1191.16,772.96 1192.46,765.28 1192.46,765.28
             1195.11,756.54 1200.29,748.56 1206.63,742.12
             1211.38,737.28 1215.87,730.85 1223.00,730.00
             1228.10,723.27 1237.18,724.49 1244.09,727.06
             1246.73,728.05 1249.42,728.77 1251.52,730.80
             1254.27,733.44 1255.87,738.29 1255.98,742.01
             1256.27,750.97 1252.42,760.27 1243.71,763.84
             1239.79,765.45 1237.09,764.55 1234.17,766.17
             1230.89,768.00 1229.52,771.57 1226.00,774.00
             1226.00,774.00 1224.09,793.00 1224.09,793.00
             1224.09,793.00 1224.09,807.00 1224.09,807.00
             1224.09,807.00 1226.00,816.00 1226.00,816.00
             1228.88,817.72 1230.60,820.25 1232.90,822.66
             1234.80,824.66 1238.46,828.11 1239.73,830.28
             1245.94,840.90 1242.63,854.05 1230.72,858.73
             1227.22,860.10 1223.67,859.99 1220.00,860.00
             1220.00,860.00 1210.00,860.00 1210.00,860.00
             1200.09,859.88 1191.49,855.59 1182.87,851.16
             1175.14,847.19 1166.75,843.97 1159.61,838.94
             1159.61,838.94 1150.83,831.91 1150.83,831.91
             1144.75,827.40 1130.92,813.69 1130.00,806.00
             1130.00,806.00 1125.19,804.35 1125.19,804.35
             1125.19,804.35 1109.00,811.29 1109.00,811.29
             1109.00,811.29 1086.09,818.98 1086.09,818.98
             1086.09,818.98 1080.83,820.85 1080.83,820.85
             1080.83,820.85 1074.09,822.18 1074.09,822.18
             1074.09,822.18 1068.83,823.97 1068.83,823.97
             1068.83,823.97 1060.00,823.97 1060.00,823.97
             1060.00,823.97 1049.00,825.26 1049.00,825.26
             1049.00,825.26 1039.00,827.00 1039.00,827.00
             1039.00,827.00 1019.00,827.00 1019.00,827.00
             1019.00,827.00 993.00,823.94 993.00,823.94
             993.00,823.94 984.09,823.94 984.09,823.94
             984.09,823.94 977.91,822.26 977.91,822.26
             977.91,822.26 968.09,820.97 968.09,820.97
             968.09,820.97 959.00,819.00 959.00,819.00
             955.91,829.85 950.86,826.98 946.75,833.17
             944.11,837.14 943.16,841.76 941.20,845.99
             941.20,845.99 936.98,854.08 936.98,854.08
             935.47,858.44 935.08,863.23 931.00,866.00
             931.38,872.53 929.17,875.28 927.45,881.00
             925.97,885.92 926.47,889.03 925.76,892.83
             925.76,892.83 923.24,900.01 923.24,900.01
             923.24,900.01 923.24,927.00 923.24,927.00
             923.24,927.00 928.87,957.00 928.87,957.00
             928.05,965.38 921.62,972.87 913.00,973.00
             904.03,973.13 897.84,971.13 894.46,962.00
             894.46,962.00 892.57,954.17 892.57,954.17
             890.39,946.80 888.01,938.72 888.00,931.00
             888.00,931.00 888.00,905.00 888.00,905.00
             888.00,905.00 890.54,885.09 890.54,885.09
             890.54,885.09 892.74,878.91 892.74,878.91
             892.74,878.91 893.76,871.04 893.76,871.04
             893.76,871.04 898.36,856.72 898.36,856.72
             900.56,851.03 903.21,839.63 908.00,836.00
             907.53,828.44 913.28,822.15 915.00,815.00 Z
           M 1424.00,844.00
           C 1427.34,840.18 1430.99,832.05 1433.14,827.28
             1433.14,827.28 1444.25,804.72 1444.25,804.72
             1447.57,795.84 1449.57,787.26 1454.89,779.20
             1460.44,770.78 1457.51,770.19 1467.39,763.35
             1468.92,762.29 1470.49,761.03 1472.29,760.24
             1474.33,759.84 1479.66,759.97 1482.00,760.24
             1493.24,760.17 1499.85,771.25 1496.29,781.58
             1492.92,791.34 1489.26,788.49 1482.86,802.17
             1482.86,802.17 1480.74,808.72 1480.74,808.72
             1480.74,808.72 1474.87,823.72 1474.87,823.72
             1474.87,823.72 1467.48,838.28 1467.48,838.28
             1467.48,838.28 1462.58,850.00 1462.58,850.00
             1462.58,850.00 1450.57,872.00 1450.57,872.00
             1450.57,872.00 1437.11,897.80 1437.11,897.80
             1434.50,901.68 1433.23,904.60 1429.00,907.00
             1427.89,913.17 1421.25,918.99 1416.87,923.37
             1416.87,923.37 1407.47,933.80 1407.47,933.80
             1407.47,933.80 1388.00,952.00 1388.00,952.00
             1396.75,951.72 1395.08,948.74 1414.00,949.00
             1427.76,949.19 1434.29,965.16 1426.45,975.98
             1423.89,979.53 1407.82,991.57 1403.44,995.00
             1403.44,995.00 1382.41,1013.50 1382.41,1013.50
             1382.41,1013.50 1373.41,1024.60 1373.41,1024.60
             1369.85,1028.98 1363.43,1035.69 1362.00,1041.00
             1362.00,1041.00 1359.00,1041.00 1359.00,1041.00
             1358.13,1051.29 1349.58,1063.18 1345.97,1073.07
             1345.97,1073.07 1336.45,1100.00 1336.45,1100.00
             1336.45,1100.00 1331.92,1125.91 1331.92,1125.91
             1331.13,1130.87 1330.11,1129.45 1330.00,1136.00
             1330.00,1136.00 1330.00,1147.00 1330.00,1147.00
             1329.99,1152.23 1329.94,1155.46 1326.12,1159.56
             1320.18,1165.93 1306.55,1165.70 1300.57,1159.56
             1296.31,1155.20 1296.03,1151.79 1296.00,1146.00
             1295.90,1125.92 1297.36,1116.45 1301.55,1097.00
             1301.55,1097.00 1302.54,1089.09 1302.54,1089.09
             1302.54,1089.09 1305.02,1082.91 1305.02,1082.91
             1306.86,1077.28 1309.51,1064.42 1314.00,1061.00
             1313.58,1054.16 1318.62,1048.06 1321.20,1041.95
             1326.41,1029.65 1328.36,1025.90 1335.74,1014.71
             1335.74,1014.71 1339.76,1008.17 1339.76,1008.17
             1339.76,1008.17 1355.00,990.00 1355.00,990.00
             1345.20,990.00 1336.90,990.13 1327.09,988.89
             1327.09,988.89 1318.99,987.05 1318.99,987.05
             1308.01,986.22 1296.19,984.94 1296.00,971.00
             1295.97,968.37 1295.84,964.44 1296.72,962.00
             1299.78,953.54 1305.85,953.47 1312.83,951.55
             1312.83,951.55 1321.91,948.91 1321.91,948.91
             1329.96,946.56 1337.63,943.59 1344.85,939.28
             1350.92,935.64 1357.69,929.31 1363.21,924.71
             1363.21,924.71 1381.30,909.08 1381.30,909.08
             1381.30,909.08 1388.05,901.01 1388.05,901.01
             1394.15,894.62 1398.81,890.08 1404.00,882.74
             1404.00,882.74 1409.74,873.09 1409.74,873.09
             1409.74,873.09 1419.70,854.13 1419.70,854.13
             1421.60,850.41 1423.61,848.30 1424.00,844.00 Z
           M 489.00,806.00
           C 489.00,806.00 546.00,806.00 546.00,806.00
             546.00,806.00 546.00,890.00 546.00,890.00
             546.00,890.00 630.00,890.00 630.00,890.00
             630.00,890.00 630.00,947.00 630.00,947.00
             630.00,947.00 546.00,947.00 546.00,947.00
             546.00,947.00 546.00,1031.00 546.00,1031.00
             546.00,1031.00 489.00,1031.00 489.00,1031.00
             489.00,1031.00 489.00,947.00 489.00,947.00
             489.00,947.00 405.00,947.00 405.00,947.00
             405.00,947.00 405.00,890.00 405.00,890.00
             405.00,890.00 489.00,890.00 489.00,890.00
             489.00,890.00 489.00,806.00 489.00,806.00 Z" />
</svg>
