<?xml version="1.0" encoding="UTF-8" standalone="no"?>
<!DOCTYPE svg PUBLIC "-//W3C//DTD SVG 20010904//EN"
              "http://www.w3.org/TR/2001/REC-SVG-20010904/DTD/svg10.dtd">

<svg xmlns="http://www.w3.org/2000/svg"
     width="6in" height="6in"
     viewBox="0 0 1800 1800">
  <path id="Green"
        fill="none" stroke="black" stroke-width="1"
        d="M 1339.00,578.00
           C 1339.84,570.14 1350.74,564.01 1356.28,559.02
             1362.45,553.47 1371.84,546.85 1379.01,542.55
             1379.01,542.55 1389.72,536.45 1389.72,536.45
             1389.72,536.45 1394.44,532.67 1394.44,532.67
             1399.01,529.35 1417.02,519.53 1422.00,518.48
             1426.01,517.63 1431.88,518.09 1435.83,519.15
             1446.53,522.02 1454.31,541.66 1462.00,550.00
             1462.00,550.00 1461.00,553.00 1461.00,553.00
             1464.99,555.58 1466.52,560.75 1468.29,565.00
             1472.13,574.19 1478.20,586.21 1479.00,596.00
             1479.00,596.00 1481.00,595.00 1481.00,595.00
             1481.49,605.65 1483.74,606.82 1484.90,614.00
             1484.90,614.00 1484.90,622.00 1484.90,622.00
             1484.90,622.00 1486.00,647.00 1486.00,647.00
             1485.96,669.86 1480.50,689.76 1473.38,711.17
             1473.38,711.17 1471.60,718.00 1471.60,718.00
             1467.32,731.03 1460.12,748.10 1452.94,759.75
             1438.37,783.42 1430.49,794.89 1411.73,815.54
             1411.73,815.54 1397.35,829.92 1397.35,829.92
             1394.79,832.10 1390.97,833.73 1390.00,837.00
             1384.34,838.86 1375.24,845.88 1370.67,849.88
             1366.69,853.37 1364.43,857.21 1359.00,858.00
             1355.11,865.68 1344.49,869.32 1337.17,873.00
             1333.69,874.75 1328.79,877.44 1324.91,877.89
             1320.63,878.38 1312.35,877.89 1311.00,873.00
             1309.15,872.41 1308.18,872.37 1306.85,870.69
             1303.52,866.46 1305.31,853.24 1306.00,848.00
             1306.00,848.00 1313.44,843.53 1313.44,843.53
             1313.44,843.53 1337.00,832.00 1337.00,832.00
             1337.00,832.00 1336.00,830.00 1336.00,830.00
             1336.00,830.00 1360.00,811.00 1360.00,811.00
             1360.00,811.00 1362.00,812.00 1362.00,812.00
             1364.60,807.86 1370.22,804.59 1373.99,800.96
             1383.42,791.87 1395.17,779.72 1402.66,769.08
             1405.78,764.64 1409.28,760.19 1411.00,755.00
             1411.00,755.00 1413.00,756.00 1413.00,756.00
             1413.62,753.30 1413.28,752.78 1416.00,752.00
             1417.19,744.72 1420.43,742.47 1423.94,736.56
             1423.94,736.56 1431.16,721.72 1431.16,721.72
             1431.16,721.72 1433.27,715.28 1433.27,715.28
             1433.27,715.28 1441.17,694.00 1441.17,694.00
             1441.17,694.00 1445.69,675.09 1445.69,675.09
             1445.69,675.09 1447.75,668.91 1447.75,668.91
             1449.00,663.02 1449.00,656.99 1449.00,651.00
             1449.00,651.00 1451.00,652.00 1451.00,652.00
             1451.00,652.00 1451.00,636.00 1451.00,636.00
             1450.89,629.57 1449.99,630.86 1449.23,626.83
             1447.47,617.50 1447.64,612.70 1443.95,603.00
             1439.71,591.86 1435.86,580.16 1429.90,569.75
             1428.34,567.01 1425.31,561.32 1422.15,560.51
             1419.82,559.92 1416.04,563.09 1414.01,564.30
             1414.01,564.30 1394.59,576.54 1394.59,576.54
             1386.74,581.50 1374.35,590.84 1368.47,597.93
             1368.47,597.93 1355.74,615.90 1355.74,615.90
             1350.94,621.10 1347.00,621.59 1342.63,624.68
             1340.36,626.28 1336.31,630.86 1334.21,633.09
             1334.21,633.09 1318.00,654.00 1318.00,654.00
             1317.84,657.21 1317.42,660.96 1314.00,662.00
             1313.85,665.04 1314.28,667.98 1311.00,669.00
             1310.62,677.34 1306.82,684.98 1304.84,693.04
             1304.84,693.04 1303.58,700.72 1303.58,700.72
             1303.58,700.72 1302.13,706.04 1302.13,706.04
             1302.13,706.04 1301.26,719.99 1301.26,719.99
             1301.65,723.12 1303.18,724.35 1303.75,727.17
             1304.74,732.08 1302.04,743.67 1299.70,747.95
             1293.84,758.61 1276.11,758.93 1269.20,749.33
             1266.84,746.07 1267.04,742.82 1267.00,739.00
             1267.00,739.00 1265.00,740.00 1265.00,740.00
             1265.00,740.00 1265.00,721.00 1265.00,721.00
             1265.02,711.08 1266.52,713.93 1266.95,707.99
             1266.95,707.99 1268.23,692.17 1268.23,692.17
             1268.23,692.17 1269.78,686.91 1269.78,686.91
             1269.78,686.91 1271.15,679.17 1271.15,679.17
             1274.99,663.88 1279.83,649.28 1287.55,635.43
             1287.55,635.43 1292.53,628.08 1292.53,628.08
             1295.93,622.76 1301.57,613.82 1305.68,609.32
             1305.68,609.32 1311.32,604.10 1311.32,604.10
             1314.98,600.42 1314.63,598.82 1318.42,595.51
             1322.88,591.63 1324.91,592.14 1327.68,590.16
             1333.21,586.22 1332.39,581.36 1339.00,578.00 Z
           M 489.00,806.00
           C 489.00,806.00 546.00,806.00 546.00,806.00
             546.00,806.00 546.00,890.00 546.00,890.00
             546.00,890.00 630.00,890.00 630.00,890.00
             630.00,890.00 630.00,947.00 630.00,947.00
             630.00,947.00 546.00,947.00 546.00,947.00
             546.00,947.00 546.00,1031.00 546.00,1031.00
             546.00,1031.00 489.00,1031.00 489.00,1031.00
             489.00,1031.00 489.00,947.00 489.00,947.00
             489.00,947.00 405.00,947.00 405.00,947.00
             405.00,947.00 405.00,890.00 405.00,890.00
             405.00,890.00 489.00,890.00 489.00,890.00
             489.00,890.00 489.00,806.00 489.00,806.00 Z
           M 962.00,870.00
           C 962.14,865.19 963.54,862.07 965.27,857.72
             968.77,848.90 970.90,842.78 982.00,842.09
             984.86,841.91 988.04,842.22 990.72,843.27
             1012.45,851.77 995.67,876.21 993.12,890.96
             993.12,890.96 988.26,911.09 988.26,911.09
             986.15,921.98 985.98,943.43 986.00,955.00
             986.03,969.16 991.25,961.51 995.81,975.28
             998.22,983.58 995.83,988.86 995.81,997.00
             996.17,1003.97 1001.69,1024.00 1004.60,1030.58
             1004.60,1030.58 1010.13,1040.83 1010.13,1040.83
             1012.42,1045.69 1014.94,1053.81 1021.00,1055.00
             1026.46,1061.58 1039.42,1072.20 1046.92,1076.55
             1050.45,1078.59 1061.16,1082.86 1063.00,1085.00
             1063.00,1085.00 1095.00,1093.00 1095.00,1093.00
             1095.00,1093.00 1094.00,1095.00 1094.00,1095.00
             1094.00,1095.00 1110.00,1096.00 1110.00,1096.00
             1110.00,1096.00 1109.00,1098.00 1109.00,1098.00
             1109.00,1098.00 1140.00,1101.98 1140.00,1101.98
             1140.00,1101.98 1164.00,1099.10 1164.00,1099.10
             1164.00,1099.10 1180.00,1099.10 1180.00,1099.10
             1181.47,1099.00 1184.51,1098.94 1185.83,1099.10
             1193.22,1101.28 1196.99,1111.81 1200.16,1117.87
             1200.16,1117.87 1211.25,1139.42 1211.25,1139.42
             1211.25,1139.42 1216.38,1156.83 1216.38,1156.83
             1219.65,1166.64 1221.90,1171.21 1222.00,1182.00
             1222.00,1182.00 1224.00,1181.00 1224.00,1181.00
             1224.00,1181.00 1225.26,1198.00 1225.26,1198.00
             1225.26,1198.00 1227.00,1209.00 1227.00,1209.00
             1227.00,1209.00 1227.00,1232.00 1227.00,1232.00
             1227.00,1232.00 1226.00,1251.00 1226.00,1251.00
             1229.37,1254.02 1228.00,1263.52 1228.00,1268.00
             1228.00,1281.52 1231.45,1297.91 1216.13,1304.32
             1213.67,1305.35 1211.82,1306.09 1209.07,1305.87
             1206.96,1305.70 1205.77,1305.03 1203.84,1304.37
             1194.56,1301.22 1192.02,1296.62 1192.00,1287.00
             1192.00,1287.00 1192.00,1227.00 1192.00,1227.00
             1192.00,1227.00 1191.04,1215.00 1191.04,1215.00
             1191.04,1215.00 1191.04,1203.00 1191.04,1203.00
             1191.04,1203.00 1189.00,1204.00 1189.00,1204.00
             1189.00,1204.00 1184.00,1171.00 1184.00,1171.00
             1184.00,1171.00 1180.36,1163.28 1180.36,1163.28
             1180.36,1163.28 1171.53,1142.25 1171.53,1142.25
             1171.53,1142.25 1166.73,1136.04 1166.73,1136.04
             1166.73,1136.04 1155.00,1136.04 1155.00,1136.04
             1155.00,1136.04 1126.00,1136.04 1126.00,1136.04
             1126.00,1136.04 1106.96,1133.04 1106.96,1133.04
             1106.96,1133.04 1096.28,1131.57 1096.28,1131.57
             1096.28,1131.57 1089.99,1129.63 1089.99,1129.63
             1089.99,1129.63 1067.28,1124.66 1067.28,1124.66
             1067.28,1124.66 1035.58,1111.98 1035.58,1111.98
             1035.58,1111.98 1018.00,1103.00 1018.00,1103.00
             1018.00,1103.00 1019.00,1101.00 1019.00,1101.00
             1012.99,1099.00 1003.91,1091.70 1001.00,1086.00
             1001.00,1086.00 999.00,1087.00 999.00,1087.00
             999.00,1087.00 988.21,1075.99 988.21,1075.99
             988.21,1075.99 978.29,1062.17 978.29,1062.17
             978.29,1062.17 968.14,1048.41 968.14,1048.41
             968.14,1048.41 963.43,1030.00 963.43,1030.00
             963.43,1030.00 962.34,1022.09 962.34,1022.09
             962.34,1022.09 957.39,1005.72 957.39,1005.72
             957.39,1005.72 953.30,989.04 953.30,989.04
             953.30,989.04 951.24,982.83 951.24,982.83
             951.24,982.83 950.00,938.00 950.00,938.00
             950.00,938.00 951.00,919.00 951.00,919.00
             951.00,919.00 952.91,908.96 952.91,908.96
             952.91,908.96 958.29,880.72 958.29,880.72
             958.29,880.72 962.00,870.00 962.00,870.00 Z" />
</svg>
