<?xml version="1.0" encoding="UTF-8" standalone="no"?>
<!DOCTYPE svg PUBLIC "-//W3C//DTD SVG 20010904//EN"
              "http://www.w3.org/TR/2001/REC-SVG-20010904/DTD/svg10.dtd">

<svg xmlns="http://www.w3.org/2000/svg"
     width="12in" height="12in"
     viewBox="0 0 864 864">
  <path id="band"
        fill="none" stroke="black" stroke-width="1"
        d="M 405.00,331.00
           C 417.84,331.00 420.62,331.88 433.00,335.00
             433.00,335.00 430.00,350.00 430.00,350.00
             416.93,347.65 415.90,348.00 403.00,348.00
             403.00,348.00 404.00,343.00 404.00,343.00
             406.05,342.99 410.79,343.32 412.09,341.46
             414.52,337.98 406.38,338.02 405.00,338.00
             405.00,338.00 405.00,331.00 405.00,331.00 Z
           M 395.00,352.00
           C 386.51,354.45 385.92,353.14 382.00,354.19
             379.28,354.92 374.69,357.59 372.15,357.36
             369.60,357.13 369.20,355.14 369.71,352.98
             372.17,342.41 385.37,336.03 395.00,334.00
             394.39,341.57 393.08,344.09 395.00,352.00 Z
           M 444.00,342.00
           C 444.00,342.00 462.44,354.52 462.44,354.52
             462.44,354.52 469.45,366.00 469.45,366.00
             471.01,368.22 476.82,375.47 473.40,377.92
             470.68,379.88 466.75,374.87 464.96,373.28
             451.04,360.91 445.02,362.21 437.00,357.00
             442.14,354.13 443.22,347.48 444.00,342.00 Z" />
</svg>
