<?xml version="1.0" encoding="UTF-8" standalone="no"?>
<!DOCTYPE svg PUBLIC "-//W3C//DTD SVG 20010904//EN"
              "http://www.w3.org/TR/2001/REC-SVG-20010904/DTD/svg10.dtd">

<svg xmlns="http://www.w3.org/2000/svg"
     width="12in" height="12in"
     viewBox="0 0 864 864">
  <path id="blue eyes"
        fill="none" stroke="black" stroke-width="1"
        d="M 380.00,416.00
           C 379.02,410.53 378.00,402.30 386.02,402.10
             388.13,402.05 390.18,402.57 391.96,403.74
             396.37,406.63 398.34,412.25 400.00,417.00
             392.34,413.26 389.76,400.87 382.84,411.00
             382.84,411.00 380.00,416.00 380.00,416.00 Z
           M 435.00,416.00
           C 436.08,412.96 436.48,411.90 438.00,409.00
             438.80,407.50 440.23,404.65 441.49,403.60
             445.86,399.97 449.94,405.01 451.20,409.00
             453.72,417.00 452.00,433.74 444.00,438.00
             450.33,427.51 449.76,427.61 450.53,416.00
             450.80,412.04 448.95,407.18 444.03,408.66
             440.63,409.67 439.49,413.42 435.00,416.00 Z
           M 383.00,428.00
           C 383.00,428.00 391.00,438.00 391.00,438.00
             385.29,435.36 384.05,434.29 383.00,428.00 Z" />
</svg>
