<?xml version="1.0" encoding="UTF-8" standalone="no"?>
<!DOCTYPE svg PUBLIC "-//W3C//DTD SVG 20010904//EN"
              "http://www.w3.org/TR/2001/REC-SVG-20010904/DTD/svg10.dtd">

<svg xmlns="http://www.w3.org/2000/svg"
     width="12in" height="12in"
     viewBox="0 0 864 864">
  <path id="buckle"
        fill="none" stroke="black" stroke-width="1"
        d="M 413.00,324.42
           C 420.35,323.60 438.95,327.69 442.98,334.33
             445.72,338.85 443.35,356.05 436.94,356.82
             436.94,356.82 411.00,353.00 411.00,353.00
             408.12,352.97 399.30,353.34 397.15,352.40
             394.30,351.16 394.13,348.74 394.02,346.00
             393.78,340.11 394.27,329.60 400.06,326.45
             403.24,324.72 409.13,324.97 413.00,324.42 Z
           M 433.00,335.00
           C 420.62,331.88 417.84,331.00 405.00,331.00
             405.00,331.00 405.00,338.00 405.00,338.00
             406.38,338.02 414.52,337.98 412.09,341.46
             410.79,343.32 406.05,342.99 404.00,343.00
             404.00,343.00 403.00,348.00 403.00,348.00
             415.90,348.00 416.93,347.65 430.00,350.00
             430.00,350.00 433.00,335.00 433.00,335.00 Z" />
</svg>
