<?xml version="1.0" encoding="UTF-8" standalone="no"?>
<!DOCTYPE svg PUBLIC "-//W3C//DTD SVG 20010904//EN"
              "http://www.w3.org/TR/2001/REC-SVG-20010904/DTD/svg10.dtd">

<svg xmlns="http://www.w3.org/2000/svg"
     width="12in" height="12in"
     viewBox="0 0 864 864">
  <path id="eye whites"
        fill="none" stroke="black" stroke-width="1"
        d="M 384.00,395.00
           C 390.04,397.31 398.87,403.47 397.00,411.00
             394.58,406.50 389.13,399.67 383.21,403.03
             381.38,404.06 379.44,407.23 378.00,409.00
             377.64,401.96 380.35,400.86 384.00,395.00 Z
           M 436.00,412.00
           C 436.81,407.72 439.77,393.69 446.78,397.23
             449.40,398.56 450.68,403.34 451.57,406.00
             454.49,414.67 454.20,430.53 447.00,437.00
             450.31,428.72 453.68,420.08 451.47,411.00
             450.66,407.68 447.46,401.45 443.13,403.17
             440.99,404.02 438.09,409.68 436.00,412.00 Z
           M 386.32,407.08
           C 393.27,405.59 395.60,413.73 390.86,415.34
             387.09,416.63 381.87,411.86 386.32,407.08 Z
           M 446.56,409.17
           C 451.71,408.52 451.45,415.63 449.42,416.83
             446.83,418.36 443.21,413.63 446.56,409.17 Z
           M 384.60,418.15
           C 388.01,417.69 387.36,420.21 386.40,420.85
             385.45,421.49 382.87,421.12 384.60,418.15 Z
           M 442.00,418.00
           C 442.00,418.00 444.00,418.00 444.00,418.00
             444.00,418.00 446.00,422.00 446.00,422.00
             442.93,420.93 443.07,421.07 442.00,418.00 Z
           M 384.00,434.00
           C 384.00,434.00 391.00,439.00 391.00,439.00
             386.69,438.28 385.65,438.20 384.00,434.00 Z" />
</svg>
