<?xml version="1.0" encoding="UTF-8" standalone="no"?>
<!DOCTYPE svg PUBLIC "-//W3C//DTD SVG 20010904//EN"
              "http://www.w3.org/TR/2001/REC-SVG-20010904/DTD/svg10.dtd">

<svg xmlns="http://www.w3.org/2000/svg"
     width="12in" height="12in"
     viewBox="0 0 864 864">
  <path id="fuck this mare"
        fill="none" stroke="black" stroke-width="1"
        d="M 765.00,18.00
           C 764.50,15.93 764.05,14.17 764.08,12.00
             764.28,-1.74 779.66,0.00 789.00,0.00
             793.44,0.00 798.88,-0.64 803.00,1.00
             803.00,1.00 798.00,2.00 798.00,2.00
             802.81,9.47 804.56,13.44 801.00,22.00
             814.12,21.54 805.29,11.77 818.00,10.30
             819.52,10.00 821.50,10.05 823.00,10.30
             831.01,12.39 832.05,20.05 830.47,27.00
             829.91,29.47 828.17,32.61 828.64,35.00
             829.06,37.17 831.47,39.79 832.55,42.00
             834.21,45.40 833.99,48.35 834.00,52.00
             836.99,52.00 841.16,51.84 844.00,52.53
             854.30,55.03 857.20,64.64 856.99,74.00
             856.83,80.79 854.89,83.84 854.91,85.90
             854.94,89.20 857.74,89.66 858.86,92.21
             860.22,95.30 857.77,95.61 860.00,102.00
             860.00,102.00 864.00,97.00 864.00,97.00
             864.00,97.00 864.00,116.00 864.00,116.00
             864.00,116.00 859.00,110.00 859.00,110.00
             854.93,116.86 853.12,113.83 853.00,123.00
             867.33,118.98 864.10,135.00 864.00,144.00
             863.90,151.76 860.83,156.68 856.34,162.83
             856.34,162.83 853.00,167.17 853.00,167.17
             851.36,170.25 851.99,175.88 846.79,180.61
             837.14,189.38 826.88,179.61 819.00,179.00
             819.73,187.92 825.20,186.41 825.69,196.00
             826.04,197.89 825.91,200.15 825.69,202.00
             822.20,215.73 810.41,213.71 800.00,211.00
             799.96,225.99 793.78,233.70 778.00,233.01
             775.56,232.79 773.36,232.10 771.00,233.01
             768.75,234.07 755.73,247.45 749.28,236.87
             748.52,235.62 747.83,233.44 747.31,232.00
             747.09,230.07 746.96,227.97 747.31,226.00
             747.21,224.30 747.52,222.60 748.15,221.00
             753.36,207.74 766.20,214.43 773.98,207.77
             782.76,200.27 776.45,194.90 780.74,189.23
             783.17,186.01 790.16,184.42 792.69,188.31
             794.40,190.96 794.00,197.75 794.00,201.00
             794.00,201.00 797.75,201.00 797.75,201.00
             798.03,198.36 798.26,195.55 797.75,193.00
             797.75,193.00 793.09,183.00 793.09,183.00
             789.39,172.69 787.55,156.49 800.00,151.23
             802.89,150.01 806.00,149.77 809.00,150.72
             811.28,151.44 813.26,153.24 815.72,152.10
             815.72,152.10 822.01,146.65 822.01,146.65
             825.54,144.18 827.91,144.10 832.00,144.00
             832.00,144.00 832.00,131.00 832.00,131.00
             825.90,133.83 823.38,133.14 816.86,132.00
             816.86,132.00 816.86,139.00 816.86,139.00
             813.33,155.37 792.02,141.94 801.01,129.21
             802.07,127.70 803.35,126.73 805.04,126.01
             807.27,125.05 809.62,125.06 812.00,125.00
             807.92,114.73 802.35,97.83 817.00,92.85
             820.59,91.63 827.96,92.00 832.00,92.00
             832.69,86.17 834.20,84.82 840.00,84.00
             838.33,81.06 835.16,73.44 831.90,72.66
             829.58,72.10 824.33,75.00 822.00,76.00
             822.63,78.59 823.85,83.98 822.00,86.26
             818.69,90.37 804.58,86.93 804.74,80.00
             804.84,76.12 809.03,73.61 812.00,72.00
             812.00,72.00 803.00,62.00 803.00,62.00
             799.16,72.78 792.32,81.91 781.00,73.00
             778.72,85.61 770.37,95.70 757.00,96.00
             761.35,111.31 751.73,116.46 738.00,114.00
             735.30,125.34 727.69,124.57 723.74,118.89
             719.99,113.50 722.21,99.53 728.19,96.39
             732.25,93.90 735.27,96.79 739.00,96.39
             739.00,96.39 750.00,94.00 750.00,94.00
             744.86,88.21 741.32,80.23 746.00,73.00
             746.39,75.78 746.84,78.40 747.95,81.00
             748.65,82.64 749.65,84.43 750.79,85.81
             755.14,91.09 760.93,91.02 765.99,86.77
             771.90,81.80 777.62,71.83 777.96,64.00
             778.31,56.12 773.51,44.62 764.00,45.44
             759.49,45.83 755.37,49.60 752.76,53.01
             747.72,59.62 748.08,62.00 745.00,67.00
             744.42,61.09 744.96,56.29 747.90,51.00
             749.09,48.88 753.21,44.26 753.40,42.83
             753.72,40.36 750.91,37.96 749.23,35.00
             747.51,31.05 748.01,28.08 749.23,24.00
             737.61,25.50 731.15,27.18 722.00,19.00
             721.25,20.40 721.12,21.19 719.71,22.26
             712.32,27.88 706.54,13.31 717.00,13.22
             718.62,13.21 719.52,13.59 721.00,14.00
             723.97,8.60 728.58,4.54 735.00,7.00
             733.62,7.74 732.28,8.38 731.07,9.41
             718.92,19.88 749.78,22.87 742.48,11.04
             742.48,11.04 738.00,6.00 738.00,6.00
             747.11,6.45 753.66,10.15 754.00,20.00
             754.00,20.00 765.00,18.00 765.00,18.00 Z
           M 808.00,0.00
           C 808.00,0.00 821.00,0.00 821.00,0.00
             817.81,5.97 810.36,7.38 808.00,0.00 Z
           M 857.00,0.00
           C 857.00,0.00 864.00,7.00 864.00,7.00
             864.00,7.00 857.00,0.00 857.00,0.00 Z
           M 754.00,20.00
           C 754.00,20.00 753.00,20.00 753.00,20.00
             753.00,20.00 754.00,21.00 754.00,21.00
             754.00,21.00 754.00,20.00 754.00,20.00 Z
           M 750.00,23.00
           C 750.00,23.00 749.00,23.00 749.00,23.00
             749.00,23.00 750.00,24.00 750.00,24.00
             750.00,24.00 750.00,23.00 750.00,23.00 Z
           M 837.56,24.02
           C 847.24,20.10 856.44,30.23 855.96,42.00
             855.87,44.34 855.53,48.49 853.44,49.96
             850.73,51.87 845.46,49.50 843.09,47.87
             836.82,43.55 832.35,30.35 837.56,24.02 Z
           M 734.11,30.58
           C 736.52,30.14 738.49,29.74 740.98,30.58
             753.13,33.78 745.77,52.89 737.02,50.34
             730.56,48.47 726.48,35.58 734.11,30.58 Z
           M 654.00,33.00
           C 654.00,33.00 661.00,33.00 661.00,33.00
             661.00,33.00 661.00,35.00 661.00,35.00
             657.12,35.80 656.85,35.77 654.00,33.00 Z
           M 669.15,32.76
           C 676.45,31.47 677.78,37.43 673.77,39.26
             669.36,41.26 663.05,36.99 669.15,32.76 Z
           M 713.02,33.57
           C 718.22,32.74 723.08,33.80 726.57,38.11
             731.42,44.09 726.81,51.63 720.00,53.09
             711.66,54.88 700.82,38.61 713.02,33.57 Z
           M 684.00,35.33
           C 687.89,36.93 685.72,39.37 684.00,39.37
             682.29,39.38 680.13,37.09 684.00,35.33 Z
           M 692.00,40.00
           C 695.54,33.38 702.71,33.75 705.00,41.00
             699.37,42.37 697.31,42.46 692.00,40.00 Z
           M 729.43,58.02
           C 741.00,53.63 742.16,71.77 735.78,76.24
             732.22,78.73 729.33,76.40 727.88,72.98
             725.79,68.07 725.65,62.01 729.43,58.02 Z
           M 863.00,70.00
           C 864.48,73.72 864.48,79.28 863.00,83.00
             863.00,83.00 863.00,70.00 863.00,70.00 Z
           M 792.31,79.03
           C 800.43,76.24 801.31,84.64 797.69,86.97
             793.45,89.70 786.96,84.79 792.31,79.03 Z
           M 729.30,83.74
           C 732.09,83.00 735.21,82.74 737.84,84.31
             741.75,86.66 739.39,90.08 735.00,90.76
             730.41,91.47 724.39,87.99 729.30,83.74 Z
           M 784.98,91.57
           C 791.38,92.43 792.20,98.43 791.95,104.00
             791.58,112.25 785.43,119.31 777.00,119.88
             765.23,120.69 762.95,109.78 767.67,101.01
             771.40,94.08 777.73,92.34 784.98,91.57 Z
           M 606.39,104.02
           C 610.47,102.44 616.29,102.37 619.78,105.43
             625.41,110.36 624.76,121.23 620.58,123.98
             617.85,125.78 613.63,124.50 611.01,123.08
             603.80,119.18 599.85,110.45 606.39,104.02 Z
           M 609.31,108.62
           C 603.27,113.71 613.62,122.70 617.57,121.32
             619.64,120.59 619.92,117.83 619.53,116.00
             618.48,111.12 614.18,107.86 609.31,108.62 Z
           M 752.00,118.64
           C 764.21,118.81 757.83,132.99 749.00,134.38
             743.12,135.30 740.95,131.08 743.01,126.00
             744.79,121.58 747.63,119.85 752.00,118.64 Z
           M 719.59,128.08
           C 725.03,126.73 725.41,132.31 723.26,133.99
             720.77,135.94 716.06,132.95 719.59,128.08 Z
           M 732.00,134.00
           C 746.57,134.86 743.73,150.45 734.00,153.35
             725.13,155.99 716.40,144.70 724.00,137.00
             722.75,141.73 721.90,148.43 728.04,150.35
             732.61,151.77 739.63,145.90 738.29,141.09
             737.67,138.86 733.78,135.93 732.00,134.00 Z
           M 633.00,175.53
           C 645.99,173.39 656.61,179.02 662.37,191.00
             666.25,199.08 668.16,211.54 657.00,214.32
             646.34,216.97 635.40,215.05 629.35,205.00
             623.62,195.47 619.13,179.99 633.00,175.53 Z
           M 638.00,176.47
           C 625.45,178.20 623.47,189.75 627.88,200.00
             631.59,208.64 639.58,213.65 649.00,213.42
             661.30,213.11 662.11,203.49 659.51,194.00
             656.56,183.23 649.18,176.91 638.00,176.47 Z
           M 844.00,193.00
           C 845.93,203.00 837.23,207.51 834.60,205.87
             832.81,204.76 833.12,201.67 833.74,200.00
             835.52,195.22 839.41,193.76 844.00,193.00 Z
           M 803.00,227.00
           C 804.73,222.64 805.44,221.41 810.00,220.00
             809.68,225.39 809.07,228.05 803.00,227.00 Z" />
</svg>
