<?xml version="1.0" encoding="UTF-8" standalone="no"?>
<!DOCTYPE svg PUBLIC "-//W3C//DTD SVG 20010904//EN"
              "http://www.w3.org/TR/2001/REC-SVG-20010904/DTD/svg10.dtd">

<svg xmlns="http://www.w3.org/2000/svg"
     width="12in" height="12in"
     viewBox="0 0 864 864">
  <path id="hat"
        fill="none" stroke="black" stroke-width="1"
        d="M 384.00,338.00
           C 385.59,329.64 390.13,326.49 395.00,320.00
             403.84,308.22 419.00,292.39 435.00,293.04
             440.77,293.27 442.84,294.78 448.00,296.55
             457.54,299.83 463.82,304.34 472.00,309.98
             475.81,312.60 480.73,315.43 483.58,319.04
             485.76,321.79 486.17,323.94 487.46,327.00
             491.48,336.52 496.89,342.64 498.78,353.00
             499.70,356.48 500.56,361.47 498.78,364.75
             496.09,368.70 490.23,366.44 487.00,364.75
             471.71,357.14 469.64,346.50 462.00,354.00
             458.02,351.77 448.00,346.20 445.60,342.83
             443.12,339.34 444.95,336.88 441.69,333.53
             436.97,328.69 421.79,323.82 415.00,324.32
             415.00,324.32 410.00,324.91 410.00,324.91
             407.62,325.09 405.32,324.92 403.00,325.65
             397.23,327.47 396.69,331.26 394.46,333.28
             392.59,334.98 386.53,337.22 384.00,338.00 Z
           M 369.00,357.00
           C 376.37,357.64 376.90,354.73 383.00,353.60
             390.39,352.23 397.59,352.99 405.00,353.00
             420.10,353.02 438.67,355.87 452.00,363.37
             455.51,365.35 461.93,369.80 464.96,372.44
             464.96,372.44 470.28,377.46 470.28,377.46
             470.28,377.46 476.00,381.13 476.00,381.13
             476.00,381.13 483.00,386.45 483.00,386.45
             495.41,395.49 495.17,396.92 505.00,407.00
             508.31,410.39 512.49,413.75 511.16,419.00
             508.90,427.84 493.87,431.33 486.00,432.56
             483.26,432.99 477.77,433.52 475.39,431.98
             472.00,429.78 470.92,422.74 471.18,419.00
             471.82,410.02 473.40,408.04 469.49,399.00
             468.42,396.56 467.62,394.64 464.94,393.60
             461.81,392.39 459.01,393.77 456.01,394.20
             450.94,394.93 449.25,390.73 445.91,387.58
             445.91,387.58 436.72,378.54 436.72,378.54
             436.72,378.54 431.17,374.72 431.17,374.72
             428.34,372.31 427.64,370.66 423.99,368.53
             411.18,361.07 385.55,366.04 372.00,370.00
             372.00,370.00 369.00,357.00 369.00,357.00 Z" />
</svg>
