<?xml version="1.0" encoding="UTF-8" standalone="no"?>
<!DOCTYPE svg PUBLIC "-//W3C//DTD SVG 20010904//EN"
              "http://www.w3.org/TR/2001/REC-SVG-20010904/DTD/svg10.dtd">

<svg xmlns="http://www.w3.org/2000/svg"
     width="12in" height="12in"
     viewBox="0 0 864 864">
  <path id="ponk"
        fill="none" stroke="black" stroke-width="1"
        d="M 433.00,377.00
           C 438.50,377.93 439.16,380.16 443.01,383.96
             449.47,390.33 454.78,394.47 456.00,404.00
             450.74,400.53 448.81,392.94 443.04,394.66
             439.82,395.61 437.13,399.81 436.61,403.00
             436.61,403.00 436.61,410.00 436.61,410.00
             435.57,416.24 432.56,423.70 434.70,430.00
             437.19,437.36 440.46,437.84 447.00,436.97
             453.81,436.06 454.73,440.63 452.99,446.00
             451.41,450.89 442.49,464.94 438.70,468.24
             429.72,476.06 415.30,474.13 404.00,474.00
             397.53,473.92 396.87,472.90 391.00,472.00
             391.00,472.00 388.60,461.00 388.60,461.00
             388.60,461.00 385.00,438.03 385.00,438.03
             387.52,438.24 391.62,438.80 393.98,438.03
             404.87,434.60 399.59,417.50 397.73,410.00
             396.26,404.04 394.86,394.67 387.00,393.74
             382.31,393.18 379.99,398.52 376.00,401.00
             378.53,390.88 394.10,383.48 404.00,384.04
             407.80,384.26 410.10,385.22 412.70,388.11
             414.68,390.31 415.40,392.98 417.30,393.47
             419.36,394.00 422.37,391.61 424.00,390.50
             430.02,386.40 432.56,384.50 433.00,377.00 Z
           M 456.00,417.00
           C 456.00,417.00 457.00,428.00 457.00,428.00
             450.97,425.88 454.30,421.59 456.00,417.00 Z
           M 451.00,430.00
           C 451.00,430.00 453.00,429.00 453.00,429.00
             453.00,429.00 457.00,433.00 457.00,433.00
             457.00,433.00 451.00,430.00 451.00,430.00 Z
           M 450.00,433.00
           C 450.00,433.00 456.00,437.00 456.00,437.00
             456.00,437.00 450.00,433.00 450.00,433.00 Z
           M 471.00,537.00
           C 472.57,542.99 470.44,548.94 470.09,555.00
             469.76,560.83 472.23,567.77 473.00,574.00
             473.00,574.00 473.00,585.00 473.00,585.00
             474.81,602.25 476.22,601.84 476.00,621.00
             475.86,632.17 471.88,643.39 459.00,643.96
             456.39,644.07 444.20,643.15 442.39,641.98
             439.86,640.33 439.16,636.68 438.26,634.00
             438.26,634.00 433.31,620.00 433.31,620.00
             430.83,612.90 424.81,599.63 424.18,593.01
             423.41,584.79 424.08,573.20 425.16,565.00
             425.16,565.00 426.66,556.00 426.66,556.00
             426.66,556.00 426.09,550.00 426.09,550.00
             425.80,544.73 429.12,533.91 433.39,530.73
             435.08,529.47 440.73,528.51 443.00,528.09
             454.39,526.00 462.93,526.73 469.00,538.00
             469.00,538.00 471.00,537.00 471.00,537.00 Z
           M 475.00,589.00
           C 475.00,589.00 490.00,584.68 490.00,584.68
             490.00,584.68 507.00,578.00 507.00,578.00
             507.00,583.47 507.63,588.46 503.72,592.90
             499.25,597.98 486.12,601.43 480.30,597.98
             477.13,596.10 475.86,592.34 475.00,589.00 Z" />
</svg>
