<?xml version="1.0" encoding="UTF-8" standalone="no"?>
<!DOCTYPE svg PUBLIC "-//W3C//DTD SVG 20010904//EN"
              "http://www.w3.org/TR/2001/REC-SVG-20010904/DTD/svg10.dtd">

<svg xmlns="http://www.w3.org/2000/svg"
     width="12in" height="12in"
     viewBox="0 0 864 864">
  <path id="mane"
        fill="none" stroke="black" stroke-width="1"
        d="M 377.00,398.00
           C 374.10,393.05 373.41,383.83 372.80,378.00
             372.26,375.77 371.59,372.53 372.80,370.56
             374.69,368.27 383.14,366.51 386.00,366.17
             396.22,364.95 414.82,363.26 423.99,368.00
             435.80,374.11 435.40,383.33 425.00,390.50
             425.00,390.50 420.02,393.64 420.02,393.64
             413.84,396.21 415.29,387.90 407.00,384.74
             397.54,381.12 382.72,391.08 377.00,398.00 Z
           M 458.00,413.00
           C 454.96,408.87 456.51,406.66 455.55,402.00
             455.19,400.29 454.17,398.01 454.73,396.28
             456.00,392.33 464.82,392.19 467.44,394.60
             468.62,395.68 469.29,397.55 469.89,399.00
             474.14,409.30 470.93,412.87 471.26,421.00
             471.26,421.00 473.94,432.00 473.94,432.00
             473.94,432.00 473.94,440.00 473.94,440.00
             473.94,440.00 474.92,448.00 474.92,448.00
             474.92,459.38 470.26,472.59 459.31,477.00
             462.10,487.13 459.67,487.72 459.31,493.00
             459.31,493.00 459.31,499.00 459.31,499.00
             459.43,502.51 457.18,510.09 455.28,513.00
             451.74,518.39 443.25,522.59 437.15,518.98
             433.56,516.86 433.64,511.64 434.40,508.04
             434.87,505.81 436.19,503.88 435.01,502.43
             432.02,498.74 421.09,504.75 418.43,495.00
             416.40,487.56 423.65,478.85 429.01,474.52
             429.01,474.52 438.70,467.48 438.70,467.48
             441.05,465.31 447.67,455.23 449.76,452.00
             453.78,445.75 452.70,440.17 459.00,436.00
             459.00,436.00 457.00,431.00 457.00,431.00
             457.00,431.00 458.00,431.00 458.00,431.00
             458.00,431.00 460.00,429.00 460.00,429.00
             455.63,425.72 455.94,417.63 458.00,413.00 Z" />
</svg>
