<?xml version="1.0" encoding="UTF-8" standalone="no"?>
<!DOCTYPE svg PUBLIC "-//W3C//DTD SVG 20010904//EN"
              "http://www.w3.org/TR/2001/REC-SVG-20010904/DTD/svg10.dtd">

<svg xmlns="http://www.w3.org/2000/svg"
     width="12in" height="12in"
     viewBox="0 0 864 864">
  <path id="moon"
        fill="none" stroke="black" stroke-width="1"
        d="M 642.00,1.02
           C 647.41,-0.79 655.18,0.00 661.00,0.00
             661.00,0.00 696.00,0.00 696.00,0.00
             696.00,0.00 814.00,0.00 814.00,0.00
             814.00,0.00 844.00,0.00 844.00,0.00
             847.56,0.00 855.04,-0.48 858.00,1.02
             863.74,3.95 863.99,8.36 864.00,14.00
             864.00,14.00 864.00,223.00 864.00,223.00
             863.99,225.52 864.20,228.54 863.02,230.82
             861.96,232.86 858.80,235.40 857.08,237.14
             849.62,244.73 846.23,247.82 837.00,253.58
             814.06,267.88 793.83,275.64 767.00,279.16
             759.44,280.15 761.45,280.99 752.00,281.00
             752.00,281.00 737.00,281.00 737.00,281.00
             731.15,280.93 730.37,280.34 725.00,279.43
             707.92,276.57 697.27,271.24 682.00,263.60
             672.94,259.07 657.88,250.77 650.32,244.41
             650.32,244.41 641.99,236.16 641.99,236.16
             641.99,236.16 630.37,225.91 630.37,225.91
             630.37,225.91 614.91,204.00 614.91,204.00
             606.79,191.90 609.11,196.50 602.97,183.00
             602.97,183.00 599.76,176.09 599.76,176.09
             599.76,176.09 598.74,170.83 598.74,170.83
             598.74,170.83 596.35,164.00 596.35,164.00
             589.73,138.60 589.96,125.56 590.00,100.00
             590.03,80.61 596.30,67.94 604.22,51.00
             604.22,51.00 608.26,41.00 608.26,41.00
             614.17,29.91 631.70,7.78 642.00,1.02 Z" />
</svg>
