<?xml version="1.0" encoding="UTF-8" standalone="no"?>
<!DOCTYPE svg PUBLIC "-//W3C//DTD SVG 20010904//EN"
              "http://www.w3.org/TR/2001/REC-SVG-20010904/DTD/svg10.dtd">

<svg xmlns="http://www.w3.org/2000/svg"
     width="12in" height="12in"
     viewBox="0 0 864 864">
  <path id="also no paint"
        fill="none" stroke="black" stroke-width="1"
        d="M 182.00,0.00
           C 182.00,0.00 338.00,0.00 338.00,0.00
             338.00,0.00 337.01,16.00 337.01,16.00
             337.01,16.00 337.96,26.00 337.96,26.00
             337.96,26.00 337.96,43.00 337.96,43.00
             337.96,43.00 342.00,86.00 342.00,86.00
             342.00,86.00 342.00,98.00 342.00,98.00
             342.00,98.00 344.00,122.00 344.00,122.00
             344.00,122.00 345.96,144.00 345.96,144.00
             345.96,144.00 345.18,155.00 345.18,155.00
             345.18,155.00 347.17,179.00 347.17,179.00
             347.17,179.00 351.00,204.00 351.00,204.00
             351.00,204.00 352.00,228.00 352.00,228.00
             352.00,228.00 357.72,265.00 357.72,265.00
             357.72,265.00 359.83,281.00 359.83,281.00
             359.83,281.00 361.28,302.00 361.28,302.00
             361.28,302.00 365.00,328.00 365.00,328.00
             365.00,328.00 383.00,324.42 383.00,324.42
             383.00,324.42 392.68,322.02 392.68,322.02
             392.68,322.02 401.29,312.01 401.29,312.01
             401.29,312.01 417.00,299.00 417.00,299.00
             408.77,295.16 402.62,295.86 394.00,297.00
             395.83,286.63 392.26,283.13 388.00,274.00
             403.59,268.31 427.07,272.33 439.91,282.90
             446.14,288.03 446.99,293.78 451.21,297.04
             451.21,297.04 460.00,302.15 460.00,302.15
             464.67,304.82 479.60,314.58 482.78,318.09
             487.23,323.02 486.97,329.20 491.53,333.50
             494.67,336.47 502.74,338.43 507.00,340.06
             511.92,341.95 527.78,350.20 532.00,353.29
             538.29,357.89 540.65,361.00 546.00,365.83
             546.00,365.83 558.70,377.04 558.70,377.04
             562.10,380.85 564.18,384.90 567.04,389.00
             567.04,389.00 574.45,399.00 574.45,399.00
             580.80,408.87 585.52,421.75 588.71,433.00
             590.73,440.11 593.92,453.83 593.92,461.00
             593.92,468.68 589.19,486.84 586.13,494.00
             581.67,504.41 576.34,509.99 570.22,519.00
             570.22,519.00 563.43,530.00 563.43,530.00
             555.76,540.96 541.26,556.14 531.00,564.68
             527.02,567.99 520.71,571.29 516.00,573.63
             513.88,574.68 510.11,575.97 508.60,577.65
             505.27,581.33 509.14,586.75 503.72,592.90
             499.24,597.98 486.13,601.42 480.30,597.98
             477.95,596.59 475.60,592.35 474.00,590.00
             474.06,596.92 474.46,595.87 475.77,602.00
             475.77,602.00 475.77,619.00 475.77,619.00
             475.98,630.65 473.07,643.34 459.00,643.96
             459.00,643.96 442.00,643.00 442.00,643.00
             442.00,643.00 456.25,676.00 456.25,676.00
             456.25,676.00 464.57,690.00 464.57,690.00
             464.57,690.00 482.35,722.00 482.35,722.00
             486.17,727.72 490.94,734.67 495.40,739.83
             497.07,741.77 500.32,744.79 499.29,747.69
             498.47,750.00 495.90,749.58 494.00,749.41
             494.00,749.41 478.00,747.05 478.00,747.05
             478.00,747.05 467.00,745.17 467.00,745.17
             467.00,745.17 431.00,741.04 431.00,741.04
             431.00,741.04 422.00,741.04 422.00,741.04
             422.00,741.04 412.00,740.00 412.00,740.00
             377.08,739.60 341.62,739.45 308.00,750.18
             291.48,755.45 287.50,757.63 273.00,766.81
             269.68,768.91 261.59,776.67 259.00,776.67
             256.21,776.66 251.21,771.88 249.00,770.09
             244.18,766.20 233.65,759.69 228.00,757.23
             203.60,746.60 181.53,741.04 155.00,738.92
             155.00,738.92 145.00,738.00 145.00,738.00
             145.00,738.00 127.00,737.00 127.00,737.00
             127.00,737.00 99.00,737.00 99.00,737.00
             99.00,737.00 84.00,738.00 84.00,738.00
             84.00,738.00 79.00,738.00 79.00,738.00
             79.00,738.00 50.00,740.95 50.00,740.95
             47.48,741.23 40.65,742.83 41.73,738.03
             42.19,735.97 53.66,723.65 55.92,721.01
             62.40,713.45 71.64,705.77 79.00,698.91
             87.30,691.18 95.24,682.53 102.71,674.00
             107.35,668.71 124.41,645.69 127.18,640.00
             131.32,631.50 130.13,626.34 134.17,619.00
             136.16,615.38 139.50,610.06 142.18,607.00
             145.65,603.03 149.55,600.25 151.20,595.00
             152.51,590.81 152.76,578.84 153.09,574.00
             153.09,574.00 154.96,557.00 154.96,557.00
             154.96,557.00 154.96,538.00 154.96,538.00
             154.96,538.00 157.72,515.00 157.72,515.00
             157.72,515.00 159.00,493.00 159.00,493.00
             159.00,493.00 159.98,482.00 159.98,482.00
             159.98,482.00 159.98,465.00 159.98,465.00
             159.98,465.00 162.00,446.00 162.00,446.00
             162.00,446.00 166.00,408.00 166.00,408.00
             166.00,408.00 167.09,381.00 167.09,381.00
             167.09,381.00 168.00,369.00 168.00,369.00
             168.00,369.00 171.00,302.00 171.00,302.00
             171.00,302.00 175.00,266.00 175.00,266.00
             175.00,266.00 174.00,248.00 174.00,248.00
             174.00,248.00 174.96,238.00 174.96,238.00
             174.96,238.00 174.96,225.00 174.96,225.00
             174.96,225.00 178.00,185.00 178.00,185.00
             178.00,185.00 179.00,126.00 179.00,126.00
             179.01,118.43 179.87,116.05 180.72,109.00
             180.72,109.00 182.00,87.00 182.00,87.00
             182.00,87.00 180.00,62.00 180.00,62.00
             180.00,62.00 182.96,32.00 182.96,32.00
             183.15,24.87 180.86,25.54 181.02,17.00
             181.17,8.28 183.32,10.76 182.00,0.00 Z" />
</svg>
