<?xml version="1.0" encoding="UTF-8" standalone="no"?>
<!DOCTYPE svg PUBLIC "-//W3C//DTD SVG 20010904//EN"
              "http://www.w3.org/TR/2001/REC-SVG-20010904/DTD/svg10.dtd">

<svg xmlns="http://www.w3.org/2000/svg"
     width="12in" height="12in"
     viewBox="0 0 864 864">
  <path id="pumpkin lines"
        fill="none" stroke="black" stroke-width="1"
        d="M 366.00,332.00
           C 366.00,332.00 367.60,327.98 367.60,327.98
             367.60,327.98 375.00,325.92 375.00,325.92
             375.00,325.92 393.00,323.00 393.00,323.00
             393.00,323.00 388.96,327.02 388.96,327.02
             388.96,327.02 366.00,332.00 366.00,332.00 Z
           M 491.00,335.00
           C 501.44,336.89 523.51,347.07 532.00,353.29
             538.29,357.89 540.65,361.00 546.00,365.83
             546.00,365.83 558.70,377.04 558.70,377.04
             558.70,377.04 567.75,390.00 567.75,390.00
             567.75,390.00 575.07,400.00 575.07,400.00
             583.77,414.46 593.92,444.10 593.92,461.00
             593.92,468.40 589.62,484.93 586.94,492.00
             582.69,503.19 576.69,509.47 570.22,519.00
             570.22,519.00 563.43,530.00 563.43,530.00
             556.59,539.77 548.55,547.86 540.00,556.04
             535.92,559.94 532.71,563.69 528.00,566.95
             520.92,571.84 499.49,581.63 491.00,584.68
             491.00,584.68 474.00,590.00 474.00,590.00
             474.00,590.00 473.00,585.00 473.00,585.00
             489.73,581.08 491.29,576.40 502.15,564.00
             516.62,547.48 527.03,527.68 534.14,507.00
             534.14,507.00 539.00,488.00 539.00,488.00
             539.00,488.00 541.00,488.00 541.00,488.00
             542.32,494.59 538.49,504.59 536.33,511.00
             531.17,526.36 524.97,538.53 515.96,552.00
             511.58,558.54 502.50,568.46 500.00,574.00
             506.21,572.52 505.12,572.00 510.00,569.90
             515.26,567.63 517.11,567.83 523.00,564.24
             532.75,558.30 551.27,538.53 558.24,529.00
             558.24,529.00 567.77,514.00 567.77,514.00
             567.77,514.00 576.54,502.00 576.54,502.00
             582.04,492.96 589.37,472.56 589.54,462.00
             589.54,462.00 585.87,440.00 585.87,440.00
             580.63,418.43 570.24,399.24 556.33,382.01
             552.51,377.28 547.49,373.88 543.00,369.83
             537.74,365.08 533.01,359.67 527.00,355.80
             523.01,353.23 521.93,353.93 519.00,352.56
             519.00,352.56 512.00,347.95 512.00,347.95
             500.86,341.00 495.52,344.61 491.00,335.00 Z
           M 499.00,353.00
           C 511.55,361.41 527.99,381.06 534.00,395.00
             528.12,394.94 529.06,391.11 524.70,385.00
             524.70,385.00 508.91,366.01 508.91,366.01
             504.12,360.99 500.53,360.16 499.00,353.00 Z
           M 472.00,550.00
           C 474.32,553.81 472.84,556.01 470.00,559.00
             470.00,559.00 472.00,550.00 472.00,550.00 Z" />
</svg>
