<?xml version="1.0" encoding="UTF-8" standalone="no"?>
<!DOCTYPE svg PUBLIC "-//W3C//DTD SVG 20010904//EN"
              "http://www.w3.org/TR/2001/REC-SVG-20010904/DTD/svg10.dtd">

<svg xmlns="http://www.w3.org/2000/svg"
     width="12in" height="12in"
     viewBox="0 0 864 864">
  <path id="pumpkin"
        fill="none" stroke="black" stroke-width="1"
        d="M 369.00,353.00
           C 369.00,353.00 366.87,336.00 366.87,336.00
             366.87,336.00 366.87,328.58 366.87,328.58
             366.87,328.58 374.00,326.08 374.00,326.08
             374.00,326.08 393.00,323.00 393.00,323.00
             393.00,323.00 383.19,337.61 383.19,337.61
             383.19,337.61 376.51,343.21 376.51,343.21
             376.51,343.21 369.00,353.00 369.00,353.00 Z
           M 491.00,335.00
           C 501.44,336.89 523.51,347.07 532.00,353.29
             538.29,357.89 540.65,361.00 546.00,365.83
             546.00,365.83 558.70,377.04 558.70,377.04
             558.70,377.04 567.75,390.00 567.75,390.00
             567.75,390.00 575.07,400.00 575.07,400.00
             583.77,414.46 593.92,444.10 593.92,461.00
             593.92,468.40 589.62,484.93 586.94,492.00
             582.69,503.19 576.69,509.47 570.22,519.00
             570.22,519.00 563.43,530.00 563.43,530.00
             556.59,539.77 548.55,547.86 540.00,556.04
             535.92,559.94 532.71,563.69 528.00,566.95
             520.92,571.84 499.49,581.63 491.00,584.68
             491.00,584.68 474.00,590.00 474.00,590.00
             474.00,590.00 472.71,574.00 472.71,574.00
             472.71,574.00 470.04,555.00 470.04,555.00
             470.04,555.00 471.00,537.00 471.00,537.00
             471.00,537.00 469.00,538.00 469.00,538.00
             460.75,527.13 454.85,525.65 442.00,528.50
             440.20,528.90 435.21,529.86 433.93,530.82
             431.51,532.63 428.09,540.03 426.95,543.00
             424.91,549.57 427.11,552.02 426.95,557.00
             426.95,557.00 424.01,577.00 424.01,577.00
             423.90,581.99 425.20,587.42 423.00,592.00
             423.00,592.00 411.28,551.00 411.28,551.00
             411.28,551.00 403.17,526.00 403.17,526.00
             403.17,526.00 398.58,506.00 398.58,506.00
             395.88,494.05 392.28,484.76 392.00,472.00
             392.00,472.00 401.00,473.94 401.00,473.94
             401.00,473.94 420.00,473.94 420.00,473.94
             420.00,473.94 431.00,473.94 431.00,473.94
             424.48,478.71 411.83,492.10 422.11,499.40
             426.34,502.41 433.01,499.85 434.90,501.99
             436.66,503.53 435.12,506.29 434.90,508.00
             433.56,512.17 433.83,516.67 438.06,518.98
             444.16,522.32 450.97,517.80 454.57,513.00
             460.70,504.83 458.50,497.06 458.92,493.00
             459.25,488.36 461.76,487.99 458.92,477.00
             469.41,470.92 474.82,460.00 474.82,448.00
             474.82,448.00 474.00,432.00 474.00,432.00
             483.34,434.27 495.76,431.30 504.00,426.47
             507.76,424.26 512.46,419.87 510.64,415.00
             509.55,412.09 504.38,407.46 502.09,405.00
             495.59,398.03 494.84,396.57 487.00,390.17
             487.00,390.17 477.16,382.56 477.16,382.56
             473.33,378.66 475.50,377.45 473.33,373.00
             468.91,363.96 466.53,366.11 462.00,351.99
             464.95,351.17 467.02,350.61 469.99,351.99
             472.09,352.96 473.73,354.66 475.42,356.20
             480.63,360.94 499.43,375.40 499.66,359.00
             499.68,357.43 499.30,355.55 499.00,354.00
             498.43,351.14 497.84,348.69 496.65,346.00
             496.65,346.00 491.00,335.00 491.00,335.00 Z" />
</svg>
