<?xml version="1.0" encoding="UTF-8" standalone="no"?>
<!DOCTYPE svg PUBLIC "-//W3C//DTD SVG 20010904//EN"
              "http://www.w3.org/TR/2001/REC-SVG-20010904/DTD/svg10.dtd">

<svg xmlns="http://www.w3.org/2000/svg"
     width="12in" height="12in"
     viewBox="0 0 864 864">
  <path id="tree outline"
        fill="none" stroke="black" stroke-width="1"
        d="M 182.00,0.00
           C 182.00,0.00 188.00,0.00 188.00,0.00
             188.00,0.00 187.18,17.00 187.18,17.00
             187.18,17.00 188.00,32.00 188.00,32.00
             188.00,32.00 185.03,59.00 185.03,59.00
             185.03,59.00 187.91,89.00 187.91,89.00
             187.91,89.00 185.94,104.00 185.94,104.00
             185.94,104.00 185.94,113.00 185.94,113.00
             184.87,120.05 184.01,122.43 184.00,130.00
             184.00,130.00 184.00,140.00 184.00,140.00
             184.00,140.00 184.82,152.00 184.82,152.00
             184.82,152.00 182.85,176.00 182.85,176.00
             182.85,176.00 182.85,200.17 182.85,200.17
             182.85,200.17 180.00,237.00 180.00,237.00
             180.00,237.00 179.09,252.00 179.09,252.00
             179.09,252.00 180.91,270.00 180.91,270.00
             180.91,270.00 176.30,299.00 176.30,299.00
             176.30,299.00 177.00,314.00 177.00,314.00
             177.00,314.00 175.16,330.00 175.16,330.00
             175.16,330.00 174.00,347.00 174.00,347.00
             174.00,347.00 173.00,362.00 173.00,362.00
             173.00,362.00 171.91,394.00 171.91,394.00
             171.91,394.00 171.00,408.00 171.00,408.00
             171.00,408.00 171.68,417.00 171.68,417.00
             172.01,421.41 170.39,425.61 169.96,430.00
             169.96,430.00 169.96,440.00 169.96,440.00
             169.96,440.00 165.00,469.00 165.00,469.00
             165.00,469.00 165.00,484.00 165.00,484.00
             165.00,484.00 164.00,505.00 164.00,505.00
             164.00,505.00 160.21,538.00 160.21,538.00
             160.21,538.00 160.90,548.00 160.90,548.00
             160.90,548.00 156.67,597.00 156.67,597.00
             155.11,605.58 146.87,608.58 141.66,619.00
             137.93,626.46 140.27,629.81 131.57,645.00
             127.77,651.64 126.27,653.13 122.01,659.00
             105.10,682.31 96.57,690.29 76.00,709.96
             76.00,709.96 66.04,719.01 66.04,719.01
             66.04,719.01 51.12,735.98 51.12,735.98
             49.70,737.65 44.50,743.54 42.08,740.35
             39.76,737.30 48.03,730.08 49.93,728.00
             49.93,728.00 59.29,717.28 59.29,717.28
             59.29,717.28 84.00,694.00 84.00,694.00
             90.20,687.81 103.39,673.69 108.50,667.00
             108.50,667.00 117.73,654.00 117.73,654.00
             120.96,649.61 124.10,645.90 126.68,641.00
             131.42,631.96 129.97,626.63 134.17,619.00
             136.16,615.38 139.50,610.06 142.18,607.00
             145.65,603.03 149.55,600.25 151.20,595.00
             152.51,590.81 152.76,578.84 153.09,574.00
             153.09,574.00 154.96,557.00 154.96,557.00
             154.96,557.00 154.96,538.00 154.96,538.00
             154.96,538.00 157.72,515.00 157.72,515.00
             157.72,515.00 159.00,493.00 159.00,493.00
             159.00,493.00 159.98,482.00 159.98,482.00
             159.98,482.00 159.98,465.00 159.98,465.00
             159.98,465.00 162.00,446.00 162.00,446.00
             162.00,446.00 166.00,408.00 166.00,408.00
             166.00,408.00 167.09,381.00 167.09,381.00
             167.09,381.00 168.00,369.00 168.00,369.00
             168.00,369.00 171.00,302.00 171.00,302.00
             171.00,302.00 175.00,266.00 175.00,266.00
             175.00,266.00 174.00,248.00 174.00,248.00
             174.00,248.00 174.96,238.00 174.96,238.00
             174.96,238.00 174.96,225.00 174.96,225.00
             174.96,225.00 178.00,185.00 178.00,185.00
             178.00,185.00 179.00,126.00 179.00,126.00
             179.01,118.43 179.87,116.05 180.72,109.00
             180.72,109.00 182.00,87.00 182.00,87.00
             182.00,87.00 180.00,62.00 180.00,62.00
             180.00,62.00 182.96,32.00 182.96,32.00
             183.15,24.87 180.86,25.54 181.02,17.00
             181.17,8.28 183.32,10.76 182.00,0.00 Z
           M 333.00,0.00
           C 333.00,0.00 338.00,0.00 338.00,0.00
             338.00,0.00 337.01,16.00 337.01,16.00
             337.01,16.00 337.96,26.00 337.96,26.00
             337.96,26.00 337.96,43.00 337.96,43.00
             337.96,43.00 342.00,86.00 342.00,86.00
             342.00,86.00 342.00,98.00 342.00,98.00
             342.00,98.00 344.00,122.00 344.00,122.00
             344.00,122.00 345.96,144.00 345.96,144.00
             345.96,144.00 345.18,155.00 345.18,155.00
             345.18,155.00 347.17,179.00 347.17,179.00
             347.17,179.00 349.73,192.00 349.73,192.00
             349.73,192.00 352.00,223.00 352.00,223.00
             352.02,238.36 355.74,249.98 357.72,265.00
             357.72,265.00 359.83,281.00 359.83,281.00
             359.83,281.00 361.28,302.00 361.28,302.00
             361.28,302.00 366.57,334.00 366.57,334.00
             366.57,334.00 376.26,399.00 376.26,399.00
             376.26,399.00 382.58,425.00 382.58,425.00
             382.58,425.00 387.80,456.00 387.80,456.00
             387.80,456.00 391.39,471.00 391.39,471.00
             391.39,471.00 394.42,489.00 394.42,489.00
             394.42,489.00 398.35,504.00 398.35,504.00
             398.35,504.00 403.17,525.00 403.17,525.00
             403.17,525.00 411.28,550.00 411.28,550.00
             411.28,550.00 419.33,578.00 419.33,578.00
             419.33,578.00 425.74,599.00 425.74,599.00
             425.74,599.00 433.31,619.00 433.31,619.00
             433.31,619.00 453.31,670.00 453.31,670.00
             453.31,670.00 464.57,690.00 464.57,690.00
             464.57,690.00 475.60,711.00 475.60,711.00
             475.60,711.00 491.48,735.00 491.48,735.00
             491.48,735.00 497.66,742.42 497.66,742.42
             501.11,747.02 499.09,750.04 495.95,748.83
             492.84,747.64 487.79,740.82 485.74,738.00
             478.97,728.64 470.91,716.29 465.75,706.00
             465.75,706.00 458.66,692.00 458.66,692.00
             458.66,692.00 448.31,674.00 448.31,674.00
             448.31,674.00 427.95,622.00 427.95,622.00
             427.95,622.00 421.08,604.00 421.08,604.00
             421.08,604.00 413.33,579.00 413.33,579.00
             413.33,579.00 406.28,554.00 406.28,554.00
             406.28,554.00 398.17,529.00 398.17,529.00
             398.17,529.00 393.35,508.00 393.35,508.00
             393.35,508.00 389.42,493.00 389.42,493.00
             389.42,493.00 387.20,479.00 387.20,479.00
             387.20,479.00 382.80,460.00 382.80,460.00
             382.80,460.00 377.58,429.00 377.58,429.00
             377.58,429.00 371.45,404.00 371.45,404.00
             371.45,404.00 366.72,373.00 366.72,373.00
             366.72,373.00 364.29,360.00 364.29,360.00
             364.29,360.00 361.72,339.00 361.72,339.00
             361.72,339.00 356.28,306.00 356.28,306.00
             356.28,306.00 354.83,285.00 354.83,285.00
             354.83,285.00 352.72,269.00 352.72,269.00
             350.74,253.98 347.02,242.36 347.00,227.00
             347.00,227.00 344.87,197.00 344.87,197.00
             344.87,197.00 342.29,184.00 342.29,184.00
             342.29,184.00 340.04,160.00 340.04,160.00
             340.04,160.00 340.04,137.00 340.04,137.00
             340.04,137.00 338.94,129.00 338.94,129.00
             338.94,129.00 338.94,119.00 338.94,119.00
             338.94,119.00 337.00,101.00 337.00,101.00
             337.00,101.00 335.83,73.00 335.83,73.00
             335.83,73.00 333.00,49.00 333.00,49.00
             333.00,49.00 333.00,34.00 333.00,34.00
             333.00,34.00 332.00,13.00 332.00,13.00
             332.00,13.00 333.00,0.00 333.00,0.00 Z" />
</svg>
