<?xml version="1.0" encoding="UTF-8" standalone="no"?>
<!DOCTYPE svg PUBLIC "-//W3C//DTD SVG 20010904//EN"
              "http://www.w3.org/TR/2001/REC-SVG-20010904/DTD/svg10.dtd">

<svg xmlns="http://www.w3.org/2000/svg"
     width="12in" height="12in"
     viewBox="0 0 864 864">
  <path id="tree lines"
        fill="none" stroke="black" stroke-width="1"
        d="M 208.08,0.00
           C 208.08,0.00 211.00,0.00 211.00,0.00
             211.00,0.00 212.91,18.00 212.91,18.00
             212.91,18.00 212.91,34.00 212.91,34.00
             212.91,34.00 212.09,44.00 212.09,44.00
             212.09,44.00 211.00,64.00 211.00,64.00
             211.00,64.00 210.00,79.00 210.00,79.00
             210.00,79.00 210.00,116.00 210.00,116.00
             210.00,116.00 207.00,154.00 207.00,154.00
             207.00,154.00 207.00,177.00 207.00,177.00
             207.00,177.00 204.00,216.00 204.00,216.00
             204.00,216.00 200.00,216.00 200.00,216.00
             200.00,216.00 203.96,177.00 203.96,177.00
             203.96,177.00 203.09,160.00 203.09,160.00
             203.09,160.00 205.17,134.00 205.17,134.00
             205.17,134.00 207.00,112.00 207.00,112.00
             207.00,112.00 207.00,75.00 207.00,75.00
             207.00,75.00 208.00,59.00 208.00,59.00
             208.00,59.00 210.00,26.00 210.00,26.00
             210.00,26.00 208.08,10.00 208.08,10.00
             208.08,10.00 208.08,0.00 208.08,0.00 Z
           M 238.00,0.00
           C 238.00,0.00 241.00,0.00 241.00,0.00
             241.00,0.00 242.00,30.00 242.00,30.00
             242.00,30.00 242.91,45.00 242.91,45.00
             242.91,45.00 242.02,53.00 242.02,53.00
             242.02,53.00 242.02,73.00 242.02,73.00
             242.02,73.00 240.00,106.00 240.00,106.00
             240.00,106.00 240.00,137.00 240.00,137.00
             240.00,137.00 242.00,170.00 242.00,170.00
             242.00,170.00 242.00,215.00 242.00,215.00
             241.97,231.20 233.69,243.84 227.31,258.00
             227.31,258.00 218.91,279.00 218.91,279.00
             213.49,288.24 204.84,299.42 201.79,310.00
             199.55,317.74 199.11,344.70 199.00,354.00
             199.00,354.00 198.09,364.00 198.09,364.00
             198.09,364.00 197.00,398.00 197.00,398.00
             197.00,398.00 198.91,414.00 198.91,414.00
             198.91,414.00 198.91,427.00 198.91,427.00
             198.91,427.00 196.00,464.00 196.00,464.00
             196.00,464.00 195.09,474.00 195.09,474.00
             193.71,494.08 194.48,500.47 187.06,520.00
             184.06,527.91 178.55,544.34 170.00,547.00
             171.48,539.11 175.88,534.93 179.40,528.00
             182.79,521.31 187.99,506.42 189.39,499.00
             189.39,499.00 193.00,459.00 193.00,459.00
             193.00,459.00 195.99,421.00 195.99,421.00
             195.99,421.00 194.00,400.00 194.00,400.00
             194.00,400.00 194.00,381.00 194.00,381.00
             194.00,381.00 196.00,350.00 196.00,350.00
             196.14,337.98 195.20,314.53 199.45,304.00
             202.00,297.67 206.87,288.68 210.67,283.00
             210.67,283.00 216.60,274.00 216.60,274.00
             216.60,274.00 225.32,252.00 225.32,252.00
             231.99,239.26 238.98,225.71 239.00,211.00
             239.00,211.00 239.00,174.00 239.00,174.00
             238.98,163.78 237.55,164.31 237.22,159.00
             237.22,159.00 237.22,150.00 237.22,150.00
             237.22,150.00 237.22,140.00 237.22,140.00
             237.22,140.00 237.22,102.00 237.22,102.00
             237.22,102.00 239.00,70.00 239.00,70.00
             239.00,70.00 239.00,27.00 239.00,27.00
             239.00,27.00 238.00,0.00 238.00,0.00 Z
           M 292.00,0.00
           C 292.00,0.00 295.00,0.00 295.00,0.00
             298.95,16.18 298.81,42.06 299.00,59.00
             299.00,59.00 300.00,72.00 300.00,72.00
             300.00,72.00 300.00,97.00 300.00,97.00
             299.93,102.37 298.58,116.95 295.57,120.99
             288.74,130.15 269.51,139.39 264.92,149.00
             260.41,158.42 261.98,167.23 262.00,177.00
             262.00,177.00 262.00,213.00 262.00,213.00
             262.00,213.00 260.00,239.00 260.00,239.00
             260.00,239.00 260.00,256.00 260.00,256.00
             260.00,256.00 265.00,306.00 265.00,306.00
             265.02,318.86 264.36,333.40 261.71,346.00
             261.71,346.00 257.21,362.00 257.21,362.00
             257.21,362.00 255.00,376.00 255.00,376.00
             255.00,376.00 250.23,395.00 250.23,395.00
             250.23,395.00 242.57,427.00 242.57,427.00
             242.57,427.00 232.03,457.00 232.03,457.00
             232.03,457.00 228.11,473.00 228.11,473.00
             228.11,473.00 223.65,490.00 223.65,490.00
             223.65,490.00 219.48,518.00 219.48,518.00
             219.48,518.00 219.48,523.83 219.48,523.83
             219.32,527.54 218.02,525.88 218.00,535.00
             218.00,535.00 218.00,556.00 218.00,556.00
             218.00,556.00 217.04,568.00 217.04,568.00
             217.04,568.00 217.04,583.00 217.04,583.00
             217.04,583.00 214.00,583.00 214.00,583.00
             214.00,583.00 214.00,568.00 214.00,568.00
             214.00,568.00 215.00,552.00 215.00,552.00
             215.00,552.00 216.17,514.00 216.17,514.00
             216.17,514.00 217.72,505.00 217.72,505.00
             217.72,505.00 219.80,490.00 219.80,490.00
             219.80,490.00 227.48,459.00 227.48,459.00
             227.48,459.00 238.85,426.00 238.85,426.00
             238.85,426.00 245.37,399.00 245.37,399.00
             245.37,399.00 251.55,375.00 251.55,375.00
             251.55,375.00 254.42,357.00 254.42,357.00
             254.42,357.00 258.50,343.00 258.50,343.00
             260.34,335.22 262.09,316.18 262.00,308.00
             262.00,308.00 256.37,254.00 256.37,254.00
             256.37,254.00 257.00,243.00 257.00,243.00
             257.00,243.00 258.09,220.00 258.09,220.00
             258.09,220.00 259.00,210.00 259.00,210.00
             259.00,210.00 259.00,181.00 259.00,181.00
             259.00,181.00 258.04,168.00 258.04,168.00
             257.82,162.26 259.46,150.14 261.92,145.00
             265.07,138.42 268.66,137.55 274.00,133.70
             278.54,130.43 289.47,121.26 292.57,117.00
             295.59,112.84 296.93,98.46 297.00,93.00
             297.00,93.00 297.00,77.00 297.00,77.00
             297.00,77.00 296.00,61.00 296.00,61.00
             296.00,61.00 296.00,43.00 296.00,43.00
             296.00,43.00 292.00,0.00 292.00,0.00 Z
           M 320.00,0.00
           C 320.00,0.00 323.00,0.00 323.00,0.00
             324.56,11.81 323.02,23.13 323.00,35.00
             323.00,35.00 321.21,60.00 321.21,60.00
             321.21,60.00 323.00,87.00 323.00,87.00
             323.00,87.00 326.28,126.00 326.28,126.00
             326.28,126.00 332.00,168.00 332.00,168.00
             332.12,178.68 332.00,186.26 326.65,196.00
             326.65,196.00 303.83,227.00 303.83,227.00
             300.69,233.16 298.90,253.35 298.32,261.00
             298.32,261.00 302.00,297.00 302.00,297.00
             302.02,308.54 304.50,324.07 308.24,335.00
             308.24,335.00 311.53,343.00 311.53,343.00
             311.53,343.00 315.32,357.00 315.32,357.00
             315.32,357.00 326.69,382.00 326.69,382.00
             326.69,382.00 330.90,393.00 330.90,393.00
             330.90,393.00 337.45,407.00 337.45,407.00
             339.62,413.16 342.99,436.25 343.00,443.00
             343.02,457.90 348.02,476.78 352.75,491.00
             352.75,491.00 356.78,501.00 356.78,501.00
             356.78,501.00 359.72,513.00 359.72,513.00
             359.72,513.00 364.26,527.00 364.26,527.00
             364.26,527.00 380.42,585.00 380.42,585.00
             380.42,585.00 389.72,617.00 389.72,617.00
             391.48,622.86 394.38,629.01 395.00,635.00
             389.45,633.16 388.94,628.19 387.42,623.00
             387.42,623.00 377.72,590.00 377.72,590.00
             377.72,590.00 360.99,530.00 360.99,530.00
             360.99,530.00 356.16,515.00 356.16,515.00
             356.16,515.00 354.08,506.00 354.08,506.00
             354.08,506.00 349.75,495.00 349.75,495.00
             344.43,478.99 340.19,461.89 340.00,445.00
             339.92,438.79 339.15,437.66 338.27,432.00
             338.27,432.00 334.48,411.00 334.48,411.00
             332.32,404.35 330.47,402.50 328.04,397.00
             328.04,397.00 323.69,386.00 323.69,386.00
             323.69,386.00 312.34,361.00 312.34,361.00
             312.34,361.00 308.64,347.00 308.64,347.00
             308.64,347.00 304.83,338.00 304.83,338.00
             301.86,329.39 299.11,312.17 299.00,303.00
             299.00,303.00 299.00,297.00 299.00,297.00
             299.00,297.00 295.04,264.00 295.04,264.00
             294.67,255.29 296.47,246.55 297.70,238.00
             298.38,233.32 297.69,231.04 299.56,226.00
             301.58,220.53 304.92,217.51 308.25,213.00
             317.76,200.08 329.37,188.06 328.99,171.00
             328.99,171.00 324.43,138.00 324.43,138.00
             322.18,122.82 320.18,107.34 320.00,92.00
             320.00,92.00 319.04,82.00 319.04,82.00
             319.04,82.00 319.04,72.00 319.04,72.00
             319.04,72.00 318.01,57.00 318.01,57.00
             318.01,57.00 320.00,33.00 320.00,33.00
             320.00,33.00 320.00,21.00 320.00,21.00
             320.00,21.00 320.82,11.00 320.82,11.00
             320.82,11.00 320.00,0.00 320.00,0.00 Z
           M 277.00,294.00
           C 277.00,294.00 279.95,294.00 279.95,294.00
             279.95,294.00 279.95,311.00 279.95,311.00
             279.95,311.00 279.00,322.00 279.00,322.00
             278.90,342.59 270.62,365.44 267.42,386.00
             267.42,386.00 264.00,409.00 264.00,409.00
             264.00,409.00 264.00,420.00 264.00,420.00
             264.00,420.00 262.30,428.00 262.30,428.00
             261.63,432.71 262.50,434.26 261.10,440.00
             261.10,440.00 253.20,460.00 253.20,460.00
             253.20,460.00 246.91,479.00 246.91,479.00
             243.04,492.67 241.58,506.91 240.17,521.00
             240.17,521.00 238.56,538.00 238.56,538.00
             238.56,538.00 230.51,566.00 230.51,566.00
             229.80,569.20 227.98,585.09 228.29,588.00
             228.38,590.84 228.91,591.83 228.29,595.00
             228.29,595.00 228.29,606.00 228.29,606.00
             228.29,606.00 225.00,606.00 225.00,606.00
             225.00,591.75 224.53,577.05 227.31,563.00
             228.35,557.77 234.13,544.98 235.93,534.00
             235.93,534.00 235.93,527.00 235.93,527.00
             237.61,512.08 239.37,492.21 243.15,478.00
             243.15,478.00 248.81,460.00 248.81,460.00
             248.81,460.00 258.10,436.00 258.10,436.00
             259.42,430.58 258.69,428.94 259.28,424.00
             259.28,424.00 264.42,382.00 264.42,382.00
             264.42,382.00 273.57,340.00 273.57,340.00
             276.92,320.03 275.27,321.44 276.11,303.99
             276.11,303.99 277.00,294.00 277.00,294.00 Z
           M 234.00,632.00
           C 234.00,632.00 237.51,621.00 237.51,621.00
             237.51,621.00 241.01,604.00 241.01,604.00
             241.01,604.00 244.33,591.00 244.33,591.00
             244.33,591.00 247.66,568.00 247.66,568.00
             250.23,556.15 251.83,554.41 256.74,544.00
             260.63,535.75 260.02,522.19 272.00,518.65
             277.05,517.16 279.36,519.84 283.00,522.69
             292.78,530.36 293.09,528.27 297.33,541.00
             297.33,541.00 313.50,592.00 313.50,592.00
             313.50,592.00 316.61,615.00 316.61,615.00
             316.61,615.00 322.00,638.00 322.00,638.00
             320.66,637.53 320.01,637.63 318.93,636.41
             316.18,633.30 313.08,615.78 312.42,611.00
             312.42,611.00 310.71,597.00 310.71,597.00
             306.73,578.04 299.08,559.42 293.11,541.00
             290.50,532.93 287.42,531.72 281.09,526.97
             279.05,525.44 276.69,522.74 273.98,522.96
             269.63,523.31 264.58,531.24 263.34,535.00
             263.34,535.00 260.96,545.00 260.96,545.00
             260.96,545.00 252.57,564.00 252.57,564.00
             252.57,564.00 247.57,593.00 247.57,593.00
             247.57,593.00 243.60,610.00 243.60,610.00
             242.11,617.29 242.29,629.41 234.00,632.00 Z" />
</svg>
