<?xml version="1.0" encoding="UTF-8" standalone="no"?>
<!DOCTYPE svg PUBLIC "-//W3C//DTD SVG 20010904//EN"
              "http://www.w3.org/TR/2001/REC-SVG-20010904/DTD/svg10.dtd">

<svg xmlns="http://www.w3.org/2000/svg"
     width="12in" height="12in"
     viewBox="0 0 864 864">
  <path id="tree"
        fill="none" stroke="black" stroke-width="1"
        d="M 182.00,0.00
           C 182.00,0.00 338.00,0.00 338.00,0.00
             338.00,0.00 337.01,16.00 337.01,16.00
             337.01,16.00 337.96,26.00 337.96,26.00
             337.96,26.00 337.96,43.00 337.96,43.00
             337.96,43.00 342.00,86.00 342.00,86.00
             342.00,86.00 342.00,98.00 342.00,98.00
             342.00,98.00 344.00,122.00 344.00,122.00
             344.00,122.00 345.96,144.00 345.96,144.00
             345.96,144.00 345.18,155.00 345.18,155.00
             345.18,155.00 347.17,179.00 347.17,179.00
             347.17,179.00 350.72,199.00 350.72,199.00
             350.72,199.00 352.00,227.00 352.00,227.00
             352.00,227.00 357.72,265.00 357.72,265.00
             357.72,265.00 359.83,281.00 359.83,281.00
             359.83,281.00 361.28,302.00 361.28,302.00
             361.28,302.00 366.57,334.00 366.57,334.00
             366.57,334.00 376.26,399.00 376.26,399.00
             376.26,399.00 382.58,425.00 382.58,425.00
             382.58,425.00 387.61,455.00 387.61,455.00
             387.61,455.00 391.39,471.00 391.39,471.00
             391.39,471.00 394.21,488.00 394.21,488.00
             394.21,488.00 398.11,503.00 398.11,503.00
             398.11,503.00 402.89,524.00 402.89,524.00
             402.89,524.00 407.03,537.00 407.03,537.00
             420.58,581.93 433.67,627.22 453.31,670.00
             453.31,670.00 467.70,696.00 467.70,696.00
             475.54,710.92 480.73,720.18 490.74,734.00
             492.88,736.94 500.53,744.21 499.29,747.63
             498.02,751.28 485.24,748.06 482.00,747.63
             482.00,747.63 453.00,743.29 453.00,743.29
             453.00,743.29 444.00,742.71 444.00,742.71
             437.47,741.91 436.35,741.04 429.00,741.00
             429.00,741.00 425.00,741.00 425.00,741.00
             425.00,741.00 397.00,739.00 397.00,739.00
             366.96,738.95 329.26,742.11 301.00,752.41
             289.50,756.61 281.01,760.88 271.00,768.04
             268.12,770.10 261.90,776.67 259.00,776.67
             255.76,776.66 248.86,769.70 246.00,767.60
             239.04,762.51 228.00,757.12 220.00,753.65
             204.50,746.94 187.60,743.27 171.00,740.71
             171.00,740.71 163.00,739.00 163.00,739.00
             163.00,739.00 154.00,739.00 154.00,739.00
             154.00,739.00 135.00,737.00 135.00,737.00
             135.00,737.00 91.00,737.00 91.00,737.00
             91.00,737.00 53.00,740.57 53.00,740.57
             50.44,740.95 41.69,743.06 41.62,738.89
             41.59,736.70 44.06,734.35 45.44,732.83
             45.44,732.83 55.08,722.00 55.08,722.00
             62.21,713.58 70.94,706.42 79.00,698.91
             87.30,691.18 95.24,682.53 102.71,674.00
             107.35,668.71 124.41,645.69 127.18,640.00
             131.32,631.50 130.13,626.34 134.17,619.00
             136.16,615.38 139.50,610.06 142.18,607.00
             145.65,603.03 149.55,600.25 151.20,595.00
             152.51,590.81 152.76,578.84 153.09,574.00
             153.09,574.00 154.96,557.00 154.96,557.00
             154.96,557.00 154.96,538.00 154.96,538.00
             154.96,538.00 157.72,515.00 157.72,515.00
             157.72,515.00 159.00,493.00 159.00,493.00
             159.00,493.00 159.98,482.00 159.98,482.00
             159.98,482.00 159.98,465.00 159.98,465.00
             159.98,465.00 162.00,446.00 162.00,446.00
             162.00,446.00 166.00,408.00 166.00,408.00
             166.00,408.00 167.09,381.00 167.09,381.00
             167.09,381.00 168.00,369.00 168.00,369.00
             168.00,369.00 171.00,302.00 171.00,302.00
             171.00,302.00 175.00,266.00 175.00,266.00
             175.00,266.00 174.00,248.00 174.00,248.00
             174.00,248.00 174.96,238.00 174.96,238.00
             174.96,238.00 174.96,225.00 174.96,225.00
             174.96,225.00 178.00,185.00 178.00,185.00
             178.00,185.00 179.00,126.00 179.00,126.00
             179.01,118.43 179.87,116.05 180.72,109.00
             180.72,109.00 182.00,87.00 182.00,87.00
             182.00,87.00 180.00,62.00 180.00,62.00
             180.00,62.00 182.96,32.00 182.96,32.00
             183.15,24.87 180.86,25.54 181.02,17.00
             181.17,8.28 183.32,10.76 182.00,0.00 Z" />
</svg>
