<?xml version="1.0" encoding="UTF-8" standalone="no"?>
<!DOCTYPE svg PUBLIC "-//W3C//DTD SVG 20010904//EN"
              "http://www.w3.org/TR/2001/REC-SVG-20010904/DTD/svg10.dtd">

<svg xmlns="http://www.w3.org/2000/svg"
     width="304.869mm" height="289.697mm"
     viewBox="0 0 864 821">
  <path id="1 - body"
        fill="none" stroke="black" stroke-width="1"
        d="M 73.00,48.00
           C 73.00,48.00 98.00,48.00 98.00,48.00
             98.00,48.00 98.00,85.00 98.00,85.00
             98.00,85.00 136.00,85.00 136.00,85.00
             136.00,85.00 136.00,110.00 136.00,110.00
             136.00,110.00 98.00,110.00 98.00,110.00
             98.00,110.00 98.00,147.00 98.00,147.00
             98.00,147.00 73.00,147.00 73.00,147.00
             73.00,147.00 73.00,110.00 73.00,110.00
             73.00,110.00 35.00,110.00 35.00,110.00
             35.00,110.00 35.00,85.00 35.00,85.00
             35.00,85.00 73.00,85.00 73.00,85.00
             73.00,85.00 73.00,48.00 73.00,48.00 Z
           M 167.00,389.00
           C 167.55,393.94 171.99,397.05 176.00,399.53
             185.47,405.41 196.36,408.80 207.00,411.74
             218.80,415.02 220.62,417.85 233.00,414.99
             236.38,414.21 241.06,412.70 243.94,410.79
             248.66,407.66 247.76,403.78 249.44,399.00
             252.63,389.93 260.47,371.15 259.82,362.00
             259.48,357.17 258.44,349.03 255.30,345.27
             252.81,342.29 244.82,339.67 241.00,338.34
             231.01,334.87 222.34,332.91 214.04,325.68
             205.86,318.55 195.17,301.48 191.90,291.00
             191.90,291.00 190.22,283.00 190.22,283.00
             188.06,275.23 187.04,276.00 187.00,267.00
             187.00,267.00 187.00,252.00 187.00,252.00
             187.12,241.71 189.70,240.76 192.64,232.00
             194.28,227.13 194.49,223.48 197.24,219.00
             197.24,219.00 204.90,207.00 204.90,207.00
             206.18,205.13 208.89,202.16 209.17,200.00
             209.67,196.02 204.60,192.33 202.17,189.83
             198.10,185.65 194.71,180.66 193.16,175.00
             193.16,175.00 191.54,165.00 191.54,165.00
             189.00,150.90 188.64,151.68 190.58,137.00
             190.58,137.00 191.59,127.00 191.59,127.00
             191.59,127.00 197.20,118.00 197.20,118.00
             197.20,118.00 208.35,97.00 208.35,97.00
             210.09,94.06 212.24,91.67 214.34,89.00
             226.99,72.91 237.00,68.49 256.00,62.20
             261.09,60.52 274.83,57.19 277.48,64.11
             278.15,66.25 277.23,68.76 277.48,71.00
             278.14,74.36 280.74,76.61 280.71,80.00
             280.67,84.35 273.20,93.63 268.99,94.69
             262.75,96.25 249.66,92.33 243.00,92.04
             228.59,91.42 229.11,104.62 231.02,107.73
             233.36,111.53 242.05,114.05 245.85,116.39
             248.21,117.84 249.42,120.13 248.38,122.87
             246.55,127.74 236.61,127.13 232.00,127.92
             230.03,128.26 227.98,128.53 226.17,129.42
             222.13,131.38 213.00,139.70 211.45,144.00
             208.12,153.28 217.29,155.88 224.00,157.96
             226.27,158.67 229.64,159.14 230.96,161.31
             232.43,163.73 231.00,166.54 230.22,169.00
             229.41,173.65 229.49,177.33 230.22,182.00
             237.22,182.09 235.51,182.84 241.00,183.74
             241.00,183.74 257.00,184.98 257.00,184.98
             261.15,185.26 268.58,185.78 271.77,188.51
             279.29,194.94 268.33,206.97 283.00,209.55
             287.61,210.35 290.80,207.04 293.99,204.27
             293.99,204.27 313.00,186.89 313.00,186.89
             318.05,182.75 323.58,180.53 325.00,189.00
             325.00,189.00 344.94,185.36 344.94,185.36
             347.63,185.93 349.21,188.20 348.34,190.90
             347.22,194.41 341.15,196.64 338.00,198.00
             338.00,198.00 339.00,208.00 339.00,208.00
             339.00,208.00 346.00,206.37 346.00,206.37
             349.76,205.23 352.56,203.00 356.00,201.41
             359.26,199.90 362.12,199.76 364.69,196.86
             367.27,193.92 368.66,180.05 370.44,175.00
             370.44,175.00 379.81,149.00 379.81,149.00
             379.81,149.00 385.56,136.00 385.56,136.00
             387.15,130.14 384.00,129.45 385.56,123.00
             388.13,114.57 398.67,101.09 405.00,95.04
             409.72,90.54 410.13,91.31 415.00,88.40
             419.26,85.85 422.15,83.34 427.00,81.35
             431.43,79.53 443.66,77.73 447.91,80.02
             450.66,81.50 454.04,86.09 455.11,89.00
             456.28,92.16 456.04,98.47 456.00,102.00
             455.86,111.61 449.38,115.88 444.76,125.00
             438.83,136.67 440.59,136.36 436.80,146.00
             436.80,146.00 426.43,169.00 426.43,169.00
             422.70,177.84 424.63,187.30 420.49,191.74
             416.83,195.56 413.10,192.49 409.00,191.74
             405.62,191.22 402.15,192.27 399.04,193.55
             392.56,196.21 389.17,203.77 384.86,209.00
             382.57,211.77 378.46,216.42 377.85,220.00
             377.85,220.00 379.00,236.00 379.00,236.00
             378.81,245.87 374.39,243.26 370.73,247.49
             369.99,248.36 366.38,257.66 366.07,259.00
             364.09,267.47 375.89,270.78 374.38,277.00
             373.52,280.57 368.55,285.36 366.01,288.00
             361.68,292.50 360.02,294.78 356.69,300.00
             354.95,302.73 351.71,307.93 351.12,311.00
             350.31,315.17 351.82,318.51 350.00,326.00
             352.98,327.22 356.44,328.41 358.40,331.13
             360.32,333.78 360.73,338.95 357.69,340.98
             356.06,342.06 353.86,341.93 352.00,342.00
             355.01,354.04 337.68,358.27 343.31,370.00
             344.92,373.34 349.18,377.66 352.09,380.00
             363.89,389.50 374.15,390.84 388.00,395.78
             388.00,395.78 396.00,398.68 396.00,398.68
             396.00,398.68 415.00,412.96 415.00,412.96
             415.00,412.96 464.00,444.10 464.00,444.10
             477.32,451.29 486.84,450.00 499.00,453.43
             509.76,456.46 511.09,459.73 518.00,461.70
             518.00,461.70 552.00,466.17 552.00,466.17
             552.00,466.17 571.00,470.20 571.00,470.20
             581.12,472.13 582.43,471.01 594.00,474.59
             599.87,476.41 605.42,479.35 611.00,481.93
             613.06,482.88 616.79,484.34 617.96,486.30
             620.31,490.20 616.52,495.63 614.73,499.00
             607.18,513.19 599.68,514.14 600.01,528.00
             600.33,541.26 602.55,544.17 610.68,554.00
             612.47,556.16 614.10,558.77 616.18,560.61
             621.54,565.33 629.94,564.74 632.40,571.04
             633.11,572.87 633.00,576.00 633.00,578.00
             633.00,578.00 633.00,630.00 633.00,630.00
             633.00,630.00 634.00,647.00 634.00,647.00
             634.00,647.00 634.00,706.00 634.00,706.00
             634.00,708.22 634.11,710.88 633.44,713.00
             632.01,717.58 622.72,728.03 622.46,740.00
             622.36,744.59 626.69,755.55 628.66,760.00
             629.65,762.22 631.61,765.61 631.63,767.99
             631.67,771.51 625.89,776.68 622.83,777.92
             621.17,778.47 620.58,778.14 619.00,777.92
             619.00,777.92 620.00,780.00 620.00,780.00
             620.00,780.00 616.00,782.00 616.00,782.00
             616.00,782.00 617.00,779.00 617.00,779.00
             610.01,782.32 603.46,786.89 596.00,789.09
             585.79,792.10 570.90,791.05 560.00,791.00
             554.13,790.97 546.13,789.57 541.17,786.32
             537.93,784.20 530.98,778.57 529.76,775.00
             528.36,770.92 532.24,763.82 536.05,762.10
             537.75,761.48 539.27,761.83 541.00,762.10
             542.20,754.22 545.24,749.12 547.94,742.00
             550.95,734.05 553.03,726.30 554.79,718.00
             554.79,718.00 558.56,694.00 558.56,694.00
             558.56,694.00 558.56,688.00 558.56,688.00
             558.56,688.00 560.06,681.00 560.06,681.00
             560.06,681.00 560.06,670.83 560.06,670.83
             560.06,670.83 562.00,653.00 562.00,653.00
             562.00,653.00 562.00,624.00 562.00,624.00
             561.93,618.18 561.29,617.30 560.44,612.00
             559.12,603.80 558.49,598.17 550.57,593.38
             547.76,591.67 542.32,590.67 539.00,590.00
             538.66,593.83 537.00,595.68 537.05,600.00
             537.05,600.00 538.79,613.00 538.79,613.00
             538.79,613.00 538.21,622.00 538.21,622.00
             538.21,622.00 539.58,633.00 539.58,633.00
             540.77,641.98 539.32,646.45 538.28,655.00
             537.28,663.24 536.26,669.95 531.06,676.98
             527.09,682.35 514.28,691.57 508.00,694.43
             498.51,698.76 500.26,699.98 489.00,700.13
             489.00,700.13 475.00,700.13 475.00,700.13
             466.78,700.55 450.29,698.43 449.18,688.00
             448.07,677.52 458.52,671.99 461.03,668.74
             461.03,668.74 471.95,646.00 471.95,646.00
             471.95,646.00 474.46,630.00 474.46,630.00
             476.26,620.42 479.99,610.55 480.00,601.00
             480.00,601.00 480.00,589.00 480.00,589.00
             480.00,589.00 479.00,570.00 479.00,570.00
             479.00,570.00 478.00,557.00 478.00,557.00
             471.28,555.20 465.77,550.41 460.00,546.70
             455.25,543.65 451.15,542.30 447.21,537.96
             441.39,531.54 442.79,528.35 434.00,522.00
             434.00,522.00 435.00,519.00 435.00,519.00
             418.37,524.44 391.97,522.97 374.00,523.00
             362.61,523.02 366.99,524.07 359.00,526.00
             359.00,526.00 356.00,548.00 356.00,548.00
             356.00,548.00 356.00,556.00 356.00,556.00
             356.00,556.00 353.28,578.00 353.28,578.00
             353.28,578.00 352.73,584.00 352.73,584.00
             351.94,588.05 349.47,590.46 348.29,598.00
             348.29,598.00 346.71,612.00 346.71,612.00
             346.71,612.00 341.61,639.00 341.61,639.00
             341.61,639.00 340.56,648.00 340.56,648.00
             340.56,648.00 338.26,657.00 338.26,657.00
             338.26,657.00 337.68,664.00 337.68,664.00
             337.68,664.00 331.58,691.00 331.58,691.00
             331.58,691.00 327.59,710.00 327.59,710.00
             327.59,710.00 326.71,717.00 326.71,717.00
             325.87,720.75 322.45,725.56 321.17,737.00
             320.52,742.83 319.80,749.50 324.00,754.00
             324.00,754.00 321.00,762.00 321.00,762.00
             321.00,762.00 317.00,764.00 317.00,764.00
             317.00,764.00 316.00,762.00 316.00,762.00
             316.00,762.00 315.00,765.00 315.00,765.00
             315.00,765.00 287.00,775.04 287.00,775.04
             283.23,776.24 279.94,775.58 276.00,776.30
             267.05,777.92 258.32,780.61 249.00,778.47
             244.93,777.54 240.82,775.02 237.00,773.31
             232.15,771.14 215.22,767.95 217.66,760.09
             218.81,756.38 223.16,755.83 226.60,749.99
             226.60,749.99 234.13,735.00 234.13,735.00
             234.13,735.00 237.12,727.00 237.12,727.00
             239.14,723.13 244.51,717.25 247.22,711.00
             247.22,711.00 252.06,697.00 252.06,697.00
             252.06,697.00 258.45,683.00 258.45,683.00
             258.45,683.00 265.33,660.00 265.33,660.00
             265.33,660.00 271.64,643.00 271.64,643.00
             271.64,643.00 274.86,632.00 274.86,632.00
             274.86,632.00 282.96,609.00 282.96,609.00
             282.96,609.00 285.04,599.00 285.04,599.00
             285.04,599.00 291.26,582.00 291.26,582.00
             291.26,582.00 294.77,569.00 294.77,569.00
             294.77,569.00 297.37,562.00 297.37,562.00
             297.37,562.00 298.43,555.28 298.43,555.28
             298.43,555.28 301.46,548.00 301.46,548.00
             301.46,548.00 309.00,517.00 309.00,517.00
             291.73,513.88 272.47,496.84 263.87,482.00
             263.87,482.00 254.55,465.00 254.55,465.00
             253.48,462.67 252.80,458.40 250.57,457.11
             246.56,454.79 234.90,460.09 231.00,461.74
             225.12,464.24 207.60,466.99 201.00,467.00
             201.00,467.00 192.00,467.00 192.00,467.00
             181.65,466.95 162.17,459.91 152.00,456.13
             139.59,451.50 130.45,440.53 121.83,431.00
             121.83,431.00 108.67,417.00 108.67,417.00
             108.67,417.00 98.98,404.00 98.98,404.00
             97.28,401.45 96.96,399.01 94.00,398.00
             94.08,388.63 87.51,385.88 83.34,374.00
             79.47,362.96 70.34,337.86 71.19,327.00
             71.19,327.00 72.05,321.00 72.05,321.00
             72.05,321.00 72.05,313.00 72.05,313.00
             72.05,313.00 72.66,306.00 72.66,306.00
             72.66,306.00 72.00,290.00 72.00,290.00
             72.03,272.12 75.49,268.52 80.10,253.00
             80.10,253.00 81.55,246.00 81.55,246.00
             81.55,246.00 84.37,240.00 84.37,240.00
             84.37,240.00 86.93,232.00 86.93,232.00
             88.88,227.13 95.60,216.24 98.90,212.01
             106.36,202.44 117.02,196.49 125.87,188.49
             136.43,178.94 157.46,162.17 172.00,162.00
             174.18,161.98 178.02,161.86 179.99,162.60
             186.00,164.87 188.55,171.31 189.58,177.00
             192.13,191.18 190.66,190.63 187.16,204.00
             187.16,204.00 184.98,216.69 184.98,216.69
             182.99,219.67 173.83,219.69 170.00,221.36
             162.61,224.59 154.66,235.43 152.10,243.00
             148.87,252.58 150.87,263.09 151.00,273.00
             151.05,276.27 150.53,278.86 154.00,280.00
             149.76,288.43 151.93,286.78 150.42,290.91
             150.42,290.91 147.49,296.17 147.49,296.17
             146.59,298.23 144.34,309.60 144.21,312.00
             144.21,312.00 145.68,326.00 145.68,326.00
             145.10,333.74 145.09,353.09 147.55,360.00
             147.55,360.00 165.00,391.00 165.00,391.00
             165.00,391.00 167.00,389.00 167.00,389.00 Z
           M 755.00,621.00
           C 755.00,621.00 780.00,621.00 780.00,621.00
             780.00,621.00 780.00,658.00 780.00,658.00
             780.00,658.00 818.00,658.00 818.00,658.00
             818.00,658.00 818.00,683.00 818.00,683.00
             818.00,683.00 780.00,683.00 780.00,683.00
             780.00,683.00 780.00,720.00 780.00,720.00
             780.00,720.00 755.00,720.00 755.00,720.00
             755.00,720.00 755.00,683.00 755.00,683.00
             755.00,683.00 717.00,683.00 717.00,683.00
             717.00,683.00 717.00,658.00 717.00,658.00
             717.00,658.00 755.00,658.00 755.00,658.00
             755.00,658.00 755.00,621.00 755.00,621.00 Z" />
</svg>
