<?xml version="1.0" encoding="UTF-8" standalone="no"?>
<!DOCTYPE svg PUBLIC "-//W3C//DTD SVG 20010904//EN"
              "http://www.w3.org/TR/2001/REC-SVG-20010904/DTD/svg10.dtd">

<svg xmlns="http://www.w3.org/2000/svg"
     width="304.869mm" height="289.697mm"
     viewBox="0 0 864 821">
  <path id="10 - SUMMER also a sign"
        fill="none" stroke="black" stroke-width="1"
        d="M 73.00,48.00
           C 73.00,48.00 98.00,48.00 98.00,48.00
             98.00,48.00 98.00,85.00 98.00,85.00
             98.00,85.00 136.00,85.00 136.00,85.00
             136.00,85.00 136.00,110.00 136.00,110.00
             136.00,110.00 98.00,110.00 98.00,110.00
             98.00,110.00 98.00,147.00 98.00,147.00
             98.00,147.00 73.00,147.00 73.00,147.00
             73.00,147.00 73.00,110.00 73.00,110.00
             73.00,110.00 35.00,110.00 35.00,110.00
             35.00,110.00 35.00,85.00 35.00,85.00
             35.00,85.00 73.00,85.00 73.00,85.00
             73.00,85.00 73.00,48.00 73.00,48.00 Z
           M 539.00,128.00
           C 539.00,128.00 798.00,128.00 798.00,128.00
             798.00,128.00 798.00,196.00 798.00,196.00
             798.00,196.00 539.00,196.00 539.00,196.00
             539.00,196.00 539.00,128.00 539.00,128.00 Z
           M 750.50,246.04
           C 758.62,243.38 755.41,253.97 754.50,258.00
             754.50,258.00 753.11,263.85 753.11,263.85
             752.23,265.75 750.49,267.21 748.30,266.34
             746.16,265.50 746.05,262.94 746.06,261.00
             746.06,256.26 747.30,249.56 750.50,246.04 Z
           M 717.59,246.85
           C 717.59,247.04 718.93,245.98 720.72,246.85
             722.94,247.49 726.71,255.65 727.52,258.00
             728.47,260.06 729.53,263.30 727.52,264.97
             724.41,267.32 721.32,264.45 719.88,261.94
             717.34,257.55 714.28,251.63 717.59,246.85 Z
           M 777.00,263.84
           C 783.15,262.39 785.27,265.84 782.97,269.62
             781.82,271.52 777.10,274.43 775.00,275.14
             771.11,276.47 768.11,274.25 769.62,270.09
             770.75,266.94 774.21,265.22 777.00,263.84 Z
           M 698.60,267.03
           C 703.54,265.07 714.65,269.88 716.34,275.08
             717.40,278.31 714.95,280.00 711.98,279.72
             709.11,279.45 706.47,277.39 704.00,276.02
             700.22,273.93 695.22,272.08 698.60,267.03 Z
           M 746.00,297.00
           C 743.68,287.82 751.59,289.90 753.26,291.60
             755.06,293.43 755.25,297.61 754.57,299.94
             752.99,305.33 745.48,305.17 741.00,304.40
             732.74,303.00 729.23,295.77 731.65,288.00
             732.49,285.30 734.17,283.06 736.10,281.04
             742.69,274.15 747.27,274.89 756.00,275.00
             760.88,275.07 766.12,276.14 769.26,280.33
             771.39,283.16 771.04,287.60 771.00,291.00
             770.92,297.52 769.85,300.50 766.30,306.00
             758.74,317.73 751.18,319.60 738.00,318.16
             731.43,317.45 723.06,314.70 719.14,308.74
             715.26,302.42 714.96,288.46 719.14,282.02
             721.07,278.72 722.92,277.96 725.58,275.55
             728.13,273.23 732.70,267.15 736.69,268.66
             740.98,270.27 737.59,275.87 735.89,278.00
             731.07,284.05 725.72,289.58 727.25,298.00
             727.71,300.51 728.37,302.59 730.30,304.36
             731.94,305.88 734.92,307.13 737.00,307.99
             744.71,311.18 749.62,311.56 755.86,304.96
             761.71,298.45 768.93,286.54 755.86,282.65
             746.66,279.85 731.90,294.66 746.00,297.00 Z
           M 790.00,289.42
           C 792.10,289.18 795.61,288.58 797.40,290.02
             801.45,293.28 796.01,296.33 793.00,296.83
             789.74,297.37 779.17,299.52 777.66,295.70
             775.36,289.94 786.88,289.88 790.00,289.42 Z
           M 703.00,290.42
           C 714.66,289.05 711.90,295.24 709.69,296.69
             707.71,297.97 704.30,297.97 702.00,298.00
             699.15,298.03 688.33,299.13 690.66,293.30
             691.83,290.34 699.98,290.85 703.00,290.42 Z
           M 774.60,308.02
           C 779.88,305.86 781.85,308.57 786.00,311.45
             786.00,311.45 790.69,314.32 790.69,314.32
             792.73,315.89 793.77,319.17 791.40,320.96
             787.14,324.19 769.88,315.04 774.60,308.02 Z
           M 709.00,311.65
           C 720.83,309.35 717.65,319.24 708.00,321.49
             704.78,322.24 701.44,320.92 702.66,317.02
             703.61,313.96 706.34,312.78 709.00,311.65 Z
           M 761.60,321.04
           C 768.74,318.69 773.53,330.18 773.76,335.98
             773.88,338.88 772.41,341.47 769.11,340.34
             766.46,339.44 760.41,326.84 760.37,324.06
             760.34,322.10 760.73,322.31 761.60,321.04 Z
           M 726.49,324.04
           C 737.19,320.56 729.57,341.76 724.89,343.34
             721.55,344.48 720.17,341.91 720.36,338.98
             720.63,334.70 723.58,327.11 726.49,324.04 Z
           M 744.59,330.04
           C 753.05,327.14 750.82,345.88 746.79,347.34
             744.10,348.32 742.49,346.45 742.18,343.94
             741.81,340.90 742.88,332.41 744.59,330.04 Z
           M 130.00,544.44
           C 141.17,543.11 154.20,549.55 160.28,559.00
             166.16,568.16 162.86,582.41 153.00,587.08
             148.00,589.45 142.39,589.06 137.00,589.00
             133.14,588.95 129.58,588.64 126.00,587.03
             117.34,583.15 109.21,571.81 111.30,562.00
             111.83,559.50 113.26,557.20 114.52,555.00
             116.21,552.07 117.27,550.15 120.10,548.11
             123.37,545.75 126.18,545.18 130.00,544.44 Z
           M 755.00,621.00
           C 755.00,621.00 780.00,621.00 780.00,621.00
             780.00,621.00 780.00,658.00 780.00,658.00
             780.00,658.00 818.00,658.00 818.00,658.00
             818.00,658.00 818.00,683.00 818.00,683.00
             818.00,683.00 780.00,683.00 780.00,683.00
             780.00,683.00 780.00,720.00 780.00,720.00
             780.00,720.00 755.00,720.00 755.00,720.00
             755.00,720.00 755.00,683.00 755.00,683.00
             755.00,683.00 717.00,683.00 717.00,683.00
             717.00,683.00 717.00,658.00 717.00,658.00
             717.00,658.00 755.00,658.00 755.00,658.00
             755.00,658.00 755.00,621.00 755.00,621.00 Z" />
</svg>
