<?xml version="1.0" encoding="UTF-8" standalone="no"?>
<!DOCTYPE svg PUBLIC "-//W3C//DTD SVG 20010904//EN"
              "http://www.w3.org/TR/2001/REC-SVG-20010904/DTD/svg10.dtd">

<svg xmlns="http://www.w3.org/2000/svg"
     width="304.869mm" height="289.697mm"
     viewBox="0 0 864 821">
  <path id="2 - faec"
        fill="none" stroke="black" stroke-width="1"
        d="M 73.00,48.00
           C 73.00,48.00 98.00,48.00 98.00,48.00
             98.00,48.00 98.00,85.00 98.00,85.00
             98.00,85.00 136.00,85.00 136.00,85.00
             136.00,85.00 136.00,110.00 136.00,110.00
             136.00,110.00 98.00,110.00 98.00,110.00
             98.00,110.00 98.00,147.00 98.00,147.00
             98.00,147.00 73.00,147.00 73.00,147.00
             73.00,147.00 73.00,110.00 73.00,110.00
             73.00,110.00 35.00,110.00 35.00,110.00
             35.00,110.00 35.00,85.00 35.00,85.00
             35.00,85.00 73.00,85.00 73.00,85.00
             73.00,85.00 73.00,48.00 73.00,48.00 Z
           M 233.00,186.73
           C 238.51,185.40 243.47,186.05 249.00,186.73
             254.57,187.38 264.78,186.96 268.69,191.23
             271.14,193.90 270.98,196.63 271.00,200.00
             271.00,200.00 271.74,216.00 271.74,216.00
             270.65,222.62 264.49,235.75 261.48,242.00
             261.48,242.00 254.16,255.73 254.16,255.73
             251.04,259.68 245.89,259.21 242.14,262.43
             238.67,265.40 235.46,275.42 228.00,277.36
             224.28,278.32 222.49,275.67 219.72,273.95
             217.77,272.74 216.20,272.51 214.49,270.69
             210.33,266.25 208.68,250.99 209.10,245.00
             209.10,245.00 211.68,234.00 211.68,234.00
             212.46,229.33 211.36,228.22 213.32,223.00
             213.32,223.00 219.75,210.00 219.75,210.00
             222.98,201.19 223.69,191.70 233.00,186.73 Z
           M 327.00,187.74
           C 336.91,185.34 353.20,186.52 360.61,194.33
             366.05,200.06 369.16,214.21 368.99,222.00
             368.86,227.65 367.13,237.76 365.07,243.00
             365.07,243.00 361.54,251.00 361.54,251.00
             355.18,268.47 355.60,274.74 340.02,287.66
             334.73,292.05 334.10,295.83 329.98,297.34
             326.69,298.66 321.44,297.69 318.00,297.34
             313.64,296.77 308.94,297.55 305.02,295.15
             298.48,291.14 290.31,270.71 289.36,263.00
             289.36,263.00 290.73,246.00 290.73,246.00
             292.43,234.14 298.22,216.49 305.53,207.00
             308.80,202.75 313.92,198.10 318.00,194.58
             321.43,191.61 322.89,189.88 327.00,187.74 Z
           M 284.00,278.00
           C 283.99,280.63 284.20,283.60 282.98,286.00
             279.51,292.82 265.68,299.76 258.01,298.81
             252.11,298.08 248.77,293.44 251.61,290.99
             254.45,288.55 266.01,288.20 271.83,284.73
             277.48,281.36 275.85,278.66 284.00,278.00 Z
           M 755.00,621.00
           C 755.00,621.00 780.00,621.00 780.00,621.00
             780.00,621.00 780.00,658.00 780.00,658.00
             780.00,658.00 818.00,658.00 818.00,658.00
             818.00,658.00 818.00,683.00 818.00,683.00
             818.00,683.00 780.00,683.00 780.00,683.00
             780.00,683.00 780.00,720.00 780.00,720.00
             780.00,720.00 755.00,720.00 755.00,720.00
             755.00,720.00 755.00,683.00 755.00,683.00
             755.00,683.00 717.00,683.00 717.00,683.00
             717.00,683.00 717.00,658.00 717.00,658.00
             717.00,658.00 755.00,658.00 755.00,658.00
             755.00,658.00 755.00,621.00 755.00,621.00 Z" />
</svg>
