<?xml version="1.0" encoding="UTF-8" standalone="no"?>
<!DOCTYPE svg PUBLIC "-//W3C//DTD SVG 20010904//EN"
              "http://www.w3.org/TR/2001/REC-SVG-20010904/DTD/svg10.dtd">

<svg xmlns="http://www.w3.org/2000/svg"
     width="304.869mm" height="289.697mm"
     viewBox="0 0 864 821">
  <path id="3 - mane"
        fill="none" stroke="black" stroke-width="1"
        d="M 73.00,48.00
           C 73.00,48.00 98.00,48.00 98.00,48.00
             98.00,48.00 98.00,85.00 98.00,85.00
             98.00,85.00 136.00,85.00 136.00,85.00
             136.00,85.00 136.00,110.00 136.00,110.00
             136.00,110.00 98.00,110.00 98.00,110.00
             98.00,110.00 98.00,147.00 98.00,147.00
             98.00,147.00 73.00,147.00 73.00,147.00
             73.00,147.00 73.00,110.00 73.00,110.00
             73.00,110.00 35.00,110.00 35.00,110.00
             35.00,110.00 35.00,85.00 35.00,85.00
             35.00,85.00 73.00,85.00 73.00,85.00
             73.00,85.00 73.00,48.00 73.00,48.00 Z
           M 294.00,103.00
           C 294.00,103.00 278.28,79.00 278.28,79.00
             275.78,73.66 276.96,61.31 282.27,58.02
             284.36,56.73 288.54,56.99 291.00,57.00
             299.36,57.04 306.82,61.25 311.79,68.00
             311.79,68.00 316.30,74.96 316.30,74.96
             318.49,77.62 326.03,83.88 329.00,86.00
             329.21,68.76 343.80,62.01 355.78,75.18
             362.97,83.09 369.10,95.54 374.12,105.00
             378.19,112.67 384.19,120.56 386.25,129.00
             387.27,133.17 387.05,138.64 387.00,143.00
             386.85,154.77 381.42,156.75 377.36,166.00
             377.36,166.00 372.78,181.96 372.78,181.96
             371.73,185.19 370.47,185.79 369.58,188.17
             368.39,191.30 369.33,193.95 365.39,198.95
             362.53,202.58 360.60,202.78 357.00,204.97
             357.00,204.97 350.00,209.48 350.00,209.48
             346.18,211.41 336.67,211.86 333.09,209.48
             327.41,205.49 327.49,200.27 325.46,195.00
             324.07,191.42 322.66,190.94 321.00,186.00
             313.33,191.12 310.99,192.82 304.28,199.42
             300.35,203.29 296.45,208.64 291.00,210.35
             280.98,213.49 268.39,208.86 268.14,197.00
             268.05,193.31 269.41,191.17 271.00,188.00
             271.00,188.00 254.00,188.73 254.00,188.73
             254.00,188.73 246.00,187.18 246.00,187.18
             242.64,186.78 237.97,187.40 235.00,186.26
             227.47,183.37 226.31,176.07 227.18,169.00
             227.59,165.71 228.79,163.05 230.00,160.00
             225.73,160.00 219.90,160.42 216.00,158.77
             214.23,158.02 212.69,157.00 211.30,155.66
             200.06,144.85 213.62,131.35 223.00,125.42
             231.84,119.83 237.79,126.51 247.00,120.00
             241.87,118.97 231.87,117.49 228.39,113.78
             222.18,107.13 224.37,95.62 232.00,91.01
             235.69,88.78 238.89,89.01 243.00,89.00
             243.00,89.00 249.00,89.00 249.00,89.00
             260.06,89.14 283.01,98.90 294.00,103.00 Z
           M 364.00,252.00
           C 368.42,248.25 373.28,240.98 379.94,243.60
             387.10,246.41 383.63,257.11 390.11,260.57
             390.11,260.57 399.00,263.17 399.00,263.17
             403.48,264.48 410.42,267.95 415.04,266.61
             417.63,265.86 433.12,254.16 436.00,251.70
             439.60,248.63 448.35,241.83 447.97,236.88
             447.61,232.05 445.35,223.90 442.21,220.26
             440.27,218.00 437.36,216.59 435.00,214.66
             431.97,212.18 420.68,200.28 419.85,197.01
             419.08,195.21 420.05,190.54 419.85,187.96
             420.03,181.09 421.76,165.83 428.21,162.02
             430.60,160.61 435.30,160.96 438.00,161.28
             447.71,162.45 452.15,165.07 461.00,168.78
             461.00,168.78 480.00,176.69 480.00,176.69
             490.95,181.54 497.57,182.58 496.98,197.00
             496.68,204.23 490.82,208.18 486.00,213.00
             491.10,216.77 494.02,221.72 497.41,227.00
             503.60,236.64 513.11,253.49 513.90,265.00
             514.44,272.77 511.36,279.47 503.00,280.79
             495.96,281.90 487.88,280.48 482.00,276.35
             471.67,269.11 472.50,262.63 458.00,257.00
             456.41,263.53 456.39,275.69 458.76,282.00
             461.23,288.58 467.49,299.25 467.91,306.00
             468.78,320.17 455.43,331.78 442.05,323.24
             435.77,319.23 436.50,312.02 432.93,312.75
             431.55,313.03 424.43,322.34 423.00,324.00
             419.33,328.25 408.71,340.74 404.00,342.40
             398.40,344.37 391.45,338.62 387.02,335.75
             384.41,334.07 382.36,333.36 381.93,329.96
             381.93,329.96 381.93,324.00 381.93,324.00
             378.61,326.91 373.35,331.51 369.00,332.58
             358.85,335.10 347.41,327.72 347.02,317.00
             346.78,310.56 347.65,306.10 352.33,301.30
             355.11,298.45 358.04,297.37 360.01,294.74
             360.01,294.74 364.68,285.00 364.68,285.00
             364.68,285.00 373.00,273.00 373.00,273.00
             364.04,270.79 360.43,259.10 365.00,255.00
             365.00,255.00 364.00,252.00 364.00,252.00 Z
           M 153.00,235.00
           C 151.89,233.17 151.14,232.14 150.56,230.00
             147.55,218.79 156.95,218.61 164.00,215.10
             166.51,213.86 168.08,212.65 171.00,212.24
             177.70,211.27 191.70,215.83 194.91,222.29
             196.25,224.98 196.03,229.01 196.00,232.00
             195.87,241.45 192.14,243.33 191.17,253.00
             190.66,258.09 191.89,272.43 189.98,275.94
             187.97,279.63 183.88,279.77 178.00,285.00
             173.86,288.69 165.83,296.70 160.00,295.71
             151.24,294.22 154.16,287.70 152.35,282.00
             149.82,274.01 143.10,275.60 148.00,265.00
             143.24,262.62 143.89,261.70 140.63,258.13
             136.65,253.78 133.58,254.08 134.06,247.00
             134.18,245.22 134.45,243.72 135.60,242.28
             137.63,239.71 149.43,235.96 153.00,235.00 Z
           M 365.00,263.00
           C 365.00,263.00 364.00,263.00 364.00,263.00
             364.00,263.00 365.00,264.00 365.00,264.00
             365.00,264.00 365.00,263.00 365.00,263.00 Z
           M 649.00,437.00
           C 662.46,438.14 659.21,445.31 677.00,450.08
             677.00,450.08 697.00,454.22 697.00,454.22
             697.00,454.22 704.00,454.22 704.00,454.22
             713.23,453.72 716.43,457.29 725.00,459.18
             732.29,460.45 732.47,458.92 736.00,459.18
             739.30,459.77 741.57,461.90 745.00,462.80
             745.00,462.80 764.00,462.80 764.00,462.80
             772.17,463.10 781.24,463.86 781.95,474.00
             782.09,476.09 781.96,479.00 781.35,481.00
             776.94,495.61 764.85,491.74 754.00,490.21
             754.00,490.21 747.00,490.21 747.00,490.21
             747.00,490.21 741.00,489.16 741.00,489.16
             738.29,489.01 730.04,490.45 727.00,491.00
             727.00,491.00 727.00,493.00 727.00,493.00
             731.59,495.28 732.83,497.70 736.46,500.92
             742.27,506.06 743.63,505.78 749.29,512.91
             752.36,516.78 754.46,519.37 759.01,521.67
             763.40,523.89 766.67,523.53 770.82,527.47
             779.76,535.96 774.76,554.64 759.00,552.87
             750.51,551.92 731.49,537.82 724.30,532.37
             721.05,529.90 716.96,525.51 713.00,524.23
             706.02,521.97 704.83,530.14 705.04,535.00
             705.23,539.41 706.07,540.32 706.68,544.00
             707.98,551.95 709.29,562.69 705.20,569.88
             697.42,583.65 680.72,582.66 678.00,569.88
             678.00,569.88 670.00,569.88 670.00,569.88
             667.34,569.23 665.48,568.03 663.00,567.12
             658.17,565.36 651.94,564.63 648.93,559.89
             647.17,557.11 647.04,553.19 647.00,550.00
             647.00,550.00 647.00,524.00 647.00,524.00
             639.30,531.33 637.75,544.73 625.00,545.85
             622.55,546.07 620.25,545.48 618.00,544.56
             610.33,541.44 608.61,533.48 610.56,526.00
             612.03,520.34 615.93,516.71 616.02,509.00
             616.07,504.41 609.68,496.71 613.02,492.73
             614.71,490.55 617.98,491.65 619.83,492.73
             619.83,492.73 625.45,497.86 625.45,497.86
             631.90,502.03 638.64,500.32 645.56,498.96
             645.56,498.96 650.44,497.26 650.44,497.26
             655.92,495.31 661.08,493.98 661.46,487.00
             661.98,483.92 660.09,474.57 661.46,472.21
             662.66,469.17 673.12,465.39 670.83,460.42
             669.73,458.01 665.11,457.53 662.29,455.01
             659.45,452.47 660.44,450.43 658.30,447.17
             654.78,441.81 651.02,443.14 649.00,437.00 Z
           M 627.00,499.00
           C 627.00,499.00 626.00,499.00 626.00,499.00
             626.00,499.00 627.00,500.00 627.00,500.00
             627.00,500.00 627.00,499.00 627.00,499.00 Z
           M 755.00,621.00
           C 755.00,621.00 780.00,621.00 780.00,621.00
             780.00,621.00 780.00,658.00 780.00,658.00
             780.00,658.00 818.00,658.00 818.00,658.00
             818.00,658.00 818.00,683.00 818.00,683.00
             818.00,683.00 780.00,683.00 780.00,683.00
             780.00,683.00 780.00,720.00 780.00,720.00
             780.00,720.00 755.00,720.00 755.00,720.00
             755.00,720.00 755.00,683.00 755.00,683.00
             755.00,683.00 717.00,683.00 717.00,683.00
             717.00,683.00 717.00,658.00 717.00,658.00
             717.00,658.00 755.00,658.00 755.00,658.00
             755.00,658.00 755.00,621.00 755.00,621.00 Z" />
</svg>
