<?xml version="1.0" encoding="UTF-8" standalone="no"?>
<!DOCTYPE svg PUBLIC "-//W3C//DTD SVG 20010904//EN"
              "http://www.w3.org/TR/2001/REC-SVG-20010904/DTD/svg10.dtd">

<svg xmlns="http://www.w3.org/2000/svg"
     width="304.869mm" height="289.697mm"
     viewBox="0 0 864 821">
  <path id="4 - cloak"
        fill="none" stroke="black" stroke-width="1"
        d="M 73.00,48.00
           C 73.00,48.00 98.00,48.00 98.00,48.00
             98.00,48.00 98.00,85.00 98.00,85.00
             98.00,85.00 136.00,85.00 136.00,85.00
             136.00,85.00 136.00,110.00 136.00,110.00
             136.00,110.00 98.00,110.00 98.00,110.00
             98.00,110.00 98.00,147.00 98.00,147.00
             98.00,147.00 73.00,147.00 73.00,147.00
             73.00,147.00 73.00,110.00 73.00,110.00
             73.00,110.00 35.00,110.00 35.00,110.00
             35.00,110.00 35.00,85.00 35.00,85.00
             35.00,85.00 73.00,85.00 73.00,85.00
             73.00,85.00 73.00,48.00 73.00,48.00 Z
           M 508.00,361.37
           C 512.19,360.91 521.95,360.67 526.00,361.37
             526.00,361.37 533.00,362.82 533.00,362.82
             540.24,363.68 547.83,362.56 555.00,364.41
             559.84,365.65 563.48,368.45 568.00,370.52
             579.34,375.71 591.30,381.35 600.91,389.52
             600.91,389.52 608.30,397.63 608.30,397.63
             608.30,397.63 615.96,404.04 615.96,404.04
             615.96,404.04 629.25,422.42 629.25,422.42
             634.08,432.73 627.24,439.54 621.01,447.00
             621.01,447.00 615.63,453.83 615.63,453.83
             615.63,453.83 610.59,459.09 610.59,459.09
             608.03,462.83 609.04,469.76 602.00,472.34
             598.56,473.69 592.61,472.73 589.00,472.34
             589.00,472.34 569.00,471.00 569.00,471.00
             569.00,471.00 545.00,466.44 545.00,466.44
             545.00,466.44 529.00,464.88 529.00,464.88
             529.00,464.88 522.00,463.26 522.00,463.26
             522.00,463.26 516.00,462.68 516.00,462.68
             516.00,462.68 502.00,458.52 502.00,458.52
             496.86,456.64 495.65,453.93 492.00,452.60
             492.00,452.60 473.00,448.57 473.00,448.57
             460.68,445.10 462.08,443.64 457.00,441.41
             457.00,441.41 440.00,437.66 440.00,437.66
             433.68,436.12 425.21,431.97 420.00,428.08
             413.09,422.92 407.39,412.56 403.21,405.00
             401.39,401.72 398.71,398.81 398.14,395.00
             397.29,389.20 399.30,385.28 400.97,380.00
             402.49,375.19 402.97,369.60 408.02,367.03
             410.68,365.68 421.49,365.98 425.00,366.00
             425.00,366.00 442.00,366.00 442.00,366.00
             442.00,366.00 457.00,365.00 457.00,365.00
             457.00,365.00 471.00,365.00 471.00,365.00
             471.00,365.00 498.00,362.17 498.00,362.17
             498.00,362.17 508.00,361.37 508.00,361.37 Z
           M 755.00,621.00
           C 755.00,621.00 780.00,621.00 780.00,621.00
             780.00,621.00 780.00,658.00 780.00,658.00
             780.00,658.00 818.00,658.00 818.00,658.00
             818.00,658.00 818.00,683.00 818.00,683.00
             818.00,683.00 780.00,683.00 780.00,683.00
             780.00,683.00 780.00,720.00 780.00,720.00
             780.00,720.00 755.00,720.00 755.00,720.00
             755.00,720.00 755.00,683.00 755.00,683.00
             755.00,683.00 717.00,683.00 717.00,683.00
             717.00,683.00 717.00,658.00 717.00,658.00
             717.00,658.00 755.00,658.00 755.00,658.00
             755.00,658.00 755.00,621.00 755.00,621.00 Z" />
</svg>
