<?xml version="1.0" encoding="UTF-8" standalone="no"?>
<!DOCTYPE svg PUBLIC "-//W3C//DTD SVG 20010904//EN"
              "http://www.w3.org/TR/2001/REC-SVG-20010904/DTD/svg10.dtd">

<svg xmlns="http://www.w3.org/2000/svg"
     width="304.869mm" height="289.697mm"
     viewBox="0 0 864 821">
  <path id="5 - dotty"
        fill="none" stroke="black" stroke-width="1"
        d="M 73.00,48.00
           C 73.00,48.00 98.00,48.00 98.00,48.00
             98.00,48.00 98.00,85.00 98.00,85.00
             98.00,85.00 136.00,85.00 136.00,85.00
             136.00,85.00 136.00,110.00 136.00,110.00
             136.00,110.00 98.00,110.00 98.00,110.00
             98.00,110.00 98.00,147.00 98.00,147.00
             98.00,147.00 73.00,147.00 73.00,147.00
             73.00,147.00 73.00,110.00 73.00,110.00
             73.00,110.00 35.00,110.00 35.00,110.00
             35.00,110.00 35.00,85.00 35.00,85.00
             35.00,85.00 73.00,85.00 73.00,85.00
             73.00,85.00 73.00,48.00 73.00,48.00 Z
           M 310.00,79.00
           C 315.22,79.84 320.51,83.87 322.40,89.00
             323.12,90.95 322.99,93.90 323.00,96.00
             323.00,96.00 319.00,96.00 319.00,96.00
             314.86,87.23 310.35,89.16 310.00,79.00 Z
           M 351.00,89.00
           C 352.50,89.25 353.40,89.21 354.83,90.02
             357.25,91.41 361.19,96.60 358.96,99.34
             356.40,102.51 352.22,95.86 351.55,93.83
             351.00,92.21 351.06,90.67 351.00,89.00 Z
           M 272.00,109.00
           C 278.48,109.22 283.87,112.71 290.00,114.71
             290.00,114.71 304.00,117.70 304.00,117.70
             306.42,118.34 312.78,119.14 313.83,121.30
             315.67,125.07 310.36,125.85 308.00,125.98
             300.50,126.41 302.32,127.03 297.00,127.79
             291.06,128.65 285.77,127.60 281.00,132.00
             281.00,132.00 299.00,132.00 299.00,132.00
             299.00,132.00 312.00,130.06 312.00,130.06
             312.00,130.06 324.00,130.06 324.00,130.06
             324.37,137.15 322.07,137.29 318.00,143.00
             323.78,140.04 331.48,136.07 338.00,136.02
             341.26,135.99 344.85,136.14 345.63,140.06
             346.15,142.64 343.92,148.38 343.00,151.00
             343.00,151.00 349.00,148.26 349.00,148.26
             353.90,146.21 355.93,148.48 354.83,150.79
             353.55,153.47 345.96,157.02 343.02,156.80
             337.52,156.38 337.73,151.12 338.43,147.00
             338.71,145.40 339.88,142.29 337.63,141.51
             336.09,140.98 333.39,142.43 332.00,143.08
             329.49,144.27 327.75,145.29 325.00,146.06
             319.30,147.68 308.29,148.39 312.59,139.00
             312.59,139.00 315.00,135.00 315.00,135.00
             305.49,136.70 291.70,136.57 282.00,135.96
             277.99,135.72 270.97,133.87 274.33,128.27
             277.65,122.74 291.28,123.63 297.00,122.00
             297.00,122.00 272.00,115.00 272.00,115.00
             272.00,115.00 272.00,109.00 272.00,109.00 Z
           M 446.00,177.00
           C 446.00,177.00 460.00,180.61 460.00,180.61
             460.00,180.61 468.40,184.30 468.40,184.30
             468.40,184.30 470.00,190.00 470.00,190.00
             466.23,189.49 449.92,183.98 447.60,181.44
             446.25,179.98 446.30,178.80 446.00,177.00 Z
           M 469.00,218.00
           C 470.78,218.06 472.92,217.91 474.44,219.02
             479.05,222.40 480.00,236.60 480.00,242.00
             472.43,241.74 470.64,238.58 466.00,233.00
             466.00,233.00 466.00,239.00 466.00,239.00
             466.00,239.00 459.00,239.00 459.00,239.00
             459.00,239.00 462.00,224.00 462.00,224.00
             469.22,224.25 467.78,225.80 473.00,230.00
             473.00,230.00 469.00,218.00 469.00,218.00 Z
           M 177.00,228.00
           C 181.76,228.45 190.88,232.32 185.40,238.24
             183.00,240.83 178.34,241.69 175.00,242.00
             181.01,248.53 182.31,245.35 179.00,256.00
             179.00,256.00 173.00,256.00 173.00,256.00
             173.00,256.00 174.00,249.00 174.00,249.00
             167.26,247.55 167.08,245.34 167.00,239.00
             167.00,239.00 180.00,235.00 180.00,235.00
             180.00,235.00 177.00,228.00 177.00,228.00 Z
           M 474.00,231.00
           C 474.00,231.00 473.00,231.00 473.00,231.00
             473.00,231.00 474.00,232.00 474.00,232.00
             474.00,232.00 474.00,231.00 474.00,231.00 Z
           M 394.00,291.00
           C 389.25,292.93 376.37,299.83 371.61,295.98
             369.41,294.21 370.57,291.05 371.61,289.00
             374.62,283.08 376.64,282.16 383.00,282.00
             383.00,282.00 377.00,291.00 377.00,291.00
             384.67,289.37 384.64,287.58 391.00,285.51
             392.87,284.76 395.44,283.78 396.98,285.51
             398.30,287.19 398.00,291.93 398.00,294.00
             401.04,292.05 407.74,287.77 411.00,291.60
             411.81,292.55 413.52,298.46 414.00,300.00
             414.00,300.00 417.00,298.28 417.00,298.28
             421.65,296.20 423.98,298.37 422.83,300.88
             422.10,302.33 411.62,310.60 408.72,300.88
             408.23,299.35 408.14,297.68 408.00,296.00
             401.35,298.99 401.75,301.44 394.00,302.00
             394.00,302.00 394.00,291.00 394.00,291.00 Z
           M 478.00,367.00
           C 478.00,367.00 492.00,363.82 492.00,363.82
             494.64,363.91 506.28,362.95 507.72,363.82
             513.53,366.21 509.73,376.46 506.73,379.95
             497.92,390.16 478.99,387.20 478.00,367.00 Z
           M 569.00,370.00
           C 578.04,372.12 591.61,380.56 597.00,388.00
             583.62,400.42 568.98,393.43 567.36,380.00
             566.95,376.60 568.26,373.28 569.00,370.00 Z
           M 419.00,373.36
           C 420.96,373.22 421.96,373.00 424.00,373.36
             448.41,375.53 441.16,409.06 421.00,406.64
             403.99,404.59 397.45,379.51 419.00,373.36 Z
           M 516.00,396.45
           C 517.70,396.34 518.19,396.15 520.00,396.45
             542.18,399.03 536.96,431.04 517.00,428.64
             500.06,426.60 495.40,402.14 516.00,396.45 Z
           M 613.00,400.83
           C 614.15,401.09 614.11,400.62 615.91,401.69
             619.31,403.70 638.95,425.91 620.00,431.94
             617.94,432.60 616.16,432.90 614.00,432.64
             595.37,430.40 594.14,403.83 613.00,400.83 Z
           M 467.00,418.45
           C 468.70,418.34 469.19,418.15 471.00,418.45
             493.18,421.03 487.96,453.04 468.00,450.64
             451.06,448.60 446.40,424.14 467.00,418.45 Z
           M 554.00,436.45
           C 555.70,436.34 556.19,436.15 558.00,436.45
             580.18,439.03 574.96,471.04 555.00,468.64
             538.06,466.60 533.40,442.14 554.00,436.45 Z
           M 702.00,463.00
           C 717.86,463.35 735.00,473.55 751.00,477.00
             751.00,477.00 751.00,481.00 751.00,481.00
             734.06,481.00 724.17,477.66 707.00,483.00
             707.00,483.00 711.46,490.00 711.46,490.00
             715.52,495.42 718.90,496.79 720.00,504.00
             705.32,503.95 705.44,496.82 694.00,496.00
             694.00,496.00 693.41,501.00 693.41,501.00
             691.58,511.19 685.54,505.22 677.00,501.00
             677.00,501.00 677.00,511.00 677.00,511.00
             677.00,511.00 670.00,511.00 670.00,511.00
             670.00,511.00 673.57,498.34 673.57,498.34
             674.12,497.18 674.90,496.40 676.13,495.98
             679.54,494.81 685.09,498.35 688.00,500.00
             689.69,486.78 694.98,489.99 705.00,492.00
             703.99,490.30 703.06,488.95 702.51,487.00
             698.17,471.80 720.72,477.25 728.00,474.00
             719.38,473.81 710.28,469.65 702.00,467.00
             702.00,467.00 702.00,463.00 702.00,463.00 Z
           M 755.00,621.00
           C 755.00,621.00 780.00,621.00 780.00,621.00
             780.00,621.00 780.00,658.00 780.00,658.00
             780.00,658.00 818.00,658.00 818.00,658.00
             818.00,658.00 818.00,683.00 818.00,683.00
             818.00,683.00 780.00,683.00 780.00,683.00
             780.00,683.00 780.00,720.00 780.00,720.00
             780.00,720.00 755.00,720.00 755.00,720.00
             755.00,720.00 755.00,683.00 755.00,683.00
             755.00,683.00 717.00,683.00 717.00,683.00
             717.00,683.00 717.00,658.00 717.00,658.00
             717.00,658.00 755.00,658.00 755.00,658.00
             755.00,658.00 755.00,621.00 755.00,621.00 Z" />
</svg>
