<?xml version="1.0" encoding="UTF-8" standalone="no"?>
<!DOCTYPE svg PUBLIC "-//W3C//DTD SVG 20010904//EN"
              "http://www.w3.org/TR/2001/REC-SVG-20010904/DTD/svg10.dtd">

<svg xmlns="http://www.w3.org/2000/svg"
     width="304.869mm" height="289.697mm"
     viewBox="0 0 864 821">
  <path id="6 - &gt;green"
        fill="none" stroke="black" stroke-width="1"
        d="M 73.00,48.00
           C 73.00,48.00 98.00,48.00 98.00,48.00
             98.00,48.00 98.00,85.00 98.00,85.00
             98.00,85.00 136.00,85.00 136.00,85.00
             136.00,85.00 136.00,110.00 136.00,110.00
             136.00,110.00 98.00,110.00 98.00,110.00
             98.00,110.00 98.00,147.00 98.00,147.00
             98.00,147.00 73.00,147.00 73.00,147.00
             73.00,147.00 73.00,110.00 73.00,110.00
             73.00,110.00 35.00,110.00 35.00,110.00
             35.00,110.00 35.00,85.00 35.00,85.00
             35.00,85.00 73.00,85.00 73.00,85.00
             73.00,85.00 73.00,48.00 73.00,48.00 Z
           M 391.00,413.00
           C 383.77,411.79 384.72,410.35 379.00,407.33
             371.74,403.51 361.49,403.49 363.66,397.14
             366.18,389.74 379.73,397.17 384.00,398.05
             387.96,398.86 390.08,395.84 394.00,395.40
             397.44,395.01 405.22,399.29 406.98,402.22
             408.03,403.98 407.93,406.04 408.00,408.00
             416.90,409.49 415.12,415.92 407.00,420.00
             414.74,420.36 420.35,421.46 424.00,429.00
             424.00,429.00 431.09,423.17 431.09,423.17
             435.99,420.61 444.94,422.73 448.86,426.34
             452.82,430.00 452.91,434.92 459.00,437.26
             461.90,438.38 465.08,437.67 468.00,438.43
             471.21,439.26 473.15,441.22 476.00,442.56
             482.65,445.69 484.51,441.83 490.00,453.00
             496.16,448.84 499.43,446.73 504.00,454.00
             504.01,449.87 503.77,443.47 507.30,440.60
             509.62,438.71 513.17,439.01 516.00,439.00
             522.27,438.99 534.52,438.38 538.40,444.06
             541.42,448.46 539.02,451.06 536.05,454.25
             534.65,455.74 531.85,458.22 534.52,460.20
             538.12,462.55 554.23,459.94 555.95,460.20
             560.05,461.26 561.35,465.97 565.01,467.18
             568.98,468.48 570.32,464.10 574.09,462.60
             574.09,462.60 580.00,461.55 580.00,461.55
             589.54,459.46 586.22,459.76 594.28,464.05
             597.23,465.62 598.81,465.07 601.12,468.15
             605.07,473.41 604.52,477.08 605.28,483.00
             605.66,485.94 606.33,488.97 602.85,490.39
             598.15,492.31 590.61,487.62 588.00,487.29
             583.49,486.72 576.43,493.58 574.16,485.94
             574.16,485.94 574.16,483.00 574.16,483.00
             563.42,484.34 555.77,494.01 554.07,483.98
             554.07,483.98 554.07,480.00 554.07,480.00
             554.07,480.00 536.00,482.12 536.00,482.12
             536.00,482.12 527.14,482.12 527.14,482.12
             527.14,482.12 518.00,475.00 518.00,475.00
             517.93,480.54 517.65,484.27 511.00,484.65
             509.49,485.03 507.43,484.93 506.00,484.65
             501.75,482.82 498.76,477.44 495.91,474.01
             493.33,470.92 483.55,462.54 480.28,460.91
             477.15,459.34 475.13,462.15 466.00,459.86
             461.19,458.66 461.16,456.91 457.83,455.57
             457.83,455.57 443.00,451.98 443.00,451.98
             436.42,450.11 433.53,447.76 437.00,441.00
             437.00,441.00 421.00,438.42 421.00,438.42
             421.00,438.42 412.14,436.15 412.14,436.15
             412.14,436.15 409.00,432.00 409.00,432.00
             409.00,432.00 403.00,433.99 403.00,433.99
             400.01,435.45 395.93,439.66 392.60,436.40
             391.41,435.23 391.17,433.58 391.32,432.00
             391.41,430.96 391.76,429.98 392.09,429.00
             392.09,429.00 394.00,424.00 394.00,424.00
             390.78,424.00 384.97,424.71 383.66,420.86
             382.99,418.89 383.80,417.11 385.31,415.84
             386.42,414.90 389.55,413.66 391.00,413.00 Z
           M 755.00,621.00
           C 755.00,621.00 780.00,621.00 780.00,621.00
             780.00,621.00 780.00,658.00 780.00,658.00
             780.00,658.00 818.00,658.00 818.00,658.00
             818.00,658.00 818.00,683.00 818.00,683.00
             818.00,683.00 780.00,683.00 780.00,683.00
             780.00,683.00 780.00,720.00 780.00,720.00
             780.00,720.00 755.00,720.00 755.00,720.00
             755.00,720.00 755.00,683.00 755.00,683.00
             755.00,683.00 717.00,683.00 717.00,683.00
             717.00,683.00 717.00,658.00 717.00,658.00
             717.00,658.00 755.00,658.00 755.00,658.00
             755.00,658.00 755.00,621.00 755.00,621.00 Z" />
</svg>
