<?xml version="1.0" encoding="UTF-8" standalone="no"?>
<!DOCTYPE svg PUBLIC "-//W3C//DTD SVG 20010904//EN"
              "http://www.w3.org/TR/2001/REC-SVG-20010904/DTD/svg10.dtd">

<svg xmlns="http://www.w3.org/2000/svg"
     width="304.869mm" height="289.697mm"
     viewBox="0 0 864 821">
  <path id="7 - weak stream"
        fill="none" stroke="black" stroke-width="1"
        d="M 73.00,48.00
           C 73.00,48.00 98.00,48.00 98.00,48.00
             98.00,48.00 98.00,85.00 98.00,85.00
             98.00,85.00 136.00,85.00 136.00,85.00
             136.00,85.00 136.00,110.00 136.00,110.00
             136.00,110.00 98.00,110.00 98.00,110.00
             98.00,110.00 98.00,147.00 98.00,147.00
             98.00,147.00 73.00,147.00 73.00,147.00
             73.00,147.00 73.00,110.00 73.00,110.00
             73.00,110.00 35.00,110.00 35.00,110.00
             35.00,110.00 35.00,85.00 35.00,85.00
             35.00,85.00 73.00,85.00 73.00,85.00
             73.00,85.00 73.00,48.00 73.00,48.00 Z
           M 190.02,175.59
           C 197.34,174.81 198.00,178.81 197.84,185.00
             197.84,185.00 197.84,196.00 197.84,196.00
             196.92,201.56 194.94,201.25 197.12,211.00
             198.19,215.75 203.82,223.08 197.85,225.38
             192.61,227.41 187.49,219.82 185.36,216.00
             180.30,206.90 185.02,200.07 184.49,191.00
             184.12,184.76 183.29,178.38 190.02,175.59 Z
           M 389.00,206.00
           C 388.75,200.57 385.86,191.98 393.02,189.49
             395.61,188.80 397.66,190.13 401.00,189.49
             404.05,189.22 406.83,187.15 410.96,189.49
             410.96,189.49 417.17,193.79 417.17,193.79
             428.90,201.19 424.93,196.04 438.17,207.64
             441.66,210.70 445.05,212.35 447.07,217.00
             448.06,219.29 448.82,229.17 448.79,232.00
             448.73,240.37 452.80,238.14 453.63,243.05
             454.88,250.42 444.26,252.88 439.00,254.00
             447.74,266.39 431.67,274.62 421.00,269.00
             413.09,278.26 404.25,269.00 396.00,265.68
             387.94,262.43 384.42,265.22 381.60,262.40
             378.71,259.51 380.80,252.77 380.24,249.00
             379.11,241.56 374.35,241.89 375.06,233.00
             375.57,226.62 378.83,227.65 382.00,220.00
             376.44,218.54 371.87,213.58 377.31,208.77
             380.54,205.91 384.98,206.02 389.00,206.00 Z
           M 244.19,198.02
           C 250.28,195.91 261.26,200.64 263.38,207.00
             263.74,208.07 261.94,222.60 261.40,223.94
             259.50,228.67 253.72,227.66 252.31,233.02
             251.25,237.05 255.08,239.12 255.56,243.00
             255.80,244.90 254.93,247.21 254.32,249.00
             251.30,257.83 246.32,261.49 237.00,260.96
             222.69,260.14 224.89,241.03 225.00,231.00
             225.04,227.58 225.31,223.09 227.14,220.11
             230.70,214.27 235.36,217.90 238.84,212.85
             242.75,207.20 236.99,204.06 244.19,198.02 Z
           M 340.00,256.00
           C 346.84,258.11 348.80,264.18 344.57,270.00
             339.90,276.42 332.33,282.32 324.00,281.79
             315.42,281.24 305.82,274.44 303.50,266.00
             302.52,262.47 301.95,245.45 302.00,241.00
             302.04,237.65 302.31,232.97 303.98,230.02
             308.28,222.46 314.68,226.87 319.52,222.52
             323.07,219.32 317.75,213.46 321.60,209.60
             323.20,207.99 325.90,207.98 328.00,208.18
             338.34,209.15 342.40,215.36 346.22,224.00
             348.15,228.37 349.78,234.21 349.96,239.00
             350.43,251.29 345.10,244.70 340.00,256.00 Z
           M 374.00,332.43
           C 375.84,332.25 377.09,331.93 379.00,332.43
             385.81,333.74 399.14,344.55 402.03,351.00
             404.01,355.41 403.98,361.04 405.44,366.00
             407.73,373.82 410.69,384.03 403.78,390.66
             399.15,395.10 392.86,393.94 387.00,394.00
             387.00,394.00 373.00,394.96 373.00,394.96
             366.67,394.71 362.77,392.66 357.00,390.90
             354.35,390.09 351.42,390.02 349.09,388.40
             346.54,386.64 344.08,382.62 342.33,380.00
             340.82,377.73 338.54,374.53 337.70,372.00
             334.84,363.42 339.58,352.88 346.04,347.22
             346.04,347.22 353.00,342.51 353.00,342.51
             356.26,340.10 359.23,336.36 363.00,334.86
             363.00,334.86 374.00,332.43 374.00,332.43 Z
           M 508.00,336.02
           C 517.26,332.92 532.12,334.82 538.39,343.02
             543.31,349.44 545.34,356.14 542.78,364.00
             542.03,366.29 540.96,368.70 538.79,369.98
             532.85,373.48 528.40,367.02 523.00,366.14
             513.94,364.64 508.42,369.58 503.13,367.40
             499.19,365.78 498.14,360.80 498.02,357.00
             497.74,348.24 500.58,341.02 508.00,336.02 Z
           M 448.00,345.00
           C 448.59,343.20 449.13,340.93 450.56,339.76
             453.72,336.65 461.42,338.50 465.00,339.76
             478.32,345.23 485.32,348.88 491.78,362.00
             495.70,369.95 501.37,375.56 490.00,381.00
             491.46,385.55 495.10,394.40 493.40,398.98
             491.06,405.27 482.66,405.82 480.00,397.00
             475.29,401.07 473.40,403.49 467.00,404.00
             470.50,416.76 460.96,421.98 450.00,423.16
             446.26,423.57 441.45,425.07 438.60,421.69
             436.89,419.66 437.22,417.36 436.73,415.00
             436.73,415.00 434.41,408.00 434.41,408.00
             433.64,404.64 433.06,396.04 437.14,394.66
             442.84,392.72 443.82,400.32 444.00,404.00
             447.76,404.63 448.11,404.65 450.00,408.00
             455.83,403.14 456.60,403.03 464.00,403.00
             459.56,396.26 461.98,392.61 462.00,385.00
             457.98,387.15 450.30,391.70 446.00,391.85
             441.04,392.03 435.84,388.45 437.62,383.00
             438.48,380.36 441.11,377.96 443.00,376.00
             436.17,372.15 439.06,366.50 446.00,365.00
             446.00,365.00 436.47,355.87 436.47,355.87
             436.47,355.87 435.02,352.00 435.02,352.00
             431.69,340.97 441.11,342.42 448.00,345.00 Z
           M 596.00,361.21
           C 593.86,360.88 612.37,362.18 608.00,361.21
             609.07,361.61 609.83,361.91 610.69,362.60
             612.95,364.42 612.80,367.06 615.30,369.46
             617.35,371.41 619.79,371.52 620.68,375.06
             621.61,378.71 619.54,382.40 619.13,386.00
             618.57,390.89 618.72,399.00 613.73,401.97
             607.18,405.88 603.03,395.86 600.21,392.00
             595.55,385.62 592.61,386.33 589.42,382.78
             585.78,378.74 581.16,362.35 582.35,357.06
             583.72,350.98 594.50,352.03 596.00,361.21 Z
           M 549.00,422.99
           C 546.24,423.49 542.73,424.46 540.15,422.99
             537.34,421.36 537.40,418.80 536.05,416.28
             534.79,413.95 532.31,411.58 530.89,408.00
             530.89,408.00 529.04,401.00 529.04,401.00
             529.04,401.00 521.33,386.00 521.33,386.00
             519.39,376.34 530.20,377.41 536.00,377.05
             540.89,376.75 542.98,374.94 547.00,374.26
             547.00,374.26 556.00,373.70 556.00,373.70
             559.30,373.02 561.91,370.69 564.89,371.65
             570.48,373.47 567.34,379.73 570.40,383.91
             572.52,386.80 577.05,389.02 579.80,394.00
             582.65,400.18 579.54,403.62 579.80,409.00
             579.84,413.07 581.68,418.25 579.80,421.98
             577.70,427.94 572.95,426.41 570.21,427.60
             566.86,429.05 566.33,432.74 561.99,433.67
             556.47,434.85 551.05,427.27 549.00,422.99 Z
           M 374.00,400.52
           C 375.75,400.28 377.13,399.97 378.87,400.52
             380.84,401.33 386.67,407.18 387.69,409.05
             389.47,412.34 389.56,417.79 384.94,418.58
             382.88,418.94 380.08,417.78 378.00,417.37
             374.13,416.60 366.18,416.50 363.23,414.26
             357.25,409.73 361.35,403.68 367.00,401.70
             367.00,401.70 374.00,400.52 374.00,400.52 Z
           M 659.00,453.00
           C 661.01,453.15 662.04,453.13 664.00,453.90
             665.11,454.33 666.91,455.33 667.85,456.06
             677.29,463.31 662.86,470.32 661.24,476.01
             659.72,481.39 663.42,484.05 662.84,488.98
             662.23,494.12 653.62,498.67 649.00,499.81
             646.84,500.07 644.22,500.00 642.00,499.81
             632.87,500.01 629.52,500.51 621.00,496.24
             615.64,493.55 609.09,488.40 606.31,483.00
             604.91,480.27 605.02,477.96 605.00,475.00
             605.00,475.00 604.34,459.00 604.34,459.00
             605.29,452.74 615.79,438.34 621.09,435.09
             623.54,433.57 626.32,433.20 629.00,432.32
             633.41,430.87 636.43,427.73 639.94,428.37
             645.83,429.44 641.86,435.60 647.10,439.40
             649.85,441.40 652.72,440.67 654.87,441.60
             659.24,443.48 658.96,449.02 659.00,453.00 Z
           M 400.07,447.00
           C 396.64,446.45 394.16,445.80 393.33,441.98
             391.94,435.56 399.31,433.49 404.00,431.88
             412.04,429.11 415.99,435.64 421.00,437.41
             424.64,438.68 429.68,437.19 433.98,439.01
             436.90,440.24 439.32,442.58 438.34,446.00
             437.80,447.93 436.29,449.48 435.07,451.00
             433.80,452.57 431.33,456.03 429.74,456.98
             426.51,458.91 419.04,457.41 415.00,457.66
             410.99,457.92 403.66,458.71 400.07,456.69
             395.49,454.00 397.69,450.29 400.07,447.00 Z
           M 510.00,441.46
           C 517.48,440.80 524.69,442.90 532.00,443.82
             534.68,444.16 538.30,443.66 539.96,446.31
             541.97,449.52 539.33,454.26 536.79,456.35
             532.42,459.94 521.63,462.12 516.00,461.99
             512.41,461.90 509.02,461.55 506.43,458.72
             504.03,456.11 501.96,446.38 504.60,443.58
             505.99,442.12 508.14,441.86 510.00,441.46 Z
           M 481.31,478.02
           C 485.77,476.33 499.82,476.59 497.34,483.86
             495.28,489.91 473.07,487.04 481.31,478.02 Z
           M 569.00,518.00
           C 555.39,522.54 551.52,523.62 538.00,517.35
             534.12,515.56 532.27,512.81 530.42,511.98
             527.10,510.48 524.58,514.57 520.31,509.85
             516.54,505.68 518.72,500.40 518.30,497.00
             517.87,493.52 515.41,491.11 515.37,488.02
             515.29,482.49 522.93,482.20 527.00,482.04
             530.62,481.90 534.85,482.08 537.69,484.65
             540.58,487.27 540.34,494.66 549.00,494.68
             557.08,494.71 560.00,483.67 565.86,485.66
             568.47,486.54 569.18,489.56 568.67,492.00
             568.09,494.77 565.98,497.02 563.98,498.90
             555.44,506.93 547.06,505.99 537.00,502.00
             541.19,507.40 549.79,513.00 557.00,511.04
             561.54,509.82 571.34,500.75 574.20,496.91
             577.31,492.73 579.14,483.40 585.03,482.37
             590.48,481.42 591.73,486.98 590.07,491.00
             590.07,491.00 586.51,497.00 586.51,497.00
             583.17,502.77 582.51,505.90 576.00,509.00
             579.47,516.17 586.71,518.07 586.71,523.98
             586.71,527.25 584.16,529.21 581.00,528.35
             576.94,527.24 570.85,521.70 569.00,518.00 Z
           M 495.27,505.02
           C 499.32,503.53 505.97,503.88 504.36,510.00
             503.59,512.92 498.51,518.78 495.99,520.40
             491.17,523.49 486.37,520.67 487.65,516.00
             488.33,513.52 493.28,506.85 495.27,505.02 Z
           M 528.14,519.04
           C 533.24,517.63 535.14,519.90 534.54,525.00
             534.01,529.58 531.00,538.65 526.81,540.97
             523.41,542.87 518.65,541.13 519.47,536.00
             519.47,536.00 525.93,521.15 525.93,521.15
             527.19,519.31 527.15,519.88 528.14,519.04 Z
           M 555.31,525.04
           C 561.41,523.25 562.46,527.84 565.70,531.91
             566.89,533.41 569.22,535.65 569.99,537.17
             571.56,540.28 570.59,543.84 566.94,544.67
             559.57,546.34 547.95,532.83 555.31,525.04 Z
           M 540.31,527.04
           C 549.56,524.30 552.96,542.20 548.69,544.97
             541.01,549.95 537.75,532.80 538.35,530.06
             538.80,528.05 539.14,528.29 540.31,527.04 Z
           M 755.00,621.00
           C 755.00,621.00 780.00,621.00 780.00,621.00
             780.00,621.00 780.00,658.00 780.00,658.00
             780.00,658.00 818.00,658.00 818.00,658.00
             818.00,658.00 818.00,683.00 818.00,683.00
             818.00,683.00 780.00,683.00 780.00,683.00
             780.00,683.00 780.00,720.00 780.00,720.00
             780.00,720.00 755.00,720.00 755.00,720.00
             755.00,720.00 755.00,683.00 755.00,683.00
             755.00,683.00 717.00,683.00 717.00,683.00
             717.00,683.00 717.00,658.00 717.00,658.00
             717.00,658.00 755.00,658.00 755.00,658.00
             755.00,658.00 755.00,621.00 755.00,621.00 Z" />
</svg>
