<?xml version="1.0" encoding="UTF-8" standalone="no"?>
<!DOCTYPE svg PUBLIC "-//W3C//DTD SVG 20010904//EN"
              "http://www.w3.org/TR/2001/REC-SVG-20010904/DTD/svg10.dtd">

<svg xmlns="http://www.w3.org/2000/svg"
     width="304.869mm" height="289.697mm"
     viewBox="0 0 864 821">
  <path id="8 - burger"
        fill="none" stroke="black" stroke-width="1"
        d="M 73.00,48.00
           C 73.00,48.00 98.00,48.00 98.00,48.00
             98.00,48.00 98.00,85.00 98.00,85.00
             98.00,85.00 136.00,85.00 136.00,85.00
             136.00,85.00 136.00,110.00 136.00,110.00
             136.00,110.00 98.00,110.00 98.00,110.00
             98.00,110.00 98.00,147.00 98.00,147.00
             98.00,147.00 73.00,147.00 73.00,147.00
             73.00,147.00 73.00,110.00 73.00,110.00
             73.00,110.00 35.00,110.00 35.00,110.00
             35.00,110.00 35.00,85.00 35.00,85.00
             35.00,85.00 73.00,85.00 73.00,85.00
             73.00,85.00 73.00,48.00 73.00,48.00 Z
           M 197.28,186.85
           C 198.89,186.58 199.05,186.09 201.00,186.85
             204.90,187.77 211.56,194.81 211.75,199.00
             211.89,202.23 208.69,207.20 207.01,210.00
             205.28,212.87 202.19,217.71 198.14,216.34
             194.71,215.18 195.02,210.90 195.00,208.00
             194.94,201.02 191.91,192.13 197.28,186.85 Z
           M 410.00,208.57
           C 414.98,208.07 416.73,209.57 421.00,211.94
             427.83,215.74 433.15,220.18 435.37,228.00
             438.39,238.69 430.90,252.36 420.00,255.02
             411.02,257.22 400.71,253.30 396.14,245.00
             393.63,240.46 392.89,234.11 393.01,229.00
             393.07,226.51 393.22,224.35 394.15,222.00
             396.64,215.62 403.72,210.70 410.00,208.57 Z
           M 363.09,352.02
           C 370.90,349.31 383.94,350.30 389.58,357.10
             395.44,364.16 394.48,379.28 379.00,379.96
             376.37,380.08 373.51,379.97 371.00,379.15
             364.85,377.15 353.89,369.51 355.35,362.00
             356.12,358.05 360.00,354.31 363.09,352.02 Z
           M 517.31,354.02
           C 524.05,351.55 529.83,356.48 528.34,360.86
             526.28,366.93 510.45,361.52 517.31,354.02 Z
           M 465.15,362.02
           C 468.82,360.71 474.51,360.19 477.89,362.60
             481.14,364.91 483.83,371.22 479.69,373.98
             474.36,377.52 455.62,370.52 465.15,362.02 Z
           M 598.31,381.04
           C 605.76,378.82 606.06,386.91 601.86,388.34
             598.30,389.56 593.97,385.73 598.31,381.04 Z
           M 557.31,396.04
           C 562.13,394.62 565.67,397.91 564.34,401.86
             562.25,408.08 550.54,403.26 557.31,396.04 Z
           M 626.00,453.65
           C 635.73,451.64 647.81,455.23 653.26,464.00
             656.36,468.98 655.61,480.44 650.78,484.30
             647.33,487.05 642.20,487.09 638.00,486.99
             630.80,486.81 624.76,484.25 620.72,478.00
             617.84,473.55 616.66,462.59 619.74,458.10
             621.49,455.55 623.31,454.79 626.00,453.65 Z
           M 755.00,621.00
           C 755.00,621.00 780.00,621.00 780.00,621.00
             780.00,621.00 780.00,658.00 780.00,658.00
             780.00,658.00 818.00,658.00 818.00,658.00
             818.00,658.00 818.00,683.00 818.00,683.00
             818.00,683.00 780.00,683.00 780.00,683.00
             780.00,683.00 780.00,720.00 780.00,720.00
             780.00,720.00 755.00,720.00 755.00,720.00
             755.00,720.00 755.00,683.00 755.00,683.00
             755.00,683.00 717.00,683.00 717.00,683.00
             717.00,683.00 717.00,658.00 717.00,658.00
             717.00,658.00 755.00,658.00 755.00,658.00
             755.00,658.00 755.00,621.00 755.00,621.00 Z" />
</svg>
