<?xml version="1.0" encoding="UTF-8" standalone="no"?>
<!DOCTYPE svg PUBLIC "-//W3C//DTD SVG 20010904//EN"
              "http://www.w3.org/TR/2001/REC-SVG-20010904/DTD/svg10.dtd">

<svg xmlns="http://www.w3.org/2000/svg"
     width="304.869mm" height="289.697mm"
     viewBox="0 0 864 821">
  <path id="9 - some signs"
        fill="none" stroke="black" stroke-width="1"
        d="M 73.00,48.00
           C 73.00,48.00 98.00,48.00 98.00,48.00
             98.00,48.00 98.00,85.00 98.00,85.00
             98.00,85.00 136.00,85.00 136.00,85.00
             136.00,85.00 136.00,110.00 136.00,110.00
             136.00,110.00 98.00,110.00 98.00,110.00
             98.00,110.00 98.00,147.00 98.00,147.00
             98.00,147.00 73.00,147.00 73.00,147.00
             73.00,147.00 73.00,110.00 73.00,110.00
             73.00,110.00 35.00,110.00 35.00,110.00
             35.00,110.00 35.00,85.00 35.00,85.00
             35.00,85.00 73.00,85.00 73.00,85.00
             73.00,85.00 73.00,48.00 73.00,48.00 Z
           M 681.00,243.00
           C 681.00,243.00 809.00,243.00 809.00,243.00
             809.00,243.00 809.00,397.00 809.00,397.00
             809.00,397.00 681.00,397.00 681.00,397.00
             681.00,397.00 681.00,243.00 681.00,243.00 Z
           M 55.00,528.00
           C 55.00,528.00 206.00,528.00 206.00,528.00
             206.00,528.00 206.00,632.00 206.00,632.00
             206.00,632.00 55.00,632.00 55.00,632.00
             55.00,632.00 55.00,528.00 55.00,528.00 Z
           M 755.00,621.00
           C 755.00,621.00 780.00,621.00 780.00,621.00
             780.00,621.00 780.00,658.00 780.00,658.00
             780.00,658.00 818.00,658.00 818.00,658.00
             818.00,658.00 818.00,683.00 818.00,683.00
             818.00,683.00 780.00,683.00 780.00,683.00
             780.00,683.00 780.00,720.00 780.00,720.00
             780.00,720.00 755.00,720.00 755.00,720.00
             755.00,720.00 755.00,683.00 755.00,683.00
             755.00,683.00 717.00,683.00 717.00,683.00
             717.00,683.00 717.00,658.00 717.00,658.00
             717.00,658.00 755.00,658.00 755.00,658.00
             755.00,658.00 755.00,621.00 755.00,621.00 Z" />
</svg>
