<?xml version="1.0" encoding="UTF-8" standalone="no"?>
<!DOCTYPE svg PUBLIC "-//W3C//DTD SVG 20010904//EN"
              "http://www.w3.org/TR/2001/REC-SVG-20010904/DTD/svg10.dtd">

<svg xmlns="http://www.w3.org/2000/svg"
     width="6in" height="6in"
     viewBox="0 0 432 432">
  <path id="1 - green"
        fill="none" stroke="black" stroke-width="1"
        d="M 134.00,104.61
           C 146.95,102.16 154.62,106.87 162.22,117.00
             164.27,119.74 166.46,122.84 167.79,126.00
             169.37,129.75 168.32,132.00 172.40,142.00
             174.52,147.20 176.93,152.41 180.22,156.99
             181.32,158.52 183.01,160.90 185.05,161.12
             187.65,161.41 189.88,158.07 191.51,156.45
             195.96,152.03 200.57,149.53 206.00,146.63
             206.00,146.63 221.91,138.49 221.91,138.49
             221.91,138.49 231.00,132.97 231.00,132.97
             231.00,132.97 240.00,128.88 240.00,128.88
             240.00,128.88 251.00,122.71 251.00,122.71
             251.00,122.71 260.00,119.41 260.00,119.41
             265.47,117.12 272.00,112.73 278.00,112.13
             284.98,111.43 301.01,120.00 307.00,123.94
             323.41,134.73 335.64,150.13 345.24,167.00
             345.24,167.00 352.10,178.00 352.10,178.00
             355.59,185.70 355.99,192.77 356.00,201.00
             356.01,210.08 358.23,214.70 355.22,224.00
             354.13,227.37 351.75,231.24 350.03,234.42
             341.35,250.44 340.34,248.40 326.00,258.02
             316.62,264.32 303.83,271.42 293.00,274.68
             293.00,274.68 277.00,277.46 277.00,277.46
             277.00,277.46 268.00,279.68 268.00,279.68
             253.93,282.15 248.10,282.17 234.00,282.00
             221.56,281.85 215.51,277.66 205.00,272.59
             200.12,270.24 194.44,267.88 190.04,264.68
             181.10,258.18 172.07,245.74 164.71,237.32
             159.80,231.72 156.13,231.30 148.44,219.91
             148.44,219.91 136.55,199.04 136.55,199.04
             136.55,199.04 129.13,189.00 129.13,189.00
             124.72,181.39 117.11,158.70 117.00,150.00
             116.94,144.61 116.52,128.26 117.80,124.00
             118.66,121.13 120.28,118.61 121.69,116.00
             125.65,108.66 125.69,107.33 134.00,104.61 Z" />
</svg>
