<?xml version="1.0" encoding="UTF-8" standalone="no"?>
<!DOCTYPE svg PUBLIC "-//W3C//DTD SVG 20010904//EN"
              "http://www.w3.org/TR/2001/REC-SVG-20010904/DTD/svg10.dtd">

<svg xmlns="http://www.w3.org/2000/svg"
     width="6in" height="6in"
     viewBox="0 0 432 432">
  <path id="2 - black"
        fill="none" stroke="black" stroke-width="1"
        d="M 138.00,344.00
           C 142.93,353.13 145.77,354.63 152.71,361.82
             154.53,363.72 158.28,366.21 158.27,369.04
             158.27,371.91 155.37,373.04 153.00,373.50
             149.49,374.20 140.44,372.78 137.00,371.56
             119.32,365.32 107.79,353.73 100.00,337.00
             91.90,319.61 88.26,300.87 85.71,282.00
             84.64,274.02 83.01,268.39 83.00,260.00
             83.00,260.00 83.00,213.00 83.00,213.00
             83.00,213.00 84.93,190.00 84.93,190.00
             84.93,190.00 78.51,168.00 78.51,168.00
             74.49,150.00 73.24,131.07 77.35,113.00
             79.31,104.39 82.67,94.53 89.13,88.18
             96.78,80.65 116.70,71.27 127.00,67.53
             135.29,64.52 150.36,60.10 159.00,60.00
             181.05,59.75 190.77,57.89 211.00,69.10
             222.14,75.27 239.90,92.07 250.00,96.00
             249.87,97.60 249.94,99.10 248.98,100.51
             247.11,103.22 237.42,106.06 234.00,107.32
             234.00,107.32 221.00,112.79 221.00,112.79
             209.12,117.26 201.33,118.25 190.00,125.05
             186.38,127.22 173.59,135.98 170.21,135.57
             167.92,135.29 165.68,132.08 164.20,130.42
             155.78,121.02 157.02,115.18 150.81,110.48
             148.46,108.70 145.90,107.74 143.00,107.30
             133.25,105.83 129.85,111.57 125.15,118.72
             123.29,121.55 121.64,123.64 120.63,127.00
             119.04,132.30 118.94,140.42 119.00,146.00
             119.14,157.56 123.88,176.09 129.95,185.91
             129.95,185.91 139.45,197.46 139.45,197.46
             141.50,200.57 142.67,206.67 148.46,213.10
             151.27,216.22 156.33,220.01 159.72,222.65
             179.59,238.16 200.12,247.76 224.00,255.41
             224.00,255.41 268.00,265.70 268.00,265.70
             268.00,265.70 277.00,266.58 277.00,266.58
             280.29,267.03 292.51,267.16 292.97,271.14
             293.30,273.99 290.08,276.23 287.98,277.49
             282.64,280.69 276.91,281.81 271.00,283.42
             254.29,287.99 234.32,289.20 217.00,289.00
             217.00,289.00 195.00,288.00 195.00,288.00
             195.00,288.00 225.00,305.12 225.00,305.12
             225.00,305.12 274.00,330.30 274.00,330.30
             274.00,330.30 292.94,340.13 292.94,340.13
             294.99,341.57 297.37,343.93 296.34,346.70
             295.43,349.19 289.42,350.62 287.00,351.24
             277.81,353.60 268.40,354.23 259.00,355.17
             259.00,355.17 236.00,357.00 236.00,357.00
             212.21,357.04 183.08,356.96 160.00,351.50
             152.46,349.71 145.12,347.02 138.00,344.00 Z
           M 232.00,167.00
           C 232.30,153.35 240.34,137.12 255.00,134.65
             258.90,133.77 260.36,134.49 264.00,134.65
             264.00,134.65 273.00,135.41 273.00,135.41
             279.30,136.94 291.21,143.52 291.40,150.98
             291.50,155.15 287.95,156.54 284.42,155.27
             275.69,152.13 268.78,140.92 254.02,149.75
             251.37,151.33 249.99,152.36 248.36,155.04
             244.51,161.39 242.00,172.64 243.51,180.00
             244.55,185.06 248.59,195.37 245.40,199.87
             243.28,202.86 239.44,203.67 236.01,206.39
             233.55,208.35 230.07,212.95 227.92,213.87
             225.24,215.01 223.02,213.58 222.32,210.89
             220.00,202.00 232.37,198.12 233.60,194.74
             234.20,193.11 233.46,191.53 233.00,190.00
             229.86,192.37 220.69,200.29 217.15,199.16
             212.77,197.75 214.26,192.71 216.31,190.00
             220.65,184.29 225.41,181.99 232.00,180.00
             232.00,180.00 230.00,176.00 230.00,176.00
             230.00,176.00 215.00,183.22 215.00,183.22
             212.75,183.83 210.46,183.27 209.66,180.85
             208.68,177.94 211.03,175.06 213.06,173.27
             217.96,168.94 225.64,167.29 232.00,167.00 Z
           M 327.31,173.04
           C 334.23,170.93 333.51,178.29 331.43,179.81
             328.39,182.03 322.45,178.30 327.31,173.04 Z
           M 299.00,212.00
           C 305.21,213.02 306.33,217.53 316.00,221.13
             319.77,222.53 327.05,224.62 331.00,224.91
             334.30,225.15 341.10,224.45 343.69,226.17
             346.06,227.77 347.65,232.66 340.00,232.98
             333.87,233.24 332.60,232.51 327.00,231.46
             316.03,229.40 300.04,225.40 299.00,212.00 Z
           M 193.00,286.00
           C 193.00,286.00 192.00,286.00 192.00,286.00
             192.00,286.00 193.00,287.00 193.00,287.00
             193.00,287.00 193.00,286.00 193.00,286.00 Z
           M 136.00,342.00
           C 136.00,342.00 135.00,342.00 135.00,342.00
             135.00,342.00 136.00,343.00 136.00,343.00
             136.00,343.00 136.00,342.00 136.00,342.00 Z" />
</svg>
