<?xml version="1.0" encoding="UTF-8" standalone="no"?>
<!DOCTYPE svg PUBLIC "-//W3C//DTD SVG 20010904//EN"
              "http://www.w3.org/TR/2001/REC-SVG-20010904/DTD/svg10.dtd">

<svg xmlns="http://www.w3.org/2000/svg"
     width="6in" height="6in"
     viewBox="0 0 432 432">
  <path id="3 - red"
        fill="none" stroke="black" stroke-width="1"
        d="M 162.00,59.42
           C 179.83,57.25 198.65,60.45 214.00,70.06
             214.00,70.06 232.58,84.29 232.58,84.29
             232.58,84.29 246.94,94.70 246.94,94.70
             249.04,96.17 251.38,97.82 250.34,100.80
             249.90,102.08 248.96,102.87 247.85,103.56
             247.85,103.56 232.00,110.23 232.00,110.23
             218.11,114.95 209.85,115.61 196.00,122.52
             191.20,124.91 186.38,127.47 182.01,130.59
             179.71,132.23 175.15,136.31 172.98,137.13
             167.96,139.04 164.66,132.32 161.89,128.83
             156.74,122.36 155.80,115.98 152.45,112.22
             145.75,104.74 134.32,106.93 128.53,114.04
             126.80,116.16 121.52,124.54 120.70,127.00
             119.98,129.13 120.10,130.87 119.80,133.00
             119.80,133.00 118.80,139.00 118.80,139.00
             117.99,153.68 123.14,171.92 129.69,184.96
             132.45,190.45 138.96,195.61 140.30,199.17
             141.25,201.70 140.82,205.05 141.37,208.00
             141.37,208.00 146.74,230.00 146.74,230.00
             149.78,242.47 155.49,260.63 161.17,272.00
             161.17,272.00 168.33,284.00 168.33,284.00
             168.33,284.00 179.44,304.00 179.44,304.00
             179.44,304.00 191.34,319.04 191.34,319.04
             194.06,324.14 190.70,327.20 186.99,326.16
             182.79,324.97 178.23,317.46 174.68,314.12
             174.68,314.12 141.71,281.00 141.71,281.00
             115.03,254.31 98.38,226.22 85.47,191.00
             80.89,178.50 75.02,158.17 75.00,145.00
             75.00,145.00 75.00,126.00 75.00,126.00
             75.13,115.29 80.32,98.14 87.30,90.00
             92.86,83.54 102.35,78.44 110.00,74.78
             123.40,68.35 137.32,63.06 152.00,60.46
             152.00,60.46 162.00,59.42 162.00,59.42 Z" />
</svg>
