<?xml version="1.0" encoding="UTF-8" standalone="no"?>
<!DOCTYPE svg PUBLIC "-//W3C//DTD SVG 20010904//EN"
              "http://www.w3.org/TR/2001/REC-SVG-20010904/DTD/svg10.dtd">

<svg xmlns="http://www.w3.org/2000/svg"
     width="6in" height="6in"
     viewBox="0 0 432 432">
  <path id="4 - white"
        fill="none" stroke="black" stroke-width="1"
        d="M 248.00,100.52
           C 255.41,99.34 267.28,101.26 274.00,104.49
             276.59,105.74 282.00,108.82 279.95,112.45
             279.01,114.12 275.69,115.55 274.00,116.42
             274.00,116.42 257.00,124.43 257.00,124.43
             257.00,124.43 240.00,132.42 240.00,132.42
             240.00,132.42 225.00,141.67 225.00,141.67
             225.00,141.67 204.00,152.69 204.00,152.69
             196.73,156.60 190.46,163.85 186.01,164.48
             182.49,164.97 180.50,162.72 178.80,160.00
             177.02,157.14 168.73,143.18 168.31,140.92
             167.86,138.42 168.51,136.53 170.31,134.78
             170.31,134.78 177.91,129.80 177.91,129.80
             188.01,123.40 196.54,118.64 208.00,114.88
             208.00,114.88 219.00,111.47 219.00,111.47
             219.00,111.47 248.00,100.52 248.00,100.52 Z
           M 192.00,318.51
           C 203.74,316.68 217.51,321.98 224.24,332.00
             233.93,346.43 223.87,361.56 208.00,364.53
             198.16,366.38 182.76,362.12 176.62,353.91
             169.97,345.02 172.75,329.63 181.21,322.80
             184.18,320.40 188.36,319.44 192.00,318.51 Z" />
</svg>
