<?xml version="1.0" encoding="UTF-8" standalone="no"?>
<!DOCTYPE svg PUBLIC "-//W3C//DTD SVG 20010904//EN"
              "http://www.w3.org/TR/2001/REC-SVG-20010904/DTD/svg10.dtd">

<svg xmlns="http://www.w3.org/2000/svg"
     width="5.8in" height="5.8in"
     viewBox="0 0 1740 1740">
  <path id="final layer"
        fill="none" stroke="black" stroke-width="1"
        d="M 801.00,122.00
           C 805.67,113.31 822.86,98.38 831.00,91.80
             845.84,79.83 872.42,63.10 892.00,63.00
             892.00,63.00 907.00,63.00 907.00,63.00
             916.94,63.17 937.69,73.10 947.00,77.75
             983.59,96.05 1012.55,119.98 1035.66,154.00
             1079.15,218.03 1085.41,301.89 1064.57,375.00
             1060.80,388.25 1054.73,404.62 1048.74,417.00
             1040.32,434.40 1032.26,443.60 1031.21,464.00
             1030.78,472.24 1034.53,488.79 1036.86,497.00
             1044.21,522.95 1058.96,549.61 1072.28,573.00
             1072.28,573.00 1089.00,602.00 1089.00,602.00
             1089.00,602.00 1051.00,583.31 1051.00,583.31
             1026.89,572.24 1001.74,563.33 976.00,556.89
             954.00,551.39 931.61,547.49 909.00,545.91
             909.00,545.91 899.00,545.00 899.00,545.00
             899.00,545.00 880.00,544.00 880.00,544.00
             880.00,544.00 865.00,544.00 865.00,544.00
             865.00,544.00 851.00,545.00 851.00,545.00
             837.35,545.16 819.54,547.16 806.00,549.43
             806.00,549.43 776.00,555.00 776.00,555.00
             776.00,555.00 768.26,539.00 768.26,539.00
             768.26,539.00 760.05,519.00 760.05,519.00
             750.40,492.68 744.83,465.93 742.91,438.00
             742.91,438.00 742.00,423.00 742.00,423.00
             742.22,404.82 748.01,381.86 760.18,368.00
             778.53,347.13 804.36,337.01 829.00,325.69
             829.00,325.69 848.00,316.69 848.00,316.69
             875.34,304.14 903.79,284.23 925.00,263.00
             935.75,252.23 952.23,233.32 957.30,219.00
             959.12,213.85 959.52,210.31 960.15,205.00
             960.57,201.53 961.12,199.67 960.91,196.00
             958.89,160.44 934.62,123.27 904.00,105.72
             892.82,99.31 880.09,94.16 867.00,94.00
             848.69,93.79 836.61,96.61 821.00,106.70
             821.00,106.70 801.00,122.00 801.00,122.00 Z
           M 267.00,380.00
           C 262.61,376.64 261.01,364.51 260.08,359.00
             256.44,337.34 260.41,310.03 271.60,291.00
             283.57,270.67 300.38,252.57 322.00,242.32
             336.69,235.36 353.03,233.54 369.00,231.84
             369.00,231.84 412.00,229.00 412.00,229.00
             412.00,229.00 427.00,228.00 427.00,228.00
             427.00,228.00 442.00,229.00 442.00,229.00
             488.87,229.54 541.08,243.76 573.91,279.00
             595.35,302.01 609.18,333.82 617.12,364.00
             623.08,386.69 627.70,409.87 631.59,433.00
             634.00,447.40 637.34,469.03 645.36,481.00
             663.06,507.45 701.90,526.95 731.00,538.60
             731.00,538.60 757.00,548.95 757.00,548.95
             762.30,550.89 768.70,552.29 773.00,556.00
             773.00,556.00 752.00,562.02 752.00,562.02
             752.00,562.02 714.00,576.01 714.00,576.01
             679.57,590.33 642.70,613.25 615.00,638.17
             595.88,655.37 578.39,674.23 563.15,695.00
             563.15,695.00 550.81,713.00 550.81,713.00
             549.46,715.17 547.40,719.51 544.79,720.19
             541.87,720.96 528.35,715.03 525.00,713.58
             506.15,705.38 488.62,694.42 472.00,682.42
             452.83,668.58 431.10,648.80 418.10,629.00
             411.18,618.47 402.41,598.18 398.33,586.00
             393.81,572.48 390.17,558.35 390.00,544.00
             389.49,500.39 415.18,463.95 422.13,414.00
             422.13,414.00 424.00,396.00 424.00,396.00
             424.32,368.21 427.04,339.96 406.42,318.17
             375.35,285.35 317.43,284.60 287.18,319.00
             272.93,335.21 267.19,358.84 267.00,380.00 Z
           M 1403.00,339.00
           C 1433.07,339.00 1468.74,348.21 1496.00,360.69
             1507.71,366.06 1519.57,372.05 1529.00,381.04
             1542.68,394.08 1547.46,410.85 1554.20,428.00
             1573.08,476.04 1580.34,537.00 1554.82,584.00
             1527.98,633.43 1479.49,657.75 1427.00,670.87
             1410.25,675.06 1394.22,677.83 1377.00,679.09
             1377.00,679.09 1367.00,680.00 1367.00,680.00
             1361.56,680.06 1346.56,680.72 1342.00,682.47
             1324.39,689.23 1311.77,711.92 1303.75,728.00
             1294.47,746.60 1284.24,774.01 1278.02,794.00
             1278.02,794.00 1265.00,835.00 1265.00,835.00
             1262.75,831.32 1259.95,820.84 1258.33,816.00
             1258.33,816.00 1245.14,781.00 1245.14,781.00
             1228.85,744.12 1203.14,701.85 1174.99,673.00
             1155.58,653.11 1139.79,637.87 1117.00,621.58
             1117.00,621.58 1100.00,610.05 1100.00,610.05
             1097.59,608.51 1094.00,606.89 1093.38,603.82
             1092.80,600.89 1096.69,586.60 1097.71,583.00
             1102.99,564.43 1110.99,547.13 1119.76,530.00
             1127.30,515.25 1140.75,495.66 1151.44,483.00
             1159.27,473.72 1173.87,459.71 1184.00,453.00
             1192.32,447.49 1199.40,443.57 1209.00,440.72
             1243.81,430.39 1277.81,448.23 1309.00,461.57
             1340.95,475.24 1382.02,489.82 1417.00,490.00
             1417.00,490.00 1430.00,490.99 1430.00,490.99
             1437.05,491.15 1452.40,489.71 1459.00,487.48
             1483.71,479.13 1495.28,452.39 1495.00,428.00
             1494.75,406.99 1483.10,382.47 1467.96,368.17
             1458.86,359.57 1447.48,352.79 1436.00,347.87
             1436.00,347.87 1403.00,339.00 1403.00,339.00 Z
           M 39.00,917.00
           C 28.20,908.06 17.32,886.08 11.72,873.00
             5.70,858.94 0.02,837.29 0.00,822.00
             0.00,822.00 0.00,804.00 0.00,804.00
             0.03,782.49 13.55,761.87 25.85,745.00
             56.76,702.61 94.14,677.61 147.00,673.91
             147.00,673.91 158.00,673.00 158.00,673.00
             158.00,673.00 162.00,673.00 162.00,673.00
             162.00,673.00 172.00,673.91 172.00,673.91
             218.51,677.16 261.59,697.41 299.00,724.42
             311.29,733.30 322.77,743.01 334.00,753.17
             341.94,760.35 345.74,766.43 356.00,771.10
             367.31,776.26 378.91,776.14 391.00,776.00
             406.99,775.81 425.59,771.32 441.00,767.15
             441.00,767.15 507.00,746.31 507.00,746.31
             507.00,746.31 537.00,735.00 537.00,735.00
             535.16,741.44 529.39,751.52 526.26,758.00
             526.26,758.00 515.42,784.00 515.42,784.00
             503.29,816.17 495.42,850.70 492.91,885.00
             492.91,885.00 492.00,897.00 492.00,897.00
             491.96,923.73 491.67,945.29 496.08,972.00
             496.08,972.00 499.81,992.00 499.81,992.00
             500.30,994.88 501.63,998.91 499.81,1001.62
             498.72,1003.68 494.16,1006.12 492.00,1007.40
             485.28,1011.38 478.18,1014.78 471.00,1017.85
             449.86,1026.90 415.98,1034.96 393.00,1035.00
             393.00,1035.00 372.00,1035.00 372.00,1035.00
             362.94,1034.96 348.97,1032.59 340.00,1030.58
             287.73,1018.86 268.42,964.72 247.74,922.00
             235.16,896.00 221.65,870.23 204.37,847.00
             193.01,831.73 171.00,805.28 154.00,797.32
             141.33,791.39 129.65,790.84 116.00,791.00
             81.37,791.41 37.09,816.57 25.09,850.00
             21.97,858.69 21.90,864.00 22.00,873.00
             22.24,893.38 34.96,906.43 39.00,917.00 Z
           M 1222.00,1115.00
           C 1223.27,1108.77 1226.62,1105.25 1229.95,1100.00
             1229.95,1100.00 1242.03,1079.00 1242.03,1079.00
             1253.64,1055.78 1262.94,1031.38 1268.58,1006.00
             1275.41,975.21 1277.05,952.33 1277.00,921.00
             1277.00,921.00 1276.09,909.00 1276.09,909.00
             1276.09,909.00 1272.87,877.00 1272.87,877.00
             1272.29,872.88 1269.51,861.20 1270.61,858.00
             1271.84,854.46 1276.17,851.28 1279.00,848.92
             1287.34,841.96 1293.69,837.38 1303.00,831.80
             1329.26,816.08 1371.22,802.05 1402.00,802.00
             1402.00,802.00 1426.00,802.00 1426.00,802.00
             1451.93,802.04 1482.23,810.00 1499.82,830.00
             1512.73,844.69 1520.85,872.49 1528.06,891.00
             1536.52,912.70 1547.70,933.11 1561.29,952.00
             1566.38,959.06 1572.05,965.52 1577.84,972.00
             1593.14,989.14 1603.38,999.73 1627.00,1003.00
             1631.12,1003.57 1633.74,1004.13 1638.00,1003.96
             1676.91,1002.45 1718.53,971.32 1719.00,930.00
             1719.15,916.58 1715.41,903.85 1709.22,892.00
             1706.08,886.00 1701.08,880.28 1699.00,874.00
             1706.01,879.78 1718.15,897.74 1722.99,906.00
             1730.04,918.05 1739.83,939.00 1740.00,953.00
             1740.00,953.00 1740.00,970.00 1740.00,970.00
             1739.98,983.85 1734.92,991.46 1728.00,1003.00
             1720.48,1015.53 1712.44,1027.74 1703.08,1039.00
             1668.75,1080.28 1624.43,1109.23 1571.00,1118.08
             1571.00,1118.08 1545.00,1121.00 1545.00,1121.00
             1545.00,1121.00 1526.00,1121.00 1526.00,1121.00
             1498.64,1120.96 1461.42,1110.96 1437.00,1098.75
             1430.38,1095.44 1417.90,1088.66 1412.00,1084.57
             1397.01,1074.17 1386.43,1063.23 1367.00,1063.00
             1367.00,1063.00 1358.00,1063.00 1358.00,1063.00
             1342.52,1063.02 1327.41,1068.16 1313.00,1073.31
             1288.17,1082.17 1264.73,1094.38 1241.00,1105.78
             1241.00,1105.78 1222.00,1115.00 1222.00,1115.00 Z
           M 510.00,1034.00
           C 513.05,1038.26 516.94,1050.40 519.20,1056.00
             519.20,1056.00 537.31,1095.00 537.31,1095.00
             559.24,1135.56 582.32,1163.70 615.00,1196.00
             625.37,1206.24 641.16,1219.16 653.00,1227.85
             657.86,1231.41 666.78,1234.88 665.94,1242.00
             664.99,1250.11 658.93,1267.04 655.80,1275.00
             643.25,1306.96 619.75,1340.47 593.00,1362.00
             577.68,1374.33 562.27,1384.48 542.00,1385.26
             518.99,1386.13 501.27,1375.91 482.00,1364.85
             451.14,1347.14 426.76,1328.37 392.00,1316.67
             375.56,1311.14 349.22,1305.03 332.00,1305.00
             332.00,1305.00 320.00,1305.00 320.00,1305.00
             301.68,1305.03 283.99,1313.99 272.32,1328.00
             268.64,1332.42 265.14,1338.70 262.87,1344.00
             260.05,1350.60 257.76,1360.83 258.04,1368.00
             259.62,1408.66 301.96,1433.30 339.00,1435.00
             336.67,1438.48 334.04,1438.23 330.00,1438.72
             330.00,1438.72 315.00,1439.82 315.00,1439.82
             315.00,1439.82 308.00,1439.09 308.00,1439.09
             308.00,1439.09 292.00,1437.54 292.00,1437.54
             267.60,1432.97 241.93,1420.12 224.00,1402.96
             217.18,1396.43 210.36,1388.63 206.32,1380.00
             202.49,1371.81 200.38,1359.00 198.35,1350.00
             189.25,1309.75 191.95,1264.50 207.20,1226.00
             230.33,1167.62 282.57,1122.99 344.00,1109.42
             364.63,1104.87 381.90,1102.97 403.00,1103.00
             403.00,1103.00 451.00,1107.91 451.00,1107.91
             455.41,1107.61 462.05,1105.60 466.00,1103.63
             489.29,1091.98 501.90,1057.36 510.00,1034.00 Z
           M 1217.00,1120.00
           C 1225.17,1121.53 1234.81,1127.45 1242.00,1131.57
             1254.03,1138.47 1265.99,1145.51 1277.00,1154.01
             1293.44,1166.70 1306.19,1177.22 1318.87,1194.00
             1324.35,1201.25 1329.50,1209.59 1332.99,1218.00
             1344.00,1244.56 1339.29,1271.09 1329.42,1297.00
             1319.88,1322.08 1303.61,1347.73 1290.01,1371.00
             1290.01,1371.00 1272.74,1403.00 1272.74,1403.00
             1272.74,1403.00 1264.72,1419.00 1264.72,1419.00
             1258.52,1433.38 1248.87,1457.52 1248.85,1473.00
             1248.84,1478.61 1248.98,1483.61 1250.75,1489.00
             1256.73,1507.24 1276.17,1519.76 1294.00,1524.37
             1302.39,1526.54 1308.22,1527.99 1317.00,1528.00
             1317.00,1528.00 1324.00,1528.00 1324.00,1528.00
             1346.03,1527.97 1370.81,1517.57 1387.00,1502.83
             1399.22,1491.70 1407.68,1475.76 1412.14,1460.00
             1413.84,1454.01 1415.47,1438.91 1418.00,1435.00
             1418.00,1435.00 1417.00,1461.00 1417.00,1461.00
             1417.00,1461.00 1415.16,1480.00 1415.16,1480.00
             1412.39,1505.93 1405.77,1533.14 1389.33,1554.00
             1372.63,1575.20 1352.49,1582.67 1328.00,1591.00
             1271.85,1610.11 1213.13,1609.19 1164.00,1572.85
             1118.09,1538.89 1092.37,1478.43 1085.28,1423.00
             1082.94,1404.68 1083.03,1386.44 1083.00,1368.00
             1082.94,1332.64 1040.08,1313.93 1012.00,1303.42
             1012.00,1303.42 993.00,1297.14 993.00,1297.14
             989.07,1296.01 984.56,1295.35 982.00,1292.00
             997.68,1289.59 1029.84,1276.61 1045.00,1269.86
             1094.38,1247.88 1139.04,1215.14 1175.17,1175.00
             1189.05,1159.58 1206.89,1138.01 1217.00,1120.00 Z
           M 704.00,1261.00
           C 709.59,1262.12 724.37,1269.86 731.00,1272.72
             747.25,1279.73 763.94,1285.83 781.00,1290.58
             830.71,1304.40 882.89,1308.25 934.00,1301.72
             934.00,1301.72 966.00,1296.00 966.00,1296.00
             988.02,1335.74 994.52,1397.38 982.00,1441.00
             974.76,1466.23 964.02,1486.49 940.00,1499.69
             917.29,1512.17 892.06,1518.76 868.00,1528.06
             843.12,1537.68 818.97,1549.86 797.00,1565.02
             780.02,1576.74 760.32,1590.42 754.04,1611.00
             751.61,1618.95 751.91,1624.86 752.00,1633.00
             752.14,1644.60 756.73,1657.13 762.60,1667.00
             778.05,1692.96 804.39,1710.29 835.00,1710.99
             847.36,1711.27 863.74,1707.39 875.00,1702.34
             875.00,1702.34 896.00,1692.00 896.00,1692.00
             894.48,1700.00 887.53,1709.19 881.96,1715.00
             866.55,1731.06 843.12,1739.97 821.00,1740.00
             821.00,1740.00 800.00,1740.00 800.00,1740.00
             782.16,1739.79 752.96,1732.17 737.00,1724.19
             712.85,1712.12 681.50,1684.55 665.48,1663.00
             655.89,1650.12 650.18,1639.30 643.26,1625.00
             638.89,1615.98 636.06,1605.72 633.63,1596.00
             618.19,1534.26 634.61,1471.67 666.60,1418.00
             673.82,1405.89 684.11,1391.69 693.28,1381.00
             700.47,1372.62 709.06,1365.19 713.69,1355.00
             718.79,1343.78 719.14,1334.98 719.00,1323.00
             718.88,1312.82 713.84,1290.96 710.66,1281.00
             710.66,1281.00 704.00,1261.00 704.00,1261.00 Z" />
</svg>
