<?xml version="1.0" encoding="UTF-8" standalone="no"?>
<!DOCTYPE svg PUBLIC "-//W3C//DTD SVG 20010904//EN"
              "http://www.w3.org/TR/2001/REC-SVG-20010904/DTD/svg10.dtd">

<svg xmlns="http://www.w3.org/2000/svg"
     width="5.8in" height="5.8in"
     viewBox="0 0 1740 1740">
  <path id="first layer"
        fill="none" stroke="black" stroke-width="1"
        d="M 861.00,673.42
           C 877.68,671.39 911.89,675.49 929.00,678.58
             974.13,686.73 1019.34,706.52 1055.00,735.46
             1099.71,771.73 1132.11,826.50 1143.20,883.00
             1143.20,883.00 1147.00,909.00 1147.00,909.00
             1147.00,909.00 1147.00,917.00 1147.00,917.00
             1147.00,917.00 1148.00,927.00 1148.00,927.00
             1148.32,954.89 1143.47,985.37 1132.14,1011.00
             1126.00,1024.89 1117.74,1037.22 1109.68,1050.00
             1079.24,1098.28 1036.26,1135.69 983.00,1156.80
             959.58,1166.08 925.19,1174.96 900.00,1175.00
             900.00,1175.00 867.00,1175.00 867.00,1175.00
             841.69,1174.70 805.26,1164.84 782.00,1154.85
             711.47,1124.56 653.76,1062.97 631.72,989.00
             621.97,956.29 620.61,934.68 621.00,901.00
             621.16,887.53 625.40,864.22 628.88,851.00
             635.07,827.54 645.61,803.59 658.42,783.00
             688.37,734.90 737.76,699.90 792.00,684.43
             806.33,680.34 824.19,676.75 839.00,675.16
             839.00,675.16 861.00,673.42 861.00,673.42 Z" />
</svg>
