<?xml version="1.0" encoding="UTF-8" standalone="no"?>
<!DOCTYPE svg PUBLIC "-//W3C//DTD SVG 20010904//EN"
              "http://www.w3.org/TR/2001/REC-SVG-20010904/DTD/svg10.dtd">

<svg xmlns="http://www.w3.org/2000/svg"
     width="5.8in" height="5.8in"
     viewBox="0 0 1740 1740">
  <path id="second layer"
        fill="none" stroke="black" stroke-width="1"
        d="M 860.00,543.42
           C 872.89,541.85 886.08,543.85 899.00,544.00
             899.00,544.00 909.00,544.91 909.00,544.91
             929.61,546.42 949.86,549.73 970.00,554.35
             1007.74,563.01 1042.96,576.24 1077.00,594.69
             1077.00,594.69 1091.83,602.26 1091.83,602.26
             1091.83,602.26 1098.04,606.77 1098.04,606.77
             1118.30,620.11 1137.16,633.47 1155.00,650.09
             1200.30,692.29 1235.11,745.65 1255.69,804.00
             1267.03,836.14 1269.46,845.44 1274.13,879.00
             1274.13,879.00 1277.00,906.00 1277.00,906.00
             1277.00,906.00 1278.00,923.00 1278.00,923.00
             1278.00,923.00 1278.00,938.00 1278.00,938.00
             1278.00,938.00 1276.96,950.00 1276.96,950.00
             1276.96,950.00 1276.96,960.00 1276.96,960.00
             1274.51,984.34 1270.25,1008.61 1262.98,1032.00
             1253.54,1062.33 1241.87,1083.23 1225.43,1110.00
             1225.43,1110.00 1220.05,1119.72 1220.05,1119.72
             1203.98,1144.25 1185.49,1168.02 1164.99,1189.00
             1164.99,1189.00 1153.00,1200.09 1153.00,1200.09
             1112.81,1237.35 1068.59,1264.33 1017.00,1282.69
             1017.00,1282.69 971.00,1297.11 971.00,1297.11
             971.00,1297.11 959.99,1298.41 959.99,1298.41
             945.89,1300.97 921.89,1304.93 908.00,1305.00
             908.00,1305.00 881.00,1306.00 881.00,1306.00
             881.00,1306.00 860.00,1305.00 860.00,1305.00
             860.00,1305.00 826.00,1301.27 826.00,1301.27
             793.19,1296.44 761.45,1287.43 731.00,1274.28
             731.00,1274.28 700.00,1260.33 700.00,1260.33
             672.17,1246.31 634.53,1217.51 612.00,1195.96
             566.03,1152.00 533.56,1100.63 511.99,1041.00
             511.99,1041.00 504.43,1020.00 504.43,1020.00
             504.43,1020.00 500.46,1004.00 500.46,1004.00
             500.46,1004.00 499.38,996.00 499.38,996.00
             488.42,942.30 487.57,886.68 499.38,833.00
             506.92,799.07 518.97,769.01 534.34,738.00
             534.34,738.00 538.87,728.00 538.87,728.00
             538.87,728.00 556.98,701.00 556.98,701.00
             596.09,644.25 651.41,600.44 715.00,574.01
             732.02,566.94 749.28,561.59 766.99,556.61
             766.99,556.61 773.28,554.43 773.28,554.43
             773.28,554.43 780.00,553.34 780.00,553.34
             798.97,549.47 817.68,546.32 837.00,544.91
             837.00,544.91 849.00,544.00 849.00,544.00
             853.57,543.99 855.36,544.08 860.00,543.42 Z
           M 863.00,674.28
           C 863.00,674.28 840.00,676.16 840.00,676.16
             825.19,677.75 807.33,681.34 793.00,685.43
             738.76,700.90 689.37,735.90 659.42,784.00
             646.61,804.59 636.07,828.54 629.88,852.00
             597.09,976.33 666.26,1103.71 783.00,1153.85
             806.26,1163.84 842.69,1173.70 868.00,1174.00
             868.00,1174.00 899.00,1174.00 899.00,1174.00
             934.13,1173.95 977.01,1159.73 1008.00,1143.74
             1036.76,1128.90 1064.64,1105.66 1085.41,1081.00
             1096.54,1067.79 1103.35,1057.51 1112.42,1043.00
             1119.18,1032.21 1125.97,1021.69 1131.14,1010.00
             1142.00,985.43 1147.31,954.78 1147.00,928.00
             1147.00,928.00 1146.00,918.00 1146.00,918.00
             1146.00,918.00 1146.00,910.00 1146.00,910.00
             1146.00,910.00 1142.20,884.00 1142.20,884.00
             1131.11,827.50 1098.71,772.73 1054.00,736.46
             1018.34,707.52 973.13,687.73 928.00,679.58
             928.00,679.58 897.00,675.04 897.00,675.04
             897.00,675.04 887.00,675.04 887.00,675.04
             878.90,674.36 871.17,673.52 863.00,674.28 Z" />
</svg>
