<?xml version="1.0" encoding="UTF-8" standalone="no"?>
<!DOCTYPE svg PUBLIC "-//W3C//DTD SVG 20010904//EN"
              "http://www.w3.org/TR/2001/REC-SVG-20010904/DTD/svg10.dtd">

<svg xmlns="http://www.w3.org/2000/svg"
     width="1.66667in" height="1.66667in"
     viewBox="0 0 500 500">
  <path id="Selection"
        fill="none" stroke="black" stroke-width="1"
        d="M 252.00,29.00
           C 274.83,29.02 284.97,37.13 305.00,42.72
             305.00,42.72 339.00,52.12 339.00,52.12
             339.00,52.12 360.00,57.52 360.00,57.52
             368.72,60.45 376.92,64.43 385.00,68.77
             403.99,78.95 415.46,85.89 428.30,104.00
             443.16,124.95 439.61,131.39 444.66,154.00
             446.42,161.84 449.29,169.47 452.05,177.00
             460.23,199.28 472.71,222.74 473.00,247.00
             473.25,268.60 467.99,295.49 456.53,314.00
             441.11,338.92 413.52,356.17 388.00,369.26
             367.94,379.55 347.70,389.99 326.00,396.43
             326.00,396.43 312.00,399.88 312.00,399.88
             297.87,403.59 271.28,408.83 257.00,409.00
             257.00,409.00 241.00,409.82 241.00,409.82
             209.04,407.55 187.75,404.39 158.00,391.42
             158.00,391.42 142.00,384.14 142.00,384.14
             122.55,373.42 100.65,353.16 88.04,335.00
             88.04,335.00 73.58,310.00 73.58,310.00
             65.84,296.34 57.00,281.45 53.43,266.00
             50.34,252.65 50.84,238.62 51.00,225.00
             51.16,211.86 58.28,190.36 61.85,177.00
             61.85,177.00 69.75,144.00 69.75,144.00
             71.22,139.52 72.92,137.08 74.89,133.00
             80.57,121.24 85.77,109.51 93.75,99.00
             105.74,83.20 117.46,75.16 134.00,65.04
             153.83,52.90 179.63,40.96 202.00,34.58
             212.73,31.52 219.56,29.02 231.00,29.00
             231.00,29.00 238.00,29.00 238.00,29.00
             238.00,29.00 238.00,148.00 238.00,148.00
             238.00,150.06 238.26,153.62 237.01,155.30
             235.45,157.41 228.63,159.38 226.00,160.45
             219.46,163.12 211.65,167.54 206.00,171.76
             194.94,180.03 187.05,194.16 186.09,208.00
             185.73,213.18 186.52,217.91 187.27,223.00
             188.64,232.27 191.30,242.81 195.95,251.00
             199.32,256.94 204.81,265.18 210.04,269.48
             225.01,281.80 251.27,288.07 270.00,282.10
             282.41,278.15 302.30,262.81 310.70,253.00
             314.50,248.56 319.82,240.25 322.48,235.00
             332.85,214.54 331.92,193.25 313.99,177.29
             304.49,168.84 297.75,167.54 287.00,162.24
             274.13,155.90 267.42,149.28 252.00,152.00
             252.00,152.00 252.00,29.00 252.00,29.00 Z" />
</svg>
