<?xml version="1.0" encoding="UTF-8" standalone="no"?>
<!DOCTYPE svg PUBLIC "-//W3C//DTD SVG 20010904//EN"
              "http://www.w3.org/TR/2001/REC-SVG-20010904/DTD/svg10.dtd">

<svg xmlns="http://www.w3.org/2000/svg"
     width="16in" height="10.4533in"
     viewBox="0 0 9600 6272">
  <path id="Background"
        fill="none" stroke="black" stroke-width="1"
        d="M 5822.00,342.21
           C 5822.00,342.21 5828.00,342.21 5828.00,342.21
             5855.32,341.68 5881.10,350.96 5900.91,370.17
             5928.35,396.78 5936.86,439.46 5923.95,475.00
             5914.33,501.47 5899.82,512.90 5879.00,530.25
             5879.00,530.25 5841.00,561.92 5841.00,561.92
             5841.00,561.92 5606.00,758.56 5606.00,758.56
             5606.00,758.56 5437.00,899.08 5437.00,899.08
             5437.00,899.08 5183.00,1111.59 5183.00,1111.59
             5183.00,1111.59 5135.00,1151.41 5135.00,1151.41
             5119.12,1164.63 5108.10,1175.03 5088.00,1181.92
             5053.27,1193.84 5010.86,1184.41 4985.17,1157.91
             4965.96,1138.10 4956.68,1112.32 4957.00,1085.00
             4957.29,1060.81 4968.41,1035.37 4985.17,1018.09
             4985.17,1018.09 5014.00,993.72 5014.00,993.72
             5014.00,993.72 5056.00,958.56 5056.00,958.56
             5056.00,958.56 5139.00,889.25 5139.00,889.25
             5139.00,889.25 5615.00,491.59 5615.00,491.59
             5615.00,491.59 5729.00,396.75 5729.00,396.75
             5749.15,379.96 5768.60,359.86 5793.00,349.43
             5803.79,344.81 5810.72,344.06 5822.00,342.21 Z
           M 6655.00,603.00
           C 6655.00,603.00 6680.00,598.25 6680.00,598.25
             6680.00,598.25 6704.00,590.08 6704.00,590.08
             6704.00,590.08 6754.00,574.09 6754.00,574.09
             6754.00,574.09 6766.00,570.37 6766.00,570.37
             6766.00,570.37 6819.00,559.08 6819.00,559.08
             6819.00,559.08 6856.00,552.96 6856.00,552.96
             6856.00,552.96 6876.00,544.20 6876.00,544.20
             6884.59,540.83 6898.77,538.11 6908.00,538.00
             6908.00,538.00 6927.00,538.57 6927.00,538.57
             6927.00,538.57 6942.00,533.15 6942.00,533.15
             6942.00,533.15 6961.00,528.61 6961.00,528.61
             6961.00,528.61 6972.00,526.96 6972.00,526.96
             6972.00,526.96 6989.00,520.88 6989.00,520.88
             6989.00,520.88 7020.00,515.37 7020.00,515.37
             7020.00,515.37 7031.00,511.08 7031.00,511.08
             7040.73,507.74 7055.72,505.02 7066.00,505.00
             7066.00,505.00 7088.00,505.66 7088.00,505.66
             7090.54,505.28 7111.14,497.53 7127.00,495.28
             7137.54,493.79 7141.61,493.98 7152.00,494.00
             7152.00,494.00 7169.00,495.00 7169.00,495.00
             7169.00,495.00 7414.00,495.00 7414.00,495.00
             7414.00,495.00 7429.00,494.00 7429.00,494.00
             7438.41,493.89 7446.79,494.54 7456.00,496.65
             7470.04,499.87 7472.95,502.93 7478.00,504.37
             7478.00,504.37 7505.00,508.88 7505.00,508.88
             7505.00,508.88 7526.00,516.60 7526.00,516.60
             7528.91,517.16 7534.38,516.05 7538.00,516.00
             7551.44,515.85 7563.11,517.58 7576.00,521.44
             7586.58,524.60 7587.18,527.98 7599.00,528.00
             7608.23,528.01 7615.94,528.58 7625.00,530.65
             7640.69,534.25 7640.20,537.81 7657.00,538.00
             7669.09,538.15 7684.08,541.62 7695.00,546.78
             7702.17,550.16 7713.64,557.61 7720.00,559.37
             7723.59,560.36 7736.36,560.36 7750.00,564.44
             7759.76,567.36 7768.10,572.67 7777.00,577.37
             7777.00,577.37 7795.00,586.45 7795.00,586.45
             7800.27,589.60 7808.53,595.93 7812.91,600.17
             7812.91,600.17 7819.09,606.83 7819.09,606.83
             7822.60,610.24 7823.88,610.74 7827.57,615.00
             7827.57,615.00 7838.51,628.82 7838.51,628.82
             7838.51,628.82 7859.83,646.09 7859.83,646.09
             7866.03,652.48 7872.14,661.26 7876.57,669.00
             7876.57,669.00 7880.96,677.00 7880.96,677.00
             7880.96,677.00 7895.13,697.00 7895.13,697.00
             7899.55,704.73 7903.46,713.36 7905.63,722.00
             7905.63,722.00 7909.00,739.00 7909.00,739.00
             7909.00,739.00 7916.55,751.00 7916.55,751.00
             7919.56,756.06 7924.01,765.42 7925.92,771.00
             7930.73,785.02 7929.83,792.76 7932.38,804.00
             7932.38,804.00 7937.92,818.00 7937.92,818.00
             7937.92,818.00 7942.22,835.00 7942.22,835.00
             7942.22,835.00 7948.25,850.00 7948.25,850.00
             7948.25,850.00 7952.55,866.00 7952.55,866.00
             7952.55,866.00 7956.99,876.00 7956.99,876.00
             7959.79,882.75 7962.40,892.76 7963.56,900.00
             7964.69,907.02 7965.08,912.90 7965.00,920.00
             7965.00,920.00 7964.00,933.00 7964.00,933.00
             7963.96,936.44 7963.76,942.91 7964.63,946.00
             7964.63,946.00 7971.57,964.00 7971.57,964.00
             7974.74,975.06 7976.13,985.52 7976.00,997.00
             7976.00,997.00 7975.04,1007.00 7975.04,1007.00
             7975.04,1007.00 7975.04,1025.00 7975.04,1025.00
             7975.02,1036.21 7977.51,1036.05 7980.92,1046.00
             7980.92,1046.00 7984.58,1060.00 7984.58,1060.00
             7986.43,1068.43 7987.04,1076.40 7987.00,1085.00
             7987.00,1085.00 7986.00,1101.00 7986.00,1101.00
             7986.00,1101.00 7986.00,1126.00 7986.00,1126.00
             7986.11,1134.21 7989.33,1137.44 7991.92,1145.00
             7991.92,1145.00 7995.12,1157.00 7995.12,1157.00
             7995.12,1157.00 7998.63,1178.00 7998.63,1178.00
             7998.63,1178.00 8002.92,1189.00 8002.92,1189.00
             8005.69,1197.07 8007.96,1210.47 8008.00,1219.00
             8008.05,1229.81 8006.67,1240.62 8003.56,1251.00
             8000.40,1261.58 7997.02,1262.18 7997.00,1274.00
             7997.00,1274.00 7997.00,1376.00 7997.00,1376.00
             7997.00,1376.00 7998.00,1390.00 7998.00,1390.00
             7998.05,1399.76 7996.81,1409.45 7994.79,1419.00
             7992.23,1431.08 7986.02,1442.56 7986.00,1455.00
             7986.00,1455.00 7986.00,1496.00 7986.00,1496.00
             7986.00,1496.00 7987.00,1512.00 7987.00,1512.00
             7987.07,1527.55 7983.56,1542.21 7978.98,1557.00
             7978.98,1557.00 7975.59,1567.00 7975.59,1567.00
             7975.59,1567.00 7972.58,1585.00 7972.58,1585.00
             7970.35,1595.11 7964.11,1612.83 7964.00,1622.00
             7963.76,1642.47 7964.81,1653.56 7958.25,1674.00
             7958.25,1674.00 7944.90,1705.00 7944.90,1705.00
             7944.90,1705.00 7937.26,1740.00 7937.26,1740.00
             7934.66,1753.98 7931.34,1777.12 7926.92,1790.00
             7926.92,1790.00 7911.32,1823.00 7911.32,1823.00
             7911.32,1823.00 7907.12,1846.00 7907.12,1846.00
             7907.12,1846.00 7904.25,1857.00 7904.25,1857.00
             7904.25,1857.00 7899.10,1871.00 7899.10,1871.00
             7899.10,1871.00 7899.10,1881.00 7899.10,1881.00
             7898.82,1896.46 7893.10,1915.00 7886.69,1929.00
             7886.69,1929.00 7876.97,1948.00 7876.97,1948.00
             7876.97,1948.00 7869.92,1982.00 7869.92,1982.00
             7866.91,1990.79 7861.34,2001.54 7855.84,2009.00
             7853.17,2012.63 7845.82,2020.65 7844.59,2024.00
             7844.59,2024.00 7842.72,2037.00 7842.72,2037.00
             7841.88,2042.86 7839.66,2051.46 7837.58,2057.00
             7832.38,2070.80 7823.08,2084.89 7821.83,2088.00
             7821.83,2088.00 7816.92,2108.00 7816.92,2108.00
             7816.92,2108.00 7799.87,2145.00 7799.87,2145.00
             7799.87,2145.00 7792.99,2168.00 7792.99,2168.00
             7792.99,2168.00 7782.97,2188.00 7782.97,2188.00
             7782.97,2188.00 7768.00,2220.00 7768.00,2220.00
             7768.00,2220.00 7795.00,2206.25 7795.00,2206.25
             7795.00,2206.25 7815.91,2195.37 7815.91,2195.37
             7815.91,2195.37 7824.01,2187.09 7824.01,2187.09
             7828.83,2182.49 7835.45,2177.39 7841.00,2173.67
             7841.00,2173.67 7860.00,2162.38 7860.00,2162.38
             7860.00,2162.38 7878.00,2149.42 7878.00,2149.42
             7878.00,2149.42 7892.00,2141.40 7892.00,2141.40
             7892.00,2141.40 7909.00,2128.36 7909.00,2128.36
             7909.00,2128.36 7923.00,2120.53 7923.00,2120.53
             7923.00,2120.53 7941.99,2106.48 7941.99,2106.48
             7949.15,2100.69 7952.14,2091.33 7967.00,2079.26
             7979.77,2068.89 7983.12,2069.70 7991.00,2064.40
             7998.81,2059.15 8002.66,2053.99 8013.00,2048.31
             8013.00,2048.31 8041.00,2034.65 8041.00,2034.65
             8041.00,2034.65 8057.00,2022.16 8057.00,2022.16
             8063.50,2017.37 8070.68,2013.66 8078.00,2010.31
             8078.00,2010.31 8106.00,2001.90 8106.00,2001.90
             8116.43,1998.29 8119.20,1995.25 8132.00,1992.42
             8132.00,1992.42 8155.00,1989.30 8155.00,1989.30
             8155.00,1989.30 8181.00,1976.01 8181.00,1976.01
             8198.26,1968.86 8211.64,1969.54 8219.00,1967.37
             8219.00,1967.37 8230.00,1962.81 8230.00,1962.81
             8238.14,1959.72 8252.29,1957.11 8261.00,1957.00
             8261.00,1957.00 8281.00,1957.61 8281.00,1957.61
             8281.00,1957.61 8303.00,1948.42 8303.00,1948.42
             8317.92,1942.80 8340.10,1936.19 8356.00,1936.00
             8356.00,1936.00 8368.00,1936.00 8368.00,1936.00
             8378.21,1935.98 8386.17,1933.88 8396.00,1932.43
             8396.00,1932.43 8425.00,1927.25 8425.00,1927.25
             8425.00,1927.25 8441.00,1921.69 8441.00,1921.69
             8455.94,1916.38 8470.12,1913.21 8486.00,1913.00
             8493.85,1912.89 8495.94,1910.50 8503.00,1908.08
             8503.00,1908.08 8522.00,1903.44 8522.00,1903.44
             8528.56,1902.38 8534.37,1901.97 8541.00,1902.00
             8541.00,1902.00 8554.00,1902.78 8554.00,1902.78
             8557.22,1902.36 8562.63,1899.53 8566.00,1898.20
             8571.47,1896.05 8577.23,1894.70 8583.00,1893.61
             8595.35,1891.28 8601.59,1890.98 8614.00,1891.00
             8614.00,1891.00 8631.00,1892.00 8631.00,1892.00
             8631.00,1892.00 8712.00,1892.00 8712.00,1892.00
             8712.00,1892.00 8727.00,1891.00 8727.00,1891.00
             8740.01,1890.85 8750.51,1892.64 8763.00,1896.15
             8773.33,1899.06 8773.38,1901.98 8785.00,1902.00
             8793.44,1902.01 8801.78,1902.93 8810.00,1904.88
             8810.00,1904.88 8832.00,1912.81 8832.00,1912.81
             8834.68,1913.19 8840.02,1912.97 8843.00,1912.81
             8860.25,1913.21 8876.80,1919.28 8893.00,1924.48
             8893.00,1924.48 8919.00,1930.08 8919.00,1930.08
             8919.00,1930.08 8953.00,1946.12 8953.00,1946.12
             8953.00,1946.12 8973.00,1951.44 8973.00,1951.44
             8979.65,1953.43 8986.81,1957.06 8993.00,1960.26
             9005.14,1966.54 9010.62,1973.53 9017.00,1976.60
             9017.00,1976.60 9037.00,1983.08 9037.00,1983.08
             9043.10,1985.20 9055.45,1991.15 9061.00,1994.45
             9061.00,1994.45 9080.00,2008.04 9080.00,2008.04
             9080.00,2008.04 9103.00,2022.45 9103.00,2022.45
             9103.00,2022.45 9115.96,2033.29 9115.96,2033.29
             9119.65,2036.67 9121.73,2040.22 9126.00,2043.04
             9126.00,2043.04 9165.00,2063.72 9165.00,2063.72
             9172.05,2068.65 9177.02,2073.77 9183.17,2079.57
             9183.17,2079.57 9193.99,2089.04 9193.99,2089.04
             9193.99,2089.04 9210.00,2106.00 9210.00,2106.00
             9210.00,2106.00 9231.00,2126.99 9231.00,2126.99
             9239.94,2135.71 9239.62,2133.78 9248.74,2145.00
             9257.08,2155.26 9264.97,2169.07 9270.74,2181.00
             9270.74,2181.00 9277.72,2196.00 9277.72,2196.00
             9281.06,2201.72 9287.18,2206.97 9292.69,2217.00
             9292.69,2217.00 9300.97,2234.00 9300.97,2234.00
             9300.97,2234.00 9310.14,2252.00 9310.14,2252.00
             9310.14,2252.00 9315.10,2265.00 9315.10,2265.00
             9318.28,2271.37 9326.00,2279.09 9333.19,2298.00
             9338.37,2311.63 9338.23,2325.56 9339.69,2330.00
             9339.69,2330.00 9352.57,2356.00 9352.57,2356.00
             9358.03,2368.76 9361.98,2388.12 9362.00,2402.00
             9362.00,2402.00 9362.00,2418.00 9362.00,2418.00
             9362.00,2418.00 9361.16,2430.00 9361.16,2430.00
             9361.16,2430.00 9361.16,2443.00 9361.16,2443.00
             9361.00,2445.19 9360.93,2447.88 9361.16,2450.00
             9361.16,2450.00 9373.57,2476.00 9373.57,2476.00
             9380.72,2492.69 9384.03,2507.84 9384.00,2526.00
             9384.00,2526.00 9383.00,2543.00 9383.00,2543.00
             9383.00,2543.00 9383.00,2597.00 9383.00,2597.00
             9383.00,2597.00 9384.00,2618.00 9384.00,2618.00
             9383.90,2625.97 9381.51,2639.44 9378.92,2647.00
             9378.92,2647.00 9373.19,2661.00 9373.19,2661.00
             9372.80,2663.74 9373.03,2669.88 9373.19,2673.00
             9372.90,2680.97 9370.51,2694.44 9367.92,2702.00
             9367.92,2702.00 9362.63,2715.00 9362.63,2715.00
             9362.63,2715.00 9357.57,2744.00 9357.57,2744.00
             9354.43,2754.97 9350.02,2758.40 9350.00,2770.00
             9350.00,2770.00 9350.00,2784.00 9350.00,2784.00
             9350.00,2784.00 9351.00,2804.00 9351.00,2804.00
             9350.89,2812.89 9347.99,2827.48 9345.25,2836.00
             9345.25,2836.00 9340.19,2849.00 9340.19,2849.00
             9339.81,2851.72 9340.03,2856.99 9340.19,2860.00
             9339.90,2868.27 9337.39,2882.22 9334.56,2890.00
             9334.56,2890.00 9327.60,2906.00 9327.60,2906.00
             9327.60,2906.00 9322.25,2927.00 9322.25,2927.00
             9322.25,2927.00 9306.16,2964.00 9306.16,2964.00
             9306.16,2964.00 9306.16,2973.00 9306.16,2973.00
             9305.90,2980.98 9303.51,2994.44 9300.92,3002.00
             9300.92,3002.00 9293.91,3019.00 9293.91,3019.00
             9293.91,3019.00 9289.56,3035.00 9289.56,3035.00
             9289.56,3035.00 9283.62,3049.00 9283.62,3049.00
             9283.62,3049.00 9278.92,3069.00 9278.92,3069.00
             9278.92,3069.00 9272.55,3084.00 9272.55,3084.00
             9272.55,3084.00 9266.40,3105.00 9266.40,3105.00
             9266.40,3105.00 9245.01,3149.00 9245.01,3149.00
             9238.64,3166.82 9240.84,3164.77 9237.35,3180.00
             9237.35,3180.00 9229.33,3208.00 9229.33,3208.00
             9229.33,3208.00 9208.63,3261.00 9208.63,3261.00
             9208.63,3261.00 9206.39,3280.00 9206.39,3280.00
             9203.38,3296.81 9198.29,3305.84 9197.39,3310.00
             9195.12,3320.44 9195.83,3328.60 9191.92,3340.00
             9186.73,3355.14 9176.92,3368.65 9175.08,3373.00
             9175.08,3373.00 9169.92,3396.00 9169.92,3396.00
             9165.01,3410.31 9154.75,3425.06 9152.78,3430.00
             9150.62,3435.39 9150.00,3446.75 9144.14,3460.00
             9144.14,3460.00 9125.12,3498.00 9125.12,3498.00
             9125.12,3498.00 9103.58,3543.00 9103.58,3543.00
             9103.58,3543.00 9082.32,3579.00 9082.32,3579.00
             9082.32,3579.00 9069.90,3598.00 9069.90,3598.00
             9061.00,3614.15 9062.68,3618.91 9057.40,3632.00
             9049.85,3650.69 9043.18,3655.84 9040.10,3662.00
             9040.10,3662.00 9036.25,3675.00 9036.25,3675.00
             9034.40,3680.77 9030.63,3688.65 9027.69,3694.00
             9024.37,3700.05 9017.61,3708.98 9012.83,3713.91
             9012.83,3713.91 9002.49,3723.29 9002.49,3723.29
             9002.49,3723.29 8996.00,3735.00 8996.00,3735.00
             8994.55,3717.24 8983.94,3676.18 8978.71,3658.00
             8956.74,3581.59 8916.01,3504.39 8872.66,3438.00
             8872.66,3438.00 8839.12,3390.00 8839.12,3390.00
             8839.12,3390.00 8822.00,3367.00 8822.00,3367.00
             8822.00,3367.00 8842.00,3351.58 8842.00,3351.58
             8842.00,3351.58 8872.00,3326.72 8872.00,3326.72
             8903.09,3299.40 8935.74,3265.55 8961.34,3233.00
             8961.34,3233.00 9009.33,3167.00 9009.33,3167.00
             9009.33,3167.00 9076.37,3068.00 9076.37,3068.00
             9086.17,3054.93 9097.63,3042.14 9105.77,3028.00
             9109.37,3021.75 9112.90,3013.19 9109.99,3006.00
             9107.56,2999.99 9100.70,2995.17 9095.00,2992.49
             9084.04,2987.34 9067.07,2983.77 9055.00,2981.75
             9031.13,2977.77 9007.09,2975.57 8983.00,2973.91
             8983.00,2973.91 8973.00,2973.00 8973.00,2973.00
             8973.00,2973.00 8955.00,2972.00 8955.00,2972.00
             8955.00,2972.00 8932.00,2971.00 8932.00,2971.00
             8932.00,2971.00 8917.00,2970.00 8917.00,2970.00
             8917.00,2970.00 8901.00,2970.00 8901.00,2970.00
             8901.00,2970.00 8885.00,2969.00 8885.00,2969.00
             8823.05,2968.90 8760.02,2971.32 8700.00,2988.43
             8659.14,3000.07 8625.39,3015.37 8589.00,3037.20
             8556.21,3056.87 8526.31,3080.55 8498.00,3106.17
             8498.00,3106.17 8473.00,3131.00 8473.00,3131.00
             8470.00,3134.00 8465.10,3139.75 8461.00,3140.67
             8461.00,3140.67 8435.00,3138.16 8435.00,3138.16
             8435.00,3138.16 8373.00,3129.20 8373.00,3129.20
             8341.41,3122.88 8311.44,3116.31 8282.00,3102.69
             8267.66,3096.06 8251.35,3085.04 8239.00,3075.20
             8206.36,3049.19 8182.97,3020.94 8167.40,2982.00
             8160.94,2965.86 8152.81,2941.29 8153.00,2924.00
             8153.00,2924.00 8153.96,2914.00 8153.96,2914.00
             8153.96,2914.00 8153.96,2899.00 8153.96,2899.00
             8139.36,2906.86 8135.21,2923.86 8132.75,2939.00
             8128.53,2965.02 8132.73,3003.11 8138.21,3029.00
             8138.21,3029.00 8142.00,3044.00 8142.00,3044.00
             8133.40,3038.24 8131.16,3034.59 8124.00,3028.28
             8112.60,3018.25 8099.82,3008.19 8087.00,3000.05
             8057.86,2981.56 8034.45,2970.65 8003.00,2957.15
             7970.49,2943.20 7939.88,2931.65 7905.00,2924.80
             7886.04,2921.09 7867.17,2919.76 7848.00,2918.32
             7844.69,2918.07 7843.15,2918.70 7840.00,2918.91
             7832.64,2919.41 7824.75,2918.41 7818.02,2922.36
             7813.55,2924.99 7809.92,2930.13 7814.31,2934.70
             7816.63,2937.11 7820.08,2937.44 7823.00,2938.75
             7823.00,2938.75 7839.00,2947.30 7839.00,2947.30
             7839.00,2947.30 7892.00,2972.69 7892.00,2972.69
             7898.35,2976.13 7906.99,2979.89 7912.00,2985.00
             7912.00,2985.00 7876.00,2977.42 7876.00,2977.42
             7846.76,2972.15 7802.54,2967.34 7773.00,2967.00
             7773.00,2967.00 7758.00,2966.00 7758.00,2966.00
             7758.00,2966.00 7735.00,2966.00 7735.00,2966.00
             7735.00,2966.00 7714.00,2967.00 7714.00,2967.00
             7714.00,2967.00 7669.00,2971.73 7669.00,2971.73
             7642.45,2975.56 7616.15,2980.35 7590.00,2986.35
             7524.92,3001.29 7461.27,3020.04 7398.00,3041.33
             7398.00,3041.33 7355.00,3056.05 7355.00,3056.05
             7355.00,3056.05 7329.00,3065.39 7329.00,3065.39
             7325.39,3066.31 7322.58,3065.81 7319.00,3066.17
             7319.00,3066.17 7305.00,3068.88 7305.00,3068.88
             7289.28,3072.61 7266.06,3079.75 7252.00,3087.31
             7252.00,3087.31 7235.00,3098.00 7235.00,3098.00
             7235.00,3098.00 7238.72,3068.00 7238.72,3068.00
             7238.72,3068.00 7244.00,3029.00 7244.00,3029.00
             7244.00,3029.00 7259.00,3034.63 7259.00,3034.63
             7261.34,3034.68 7263.20,3033.48 7264.89,3031.85
             7270.15,3026.31 7267.42,3020.10 7264.89,3014.00
             7268.09,3015.08 7275.53,3018.60 7278.00,3018.66
             7283.17,3018.77 7286.69,3013.86 7286.49,3009.00
             7286.26,3003.30 7279.74,2992.17 7276.86,2987.00
             7260.62,2957.90 7245.83,2934.84 7222.00,2911.00
             7170.21,2859.19 7091.32,2793.82 7029.00,2755.19
             7011.88,2744.58 6994.21,2733.41 6976.00,2724.78
             6972.70,2723.22 6959.49,2718.44 6957.99,2716.35
             6956.75,2714.61 6957.00,2711.10 6957.00,2709.00
             6956.95,2682.59 6958.30,2656.02 6953.00,2630.00
             6953.00,2630.00 6947.64,2608.00 6947.64,2608.00
             6942.43,2596.31 6935.60,2610.08 6926.00,2618.00
             6919.95,2602.50 6920.13,2608.68 6914.35,2599.00
             6914.35,2599.00 6907.74,2586.00 6907.74,2586.00
             6907.74,2586.00 6896.30,2565.00 6896.30,2565.00
             6862.91,2504.18 6827.00,2454.23 6778.96,2404.00
             6778.96,2404.00 6744.00,2369.91 6744.00,2369.91
             6744.00,2369.91 6675.00,2307.16 6675.00,2307.16
             6634.51,2271.01 6593.15,2235.78 6556.09,2196.00
             6527.14,2164.93 6500.55,2130.43 6480.31,2093.00
             6460.83,2056.98 6441.10,2010.89 6414.87,1980.00
             6372.87,1930.56 6317.25,1905.93 6264.00,1871.69
             6245.77,1859.97 6214.28,1842.36 6214.00,1818.00
             6213.94,1812.45 6214.36,1806.27 6216.26,1801.00
             6217.62,1797.19 6219.95,1794.96 6220.53,1792.00
             6221.03,1789.48 6220.26,1787.13 6218.57,1785.23
             6213.38,1779.37 6205.62,1782.81 6200.00,1785.78
             6190.06,1791.04 6182.49,1798.33 6175.46,1807.00
             6173.25,1809.73 6165.80,1820.80 6163.68,1821.89
             6161.24,1823.13 6154.81,1821.20 6152.00,1820.58
             6152.00,1820.58 6122.00,1814.58 6122.00,1814.58
             6036.79,1799.21 5958.49,1795.39 5873.00,1811.39
             5873.00,1811.39 5819.00,1823.13 5819.00,1823.13
             5814.08,1824.36 5798.60,1827.97 5795.02,1830.09
             5789.14,1833.55 5786.45,1841.95 5783.85,1848.00
             5783.85,1848.00 5767.33,1892.00 5767.33,1892.00
             5747.82,1950.54 5738.69,2006.44 5746.72,2068.00
             5746.72,2068.00 5752.00,2099.00 5752.00,2099.00
             5719.19,2088.06 5686.63,2079.33 5652.00,2076.91
             5652.00,2076.91 5640.00,2076.00 5640.00,2076.00
             5640.00,2076.00 5623.00,2076.00 5623.00,2076.00
             5591.80,2076.05 5554.37,2087.23 5526.00,2099.86
             5505.86,2108.83 5486.41,2119.98 5468.00,2132.08
             5461.27,2136.50 5447.33,2147.90 5441.00,2150.00
             5420.87,2119.78 5409.03,2084.49 5402.39,2049.00
             5400.00,2036.23 5397.02,2014.74 5397.00,2002.00
             5397.00,2002.00 5397.00,1967.00 5397.00,1967.00
             5397.00,1967.00 5400.28,1931.00 5400.28,1931.00
             5408.19,1872.29 5430.36,1815.69 5462.31,1766.00
             5533.94,1654.60 5653.42,1569.15 5777.00,1523.95
             5809.50,1512.06 5851.99,1499.14 5886.00,1493.43
             5900.21,1491.05 5927.16,1487.17 5941.00,1487.00
             5941.00,1487.00 5961.00,1486.00 5961.00,1486.00
             5961.00,1486.00 5976.00,1486.00 5976.00,1486.00
             5976.00,1486.00 5996.00,1487.00 5996.00,1487.00
             5996.00,1487.00 6006.00,1487.91 6006.00,1487.91
             6029.33,1489.62 6052.29,1493.45 6075.00,1499.13
             6128.87,1512.59 6174.85,1532.66 6225.00,1555.69
             6225.00,1555.69 6372.00,1627.69 6372.00,1627.69
             6459.01,1667.65 6548.19,1704.82 6642.00,1725.42
             6707.81,1739.88 6781.30,1745.82 6847.00,1727.85
             6881.40,1718.44 6912.52,1703.86 6942.00,1683.81
             6963.84,1668.95 6980.35,1654.65 6999.00,1636.00
             6999.00,1636.00 7013.72,1621.00 7013.72,1621.00
             7052.23,1577.29 7082.19,1530.43 7105.42,1477.00
             7129.07,1422.63 7146.84,1365.14 7153.16,1306.00
             7153.16,1306.00 7156.09,1272.00 7156.09,1272.00
             7156.09,1272.00 7157.00,1260.00 7157.00,1260.00
             7157.00,1260.00 7157.00,1221.00 7157.00,1221.00
             7157.00,1221.00 7155.17,1196.00 7155.17,1196.00
             7151.38,1156.90 7145.69,1123.68 7133.98,1086.00
             7097.16,967.56 7006.46,867.47 6909.00,794.37
             6868.78,764.21 6825.83,738.04 6783.00,711.81
             6783.00,711.81 6714.00,668.58 6714.00,668.58
             6699.71,658.46 6679.68,644.17 6668.59,631.00
             6661.15,622.16 6655.99,614.82 6655.00,603.00 Z
           M 2012.00,1200.00
           C 2012.00,1200.00 2021.94,1178.00 2021.94,1178.00
             2021.94,1178.00 2029.20,1158.00 2029.20,1158.00
             2036.75,1138.95 2045.54,1120.02 2055.31,1102.00
             2055.31,1102.00 2090.69,1042.00 2090.69,1042.00
             2090.69,1042.00 2120.74,982.00 2120.74,982.00
             2120.74,982.00 2138.42,948.00 2138.42,948.00
             2143.05,940.56 2148.28,933.49 2154.17,927.00
             2154.17,927.00 2163.37,917.83 2163.37,917.83
             2163.37,917.83 2175.02,898.00 2175.02,898.00
             2175.02,898.00 2190.44,879.00 2190.44,879.00
             2190.44,879.00 2197.26,863.00 2197.26,863.00
             2203.61,849.88 2207.34,843.08 2217.29,832.01
             2222.82,825.86 2232.83,818.53 2240.00,814.20
             2245.07,811.14 2250.57,808.89 2255.00,804.90
             2255.00,804.90 2288.00,772.26 2288.00,772.26
             2299.20,763.17 2313.38,756.27 2315.72,754.37
             2315.72,754.37 2324.00,746.17 2324.00,746.17
             2329.29,741.37 2339.04,733.53 2345.00,729.70
             2345.00,729.70 2395.00,704.75 2395.00,704.75
             2422.93,690.69 2445.67,677.47 2476.00,667.75
             2476.00,667.75 2501.00,661.44 2501.00,661.44
             2501.00,661.44 2516.00,659.51 2516.00,659.51
             2516.00,659.51 2551.00,643.75 2551.00,643.75
             2551.00,643.75 2570.00,639.28 2570.00,639.28
             2570.00,639.28 2582.00,637.63 2582.00,637.63
             2587.78,636.24 2591.67,632.20 2609.00,628.80
             2620.85,626.48 2628.02,625.98 2640.00,626.00
             2640.00,626.00 2657.00,627.00 2657.00,627.00
             2657.00,627.00 2743.00,627.00 2743.00,627.00
             2743.00,627.00 2758.00,626.00 2758.00,626.00
             2770.91,625.85 2780.25,625.86 2793.00,628.88
             2793.00,628.88 2817.00,636.90 2817.00,636.90
             2817.00,636.90 2826.00,636.90 2826.00,636.90
             2844.20,637.22 2879.30,647.66 2896.00,655.31
             2896.00,655.31 2918.00,667.01 2918.00,667.01
             2922.52,669.23 2931.66,670.84 2937.00,672.44
             2937.00,672.44 2965.00,682.81 2965.00,682.81
             2965.00,682.81 3015.00,704.40 3015.00,704.40
             3015.00,704.40 3036.00,709.02 3036.00,709.02
             3036.00,709.02 3065.00,718.69 3065.00,718.69
             3065.00,718.69 3085.00,725.39 3085.00,725.39
             3085.00,725.39 3105.00,728.88 3105.00,728.88
             3130.34,734.90 3155.18,742.26 3179.00,752.86
             3190.96,758.18 3208.94,767.52 3220.00,774.42
             3220.00,774.42 3232.00,782.56 3232.00,782.56
             3232.00,782.56 3253.00,795.35 3253.00,795.35
             3253.00,795.35 3283.00,815.58 3283.00,815.58
             3283.00,815.58 3304.00,826.25 3304.00,826.25
             3316.02,832.25 3329.10,839.59 3340.00,847.43
             3358.49,860.72 3382.62,889.44 3396.63,908.00
             3412.83,929.48 3432.99,957.52 3445.69,981.00
             3464.91,1016.53 3478.02,1054.87 3491.00,1093.00
             3491.00,1093.00 3514.88,1164.00 3514.88,1164.00
             3514.88,1164.00 3526.12,1200.00 3526.12,1200.00
             3526.12,1200.00 3531.00,1220.00 3531.00,1220.00
             3531.00,1220.00 3533.34,1233.00 3533.34,1233.00
             3533.34,1233.00 3538.63,1249.00 3538.63,1249.00
             3541.98,1262.39 3543.02,1273.27 3543.00,1287.00
             3543.00,1287.00 3542.00,1303.00 3542.00,1303.00
             3542.00,1303.00 3542.00,1329.00 3542.00,1329.00
             3542.02,1340.97 3546.73,1347.44 3549.63,1359.00
             3553.70,1375.28 3553.92,1384.57 3554.00,1401.00
             3554.05,1410.66 3557.04,1413.15 3559.57,1422.00
             3562.56,1432.44 3564.98,1444.13 3564.96,1455.00
             3564.96,1455.00 3564.96,1470.00 3564.96,1470.00
             3564.96,1470.00 3564.00,1482.00 3564.00,1482.00
             3564.00,1482.00 3564.00,1515.00 3564.00,1515.00
             3564.02,1526.82 3566.48,1527.69 3569.56,1538.00
             3572.39,1547.46 3575.88,1565.26 3576.00,1575.00
             3576.00,1575.00 3576.00,1589.00 3576.00,1589.00
             3576.00,1589.00 3575.00,1607.00 3575.00,1607.00
             3575.02,1618.08 3577.80,1619.01 3580.97,1629.00
             3583.41,1636.68 3585.15,1645.98 3586.27,1654.00
             3586.47,1657.73 3587.56,1662.37 3586.27,1666.00
             3585.50,1669.36 3581.56,1674.08 3579.37,1677.00
             3579.37,1677.00 3567.86,1693.00 3567.86,1693.00
             3557.80,1707.06 3543.55,1729.80 3535.31,1745.00
             3501.81,1806.79 3477.04,1874.20 3473.96,1945.00
             3473.96,1945.00 3473.00,1956.00 3473.00,1956.00
             3471.90,2049.94 3507.27,2135.48 3556.42,2214.00
             3571.81,2238.58 3595.61,2271.75 3614.08,2294.00
             3614.08,2294.00 3630.73,2314.00 3630.73,2314.00
             3633.12,2316.79 3638.04,2321.87 3639.27,2325.00
             3640.44,2327.99 3640.98,2335.63 3641.00,2339.00
             3641.00,2339.00 3641.00,2368.00 3641.00,2368.00
             3641.00,2368.00 3643.85,2392.00 3643.85,2392.00
             3643.85,2392.00 3653.00,2471.00 3653.00,2471.00
             3646.50,2471.02 3633.26,2472.38 3627.00,2473.90
             3603.86,2479.52 3561.41,2500.14 3538.00,2510.70
             3452.47,2549.27 3371.66,2588.61 3295.00,2643.42
             3295.00,2643.42 3234.00,2689.80 3234.00,2689.80
             3234.00,2689.80 3209.00,2710.42 3209.00,2710.42
             3205.76,2713.16 3199.33,2719.02 3196.00,2720.92
             3192.08,2723.16 3182.60,2725.97 3178.00,2727.29
             3167.65,2730.27 3151.65,2733.87 3141.00,2734.00
             3131.65,2734.11 3123.23,2734.41 3114.00,2732.55
             3082.28,2726.17 3055.03,2705.82 3031.00,2685.13
             3031.00,2685.13 2946.00,2605.17 2946.00,2605.17
             2858.12,2525.66 2755.38,2452.79 2644.00,2410.42
             2589.39,2389.65 2539.46,2373.29 2482.00,2361.80
             2457.74,2356.95 2422.42,2351.28 2398.00,2351.00
             2398.00,2351.00 2384.00,2350.00 2384.00,2350.00
             2384.00,2350.00 2355.00,2350.00 2355.00,2350.00
             2355.00,2350.00 2343.00,2351.00 2343.00,2351.00
             2343.00,2351.00 2334.00,2351.00 2334.00,2351.00
             2308.13,2352.86 2276.92,2357.88 2252.00,2365.00
             2221.08,2373.83 2190.73,2382.95 2161.00,2395.42
             2156.18,2397.44 2143.76,2402.80 2140.04,2405.63
             2137.88,2407.29 2135.25,2409.99 2135.82,2412.98
             2136.53,2416.66 2140.60,2418.61 2144.00,2418.45
             2144.00,2418.45 2169.00,2413.40 2169.00,2413.40
             2205.38,2406.13 2243.00,2404.57 2280.00,2405.00
             2296.40,2405.20 2320.82,2409.64 2337.00,2413.35
             2384.69,2424.29 2431.35,2444.93 2475.00,2466.75
             2475.00,2466.75 2514.00,2486.74 2514.00,2486.74
             2520.03,2489.86 2533.64,2496.63 2538.00,2501.00
             2476.07,2474.73 2412.81,2457.83 2346.00,2449.85
             2346.00,2449.85 2305.00,2445.91 2305.00,2445.91
             2305.00,2445.91 2295.00,2445.00 2295.00,2445.00
             2295.00,2445.00 2275.00,2444.00 2275.00,2444.00
             2275.00,2444.00 2218.00,2444.00 2218.00,2444.00
             2218.00,2444.00 2198.00,2445.00 2198.00,2445.00
             2198.00,2445.00 2188.00,2445.91 2188.00,2445.91
             2188.00,2445.91 2165.00,2447.83 2165.00,2447.83
             2135.42,2450.70 2106.16,2454.97 2077.00,2460.80
             1989.59,2478.28 1904.75,2506.88 1825.00,2546.75
             1781.13,2568.69 1739.06,2593.23 1699.00,2621.58
             1636.60,2665.73 1580.01,2717.24 1532.20,2777.00
             1532.20,2777.00 1497.33,2825.00 1497.33,2825.00
             1492.31,2832.54 1483.76,2845.19 1480.00,2853.00
             1471.22,2846.13 1461.91,2827.48 1457.43,2817.00
             1455.19,2811.77 1453.41,2805.34 1449.78,2801.00
             1449.78,2801.00 1426.43,2778.00 1426.43,2778.00
             1420.93,2771.58 1415.31,2765.09 1410.69,2758.00
             1410.69,2758.00 1398.67,2739.00 1398.67,2739.00
             1395.28,2734.90 1391.76,2732.40 1388.09,2728.83
             1388.09,2728.83 1371.66,2710.00 1371.66,2710.00
             1371.66,2710.00 1353.79,2683.00 1353.79,2683.00
             1347.43,2675.61 1344.25,2675.77 1332.45,2661.00
             1332.45,2661.00 1320.06,2644.00 1320.06,2644.00
             1316.07,2637.57 1315.06,2633.55 1309.68,2627.00
             1309.68,2627.00 1276.09,2591.00 1276.09,2591.00
             1276.09,2591.00 1265.84,2579.00 1265.84,2579.00
             1250.69,2562.01 1235.90,2544.84 1223.03,2526.00
             1197.61,2488.79 1176.71,2448.87 1154.01,2410.00
             1154.01,2410.00 1145.37,2393.00 1145.37,2393.00
             1145.37,2393.00 1136.65,2379.00 1136.65,2379.00
             1136.65,2379.00 1106.69,2335.00 1106.69,2335.00
             1106.69,2335.00 1096.92,2319.00 1096.92,2319.00
             1096.92,2319.00 1073.05,2283.00 1073.05,2283.00
             1073.05,2283.00 1063.92,2268.00 1063.92,2268.00
             1063.92,2268.00 1054.42,2254.00 1054.42,2254.00
             1054.42,2254.00 1037.56,2226.00 1037.56,2226.00
             1037.56,2226.00 1026.43,2209.00 1026.43,2209.00
             1026.43,2209.00 1018.69,2194.00 1018.69,2194.00
             1018.69,2194.00 1007.26,2173.00 1007.26,2173.00
             1007.26,2173.00 995.69,2147.00 995.69,2147.00
             995.69,2147.00 983.69,2124.00 983.69,2124.00
             983.69,2124.00 966.86,2095.00 966.86,2095.00
             966.86,2095.00 939.69,2045.00 939.69,2045.00
             939.69,2045.00 916.43,1999.00 916.43,1999.00
             916.43,1999.00 902.72,1960.00 902.72,1960.00
             902.72,1960.00 897.91,1943.00 897.91,1943.00
             894.67,1934.00 887.89,1924.26 884.15,1911.00
             884.15,1911.00 868.88,1849.00 868.88,1849.00
             868.88,1849.00 864.09,1829.00 864.09,1829.00
             860.65,1817.01 855.36,1810.02 850.31,1799.00
             845.98,1789.55 841.98,1777.15 839.65,1767.00
             829.71,1723.64 830.60,1678.89 824.84,1635.00
             822.09,1614.01 813.25,1593.33 813.00,1572.00
             813.00,1572.00 814.00,1554.00 814.00,1554.00
             814.00,1554.00 813.00,1532.00 813.00,1532.00
             813.00,1532.00 813.00,1497.00 813.00,1497.00
             813.00,1497.00 814.04,1485.00 814.04,1485.00
             814.04,1485.00 814.04,1475.00 814.04,1475.00
             816.75,1447.85 822.71,1421.75 827.54,1395.00
             831.98,1370.38 834.90,1345.49 844.20,1322.00
             853.01,1299.74 865.92,1279.46 878.20,1259.00
             897.52,1226.81 914.76,1200.13 940.17,1172.00
             940.17,1172.00 970.99,1142.91 970.99,1142.91
             978.20,1136.02 979.92,1132.57 989.00,1125.08
             1007.02,1110.23 1027.77,1099.08 1047.00,1085.97
             1061.00,1076.43 1057.20,1076.76 1067.09,1067.17
             1072.24,1062.17 1087.71,1050.47 1094.00,1046.87
             1114.14,1035.35 1136.64,1029.05 1158.00,1020.40
             1158.00,1020.40 1182.00,1008.69 1182.00,1008.69
             1182.00,1008.69 1203.00,997.59 1203.00,997.59
             1203.00,997.59 1218.00,986.03 1218.00,986.03
             1224.67,981.48 1236.35,975.83 1244.00,973.05
             1259.71,967.34 1273.58,966.81 1290.00,967.00
             1290.00,967.00 1302.00,967.66 1302.00,967.66
             1302.00,967.66 1318.00,962.44 1318.00,962.44
             1318.00,962.44 1336.00,958.25 1336.00,958.25
             1346.76,956.38 1352.15,955.98 1363.00,956.00
             1363.00,956.00 1380.00,957.00 1380.00,957.00
             1380.00,957.00 1455.00,957.00 1455.00,957.00
             1455.00,957.00 1471.00,956.00 1471.00,956.00
             1471.00,956.00 1500.00,956.00 1500.00,956.00
             1510.24,956.02 1527.06,958.26 1537.00,960.88
             1547.53,963.66 1549.67,966.98 1561.00,967.00
             1561.00,967.00 1571.00,967.00 1571.00,967.00
             1580.87,967.12 1599.81,970.59 1609.00,974.20
             1609.00,974.20 1631.00,984.45 1631.00,984.45
             1631.00,984.45 1667.00,993.44 1667.00,993.44
             1667.00,993.44 1709.00,1009.55 1709.00,1009.55
             1709.00,1009.55 1756.00,1029.58 1756.00,1029.58
             1756.00,1029.58 1802.00,1049.31 1802.00,1049.31
             1802.00,1049.31 1838.00,1066.74 1838.00,1066.74
             1864.29,1079.47 1899.71,1097.01 1923.00,1114.16
             1962.71,1143.39 1979.15,1167.15 2012.00,1200.00 Z
           M 5924.00,995.00
           C 5924.00,995.00 5964.00,969.43 5964.00,969.43
             5971.09,965.37 5980.68,961.48 5986.99,956.47
             5986.99,956.47 6005.00,937.04 6005.00,937.04
             6014.77,927.68 6025.89,919.68 6037.00,912.02
             6037.00,912.02 6056.00,900.31 6056.00,900.31
             6056.00,900.31 6072.00,891.76 6072.00,891.76
             6080.78,886.05 6084.91,879.59 6103.00,869.01
             6103.00,869.01 6131.00,855.04 6131.00,855.04
             6136.27,851.60 6137.95,848.18 6142.09,844.17
             6147.20,839.22 6154.90,833.55 6161.00,829.81
             6167.90,825.58 6178.33,820.21 6186.00,817.75
             6186.00,817.75 6203.00,813.45 6203.00,813.45
             6203.00,813.45 6214.00,808.81 6214.00,808.81
             6214.00,808.81 6226.00,804.88 6226.00,804.88
             6226.00,804.88 6238.00,796.36 6238.00,796.36
             6238.00,796.36 6253.00,787.90 6253.00,787.90
             6253.00,787.90 6274.00,772.81 6274.00,772.81
             6274.00,772.81 6303.00,757.74 6303.00,757.74
             6303.00,757.74 6337.00,740.75 6337.00,740.75
             6337.00,740.75 6393.00,712.86 6393.00,712.86
             6393.00,712.86 6431.00,697.20 6431.00,697.20
             6431.00,697.20 6441.00,690.02 6441.00,690.02
             6451.36,682.88 6462.77,677.20 6475.00,674.13
             6477.41,673.52 6485.84,671.14 6487.77,671.47
             6491.23,672.05 6491.66,678.11 6492.37,681.00
             6492.37,681.00 6500.67,710.00 6500.67,710.00
             6513.27,747.44 6533.65,781.54 6558.61,812.00
             6593.04,854.01 6638.97,891.65 6680.00,927.28
             6680.00,927.28 6716.00,959.83 6716.00,959.83
             6756.36,996.35 6793.91,1042.83 6794.00,1100.00
             6794.07,1144.68 6779.35,1193.16 6743.00,1221.79
             6735.15,1227.97 6725.45,1233.93 6716.00,1237.30
             6702.19,1242.23 6691.31,1242.16 6677.00,1242.00
             6659.52,1241.79 6632.78,1234.26 6616.00,1228.67
             6581.35,1217.12 6547.49,1201.95 6514.00,1187.42
             6401.66,1138.71 6293.33,1078.49 6176.00,1042.02
             6120.99,1024.93 6061.04,1012.48 6004.00,1004.42
             6004.00,1004.42 5950.00,998.17 5950.00,998.17
             5943.78,997.57 5928.61,997.68 5924.00,995.00 Z
           M 4668.00,4143.00
           C 4670.93,4147.43 4673.45,4163.80 4674.88,4170.00
             4674.88,4170.00 4689.72,4225.00 4689.72,4225.00
             4703.94,4272.22 4725.99,4320.57 4752.69,4362.00
             4806.87,4446.07 4892.28,4496.05 4989.00,4515.40
             5007.93,4519.19 5026.77,4521.77 5046.00,4523.09
             5046.00,4523.09 5056.00,4524.04 5056.00,4524.04
             5056.00,4524.04 5067.00,4524.04 5067.00,4524.04
             5067.00,4524.04 5079.00,4525.00 5079.00,4525.00
             5079.00,4525.00 5105.00,4524.00 5105.00,4524.00
             5105.00,4524.00 5115.00,4523.09 5115.00,4523.09
             5144.77,4521.01 5174.27,4515.76 5203.00,4507.57
             5203.00,4507.57 5242.00,4494.58 5242.00,4494.58
             5242.00,4494.58 5265.00,4486.00 5265.00,4486.00
             5261.73,4492.66 5255.20,4500.92 5250.63,4507.00
             5250.63,4507.00 5212.17,4552.00 5212.17,4552.00
             5212.17,4552.00 5164.00,4600.09 5164.00,4600.09
             5164.00,4600.09 5153.00,4610.91 5153.00,4610.91
             5121.36,4640.39 5089.35,4669.24 5059.91,4701.00
             5028.75,4734.61 4993.07,4782.97 4993.00,4831.00
             4993.00,4831.00 4993.00,4843.00 4993.00,4843.00
             4993.03,4859.08 4997.95,4878.86 5003.31,4894.00
             5015.98,4929.81 5038.51,4962.99 5063.93,4991.00
             5109.92,5041.69 5170.73,5086.10 5232.00,5116.73
             5254.07,5127.77 5277.09,5137.63 5300.00,5146.80
             5341.02,5163.21 5392.66,5183.20 5430.00,5205.60
             5441.92,5212.75 5468.19,5229.59 5476.00,5240.00
             5476.00,5240.00 5430.00,5247.59 5430.00,5247.59
             5430.00,5247.59 5331.00,5264.28 5331.00,5264.28
             5331.00,5264.28 5317.00,5266.72 5317.00,5266.72
             5317.00,5266.72 5265.00,5272.96 5265.00,5272.96
             5265.00,5272.96 5257.00,5272.96 5257.00,5272.96
             5257.00,5272.96 5238.00,5274.91 5238.00,5274.91
             5238.00,5274.91 5200.00,5278.43 5200.00,5278.43
             5200.00,5278.43 5129.00,5292.58 5129.00,5292.58
             5101.58,5298.60 5073.79,5303.78 5046.00,5307.72
             5046.00,5307.72 4963.00,5317.00 4963.00,5317.00
             4963.00,5317.00 4954.00,5317.00 4954.00,5317.00
             4954.00,5317.00 4871.00,5325.28 4871.00,5325.28
             4871.00,5325.28 4827.00,5333.56 4827.00,5333.56
             4827.00,5333.56 4808.00,5335.63 4808.00,5335.63
             4808.00,5335.63 4794.00,5341.25 4794.00,5341.25
             4784.34,5344.35 4769.13,5346.98 4759.00,5347.00
             4759.00,5347.00 4725.00,5345.74 4725.00,5345.74
             4715.21,5345.39 4697.14,5348.07 4687.00,5349.57
             4687.00,5349.57 4643.00,5355.15 4643.00,5355.15
             4643.00,5355.15 4626.00,5357.00 4626.00,5357.00
             4626.00,5357.00 4616.00,5357.00 4616.00,5357.00
             4605.73,5357.02 4585.59,5362.34 4575.00,5365.12
             4557.20,5369.78 4512.05,5379.92 4495.00,5380.00
             4486.74,5380.04 4473.50,5379.15 4466.00,5381.44
             4459.16,5383.54 4448.86,5391.48 4431.00,5396.57
             4413.35,5401.61 4395.06,5404.10 4377.00,5407.08
             4377.00,5407.08 4329.00,5412.96 4329.00,5412.96
             4329.00,5412.96 4314.00,5412.96 4314.00,5412.96
             4314.00,5412.96 4303.00,5412.00 4303.00,5412.00
             4303.00,5412.00 4281.00,5412.00 4281.00,5412.00
             4269.49,5412.02 4259.14,5418.12 4248.00,5420.58
             4248.00,5420.58 4224.00,5424.15 4224.00,5424.15
             4224.00,5424.15 4214.00,5424.15 4214.00,5424.15
             4214.00,5424.15 4198.00,5430.12 4198.00,5430.12
             4182.88,5434.15 4170.54,5435.18 4155.00,5435.00
             4155.00,5435.00 4140.00,5433.89 4140.00,5433.89
             4140.00,5433.89 4083.00,5433.89 4083.00,5433.89
             4083.00,5433.89 4071.00,5433.89 4071.00,5433.89
             4071.00,5433.89 4024.00,5443.39 4024.00,5443.39
             4012.26,5445.47 4000.89,5446.06 3989.00,5446.00
             3989.00,5446.00 3973.00,5445.00 3973.00,5445.00
             3953.91,5444.97 3940.91,5446.16 3922.00,5441.12
             3914.80,5439.19 3905.49,5434.84 3899.00,5431.13
             3895.93,5429.37 3890.81,5425.47 3888.00,5424.56
             3882.44,5422.75 3865.50,5422.93 3859.00,5423.00
             3859.00,5423.00 3841.00,5424.00 3841.00,5424.00
             3818.25,5423.89 3801.47,5415.84 3782.00,5405.31
             3782.00,5405.31 3761.00,5393.97 3761.00,5393.97
             3743.07,5381.74 3730.83,5365.34 3723.44,5345.00
             3718.13,5330.41 3718.07,5317.15 3718.00,5302.00
             3718.00,5302.00 3717.00,5288.00 3717.00,5288.00
             3716.88,5277.61 3717.47,5269.17 3719.88,5259.00
             3719.88,5259.00 3731.50,5224.00 3731.50,5224.00
             3731.50,5224.00 3730.00,5199.00 3730.00,5199.00
             3730.33,5171.11 3742.67,5156.10 3752.65,5132.00
             3752.65,5132.00 3758.20,5113.00 3758.20,5113.00
             3758.20,5113.00 3772.53,5082.00 3772.53,5082.00
             3772.53,5082.00 3777.75,5062.00 3777.75,5062.00
             3777.75,5062.00 3785.45,5044.00 3785.45,5044.00
             3785.45,5044.00 3789.37,5024.00 3789.37,5024.00
             3792.01,5013.48 3794.98,5012.24 3795.00,5001.00
             3795.00,5001.00 3794.00,4972.00 3794.00,4972.00
             3794.00,4972.00 3794.92,4961.00 3794.92,4961.00
             3794.92,4961.00 3794.05,4953.00 3794.05,4953.00
             3794.05,4953.00 3794.05,4942.00 3794.05,4942.00
             3794.05,4942.00 3795.00,4929.00 3795.00,4929.00
             3795.00,4929.00 3795.00,4910.00 3795.00,4910.00
             3795.00,4910.00 3794.00,4894.00 3794.00,4894.00
             3793.95,4882.82 3793.77,4874.19 3795.28,4863.00
             3796.28,4855.57 3798.32,4844.08 3800.44,4837.00
             3800.44,4837.00 3805.68,4821.00 3805.68,4821.00
             3806.77,4814.42 3805.01,4807.64 3805.00,4801.00
             3804.98,4790.49 3806.53,4780.11 3809.43,4770.00
             3813.30,4756.48 3815.82,4759.39 3816.00,4744.00
             3816.14,4732.34 3820.92,4709.53 3824.15,4698.00
             3824.15,4698.00 3828.55,4683.00 3828.55,4683.00
             3831.31,4669.27 3838.98,4621.32 3839.00,4609.00
             3839.00,4609.00 3839.00,4578.00 3839.00,4578.00
             3839.00,4575.82 3838.91,4573.08 3839.51,4571.00
             3840.39,4567.92 3844.10,4562.84 3846.00,4560.00
             3846.00,4560.00 3860.00,4539.00 3860.00,4539.00
             3860.00,4539.00 3898.14,4475.00 3898.14,4475.00
             3898.14,4475.00 3908.75,4455.00 3908.75,4455.00
             3910.03,4452.46 3912.88,4446.06 3914.49,4444.27
             3917.44,4441.01 3933.07,4434.95 3938.00,4432.69
             3938.00,4432.69 3988.00,4408.75 3988.00,4408.75
             4023.49,4391.01 4058.07,4372.39 4092.00,4351.80
             4092.00,4351.80 4124.00,4331.66 4124.00,4331.66
             4129.68,4327.94 4136.87,4322.35 4142.96,4320.00
             4142.96,4320.00 4142.96,4332.00 4142.96,4332.00
             4142.96,4332.00 4142.00,4342.00 4142.00,4342.00
             4142.00,4342.00 4143.00,4364.00 4143.00,4364.00
             4143.02,4376.66 4147.59,4403.15 4150.42,4416.00
             4169.78,4503.63 4229.52,4587.54 4316.00,4618.31
             4346.09,4629.02 4377.28,4633.91 4409.00,4636.09
             4409.00,4636.09 4419.00,4637.04 4419.00,4637.04
             4419.00,4637.04 4431.00,4637.04 4431.00,4637.04
             4431.00,4637.04 4443.00,4638.00 4443.00,4638.00
             4443.00,4638.00 4473.00,4638.00 4473.00,4638.00
             4473.00,4638.00 4490.00,4637.00 4490.00,4637.00
             4490.00,4637.00 4504.00,4637.00 4504.00,4637.00
             4504.00,4637.00 4524.00,4636.00 4524.00,4636.00
             4524.00,4636.00 4534.00,4635.09 4534.00,4635.09
             4534.00,4635.09 4558.00,4633.17 4558.00,4633.17
             4612.16,4627.75 4673.06,4616.49 4704.56,4567.00
             4729.21,4528.28 4732.32,4474.45 4691.00,4445.44
             4682.85,4439.72 4672.03,4435.43 4662.00,4435.04
             4640.67,4434.20 4624.77,4452.29 4611.00,4466.00
             4600.24,4476.71 4586.38,4487.44 4573.00,4494.69
             4569.40,4496.64 4555.63,4503.47 4552.17,4503.42
             4552.17,4503.42 4537.00,4498.60 4537.00,4498.60
             4512.31,4493.62 4481.64,4481.99 4467.44,4460.00
             4456.74,4443.43 4455.78,4426.02 4456.00,4407.00
             4456.18,4392.17 4461.75,4369.96 4466.95,4356.00
             4477.12,4328.70 4491.57,4302.70 4511.17,4281.00
             4558.09,4229.04 4623.45,4197.28 4668.00,4143.00 Z
           M 5726.00,4143.00
           C 5726.00,4143.00 5803.00,4174.19 5803.00,4174.19
             5851.37,4192.93 5900.32,4210.32 5950.00,4225.28
             6045.70,4254.10 6144.51,4272.65 6243.00,4288.92
             6243.00,4288.92 6537.00,4331.58 6537.00,4331.58
             6537.00,4331.58 6619.00,4345.58 6619.00,4345.58
             6619.00,4345.58 6679.00,4358.00 6679.00,4358.00
             6673.05,4365.55 6655.20,4373.51 6646.00,4377.20
             6626.61,4384.98 6588.63,4394.97 6568.00,4395.00
             6568.00,4395.00 6553.00,4395.00 6553.00,4395.00
             6541.87,4394.98 6527.76,4391.47 6518.00,4386.14
             6511.95,4382.83 6503.88,4376.77 6497.11,4381.70
             6492.60,4384.98 6491.49,4390.28 6494.86,4394.82
             6498.33,4399.49 6503.52,4399.75 6507.30,4405.04
             6507.30,4405.04 6515.25,4422.00 6515.25,4422.00
             6519.62,4430.68 6526.48,4440.90 6533.09,4448.00
             6558.89,4475.74 6588.30,4492.58 6622.00,4508.78
             6640.33,4517.59 6658.67,4526.04 6678.00,4532.49
             6690.74,4536.73 6703.75,4540.45 6717.00,4542.75
             6722.72,4543.74 6735.73,4544.52 6740.00,4547.00
             6727.76,4550.49 6701.84,4566.83 6691.00,4574.58
             6653.45,4601.41 6615.42,4645.82 6574.00,4662.55
             6561.05,4667.78 6547.83,4670.12 6534.00,4671.09
             6534.00,4671.09 6522.00,4671.99 6522.00,4671.99
             6503.20,4671.56 6485.26,4666.73 6467.00,4662.79
             6459.37,4661.15 6451.55,4659.20 6447.18,4668.00
             6443.67,4675.08 6451.20,4681.51 6456.00,4685.56
             6456.00,4685.56 6476.00,4700.88 6476.00,4700.88
             6476.00,4700.88 6499.00,4718.87 6499.00,4718.87
             6543.63,4752.35 6590.27,4773.49 6646.00,4780.08
             6668.36,4782.83 6688.64,4784.01 6711.00,4780.08
             6704.50,4789.08 6694.88,4796.09 6687.00,4804.00
             6687.00,4804.00 6676.91,4815.00 6676.91,4815.00
             6676.91,4815.00 6649.45,4846.00 6649.45,4846.00
             6628.37,4872.38 6610.75,4903.82 6603.42,4937.00
             6597.58,4963.46 6597.96,4975.62 6598.00,5002.00
             6598.00,5002.00 6599.96,5025.00 6599.96,5025.00
             6600.22,5027.41 6601.34,5032.48 6599.96,5034.44
             6598.65,5036.30 6595.10,5036.75 6593.00,5037.21
             6593.00,5037.21 6577.00,5040.41 6577.00,5040.41
             6555.93,5043.95 6532.19,5048.75 6511.00,5049.00
             6500.53,5049.13 6486.93,5056.34 6477.00,5060.19
             6463.16,5065.55 6441.81,5070.98 6427.00,5071.00
             6427.00,5071.00 6393.00,5071.00 6393.00,5071.00
             6379.96,5071.02 6375.45,5075.83 6363.00,5078.87
             6348.47,5082.42 6340.50,5081.98 6326.00,5082.19
             6323.73,5082.00 6321.21,5081.93 6319.00,5082.19
             6319.00,5082.19 6280.00,5096.25 6280.00,5096.25
             6257.26,5103.54 6249.17,5103.72 6226.00,5104.00
             6217.82,5104.10 6204.62,5109.69 6196.00,5112.28
             6180.28,5117.00 6147.63,5125.81 6132.00,5126.16
             6132.00,5126.16 6114.00,5126.16 6114.00,5126.16
             6114.00,5126.16 6085.00,5134.58 6085.00,5134.58
             6085.00,5134.58 6042.00,5140.84 6042.00,5140.84
             6042.00,5140.84 5979.00,5148.42 5979.00,5148.42
             5961.16,5151.64 5926.60,5158.97 5910.00,5158.84
             5910.00,5158.84 5899.00,5158.84 5899.00,5158.84
             5899.00,5158.84 5887.00,5158.84 5887.00,5158.84
             5887.00,5158.84 5842.00,5167.00 5842.00,5167.00
             5842.00,5167.00 5772.00,5181.21 5772.00,5181.21
             5772.00,5181.21 5697.00,5198.15 5697.00,5198.15
             5684.11,5201.68 5656.46,5210.42 5644.00,5211.00
             5641.76,5203.07 5637.67,5196.17 5633.77,5189.00
             5622.49,5168.25 5607.71,5149.67 5592.15,5132.00
             5538.44,5070.99 5470.61,5033.61 5414.00,4977.00
             5383.55,4946.55 5345.47,4898.30 5346.00,4853.00
             5346.21,4835.74 5355.18,4819.92 5365.92,4807.00
             5383.03,4786.43 5411.03,4766.51 5433.00,4750.86
             5468.24,4725.76 5504.59,4702.36 5538.00,4674.75
             5585.77,4635.28 5621.88,4595.47 5657.58,4545.00
             5677.83,4516.37 5694.34,4484.92 5708.70,4453.00
             5708.70,4453.00 5718.58,4428.00 5718.58,4428.00
             5719.52,4425.47 5720.87,4419.68 5723.42,4418.61
             5725.49,4417.74 5728.95,4419.03 5731.00,4419.66
             5731.00,4419.66 5747.00,4424.12 5747.00,4424.12
             5766.25,4429.17 5786.28,4433.06 5806.00,4435.72
             5864.45,4443.60 5931.92,4442.47 5985.00,4413.69
             6006.60,4401.99 6032.99,4379.78 6036.70,4354.00
             6041.49,4320.78 6005.97,4294.29 5977.00,4288.01
             5967.84,4286.03 5961.25,4285.90 5952.00,4286.00
             5932.64,4286.23 5899.69,4295.45 5880.00,4300.12
             5849.13,4307.43 5824.89,4310.55 5794.00,4300.98
             5782.97,4297.56 5770.09,4291.77 5760.00,4286.14
             5757.06,4284.50 5749.59,4280.48 5748.02,4277.79
             5746.66,4275.46 5747.10,4271.69 5746.91,4269.00
             5746.91,4269.00 5746.00,4253.00 5746.00,4253.00
             5745.76,4233.01 5738.86,4194.99 5734.12,4175.00
             5734.12,4175.00 5726.00,4143.00 5726.00,4143.00 Z
           M 2717.00,4340.00
           C 2717.00,4340.00 2719.00,4340.00 2719.00,4340.00
             2719.00,4340.00 2735.63,4363.00 2735.63,4363.00
             2735.63,4363.00 2746.00,4378.00 2746.00,4378.00
             2734.61,4381.88 2735.41,4391.04 2733.75,4401.00
             2733.75,4401.00 2725.00,4469.00 2725.00,4469.00
             2725.00,4469.00 2725.00,4489.00 2725.00,4489.00
             2725.41,4524.16 2749.60,4569.05 2768.31,4598.00
             2778.31,4613.48 2790.92,4632.44 2803.17,4646.00
             2834.37,4680.55 2867.30,4693.28 2911.00,4705.42
             2930.66,4710.89 2950.65,4714.60 2971.00,4716.09
             2971.00,4716.09 2981.00,4717.00 2981.00,4717.00
             3021.13,4717.47 3061.12,4713.82 3101.00,4709.83
             3101.00,4709.83 3159.00,4704.00 3159.00,4704.00
             3158.55,4706.54 3157.81,4709.45 3158.44,4712.00
             3159.66,4716.86 3164.31,4719.83 3169.00,4720.67
             3176.85,4722.09 3192.74,4720.67 3201.00,4720.00
             3198.63,4723.52 3194.87,4724.07 3191.00,4725.60
             3191.00,4725.60 3169.00,4733.67 3169.00,4733.67
             3138.95,4743.78 3109.15,4753.33 3078.00,4759.60
             3052.00,4764.83 3026.38,4768.61 3000.00,4771.17
             3000.00,4771.17 2980.00,4773.00 2980.00,4773.00
             2980.00,4773.00 2961.00,4774.00 2961.00,4774.00
             2961.00,4774.00 2900.00,4774.00 2900.00,4774.00
             2900.00,4774.00 2885.00,4773.00 2885.00,4773.00
             2864.12,4772.76 2814.87,4767.30 2794.00,4763.39
             2775.90,4760.00 2742.96,4752.03 2726.00,4752.00
             2726.00,4752.00 2707.00,4752.00 2707.00,4752.00
             2707.00,4752.00 2677.00,4757.00 2677.00,4757.00
             2671.86,4731.42 2673.04,4725.32 2673.00,4700.00
             2673.00,4700.00 2672.00,4685.00 2672.00,4685.00
             2671.96,4681.47 2672.29,4676.27 2671.37,4673.00
             2671.37,4673.00 2664.88,4656.00 2664.88,4656.00
             2664.88,4656.00 2660.61,4630.00 2660.61,4630.00
             2660.61,4630.00 2656.08,4618.00 2656.08,4618.00
             2656.08,4618.00 2652.21,4603.00 2652.21,4603.00
             2650.61,4595.44 2649.91,4587.72 2650.00,4580.00
             2650.00,4580.00 2651.00,4565.00 2651.00,4565.00
             2651.00,4565.00 2651.00,4540.00 2651.00,4540.00
             2651.00,4537.32 2651.10,4534.61 2650.37,4532.00
             2648.28,4524.63 2640.82,4511.92 2641.93,4504.00
             2642.30,4501.41 2648.24,4489.11 2649.74,4486.00
             2649.74,4486.00 2664.69,4454.00 2664.69,4454.00
             2664.69,4454.00 2697.31,4383.00 2697.31,4383.00
             2697.31,4383.00 2717.00,4340.00 2717.00,4340.00 Z
           M 2737.00,4892.00
           C 2737.00,4892.00 2766.00,4895.72 2766.00,4895.72
             2766.00,4895.72 2811.00,4900.83 2811.00,4900.83
             2811.00,4900.83 2888.00,4907.09 2888.00,4907.09
             2888.00,4907.09 2895.00,4908.00 2895.00,4908.00
             2895.00,4908.00 2905.00,4908.00 2905.00,4908.00
             2905.00,4908.00 2916.00,4909.00 2916.00,4909.00
             2916.00,4909.00 2939.00,4910.00 2939.00,4910.00
             2939.00,4910.00 2953.00,4911.00 2953.00,4911.00
             2953.00,4911.00 2966.00,4911.00 2966.00,4911.00
             2966.00,4911.00 2982.00,4912.00 2982.00,4912.00
             2982.00,4912.00 3012.00,4912.00 3012.00,4912.00
             3012.00,4912.00 3029.00,4913.00 3029.00,4913.00
             3029.00,4913.00 3065.00,4913.00 3065.00,4913.00
             3065.00,4913.00 3080.00,4912.00 3080.00,4912.00
             3080.00,4912.00 3109.00,4912.00 3109.00,4912.00
             3109.00,4912.00 3125.00,4911.00 3125.00,4911.00
             3125.00,4911.00 3157.00,4910.00 3157.00,4910.00
             3156.89,4922.32 3153.69,4933.17 3150.88,4945.00
             3150.88,4945.00 3137.57,4994.00 3137.57,4994.00
             3137.57,4994.00 3124.52,5032.00 3124.52,5032.00
             3123.93,5034.77 3124.00,5037.20 3123.91,5040.00
             3123.91,5040.00 3123.91,5214.00 3123.91,5214.00
             3124.02,5229.04 3126.20,5230.51 3123.91,5248.00
             3123.03,5252.80 3120.21,5264.48 3118.56,5269.00
             3115.91,5276.29 3113.11,5279.01 3113.00,5287.00
             3113.00,5287.00 3113.00,5315.00 3113.00,5315.00
             3113.00,5315.00 3114.00,5328.00 3114.00,5328.00
             3114.11,5337.50 3113.63,5345.67 3111.58,5355.00
             3108.23,5370.19 3103.50,5376.10 3102.38,5381.00
             3102.38,5381.00 3100.85,5393.00 3100.85,5393.00
             3099.57,5403.27 3096.34,5412.77 3091.75,5422.00
             3085.77,5434.04 3078.39,5444.43 3068.00,5453.08
             3041.03,5475.55 3003.51,5483.42 2970.00,5471.92
             2928.19,5457.58 2893.07,5409.46 2893.00,5365.00
             2893.00,5365.00 2893.00,5322.00 2893.00,5322.00
             2892.98,5310.79 2890.49,5310.95 2887.08,5301.00
             2887.08,5301.00 2881.90,5281.00 2881.90,5281.00
             2881.90,5281.00 2874.37,5261.00 2874.37,5261.00
             2874.37,5261.00 2869.62,5225.00 2869.62,5225.00
             2869.62,5225.00 2853.75,5190.00 2853.75,5190.00
             2853.75,5190.00 2849.44,5172.00 2849.44,5172.00
             2849.44,5172.00 2847.63,5159.00 2847.63,5159.00
             2847.63,5159.00 2842.44,5145.00 2842.44,5145.00
             2842.44,5145.00 2838.05,5128.00 2838.05,5128.00
             2832.82,5113.95 2825.49,5101.07 2818.31,5088.00
             2818.31,5088.00 2810.63,5072.00 2810.63,5072.00
             2810.63,5072.00 2799.63,5050.00 2799.63,5050.00
             2799.63,5050.00 2790.86,5033.00 2790.86,5033.00
             2787.53,5025.45 2784.44,5014.18 2783.28,5006.00
             2783.28,5006.00 2781.16,4989.00 2781.16,4989.00
             2781.16,4989.00 2768.31,4965.00 2768.31,4965.00
             2762.29,4951.86 2763.15,4946.29 2760.13,4939.00
             2760.13,4939.00 2737.00,4892.00 2737.00,4892.00 Z
           M 6212.00,5605.42
           C 6269.05,5598.48 6322.32,5642.94 6323.00,5701.00
             6323.13,5712.44 6321.76,5724.07 6318.25,5735.00
             6308.70,5764.79 6284.08,5789.56 6254.00,5798.56
             6235.18,5804.19 6211.66,5804.29 6192.00,5806.17
             6192.00,5806.17 6119.00,5812.83 6119.00,5812.83
             6119.00,5812.83 6018.00,5821.17 6018.00,5821.17
             6018.00,5821.17 5715.00,5847.83 5715.00,5847.83
             5715.00,5847.83 5649.00,5853.17 5649.00,5853.17
             5649.00,5853.17 5506.00,5865.83 5506.00,5865.83
             5506.00,5865.83 5475.00,5868.17 5475.00,5868.17
             5475.00,5868.17 5396.00,5875.00 5396.00,5875.00
             5384.59,5875.02 5372.85,5873.65 5362.00,5869.92
             5319.57,5855.37 5294.49,5817.25 5295.00,5773.00
             5295.49,5731.78 5323.31,5695.35 5362.00,5682.08
             5374.33,5677.85 5387.18,5677.06 5400.00,5675.83
             5400.00,5675.83 5446.00,5671.91 5446.00,5671.91
             5446.00,5671.91 5485.00,5668.17 5485.00,5668.17
             5485.00,5668.17 5520.00,5665.17 5520.00,5665.17
             5520.00,5665.17 5586.00,5659.83 5586.00,5659.83
             5586.00,5659.83 5694.00,5650.17 5694.00,5650.17
             5694.00,5650.17 5748.00,5645.83 5748.00,5645.83
             5748.00,5645.83 5834.00,5638.09 5834.00,5638.09
             5834.00,5638.09 5936.00,5629.17 5936.00,5629.17
             5936.00,5629.17 5967.00,5626.83 5967.00,5626.83
             5967.00,5626.83 6063.00,5618.17 6063.00,5618.17
             6063.00,5618.17 6094.00,5615.83 6094.00,5615.83
             6094.00,5615.83 6167.00,5609.17 6167.00,5609.17
             6167.00,5609.17 6202.00,5606.17 6202.00,5606.17
             6202.00,5606.17 6212.00,5605.42 6212.00,5605.42 Z" />
</svg>
