<?xml version="1.0" encoding="UTF-8" standalone="no"?>
<!DOCTYPE svg PUBLIC "-//W3C//DTD SVG 20010904//EN"
              "http://www.w3.org/TR/2001/REC-SVG-20010904/DTD/svg10.dtd">

<svg xmlns="http://www.w3.org/2000/svg"
     width="16in" height="10.4533in"
     viewBox="0 0 9600 6272">
  <path id="Background Dropshadow"
        fill="none" stroke="black" stroke-width="1"
        d="M 5822.00,342.21
           C 5822.00,342.21 5828.00,342.21 5828.00,342.21
             5855.32,341.68 5881.10,350.96 5900.91,370.17
             5928.35,396.78 5936.86,439.46 5923.95,475.00
             5914.33,501.47 5899.82,512.90 5879.00,530.25
             5879.00,530.25 5841.00,561.92 5841.00,561.92
             5841.00,561.92 5606.00,758.56 5606.00,758.56
             5606.00,758.56 5437.00,899.08 5437.00,899.08
             5437.00,899.08 5183.00,1111.59 5183.00,1111.59
             5183.00,1111.59 5135.00,1151.41 5135.00,1151.41
             5119.12,1164.63 5108.10,1175.03 5088.00,1181.92
             5053.27,1193.84 5010.86,1184.41 4985.17,1157.91
             4965.96,1138.10 4956.68,1112.32 4957.00,1085.00
             4957.29,1060.81 4968.41,1035.37 4985.17,1018.09
             4985.17,1018.09 5014.00,993.72 5014.00,993.72
             5014.00,993.72 5056.00,958.56 5056.00,958.56
             5056.00,958.56 5139.00,889.25 5139.00,889.25
             5139.00,889.25 5615.00,491.59 5615.00,491.59
             5615.00,491.59 5729.00,396.75 5729.00,396.75
             5749.15,379.96 5768.60,359.86 5793.00,349.43
             5803.79,344.81 5810.72,344.06 5822.00,342.21 Z
           M 7807.00,595.00
           C 7828.38,597.88 7845.95,607.05 7862.00,621.29
             7862.00,621.29 7875.17,635.49 7875.17,635.49
             7875.17,635.49 7892.00,643.25 7892.00,643.25
             7902.60,648.52 7908.07,652.46 7917.00,660.29
             7917.00,660.29 7931.04,675.00 7931.04,675.00
             7939.81,684.06 7942.05,684.13 7950.57,696.00
             7950.57,696.00 7961.75,715.00 7961.75,715.00
             7961.75,715.00 7976.55,735.00 7976.55,735.00
             7976.55,735.00 7986.81,756.00 7986.81,756.00
             7986.81,756.00 8002.64,776.00 8002.64,776.00
             8002.64,776.00 8020.74,811.00 8020.74,811.00
             8027.76,825.49 8027.05,832.85 8029.76,838.00
             8029.76,838.00 8037.31,849.00 8037.31,849.00
             8037.31,849.00 8046.62,865.00 8046.62,865.00
             8054.48,876.36 8058.29,879.66 8064.74,893.00
             8068.38,900.52 8070.07,905.86 8071.79,914.00
             8072.77,918.63 8072.75,923.94 8074.97,928.00
             8074.97,928.00 8080.94,937.00 8080.94,937.00
             8080.94,937.00 8095.20,959.00 8095.20,959.00
             8105.89,974.40 8116.03,987.01 8122.56,1005.00
             8126.65,1016.23 8128.14,1029.11 8128.00,1041.00
             8128.00,1041.00 8124.34,1067.00 8124.34,1067.00
             8124.34,1067.00 8128.72,1088.00 8128.72,1088.00
             8129.77,1095.41 8130.08,1099.51 8130.00,1107.00
             8130.00,1107.00 8129.20,1120.00 8129.20,1120.00
             8128.97,1122.86 8128.85,1129.50 8129.20,1132.00
             8130.19,1135.73 8135.28,1144.06 8138.58,1159.00
             8140.39,1167.24 8141.09,1175.58 8141.00,1184.00
             8141.00,1184.00 8140.00,1197.00 8140.00,1197.00
             8140.00,1197.00 8140.00,1214.00 8140.00,1214.00
             8140.11,1221.99 8142.91,1224.71 8145.56,1232.00
             8147.15,1236.36 8149.81,1247.34 8150.56,1252.00
             8151.78,1259.54 8152.09,1265.40 8152.00,1273.00
             8152.00,1273.00 8151.00,1288.00 8151.00,1288.00
             8151.00,1288.00 8151.00,1311.00 8151.00,1311.00
             8151.02,1323.03 8155.09,1324.69 8158.12,1336.00
             8158.12,1336.00 8161.56,1351.00 8161.56,1351.00
             8161.56,1351.00 8163.63,1365.00 8163.63,1365.00
             8163.63,1365.00 8168.56,1378.00 8168.56,1378.00
             8171.77,1388.71 8173.13,1399.85 8173.00,1411.00
             8172.91,1418.79 8170.64,1431.55 8168.25,1439.00
             8164.96,1449.27 8162.02,1449.44 8162.00,1461.00
             8162.00,1461.00 8162.00,1563.00 8162.00,1563.00
             8162.00,1563.00 8163.00,1577.00 8163.00,1577.00
             8163.05,1586.76 8161.81,1596.45 8159.79,1606.00
             8157.23,1618.08 8151.02,1629.56 8151.00,1642.00
             8151.00,1642.00 8151.00,1683.00 8151.00,1683.00
             8151.00,1683.00 8152.00,1704.00 8152.00,1704.00
             8151.79,1721.49 8145.18,1737.46 8140.59,1754.00
             8140.59,1754.00 8137.58,1772.00 8137.58,1772.00
             8137.58,1772.00 8129.15,1804.00 8129.15,1804.00
             8129.15,1804.00 8129.15,1829.00 8129.15,1829.00
             8128.87,1840.22 8124.98,1857.68 8120.57,1868.00
             8117.44,1875.34 8112.17,1883.69 8110.16,1891.00
             8110.16,1891.00 8091.92,1977.00 8091.92,1977.00
             8089.52,1984.00 8084.21,1994.39 8080.59,2001.00
             8080.59,2001.00 8076.01,2009.90 8076.01,2009.90
             8073.90,2012.93 8059.92,2020.53 8055.00,2024.45
             8051.08,2027.57 8046.11,2032.21 8042.00,2034.65
             8042.00,2034.65 8013.00,2048.87 8013.00,2048.87
             8003.22,2054.46 7999.26,2059.52 7992.00,2064.40
             7992.00,2064.40 7975.00,2074.03 7975.00,2074.03
             7969.37,2077.87 7961.85,2083.90 7957.43,2089.00
             7957.43,2089.00 7942.96,2106.48 7942.96,2106.48
             7942.96,2106.48 7924.00,2120.53 7924.00,2120.53
             7924.00,2120.53 7910.00,2128.36 7910.00,2128.36
             7910.00,2128.36 7893.00,2141.40 7893.00,2141.40
             7893.00,2141.40 7878.00,2150.05 7878.00,2150.05
             7878.00,2150.05 7861.00,2162.38 7861.00,2162.38
             7861.00,2162.38 7845.00,2171.69 7845.00,2171.69
             7838.30,2176.01 7831.91,2180.81 7826.00,2186.17
             7826.00,2186.17 7815.91,2196.04 7815.91,2196.04
             7815.91,2196.04 7794.00,2207.25 7794.00,2207.25
             7794.00,2207.25 7767.00,2221.00 7767.00,2221.00
             7767.00,2221.00 7782.97,2187.00 7782.97,2187.00
             7782.97,2187.00 7792.99,2167.00 7792.99,2167.00
             7792.99,2167.00 7799.87,2144.00 7799.87,2144.00
             7799.87,2144.00 7816.92,2107.00 7816.92,2107.00
             7816.92,2107.00 7821.83,2087.00 7821.83,2087.00
             7821.83,2087.00 7835.99,2060.00 7835.99,2060.00
             7839.01,2052.71 7841.31,2044.80 7842.56,2037.00
             7843.14,2033.44 7843.67,2024.77 7845.01,2022.00
             7845.01,2022.00 7855.10,2009.00 7855.10,2009.00
             7860.40,2001.99 7864.63,1994.11 7867.99,1986.00
             7870.79,1979.25 7873.40,1969.24 7874.56,1962.00
             7875.33,1957.24 7875.54,1950.33 7877.36,1946.00
             7877.36,1946.00 7886.69,1928.00 7886.69,1928.00
             7893.10,1914.00 7898.82,1895.46 7899.10,1880.00
             7899.10,1880.00 7899.10,1870.00 7899.10,1870.00
             7899.10,1870.00 7904.25,1856.00 7904.25,1856.00
             7904.25,1856.00 7907.12,1845.00 7907.12,1845.00
             7907.12,1845.00 7911.32,1822.00 7911.32,1822.00
             7913.01,1817.52 7915.03,1814.16 7917.22,1810.00
             7924.51,1796.15 7927.19,1790.34 7930.58,1775.00
             7930.58,1775.00 7945.44,1702.00 7945.44,1702.00
             7945.44,1702.00 7955.57,1680.00 7955.57,1680.00
             7959.98,1669.68 7963.87,1652.22 7964.00,1641.00
             7964.00,1641.00 7964.00,1621.00 7964.00,1621.00
             7964.11,1611.83 7970.35,1594.11 7972.58,1584.00
             7972.58,1584.00 7975.59,1566.00 7975.59,1566.00
             7975.59,1566.00 7985.86,1530.00 7985.86,1530.00
             7988.33,1512.85 7986.02,1511.69 7985.86,1497.00
             7985.86,1497.00 7985.86,1452.00 7985.86,1452.00
             7986.11,1443.28 7990.21,1435.27 7992.57,1427.00
             7995.72,1415.96 7998.13,1401.46 7998.00,1390.00
             7998.00,1390.00 7997.00,1375.00 7997.00,1375.00
             7997.00,1375.00 7997.00,1273.00 7997.00,1273.00
             7997.02,1261.18 8000.40,1260.58 8003.56,1250.00
             8006.45,1240.34 8008.11,1229.07 8008.00,1219.00
             8007.90,1211.03 8005.51,1197.55 8002.92,1190.00
             8002.92,1190.00 7998.63,1179.00 7998.63,1179.00
             7998.63,1179.00 7996.56,1165.00 7996.56,1165.00
             7996.56,1165.00 7992.85,1149.00 7992.85,1149.00
             7989.78,1138.10 7986.02,1136.96 7986.00,1125.00
             7986.00,1125.00 7986.00,1100.00 7986.00,1100.00
             7986.00,1100.00 7987.00,1085.00 7987.00,1085.00
             7987.14,1072.80 7985.06,1060.68 7981.56,1049.00
             7978.40,1038.42 7975.02,1037.82 7975.00,1026.00
             7975.00,1026.00 7975.00,1010.00 7975.00,1010.00
             7975.00,1010.00 7976.00,992.00 7976.00,992.00
             7975.90,983.37 7973.38,970.22 7970.65,962.00
             7967.67,953.05 7964.05,949.62 7964.00,940.00
             7964.00,940.00 7965.00,916.00 7965.00,916.00
             7964.96,906.03 7961.72,889.31 7958.19,880.00
             7958.19,880.00 7952.55,867.00 7952.55,867.00
             7952.55,867.00 7948.25,851.00 7948.25,851.00
             7948.25,851.00 7942.22,836.00 7942.22,836.00
             7942.22,836.00 7937.92,819.00 7937.92,819.00
             7937.92,819.00 7932.38,805.00 7932.38,805.00
             7929.83,793.76 7930.73,786.02 7925.92,772.00
             7924.01,766.42 7919.56,757.06 7916.55,752.00
             7916.55,752.00 7909.00,740.00 7909.00,740.00
             7909.00,740.00 7905.63,723.00 7905.63,723.00
             7903.43,714.22 7898.69,703.70 7893.94,696.00
             7893.94,696.00 7880.96,678.00 7880.96,678.00
             7880.96,678.00 7876.57,670.00 7876.57,670.00
             7871.96,661.94 7866.21,653.80 7859.83,647.04
             7852.88,639.68 7842.93,633.89 7839.32,630.48
             7839.32,630.48 7825.83,614.01 7825.83,614.01
             7825.83,614.01 7807.00,595.00 7807.00,595.00 Z
           M 3326.00,838.00
           C 3338.47,841.61 3346.65,844.02 3358.00,851.06
             3368.57,857.63 3372.59,862.58 3381.09,870.83
             3381.09,870.83 3390.99,880.00 3390.99,880.00
             3390.99,880.00 3400.04,890.00 3400.04,890.00
             3400.04,890.00 3462.04,958.00 3462.04,958.00
             3462.04,958.00 3481.09,979.00 3481.09,979.00
             3481.09,979.00 3533.17,1036.00 3533.17,1036.00
             3544.55,1048.64 3561.40,1065.16 3570.30,1079.00
             3576.22,1088.20 3580.91,1099.35 3583.35,1110.00
             3584.80,1116.35 3585.11,1125.83 3587.71,1131.00
             3587.71,1131.00 3600.80,1151.00 3600.80,1151.00
             3600.80,1151.00 3623.22,1193.00 3623.22,1193.00
             3635.94,1219.93 3660.39,1290.72 3670.03,1321.00
             3670.03,1321.00 3690.58,1385.00 3690.58,1385.00
             3690.58,1385.00 3696.00,1407.00 3696.00,1407.00
             3696.00,1407.00 3698.34,1420.00 3698.34,1420.00
             3698.34,1420.00 3702.56,1432.00 3702.56,1432.00
             3704.98,1440.09 3707.90,1456.65 3707.95,1465.00
             3707.95,1465.00 3707.95,1479.00 3707.95,1479.00
             3707.95,1479.00 3707.00,1491.00 3707.00,1491.00
             3707.00,1491.00 3707.00,1516.00 3707.00,1516.00
             3707.01,1523.24 3707.23,1524.18 3709.81,1531.00
             3710.87,1533.81 3713.22,1538.99 3712.31,1541.91
             3711.30,1545.17 3703.87,1549.95 3701.00,1552.21
             3701.00,1552.21 3672.00,1576.42 3672.00,1576.42
             3654.88,1591.25 3631.32,1615.03 3616.16,1632.00
             3616.16,1632.00 3587.00,1666.00 3587.00,1666.00
             3586.91,1656.54 3584.20,1641.17 3581.57,1632.00
             3581.57,1632.00 3575.20,1615.00 3575.20,1615.00
             3574.83,1612.38 3574.97,1604.11 3575.20,1601.00
             3575.20,1601.00 3576.00,1587.00 3576.00,1587.00
             3576.06,1573.96 3575.74,1566.95 3573.20,1554.00
             3573.20,1554.00 3569.25,1538.00 3569.25,1538.00
             3566.08,1528.10 3564.02,1527.21 3564.00,1516.00
             3564.00,1516.00 3564.00,1481.00 3564.00,1481.00
             3564.00,1481.00 3564.95,1469.00 3564.95,1469.00
             3564.95,1469.00 3564.95,1454.00 3564.95,1454.00
             3564.89,1444.59 3562.01,1431.07 3559.28,1422.00
             3557.01,1414.47 3554.11,1411.11 3554.00,1403.00
             3554.00,1403.00 3554.00,1391.00 3554.00,1391.00
             3553.98,1380.91 3551.36,1365.76 3548.57,1356.00
             3545.43,1344.98 3542.02,1342.01 3542.00,1330.00
             3542.00,1330.00 3542.00,1303.00 3542.00,1303.00
             3542.00,1303.00 3543.00,1279.00 3543.00,1279.00
             3542.90,1270.65 3539.98,1254.09 3537.56,1246.00
             3537.56,1246.00 3533.34,1234.00 3533.34,1234.00
             3533.34,1234.00 3531.00,1221.00 3531.00,1221.00
             3531.00,1221.00 3526.12,1201.00 3526.12,1201.00
             3526.12,1201.00 3515.51,1167.00 3515.51,1167.00
             3515.51,1167.00 3505.69,1137.00 3505.69,1137.00
             3491.60,1096.55 3476.28,1046.30 3458.69,1008.00
             3442.29,972.28 3418.55,936.91 3394.34,906.00
             3382.92,891.42 3364.43,869.30 3351.00,857.17
             3351.00,857.17 3326.00,838.00 3326.00,838.00 Z
           M 9214.00,2110.00
           C 9229.41,2112.17 9242.54,2121.15 9255.00,2129.80
             9262.77,2135.19 9269.97,2139.44 9276.91,2146.17
             9276.91,2146.17 9288.09,2158.83 9288.09,2158.83
             9288.09,2158.83 9298.91,2168.17 9298.91,2168.17
             9298.91,2168.17 9308.00,2177.96 9308.00,2177.96
             9308.00,2177.96 9317.57,2187.01 9317.57,2187.01
             9317.57,2187.01 9335.04,2209.99 9335.04,2209.99
             9335.04,2209.99 9342.91,2217.17 9342.91,2217.17
             9342.91,2217.17 9349.09,2223.83 9349.09,2223.83
             9360.27,2234.71 9371.68,2245.63 9379.94,2259.00
             9383.28,2264.42 9392.28,2284.86 9394.25,2291.00
             9396.93,2299.33 9395.92,2301.25 9400.25,2310.00
             9400.25,2310.00 9407.55,2324.00 9407.55,2324.00
             9407.55,2324.00 9416.10,2335.00 9416.10,2335.00
             9416.10,2335.00 9426.00,2350.00 9426.00,2350.00
             9426.00,2350.00 9436.69,2370.00 9436.69,2370.00
             9436.69,2370.00 9442.17,2382.00 9442.17,2382.00
             9442.17,2382.00 9457.69,2404.00 9457.69,2404.00
             9457.69,2404.00 9465.97,2421.00 9465.97,2421.00
             9465.97,2421.00 9475.14,2439.00 9475.14,2439.00
             9475.14,2439.00 9480.10,2452.00 9480.10,2452.00
             9483.17,2458.14 9490.45,2465.32 9497.80,2484.00
             9503.53,2498.58 9503.13,2512.26 9504.69,2517.00
             9506.03,2521.06 9517.07,2539.02 9521.28,2553.00
             9526.95,2571.84 9527.03,2585.77 9527.00,2605.00
             9527.00,2605.00 9526.00,2620.00 9526.00,2620.00
             9525.96,2624.07 9525.67,2634.60 9526.63,2638.00
             9526.63,2638.00 9543.56,2676.00 9543.56,2676.00
             9546.55,2686.00 9548.98,2698.58 9549.00,2709.00
             9549.00,2709.00 9548.00,2730.00 9548.00,2730.00
             9548.00,2730.00 9548.00,2782.00 9548.00,2782.00
             9548.00,2782.00 9549.00,2797.00 9549.00,2797.00
             9549.14,2809.20 9548.08,2820.24 9544.56,2832.00
             9542.13,2840.12 9538.12,2844.46 9538.00,2853.00
             9537.84,2865.48 9537.19,2874.87 9533.56,2887.00
             9533.56,2887.00 9527.63,2902.00 9527.63,2902.00
             9527.63,2902.00 9523.12,2929.00 9523.12,2929.00
             9520.16,2940.21 9515.02,2945.57 9515.00,2957.00
             9515.00,2957.00 9515.00,2971.00 9515.00,2971.00
             9515.00,2971.00 9516.00,2991.00 9516.00,2991.00
             9515.89,2999.89 9512.99,3014.48 9510.25,3023.00
             9510.25,3023.00 9505.19,3036.00 9505.19,3036.00
             9504.81,3038.72 9505.03,3043.99 9505.19,3047.00
             9504.90,3055.27 9502.39,3069.22 9499.56,3077.00
             9499.56,3077.00 9492.60,3093.00 9492.60,3093.00
             9492.60,3093.00 9487.25,3114.00 9487.25,3114.00
             9487.25,3114.00 9471.16,3151.00 9471.16,3151.00
             9471.16,3151.00 9471.16,3160.00 9471.16,3160.00
             9470.90,3167.98 9468.51,3181.44 9465.92,3189.00
             9465.92,3189.00 9458.91,3206.00 9458.91,3206.00
             9458.91,3206.00 9454.56,3222.00 9454.56,3222.00
             9454.56,3222.00 9448.62,3236.00 9448.62,3236.00
             9448.62,3236.00 9443.92,3256.00 9443.92,3256.00
             9443.92,3256.00 9437.55,3271.00 9437.55,3271.00
             9437.55,3271.00 9431.40,3292.00 9431.40,3292.00
             9431.40,3292.00 9421.37,3312.00 9421.37,3312.00
             9421.37,3312.00 9415.75,3324.00 9415.75,3324.00
             9415.75,3324.00 9410.37,3335.00 9410.37,3335.00
             9410.37,3335.00 9404.46,3354.00 9404.46,3354.00
             9404.46,3354.00 9402.58,3366.00 9402.58,3366.00
             9402.58,3366.00 9394.00,3396.00 9394.00,3396.00
             9394.00,3396.00 9379.80,3433.00 9379.80,3433.00
             9379.80,3433.00 9373.39,3449.00 9373.39,3449.00
             9373.39,3449.00 9372.83,3456.00 9372.83,3456.00
             9372.28,3461.70 9371.44,3467.43 9370.12,3473.00
             9370.12,3473.00 9366.92,3485.00 9366.92,3485.00
             9366.92,3485.00 9362.39,3497.00 9362.39,3497.00
             9359.89,3508.50 9360.95,3516.47 9356.19,3529.00
             9350.76,3543.27 9341.57,3556.48 9340.08,3560.00
             9339.04,3562.48 9337.74,3575.97 9333.80,3586.00
             9333.80,3586.00 9317.78,3617.00 9317.78,3617.00
             9317.78,3617.00 9310.80,3643.00 9310.80,3643.00
             9310.80,3643.00 9300.37,3664.00 9300.37,3664.00
             9300.37,3664.00 9290.60,3684.00 9290.60,3684.00
             9290.60,3684.00 9270.74,3726.00 9270.74,3726.00
             9270.74,3726.00 9243.58,3772.00 9243.58,3772.00
             9243.58,3772.00 9234.37,3786.00 9234.37,3786.00
             9224.72,3804.87 9227.93,3805.30 9222.40,3819.00
             9214.85,3837.69 9208.18,3842.84 9205.10,3849.00
             9205.10,3849.00 9201.25,3862.00 9201.25,3862.00
             9199.40,3867.77 9195.63,3875.65 9192.69,3881.00
             9189.33,3887.11 9181.86,3897.03 9176.91,3901.83
             9173.02,3905.60 9168.35,3908.18 9165.68,3913.04
             9165.68,3913.04 9155.75,3934.00 9155.75,3934.00
             9155.75,3934.00 9146.90,3950.00 9146.90,3950.00
             9146.90,3950.00 9142.14,3962.00 9142.14,3962.00
             9137.05,3973.50 9130.89,3984.77 9123.57,3995.00
             9123.57,3995.00 9075.92,4055.00 9075.92,4055.00
             9075.92,4055.00 9063.96,4068.99 9063.96,4068.99
             9061.07,4071.94 9057.51,4074.43 9055.41,4078.04
             9055.41,4078.04 9051.74,4086.00 9051.74,4086.00
             9051.74,4086.00 9039.55,4110.00 9039.55,4110.00
             9039.55,4110.00 9024.60,4130.00 9024.60,4130.00
             9024.60,4130.00 9015.31,4146.00 9015.31,4146.00
             9015.31,4146.00 9004.09,4161.00 9004.09,4161.00
             9004.09,4161.00 8992.66,4180.00 8992.66,4180.00
             8992.66,4180.00 8979.93,4197.00 8979.93,4197.00
             8979.93,4197.00 8969.64,4215.00 8969.64,4215.00
             8962.73,4225.43 8949.09,4239.78 8939.00,4247.00
             8939.00,4247.00 8956.28,4195.00 8956.28,4195.00
             8972.82,4140.09 8985.91,4077.76 8994.27,4021.00
             8998.74,3990.67 9002.00,3960.55 9004.09,3930.00
             9004.09,3930.00 9005.00,3920.00 9005.00,3920.00
             9005.00,3920.00 9006.00,3901.00 9006.00,3901.00
             9006.00,3901.00 9006.00,3883.00 9006.00,3883.00
             9006.00,3883.00 9007.00,3863.00 9007.00,3863.00
             9007.00,3863.00 9006.00,3848.00 9006.00,3848.00
             9006.00,3848.00 9006.00,3831.00 9006.00,3831.00
             9006.00,3831.00 9005.00,3814.00 9005.00,3814.00
             9005.00,3814.00 9004.09,3803.00 9004.09,3803.00
             9004.09,3803.00 8999.85,3759.00 8999.85,3759.00
             8999.17,3753.35 8996.13,3738.47 8997.07,3734.00
             8999.34,3723.26 9004.92,3720.91 9011.91,3713.91
             9014.99,3710.83 9020.71,3703.67 9023.28,3700.00
             9027.98,3693.29 9033.26,3682.77 9035.92,3675.00
             9035.92,3675.00 9039.63,3662.00 9039.63,3662.00
             9039.63,3662.00 9051.74,3643.00 9051.74,3643.00
             9055.07,3636.58 9058.24,3630.01 9060.12,3623.00
             9060.12,3623.00 9062.60,3613.00 9062.60,3613.00
             9062.60,3613.00 9069.37,3598.00 9069.37,3598.00
             9069.37,3598.00 9079.19,3583.00 9079.19,3583.00
             9079.19,3583.00 9104.69,3540.00 9104.69,3540.00
             9104.69,3540.00 9125.60,3496.00 9125.60,3496.00
             9125.60,3496.00 9135.37,3476.00 9135.37,3476.00
             9135.37,3476.00 9145.80,3455.00 9145.80,3455.00
             9145.80,3455.00 9152.78,3429.00 9152.78,3429.00
             9152.78,3429.00 9168.80,3398.00 9168.80,3398.00
             9173.31,3386.51 9173.78,3375.70 9174.70,3373.00
             9175.74,3369.92 9179.32,3365.17 9181.13,3362.00
             9184.43,3356.22 9190.25,3344.24 9192.25,3338.00
             9192.25,3338.00 9197.39,3309.00 9197.39,3309.00
             9198.29,3304.84 9203.38,3295.81 9206.39,3279.00
             9206.39,3279.00 9208.63,3260.00 9208.63,3260.00
             9208.63,3260.00 9229.33,3207.00 9229.33,3207.00
             9229.33,3207.00 9237.35,3179.00 9237.35,3179.00
             9240.83,3163.83 9238.49,3166.91 9244.67,3149.00
             9244.67,3149.00 9266.40,3104.00 9266.40,3104.00
             9266.40,3104.00 9272.55,3083.00 9272.55,3083.00
             9272.55,3083.00 9278.92,3068.00 9278.92,3068.00
             9278.92,3068.00 9283.62,3048.00 9283.62,3048.00
             9283.62,3048.00 9289.56,3034.00 9289.56,3034.00
             9289.56,3034.00 9293.91,3018.00 9293.91,3018.00
             9293.91,3018.00 9300.92,3001.00 9300.92,3001.00
             9303.51,2993.44 9305.90,2979.98 9306.16,2972.00
             9306.16,2972.00 9306.16,2963.00 9306.16,2963.00
             9306.16,2963.00 9322.25,2926.00 9322.25,2926.00
             9322.25,2926.00 9327.60,2905.00 9327.60,2905.00
             9327.60,2905.00 9334.56,2889.00 9334.56,2889.00
             9337.39,2881.22 9339.90,2867.27 9340.00,2859.00
             9340.00,2859.00 9340.00,2853.00 9340.00,2853.00
             9340.11,2844.87 9342.88,2842.39 9345.25,2835.00
             9347.99,2826.49 9350.89,2811.89 9351.00,2803.00
             9351.00,2803.00 9350.00,2786.00 9350.00,2786.00
             9350.00,2786.00 9350.00,2769.00 9350.00,2769.00
             9350.02,2757.40 9354.43,2753.97 9357.57,2743.00
             9357.57,2743.00 9362.63,2714.00 9362.63,2714.00
             9362.63,2714.00 9367.92,2701.00 9367.92,2701.00
             9370.51,2693.44 9372.90,2679.97 9373.00,2672.00
             9373.04,2668.31 9372.69,2662.35 9373.63,2659.00
             9373.63,2659.00 9379.85,2643.00 9379.85,2643.00
             9382.84,2632.33 9384.13,2622.06 9384.00,2611.00
             9384.00,2611.00 9383.00,2596.00 9383.00,2596.00
             9383.00,2596.00 9383.00,2540.00 9383.00,2540.00
             9383.00,2540.00 9384.00,2522.00 9384.00,2522.00
             9383.93,2507.03 9379.17,2489.64 9373.14,2476.00
             9373.14,2476.00 9361.19,2451.00 9361.19,2451.00
             9360.93,2448.88 9361.00,2446.19 9361.19,2444.00
             9361.19,2444.00 9362.00,2401.00 9362.00,2401.00
             9361.84,2387.80 9357.48,2368.08 9352.14,2356.00
             9352.14,2356.00 9339.69,2331.00 9339.69,2331.00
             9338.35,2326.91 9338.23,2312.85 9333.56,2300.00
             9326.75,2281.24 9318.44,2272.68 9315.10,2266.00
             9315.10,2266.00 9310.14,2253.00 9310.14,2253.00
             9310.14,2253.00 9292.13,2217.00 9292.13,2217.00
             9286.87,2207.80 9281.79,2203.47 9278.33,2198.00
             9278.33,2198.00 9270.74,2182.00 9270.74,2182.00
             9265.70,2171.58 9259.94,2161.48 9253.28,2152.00
             9240.04,2133.18 9223.84,2123.74 9214.00,2110.00 Z
           M 3640.00,2326.00
           C 3646.16,2330.45 3655.27,2341.96 3661.04,2348.00
             3661.04,2348.00 3686.00,2373.99 3686.00,2373.99
             3686.00,2373.99 3702.00,2389.00 3702.00,2389.00
             3702.00,2389.00 3716.98,2402.92 3716.98,2402.92
             3718.68,2404.55 3721.26,2406.52 3721.27,2409.09
             3721.28,2411.57 3718.07,2415.90 3716.67,2418.00
             3713.28,2423.09 3703.79,2437.23 3698.96,2439.83
             3695.93,2441.46 3690.02,2441.32 3684.09,2446.39
             3677.66,2451.88 3678.30,2457.34 3676.07,2460.83
             3674.38,2463.46 3663.95,2471.52 3661.00,2472.12
             3659.39,2472.65 3655.00,2472.09 3653.00,2472.12
             3653.00,2472.12 3641.00,2367.00 3641.00,2367.00
             3641.00,2367.00 3641.00,2341.00 3641.00,2341.00
             3641.00,2341.00 3640.00,2326.00 3640.00,2326.00 Z
           M 3370.00,4884.00
           C 3370.93,4889.23 3367.01,4892.74 3366.21,4898.00
             3365.02,4905.86 3367.04,4916.57 3367.00,4925.00
             3366.91,4944.41 3361.04,4959.06 3355.72,4977.00
             3355.72,4977.00 3350.25,5003.00 3350.25,5003.00
             3350.25,5003.00 3342.60,5022.00 3342.60,5022.00
             3342.60,5022.00 3338.56,5038.00 3338.56,5038.00
             3338.56,5038.00 3332.55,5053.00 3332.55,5053.00
             3332.55,5053.00 3328.56,5069.00 3328.56,5069.00
             3328.56,5069.00 3323.39,5083.00 3323.39,5083.00
             3323.39,5083.00 3322.83,5094.00 3322.83,5094.00
             3322.83,5094.00 3320.56,5112.00 3320.56,5112.00
             3320.56,5112.00 3307.56,5165.00 3307.56,5165.00
             3307.56,5165.00 3294.26,5205.00 3294.26,5205.00
             3291.06,5214.86 3289.02,5215.88 3288.91,5227.00
             3288.91,5227.00 3288.91,5401.00 3288.91,5401.00
             3289.02,5416.04 3291.20,5417.51 3288.91,5435.00
             3288.03,5439.80 3285.21,5451.48 3283.56,5456.00
             3280.91,5463.29 3278.11,5466.01 3278.00,5474.00
             3278.00,5474.00 3278.00,5500.00 3278.00,5500.00
             3278.00,5500.00 3279.00,5521.00 3279.00,5521.00
             3279.00,5521.00 3277.51,5541.00 3277.51,5541.00
             3278.51,5556.68 3277.94,5568.75 3273.57,5584.00
             3268.38,5602.14 3259.18,5614.82 3246.00,5628.00
             3221.45,5652.55 3199.14,5664.41 3164.00,5664.00
             3139.65,5663.71 3115.83,5653.03 3098.04,5636.71
             3098.04,5636.71 3083.00,5620.09 3083.00,5620.09
             3083.00,5620.09 3076.17,5613.91 3076.17,5613.91
             3076.17,5613.91 3066.00,5603.09 3066.00,5603.09
             3050.09,5588.24 3033.06,5574.10 3019.45,5557.00
             3019.45,5557.00 3000.87,5529.00 3000.87,5529.00
             3000.87,5529.00 2994.07,5516.00 2994.07,5516.00
             2994.07,5516.00 2984.41,5502.04 2984.41,5502.04
             2980.83,5496.86 2972.39,5492.36 2967.00,5487.92
             2957.68,5480.23 2948.96,5470.11 2944.00,5459.00
             2944.00,5459.00 2965.00,5469.57 2965.00,5469.57
             2977.36,5474.86 2991.60,5477.15 3005.00,5477.00
             3044.68,5476.53 3079.19,5450.98 3094.57,5415.00
             3101.78,5398.14 3099.35,5393.31 3102.38,5380.00
             3103.50,5375.10 3108.23,5369.19 3111.58,5354.00
             3113.32,5346.09 3114.04,5338.08 3114.00,5330.00
             3114.00,5330.00 3113.00,5314.00 3113.00,5314.00
             3113.00,5314.00 3113.00,5288.00 3113.00,5288.00
             3113.02,5276.79 3115.51,5276.95 3118.92,5267.00
             3118.92,5267.00 3122.58,5253.00 3122.58,5253.00
             3124.21,5245.57 3125.08,5237.60 3125.00,5230.00
             3125.00,5230.00 3124.11,5215.00 3124.11,5215.00
             3124.11,5215.00 3124.11,5039.00 3124.11,5039.00
             3124.00,5036.71 3123.95,5034.26 3124.11,5032.00
             3124.11,5032.00 3137.92,4992.00 3137.92,4992.00
             3137.92,4992.00 3150.88,4944.00 3150.88,4944.00
             3153.56,4932.72 3156.74,4921.69 3157.00,4910.00
             3157.00,4910.00 3169.00,4909.00 3169.00,4909.00
             3169.00,4909.00 3183.00,4908.00 3183.00,4908.00
             3183.00,4908.00 3192.00,4908.00 3192.00,4908.00
             3192.00,4908.00 3222.00,4905.17 3222.00,4905.17
             3222.00,4905.17 3307.00,4895.42 3307.00,4895.42
             3319.33,4893.51 3360.61,4887.43 3370.00,4884.00 Z
           M 6601.00,5035.00
           C 6601.00,5035.00 6608.63,5073.00 6608.63,5073.00
             6608.63,5073.00 6614.79,5098.00 6614.79,5098.00
             6616.64,5106.56 6618.16,5115.22 6624.32,5121.90
             6630.20,5128.26 6638.30,5129.26 6644.47,5122.67
             6649.61,5117.19 6653.59,5099.26 6657.01,5091.00
             6665.35,5070.89 6675.63,5056.54 6689.59,5040.00
             6694.00,5034.77 6702.15,5024.77 6708.00,5022.00
             6708.00,5022.00 6708.00,5026.00 6708.00,5026.00
             6708.04,5051.73 6725.05,5078.54 6740.60,5098.00
             6749.19,5108.75 6759.83,5119.92 6771.00,5127.99
             6779.82,5134.36 6785.30,5137.63 6796.00,5140.11
             6796.00,5140.11 6806.00,5141.83 6806.00,5141.83
             6812.10,5142.43 6813.31,5141.12 6817.03,5147.02
             6817.72,5148.11 6818.71,5149.76 6819.06,5151.00
             6820.10,5154.71 6816.65,5161.27 6815.34,5165.00
             6815.34,5165.00 6805.88,5197.00 6805.88,5197.00
             6805.07,5200.45 6804.42,5208.71 6801.57,5210.61
             6801.57,5210.61 6793.00,5213.86 6793.00,5213.86
             6780.19,5219.14 6780.19,5218.83 6767.00,5222.13
             6767.00,5222.13 6717.00,5231.42 6717.00,5231.42
             6717.00,5231.42 6682.00,5236.00 6682.00,5236.00
             6682.00,5236.00 6676.00,5236.00 6676.00,5236.00
             6664.44,5236.14 6640.91,5248.44 6627.00,5252.12
             6595.51,5260.43 6587.15,5257.63 6556.00,5258.00
             6546.50,5258.12 6542.50,5261.53 6534.00,5264.25
             6525.38,5267.02 6513.05,5268.99 6504.00,5269.00
             6504.00,5269.00 6491.00,5269.00 6491.00,5269.00
             6480.76,5269.02 6479.35,5271.19 6470.00,5274.33
             6470.00,5274.33 6431.00,5287.12 6431.00,5287.12
             6415.64,5291.15 6408.44,5290.98 6393.00,5291.00
             6390.20,5291.00 6387.77,5290.93 6385.00,5291.52
             6385.00,5291.52 6371.00,5296.26 6371.00,5296.26
             6371.00,5296.26 6353.00,5301.58 6353.00,5301.58
             6336.42,5306.19 6311.90,5312.97 6295.00,5313.00
             6295.00,5313.00 6284.00,5313.00 6284.00,5313.00
             6284.00,5313.00 6250.00,5321.58 6250.00,5321.58
             6250.00,5321.58 6190.00,5329.83 6190.00,5329.83
             6190.00,5329.83 6123.00,5339.08 6123.00,5339.08
             6109.09,5341.53 6091.01,5345.83 6077.00,5346.00
             6077.00,5346.00 6062.00,5346.00 6062.00,5346.00
             6062.00,5346.00 6053.00,5345.46 6053.00,5345.46
             6053.00,5345.46 6025.00,5350.60 6025.00,5350.60
             6025.00,5350.60 5977.00,5360.00 5977.00,5360.00
             5977.00,5360.00 5911.00,5373.79 5911.00,5373.79
             5911.00,5373.79 5880.00,5380.47 5880.00,5380.47
             5880.00,5380.47 5838.00,5392.12 5838.00,5392.12
             5838.00,5392.12 5804.00,5399.79 5804.00,5399.79
             5804.00,5399.79 5735.00,5411.43 5735.00,5411.43
             5735.00,5411.43 5636.00,5427.44 5636.00,5427.44
             5636.00,5427.44 5522.00,5447.08 5522.00,5447.08
             5522.00,5447.08 5482.00,5453.72 5482.00,5453.72
             5482.00,5453.72 5430.00,5459.83 5430.00,5459.83
             5430.00,5459.83 5396.00,5462.17 5396.00,5462.17
             5396.00,5462.17 5348.00,5468.25 5348.00,5468.25
             5348.00,5468.25 5293.00,5479.79 5293.00,5479.79
             5293.00,5479.79 5211.00,5494.72 5211.00,5494.72
             5211.00,5494.72 5128.00,5504.00 5128.00,5504.00
             5128.00,5504.00 5119.00,5504.00 5119.00,5504.00
             5119.00,5504.00 5036.00,5512.28 5036.00,5512.28
             5036.00,5512.28 4992.00,5520.56 4992.00,5520.56
             4992.00,5520.56 4973.00,5522.63 4973.00,5522.63
             4973.00,5522.63 4959.00,5528.25 4959.00,5528.25
             4949.34,5531.35 4934.13,5533.98 4924.00,5534.00
             4924.00,5534.00 4890.00,5532.74 4890.00,5532.74
             4880.21,5532.39 4862.14,5535.07 4852.00,5536.57
             4852.00,5536.57 4808.00,5542.15 4808.00,5542.15
             4808.00,5542.15 4791.00,5544.00 4791.00,5544.00
             4791.00,5544.00 4781.00,5544.00 4781.00,5544.00
             4770.32,5544.02 4765.03,5546.36 4755.00,5548.58
             4755.00,5548.58 4703.00,5560.58 4703.00,5560.58
             4691.00,5563.23 4670.99,5566.98 4659.00,5567.00
             4659.00,5567.00 4641.00,5567.00 4641.00,5567.00
             4627.73,5567.16 4617.15,5575.99 4605.00,5580.58
             4591.33,5585.74 4565.85,5590.54 4551.00,5592.73
             4551.00,5592.73 4494.00,5599.96 4494.00,5599.96
             4494.00,5599.96 4479.00,5599.96 4479.00,5599.96
             4479.00,5599.96 4469.00,5599.00 4469.00,5599.00
             4469.00,5599.00 4445.00,5599.00 4445.00,5599.00
             4435.13,5599.05 4421.99,5606.07 4409.00,5608.39
             4409.00,5608.39 4390.00,5610.83 4390.00,5610.83
             4390.00,5610.83 4379.00,5611.39 4379.00,5611.39
             4379.00,5611.39 4365.00,5616.56 4365.00,5616.56
             4355.54,5619.39 4339.84,5621.98 4330.00,5621.96
             4330.00,5621.96 4317.00,5621.96 4317.00,5621.96
             4317.00,5621.96 4305.00,5620.89 4305.00,5620.89
             4305.00,5620.89 4246.00,5620.89 4246.00,5620.89
             4246.00,5620.89 4236.00,5620.89 4236.00,5620.89
             4236.00,5620.89 4190.00,5630.20 4190.00,5630.20
             4177.75,5632.51 4165.43,5633.14 4153.00,5633.00
             4153.00,5633.00 4138.00,5632.00 4138.00,5632.00
             4124.66,5631.98 4111.22,5632.69 4098.00,5630.56
             4084.56,5628.40 4075.12,5623.54 4073.00,5623.16
             4068.82,5622.41 4059.47,5628.04 4055.00,5629.80
             4046.41,5633.17 4032.23,5635.89 4023.00,5636.00
             4012.08,5636.12 4000.42,5634.60 3990.00,5631.25
             3990.00,5631.25 3976.00,5625.62 3976.00,5625.62
             3976.00,5625.62 3962.00,5622.63 3962.00,5622.63
             3962.00,5622.63 3950.00,5618.75 3950.00,5618.75
             3937.13,5614.62 3928.71,5612.42 3917.00,5604.64
             3899.47,5593.01 3892.01,5580.99 3878.00,5570.01
             3865.50,5560.23 3855.12,5560.15 3837.00,5544.70
             3825.76,5535.12 3814.65,5522.56 3805.45,5511.00
             3805.45,5511.00 3797.48,5500.04 3797.48,5500.04
             3797.48,5500.04 3790.17,5492.91 3790.17,5492.91
             3790.17,5492.91 3782.66,5484.00 3782.66,5484.00
             3777.27,5477.04 3775.73,5472.72 3771.46,5466.00
             3763.80,5453.95 3756.34,5441.51 3751.44,5428.00
             3747.56,5417.34 3747.48,5406.94 3745.68,5396.00
             3745.68,5396.00 3741.00,5376.00 3741.00,5376.00
             3741.00,5376.00 3758.00,5391.10 3758.00,5391.10
             3767.66,5398.41 3773.01,5399.91 3783.00,5405.31
             3801.90,5415.53 3818.93,5423.74 3841.00,5424.00
             3841.00,5424.00 3858.00,5423.00 3858.00,5423.00
             3858.00,5423.00 3875.00,5423.00 3875.00,5423.00
             3877.42,5423.03 3887.02,5423.91 3889.00,5424.56
             3891.81,5425.47 3896.16,5428.85 3899.00,5430.55
             3904.06,5433.56 3913.42,5438.01 3919.00,5439.92
             3937.22,5446.17 3955.14,5444.97 3974.00,5445.00
             3974.00,5445.00 3990.00,5446.00 3990.00,5446.00
             4002.01,5446.06 4009.13,5445.40 4021.00,5443.72
             4021.00,5443.72 4071.00,5433.47 4071.00,5433.47
             4071.00,5433.47 4084.00,5434.00 4084.00,5434.00
             4084.00,5434.00 4141.00,5434.00 4141.00,5434.00
             4141.00,5434.00 4156.00,5435.00 4156.00,5435.00
             4170.41,5435.16 4183.03,5433.85 4197.00,5430.12
             4197.00,5430.12 4213.00,5424.15 4213.00,5424.15
             4213.00,5424.15 4223.00,5424.15 4223.00,5424.15
             4223.00,5424.15 4247.00,5420.58 4247.00,5420.58
             4258.14,5418.12 4268.49,5412.02 4280.00,5412.00
             4280.00,5412.00 4303.00,5412.00 4303.00,5412.00
             4303.00,5412.00 4315.00,5412.95 4315.00,5412.95
             4315.00,5412.95 4330.00,5412.95 4330.00,5412.95
             4330.00,5412.95 4376.00,5407.08 4376.00,5407.08
             4394.06,5404.10 4412.35,5401.61 4430.00,5396.57
             4447.86,5391.48 4458.16,5383.54 4465.00,5381.44
             4472.50,5379.15 4485.74,5380.04 4494.00,5380.00
             4511.05,5379.92 4556.20,5369.78 4574.00,5365.12
             4584.59,5362.34 4604.73,5357.02 4615.00,5357.00
             4615.00,5357.00 4625.00,5357.00 4625.00,5357.00
             4625.00,5357.00 4650.00,5354.15 4650.00,5354.15
             4650.00,5354.15 4722.00,5345.84 4722.00,5345.84
             4722.00,5345.84 4729.00,5345.84 4729.00,5345.84
             4729.00,5345.84 4740.00,5345.84 4740.00,5345.84
             4740.00,5345.84 4750.00,5347.00 4750.00,5347.00
             4764.56,5347.17 4777.98,5345.76 4792.00,5341.56
             4792.00,5341.56 4808.00,5335.39 4808.00,5335.39
             4808.00,5335.39 4826.00,5333.56 4826.00,5333.56
             4826.00,5333.56 4870.00,5325.28 4870.00,5325.28
             4870.00,5325.28 4953.00,5317.00 4953.00,5317.00
             4953.00,5317.00 4962.00,5317.00 4962.00,5317.00
             4999.79,5313.23 5037.53,5309.24 5075.00,5302.92
             5075.00,5302.92 5128.00,5292.58 5128.00,5292.58
             5148.74,5288.02 5180.70,5280.37 5201.00,5278.16
             5201.00,5278.16 5255.00,5273.04 5255.00,5273.04
             5255.00,5273.04 5263.00,5273.04 5263.00,5273.04
             5263.00,5273.04 5284.00,5270.72 5284.00,5270.72
             5284.00,5270.72 5398.00,5252.92 5398.00,5252.92
             5398.00,5252.92 5453.00,5243.41 5453.00,5243.41
             5457.59,5242.64 5472.47,5239.35 5476.00,5240.60
             5479.12,5241.71 5482.63,5245.64 5485.00,5248.00
             5485.00,5248.00 5500.73,5265.00 5500.73,5265.00
             5518.57,5285.92 5534.74,5310.95 5554.00,5330.00
             5564.57,5340.44 5578.39,5350.57 5594.00,5349.96
             5609.11,5349.37 5622.30,5339.49 5631.33,5328.00
             5643.77,5312.18 5653.97,5281.17 5654.00,5261.00
             5654.00,5261.00 5654.00,5251.00 5654.00,5251.00
             5653.81,5235.26 5648.22,5225.11 5645.00,5211.00
             5645.00,5211.00 5658.00,5208.21 5658.00,5208.21
             5658.00,5208.21 5714.00,5193.47 5714.00,5193.47
             5714.00,5193.47 5763.00,5183.00 5763.00,5183.00
             5763.00,5183.00 5818.00,5171.45 5818.00,5171.45
             5818.00,5171.45 5864.00,5162.60 5864.00,5162.60
             5868.95,5161.61 5886.09,5158.03 5890.00,5158.32
             5890.00,5158.32 5909.00,5159.00 5909.00,5159.00
             5925.60,5158.97 5960.16,5151.64 5978.00,5148.42
             5978.00,5148.42 6042.00,5140.72 6042.00,5140.72
             6042.00,5140.72 6084.00,5134.58 6084.00,5134.58
             6084.00,5134.58 6113.00,5126.16 6113.00,5126.16
             6113.00,5126.16 6131.00,5126.16 6131.00,5126.16
             6146.52,5125.81 6180.41,5116.77 6196.00,5111.98
             6206.23,5108.83 6216.21,5104.02 6227.00,5104.00
             6247.53,5103.97 6260.26,5102.67 6280.00,5095.92
             6280.00,5095.92 6318.00,5082.19 6318.00,5082.19
             6320.21,5081.93 6322.73,5082.00 6325.00,5082.19
             6336.76,5081.98 6345.21,5082.38 6357.00,5080.00
             6357.00,5080.00 6369.00,5076.92 6369.00,5076.92
             6379.26,5073.41 6380.35,5071.02 6392.00,5071.00
             6421.78,5070.95 6431.26,5072.97 6461.00,5065.12
             6461.00,5065.12 6505.00,5049.16 6505.00,5049.16
             6505.00,5049.16 6516.00,5049.16 6516.00,5049.16
             6516.00,5049.16 6551.00,5044.42 6551.00,5044.42
             6567.66,5041.84 6584.78,5039.69 6601.00,5035.00 Z
           M 6212.00,5605.42
           C 6269.05,5598.48 6322.32,5642.94 6323.00,5701.00
             6323.13,5712.44 6321.76,5724.07 6318.25,5735.00
             6308.70,5764.79 6284.08,5789.56 6254.00,5798.56
             6235.18,5804.19 6211.66,5804.29 6192.00,5806.17
             6192.00,5806.17 6119.00,5812.83 6119.00,5812.83
             6119.00,5812.83 6018.00,5821.17 6018.00,5821.17
             6018.00,5821.17 5715.00,5847.83 5715.00,5847.83
             5715.00,5847.83 5649.00,5853.17 5649.00,5853.17
             5649.00,5853.17 5506.00,5865.83 5506.00,5865.83
             5506.00,5865.83 5475.00,5868.17 5475.00,5868.17
             5475.00,5868.17 5396.00,5875.00 5396.00,5875.00
             5384.59,5875.02 5372.85,5873.65 5362.00,5869.92
             5319.57,5855.37 5294.49,5817.25 5295.00,5773.00
             5295.49,5731.78 5323.31,5695.35 5362.00,5682.08
             5374.33,5677.85 5387.18,5677.06 5400.00,5675.83
             5400.00,5675.83 5446.00,5671.91 5446.00,5671.91
             5446.00,5671.91 5485.00,5668.17 5485.00,5668.17
             5485.00,5668.17 5520.00,5665.17 5520.00,5665.17
             5520.00,5665.17 5586.00,5659.83 5586.00,5659.83
             5586.00,5659.83 5694.00,5650.17 5694.00,5650.17
             5694.00,5650.17 5748.00,5645.83 5748.00,5645.83
             5748.00,5645.83 5834.00,5638.09 5834.00,5638.09
             5834.00,5638.09 5936.00,5629.17 5936.00,5629.17
             5936.00,5629.17 5967.00,5626.83 5967.00,5626.83
             5967.00,5626.83 6063.00,5618.17 6063.00,5618.17
             6063.00,5618.17 6094.00,5615.83 6094.00,5615.83
             6094.00,5615.83 6167.00,5609.17 6167.00,5609.17
             6167.00,5609.17 6202.00,5606.17 6202.00,5606.17
             6202.00,5606.17 6212.00,5605.42 6212.00,5605.42 Z" />
</svg>
