<?xml version="1.0" encoding="UTF-8" standalone="no"?>
<!DOCTYPE svg PUBLIC "-//W3C//DTD SVG 20010904//EN"
              "http://www.w3.org/TR/2001/REC-SVG-20010904/DTD/svg10.dtd">

<svg xmlns="http://www.w3.org/2000/svg"
     width="16in" height="10.4533in"
     viewBox="0 0 9600 6272">
  <path id="Blue"
        fill="none" stroke="black" stroke-width="1"
        d="M 5823.00,342.21
           C 5823.00,342.21 5833.00,342.21 5833.00,342.21
             5898.94,342.77 5946.28,409.72 5924.92,472.00
             5914.72,501.75 5896.16,515.95 5873.00,535.25
             5873.00,535.25 5840.00,562.75 5840.00,562.75
             5840.00,562.75 5182.00,1112.25 5182.00,1112.25
             5182.00,1112.25 5135.00,1151.41 5135.00,1151.41
             5119.28,1164.50 5107.90,1175.02 5088.00,1181.65
             5040.45,1197.48 4987.46,1176.15 4966.31,1130.00
             4960.22,1116.70 4956.83,1100.62 4957.00,1086.00
             4957.26,1064.31 4966.22,1040.45 4980.30,1024.00
             4989.76,1012.95 5009.18,997.79 5021.00,987.92
             5021.00,987.92 5138.00,890.08 5138.00,890.08
             5138.00,890.08 5454.00,626.08 5454.00,626.08
             5454.00,626.08 5607.00,498.73 5607.00,498.73
             5607.00,498.73 5728.00,397.59 5728.00,397.59
             5743.99,384.28 5769.42,360.83 5787.00,352.26
             5799.94,345.95 5809.08,344.44 5823.00,342.21 Z
           M 4632.00,2189.00
           C 4635.59,2178.47 4654.45,2167.29 4664.00,2161.60
             4690.13,2146.06 4729.62,2131.07 4760.00,2128.04
             4760.00,2128.04 4768.00,2128.04 4768.00,2128.04
             4768.00,2128.04 4776.00,2127.04 4776.00,2127.04
             4776.00,2127.04 4787.00,2128.04 4787.00,2128.04
             4787.00,2128.04 4795.00,2128.04 4795.00,2128.04
             4804.91,2129.12 4817.37,2131.90 4827.00,2134.58
             4869.38,2146.37 4909.34,2169.58 4944.00,2196.35
             5011.51,2248.50 5067.97,2312.45 5106.25,2389.00
             5125.90,2428.31 5138.93,2467.27 5144.15,2511.00
             5144.15,2511.00 5146.00,2532.00 5146.00,2532.00
             5146.00,2532.00 5146.00,2541.00 5146.00,2541.00
             5146.00,2541.00 5146.97,2553.00 5146.97,2553.00
             5146.97,2553.00 5146.00,2567.00 5146.00,2567.00
             5145.96,2594.09 5142.33,2621.39 5137.20,2648.00
             5137.20,2648.00 5131.87,2673.00 5131.87,2673.00
             5131.33,2675.21 5130.36,2680.71 5128.44,2681.92
             5126.20,2683.34 5123.01,2681.32 5121.00,2680.29
             5121.00,2680.29 5103.00,2672.20 5103.00,2672.20
             5083.59,2664.52 5053.87,2659.03 5033.00,2659.00
             5033.00,2659.00 5017.00,2659.00 5017.00,2659.00
             5017.00,2659.00 5005.00,2659.91 5005.00,2659.91
             4976.68,2661.86 4948.57,2666.58 4921.00,2673.47
             4921.00,2673.47 4878.00,2685.50 4878.00,2685.50
             4878.00,2685.50 4845.00,2696.00 4845.00,2696.00
             4843.38,2689.82 4845.55,2686.91 4847.12,2681.00
             4847.12,2681.00 4853.39,2653.00 4853.39,2653.00
             4857.98,2627.07 4857.60,2594.94 4845.63,2571.00
             4833.25,2546.24 4812.24,2529.71 4789.00,2515.80
             4789.00,2515.80 4767.00,2504.31 4767.00,2504.31
             4762.64,2502.30 4757.68,2501.17 4755.00,2497.00
             4764.33,2496.24 4773.24,2495.27 4782.00,2491.69
             4805.54,2482.06 4819.98,2460.11 4830.29,2438.00
             4853.35,2388.56 4848.72,2328.48 4825.68,2280.00
             4802.51,2231.24 4756.59,2200.95 4705.00,2189.58
             4694.85,2187.34 4673.06,2184.36 4663.00,2184.74
             4663.00,2184.74 4632.00,2189.00 4632.00,2189.00 Z
           M 4496.00,2304.00
           C 4497.93,2308.28 4493.69,2312.37 4491.42,2316.00
             4484.52,2327.09 4480.93,2334.95 4476.20,2347.00
             4465.85,2373.37 4463.73,2408.53 4470.47,2436.00
             4483.94,2490.82 4523.63,2533.78 4582.00,2537.49
             4589.83,2537.98 4597.55,2535.95 4605.00,2533.84
             4607.89,2533.05 4612.73,2531.29 4615.04,2533.84
             4617.44,2536.08 4615.58,2541.32 4615.04,2544.00
             4615.04,2544.00 4604.52,2572.00 4604.52,2572.00
             4594.25,2602.40 4583.72,2631.73 4598.32,2663.00
             4613.73,2695.99 4659.23,2722.17 4692.00,2735.55
             4692.00,2735.55 4717.00,2745.00 4717.00,2745.00
             4717.00,2745.00 4717.00,2747.00 4717.00,2747.00
             4717.00,2747.00 4686.00,2762.25 4686.00,2762.25
             4686.00,2762.25 4665.00,2772.16 4665.00,2772.16
             4660.13,2773.45 4659.96,2771.40 4653.96,2772.16
             4639.03,2773.91 4624.05,2774.17 4609.00,2774.00
             4609.00,2774.00 4599.00,2772.96 4599.00,2772.96
             4599.00,2772.96 4590.00,2772.96 4590.00,2772.96
             4560.12,2769.98 4524.61,2760.87 4501.00,2741.69
             4466.16,2713.39 4440.60,2660.90 4425.69,2619.00
             4403.30,2556.08 4395.29,2471.28 4419.81,2408.00
             4435.43,2367.69 4463.54,2332.17 4496.00,2304.00 Z
           M 6214.00,5605.21
           C 6214.00,5605.21 6221.00,5605.21 6221.00,5605.21
             6275.80,5604.74 6322.34,5645.90 6323.00,5702.00
             6323.12,5712.56 6321.33,5723.89 6318.28,5734.00
             6315.73,5742.45 6311.86,5750.65 6307.00,5758.00
             6301.50,5766.31 6297.34,5771.11 6290.00,5777.91
             6260.94,5804.84 6226.41,5802.69 6190.00,5806.17
             6190.00,5806.17 6117.00,5812.83 6117.00,5812.83
             6117.00,5812.83 6028.00,5820.17 6028.00,5820.17
             6028.00,5820.17 5701.00,5848.83 5701.00,5848.83
             5701.00,5848.83 5647.00,5853.17 5647.00,5853.17
             5647.00,5853.17 5539.00,5862.83 5539.00,5862.83
             5539.00,5862.83 5485.00,5867.17 5485.00,5867.17
             5485.00,5867.17 5429.00,5872.17 5429.00,5872.17
             5429.00,5872.17 5406.00,5874.09 5406.00,5874.09
             5406.00,5874.09 5395.00,5875.00 5395.00,5875.00
             5338.67,5875.24 5294.35,5830.22 5295.00,5774.00
             5295.45,5735.30 5320.19,5699.11 5356.00,5684.60
             5371.01,5678.52 5386.11,5677.35 5402.00,5675.83
             5402.00,5675.83 5448.00,5671.91 5448.00,5671.91
             5448.00,5671.91 5488.00,5668.17 5488.00,5668.17
             5488.00,5668.17 5541.00,5663.83 5541.00,5663.83
             5541.00,5663.83 5586.00,5659.96 5586.00,5659.96
             5586.00,5659.96 5604.00,5658.17 5604.00,5658.17
             5604.00,5658.17 5649.00,5654.17 5649.00,5654.17
             5649.00,5654.17 5738.00,5646.83 5738.00,5646.83
             5738.00,5646.83 5795.00,5641.83 5795.00,5641.83
             5795.00,5641.83 5836.00,5638.09 5836.00,5638.09
             5836.00,5638.09 5938.00,5629.17 5938.00,5629.17
             5938.00,5629.17 5969.00,5626.83 5969.00,5626.83
             5969.00,5626.83 6065.00,5618.17 6065.00,5618.17
             6065.00,5618.17 6170.00,5609.17 6170.00,5609.17
             6170.00,5609.17 6204.00,5606.17 6204.00,5606.17
             6204.00,5606.17 6214.00,5605.21 6214.00,5605.21 Z" />
</svg>
