<?xml version="1.0" encoding="UTF-8" standalone="no"?>
<!DOCTYPE svg PUBLIC "-//W3C//DTD SVG 20010904//EN"
              "http://www.w3.org/TR/2001/REC-SVG-20010904/DTD/svg10.dtd">

<svg xmlns="http://www.w3.org/2000/svg"
     width="16in" height="10.4533in"
     viewBox="0 0 9600 6272">
  <path id="Dark Orange 2"
        fill="none" stroke="black" stroke-width="1"
        d="M 5822.00,342.21
           C 5822.00,342.21 5828.00,342.21 5828.00,342.21
             5855.32,341.68 5881.10,350.96 5900.91,370.17
             5927.46,395.92 5937.18,439.29 5924.56,474.00
             5914.29,502.27 5901.02,511.89 5879.00,530.25
             5879.00,530.25 5841.00,561.92 5841.00,561.92
             5841.00,561.92 5602.00,761.92 5602.00,761.92
             5602.00,761.92 5486.00,858.92 5486.00,858.92
             5486.00,858.92 5449.00,889.74 5449.00,889.74
             5449.00,889.74 5438.00,898.30 5438.00,898.30
             5438.00,898.30 5316.00,1000.92 5316.00,1000.92
             5316.00,1000.92 5279.00,1031.08 5279.00,1031.08
             5279.00,1031.08 5183.00,1111.59 5183.00,1111.59
             5183.00,1111.59 5152.00,1137.92 5152.00,1137.92
             5152.00,1137.92 5135.00,1151.41 5135.00,1151.41
             5119.12,1164.63 5108.11,1175.03 5088.00,1181.92
             5053.27,1193.84 5010.86,1184.41 4985.17,1157.91
             4965.96,1138.10 4956.68,1112.32 4957.00,1085.00
             4957.29,1060.81 4968.41,1035.37 4985.17,1018.09
             4985.17,1018.09 5010.00,996.93 5010.00,996.93
             5010.00,996.93 5054.00,959.92 5054.00,959.92
             5054.00,959.92 5139.00,889.25 5139.00,889.25
             5139.00,889.25 5615.00,491.59 5615.00,491.59
             5615.00,491.59 5693.00,426.08 5693.00,426.08
             5693.00,426.08 5728.00,397.57 5728.00,397.57
             5749.13,379.51 5771.66,357.01 5798.00,347.44
             5806.12,344.48 5813.59,343.64 5822.00,342.21 Z
           M 6684.00,4358.00
           C 6691.75,4355.80 6695.66,4358.32 6703.00,4360.10
             6703.00,4360.10 6731.00,4366.96 6731.00,4366.96
             6731.00,4366.96 6751.00,4371.75 6751.00,4371.75
             6751.00,4371.75 6834.00,4395.26 6834.00,4395.26
             6834.00,4395.26 6865.00,4404.39 6865.00,4404.39
             6871.22,4405.38 6873.01,4400.97 6876.11,4404.39
             6879.32,4407.89 6880.95,4418.31 6882.34,4423.00
             6882.34,4423.00 6884.75,4433.00 6884.75,4433.00
             6884.75,4433.00 6896.04,4473.00 6896.04,4473.00
             6912.39,4527.85 6929.45,4577.32 6952.13,4630.00
             6983.32,4702.42 7029.80,4782.15 7086.28,4837.58
             7107.61,4858.50 7131.02,4877.41 7156.00,4893.82
             7193.23,4918.28 7242.99,4941.83 7285.00,4956.91
             7285.00,4956.91 7330.00,4972.00 7330.00,4972.00
             7329.57,4973.23 7329.62,4974.05 7328.41,4974.98
             7326.77,4976.22 7312.79,4977.00 7310.00,4977.00
             7310.00,4977.00 7283.00,4977.00 7283.00,4977.00
             7283.00,4977.00 7268.00,4978.00 7268.00,4978.00
             7268.00,4978.00 7249.00,4978.00 7249.00,4978.00
             7249.00,4978.00 7232.00,4979.00 7232.00,4979.00
             7232.00,4979.00 7167.00,4979.00 7167.00,4979.00
             7167.00,4979.00 7119.00,4979.00 7119.00,4979.00
             7119.00,4979.00 7107.00,4979.98 7107.00,4979.98
             7107.00,4979.98 7097.00,4979.98 7097.00,4979.98
             7097.00,4979.98 7089.00,4981.04 7089.00,4981.04
             7089.00,4981.04 7080.00,4981.04 7080.00,4981.04
             7080.00,4981.04 7065.00,4983.56 7065.00,4983.56
             7065.00,4983.56 7056.00,4984.46 7056.00,4984.46
             7056.00,4984.46 7044.00,4987.34 7044.00,4987.34
             7026.94,4990.91 7010.37,4995.37 6994.00,5001.47
             6994.00,5001.47 6971.17,5010.03 6971.17,5010.03
             6929.59,5030.38 6891.99,5054.36 6861.79,5090.09
             6851.39,5102.39 6845.46,5111.26 6837.36,5125.00
             6835.86,5127.53 6831.90,5136.41 6828.90,5136.39
             6826.00,5136.37 6824.03,5131.25 6823.18,5129.00
             6823.18,5129.00 6817.07,5107.29 6817.07,5107.29
             6815.99,5105.80 6815.43,5105.80 6814.00,5105.00
             6814.00,5105.00 6812.04,5121.00 6812.04,5121.00
             6812.04,5121.00 6813.00,5137.00 6813.00,5137.00
             6808.58,5135.11 6794.18,5124.09 6789.00,5120.42
             6789.00,5120.42 6776.09,5111.00 6776.09,5111.00
             6756.75,5094.52 6732.60,5062.66 6725.93,5038.00
             6723.67,5029.67 6723.99,5020.55 6724.20,5012.00
             6724.20,5012.00 6724.20,5000.02 6724.20,5000.02
             6723.36,4995.68 6719.13,4993.50 6715.00,4995.18
             6711.33,4996.67 6699.75,5006.67 6696.00,5009.78
             6679.35,5023.55 6657.66,5052.60 6647.48,5072.00
             6647.48,5072.00 6639.71,5090.00 6639.71,5090.00
             6637.83,5094.92 6638.30,5097.31 6633.00,5099.00
             6633.00,5099.00 6628.25,5080.00 6628.25,5080.00
             6628.25,5080.00 6618.44,5037.00 6618.44,5037.00
             6618.44,5037.00 6617.72,5027.00 6617.72,5027.00
             6617.72,5027.00 6615.00,4999.00 6615.00,4999.00
             6615.00,4999.00 6615.00,4979.00 6615.00,4979.00
             6615.03,4961.45 6620.59,4934.45 6626.74,4918.00
             6636.67,4891.46 6652.54,4867.63 6670.88,4846.17
             6684.65,4830.05 6699.68,4814.69 6715.00,4800.04
             6715.00,4800.04 6743.61,4773.20 6743.61,4773.20
             6753.28,4763.70 6770.43,4749.08 6774.00,4736.00
             6759.26,4740.05 6759.59,4743.99 6748.00,4750.72
             6737.62,4756.74 6730.44,4758.68 6719.00,4761.53
             6713.54,4762.88 6712.09,4762.65 6707.00,4763.28
             6682.93,4766.28 6675.06,4766.15 6651.00,4763.28
             6651.00,4763.28 6642.00,4762.57 6642.00,4762.57
             6609.02,4757.83 6572.91,4745.34 6544.00,4728.80
             6528.18,4719.76 6516.26,4711.31 6502.00,4700.00
             6497.11,4696.12 6489.88,4692.11 6488.00,4686.00
             6488.00,4686.00 6527.00,4689.00 6527.00,4689.00
             6542.66,4688.81 6565.42,4683.81 6580.00,4678.08
             6617.04,4663.52 6644.02,4633.81 6674.00,4609.08
             6685.96,4599.22 6700.85,4586.98 6714.00,4579.05
             6723.99,4573.03 6734.39,4567.46 6745.00,4562.62
             6745.00,4562.62 6765.00,4553.58 6765.00,4553.58
             6765.00,4553.58 6779.00,4545.57 6779.00,4545.57
             6784.32,4541.78 6786.59,4538.50 6793.00,4536.00
             6793.00,4536.00 6793.00,4526.00 6793.00,4526.00
             6782.92,4527.36 6782.56,4529.10 6778.00,4529.89
             6778.00,4529.89 6760.00,4529.89 6760.00,4529.89
             6760.00,4529.89 6750.00,4529.09 6750.00,4529.09
             6750.00,4529.09 6731.00,4527.17 6731.00,4527.17
             6731.00,4527.17 6723.00,4526.56 6723.00,4526.56
             6683.77,4520.42 6631.23,4496.85 6597.00,4476.70
             6577.56,4465.25 6555.58,4449.89 6541.66,4432.00
             6538.20,4427.55 6535.06,4422.92 6532.31,4418.00
             6531.35,4416.28 6529.31,4413.39 6530.25,4411.35
             6531.39,4408.88 6535.02,4409.98 6537.00,4410.34
             6537.00,4410.34 6556.00,4412.00 6556.00,4412.00
             6556.00,4412.00 6567.00,4412.00 6567.00,4412.00
             6567.00,4412.00 6587.00,4410.38 6587.00,4410.38
             6587.00,4410.38 6599.00,4407.61 6599.00,4407.61
             6623.37,4403.11 6638.33,4399.12 6661.00,4388.53
             6668.43,4385.05 6684.58,4376.60 6686.06,4367.96
             6686.68,4364.34 6685.10,4361.34 6684.00,4358.00 Z
           M 6211.00,5605.42
           C 6268.40,5598.43 6322.31,5642.23 6323.00,5701.00
             6323.13,5712.15 6321.77,5723.29 6318.56,5734.00
             6316.43,5741.12 6310.75,5752.81 6306.64,5759.00
             6303.02,5764.46 6296.85,5772.30 6291.99,5776.57
             6281.29,5785.96 6268.63,5793.88 6255.00,5798.25
             6236.69,5804.13 6201.34,5805.22 6181.00,5807.17
             6181.00,5807.17 6119.00,5812.91 6119.00,5812.91
             6119.00,5812.91 5993.00,5823.83 5993.00,5823.83
             5993.00,5823.83 5962.00,5826.17 5962.00,5826.17
             5962.00,5826.17 5866.00,5834.83 5866.00,5834.83
             5866.00,5834.83 5835.00,5837.17 5835.00,5837.17
             5835.00,5837.17 5657.00,5852.83 5657.00,5852.83
             5657.00,5852.83 5626.00,5855.17 5626.00,5855.17
             5626.00,5855.17 5530.00,5863.83 5530.00,5863.83
             5530.00,5863.83 5476.00,5868.17 5476.00,5868.17
             5476.00,5868.17 5419.00,5873.17 5419.00,5873.17
             5419.00,5873.17 5397.00,5875.00 5397.00,5875.00
             5385.22,5875.02 5373.21,5873.77 5362.00,5869.92
             5319.57,5855.37 5294.49,5817.25 5295.00,5773.00
             5295.49,5731.78 5323.31,5695.35 5362.00,5682.08
             5381.79,5675.29 5413.55,5674.88 5435.00,5672.83
             5435.00,5672.83 5531.00,5664.17 5531.00,5664.17
             5531.00,5664.17 5586.00,5659.72 5586.00,5659.72
             5586.00,5659.72 5608.00,5657.83 5608.00,5657.83
             5608.00,5657.83 5689.00,5650.83 5689.00,5650.83
             5689.00,5650.83 5792.00,5641.83 5792.00,5641.83
             5792.00,5641.83 5833.00,5638.09 5833.00,5638.09
             5833.00,5638.09 5912.00,5631.17 5912.00,5631.17
             5912.00,5631.17 5943.00,5628.83 5943.00,5628.83
             5943.00,5628.83 6074.00,5617.17 6074.00,5617.17
             6074.00,5617.17 6105.00,5614.83 6105.00,5614.83
             6105.00,5614.83 6166.00,5609.17 6166.00,5609.17
             6166.00,5609.17 6201.00,5606.17 6201.00,5606.17
             6201.00,5606.17 6211.00,5605.42 6211.00,5605.42 Z" />
</svg>
