<?xml version="1.0" encoding="UTF-8" standalone="no"?>
<!DOCTYPE svg PUBLIC "-//W3C//DTD SVG 20010904//EN"
              "http://www.w3.org/TR/2001/REC-SVG-20010904/DTD/svg10.dtd">

<svg xmlns="http://www.w3.org/2000/svg"
     width="16in" height="10.4533in"
     viewBox="0 0 9600 6272">
  <path id="Dark Brown"
        fill="none" stroke="black" stroke-width="1"
        d="M 5822.00,342.21
           C 5822.00,342.21 5828.00,342.21 5828.00,342.21
             5855.32,341.68 5881.10,350.96 5900.91,370.17
             5927.46,395.92 5937.18,439.29 5924.56,474.00
             5914.29,502.27 5901.02,511.89 5879.00,530.25
             5879.00,530.25 5841.00,561.92 5841.00,561.92
             5841.00,561.92 5602.00,761.92 5602.00,761.92
             5602.00,761.92 5486.00,858.92 5486.00,858.92
             5486.00,858.92 5449.00,889.74 5449.00,889.74
             5449.00,889.74 5438.00,898.30 5438.00,898.30
             5438.00,898.30 5316.00,1000.92 5316.00,1000.92
             5316.00,1000.92 5279.00,1031.08 5279.00,1031.08
             5279.00,1031.08 5183.00,1111.59 5183.00,1111.59
             5183.00,1111.59 5152.00,1137.92 5152.00,1137.92
             5152.00,1137.92 5135.00,1151.41 5135.00,1151.41
             5119.12,1164.63 5108.11,1175.03 5088.00,1181.92
             5053.27,1193.84 5010.86,1184.41 4985.17,1157.91
             4965.96,1138.10 4956.68,1112.32 4957.00,1085.00
             4957.29,1060.81 4968.41,1035.37 4985.17,1018.09
             4985.17,1018.09 5010.00,996.93 5010.00,996.93
             5010.00,996.93 5054.00,959.92 5054.00,959.92
             5054.00,959.92 5139.00,889.25 5139.00,889.25
             5139.00,889.25 5615.00,491.59 5615.00,491.59
             5615.00,491.59 5693.00,426.08 5693.00,426.08
             5693.00,426.08 5728.00,397.57 5728.00,397.57
             5749.13,379.51 5771.66,357.01 5798.00,347.44
             5806.12,344.48 5813.59,343.64 5822.00,342.21 Z
           M 8652.00,3448.00
           C 8652.00,3448.00 8685.17,3436.52 8685.17,3436.52
             8688.35,3435.31 8697.03,3431.25 8700.00,3431.77
             8703.58,3432.40 8708.52,3438.18 8711.20,3440.79
             8711.20,3440.79 8733.00,3461.80 8733.00,3461.80
             8763.52,3492.46 8791.96,3525.50 8815.28,3562.00
             8847.78,3612.84 8871.59,3668.15 8888.22,3726.00
             8888.22,3726.00 8892.90,3746.00 8892.90,3746.00
             8892.90,3746.00 8899.30,3771.96 8899.30,3771.96
             8899.30,3771.96 8900.21,3779.09 8900.21,3779.09
             8900.21,3779.09 8906.71,3815.00 8906.71,3815.00
             8906.71,3815.00 8907.29,3824.00 8907.29,3824.00
             8907.29,3824.00 8909.94,3840.00 8909.94,3840.00
             8909.94,3840.00 8909.94,3852.00 8909.94,3852.00
             8909.94,3852.00 8913.00,3887.00 8913.00,3887.00
             8913.00,3887.00 8913.00,3952.00 8913.00,3952.00
             8913.00,3952.00 8912.09,3964.00 8912.09,3964.00
             8912.09,3964.00 8910.91,3985.00 8910.91,3985.00
             8910.91,3985.00 8910.00,3995.00 8910.00,3995.00
             8910.00,3995.00 8910.00,4003.00 8910.00,4003.00
             8910.00,4003.00 8906.94,4029.00 8906.94,4029.00
             8906.94,4029.00 8906.94,4041.00 8906.94,4041.00
             8906.94,4041.00 8902.00,4080.00 8902.00,4080.00
             8902.00,4080.00 8900.00,4080.00 8900.00,4080.00
             8900.00,4080.00 8898.00,4034.00 8898.00,4034.00
             8898.00,4034.00 8894.00,3997.00 8894.00,3997.00
             8894.00,3997.00 8894.00,3989.00 8894.00,3989.00
             8894.00,3989.00 8891.43,3974.00 8891.43,3974.00
             8891.43,3974.00 8890.56,3964.00 8890.56,3964.00
             8890.56,3964.00 8887.44,3948.00 8887.44,3948.00
             8887.44,3948.00 8883.54,3923.00 8883.54,3923.00
             8883.54,3923.00 8877.23,3895.00 8877.23,3895.00
             8877.23,3895.00 8872.50,3873.00 8872.50,3873.00
             8872.50,3873.00 8869.76,3864.00 8869.76,3864.00
             8869.76,3864.00 8868.22,3856.00 8868.22,3856.00
             8868.22,3856.00 8845.10,3781.00 8845.10,3781.00
             8845.10,3781.00 8840.41,3766.00 8840.41,3766.00
             8840.41,3766.00 8819.54,3712.00 8819.54,3712.00
             8800.21,3662.74 8778.58,3616.64 8751.69,3571.00
             8733.28,3539.75 8711.66,3511.22 8687.58,3484.15
             8687.58,3484.15 8667.83,3464.34 8667.83,3464.34
             8663.08,3460.13 8654.72,3453.50 8652.00,3448.00 Z
           M 7329.00,3860.00
           C 7329.00,3860.00 7363.61,3832.63 7363.61,3832.63
             7363.61,3832.63 7386.00,3816.00 7386.00,3816.00
             7384.57,3823.14 7380.48,3829.41 7377.56,3836.00
             7377.56,3836.00 7361.53,3874.00 7361.53,3874.00
             7361.53,3874.00 7337.40,3945.83 7337.40,3945.83
             7337.40,3945.83 7330.41,3972.98 7330.41,3972.98
             7328.10,3979.85 7326.34,3976.53 7323.41,3981.14
             7321.57,3984.06 7319.06,3995.26 7318.47,3999.00
             7317.13,4007.47 7322.62,4005.64 7323.26,4011.05
             7323.26,4011.05 7322.04,4022.00 7322.04,4022.00
             7322.04,4022.00 7322.04,4038.00 7322.04,4038.00
             7322.04,4038.00 7321.45,4049.00 7321.45,4049.00
             7321.42,4053.14 7322.72,4057.76 7321.45,4061.91
             7320.60,4066.30 7317.97,4065.64 7317.17,4075.00
             7317.17,4075.00 7319.17,4103.00 7319.17,4103.00
             7319.17,4103.00 7321.95,4119.00 7321.95,4119.00
             7322.20,4124.61 7320.50,4127.57 7321.39,4132.00
             7322.61,4138.10 7327.36,4144.55 7326.49,4151.00
             7325.87,4155.63 7320.64,4163.14 7318.24,4168.00
             7318.24,4168.00 7313.35,4178.00 7313.35,4178.00
             7313.35,4178.00 7310.45,4186.00 7310.45,4186.00
             7310.45,4186.00 7297.68,4207.00 7297.68,4207.00
             7297.68,4207.00 7284.86,4228.00 7284.86,4228.00
             7282.45,4232.06 7280.04,4237.50 7276.00,4240.00
             7276.00,4240.00 7277.00,4243.00 7277.00,4243.00
             7277.00,4243.00 7272.00,4249.00 7272.00,4249.00
             7272.08,4254.90 7262.87,4272.82 7259.75,4279.00
             7257.60,4283.25 7255.36,4285.24 7255.00,4290.00
             7251.73,4291.33 7251.81,4294.89 7252.00,4298.00
             7252.00,4298.00 7251.00,4300.00 7251.00,4300.00
             7251.00,4300.00 7249.00,4300.00 7249.00,4300.00
             7249.00,4300.00 7245.62,4309.00 7245.62,4309.00
             7245.62,4309.00 7243.35,4319.04 7243.35,4319.04
             7243.35,4319.04 7239.18,4331.00 7239.18,4331.00
             7239.18,4331.00 7234.44,4349.00 7234.44,4349.00
             7234.44,4349.00 7233.01,4361.00 7233.01,4361.00
             7233.01,4361.00 7222.75,4386.00 7222.75,4386.00
             7222.75,4386.00 7218.54,4408.00 7218.54,4408.00
             7218.54,4408.00 7215.30,4423.00 7215.30,4423.00
             7215.30,4423.00 7214.71,4432.00 7214.71,4432.00
             7214.71,4432.00 7212.00,4456.00 7212.00,4456.00
             7212.00,4456.00 7211.00,4479.00 7211.00,4479.00
             7211.00,4479.00 7211.00,4509.00 7211.00,4509.00
             7207.15,4506.23 7204.78,4497.63 7203.17,4493.00
             7203.17,4493.00 7191.09,4460.00 7191.09,4460.00
             7191.09,4460.00 7183.28,4437.00 7183.28,4437.00
             7183.28,4437.00 7180.67,4424.00 7180.67,4424.00
             7178.26,4417.38 7172.30,4409.98 7167.79,4394.00
             7166.43,4389.21 7167.69,4386.20 7164.56,4376.00
             7164.56,4376.00 7153.35,4348.04 7153.35,4348.04
             7153.05,4345.02 7154.64,4342.06 7155.23,4338.99
             7155.23,4338.99 7156.90,4326.00 7156.90,4326.00
             7157.92,4321.70 7160.99,4312.70 7161.00,4309.00
             7166.49,4307.38 7177.04,4300.81 7182.00,4297.51
             7211.08,4278.15 7227.41,4249.00 7227.00,4214.00
             7227.00,4214.00 7224.08,4189.00 7224.08,4189.00
             7224.08,4189.00 7224.08,4174.00 7224.08,4174.00
             7224.08,4174.00 7223.18,4163.00 7223.18,4163.00
             7222.39,4151.85 7232.96,4141.34 7238.30,4132.00
             7246.62,4117.44 7253.81,4097.86 7254.00,4081.00
             7254.15,4067.59 7249.39,4037.23 7244.49,4025.00
             7244.49,4025.00 7236.51,4007.00 7236.51,4007.00
             7233.58,4001.51 7230.97,3998.49 7229.94,3992.00
             7229.17,3987.16 7230.83,3986.57 7231.06,3982.58
             7231.06,3982.58 7231.06,3974.00 7231.06,3974.00
             7230.99,3967.31 7230.15,3964.85 7234.00,3959.00
             7232.81,3957.69 7231.79,3957.13 7232.03,3955.04
             7232.24,3953.27 7234.48,3950.69 7235.65,3949.35
             7237.80,3946.88 7245.91,3937.91 7248.00,3936.60
             7250.34,3935.14 7251.41,3935.29 7254.00,3935.42
             7263.78,3935.93 7269.90,3927.29 7276.09,3921.09
             7278.51,3918.66 7282.98,3915.47 7284.19,3912.28
             7285.91,3907.74 7279.78,3906.87 7282.65,3902.07
             7284.10,3899.67 7294.42,3890.84 7297.20,3888.31
             7299.12,3886.56 7301.52,3883.75 7304.04,3883.06
             7307.65,3882.07 7309.95,3885.08 7315.00,3882.14
             7321.26,3878.50 7324.34,3871.27 7332.00,3870.00
             7332.00,3870.00 7329.00,3860.00 7329.00,3860.00 Z
           M 6211.00,5605.42
           C 6268.40,5598.43 6322.31,5642.23 6323.00,5701.00
             6323.13,5712.15 6321.77,5723.29 6318.56,5734.00
             6316.43,5741.12 6310.75,5752.81 6306.64,5759.00
             6303.02,5764.46 6296.85,5772.30 6291.99,5776.57
             6281.29,5785.96 6268.63,5793.88 6255.00,5798.25
             6236.69,5804.13 6201.34,5805.22 6181.00,5807.17
             6181.00,5807.17 6119.00,5812.91 6119.00,5812.91
             6119.00,5812.91 5993.00,5823.83 5993.00,5823.83
             5993.00,5823.83 5962.00,5826.17 5962.00,5826.17
             5962.00,5826.17 5866.00,5834.83 5866.00,5834.83
             5866.00,5834.83 5835.00,5837.17 5835.00,5837.17
             5835.00,5837.17 5657.00,5852.83 5657.00,5852.83
             5657.00,5852.83 5626.00,5855.17 5626.00,5855.17
             5626.00,5855.17 5530.00,5863.83 5530.00,5863.83
             5530.00,5863.83 5476.00,5868.17 5476.00,5868.17
             5476.00,5868.17 5419.00,5873.17 5419.00,5873.17
             5419.00,5873.17 5397.00,5875.00 5397.00,5875.00
             5385.22,5875.02 5373.21,5873.77 5362.00,5869.92
             5319.57,5855.37 5294.49,5817.25 5295.00,5773.00
             5295.49,5731.78 5323.31,5695.35 5362.00,5682.08
             5381.79,5675.29 5413.55,5674.88 5435.00,5672.83
             5435.00,5672.83 5531.00,5664.17 5531.00,5664.17
             5531.00,5664.17 5586.00,5659.72 5586.00,5659.72
             5586.00,5659.72 5608.00,5657.83 5608.00,5657.83
             5608.00,5657.83 5689.00,5650.83 5689.00,5650.83
             5689.00,5650.83 5792.00,5641.83 5792.00,5641.83
             5792.00,5641.83 5833.00,5638.09 5833.00,5638.09
             5833.00,5638.09 5912.00,5631.17 5912.00,5631.17
             5912.00,5631.17 5943.00,5628.83 5943.00,5628.83
             5943.00,5628.83 6074.00,5617.17 6074.00,5617.17
             6074.00,5617.17 6105.00,5614.83 6105.00,5614.83
             6105.00,5614.83 6166.00,5609.17 6166.00,5609.17
             6166.00,5609.17 6201.00,5606.17 6201.00,5606.17
             6201.00,5606.17 6211.00,5605.42 6211.00,5605.42 Z" />
</svg>
