<?xml version="1.0" encoding="UTF-8" standalone="no"?>
<!DOCTYPE svg PUBLIC "-//W3C//DTD SVG 20010904//EN"
              "http://www.w3.org/TR/2001/REC-SVG-20010904/DTD/svg10.dtd">

<svg xmlns="http://www.w3.org/2000/svg"
     width="16in" height="10.4533in"
     viewBox="0 0 9600 6272">
  <path id="Dark Orange 1"
        fill="none" stroke="black" stroke-width="1"
        d="M 5822.00,342.21
           C 5822.00,342.21 5828.00,342.21 5828.00,342.21
             5855.32,341.68 5881.10,350.96 5900.91,370.17
             5927.46,395.92 5937.18,439.29 5924.56,474.00
             5914.29,502.27 5901.02,511.89 5879.00,530.25
             5879.00,530.25 5841.00,561.92 5841.00,561.92
             5841.00,561.92 5602.00,761.92 5602.00,761.92
             5602.00,761.92 5486.00,858.92 5486.00,858.92
             5486.00,858.92 5449.00,889.74 5449.00,889.74
             5449.00,889.74 5438.00,898.30 5438.00,898.30
             5438.00,898.30 5316.00,1000.92 5316.00,1000.92
             5316.00,1000.92 5279.00,1031.08 5279.00,1031.08
             5279.00,1031.08 5183.00,1111.59 5183.00,1111.59
             5183.00,1111.59 5152.00,1137.92 5152.00,1137.92
             5152.00,1137.92 5135.00,1151.41 5135.00,1151.41
             5119.12,1164.63 5108.11,1175.03 5088.00,1181.92
             5053.27,1193.84 5010.86,1184.41 4985.17,1157.91
             4965.96,1138.10 4956.68,1112.32 4957.00,1085.00
             4957.29,1060.81 4968.41,1035.37 4985.17,1018.09
             4985.17,1018.09 5010.00,996.93 5010.00,996.93
             5010.00,996.93 5054.00,959.92 5054.00,959.92
             5054.00,959.92 5139.00,889.25 5139.00,889.25
             5139.00,889.25 5615.00,491.59 5615.00,491.59
             5615.00,491.59 5693.00,426.08 5693.00,426.08
             5693.00,426.08 5728.00,397.57 5728.00,397.57
             5749.13,379.51 5771.66,357.01 5798.00,347.44
             5806.12,344.48 5813.59,343.64 5822.00,342.21 Z
           M 2239.00,2384.00
           C 2239.00,2384.00 2249.00,2381.46 2249.00,2381.46
             2249.00,2381.46 2257.00,2380.33 2257.00,2380.33
             2257.00,2380.33 2270.00,2377.44 2270.00,2377.44
             2270.00,2377.44 2299.00,2373.72 2299.00,2373.72
             2299.00,2373.72 2326.00,2371.00 2326.00,2371.00
             2326.00,2371.00 2381.00,2371.00 2381.00,2371.00
             2381.00,2371.00 2401.00,2372.84 2401.00,2372.84
             2401.00,2372.84 2419.00,2374.29 2419.00,2374.29
             2419.00,2374.29 2432.00,2376.57 2432.00,2376.57
             2432.00,2376.57 2446.00,2378.45 2446.00,2378.45
             2446.00,2378.45 2455.00,2380.54 2455.00,2380.54
             2515.80,2391.58 2574.67,2411.62 2632.00,2434.49
             2726.68,2472.27 2809.45,2516.87 2889.96,2579.89
             2929.06,2610.50 2963.49,2646.71 2999.72,2680.54
             3024.76,2703.92 3059.62,2733.04 3092.00,2744.72
             3102.20,2748.39 3105.77,2748.77 3116.00,2750.78
             3129.34,2753.45 3140.66,2753.07 3154.00,2750.78
             3156.28,2750.36 3164.33,2747.78 3164.95,2751.30
             3165.41,2753.92 3161.66,2757.32 3160.00,2759.00
             3160.00,2759.00 3142.00,2776.03 3142.00,2776.03
             3142.00,2776.03 3091.35,2830.29 3091.35,2830.29
             3091.35,2830.29 3074.00,2850.42 3074.00,2850.42
             3074.00,2850.42 3061.92,2865.00 3061.92,2865.00
             3061.92,2865.00 3009.91,2931.00 3009.91,2931.00
             2961.42,2997.22 2916.10,3070.59 2883.42,3146.00
             2865.62,3187.10 2852.21,3229.91 2840.26,3273.00
             2833.49,3297.38 2826.31,3321.81 2823.28,3347.00
             2823.28,3347.00 2821.44,3364.00 2821.44,3364.00
             2821.46,3365.47 2821.70,3366.56 2822.61,3367.77
             2826.71,3373.18 2832.40,3366.66 2833.60,3372.15
             2834.33,3375.48 2831.64,3383.55 2830.76,3387.00
             2830.76,3387.00 2829.49,3394.00 2829.49,3394.00
             2829.49,3394.00 2823.67,3418.00 2823.67,3418.00
             2823.67,3418.00 2822.33,3427.00 2822.33,3427.00
             2822.33,3427.00 2816.46,3454.00 2816.46,3454.00
             2816.46,3454.00 2810.13,3495.00 2810.13,3495.00
             2810.13,3495.00 2808.09,3509.00 2808.09,3509.00
             2807.70,3514.65 2809.62,3518.83 2804.00,3522.00
             2801.95,3513.57 2803.96,3496.22 2799.00,3480.00
             2799.00,3480.00 2797.83,3501.00 2797.83,3501.00
             2797.83,3501.00 2793.00,3517.00 2793.00,3517.00
             2788.03,3514.30 2786.22,3508.49 2783.00,3504.00
             2783.00,3504.00 2782.00,3512.00 2782.00,3512.00
             2782.00,3512.00 2776.00,3508.00 2776.00,3508.00
             2772.30,3510.19 2769.82,3508.32 2766.00,3507.00
             2766.00,3507.00 2765.00,3513.00 2765.00,3513.00
             2765.00,3513.00 2759.00,3512.00 2759.00,3512.00
             2760.87,3516.62 2763.58,3521.46 2768.00,3524.07
             2770.81,3525.73 2774.54,3526.03 2777.82,3528.65
             2781.56,3531.64 2782.22,3535.08 2784.34,3539.00
             2786.54,3543.05 2789.50,3546.63 2791.00,3551.00
             2791.00,3551.00 2790.00,3552.00 2790.00,3552.00
             2783.37,3549.74 2770.51,3537.09 2764.58,3531.88
             2755.31,3523.74 2733.63,3507.96 2723.00,3501.03
             2688.54,3478.55 2654.29,3462.78 2614.00,3454.34
             2601.46,3451.71 2582.64,3448.15 2570.00,3448.00
             2570.00,3448.00 2553.00,3447.00 2553.00,3447.00
             2553.00,3447.00 2536.00,3448.00 2536.00,3448.00
             2523.74,3448.14 2520.38,3449.31 2509.00,3450.71
             2509.00,3450.71 2501.00,3451.30 2501.00,3451.30
             2501.00,3451.30 2486.00,3454.54 2486.00,3454.54
             2438.41,3463.48 2394.17,3486.27 2356.00,3515.68
             2336.10,3531.01 2317.55,3548.06 2300.00,3566.00
             2294.88,3571.24 2284.48,3580.78 2294.06,3587.40
             2295.34,3588.29 2296.47,3588.64 2298.00,3588.92
             2301.76,3589.33 2302.89,3587.96 2308.00,3588.92
             2305.16,3595.02 2299.77,3599.08 2295.95,3604.46
             2288.68,3614.70 2281.59,3628.12 2277.54,3640.00
             2274.17,3649.91 2274.01,3668.22 2272.72,3679.00
             2272.72,3679.00 2269.28,3701.00 2269.28,3701.00
             2269.28,3701.00 2268.71,3709.00 2268.71,3709.00
             2268.71,3709.00 2262.44,3747.00 2262.44,3747.00
             2262.44,3747.00 2261.56,3756.00 2261.56,3756.00
             2261.56,3756.00 2258.44,3772.00 2258.44,3772.00
             2258.44,3772.00 2254.56,3798.00 2254.56,3798.00
             2254.56,3798.00 2251.44,3813.00 2251.44,3813.00
             2251.44,3813.00 2250.54,3821.00 2250.54,3821.00
             2250.54,3821.00 2248.46,3830.00 2248.46,3830.00
             2248.46,3830.00 2246.91,3841.00 2246.91,3841.00
             2246.91,3841.00 2244.46,3851.00 2244.46,3851.00
             2244.46,3851.00 2243.54,3859.00 2243.54,3859.00
             2243.54,3859.00 2240.46,3872.00 2240.46,3872.00
             2240.46,3872.00 2236.54,3895.00 2236.54,3895.00
             2236.54,3895.00 2233.51,3907.00 2233.51,3907.00
             2233.51,3907.00 2229.34,3929.00 2229.34,3929.00
             2229.34,3929.00 2223.46,3955.00 2223.46,3955.00
             2223.46,3955.00 2215.66,3989.00 2215.66,3989.00
             2215.66,3989.00 2204.11,4039.00 2204.11,4039.00
             2204.11,4039.00 2198.50,4060.00 2198.50,4060.00
             2198.50,4060.00 2191.15,4088.00 2191.15,4088.00
             2190.08,4092.04 2188.78,4099.48 2186.11,4102.68
             2183.41,4105.91 2180.81,4103.76 2177.00,4105.22
             2174.59,4106.15 2164.63,4113.58 2162.00,4115.59
             2162.00,4115.59 2086.09,4172.02 2086.09,4172.02
             2086.09,4172.02 1863.17,4341.55 1863.17,4341.55
             1863.17,4341.55 1743.91,4434.27 1743.91,4434.27
             1743.91,4434.27 1656.00,4502.23 1656.00,4502.23
             1656.00,4502.23 1523.99,4604.52 1523.99,4604.52
             1523.99,4604.52 1378.00,4713.29 1378.00,4713.29
             1340.51,4740.60 1302.34,4767.11 1263.00,4791.70
             1234.82,4809.31 1194.39,4833.57 1162.00,4840.48
             1162.00,4840.48 1131.00,4844.09 1131.00,4844.09
             1131.00,4844.09 1121.00,4845.00 1121.00,4845.00
             1121.00,4845.00 1113.00,4845.00 1113.00,4845.00
             1105.49,4845.01 1098.38,4846.40 1091.00,4847.56
             1091.00,4847.56 1083.00,4848.46 1083.00,4848.46
             1083.00,4848.46 1073.00,4851.10 1073.00,4851.10
             1055.47,4855.37 1041.36,4860.78 1025.00,4868.39
             1019.35,4871.01 999.13,4880.94 995.31,4884.61
             992.51,4887.30 993.81,4888.42 989.37,4892.88
             983.86,4898.41 973.52,4906.59 969.85,4913.00
             966.31,4919.21 971.16,4921.93 968.65,4926.91
             967.07,4930.03 962.93,4932.30 960.09,4934.19
             955.11,4937.52 939.66,4949.29 935.04,4950.11
             931.39,4950.75 930.36,4948.26 925.99,4946.03
             925.99,4946.03 904.00,4936.23 904.00,4936.23
             875.17,4923.07 845.92,4910.14 818.00,4895.13
             783.15,4876.39 748.31,4857.92 715.00,4836.46
             669.86,4807.38 624.80,4773.07 586.00,4735.96
             586.00,4735.96 544.92,4693.00 544.92,4693.00
             530.25,4677.06 502.59,4644.61 490.64,4627.28
             485.79,4620.24 475.92,4609.17 475.00,4601.00
             482.36,4602.99 489.74,4610.03 496.00,4614.43
             507.65,4622.63 526.58,4635.28 539.00,4641.73
             559.76,4652.50 576.07,4659.91 599.00,4665.23
             599.00,4665.23 610.00,4667.90 610.00,4667.90
             610.00,4667.90 619.00,4667.90 619.00,4667.90
             619.00,4667.90 627.00,4668.96 627.00,4668.96
             627.00,4668.96 649.00,4667.70 649.00,4667.70
             673.33,4664.22 704.87,4650.77 727.00,4639.96
             747.76,4629.83 753.37,4628.90 774.00,4614.96
             779.29,4611.39 787.77,4605.77 788.76,4599.00
             790.61,4586.31 767.07,4581.53 758.00,4578.31
             758.00,4578.31 728.00,4569.26 728.00,4569.26
             701.69,4560.74 675.44,4550.93 651.00,4537.93
             577.56,4498.84 520.05,4417.94 509.71,4335.00
             509.71,4335.00 507.00,4318.00 507.00,4318.00
             507.00,4318.00 507.00,4308.00 507.00,4308.00
             506.44,4303.90 505.86,4302.56 506.04,4298.00
             506.04,4298.00 506.91,4290.00 506.91,4290.00
             508.31,4269.68 511.46,4249.40 517.89,4230.00
             549.44,4134.78 637.39,4057.54 727.00,4017.57
             748.98,4007.76 776.21,3995.58 799.00,3988.57
             807.16,3986.06 817.62,3980.65 826.00,3983.00
             821.39,3987.86 804.93,3993.65 798.00,3997.09
             778.98,4006.51 760.29,4016.52 743.00,4028.91
             727.10,4040.30 709.48,4055.63 697.42,4071.00
             678.95,4094.57 666.89,4122.60 661.58,4152.00
             660.07,4160.31 658.01,4168.52 658.00,4177.00
             658.00,4177.00 658.00,4183.00 658.00,4183.00
             658.00,4183.00 657.00,4199.00 657.00,4199.00
             657.00,4199.00 657.96,4211.00 657.96,4211.00
             657.96,4211.00 657.96,4222.00 657.96,4222.00
             658.09,4229.56 660.35,4238.44 661.56,4246.00
             664.44,4263.88 668.97,4280.96 675.14,4298.00
             708.68,4390.60 789.83,4466.04 885.00,4492.08
             885.00,4492.08 923.00,4499.83 923.00,4499.83
             923.00,4499.83 946.00,4501.09 946.00,4501.09
             946.00,4501.09 954.00,4501.96 954.00,4501.96
             954.00,4501.96 979.00,4499.94 979.00,4499.94
             979.00,4499.94 991.00,4499.94 991.00,4499.94
             991.00,4499.94 1003.00,4497.43 1003.00,4497.43
             1026.20,4493.54 1047.83,4487.64 1070.00,4479.79
             1163.83,4446.59 1252.36,4375.81 1317.58,4301.85
             1384.71,4225.71 1434.77,4134.80 1470.05,4040.00
             1478.67,4016.84 1489.07,3983.02 1495.11,3959.00
             1495.11,3959.00 1499.90,3938.00 1499.90,3938.00
             1507.56,3906.48 1514.03,3874.29 1517.17,3842.00
             1517.17,3842.00 1521.00,3811.00 1521.00,3811.00
             1521.00,3811.00 1524.00,3771.00 1524.00,3771.00
             1524.00,3771.00 1524.00,3747.00 1524.00,3747.00
             1524.00,3747.00 1525.00,3730.00 1525.00,3730.00
             1525.00,3730.00 1525.00,3693.00 1525.00,3693.00
             1525.00,3693.00 1524.00,3677.00 1524.00,3677.00
             1524.00,3677.00 1524.00,3649.00 1524.00,3649.00
             1524.00,3649.00 1523.09,3637.00 1523.09,3637.00
             1523.09,3637.00 1521.91,3615.00 1521.91,3615.00
             1521.91,3615.00 1521.00,3605.00 1521.00,3605.00
             1521.00,3605.00 1521.00,3597.00 1521.00,3597.00
             1521.00,3597.00 1517.00,3545.00 1517.00,3545.00
             1517.00,3545.00 1514.00,3511.00 1514.00,3511.00
             1514.00,3511.00 1510.06,3479.00 1510.06,3479.00
             1510.06,3479.00 1510.06,3467.00 1510.06,3467.00
             1510.06,3467.00 1507.00,3447.00 1507.00,3447.00
             1507.00,3447.00 1507.00,3436.00 1507.00,3436.00
             1507.00,3436.00 1503.00,3407.00 1503.00,3407.00
             1503.00,3407.00 1503.00,3397.00 1503.00,3397.00
             1503.00,3397.00 1499.00,3361.00 1499.00,3361.00
             1499.00,3361.00 1496.00,3324.00 1496.00,3324.00
             1496.00,3324.00 1496.00,3315.00 1496.00,3315.00
             1496.00,3315.00 1494.00,3284.00 1494.00,3284.00
             1494.00,3284.00 1493.00,3267.00 1493.00,3267.00
             1493.00,3267.00 1493.00,3253.00 1493.00,3253.00
             1493.00,3253.00 1492.24,3237.56 1492.24,3237.56
             1492.24,3237.56 1493.00,3225.00 1493.00,3225.00
             1493.00,3225.00 1493.00,3211.00 1493.00,3211.00
             1493.00,3211.00 1493.91,3201.00 1493.91,3201.00
             1493.91,3201.00 1496.00,3178.00 1496.00,3178.00
             1496.00,3178.00 1496.00,3169.00 1496.00,3169.00
             1496.00,3169.00 1498.57,3154.00 1498.57,3154.00
             1502.61,3126.79 1509.56,3099.49 1522.48,3075.00
             1531.69,3057.57 1541.89,3045.20 1555.00,3030.72
             1565.78,3018.81 1577.79,3007.78 1590.83,2998.37
             1593.52,2996.43 1603.69,2990.97 1598.95,2986.90
             1597.27,2985.40 1594.80,2986.27 1592.99,2986.90
             1592.99,2986.90 1579.00,2993.14 1579.00,2993.14
             1579.00,2993.14 1566.00,3000.01 1566.00,3000.01
             1566.00,3000.01 1545.00,3011.65 1545.00,3011.65
             1545.00,3011.65 1520.00,3028.22 1520.00,3028.22
             1482.82,3053.06 1445.28,3092.70 1427.17,3134.00
             1414.69,3162.44 1407.89,3193.68 1401.67,3224.00
             1401.67,3224.00 1397.00,3269.00 1397.00,3269.00
             1396.99,3277.54 1397.44,3278.56 1395.00,3287.00
             1393.82,3285.81 1393.28,3285.62 1392.59,3283.89
             1391.65,3281.48 1391.96,3268.42 1392.00,3265.00
             1392.00,3265.00 1395.72,3229.00 1395.72,3229.00
             1395.72,3229.00 1396.29,3218.00 1396.29,3218.00
             1396.29,3218.00 1398.71,3203.00 1398.71,3203.00
             1398.71,3203.00 1399.29,3195.00 1399.29,3195.00
             1399.29,3195.00 1402.57,3176.00 1402.57,3176.00
             1406.47,3149.16 1411.59,3122.45 1417.51,3096.00
             1417.51,3096.00 1420.10,3087.00 1420.10,3087.00
             1420.10,3087.00 1424.75,3066.00 1424.75,3066.00
             1424.75,3066.00 1431.26,3044.00 1431.26,3044.00
             1439.94,3012.83 1450.13,2981.85 1462.67,2952.00
             1479.99,2910.75 1494.10,2881.77 1518.69,2844.00
             1544.95,2803.68 1576.38,2766.86 1610.58,2733.12
             1610.58,2733.12 1632.00,2712.17 1632.00,2712.17
             1714.95,2637.15 1806.37,2582.52 1910.00,2541.08
             1954.18,2523.41 1999.59,2508.90 2046.00,2498.49
             2046.00,2498.49 2056.00,2495.52 2056.00,2495.52
             2056.00,2495.52 2078.00,2491.54 2078.00,2491.54
             2078.00,2491.54 2091.00,2488.46 2091.00,2488.46
             2091.00,2488.46 2118.00,2484.25 2118.00,2484.25
             2118.00,2484.25 2134.00,2481.29 2134.00,2481.29
             2134.00,2481.29 2142.00,2480.72 2142.00,2480.72
             2142.00,2480.72 2165.00,2477.06 2165.00,2477.06
             2165.00,2477.06 2175.00,2477.06 2175.00,2477.06
             2175.00,2477.06 2198.00,2474.04 2198.00,2474.04
             2198.00,2474.04 2211.00,2474.04 2211.00,2474.04
             2211.00,2474.04 2243.00,2472.00 2243.00,2472.00
             2243.00,2472.00 2265.00,2472.00 2265.00,2472.00
             2265.00,2472.00 2299.00,2472.00 2299.00,2472.00
             2299.00,2472.00 2314.00,2473.00 2314.00,2473.00
             2314.00,2473.00 2339.00,2474.00 2339.00,2474.00
             2339.00,2474.00 2364.00,2476.83 2364.00,2476.83
             2364.00,2476.83 2402.00,2481.44 2402.00,2481.44
             2402.00,2481.44 2417.00,2484.54 2417.00,2484.54
             2417.00,2484.54 2441.00,2488.67 2441.00,2488.67
             2441.00,2488.67 2451.00,2491.34 2451.00,2491.34
             2451.00,2491.34 2471.00,2495.75 2471.00,2495.75
             2471.00,2495.75 2522.00,2510.48 2522.00,2510.48
             2522.00,2510.48 2565.00,2523.22 2565.00,2523.22
             2569.19,2524.41 2578.07,2526.70 2581.11,2522.58
             2585.62,2516.45 2573.97,2508.94 2570.00,2505.88
             2558.57,2497.10 2528.60,2477.35 2516.01,2470.18
             2516.01,2470.18 2494.00,2457.31 2494.00,2457.31
             2457.05,2437.28 2419.81,2419.96 2379.99,2406.54
             2379.99,2406.54 2345.00,2396.50 2345.00,2396.50
             2345.00,2396.50 2335.00,2393.67 2335.00,2393.67
             2335.00,2393.67 2327.00,2392.54 2327.00,2392.54
             2327.00,2392.54 2316.00,2390.17 2316.00,2390.17
             2316.00,2390.17 2277.00,2386.00 2277.00,2386.00
             2277.00,2386.00 2261.00,2386.00 2261.00,2386.00
             2261.00,2386.00 2247.00,2386.98 2247.00,2386.98
             2245.25,2387.22 2242.09,2387.87 2240.59,2386.98
             2239.39,2386.10 2239.40,2385.14 2239.00,2384.00 Z
           M 6211.00,5605.42
           C 6268.40,5598.43 6322.31,5642.23 6323.00,5701.00
             6323.13,5712.15 6321.77,5723.29 6318.56,5734.00
             6316.43,5741.12 6310.75,5752.81 6306.64,5759.00
             6303.02,5764.46 6296.85,5772.30 6291.99,5776.57
             6281.29,5785.96 6268.63,5793.88 6255.00,5798.25
             6236.69,5804.13 6201.34,5805.22 6181.00,5807.17
             6181.00,5807.17 6119.00,5812.91 6119.00,5812.91
             6119.00,5812.91 5993.00,5823.83 5993.00,5823.83
             5993.00,5823.83 5962.00,5826.17 5962.00,5826.17
             5962.00,5826.17 5866.00,5834.83 5866.00,5834.83
             5866.00,5834.83 5835.00,5837.17 5835.00,5837.17
             5835.00,5837.17 5657.00,5852.83 5657.00,5852.83
             5657.00,5852.83 5626.00,5855.17 5626.00,5855.17
             5626.00,5855.17 5530.00,5863.83 5530.00,5863.83
             5530.00,5863.83 5476.00,5868.17 5476.00,5868.17
             5476.00,5868.17 5419.00,5873.17 5419.00,5873.17
             5419.00,5873.17 5397.00,5875.00 5397.00,5875.00
             5385.22,5875.02 5373.21,5873.77 5362.00,5869.92
             5319.57,5855.37 5294.49,5817.25 5295.00,5773.00
             5295.49,5731.78 5323.31,5695.35 5362.00,5682.08
             5381.79,5675.29 5413.55,5674.88 5435.00,5672.83
             5435.00,5672.83 5531.00,5664.17 5531.00,5664.17
             5531.00,5664.17 5586.00,5659.72 5586.00,5659.72
             5586.00,5659.72 5608.00,5657.83 5608.00,5657.83
             5608.00,5657.83 5689.00,5650.83 5689.00,5650.83
             5689.00,5650.83 5792.00,5641.83 5792.00,5641.83
             5792.00,5641.83 5833.00,5638.09 5833.00,5638.09
             5833.00,5638.09 5912.00,5631.17 5912.00,5631.17
             5912.00,5631.17 5943.00,5628.83 5943.00,5628.83
             5943.00,5628.83 6074.00,5617.17 6074.00,5617.17
             6074.00,5617.17 6105.00,5614.83 6105.00,5614.83
             6105.00,5614.83 6166.00,5609.17 6166.00,5609.17
             6166.00,5609.17 6201.00,5606.17 6201.00,5606.17
             6201.00,5606.17 6211.00,5605.42 6211.00,5605.42 Z" />
</svg>
