<?xml version="1.0" encoding="UTF-8" standalone="no"?>
<!DOCTYPE svg PUBLIC "-//W3C//DTD SVG 20010904//EN"
              "http://www.w3.org/TR/2001/REC-SVG-20010904/DTD/svg10.dtd">

<svg xmlns="http://www.w3.org/2000/svg"
     width="16in" height="10.4533in"
     viewBox="0 0 9600 6272">
  <path id="Dark Blue"
        fill="none" stroke="black" stroke-width="1"
        d="M 5823.00,342.21
           C 5823.00,342.21 5833.00,342.21 5833.00,342.21
             5898.94,342.77 5946.28,409.72 5924.92,472.00
             5914.78,501.58 5896.98,515.09 5874.00,534.25
             5874.00,534.25 5840.00,562.59 5840.00,562.59
             5840.00,562.59 5182.00,1112.25 5182.00,1112.25
             5182.00,1112.25 5135.00,1151.25 5135.00,1151.25
             5119.06,1164.53 5108.24,1174.90 5088.00,1181.65
             5040.45,1197.48 4987.46,1176.15 4966.31,1130.00
             4960.22,1116.70 4956.83,1100.62 4957.00,1086.00
             4957.26,1064.31 4966.22,1040.45 4980.30,1024.00
             4988.93,1013.92 5009.95,997.14 5021.00,987.92
             5021.00,987.92 5138.00,890.25 5138.00,890.25
             5138.00,890.25 5453.00,627.08 5453.00,627.08
             5453.00,627.08 5612.00,494.57 5612.00,494.57
             5612.00,494.57 5727.00,398.58 5727.00,398.58
             5742.48,385.50 5770.00,360.55 5787.00,352.26
             5799.94,345.95 5809.08,344.44 5823.00,342.21 Z
           M 4844.00,2650.00
           C 4843.78,2660.13 4841.94,2659.64 4839.44,2668.00
             4839.44,2668.00 4836.79,2678.00 4836.79,2678.00
             4836.79,2678.00 4833.22,2686.00 4833.22,2686.00
             4831.82,2690.22 4829.81,2699.44 4826.58,2702.30
             4824.47,2704.17 4815.16,2707.23 4812.00,2708.42
             4812.00,2708.42 4779.00,2721.06 4779.00,2721.06
             4779.00,2721.06 4751.00,2732.85 4751.00,2732.85
             4747.27,2734.45 4740.86,2737.70 4737.00,2737.81
             4728.32,2738.06 4722.56,2735.01 4715.00,2732.07
             4715.00,2732.07 4690.00,2722.30 4690.00,2722.30
             4660.86,2709.07 4620.79,2686.95 4608.09,2656.00
             4603.86,2645.68 4602.87,2635.04 4603.00,2624.00
             4603.24,2603.66 4612.06,2576.51 4618.26,2557.00
             4620.46,2550.04 4625.26,2536.14 4619.70,2530.22
             4614.09,2524.26 4597.96,2526.09 4590.00,2526.00
             4590.00,2526.00 4580.00,2525.09 4580.00,2525.09
             4566.06,2524.13 4561.20,2523.88 4548.00,2517.77
             4536.35,2512.37 4526.32,2505.89 4517.00,2496.96
             4480.68,2462.18 4470.81,2405.07 4485.20,2358.00
             4492.22,2335.04 4507.69,2310.47 4523.98,2293.00
             4523.98,2293.00 4531.09,2285.09 4531.09,2285.09
             4544.78,2271.40 4560.93,2260.04 4577.00,2249.33
             4583.51,2244.99 4592.86,2237.43 4601.00,2239.00
             4598.79,2246.73 4587.90,2263.13 4583.20,2271.00
             4574.66,2285.31 4565.09,2305.02 4560.42,2321.00
             4546.28,2369.38 4556.89,2421.38 4582.60,2464.00
             4597.15,2488.12 4618.01,2509.97 4644.00,2521.69
             4654.34,2526.35 4669.65,2529.93 4681.00,2528.83
             4692.72,2527.70 4705.57,2521.99 4717.00,2524.00
             4716.54,2533.33 4712.53,2537.36 4709.85,2546.00
             4707.70,2554.13 4707.97,2561.79 4709.85,2570.00
             4719.16,2615.97 4755.18,2640.38 4799.00,2649.00
             4813.79,2651.91 4829.22,2653.92 4844.00,2650.00 Z
           M 6214.00,5605.21
           C 6214.00,5605.21 6221.00,5605.21 6221.00,5605.21
             6275.80,5604.74 6322.34,5645.90 6323.00,5702.00
             6323.12,5712.56 6321.33,5723.89 6318.28,5734.00
             6315.73,5742.45 6311.86,5750.65 6307.00,5758.00
             6301.50,5766.31 6297.34,5771.11 6290.00,5777.91
             6260.94,5804.84 6226.41,5802.69 6190.00,5806.17
             6190.00,5806.17 6117.00,5812.83 6117.00,5812.83
             6117.00,5812.83 6028.00,5820.17 6028.00,5820.17
             6028.00,5820.17 5701.00,5848.83 5701.00,5848.83
             5701.00,5848.83 5647.00,5853.17 5647.00,5853.17
             5647.00,5853.17 5539.00,5862.83 5539.00,5862.83
             5539.00,5862.83 5485.00,5867.17 5485.00,5867.17
             5485.00,5867.17 5429.00,5872.17 5429.00,5872.17
             5429.00,5872.17 5406.00,5874.09 5406.00,5874.09
             5406.00,5874.09 5395.00,5875.00 5395.00,5875.00
             5338.67,5875.24 5294.35,5830.22 5295.00,5774.00
             5295.45,5735.30 5320.19,5699.11 5356.00,5684.60
             5371.01,5678.52 5386.11,5677.35 5402.00,5675.83
             5402.00,5675.83 5448.00,5671.91 5448.00,5671.91
             5448.00,5671.91 5488.00,5668.17 5488.00,5668.17
             5488.00,5668.17 5541.00,5663.83 5541.00,5663.83
             5541.00,5663.83 5586.00,5659.96 5586.00,5659.96
             5586.00,5659.96 5604.00,5658.17 5604.00,5658.17
             5604.00,5658.17 5649.00,5654.17 5649.00,5654.17
             5649.00,5654.17 5750.00,5645.83 5750.00,5645.83
             5750.00,5645.83 5836.00,5638.09 5836.00,5638.09
             5836.00,5638.09 5938.00,5629.17 5938.00,5629.17
             5938.00,5629.17 5969.00,5626.83 5969.00,5626.83
             5969.00,5626.83 6065.00,5618.17 6065.00,5618.17
             6065.00,5618.17 6170.00,5609.17 6170.00,5609.17
             6170.00,5609.17 6204.00,5606.17 6204.00,5606.17
             6204.00,5606.17 6214.00,5605.21 6214.00,5605.21 Z" />
</svg>
