<?xml version="1.0" encoding="UTF-8" standalone="no"?>
<!DOCTYPE svg PUBLIC "-//W3C//DTD SVG 20010904//EN"
              "http://www.w3.org/TR/2001/REC-SVG-20010904/DTD/svg10.dtd">

<svg xmlns="http://www.w3.org/2000/svg"
     width="16in" height="10.4533in"
     viewBox="0 0 9600 6272">
  <path id="hooves"
        fill="none" stroke="black" stroke-width="1"
        d="M 5823.00,342.21
           C 5823.00,342.21 5833.00,342.21 5833.00,342.21
             5898.94,342.77 5946.28,409.72 5924.92,472.00
             5914.78,501.58 5896.98,515.09 5874.00,534.25
             5874.00,534.25 5840.00,562.59 5840.00,562.59
             5840.00,562.59 5182.00,1112.25 5182.00,1112.25
             5182.00,1112.25 5135.00,1151.25 5135.00,1151.25
             5119.06,1164.53 5108.24,1174.90 5088.00,1181.65
             5040.45,1197.48 4987.46,1176.15 4966.31,1130.00
             4960.22,1116.70 4956.83,1100.62 4957.00,1086.00
             4957.26,1064.31 4966.22,1040.45 4980.30,1024.00
             4988.93,1013.92 5009.95,997.14 5021.00,987.92
             5021.00,987.92 5138.00,890.25 5138.00,890.25
             5138.00,890.25 5453.00,627.08 5453.00,627.08
             5453.00,627.08 5612.00,494.57 5612.00,494.57
             5612.00,494.57 5727.00,398.58 5727.00,398.58
             5742.48,385.50 5770.00,360.55 5787.00,352.26
             5799.94,345.95 5809.08,344.44 5823.00,342.21 Z
           M 6122.00,2532.00
           C 6129.11,2525.47 6137.99,2518.29 6148.00,2517.34
             6154.71,2516.70 6160.63,2520.82 6160.22,2528.00
             6159.77,2535.94 6148.94,2540.31 6145.64,2549.00
             6143.21,2555.40 6149.21,2561.50 6142.77,2567.65
             6138.83,2571.54 6133.31,2571.29 6129.39,2567.65
             6126.97,2565.31 6126.36,2562.10 6122.90,2561.40
             6122.90,2561.40 6115.00,2561.96 6115.00,2561.96
             6115.00,2561.96 6097.00,2563.17 6097.00,2563.17
             6097.00,2563.17 6081.00,2564.17 6081.00,2564.17
             6081.00,2564.17 6030.00,2568.04 6030.00,2568.04
             6024.54,2568.28 6009.30,2570.97 6005.14,2569.11
             6002.16,2567.77 6000.37,2562.03 5998.60,2559.00
             5998.60,2559.00 5983.28,2533.00 5983.28,2533.00
             5983.28,2533.00 5958.42,2491.00 5958.42,2491.00
             5958.42,2491.00 5927.20,2437.00 5927.20,2437.00
             5927.20,2437.00 5897.57,2385.00 5897.57,2385.00
             5876.42,2348.12 5855.86,2310.98 5836.75,2273.00
             5803.72,2207.35 5773.68,2138.56 5764.28,2065.00
             5764.28,2065.00 5761.76,2022.00 5761.76,2022.00
             5761.76,2022.00 5761.76,2010.00 5761.76,2010.00
             5761.76,2010.00 5762.91,2000.00 5762.91,2000.00
             5764.99,1969.72 5771.05,1940.02 5779.98,1911.00
             5784.97,1894.75 5794.84,1864.51 5802.32,1850.04
             5806.11,1842.71 5816.68,1841.96 5824.00,1840.13
             5844.48,1835.01 5866.09,1829.90 5887.00,1827.00
             5908.68,1824.00 5930.06,1820.25 5952.00,1820.00
             5952.00,1820.00 5966.00,1819.00 5966.00,1819.00
             5966.00,1819.00 5999.00,1819.00 5999.00,1819.00
             5999.00,1819.00 6013.00,1820.00 6013.00,1820.00
             6035.65,1820.11 6076.25,1824.77 6099.00,1828.59
             6099.00,1828.59 6134.00,1834.80 6134.00,1834.80
             6134.00,1834.80 6151.96,1838.42 6151.96,1838.42
             6156.72,1838.50 6164.70,1829.28 6171.35,1837.23
             6177.28,1844.31 6169.37,1851.18 6170.20,1860.00
             6170.60,1864.32 6172.82,1868.41 6171.69,1873.00
             6168.45,1886.01 6151.81,1876.60 6145.00,1873.00
             6145.00,1877.99 6144.59,1884.42 6146.65,1889.00
             6146.65,1889.00 6163.41,1910.00 6163.41,1910.00
             6168.45,1916.05 6176.70,1922.69 6175.89,1931.00
             6175.48,1935.22 6170.07,1941.80 6166.88,1944.51
             6166.88,1944.51 6162.58,1947.68 6162.58,1947.68
             6160.59,1949.81 6160.93,1952.16 6158.20,1955.96
             6158.20,1955.96 6149.00,1966.00 6149.00,1966.00
             6155.49,1968.21 6164.79,1977.99 6165.76,1985.00
             6166.44,1989.88 6163.82,1994.25 6159.00,1995.57
             6155.46,1996.54 6151.98,1995.16 6147.00,1996.56
             6135.01,1999.93 6120.07,2010.21 6112.53,2020.00
             6109.93,2023.37 6108.10,2027.31 6106.00,2031.00
             6108.98,2030.44 6114.19,2029.09 6117.00,2029.43
             6120.70,2029.87 6122.15,2032.08 6131.00,2033.59
             6149.07,2036.65 6160.13,2038.09 6178.00,2044.00
             6185.29,2046.41 6198.30,2050.97 6196.57,2061.00
             6194.65,2072.06 6183.56,2067.90 6177.00,2072.39
             6167.14,2079.14 6160.86,2089.94 6157.00,2101.00
             6159.01,2101.05 6161.08,2101.00 6163.22,2101.74
             6175.25,2106.50 6167.74,2118.77 6163.22,2126.00
             6162.35,2127.85 6160.13,2131.23 6160.53,2133.42
             6160.53,2133.42 6163.49,2139.00 6163.49,2139.00
             6164.32,2141.93 6164.12,2148.83 6163.49,2152.00
             6162.95,2157.87 6160.29,2167.15 6158.58,2173.00
             6157.91,2175.26 6155.79,2181.07 6155.83,2183.00
             6155.90,2186.73 6158.67,2188.12 6159.66,2193.00
             6161.24,2200.83 6158.62,2216.52 6155.77,2224.00
             6155.77,2224.00 6132.00,2262.00 6132.00,2262.00
             6132.00,2262.00 6141.00,2260.96 6141.00,2260.96
             6141.00,2260.96 6152.00,2260.96 6152.00,2260.96
             6155.46,2260.49 6159.71,2259.05 6163.00,2259.62
             6169.50,2260.75 6172.43,2265.74 6171.89,2272.00
             6171.17,2280.44 6162.36,2286.75 6160.93,2293.00
             6160.93,2293.00 6160.93,2305.00 6160.93,2305.00
             6160.93,2305.00 6157.00,2341.00 6157.00,2341.00
             6157.00,2341.00 6157.00,2357.00 6157.00,2357.00
             6157.02,2368.44 6160.64,2377.01 6163.11,2388.00
             6163.11,2388.00 6164.44,2399.00 6164.44,2399.00
             6166.81,2414.15 6167.00,2422.69 6156.00,2435.00
             6164.22,2435.00 6180.33,2432.30 6179.85,2445.00
             6179.79,2446.67 6179.37,2448.36 6178.55,2449.83
             6177.28,2452.09 6175.03,2453.83 6172.98,2455.36
             6162.32,2463.34 6153.47,2461.16 6144.00,2466.41
             6139.21,2469.07 6134.83,2475.46 6131.75,2480.00
             6127.53,2486.20 6121.08,2498.60 6120.09,2506.00
             6120.09,2506.00 6120.09,2520.00 6120.09,2520.00
             6120.03,2525.83 6120.21,2526.47 6122.00,2532.00 Z
           M 6457.00,3910.00
           C 6457.00,3910.00 6269.00,3924.38 6269.00,3924.38
             6259.83,3925.02 6257.69,3913.87 6254.54,3907.00
             6245.77,3887.84 6238.60,3867.99 6232.00,3848.00
             6211.26,3785.16 6206.64,3702.32 6222.63,3638.00
             6222.63,3638.00 6233.98,3596.00 6233.98,3596.00
             6235.30,3591.73 6236.80,3582.50 6240.17,3579.88
             6242.38,3578.16 6249.94,3576.01 6253.00,3575.00
             6253.00,3575.00 6283.00,3565.49 6283.00,3565.49
             6283.00,3565.49 6385.00,3531.42 6385.00,3531.42
             6385.00,3531.42 6415.91,3520.59 6415.91,3520.59
             6420.26,3518.07 6423.89,3511.75 6431.00,3513.58
             6440.23,3515.97 6438.34,3524.42 6439.36,3528.00
             6440.38,3531.60 6442.83,3533.45 6442.94,3539.00
             6443.03,3543.67 6441.20,3545.60 6441.70,3547.96
             6442.35,3550.99 6445.96,3552.56 6449.21,3557.01
             6451.71,3560.43 6452.61,3563.30 6454.31,3567.00
             6458.35,3575.81 6468.87,3592.45 6456.00,3599.00
             6462.28,3607.03 6475.43,3612.13 6478.55,3618.04
             6482.23,3625.02 6477.82,3629.73 6472.00,3633.06
             6461.88,3638.86 6451.26,3641.46 6440.00,3644.00
             6443.67,3650.68 6451.76,3655.15 6459.00,3657.21
             6463.07,3658.37 6467.37,3657.40 6470.77,3660.43
             6475.62,3664.74 6474.98,3673.33 6468.96,3676.55
             6465.88,3678.19 6462.33,3677.87 6459.00,3678.46
             6452.66,3679.58 6446.48,3680.86 6440.00,3681.00
             6443.62,3684.83 6447.89,3689.20 6446.56,3695.00
             6445.90,3697.83 6443.88,3699.84 6444.00,3702.00
             6444.16,3704.75 6447.30,3706.92 6448.83,3710.00
             6452.47,3717.36 6447.46,3723.14 6440.00,3724.00
             6440.51,3727.89 6441.58,3733.18 6440.57,3737.00
             6439.55,3740.86 6437.03,3742.00 6437.39,3745.17
             6437.88,3749.46 6447.26,3764.32 6449.68,3769.00
             6449.68,3769.00 6453.93,3779.62 6453.93,3779.62
             6455.96,3782.45 6464.54,3786.97 6468.00,3787.53
             6471.48,3788.08 6480.35,3786.01 6482.55,3795.00
             6484.46,3802.78 6477.67,3806.15 6472.00,3808.88
             6457.41,3815.92 6453.39,3819.59 6436.00,3821.00
             6439.58,3826.16 6446.82,3835.08 6452.01,3838.44
             6452.01,3838.44 6470.00,3847.79 6470.00,3847.79
             6478.16,3853.63 6481.06,3859.42 6487.17,3865.96
             6492.82,3872.00 6502.18,3875.14 6500.79,3885.00
             6499.77,3892.18 6487.88,3904.06 6482.92,3910.00
             6478.98,3914.72 6471.63,3925.70 6466.00,3927.34
             6457.63,3929.77 6449.73,3921.03 6457.00,3910.00 Z
           M 1138.00,5750.00
           C 1103.34,5743.03 1063.15,5732.54 1032.00,5715.69
             1000.74,5698.78 980.04,5683.22 954.00,5659.09
             954.00,5659.09 946.04,5651.96 946.04,5651.96
             946.04,5651.96 928.85,5633.00 928.85,5633.00
             864.05,5559.41 824.56,5469.67 802.12,5375.00
             795.06,5345.22 790.87,5315.38 787.83,5285.00
             787.83,5285.00 786.00,5268.00 786.00,5268.00
             786.00,5268.00 786.00,5259.00 786.00,5259.00
             786.00,5259.00 784.96,5247.00 784.96,5247.00
             784.96,5247.00 784.96,5231.00 784.96,5231.00
             784.96,5231.00 784.00,5219.00 784.00,5219.00
             784.00,5219.00 784.00,5183.00 784.00,5183.00
             784.00,5183.00 785.00,5166.00 785.00,5166.00
             785.00,5166.00 785.00,5152.00 785.00,5152.00
             785.00,5152.00 786.00,5134.00 786.00,5134.00
             786.00,5134.00 789.72,5087.00 789.72,5087.00
             790.29,5082.31 790.68,5071.84 793.09,5068.21
             795.07,5065.21 803.67,5059.93 807.00,5057.66
             807.00,5057.66 835.00,5038.28 835.00,5038.28
             835.00,5038.28 938.00,4967.58 938.00,4967.58
             938.00,4967.58 985.96,4934.66 985.96,4934.66
             992.44,4929.84 990.09,4928.21 992.68,4925.33
             996.31,4921.29 1008.07,4920.61 1013.00,4922.00
             1013.00,4922.00 996.42,4943.00 996.42,4943.00
             989.34,4954.38 981.37,4977.74 978.35,4991.00
             977.72,4993.78 976.28,4999.35 976.35,5002.00
             976.52,5008.67 982.05,5015.29 989.00,5015.21
             991.68,5015.18 994.53,5013.95 997.00,5013.00
             997.56,5018.81 994.95,5020.63 993.11,5026.00
             990.65,5033.93 990.11,5039.09 993.11,5047.01
             996.99,5039.06 1006.61,5038.99 1009.85,5047.01
             1011.83,5051.90 1011.00,5073.39 1011.00,5080.00
             1013.07,5078.91 1015.81,5077.29 1018.00,5076.65
             1024.40,5074.77 1030.46,5078.36 1031.64,5085.00
             1032.44,5089.43 1030.40,5092.87 1029.52,5097.00
             1029.52,5097.00 1028.00,5107.00 1028.00,5107.00
             1045.56,5108.88 1038.99,5127.74 1036.00,5139.00
             1038.15,5139.12 1039.92,5139.14 1041.96,5140.01
             1052.90,5144.67 1047.33,5162.20 1050.74,5169.86
             1052.39,5173.58 1055.81,5172.93 1059.91,5176.39
             1065.55,5181.16 1067.24,5188.92 1066.96,5196.00
             1066.26,5214.07 1056.59,5219.71 1049.32,5235.00
             1049.32,5235.00 1038.85,5261.00 1038.85,5261.00
             1037.85,5266.24 1041.14,5266.06 1038.85,5275.00
             1038.85,5275.00 1053.00,5273.37 1053.00,5273.37
             1058.71,5271.80 1062.19,5268.45 1069.00,5269.11
             1081.41,5270.32 1078.54,5281.77 1077.27,5290.00
             1077.27,5290.00 1075.00,5305.00 1075.00,5305.00
             1080.41,5302.76 1084.37,5302.41 1088.70,5307.13
             1090.55,5309.13 1091.17,5311.51 1093.30,5313.02
             1095.58,5314.64 1099.62,5314.36 1101.99,5320.02
             1101.99,5320.02 1105.00,5336.00 1105.00,5336.00
             1107.58,5342.50 1111.34,5343.25 1113.00,5352.00
             1113.00,5352.00 1124.00,5347.76 1124.00,5347.76
             1124.00,5347.76 1134.00,5346.39 1134.00,5346.39
             1138.72,5345.21 1142.02,5342.75 1146.96,5345.85
             1154.25,5350.45 1150.87,5357.39 1152.59,5361.91
             1153.95,5365.46 1157.06,5366.22 1158.47,5372.00
             1159.18,5374.93 1158.97,5378.93 1159.00,5382.00
             1159.08,5388.32 1161.43,5402.86 1163.16,5409.00
             1166.08,5419.37 1170.44,5413.65 1175.15,5421.04
             1177.39,5424.56 1179.77,5444.97 1180.00,5450.00
             1194.78,5443.16 1197.74,5455.75 1200.00,5467.00
             1206.55,5464.33 1212.97,5465.50 1215.35,5473.00
             1215.35,5473.00 1216.43,5482.00 1216.43,5482.00
             1217.09,5486.75 1219.15,5490.05 1216.43,5494.98
             1212.92,5501.78 1203.75,5501.62 1200.00,5494.98
             1200.00,5494.98 1169.00,5512.75 1169.00,5512.75
             1162.90,5515.94 1153.55,5519.50 1149.65,5525.02
             1146.92,5528.87 1146.34,5535.29 1145.40,5540.00
             1145.40,5540.00 1139.85,5572.00 1139.85,5572.00
             1139.85,5572.00 1133.91,5623.00 1133.91,5623.00
             1133.91,5623.00 1132.96,5635.00 1132.96,5635.00
             1132.96,5635.00 1132.96,5647.00 1132.96,5647.00
             1132.96,5647.00 1132.00,5659.00 1132.00,5659.00
             1132.00,5659.00 1133.00,5691.00 1133.00,5691.00
             1133.00,5691.00 1137.15,5731.00 1137.15,5731.00
             1137.96,5737.65 1140.64,5743.67 1138.00,5750.00 Z
           M 1580.00,6056.00
           C 1580.00,6056.00 1548.00,6078.58 1548.00,6078.58
             1548.00,6078.58 1503.00,6110.88 1503.00,6110.88
             1503.00,6110.88 1483.14,6125.32 1483.14,6125.32
             1479.75,6128.58 1479.50,6132.39 1474.00,6132.98
             1474.00,6132.98 1454.00,6131.09 1454.00,6131.09
             1435.73,6129.83 1420.18,6127.48 1403.00,6120.55
             1363.65,6104.66 1326.19,6068.72 1298.87,6037.00
             1236.03,5964.04 1185.01,5873.38 1163.35,5779.00
             1158.19,5756.54 1150.11,5717.39 1150.00,5695.00
             1150.00,5695.00 1149.00,5676.00 1149.00,5676.00
             1149.00,5676.00 1149.00,5649.00 1149.00,5649.00
             1149.00,5649.00 1150.00,5634.00 1150.00,5634.00
             1150.22,5614.60 1154.54,5583.61 1157.75,5564.00
             1158.63,5558.67 1161.50,5539.61 1163.85,5536.10
             1165.92,5533.02 1170.78,5530.52 1174.00,5528.60
             1174.00,5528.60 1197.00,5515.58 1197.00,5515.58
             1197.00,5515.58 1277.00,5469.65 1277.00,5469.65
             1287.84,5463.51 1292.02,5461.00 1304.00,5457.12
             1306.10,5456.43 1311.50,5453.82 1313.36,5455.13
             1315.79,5456.83 1312.55,5462.22 1311.92,5466.00
             1310.44,5471.35 1309.47,5480.02 1311.92,5484.98
             1314.63,5489.53 1317.17,5488.56 1319.00,5494.00
             1321.69,5491.46 1325.13,5487.96 1329.00,5487.50
             1336.00,5486.67 1338.85,5494.13 1337.21,5500.00
             1335.08,5507.63 1328.69,5514.46 1324.36,5521.00
             1319.52,5528.29 1314.95,5538.46 1313.00,5547.00
             1316.54,5545.78 1320.30,5544.18 1324.00,5543.66
             1333.89,5542.25 1340.47,5549.29 1339.91,5559.00
             1339.45,5566.86 1334.01,5584.06 1334.00,5603.00
             1336.28,5601.39 1339.60,5598.85 1342.00,5597.68
             1343.93,5596.74 1345.85,5596.20 1348.00,5596.14
             1364.06,5595.69 1358.44,5614.80 1356.00,5624.00
             1366.35,5624.26 1370.81,5629.09 1372.98,5639.00
             1375.14,5648.81 1373.79,5659.60 1377.46,5669.00
             1377.46,5669.00 1384.69,5684.00 1384.69,5684.00
             1384.69,5684.00 1400.26,5718.00 1400.26,5718.00
             1403.26,5724.20 1408.20,5732.69 1410.00,5739.00
             1412.34,5736.68 1415.19,5733.68 1418.00,5732.01
             1424.54,5728.12 1432.06,5730.03 1435.43,5737.00
             1437.44,5741.16 1436.98,5746.47 1437.00,5751.00
             1437.03,5757.86 1438.90,5770.20 1440.42,5777.00
             1440.42,5777.00 1443.00,5788.00 1443.00,5788.00
             1443.00,5788.00 1452.00,5786.11 1452.00,5786.11
             1462.83,5785.25 1464.96,5793.07 1465.00,5802.00
             1465.03,5808.06 1464.65,5816.29 1466.68,5822.00
             1468.36,5826.70 1472.56,5830.32 1474.32,5838.00
             1475.40,5842.71 1475.00,5854.56 1475.00,5860.00
             1475.00,5860.00 1482.00,5855.35 1482.00,5855.35
             1485.11,5853.62 1487.75,5852.82 1491.00,5851.58
             1499.17,5848.46 1517.30,5838.23 1522.26,5851.00
             1523.13,5853.24 1523.00,5856.58 1523.00,5859.00
             1523.00,5859.00 1523.00,5878.00 1523.00,5878.00
             1523.02,5891.19 1527.82,5918.44 1532.00,5931.00
             1539.57,5929.42 1540.99,5933.53 1543.30,5940.00
             1546.91,5950.08 1547.00,5958.53 1547.00,5969.00
             1549.79,5967.03 1553.89,5963.13 1557.00,5962.47
             1566.54,5960.46 1570.08,5974.19 1571.00,5981.00
             1585.12,5978.79 1583.56,5988.13 1586.61,5997.00
             1588.19,6001.60 1591.61,6005.37 1593.21,6011.00
             1594.65,6016.04 1593.26,6020.46 1597.00,6032.00
             1602.71,6026.29 1613.81,6014.04 1622.00,6013.20
             1636.87,6011.68 1636.13,6031.06 1628.79,6038.83
             1628.79,6038.83 1614.10,6051.04 1614.10,6051.04
             1614.10,6051.04 1605.82,6061.91 1605.82,6061.91
             1602.17,6065.78 1592.67,6072.53 1588.00,6076.21
             1583.59,6079.68 1576.96,6085.52 1572.00,6087.64
             1561.82,6091.98 1556.26,6084.45 1560.23,6075.00
             1563.00,6068.39 1574.35,6061.18 1580.00,6056.00 Z
           M 1313.00,5547.00
           C 1313.00,5547.00 1312.00,5547.00 1312.00,5547.00
             1312.00,5547.00 1313.00,5548.00 1313.00,5548.00
             1313.00,5548.00 1313.00,5547.00 1313.00,5547.00 Z
           M 6214.00,5605.21
           C 6214.00,5605.21 6221.00,5605.21 6221.00,5605.21
             6275.80,5604.74 6322.34,5645.90 6323.00,5702.00
             6323.12,5712.56 6321.33,5723.89 6318.28,5734.00
             6315.73,5742.45 6311.86,5750.65 6307.00,5758.00
             6301.50,5766.31 6297.34,5771.11 6290.00,5777.91
             6260.94,5804.84 6226.41,5802.69 6190.00,5806.17
             6190.00,5806.17 6117.00,5812.83 6117.00,5812.83
             6117.00,5812.83 6028.00,5820.17 6028.00,5820.17
             6028.00,5820.17 5701.00,5848.83 5701.00,5848.83
             5701.00,5848.83 5647.00,5853.17 5647.00,5853.17
             5647.00,5853.17 5539.00,5862.83 5539.00,5862.83
             5539.00,5862.83 5485.00,5867.17 5485.00,5867.17
             5485.00,5867.17 5429.00,5872.17 5429.00,5872.17
             5429.00,5872.17 5406.00,5874.09 5406.00,5874.09
             5406.00,5874.09 5395.00,5875.00 5395.00,5875.00
             5338.67,5875.24 5294.35,5830.22 5295.00,5774.00
             5295.45,5735.30 5320.19,5699.11 5356.00,5684.60
             5371.01,5678.52 5386.11,5677.35 5402.00,5675.83
             5402.00,5675.83 5448.00,5671.91 5448.00,5671.91
             5448.00,5671.91 5488.00,5668.17 5488.00,5668.17
             5488.00,5668.17 5541.00,5663.83 5541.00,5663.83
             5541.00,5663.83 5586.00,5659.96 5586.00,5659.96
             5586.00,5659.96 5604.00,5658.17 5604.00,5658.17
             5604.00,5658.17 5649.00,5654.17 5649.00,5654.17
             5649.00,5654.17 5750.00,5645.83 5750.00,5645.83
             5750.00,5645.83 5836.00,5638.09 5836.00,5638.09
             5836.00,5638.09 5938.00,5629.17 5938.00,5629.17
             5938.00,5629.17 5969.00,5626.83 5969.00,5626.83
             5969.00,5626.83 6065.00,5618.17 6065.00,5618.17
             6065.00,5618.17 6170.00,5609.17 6170.00,5609.17
             6170.00,5609.17 6204.00,5606.17 6204.00,5606.17
             6204.00,5606.17 6214.00,5605.21 6214.00,5605.21 Z" />
</svg>
