<?xml version="1.0" encoding="UTF-8" standalone="no"?>
<!DOCTYPE svg PUBLIC "-//W3C//DTD SVG 20010904//EN"
              "http://www.w3.org/TR/2001/REC-SVG-20010904/DTD/svg10.dtd">

<svg xmlns="http://www.w3.org/2000/svg"
     width="16in" height="10.4533in"
     viewBox="0 0 9600 6272">
  <path id="Inner Eye Whites"
        fill="none" stroke="black" stroke-width="1"
        d="M 5822.00,342.21
           C 5822.00,342.21 5828.00,342.21 5828.00,342.21
             5855.32,341.68 5881.10,350.96 5900.91,370.17
             5927.46,395.92 5937.18,439.29 5924.56,474.00
             5914.29,502.27 5901.02,511.89 5879.00,530.25
             5879.00,530.25 5841.00,561.92 5841.00,561.92
             5841.00,561.92 5602.00,761.92 5602.00,761.92
             5602.00,761.92 5486.00,858.92 5486.00,858.92
             5486.00,858.92 5449.00,889.74 5449.00,889.74
             5449.00,889.74 5438.00,898.30 5438.00,898.30
             5438.00,898.30 5316.00,1000.92 5316.00,1000.92
             5316.00,1000.92 5279.00,1031.08 5279.00,1031.08
             5279.00,1031.08 5183.00,1111.59 5183.00,1111.59
             5183.00,1111.59 5152.00,1137.92 5152.00,1137.92
             5152.00,1137.92 5135.00,1151.41 5135.00,1151.41
             5119.12,1164.63 5108.11,1175.03 5088.00,1181.92
             5053.27,1193.84 5010.86,1184.41 4985.17,1157.91
             4965.96,1138.10 4956.68,1112.32 4957.00,1085.00
             4957.29,1060.81 4968.41,1035.37 4985.17,1018.09
             4985.17,1018.09 5010.00,996.93 5010.00,996.93
             5010.00,996.93 5054.00,959.92 5054.00,959.92
             5054.00,959.92 5139.00,889.25 5139.00,889.25
             5139.00,889.25 5615.00,491.59 5615.00,491.59
             5615.00,491.59 5693.00,426.08 5693.00,426.08
             5693.00,426.08 5728.00,397.57 5728.00,397.57
             5749.13,379.51 5771.66,357.01 5798.00,347.44
             5806.12,344.48 5813.59,343.64 5822.00,342.21 Z
           M 7647.00,3852.00
           C 7648.69,3846.92 7651.04,3847.07 7656.00,3847.00
             7656.00,3847.00 7693.00,3847.00 7693.00,3847.00
             7693.00,3847.00 7721.00,3847.00 7721.00,3847.00
             7721.00,3847.00 7733.00,3848.04 7733.00,3848.04
             7733.00,3848.04 7742.00,3848.04 7742.00,3848.04
             7753.35,3849.27 7791.76,3859.38 7803.00,3863.43
             7815.22,3867.84 7828.37,3873.99 7839.91,3880.00
             7843.68,3881.96 7849.18,3886.65 7845.78,3891.44
             7844.03,3893.89 7837.77,3893.96 7835.00,3894.00
             7835.00,3894.00 7814.00,3893.00 7814.00,3893.00
             7790.94,3892.96 7754.27,3888.15 7732.00,3882.25
             7732.00,3882.25 7703.00,3873.03 7703.00,3873.03
             7703.00,3873.03 7674.00,3864.41 7674.00,3864.41
             7674.00,3864.41 7647.00,3852.00 7647.00,3852.00 Z
           M 7505.00,4538.00
           C 7515.07,4539.14 7516.06,4546.20 7529.00,4543.62
             7539.72,4541.49 7540.38,4537.97 7545.37,4534.08
             7545.37,4534.08 7553.00,4529.49 7553.00,4529.49
             7560.70,4525.47 7564.75,4526.02 7573.00,4526.00
             7578.02,4525.99 7581.08,4526.25 7584.57,4521.94
             7586.65,4519.38 7587.04,4516.85 7588.35,4514.00
             7590.24,4509.91 7595.11,4503.04 7600.00,4502.56
             7604.35,4502.14 7606.41,4506.18 7605.28,4510.00
             7603.96,4514.51 7595.61,4523.93 7597.40,4528.73
             7598.08,4530.56 7600.37,4531.49 7602.01,4532.27
             7602.01,4532.27 7615.00,4538.37 7615.00,4538.37
             7618.98,4539.84 7626.57,4536.75 7629.91,4534.37
             7633.98,4531.45 7636.37,4527.26 7643.00,4526.35
             7649.27,4525.49 7651.22,4529.91 7645.89,4534.73
             7645.89,4534.73 7625.00,4544.00 7625.00,4544.00
             7641.38,4551.62 7646.60,4551.03 7664.00,4551.00
             7678.42,4550.97 7676.26,4544.56 7688.00,4544.04
             7694.50,4543.75 7703.23,4546.28 7707.77,4551.13
             7713.60,4557.35 7711.73,4566.40 7704.00,4570.08
             7693.87,4574.91 7683.60,4568.29 7674.00,4565.54
             7671.31,4564.77 7665.99,4565.00 7663.00,4565.00
             7658.95,4565.01 7654.64,4564.87 7651.00,4566.93
             7643.89,4570.98 7641.49,4578.65 7631.00,4582.00
             7633.69,4585.44 7642.86,4593.22 7647.00,4594.18
             7647.00,4594.18 7655.00,4594.18 7655.00,4594.18
             7660.64,4594.51 7670.82,4599.17 7672.48,4605.04
             7673.02,4606.99 7672.78,4609.16 7671.82,4610.95
             7668.26,4617.64 7657.03,4616.55 7651.00,4614.39
             7642.21,4611.25 7642.71,4604.86 7639.49,4601.63
             7637.50,4599.63 7627.03,4594.69 7624.00,4593.45
             7619.00,4591.41 7608.22,4588.02 7603.00,4587.38
             7593.39,4586.19 7584.24,4586.87 7575.00,4583.00
             7572.93,4587.87 7569.69,4595.40 7570.84,4600.83
             7571.35,4603.24 7581.07,4615.81 7574.99,4624.89
             7568.91,4633.98 7549.27,4625.90 7546.72,4617.00
             7543.51,4605.78 7551.53,4601.26 7553.41,4596.00
             7553.41,4596.00 7556.00,4578.00 7556.00,4578.00
             7556.00,4578.00 7540.00,4572.78 7540.00,4572.78
             7531.54,4570.38 7517.76,4568.01 7509.00,4568.00
             7509.00,4568.00 7481.00,4568.68 7481.00,4568.68
             7481.00,4568.68 7468.00,4567.96 7468.00,4567.96
             7461.87,4567.66 7448.83,4562.34 7454.74,4554.22
             7457.76,4550.07 7469.06,4547.82 7474.00,4548.18
             7474.00,4548.18 7493.00,4551.71 7493.00,4551.71
             7500.10,4552.64 7510.05,4551.71 7517.00,4550.00
             7510.19,4546.83 7505.69,4546.52 7505.00,4538.00 Z
           M 6211.00,5605.42
           C 6268.40,5598.43 6322.31,5642.23 6323.00,5701.00
             6323.13,5712.15 6321.77,5723.29 6318.56,5734.00
             6316.43,5741.12 6310.75,5752.81 6306.64,5759.00
             6303.02,5764.46 6296.85,5772.30 6291.99,5776.57
             6281.29,5785.96 6268.63,5793.88 6255.00,5798.25
             6236.69,5804.13 6201.34,5805.22 6181.00,5807.17
             6181.00,5807.17 6119.00,5812.91 6119.00,5812.91
             6119.00,5812.91 5993.00,5823.83 5993.00,5823.83
             5993.00,5823.83 5962.00,5826.17 5962.00,5826.17
             5962.00,5826.17 5866.00,5834.83 5866.00,5834.83
             5866.00,5834.83 5835.00,5837.17 5835.00,5837.17
             5835.00,5837.17 5657.00,5852.83 5657.00,5852.83
             5657.00,5852.83 5626.00,5855.17 5626.00,5855.17
             5626.00,5855.17 5530.00,5863.83 5530.00,5863.83
             5530.00,5863.83 5476.00,5868.17 5476.00,5868.17
             5476.00,5868.17 5419.00,5873.17 5419.00,5873.17
             5419.00,5873.17 5397.00,5875.00 5397.00,5875.00
             5385.22,5875.02 5373.21,5873.77 5362.00,5869.92
             5319.57,5855.37 5294.49,5817.25 5295.00,5773.00
             5295.49,5731.78 5323.31,5695.35 5362.00,5682.08
             5381.79,5675.29 5413.55,5674.88 5435.00,5672.83
             5435.00,5672.83 5531.00,5664.17 5531.00,5664.17
             5531.00,5664.17 5586.00,5659.72 5586.00,5659.72
             5586.00,5659.72 5608.00,5657.83 5608.00,5657.83
             5608.00,5657.83 5689.00,5650.83 5689.00,5650.83
             5689.00,5650.83 5792.00,5641.83 5792.00,5641.83
             5792.00,5641.83 5833.00,5638.09 5833.00,5638.09
             5833.00,5638.09 5912.00,5631.17 5912.00,5631.17
             5912.00,5631.17 5943.00,5628.83 5943.00,5628.83
             5943.00,5628.83 6074.00,5617.17 6074.00,5617.17
             6074.00,5617.17 6105.00,5614.83 6105.00,5614.83
             6105.00,5614.83 6166.00,5609.17 6166.00,5609.17
             6166.00,5609.17 6201.00,5606.17 6201.00,5606.17
             6201.00,5606.17 6211.00,5605.42 6211.00,5605.42 Z" />
</svg>
