<?xml version="1.0" encoding="UTF-8" standalone="no"?>
<!DOCTYPE svg PUBLIC "-//W3C//DTD SVG 20010904//EN"
              "http://www.w3.org/TR/2001/REC-SVG-20010904/DTD/svg10.dtd">

<svg xmlns="http://www.w3.org/2000/svg"
     width="16in" height="10.4533in"
     viewBox="0 0 9600 6272">
  <path id="Light Brown"
        fill="none" stroke="black" stroke-width="1"
        d="M 5827.00,342.42
           C 5834.16,341.57 5848.82,343.79 5856.00,345.63
             5912.39,360.06 5943.03,420.83 5923.31,475.00
             5914.08,500.34 5897.78,513.71 5878.00,530.42
             5878.00,530.42 5842.00,560.59 5842.00,560.59
             5842.00,560.59 5183.00,1110.92 5183.00,1110.92
             5183.00,1110.92 5137.00,1149.25 5137.00,1149.25
             5114.06,1168.36 5092.59,1185.85 5061.00,1186.00
             5045.94,1186.07 5036.47,1185.57 5022.00,1180.31
             4985.92,1167.17 4958.06,1130.93 4958.00,1092.00
             4958.00,1092.00 4958.00,1082.00 4958.00,1082.00
             4958.28,1058.77 4971.26,1033.47 4987.17,1017.09
             4987.17,1017.09 5017.00,991.59 5017.00,991.59
             5017.00,991.59 5142.00,887.25 5142.00,887.25
             5142.00,887.25 5613.00,493.92 5613.00,493.92
             5613.00,493.92 5723.00,402.25 5723.00,402.25
             5742.66,385.80 5771.13,358.72 5794.00,349.45
             5806.73,344.30 5814.11,344.25 5827.00,342.42 Z
           M 6193.00,1815.00
           C 6195.87,1822.00 6194.02,1831.62 6203.22,1845.00
             6217.21,1865.36 6245.85,1882.87 6267.00,1895.64
             6305.52,1918.91 6359.41,1948.07 6389.96,1980.00
             6417.80,2009.09 6433.36,2043.83 6451.47,2079.00
             6470.07,2115.11 6491.58,2149.78 6517.79,2180.91
             6557.18,2227.70 6600.32,2266.08 6646.00,2306.28
             6646.00,2306.28 6656.00,2315.71 6656.00,2315.71
             6656.00,2315.71 6711.00,2364.09 6711.00,2364.09
             6711.00,2364.09 6724.00,2376.96 6724.00,2376.96
             6741.72,2393.91 6760.04,2410.58 6776.28,2429.00
             6776.28,2429.00 6787.83,2441.00 6787.83,2441.00
             6787.83,2441.00 6810.00,2467.04 6810.00,2467.04
             6839.78,2502.96 6873.53,2549.50 6898.46,2589.01
             6901.15,2593.28 6906.99,2601.63 6908.78,2606.00
             6908.78,2606.00 6914.50,2627.00 6914.50,2627.00
             6915.88,2632.84 6916.25,2641.87 6923.02,2644.24
             6928.73,2646.25 6933.54,2639.56 6937.00,2636.00
             6937.00,2636.00 6936.04,2649.00 6936.04,2649.00
             6936.04,2649.00 6936.96,2657.00 6936.96,2657.00
             6936.96,2657.00 6936.96,2672.00 6936.96,2672.00
             6936.96,2672.00 6938.00,2687.00 6938.00,2687.00
             6938.00,2687.00 6938.00,2713.00 6938.00,2713.00
             6938.00,2713.00 6937.00,2728.00 6937.00,2728.00
             6937.00,2728.00 6936.00,2767.00 6936.00,2767.00
             6936.00,2767.00 6933.17,2800.00 6933.17,2800.00
             6933.17,2800.00 6931.83,2821.00 6931.83,2821.00
             6931.83,2821.00 6929.00,2841.00 6929.00,2841.00
             6929.00,2841.00 6929.00,2850.00 6929.00,2850.00
             6929.00,2850.00 6926.28,2867.00 6926.28,2867.00
             6926.28,2867.00 6924.71,2883.00 6924.71,2883.00
             6924.71,2883.00 6922.29,2898.00 6922.29,2898.00
             6922.29,2898.00 6921.71,2906.00 6921.71,2906.00
             6921.71,2906.00 6918.44,2925.00 6918.44,2925.00
             6918.44,2925.00 6914.54,2953.00 6914.54,2953.00
             6914.54,2953.00 6904.46,3005.00 6904.46,3005.00
             6894.72,3056.60 6879.25,3115.34 6862.08,3165.00
             6847.51,3207.13 6831.92,3245.09 6811.96,3285.00
             6798.22,3312.49 6783.52,3340.02 6762.83,3363.00
             6742.75,3385.30 6726.03,3391.39 6699.00,3401.09
             6699.00,3401.09 6661.00,3414.50 6661.00,3414.50
             6661.00,3414.50 6521.00,3465.09 6521.00,3465.09
             6521.00,3465.09 6480.00,3479.88 6480.00,3479.88
             6480.00,3479.88 6416.00,3502.76 6416.00,3502.76
             6416.00,3502.76 6314.00,3537.09 6314.00,3537.09
             6314.00,3537.09 6287.00,3546.26 6287.00,3546.26
             6287.00,3546.26 6251.00,3557.52 6251.00,3557.52
             6251.00,3557.52 6243.00,3560.43 6243.00,3560.43
             6243.00,3560.43 6099.00,3603.08 6099.00,3603.08
             6099.00,3603.08 5959.00,3639.89 5959.00,3639.89
             5959.00,3639.89 5936.00,3646.24 5936.00,3646.24
             5936.00,3646.24 5929.00,3647.51 5929.00,3647.51
             5929.00,3647.51 5906.00,3653.50 5906.00,3653.50
             5906.00,3653.50 5886.00,3657.90 5886.00,3657.90
             5886.00,3657.90 5810.00,3675.67 5810.00,3675.67
             5810.00,3675.67 5800.00,3678.49 5800.00,3678.49
             5800.00,3678.49 5779.00,3682.66 5779.00,3682.66
             5779.00,3682.66 5767.00,3685.69 5767.00,3685.69
             5767.00,3685.69 5745.00,3689.89 5745.00,3689.89
             5745.00,3689.89 5703.00,3704.00 5703.00,3704.00
             5703.00,3704.00 5703.00,3706.00 5703.00,3706.00
             5703.00,3706.00 5716.00,3706.79 5716.00,3706.79
             5722.70,3706.44 5727.78,3703.94 5731.00,3703.46
             5731.00,3703.46 5736.00,3703.46 5736.00,3703.46
             5736.00,3703.46 5748.00,3701.57 5748.00,3701.57
             5748.00,3701.57 5783.00,3694.84 5783.00,3694.84
             5788.90,3694.07 5804.15,3688.82 5809.00,3691.06
             5812.20,3692.54 5817.18,3699.08 5819.58,3702.00
             5827.49,3711.66 5834.91,3721.51 5841.69,3732.00
             5855.59,3753.51 5863.94,3772.00 5869.42,3797.00
             5870.72,3802.92 5871.93,3808.92 5872.00,3815.00
             5872.40,3849.80 5855.03,3890.32 5848.00,3925.00
             5848.00,3925.00 5845.09,3950.00 5845.09,3950.00
             5844.55,3957.93 5846.06,3964.30 5846.83,3972.00
             5851.28,4016.45 5880.05,4058.19 5912.00,4087.91
             5936.69,4110.88 5970.19,4130.37 6002.00,4141.50
             6015.84,4146.35 6037.42,4151.83 6052.00,4152.00
             6084.48,4152.38 6109.45,4141.78 6126.69,4113.00
             6135.17,4098.85 6144.40,4069.70 6123.00,4061.97
             6119.80,4060.81 6116.35,4060.97 6113.00,4061.00
             6104.13,4061.10 6089.13,4065.92 6080.00,4067.54
             6071.97,4068.96 6059.31,4069.09 6051.00,4069.00
             6040.79,4068.88 6027.81,4066.36 6019.00,4061.07
             6003.03,4051.49 5995.22,4032.10 5995.00,4014.00
             5995.00,4014.00 5995.00,4003.00 5995.00,4003.00
             5995.02,3990.90 5998.51,3976.59 6001.96,3965.00
             6009.98,3938.11 6021.74,3915.53 6038.48,3893.00
             6071.45,3848.62 6112.70,3815.25 6112.00,3755.00
             6112.00,3755.00 6110.28,3738.00 6110.28,3738.00
             6107.34,3713.46 6099.82,3689.53 6089.62,3667.00
             6089.62,3667.00 6079.69,3646.00 6079.69,3646.00
             6076.81,3640.67 6072.80,3634.70 6071.00,3629.00
             6071.00,3629.00 6108.00,3619.23 6108.00,3619.23
             6112.87,3617.79 6122.18,3614.12 6127.00,3615.00
             6127.00,3615.00 6114.00,3623.00 6114.00,3623.00
             6131.63,3623.00 6152.69,3616.92 6170.00,3612.77
             6175.92,3611.35 6178.57,3609.58 6185.00,3609.00
             6185.00,3609.00 6179.00,3616.00 6179.00,3616.00
             6179.00,3616.00 6192.00,3611.00 6192.00,3611.00
             6192.00,3611.00 6183.00,3623.00 6183.00,3623.00
             6188.00,3620.31 6194.76,3615.57 6199.00,3611.82
             6206.22,3605.43 6204.48,3603.91 6214.00,3600.00
             6212.90,3610.61 6203.70,3620.95 6198.00,3630.00
             6198.00,3630.00 6208.00,3624.00 6208.00,3624.00
             6208.00,3624.00 6204.90,3637.00 6204.90,3637.00
             6204.90,3637.00 6200.92,3657.00 6200.92,3657.00
             6200.92,3657.00 6200.11,3665.00 6200.11,3665.00
             6198.65,3676.22 6197.06,3679.66 6197.00,3692.00
             6197.00,3692.00 6196.00,3707.00 6196.00,3707.00
             6196.00,3707.00 6196.00,3741.00 6196.00,3741.00
             6196.00,3741.00 6197.00,3756.00 6197.00,3756.00
             6197.17,3770.88 6198.36,3771.60 6200.11,3785.00
             6200.11,3785.00 6200.84,3793.00 6200.84,3793.00
             6200.84,3793.00 6203.20,3804.00 6203.20,3804.00
             6207.47,3826.17 6213.28,3847.73 6220.91,3869.00
             6220.91,3869.00 6241.46,3920.00 6241.46,3920.00
             6244.35,3926.39 6247.99,3936.52 6254.00,3940.15
             6258.18,3942.66 6271.25,3941.06 6277.00,3941.00
             6277.00,3941.00 6287.00,3940.09 6287.00,3940.09
             6287.00,3940.09 6318.00,3938.00 6318.00,3938.00
             6318.00,3938.00 6328.00,3937.09 6328.00,3937.09
             6328.00,3937.09 6369.00,3934.00 6369.00,3934.00
             6369.00,3934.00 6409.00,3931.00 6409.00,3931.00
             6409.00,3931.00 6440.00,3928.17 6440.00,3928.17
             6440.00,3928.17 6462.00,3927.00 6462.00,3927.00
             6462.00,3927.00 6474.00,3926.00 6474.00,3926.00
             6473.13,3934.89 6475.84,3934.13 6487.00,3934.00
             6494.94,3933.90 6500.04,3931.53 6507.00,3928.00
             6507.00,3928.00 6500.83,3944.00 6500.83,3944.00
             6500.83,3944.00 6497.08,3959.00 6497.08,3959.00
             6495.11,3963.32 6490.97,3966.12 6490.24,3971.00
             6489.17,3978.16 6495.51,3984.08 6504.00,3978.35
             6504.00,3978.35 6519.00,3966.44 6519.00,3966.44
             6548.68,3947.14 6579.74,3930.71 6611.00,3914.22
             6646.73,3895.37 6681.27,3874.68 6716.00,3854.08
             6716.00,3854.08 6761.17,3827.30 6761.17,3827.30
             6761.17,3827.30 6808.00,3800.58 6808.00,3800.58
             6808.00,3800.58 6856.00,3769.96 6856.00,3769.96
             6856.00,3769.96 6929.96,3713.87 6929.96,3713.87
             6929.96,3713.87 6954.00,3694.00 6954.00,3694.00
             6953.31,3702.53 6948.92,3702.24 6948.08,3707.00
             6947.35,3711.10 6951.82,3714.64 6956.00,3713.36
             6961.19,3711.77 6969.33,3701.15 6976.00,3698.00
             6976.00,3698.00 6972.52,3714.00 6972.52,3714.00
             6972.52,3714.00 6969.87,3728.00 6969.87,3728.00
             6969.87,3728.00 6966.99,3739.00 6966.99,3739.00
             6966.99,3739.00 6943.00,3768.00 6943.00,3768.00
             6943.00,3768.00 6965.00,3755.00 6965.00,3755.00
             6965.00,3755.00 6972.00,3762.00 6972.00,3762.00
             6972.00,3762.00 6955.00,3786.00 6955.00,3786.00
             6955.00,3786.00 6985.00,3764.00 6985.00,3764.00
             6985.00,3764.00 6965.00,3789.00 6965.00,3789.00
             6965.00,3789.00 6923.51,3841.00 6923.51,3841.00
             6878.57,3898.37 6843.84,3955.36 6824.26,4026.00
             6824.26,4026.00 6818.52,4047.00 6818.52,4047.00
             6817.54,4052.04 6819.01,4054.30 6819.70,4059.00
             6819.70,4059.00 6821.96,4080.00 6821.96,4080.00
             6821.96,4080.00 6821.96,4090.00 6821.96,4090.00
             6821.96,4090.00 6825.00,4113.00 6825.00,4113.00
             6825.00,4113.00 6825.00,4122.00 6825.00,4122.00
             6825.00,4122.00 6828.94,4147.00 6828.94,4147.00
             6828.94,4147.00 6828.94,4155.00 6828.94,4155.00
             6828.94,4155.00 6831.71,4172.00 6831.71,4172.00
             6831.71,4172.00 6832.29,4180.00 6832.29,4180.00
             6832.29,4180.00 6835.71,4200.00 6835.71,4200.00
             6835.71,4200.00 6836.43,4209.00 6836.43,4209.00
             6836.43,4209.00 6839.57,4226.00 6839.57,4226.00
             6839.57,4226.00 6854.46,4313.00 6854.46,4313.00
             6854.46,4313.00 6857.06,4324.00 6857.06,4324.00
             6857.06,4324.00 6866.23,4368.00 6866.23,4368.00
             6866.23,4368.00 6871.00,4389.00 6871.00,4389.00
             6871.00,4389.00 6849.00,4382.43 6849.00,4382.43
             6849.00,4382.43 6788.00,4364.74 6788.00,4364.74
             6788.00,4364.74 6771.00,4360.51 6771.00,4360.51
             6771.00,4360.51 6763.00,4357.92 6763.00,4357.92
             6763.00,4357.92 6699.00,4342.34 6699.00,4342.34
             6699.00,4342.34 6689.00,4339.51 6689.00,4339.51
             6689.00,4339.51 6667.00,4335.34 6667.00,4335.34
             6667.00,4335.34 6656.00,4332.51 6656.00,4332.51
             6656.00,4332.51 6632.00,4328.20 6632.00,4328.20
             6632.00,4328.20 6620.00,4325.46 6620.00,4325.46
             6620.00,4325.46 6580.00,4318.44 6580.00,4318.44
             6580.00,4318.44 6572.00,4317.54 6572.00,4317.54
             6572.00,4317.54 6537.00,4311.43 6537.00,4311.43
             6537.00,4311.43 6529.00,4310.70 6529.00,4310.70
             6529.00,4310.70 6511.00,4307.43 6511.00,4307.43
             6511.00,4307.43 6481.00,4303.57 6481.00,4303.57
             6481.00,4303.57 6462.00,4300.29 6462.00,4300.29
             6462.00,4300.29 6454.00,4299.71 6454.00,4299.71
             6454.00,4299.71 6433.00,4296.28 6433.00,4296.28
             6433.00,4296.28 6397.00,4291.73 6397.00,4291.73
             6397.00,4291.73 6383.00,4289.29 6383.00,4289.29
             6383.00,4289.29 6375.00,4288.71 6375.00,4288.71
             6375.00,4288.71 6361.00,4286.43 6361.00,4286.43
             6361.00,4286.43 6353.00,4285.72 6353.00,4285.72
             6353.00,4285.72 6325.00,4281.71 6325.00,4281.71
             6325.00,4281.71 6311.00,4279.29 6311.00,4279.29
             6311.00,4279.29 6303.00,4278.57 6303.00,4278.57
             6303.00,4278.57 6286.00,4275.44 6286.00,4275.44
             6286.00,4275.44 6277.00,4274.57 6277.00,4274.57
             6277.00,4274.57 6260.00,4271.44 6260.00,4271.44
             6260.00,4271.44 6233.00,4267.56 6233.00,4267.56
             6233.00,4267.56 6179.00,4257.61 6179.00,4257.61
             6179.00,4257.61 6133.00,4249.54 6133.00,4249.54
             6133.00,4249.54 6120.00,4246.46 6120.00,4246.46
             6120.00,4246.46 6113.00,4245.49 6113.00,4245.49
             6113.00,4245.49 6055.00,4232.51 6055.00,4232.51
             5999.21,4220.40 5944.10,4203.75 5890.00,4185.48
             5890.00,4185.48 5815.00,4157.87 5815.00,4157.87
             5815.00,4157.87 5745.00,4129.85 5745.00,4129.85
             5745.00,4129.85 5727.00,4122.23 5727.00,4122.23
             5727.00,4122.23 5718.49,4119.02 5718.49,4119.02
             5715.69,4116.91 5713.03,4108.45 5711.78,4105.00
             5711.78,4105.00 5699.85,4075.00 5699.85,4075.00
             5684.74,4040.26 5667.32,4006.80 5648.38,3974.00
             5630.89,3943.72 5610.59,3915.01 5588.46,3888.00
             5588.46,3888.00 5578.21,3875.09 5578.21,3875.09
             5539.69,3829.51 5494.43,3789.87 5445.00,3756.59
             5386.47,3717.18 5319.42,3693.33 5253.00,3671.11
             5196.10,3652.08 5138.76,3634.21 5083.00,3611.90
             5045.55,3596.92 5007.48,3580.91 4975.99,3555.20
             4963.61,3545.10 4948.60,3530.80 4942.00,3516.00
             4943.57,3514.50 4944.35,3513.97 4945.35,3511.91
             4945.35,3511.91 4951.87,3482.00 4951.87,3482.00
             4957.18,3460.13 4965.56,3439.98 4975.86,3420.00
             5004.15,3365.15 5057.94,3309.60 5108.00,3274.04
             5190.48,3215.44 5278.82,3181.24 5375.00,3152.57
             5375.00,3152.57 5418.00,3141.25 5418.00,3141.25
             5461.70,3129.67 5505.76,3119.61 5550.00,3110.21
             5550.00,3110.21 5576.00,3105.34 5576.00,3105.34
             5576.00,3105.34 5603.00,3099.46 5603.00,3099.46
             5603.00,3099.46 5613.00,3098.00 5613.00,3098.00
             5613.00,3098.00 5667.00,3087.54 5667.00,3087.54
             5667.00,3087.54 5680.00,3084.46 5680.00,3084.46
             5680.00,3084.46 5725.00,3076.54 5725.00,3076.54
             5725.00,3076.54 5755.00,3070.61 5755.00,3070.61
             5755.00,3070.61 5780.00,3066.54 5780.00,3066.54
             5780.00,3066.54 5816.00,3059.46 5816.00,3059.46
             5816.00,3059.46 5824.00,3058.54 5824.00,3058.54
             5824.00,3058.54 5856.00,3052.46 5856.00,3052.46
             5856.00,3052.46 5882.00,3048.56 5882.00,3048.56
             5882.00,3048.56 5897.00,3045.30 5897.00,3045.30
             5897.00,3045.30 5946.00,3037.56 5946.00,3037.56
             5946.00,3037.56 5961.00,3034.44 5961.00,3034.44
             5961.00,3034.44 6031.00,3023.56 6031.00,3023.56
             6031.00,3023.56 6047.00,3020.44 6047.00,3020.44
             6047.00,3020.44 6074.00,3016.57 6074.00,3016.57
             6074.00,3016.57 6092.00,3013.29 6092.00,3013.29
             6092.00,3013.29 6100.00,3012.56 6100.00,3012.56
             6100.00,3012.56 6116.00,3009.44 6116.00,3009.44
             6116.00,3009.44 6145.00,3005.56 6145.00,3005.56
             6145.00,3005.56 6161.00,3002.44 6161.00,3002.44
             6161.00,3002.44 6169.00,3001.71 6169.00,3001.71
             6169.00,3001.71 6182.00,2999.30 6182.00,2999.30
             6182.00,2999.30 6190.00,2998.71 6190.00,2998.71
             6190.00,2998.71 6207.00,2995.44 6207.00,2995.44
             6207.00,2995.44 6216.00,2994.71 6216.00,2994.71
             6216.00,2994.71 6229.00,2992.29 6229.00,2992.29
             6229.00,2992.29 6237.00,2991.71 6237.00,2991.71
             6237.00,2991.71 6255.00,2988.43 6255.00,2988.43
             6255.00,2988.43 6291.00,2983.57 6291.00,2983.57
             6291.00,2983.57 6304.00,2981.29 6304.00,2981.29
             6304.00,2981.29 6313.00,2980.57 6313.00,2980.57
             6313.00,2980.57 6356.00,2974.00 6356.00,2974.00
             6356.00,2974.00 6353.54,2989.00 6353.54,2989.00
             6353.54,2989.00 6351.00,3000.00 6351.00,3000.00
             6355.13,2996.35 6356.18,2992.82 6358.70,2988.00
             6358.70,2988.00 6371.56,2959.00 6371.56,2959.00
             6379.14,2941.09 6385.19,2918.30 6387.71,2899.00
             6387.71,2899.00 6388.28,2891.00 6388.28,2891.00
             6390.71,2870.84 6391.97,2867.35 6392.00,2846.00
             6392.00,2846.00 6393.00,2829.00 6393.00,2829.00
             6393.00,2829.00 6393.00,2807.00 6393.00,2807.00
             6393.00,2807.00 6392.00,2793.00 6392.00,2793.00
             6392.00,2793.00 6392.00,2779.00 6392.00,2779.00
             6391.97,2761.94 6387.58,2734.56 6385.29,2717.00
             6385.29,2717.00 6383.40,2702.00 6383.40,2702.00
             6383.40,2702.00 6381.46,2693.00 6381.46,2693.00
             6380.27,2686.38 6378.88,2672.66 6368.00,2676.74
             6359.67,2679.87 6362.74,2687.55 6364.00,2694.00
             6364.00,2694.00 6371.42,2746.00 6371.42,2746.00
             6371.42,2746.00 6375.00,2796.00 6375.00,2796.00
             6375.00,2796.00 6375.00,2842.00 6375.00,2842.00
             6375.00,2842.00 6374.09,2854.00 6374.09,2854.00
             6372.72,2873.95 6370.68,2893.26 6367.25,2913.00
             6367.25,2913.00 6359.00,2958.00 6359.00,2958.00
             6356.17,2957.63 6353.87,2957.11 6351.00,2957.32
             6351.00,2957.32 6299.00,2964.58 6299.00,2964.58
             6299.00,2964.58 6184.00,2981.58 6184.00,2981.58
             6184.00,2981.58 6075.00,2998.27 6075.00,2998.27
             6075.00,2998.27 5842.00,3037.25 5842.00,3037.25
             5842.00,3037.25 5744.00,3054.80 5744.00,3054.80
             5744.00,3054.80 5711.00,3061.08 5711.00,3061.08
             5707.14,3061.72 5699.59,3063.28 5696.00,3062.86
             5691.80,3062.37 5687.50,3059.13 5684.00,3056.83
             5684.00,3056.83 5665.00,3045.15 5665.00,3045.15
             5639.28,3030.47 5628.09,3025.77 5601.00,3015.00
             5603.96,3008.88 5612.82,3002.68 5618.00,2997.92
             5627.55,2989.13 5636.57,2979.70 5644.00,2969.00
             5626.09,2976.71 5621.38,2979.12 5606.00,2991.61
             5602.32,2994.60 5588.48,3007.51 5586.00,3008.40
             5582.42,3009.67 5574.72,3007.59 5571.00,3006.58
             5571.00,3006.58 5546.00,3001.43 5546.00,3001.43
             5509.17,2995.25 5477.18,2992.84 5441.00,2981.00
             5443.06,2974.89 5448.52,2969.34 5452.28,2964.00
             5452.28,2964.00 5474.80,2930.00 5474.80,2930.00
             5498.18,2891.05 5511.53,2863.50 5524.88,2820.00
             5524.88,2820.00 5528.52,2809.00 5528.52,2809.00
             5528.52,2809.00 5530.81,2797.00 5530.81,2797.00
             5530.81,2797.00 5534.80,2778.00 5534.80,2778.00
             5546.17,2719.12 5550.00,2659.27 5558.73,2600.00
             5562.34,2575.46 5566.52,2551.01 5572.85,2527.00
             5572.85,2527.00 5575.22,2517.01 5575.22,2517.01
             5577.23,2511.06 5580.44,2510.89 5581.57,2507.82
             5582.82,2504.41 5579.85,2504.30 5582.23,2494.00
             5584.33,2484.95 5592.21,2463.76 5596.09,2455.00
             5613.38,2415.97 5630.32,2389.14 5659.96,2358.00
             5666.06,2351.59 5672.09,2345.04 5679.00,2339.47
             5684.76,2334.82 5686.08,2335.76 5690.00,2332.70
             5690.00,2332.70 5696.99,2326.09 5696.99,2326.09
             5701.80,2321.56 5708.36,2316.33 5714.00,2312.92
             5714.00,2312.92 5733.00,2303.24 5733.00,2303.24
             5736.12,2301.71 5740.29,2299.86 5742.25,2296.90
             5744.02,2294.22 5743.46,2290.30 5744.00,2287.00
             5741.19,2286.34 5737.55,2284.59 5735.00,2284.83
             5732.30,2285.08 5724.92,2288.74 5722.00,2290.00
             5711.36,2294.61 5689.76,2308.52 5682.46,2317.04
             5675.37,2325.32 5677.52,2327.85 5672.86,2332.91
             5672.86,2332.91 5644.00,2358.09 5644.00,2358.09
             5644.00,2358.09 5623.00,2380.00 5623.00,2380.00
             5623.95,2371.07 5634.94,2353.69 5634.64,2343.86
             5634.32,2333.70 5627.20,2340.68 5623.72,2343.86
             5621.18,2345.94 5618.15,2346.74 5616.73,2350.06
             5614.84,2354.49 5616.21,2360.48 5613.00,2366.00
             5613.00,2366.00 5604.55,2343.00 5604.55,2343.00
             5603.27,2339.79 5600.42,2334.30 5600.42,2331.00
             5600.42,2328.02 5602.88,2323.04 5604.02,2320.00
             5604.91,2317.11 5608.00,2305.13 5604.02,2303.53
             5602.54,2302.89 5600.39,2304.57 5599.31,2305.54
             5595.16,2309.30 5596.01,2312.06 5590.00,2314.00
             5585.98,2305.76 5580.11,2298.02 5574.25,2291.00
             5572.01,2288.32 5565.78,2281.89 5564.99,2279.00
             5563.61,2274.01 5577.41,2258.19 5569.49,2252.95
             5563.14,2248.75 5556.42,2264.37 5551.91,2264.37
             5548.99,2264.37 5542.33,2257.94 5540.00,2255.83
             5540.00,2255.83 5522.00,2239.42 5522.00,2239.42
             5517.39,2235.44 5511.68,2231.54 5509.00,2226.00
             5509.00,2226.00 5528.00,2221.00 5528.00,2221.00
             5528.00,2221.00 5575.00,2204.65 5575.00,2204.65
             5587.77,2200.37 5603.26,2194.20 5617.00,2196.61
             5642.45,2201.09 5659.19,2216.29 5683.00,2223.21
             5694.20,2226.76 5705.38,2229.49 5716.00,2223.21
             5716.00,2223.21 5704.00,2216.31 5704.00,2216.31
             5704.00,2216.31 5682.00,2207.94 5682.00,2207.94
             5682.00,2207.94 5668.00,2201.69 5668.00,2201.69
             5668.00,2201.69 5654.00,2194.27 5654.00,2194.27
             5633.65,2184.09 5617.76,2179.05 5595.00,2182.43
             5567.83,2186.46 5543.38,2200.69 5517.00,2207.24
             5512.18,2208.43 5508.33,2210.52 5504.00,2212.86
             5501.94,2213.97 5499.45,2215.67 5497.00,2215.18
             5494.00,2214.58 5484.75,2205.60 5482.42,2202.99
             5482.42,2202.99 5458.42,2176.00 5458.42,2176.00
             5454.52,2171.24 5450.30,2167.14 5449.00,2161.00
             5456.13,2159.65 5470.75,2149.52 5478.00,2145.42
             5492.38,2137.30 5513.55,2127.58 5529.00,2121.45
             5583.47,2099.83 5637.23,2094.12 5695.00,2103.41
             5704.10,2104.87 5722.99,2107.45 5731.00,2110.44
             5737.96,2113.05 5737.51,2115.51 5742.01,2117.49
             5748.97,2120.55 5754.26,2116.77 5757.28,2119.61
             5758.99,2121.23 5760.02,2126.59 5760.71,2129.00
             5760.71,2129.00 5767.00,2150.00 5767.00,2150.00
             5775.24,2174.97 5784.33,2200.09 5795.31,2224.00
             5795.31,2224.00 5819.25,2275.00 5819.25,2275.00
             5819.25,2275.00 5842.69,2319.00 5842.69,2319.00
             5842.69,2319.00 5937.72,2487.00 5937.72,2487.00
             5937.72,2487.00 5980.05,2559.00 5980.05,2559.00
             5980.05,2559.00 5990.00,2577.00 5990.00,2577.00
             5991.56,2579.73 5993.38,2583.44 5996.10,2585.11
             5998.87,2586.80 6002.86,2586.17 6006.00,2585.98
             6006.00,2585.98 6030.00,2584.00 6030.00,2584.00
             6030.00,2584.00 6066.00,2581.04 6066.00,2581.04
             6066.00,2581.04 6076.00,2581.04 6076.00,2581.04
             6076.00,2581.04 6107.00,2578.17 6107.00,2578.17
             6117.79,2577.14 6132.26,2578.14 6142.00,2574.00
             6145.15,2579.07 6148.95,2588.78 6154.05,2591.55
             6166.98,2598.55 6171.47,2585.96 6183.00,2582.10
             6191.63,2579.22 6200.77,2584.56 6208.00,2588.86
             6216.50,2593.92 6224.34,2600.58 6232.00,2606.80
             6263.40,2632.33 6296.58,2676.60 6340.00,2678.26
             6347.95,2678.56 6362.62,2676.13 6370.00,2673.18
             6377.53,2670.17 6384.93,2666.42 6391.00,2661.00
             6391.00,2661.00 6363.00,2663.00 6363.00,2663.00
             6363.00,2663.00 6351.00,2662.09 6351.00,2662.09
             6331.30,2660.65 6320.86,2658.60 6304.00,2647.10
             6304.00,2647.10 6231.00,2583.99 6231.00,2583.99
             6220.16,2575.61 6202.16,2563.29 6188.00,2563.34
             6177.71,2563.37 6169.56,2569.21 6161.00,2574.00
             6158.64,2565.10 6156.73,2555.46 6161.53,2547.00
             6161.53,2547.00 6176.09,2528.83 6176.09,2528.83
             6178.96,2523.93 6178.63,2520.75 6173.00,2519.00
             6169.30,2511.60 6158.75,2509.35 6151.00,2509.04
             6137.01,2508.47 6118.98,2519.07 6115.05,2533.00
             6114.02,2536.90 6114.53,2539.14 6115.05,2543.00
             6126.35,2540.61 6128.41,2535.06 6137.00,2528.94
             6142.13,2525.28 6145.25,2524.87 6151.00,2523.26
             6155.17,2522.09 6157.71,2520.43 6162.00,2522.00
             6152.64,2527.03 6142.51,2539.36 6140.19,2550.00
             6139.90,2552.39 6140.00,2555.52 6140.19,2558.00
             6140.19,2558.00 6105.00,2561.00 6105.00,2561.00
             6105.00,2561.00 6083.00,2562.17 6083.00,2562.17
             6083.00,2562.17 6053.00,2565.00 6053.00,2565.00
             6053.00,2565.00 6021.00,2567.26 6021.00,2567.26
             6017.42,2567.35 6009.56,2568.90 6006.39,2567.26
             6003.73,2566.19 6000.18,2558.73 5998.47,2556.00
             5998.47,2556.00 5979.55,2524.00 5979.55,2524.00
             5979.55,2524.00 5909.30,2403.00 5909.30,2403.00
             5868.40,2331.34 5818.60,2244.29 5791.42,2167.00
             5782.74,2142.32 5775.16,2117.72 5770.20,2092.00
             5770.20,2092.00 5767.30,2078.00 5767.30,2078.00
             5767.30,2078.00 5766.58,2070.00 5766.58,2070.00
             5766.58,2070.00 5763.00,2040.00 5763.00,2040.00
             5763.00,2040.00 5763.00,2006.00 5763.00,2006.00
             5763.00,2006.00 5766.41,1978.00 5766.41,1978.00
             5766.41,1978.00 5767.44,1968.00 5767.44,1968.00
             5767.44,1968.00 5777.52,1924.00 5777.52,1924.00
             5777.52,1924.00 5794.09,1873.00 5794.09,1873.00
             5796.41,1866.92 5800.58,1855.28 5803.64,1850.02
             5807.60,1843.21 5818.96,1842.98 5826.00,1840.96
             5842.56,1836.22 5873.75,1830.04 5891.00,1827.72
             5891.00,1827.72 5911.00,1824.29 5911.00,1824.29
             5911.00,1824.29 5921.00,1823.72 5921.00,1823.72
             5921.00,1823.72 5950.00,1820.91 5950.00,1820.91
             5950.00,1820.91 5962.00,1820.00 5962.00,1820.00
             5962.00,1820.00 6002.00,1820.00 6002.00,1820.00
             6002.00,1820.00 6014.00,1820.91 6014.00,1820.91
             6014.00,1820.91 6048.00,1824.06 6048.00,1824.06
             6048.00,1824.06 6059.00,1824.06 6059.00,1824.06
             6059.00,1824.06 6083.00,1827.83 6083.00,1827.83
             6098.57,1829.39 6120.85,1832.93 6136.00,1836.63
             6140.63,1837.75 6151.27,1838.86 6154.69,1841.28
             6157.72,1843.42 6156.50,1846.28 6158.31,1850.00
             6159.94,1853.33 6164.31,1857.31 6167.00,1860.00
             6168.43,1846.49 6184.21,1825.38 6193.00,1815.00 Z
           M 3718.00,2444.00
           C 3720.44,2437.63 3725.13,2432.59 3728.80,2426.91
             3735.61,2416.36 3745.52,2400.28 3755.00,2392.46
             3755.00,2392.46 3779.00,2377.33 3779.00,2377.33
             3779.00,2377.33 3798.00,2363.00 3798.00,2363.00
             3803.86,2360.04 3809.63,2359.93 3816.00,2360.00
             3816.00,2360.00 3840.00,2362.94 3840.00,2362.94
             3840.00,2362.94 3849.00,2362.94 3849.00,2362.94
             3860.49,2364.32 3876.15,2369.07 3882.77,2379.00
             3892.98,2394.33 3894.83,2418.10 3897.75,2436.00
             3897.75,2436.00 3900.71,2451.00 3900.71,2451.00
             3900.71,2451.00 3901.44,2460.00 3901.44,2460.00
             3901.44,2460.00 3904.96,2481.00 3904.96,2481.00
             3904.96,2481.00 3904.96,2489.00 3904.96,2489.00
             3904.96,2489.00 3906.96,2504.00 3906.96,2504.00
             3906.96,2504.00 3906.96,2513.00 3906.96,2513.00
             3906.96,2513.00 3908.00,2525.00 3908.00,2525.00
             3908.00,2525.00 3908.00,2570.00 3908.00,2570.00
             3908.03,2589.60 3916.36,2619.42 3929.02,2634.54
             3942.24,2650.32 3958.81,2657.28 3974.00,2670.30
             3984.95,2679.69 3993.31,2692.27 3999.89,2705.00
             4007.90,2720.49 4014.97,2744.54 4015.00,2762.00
             4015.00,2762.00 4015.00,2776.00 4015.00,2776.00
             4014.98,2791.99 4011.21,2797.31 4014.42,2815.00
             4016.13,2824.38 4020.29,2833.21 4025.77,2841.00
             4028.74,2845.22 4032.75,2848.37 4035.00,2853.00
             4001.20,2863.10 3943.86,2889.27 3912.00,2905.90
             3833.09,2947.08 3757.90,3000.72 3697.09,3066.00
             3697.09,3066.00 3683.83,3081.00 3683.83,3081.00
             3683.83,3081.00 3675.29,3090.00 3675.29,3090.00
             3675.29,3090.00 3650.49,3121.00 3650.49,3121.00
             3620.76,3158.98 3594.65,3199.67 3571.53,3242.00
             3521.99,3332.71 3483.99,3429.23 3453.96,3528.00
             3438.66,3578.33 3425.77,3629.34 3415.80,3681.00
             3415.80,3681.00 3412.44,3699.00 3412.44,3699.00
             3412.44,3699.00 3411.54,3707.00 3411.54,3707.00
             3411.54,3707.00 3408.44,3722.00 3408.44,3722.00
             3408.44,3722.00 3404.71,3752.00 3404.71,3752.00
             3404.71,3752.00 3401.00,3774.00 3401.00,3774.00
             3401.00,3774.00 3401.00,3782.00 3401.00,3782.00
             3401.00,3782.00 3398.17,3802.00 3398.17,3802.00
             3398.17,3802.00 3396.83,3823.00 3396.83,3823.00
             3396.83,3823.00 3394.00,3854.00 3394.00,3854.00
             3394.00,3854.00 3394.00,3869.00 3394.00,3869.00
             3394.00,3869.00 3393.00,3884.00 3393.00,3884.00
             3393.00,3884.00 3393.00,3899.00 3393.00,3899.00
             3393.00,3899.00 3392.00,3914.00 3392.00,3914.00
             3392.00,3914.00 3392.00,3934.00 3392.00,3934.00
             3392.00,3934.00 3393.00,3947.00 3393.00,3947.00
             3393.00,3947.00 3393.00,3962.00 3393.00,3962.00
             3393.00,3962.00 3394.00,3976.00 3394.00,3976.00
             3394.00,3976.00 3394.00,3991.00 3394.00,3991.00
             3394.00,3991.00 3398.00,4032.00 3398.00,4032.00
             3398.00,4032.00 3398.00,4043.00 3398.00,4043.00
             3398.00,4043.00 3400.72,4061.00 3400.72,4061.00
             3400.72,4061.00 3401.29,4070.00 3401.29,4070.00
             3401.29,4070.00 3404.56,4089.00 3404.56,4089.00
             3404.56,4089.00 3405.29,4097.00 3405.29,4097.00
             3405.29,4097.00 3407.56,4109.00 3407.56,4109.00
             3407.56,4109.00 3408.44,4117.00 3408.44,4117.00
             3408.44,4117.00 3411.54,4131.00 3411.54,4131.00
             3411.54,4131.00 3419.66,4172.00 3419.66,4172.00
             3419.66,4172.00 3422.49,4182.00 3422.49,4182.00
             3429.53,4213.43 3438.81,4244.43 3449.07,4275.00
             3460.99,4310.48 3475.93,4354.51 3482.39,4391.00
             3482.39,4391.00 3483.29,4400.00 3483.29,4400.00
             3483.29,4400.00 3486.82,4433.00 3486.82,4433.00
             3487.08,4436.63 3486.33,4438.55 3486.09,4442.00
             3484.43,4466.18 3480.31,4483.81 3470.30,4506.00
             3445.44,4561.14 3398.74,4603.38 3351.09,4638.88
             3351.09,4638.88 3305.00,4670.00 3305.00,4670.00
             3298.47,4673.93 3289.31,4680.52 3282.00,4682.00
             3274.05,4671.93 3266.00,4678.01 3256.00,4681.26
             3256.00,4681.26 3209.00,4696.87 3209.00,4696.87
             3203.47,4698.26 3195.42,4701.13 3190.00,4699.00
             3194.87,4695.54 3202.43,4690.56 3204.77,4685.00
             3209.47,4673.85 3197.59,4667.67 3188.00,4668.04
             3188.00,4668.04 3173.00,4669.00 3173.00,4669.00
             3160.13,4668.94 3132.99,4658.42 3120.00,4653.69
             3079.17,4638.83 3059.67,4628.17 3023.00,4605.46
             2992.62,4586.65 2955.78,4557.69 2927.96,4534.79
             2862.63,4481.01 2808.12,4424.75 2757.28,4357.09
             2757.28,4357.09 2718.71,4303.00 2718.71,4303.00
             2696.96,4269.69 2676.37,4235.85 2657.14,4201.00
             2657.14,4201.00 2617.69,4129.00 2617.69,4129.00
             2617.69,4129.00 2587.00,4083.00 2587.00,4083.00
             2587.94,4089.67 2588.99,4091.10 2590.52,4097.00
             2596.81,4121.14 2600.50,4130.41 2610.70,4153.00
             2628.09,4191.56 2654.68,4237.71 2676.91,4274.00
             2676.91,4274.00 2707.00,4322.00 2707.00,4322.00
             2700.12,4325.81 2700.05,4329.37 2696.91,4336.00
             2696.91,4336.00 2684.53,4363.00 2684.53,4363.00
             2684.53,4363.00 2632.70,4475.00 2632.70,4475.00
             2632.70,4475.00 2524.78,4705.00 2524.78,4705.00
             2524.78,4705.00 2485.22,4789.00 2485.22,4789.00
             2485.22,4789.00 2463.01,4835.00 2463.01,4835.00
             2463.01,4835.00 2433.04,4898.00 2433.04,4898.00
             2433.04,4898.00 2371.65,5024.00 2371.65,5024.00
             2334.78,5098.20 2296.90,5171.88 2257.99,5245.00
             2257.99,5245.00 2207.03,5337.00 2207.03,5337.00
             2140.43,5454.30 2069.68,5568.56 1990.74,5678.00
             1961.06,5719.15 1930.61,5759.72 1898.46,5799.00
             1898.46,5799.00 1853.92,5852.96 1853.92,5852.96
             1823.08,5888.50 1791.03,5923.42 1757.00,5955.96
             1757.00,5955.96 1736.00,5975.09 1736.00,5975.09
             1736.00,5975.09 1725.00,5985.83 1725.00,5985.83
             1725.00,5985.83 1706.00,6002.15 1706.00,6002.15
             1706.00,6002.15 1673.00,6030.67 1673.00,6030.67
             1666.63,6035.86 1665.03,6033.99 1661.00,6036.59
             1658.24,6038.38 1653.72,6043.43 1651.00,6046.00
             1646.51,6034.00 1642.30,6017.66 1640.43,6005.00
             1640.43,6005.00 1638.86,5991.00 1638.86,5991.00
             1638.11,5986.53 1633.76,5981.62 1629.00,5981.41
             1623.96,5981.19 1619.26,5986.74 1616.00,5990.00
             1616.00,5990.00 1589.00,6018.00 1589.00,6018.00
             1588.72,6009.93 1587.05,6012.50 1584.69,6006.96
             1583.10,6003.21 1583.01,5998.03 1583.00,5994.00
             1583.00,5994.00 1583.00,5985.00 1583.00,5985.00
             1583.10,5976.54 1585.43,5968.56 1583.00,5960.00
             1578.36,5970.76 1569.18,5989.21 1569.18,6001.00
             1569.18,6007.25 1572.34,6017.51 1579.01,6019.24
             1581.89,6020.34 1585.12,6019.52 1588.00,6019.24
             1588.00,6019.24 1582.75,6028.00 1582.75,6028.00
             1581.29,6030.47 1579.09,6034.01 1579.26,6036.98
             1579.63,6043.48 1585.67,6043.16 1590.00,6040.61
             1596.48,6036.80 1602.80,6031.56 1607.83,6026.00
             1612.02,6021.38 1616.48,6014.84 1622.00,6012.00
             1622.25,6015.12 1623.69,6020.82 1622.00,6023.40
             1622.00,6023.40 1605.00,6036.16 1605.00,6036.16
             1605.00,6036.16 1566.00,6064.18 1566.00,6064.18
             1566.00,6064.18 1501.00,6110.74 1501.00,6110.74
             1501.00,6110.74 1483.00,6123.89 1483.00,6123.89
             1480.41,6125.91 1476.81,6129.92 1473.91,6130.69
             1471.52,6131.32 1452.52,6129.74 1449.00,6129.28
             1449.00,6129.28 1434.00,6127.70 1434.00,6127.70
             1423.13,6126.13 1405.90,6120.37 1396.00,6115.58
             1348.62,6092.62 1313.14,6052.13 1280.54,6012.00
             1280.54,6012.00 1252.26,5973.00 1252.26,5973.00
             1203.80,5901.32 1169.02,5818.78 1156.57,5733.00
             1156.57,5733.00 1154.06,5720.00 1154.06,5720.00
             1154.06,5720.00 1154.06,5710.00 1154.06,5710.00
             1154.06,5710.00 1151.00,5677.00 1151.00,5677.00
             1151.00,5677.00 1151.00,5647.00 1151.00,5647.00
             1151.00,5647.00 1154.00,5615.00 1154.00,5615.00
             1154.00,5615.00 1154.00,5604.00 1154.00,5604.00
             1154.00,5604.00 1156.71,5588.00 1156.71,5588.00
             1156.71,5588.00 1157.29,5579.00 1157.29,5579.00
             1157.29,5579.00 1160.00,5565.00 1160.00,5565.00
             1160.00,5565.00 1163.58,5545.00 1163.58,5545.00
             1164.09,5542.65 1164.71,5538.26 1165.98,5536.38
             1167.72,5533.82 1175.96,5529.56 1179.00,5527.86
             1179.00,5527.86 1208.00,5511.33 1208.00,5511.33
             1208.00,5511.33 1269.00,5476.58 1269.00,5476.58
             1269.00,5476.58 1294.00,5462.37 1294.00,5462.37
             1294.00,5462.37 1314.00,5455.00 1314.00,5455.00
             1310.53,5463.72 1306.89,5474.52 1309.64,5484.00
             1311.42,5490.16 1315.52,5491.95 1316.07,5495.09
             1316.71,5498.77 1312.80,5501.23 1312.00,5510.00
             1312.00,5510.00 1333.04,5495.54 1333.04,5495.54
             1342.69,5489.04 1350.89,5485.93 1358.00,5476.00
             1343.82,5474.89 1339.94,5478.33 1328.00,5485.00
             1328.01,5480.29 1328.58,5472.38 1330.11,5468.00
             1335.84,5451.58 1361.52,5440.18 1377.00,5435.09
             1377.00,5435.09 1390.98,5431.03 1390.98,5431.03
             1397.06,5428.19 1399.22,5420.32 1394.57,5415.39
             1389.21,5409.71 1379.89,5413.12 1373.00,5412.98
             1361.18,5412.75 1344.19,5409.69 1335.00,5402.00
             1344.41,5401.54 1354.64,5396.10 1359.00,5395.48
             1360.66,5395.24 1369.61,5396.04 1378.00,5394.54
             1378.00,5394.54 1390.00,5391.66 1390.00,5391.66
             1426.28,5384.06 1463.28,5371.85 1495.00,5352.19
             1542.48,5322.76 1579.24,5276.73 1612.89,5233.00
             1647.05,5188.61 1680.47,5143.93 1712.57,5098.00
             1776.74,5006.17 1836.62,4911.94 1894.45,4816.00
             1894.45,4816.00 1928.70,4758.91 1928.70,4758.91
             1987.96,4657.77 2040.57,4552.60 2086.98,4445.00
             2086.98,4445.00 2106.08,4400.00 2106.08,4400.00
             2106.08,4400.00 2142.20,4306.00 2142.20,4306.00
             2142.20,4306.00 2171.52,4218.00 2171.52,4218.00
             2171.52,4218.00 2178.23,4198.00 2178.23,4198.00
             2178.23,4198.00 2203.08,4112.00 2203.08,4112.00
             2203.08,4112.00 2214.59,4067.00 2214.59,4067.00
             2225.79,4026.47 2235.03,3985.17 2243.66,3944.00
             2243.66,3944.00 2249.34,3919.00 2249.34,3919.00
             2249.34,3919.00 2254.46,3892.00 2254.46,3892.00
             2254.46,3892.00 2260.20,3865.00 2260.20,3865.00
             2260.20,3865.00 2261.46,3856.00 2261.46,3856.00
             2261.46,3856.00 2267.39,3826.00 2267.39,3826.00
             2267.39,3826.00 2271.44,3800.00 2271.44,3800.00
             2271.44,3800.00 2274.56,3785.00 2274.56,3785.00
             2274.56,3785.00 2279.10,3754.00 2279.10,3754.00
             2279.10,3754.00 2281.57,3741.00 2281.57,3741.00
             2281.57,3741.00 2282.44,3732.00 2282.44,3732.00
             2282.44,3732.00 2285.57,3715.00 2285.57,3715.00
             2285.57,3715.00 2286.43,3706.00 2286.43,3706.00
             2286.43,3706.00 2288.71,3692.00 2288.71,3692.00
             2288.71,3692.00 2289.43,3682.00 2289.43,3682.00
             2289.43,3682.00 2292.18,3663.00 2292.18,3663.00
             2292.10,3658.59 2289.76,3657.38 2289.63,3654.00
             2289.51,3651.02 2296.26,3637.38 2298.00,3634.00
             2308.80,3612.99 2319.11,3600.95 2339.00,3587.67
             2339.00,3587.67 2347.00,3582.45 2347.00,3582.45
             2353.07,3578.83 2363.84,3573.77 2357.35,3565.06
             2351.43,3557.10 2335.38,3562.07 2330.00,3560.00
             2330.00,3560.00 2353.00,3539.80 2353.00,3539.80
             2374.14,3522.71 2393.83,3508.69 2418.00,3496.10
             2491.86,3457.64 2592.48,3454.10 2668.00,3489.78
             2696.96,3503.46 2723.93,3520.77 2749.00,3540.67
             2749.00,3540.67 2762.00,3551.61 2762.00,3551.61
             2762.00,3551.61 2782.01,3569.07 2782.01,3569.07
             2787.67,3574.30 2794.88,3580.30 2803.00,3580.00
             2803.00,3580.00 2805.00,3615.00 2805.00,3615.00
             2805.00,3615.00 2807.94,3637.00 2807.94,3637.00
             2807.94,3637.00 2807.94,3645.00 2807.94,3645.00
             2807.94,3645.00 2809.85,3657.00 2809.85,3657.00
             2809.85,3657.00 2812.06,3672.00 2812.06,3672.00
             2812.06,3672.00 2812.06,3683.00 2812.06,3683.00
             2812.06,3683.00 2815.71,3705.00 2815.71,3705.00
             2815.71,3705.00 2816.44,3713.00 2816.44,3713.00
             2816.44,3713.00 2826.21,3756.00 2826.21,3756.00
             2826.21,3756.00 2830.00,3773.00 2830.00,3773.00
             2826.88,3767.16 2826.55,3765.18 2821.00,3761.00
             2820.33,3763.98 2819.30,3766.94 2819.10,3770.00
             2818.44,3779.63 2824.64,3790.27 2831.00,3797.00
             2831.00,3797.00 2833.00,3778.00 2833.00,3778.00
             2834.92,3790.26 2843.91,3805.78 2854.00,3813.00
             2854.77,3808.89 2856.12,3804.13 2855.82,3800.00
             2854.55,3782.57 2847.30,3763.19 2843.42,3746.00
             2843.42,3746.00 2836.46,3714.00 2836.46,3714.00
             2836.46,3714.00 2834.55,3702.00 2834.55,3702.00
             2834.55,3702.00 2832.46,3693.00 2832.46,3693.00
             2832.46,3693.00 2831.20,3684.00 2831.20,3684.00
             2829.63,3675.86 2824.68,3656.30 2825.09,3649.00
             2825.09,3649.00 2825.99,3637.00 2825.99,3637.00
             2825.99,3637.00 2825.00,3623.00 2825.00,3623.00
             2825.00,3623.00 2825.00,3604.00 2825.00,3604.00
             2825.00,3604.00 2823.00,3577.00 2823.00,3577.00
             2823.00,3577.00 2823.00,3552.00 2823.00,3552.00
             2823.00,3552.00 2825.00,3519.00 2825.00,3519.00
             2825.00,3519.00 2827.83,3495.00 2827.83,3495.00
             2827.83,3495.00 2838.54,3425.00 2838.54,3425.00
             2838.54,3425.00 2846.46,3379.00 2846.46,3379.00
             2846.46,3379.00 2849.39,3366.00 2849.39,3366.00
             2849.39,3366.00 2850.80,3356.00 2850.80,3356.00
             2850.80,3356.00 2853.51,3342.00 2853.51,3342.00
             2854.62,3337.56 2856.46,3335.02 2857.03,3330.00
             2858.04,3321.28 2852.39,3319.12 2845.00,3320.00
             2845.00,3320.00 2849.25,3306.00 2849.25,3306.00
             2849.25,3306.00 2853.49,3289.00 2853.49,3289.00
             2853.49,3289.00 2864.56,3250.00 2864.56,3250.00
             2878.85,3200.48 2902.84,3139.25 2927.31,3094.00
             2948.14,3055.48 2972.67,3019.56 2999.49,2985.00
             2999.49,2985.00 3005.88,2976.09 3005.88,2976.09
             3005.88,2976.09 3043.00,2930.00 3043.00,2930.00
             3043.00,2930.00 3101.29,2859.00 3101.29,2859.00
             3101.29,2859.00 3109.83,2850.00 3109.83,2850.00
             3109.83,2850.00 3130.09,2827.00 3130.09,2827.00
             3130.09,2827.00 3173.66,2782.88 3173.66,2782.88
             3173.66,2782.88 3206.00,2753.72 3206.00,2753.72
             3206.00,2753.72 3215.00,2745.29 3215.00,2745.29
             3215.00,2745.29 3232.83,2730.63 3232.83,2730.63
             3232.83,2730.63 3288.00,2686.89 3288.00,2686.89
             3288.00,2686.89 3331.00,2656.26 3331.00,2656.26
             3370.99,2627.36 3411.31,2598.80 3454.00,2573.99
             3487.18,2554.71 3522.88,2539.12 3558.00,2523.72
             3579.54,2514.27 3600.70,2503.02 3623.00,2495.52
             3623.00,2495.52 3640.00,2490.99 3640.00,2490.99
             3640.00,2490.99 3669.00,2482.52 3669.00,2482.52
             3674.28,2480.42 3678.26,2476.53 3681.00,2476.15
             3684.76,2475.64 3686.55,2479.58 3689.98,2478.66
             3697.66,2476.61 3693.42,2467.11 3699.07,2461.02
             3707.24,2452.23 3712.98,2458.06 3719.98,2455.26
             3728.07,2452.03 3722.99,2446.71 3718.00,2444.00 Z
           M 6956.00,2732.00
           C 6961.60,2734.14 6968.40,2739.32 6974.00,2742.58
             6974.00,2742.58 7019.00,2769.95 7019.00,2769.95
             7072.43,2803.84 7114.61,2837.59 7162.00,2879.28
             7162.00,2879.28 7190.00,2904.72 7190.00,2904.72
             7211.06,2923.28 7227.03,2941.86 7242.74,2965.00
             7247.55,2972.07 7257.07,2984.75 7258.00,2993.00
             7253.36,2991.51 7242.90,2990.13 7241.98,2997.32
             7241.56,3000.60 7244.21,3006.82 7242.66,3009.47
             7240.87,3012.51 7235.47,3010.71 7232.57,3016.11
             7231.32,3018.44 7229.85,3027.77 7229.20,3031.00
             7229.20,3031.00 7223.25,3062.00 7223.25,3062.00
             7223.25,3062.00 7207.99,3155.00 7207.99,3155.00
             7207.99,3155.00 7186.91,3225.00 7186.91,3225.00
             7186.91,3225.00 7160.33,3319.00 7160.33,3319.00
             7160.33,3319.00 7141.02,3376.00 7141.02,3376.00
             7138.88,3382.91 7132.85,3403.88 7129.65,3408.91
             7127.71,3411.96 7119.38,3419.53 7116.18,3422.91
             7116.18,3422.91 7090.42,3452.00 7090.42,3452.00
             7067.10,3480.46 7048.84,3510.17 7032.42,3543.00
             7018.27,3571.31 7006.34,3600.97 6996.33,3631.00
             6996.33,3631.00 6987.02,3661.00 6987.02,3661.00
             6985.55,3665.75 6984.96,3670.93 6981.61,3674.83
             6979.16,3677.68 6972.75,3682.84 6969.00,3683.60
             6960.45,3684.72 6958.20,3678.46 6947.00,3683.60
             6934.64,3689.66 6898.49,3716.70 6886.00,3726.23
             6886.00,3726.23 6829.00,3767.31 6829.00,3767.31
             6829.00,3767.31 6754.00,3811.45 6754.00,3811.45
             6754.00,3811.45 6626.00,3886.31 6626.00,3886.31
             6626.00,3886.31 6549.00,3927.86 6549.00,3927.86
             6540.48,3932.64 6519.37,3946.85 6512.00,3949.00
             6516.19,3940.41 6525.17,3931.16 6526.02,3926.00
             6527.13,3919.20 6518.95,3913.72 6513.00,3913.19
             6506.33,3912.59 6493.72,3917.76 6487.00,3920.00
             6489.08,3912.88 6495.77,3909.03 6496.72,3904.00
             6497.52,3899.79 6493.00,3896.20 6489.01,3897.22
             6481.41,3899.16 6483.73,3908.09 6474.00,3908.11
             6474.00,3908.11 6440.00,3910.91 6440.00,3910.91
             6440.00,3910.91 6388.00,3915.00 6388.00,3915.00
             6388.00,3915.00 6378.00,3915.00 6378.00,3915.00
             6378.00,3915.00 6340.00,3918.09 6340.00,3918.09
             6340.00,3918.09 6316.00,3920.04 6316.00,3920.04
             6316.00,3920.04 6277.00,3922.92 6277.00,3922.92
             6273.11,3923.15 6266.60,3924.86 6263.39,3922.92
             6260.60,3921.05 6257.37,3913.18 6256.00,3910.00
             6256.00,3910.00 6243.19,3879.00 6243.19,3879.00
             6227.20,3836.97 6219.30,3803.67 6214.83,3759.00
             6214.83,3759.00 6213.00,3736.00 6213.00,3736.00
             6212.54,3695.96 6216.96,3655.60 6228.00,3617.00
             6228.00,3617.00 6235.67,3591.00 6235.67,3591.00
             6236.47,3588.54 6238.00,3582.30 6239.58,3580.70
             6241.45,3578.81 6248.23,3576.91 6251.00,3576.00
             6251.00,3576.00 6277.00,3567.67 6277.00,3567.67
             6277.00,3567.67 6330.00,3550.49 6330.00,3550.49
             6330.00,3550.49 6372.00,3536.26 6372.00,3536.26
             6372.00,3536.26 6471.00,3501.69 6471.00,3501.69
             6471.00,3501.69 6639.00,3441.05 6639.00,3441.05
             6639.00,3441.05 6690.00,3423.00 6690.00,3423.00
             6720.10,3412.75 6747.80,3403.02 6770.91,3379.91
             6787.47,3363.36 6803.13,3338.62 6814.31,3318.00
             6828.65,3291.53 6841.77,3264.77 6853.42,3237.00
             6903.07,3118.69 6929.29,2991.97 6944.72,2865.00
             6944.72,2865.00 6952.91,2778.00 6952.91,2778.00
             6952.91,2778.00 6954.83,2745.00 6954.83,2745.00
             6955.35,2739.53 6954.36,2737.78 6956.00,2732.00 Z
           M 8373.00,3297.00
           C 8398.44,3251.01 8435.00,3198.94 8470.17,3160.00
             8470.17,3160.00 8493.00,3137.00 8493.00,3137.00
             8493.00,3137.00 8516.00,3114.17 8516.00,3114.17
             8516.00,3114.17 8534.91,3098.42 8534.91,3098.42
             8588.10,3053.88 8650.33,3019.42 8718.00,3002.90
             8718.00,3002.90 8740.00,2998.54 8740.00,2998.54
             8740.00,2998.54 8755.00,2995.44 8755.00,2995.44
             8755.00,2995.44 8764.00,2994.56 8764.00,2994.56
             8764.00,2994.56 8779.00,2992.00 8779.00,2992.00
             8779.00,2992.00 8787.00,2992.00 8787.00,2992.00
             8787.00,2992.00 8828.00,2988.00 8828.00,2988.00
             8828.00,2988.00 8936.00,2988.00 8936.00,2988.00
             8936.00,2988.00 8950.00,2989.00 8950.00,2989.00
             8950.00,2989.00 8954.00,2989.00 8954.00,2989.00
             8954.00,2989.00 8983.00,2991.00 8983.00,2991.00
             8983.00,2991.00 9002.00,2992.00 9002.00,2992.00
             9002.00,2992.00 9014.00,2992.00 9014.00,2992.00
             9014.00,2992.00 9043.00,2995.06 9043.00,2995.06
             9043.00,2995.06 9054.00,2995.06 9054.00,2995.06
             9054.00,2995.06 9071.00,2998.54 9071.00,2998.54
             9077.95,2999.79 9096.09,3002.38 9098.50,3010.30
             9099.40,3013.27 9097.68,3016.49 9096.25,3019.00
             9093.07,3024.59 9084.91,3032.75 9080.43,3038.00
             9059.43,3062.56 9039.80,3088.27 9021.67,3115.00
             8993.54,3156.47 8965.51,3198.55 8933.21,3236.91
             8893.41,3284.19 8846.53,3327.32 8795.00,3361.52
             8795.00,3361.52 8781.00,3371.09 8781.00,3371.09
             8781.00,3371.09 8737.00,3395.25 8737.00,3395.25
             8737.00,3395.25 8703.00,3410.94 8703.00,3410.94
             8703.00,3410.94 8651.00,3429.74 8651.00,3429.74
             8647.87,3430.76 8633.12,3435.73 8631.00,3435.52
             8628.07,3435.22 8625.36,3432.83 8623.00,3431.20
             8623.00,3431.20 8610.00,3423.13 8610.00,3423.13
             8596.28,3414.91 8578.89,3405.86 8564.00,3400.06
             8564.00,3400.06 8527.00,3386.52 8527.00,3386.52
             8519.78,3384.17 8514.68,3384.94 8512.00,3377.00
             8512.00,3377.00 8518.00,3376.00 8518.00,3376.00
             8518.00,3376.00 8514.00,3379.00 8514.00,3379.00
             8514.00,3379.00 8533.00,3376.71 8533.00,3376.71
             8533.00,3376.71 8550.00,3373.08 8550.00,3373.08
             8594.47,3361.36 8645.86,3339.68 8688.00,3320.70
             8717.32,3307.50 8759.28,3286.92 8786.00,3269.86
             8813.04,3252.60 8835.26,3236.99 8854.98,3211.17
             8859.08,3205.79 8867.75,3193.87 8870.00,3188.00
             8870.00,3188.00 8849.00,3203.41 8849.00,3203.41
             8849.00,3203.41 8826.04,3220.15 8826.04,3220.15
             8826.04,3220.15 8816.99,3227.77 8816.99,3227.77
             8816.99,3227.77 8792.00,3245.31 8792.00,3245.31
             8751.59,3271.62 8702.94,3294.16 8659.00,3314.18
             8659.00,3314.18 8603.00,3337.73 8603.00,3337.73
             8597.97,3339.82 8582.35,3347.30 8578.00,3347.00
             8588.99,3339.44 8599.12,3330.09 8609.00,3321.17
             8618.70,3312.41 8635.62,3296.31 8643.00,3286.00
             8608.17,3303.88 8599.93,3317.13 8571.00,3338.62
             8561.52,3345.67 8551.18,3351.09 8541.00,3357.00
             8541.00,3357.00 8550.85,3345.00 8550.85,3345.00
             8550.85,3345.00 8573.00,3313.00 8573.00,3313.00
             8573.00,3313.00 8535.09,3339.40 8535.09,3339.40
             8535.09,3339.40 8519.00,3355.01 8519.00,3355.01
             8519.00,3355.01 8503.00,3371.00 8503.00,3371.00
             8503.00,3371.00 8465.00,3348.87 8465.00,3348.87
             8465.00,3348.87 8373.00,3297.00 8373.00,3297.00 Z
           M 8871.00,3187.00
           C 8871.00,3187.00 8870.00,3187.00 8870.00,3187.00
             8870.00,3187.00 8871.00,3188.00 8871.00,3188.00
             8871.00,3188.00 8871.00,3187.00 8871.00,3187.00 Z
           M 7902.00,3359.00
           C 7902.00,3359.00 7938.00,3357.00 7938.00,3357.00
             7938.00,3357.00 7955.00,3356.00 7955.00,3356.00
             7955.00,3356.00 7991.00,3356.00 7991.00,3356.00
             7991.00,3356.00 8003.00,3356.96 8003.00,3356.96
             8003.00,3356.96 8017.00,3356.96 8017.00,3356.96
             8017.00,3356.96 8047.00,3359.00 8047.00,3359.00
             8063.05,3359.19 8079.07,3362.79 8094.72,3366.01
             8115.25,3370.23 8131.06,3377.10 8149.00,3387.80
             8153.84,3390.69 8161.95,3393.62 8165.00,3398.00
             8125.62,3413.13 8073.43,3434.20 8047.00,3468.00
             8054.62,3466.17 8057.42,3469.15 8071.17,3465.82
             8071.17,3465.82 8101.00,3456.78 8101.00,3456.78
             8109.76,3454.37 8141.24,3449.11 8150.00,3449.00
             8150.00,3449.00 8183.00,3447.00 8183.00,3447.00
             8187.01,3446.95 8191.21,3445.61 8195.00,3447.00
             8188.59,3448.98 8182.93,3452.68 8177.00,3455.74
             8160.28,3464.39 8143.50,3474.77 8128.00,3485.44
             8101.56,3503.63 8072.04,3522.42 8050.09,3546.00
             8035.17,3562.02 8017.86,3589.66 8007.00,3609.00
             8007.00,3609.00 8005.00,3609.00 8005.00,3609.00
             8005.00,3609.00 7968.72,3543.00 7968.72,3543.00
             7964.00,3534.81 7954.58,3523.32 7955.09,3514.00
             7956.23,3493.31 7962.89,3466.24 7974.59,3449.00
             7974.59,3449.00 7986.37,3434.00 7986.37,3434.00
             7987.72,3432.20 7989.83,3429.66 7988.26,3427.35
             7985.71,3423.63 7973.04,3428.31 7969.00,3428.84
             7945.10,3432.02 7923.72,3446.67 7911.00,3467.00
             7911.00,3467.00 7909.00,3467.00 7909.00,3467.00
             7904.92,3453.32 7899.02,3428.96 7899.00,3415.00
             7899.00,3415.00 7899.00,3384.00 7899.00,3384.00
             7899.00,3384.00 7902.00,3359.00 7902.00,3359.00 Z
           M 7835.00,3463.00
           C 7828.86,3441.99 7822.64,3420.69 7819.58,3399.00
             7818.74,3393.07 7816.64,3378.56 7820.90,3373.72
             7823.30,3371.01 7831.46,3370.21 7835.00,3369.54
             7845.77,3367.50 7860.27,3363.23 7871.00,3363.00
             7871.00,3363.00 7858.88,3384.00 7858.88,3384.00
             7852.62,3395.70 7843.82,3417.23 7840.04,3430.00
             7840.04,3430.00 7836.09,3448.00 7836.09,3448.00
             7835.73,3452.94 7836.86,3458.32 7835.00,3463.00 Z
           M 7424.00,3749.00
           C 7424.00,3749.00 7424.00,3739.00 7424.00,3739.00
             7424.00,3739.00 7430.57,3689.00 7430.57,3689.00
             7437.77,3639.43 7446.09,3609.11 7468.65,3564.00
             7475.36,3550.60 7482.81,3537.55 7491.00,3525.00
             7491.00,3525.00 7501.04,3510.28 7501.04,3510.28
             7505.12,3505.85 7506.94,3509.32 7517.83,3501.33
             7541.05,3484.32 7554.37,3475.53 7580.00,3462.22
             7580.00,3462.22 7653.00,3429.53 7653.00,3429.53
             7699.89,3408.63 7727.62,3396.47 7778.00,3383.52
             7778.00,3383.52 7808.00,3376.00 7808.00,3376.00
             7808.00,3376.00 7786.48,3415.00 7786.48,3415.00
             7775.86,3437.29 7771.82,3458.46 7772.00,3483.00
             7772.00,3483.00 7772.00,3500.00 7772.00,3500.00
             7772.00,3501.89 7772.14,3505.01 7771.43,3506.71
             7770.29,3509.44 7766.25,3512.31 7764.00,3514.29
             7764.00,3514.29 7752.00,3526.00 7752.00,3526.00
             7752.00,3526.00 7732.17,3546.00 7732.17,3546.00
             7732.17,3546.00 7719.21,3561.91 7719.21,3561.91
             7719.21,3561.91 7701.79,3584.00 7701.79,3584.00
             7701.79,3584.00 7696.48,3593.00 7696.48,3593.00
             7696.48,3593.00 7683.24,3610.00 7683.24,3610.00
             7683.24,3610.00 7665.05,3636.00 7665.05,3636.00
             7641.17,3673.53 7616.51,3725.63 7606.50,3769.00
             7602.95,3784.39 7597.02,3809.61 7597.00,3825.00
             7597.00,3825.00 7597.00,3853.00 7597.00,3853.00
             7597.01,3861.02 7598.01,3864.36 7599.39,3872.00
             7603.08,3892.51 7611.02,3912.81 7625.46,3928.28
             7641.24,3945.19 7653.87,3954.23 7674.00,3965.33
             7706.99,3983.51 7748.23,3997.96 7784.00,4010.07
             7817.07,4021.28 7854.38,4029.97 7889.00,4034.29
             7889.00,4034.29 7921.00,4038.00 7921.00,4038.00
             7939.30,4038.03 7951.94,4038.00 7970.00,4033.25
             7970.00,4033.25 7996.00,4024.00 7996.00,4024.00
             7989.93,4036.61 7976.79,4051.42 7968.81,4063.17
             7968.81,4063.17 7947.00,4100.00 7947.00,4100.00
             7961.19,4092.60 7953.81,4103.26 7970.00,4095.19
             7970.00,4095.19 8008.00,4075.09 8008.00,4075.09
             8008.00,4075.09 8055.00,4054.97 8055.00,4054.97
             8079.61,4044.34 8104.16,4033.50 8130.00,4026.09
             8130.00,4026.09 8173.00,4015.20 8173.00,4015.20
             8178.12,4014.19 8186.04,4011.59 8191.00,4013.00
             8191.00,4013.00 8161.00,4028.22 8161.00,4028.22
             8100.38,4060.22 8053.92,4095.74 8007.09,4146.00
             7975.38,4180.03 7948.47,4218.40 7921.26,4256.00
             7921.26,4256.00 7888.79,4298.99 7888.79,4298.99
             7888.79,4298.99 7876.46,4313.00 7876.46,4313.00
             7876.46,4313.00 7863.38,4331.00 7863.38,4331.00
             7863.38,4331.00 7857.00,4343.00 7857.00,4343.00
             7866.41,4339.05 7865.24,4343.49 7873.00,4342.30
             7881.50,4340.99 7891.01,4336.39 7899.00,4333.00
             7893.78,4356.12 7883.73,4385.85 7884.00,4409.00
             7884.00,4409.00 7886.00,4426.00 7886.00,4426.00
             7886.00,4426.00 7906.00,4422.31 7906.00,4422.31
             7912.25,4421.75 7913.07,4424.89 7911.00,4429.90
             7912.85,4430.13 7915.99,4430.64 7917.62,4429.90
             7919.91,4428.65 7922.54,4423.31 7923.85,4421.00
             7923.85,4421.00 7936.58,4400.00 7936.58,4400.00
             7947.71,4384.24 7969.96,4362.49 7985.00,4350.08
             7991.01,4345.13 8000.19,4336.61 8007.00,4334.00
             8007.00,4334.00 7982.31,4372.00 7982.31,4372.00
             7952.78,4421.54 7924.44,4484.79 7901.17,4538.00
             7901.17,4538.00 7875.53,4599.00 7875.53,4599.00
             7873.26,4604.98 7867.78,4621.92 7863.00,4625.00
             7861.75,4619.04 7854.31,4606.75 7851.00,4601.00
             7841.19,4583.98 7826.57,4565.28 7812.00,4552.17
             7812.00,4552.17 7797.00,4540.21 7797.00,4540.21
             7775.18,4523.13 7749.20,4510.28 7724.00,4499.01
             7724.00,4499.01 7673.00,4478.66 7673.00,4478.66
             7667.23,4476.64 7656.61,4471.84 7651.00,4471.75
             7642.54,4471.60 7642.44,4470.31 7635.00,4468.29
             7635.00,4468.29 7605.00,4461.44 7605.00,4461.44
             7569.00,4455.79 7531.03,4458.87 7498.00,4474.95
             7478.01,4484.68 7461.89,4500.59 7448.50,4518.00
             7420.50,4554.40 7404.91,4602.36 7396.54,4647.00
             7393.74,4661.93 7389.17,4685.27 7389.00,4700.00
             7389.00,4700.00 7387.00,4727.00 7387.00,4727.00
             7387.00,4727.00 7387.00,4750.00 7387.00,4750.00
             7387.00,4750.00 7388.84,4772.00 7388.84,4772.00
             7388.84,4772.00 7390.13,4788.00 7390.13,4788.00
             7390.13,4788.00 7397.58,4824.00 7397.58,4824.00
             7400.61,4835.45 7407.40,4853.59 7412.89,4864.00
             7412.89,4864.00 7421.88,4880.00 7421.88,4880.00
             7421.88,4880.00 7423.18,4888.00 7423.18,4888.00
             7423.78,4890.51 7424.86,4892.24 7424.64,4895.00
             7424.64,4895.00 7419.80,4915.00 7419.80,4915.00
             7418.01,4923.96 7415.01,4950.06 7415.00,4959.00
             7414.99,4967.63 7416.05,4969.87 7407.00,4970.00
             7407.00,4970.00 7394.00,4970.00 7394.00,4970.00
             7384.07,4969.88 7353.73,4961.41 7343.00,4958.21
             7304.49,4946.70 7271.71,4935.13 7235.00,4918.47
             7185.50,4896.00 7141.86,4868.04 7102.00,4830.91
             7091.13,4820.78 7081.49,4809.35 7071.92,4798.01
             7048.49,4770.24 7027.33,4740.61 7009.33,4709.00
             7009.33,4709.00 6998.04,4688.17 6998.04,4688.17
             6956.24,4612.55 6926.38,4522.01 6902.78,4439.00
             6902.78,4439.00 6898.25,4420.00 6898.25,4420.00
             6898.25,4420.00 6892.51,4399.00 6892.51,4399.00
             6892.51,4399.00 6891.24,4392.00 6891.24,4392.00
             6891.24,4392.00 6873.54,4312.00 6873.54,4312.00
             6873.54,4312.00 6870.46,4299.00 6870.46,4299.00
             6870.46,4299.00 6866.39,4274.00 6866.39,4274.00
             6866.39,4274.00 6860.04,4240.00 6860.04,4240.00
             6860.04,4240.00 6859.16,4231.00 6859.16,4231.00
             6859.16,4231.00 6856.44,4217.00 6856.44,4217.00
             6856.44,4217.00 6855.57,4208.00 6855.57,4208.00
             6855.57,4208.00 6852.43,4190.00 6852.43,4190.00
             6852.43,4190.00 6850.87,4176.00 6850.87,4176.00
             6850.87,4176.00 6848.94,4166.00 6848.94,4166.00
             6848.94,4166.00 6848.94,4158.00 6848.94,4158.00
             6848.94,4158.00 6845.00,4133.00 6845.00,4133.00
             6845.00,4133.00 6845.00,4125.00 6845.00,4125.00
             6845.00,4125.00 6842.00,4105.00 6842.00,4105.00
             6842.00,4105.00 6842.00,4094.00 6842.00,4094.00
             6842.00,4094.00 6838.83,4065.00 6838.83,4065.00
             6838.83,4065.00 6837.18,4054.00 6837.18,4054.00
             6836.72,4047.63 6839.19,4040.99 6840.96,4035.00
             6840.96,4035.00 6847.76,4012.00 6847.76,4012.00
             6847.76,4012.00 6852.91,3996.00 6852.91,3996.00
             6862.19,3971.54 6874.13,3946.10 6888.14,3924.00
             6888.14,3924.00 6912.04,3887.00 6912.04,3887.00
             6928.08,3863.97 6945.86,3841.79 6963.54,3820.00
             6963.54,3820.00 7006.44,3767.00 7006.44,3767.00
             7006.44,3767.00 7053.57,3712.00 7053.57,3712.00
             7053.57,3712.00 7092.28,3667.00 7092.28,3667.00
             7092.28,3667.00 7105.87,3652.00 7105.87,3652.00
             7114.48,3642.00 7133.04,3620.13 7143.00,3613.00
             7123.50,3646.28 7104.15,3687.91 7093.56,3725.00
             7093.56,3725.00 7085.34,3760.00 7085.34,3760.00
             7085.34,3760.00 7079.29,3793.00 7079.29,3793.00
             7079.29,3793.00 7078.72,3802.00 7078.72,3802.00
             7076.76,3818.29 7075.03,3827.06 7075.00,3844.00
             7075.00,3844.00 7074.00,3861.00 7074.00,3861.00
             7073.97,3882.62 7073.29,3895.03 7080.58,3916.00
             7082.45,3921.39 7082.08,3921.66 7085.00,3927.00
             7085.51,3923.71 7087.37,3915.74 7088.93,3913.00
             7091.48,3908.54 7095.43,3906.93 7099.68,3898.00
             7099.68,3898.00 7108.18,3878.00 7108.18,3878.00
             7108.18,3878.00 7125.55,3840.00 7125.55,3840.00
             7147.27,3793.08 7169.95,3749.85 7203.44,3710.00
             7219.65,3690.70 7239.14,3674.30 7258.00,3657.72
             7281.38,3637.15 7305.64,3617.52 7331.00,3599.43
             7331.00,3599.43 7362.00,3578.23 7362.00,3578.23
             7362.00,3578.23 7388.00,3559.00 7388.00,3559.00
             7382.32,3573.19 7376.95,3585.04 7372.92,3600.00
             7368.91,3614.90 7365.36,3637.61 7364.99,3653.00
             7364.99,3653.00 7364.18,3664.00 7364.18,3664.00
             7365.69,3685.28 7367.26,3703.18 7372.75,3724.00
             7376.07,3736.56 7381.87,3751.17 7387.31,3763.00
             7390.44,3769.83 7395.65,3777.79 7397.00,3785.00
             7385.40,3792.33 7372.77,3803.39 7361.91,3812.13
             7361.91,3812.13 7308.00,3855.57 7308.00,3855.57
             7308.00,3855.57 7273.04,3884.00 7273.04,3884.00
             7273.04,3884.00 7260.96,3894.92 7260.96,3894.92
             7243.30,3910.16 7226.01,3925.91 7210.09,3943.00
             7168.33,3987.82 7135.07,4041.15 7117.43,4100.00
             7113.44,4113.32 7109.61,4127.24 7107.44,4141.00
             7107.44,4141.00 7106.41,4150.00 7106.41,4150.00
             7105.47,4156.00 7104.07,4163.00 7104.00,4169.00
             7104.00,4169.00 7104.00,4215.00 7104.00,4215.00
             7104.00,4215.00 7106.72,4238.00 7106.72,4238.00
             7109.52,4261.09 7115.04,4283.61 7121.26,4306.00
             7136.54,4361.07 7156.16,4415.20 7175.54,4469.00
             7175.54,4469.00 7201.06,4538.00 7201.06,4538.00
             7201.06,4538.00 7214.70,4574.00 7214.70,4574.00
             7214.70,4574.00 7217.83,4591.00 7217.83,4591.00
             7217.83,4591.00 7218.61,4600.00 7218.61,4600.00
             7218.61,4600.00 7225.46,4636.00 7225.46,4636.00
             7225.46,4636.00 7228.39,4649.00 7228.39,4649.00
             7228.39,4649.00 7233.42,4685.00 7233.42,4685.00
             7236.48,4706.60 7238.76,4731.07 7231.46,4752.00
             7227.98,4761.97 7219.83,4774.16 7212.83,4782.00
             7209.22,4786.04 7207.38,4787.28 7204.00,4792.00
             7211.11,4789.75 7216.38,4784.95 7222.00,4780.25
             7249.24,4757.43 7253.39,4732.57 7253.00,4699.00
             7253.00,4699.00 7251.96,4689.00 7251.96,4689.00
             7251.96,4689.00 7251.96,4679.00 7251.96,4679.00
             7251.96,4679.00 7245.46,4642.00 7245.46,4642.00
             7245.46,4642.00 7241.20,4618.00 7241.20,4618.00
             7241.20,4618.00 7238.46,4606.00 7238.46,4606.00
             7238.46,4606.00 7237.56,4597.00 7237.56,4597.00
             7237.56,4597.00 7235.29,4585.00 7235.29,4585.00
             7235.29,4585.00 7234.72,4576.00 7234.72,4576.00
             7234.72,4576.00 7231.00,4542.00 7231.00,4542.00
             7231.00,4542.00 7231.00,4526.00 7231.00,4526.00
             7231.00,4526.00 7230.04,4514.00 7230.04,4514.00
             7230.04,4514.00 7230.04,4501.00 7230.04,4501.00
             7230.04,4501.00 7231.00,4486.00 7231.00,4486.00
             7231.00,4486.00 7231.00,4469.00 7231.00,4469.00
             7231.00,4469.00 7233.72,4445.00 7233.72,4445.00
             7233.72,4445.00 7234.29,4436.00 7234.29,4436.00
             7234.29,4436.00 7241.34,4399.00 7241.34,4399.00
             7251.60,4350.03 7268.48,4302.48 7289.31,4257.00
             7289.31,4257.00 7316.30,4205.00 7316.30,4205.00
             7325.16,4189.97 7334.45,4177.83 7339.81,4161.00
             7346.57,4139.76 7345.10,4115.14 7345.00,4093.00
             7345.00,4093.00 7344.09,4082.00 7344.09,4082.00
             7344.09,4082.00 7342.91,4060.00 7342.91,4060.00
             7342.91,4060.00 7342.00,4048.00 7342.00,4048.00
             7341.97,4030.23 7342.99,4012.62 7345.29,3995.00
             7345.29,3995.00 7351.34,3965.00 7351.34,3965.00
             7359.53,3928.39 7376.25,3880.02 7392.01,3846.00
             7392.01,3846.00 7409.11,3811.00 7409.11,3811.00
             7409.11,3811.00 7417.28,3797.00 7417.28,3797.00
             7417.28,3797.00 7427.65,3778.00 7427.65,3778.00
             7438.39,3760.09 7456.15,3733.96 7469.32,3718.00
             7490.09,3692.81 7513.01,3669.29 7531.11,3642.00
             7539.87,3628.78 7545.29,3614.77 7547.05,3599.00
             7547.36,3596.18 7547.89,3593.85 7547.68,3591.00
             7547.68,3591.00 7545.27,3574.00 7545.27,3574.00
             7543.72,3564.03 7539.84,3551.25 7534.00,3543.00
             7535.45,3548.03 7535.93,3549.70 7536.00,3555.00
             7536.00,3555.00 7536.96,3571.00 7536.96,3571.00
             7537.17,3575.96 7536.60,3577.48 7536.17,3582.00
             7535.00,3594.29 7536.27,3595.85 7531.71,3609.00
             7527.18,3622.03 7518.73,3633.36 7510.20,3644.00
             7510.20,3644.00 7484.17,3673.00 7484.17,3673.00
             7484.17,3673.00 7462.29,3698.00 7462.29,3698.00
             7462.29,3698.00 7436.79,3731.17 7436.79,3731.17
             7432.73,3736.84 7428.67,3743.99 7424.00,3749.00 Z
           M 8120.00,3610.00
           C 8120.00,3610.00 8150.00,3605.25 8150.00,3605.25
             8150.00,3605.25 8166.00,3602.29 8166.00,3602.29
             8166.00,3602.29 8174.00,3601.72 8174.00,3601.72
             8174.00,3601.72 8191.00,3599.00 8191.00,3599.00
             8191.00,3599.00 8202.00,3599.00 8202.00,3599.00
             8202.00,3599.00 8233.00,3595.96 8233.00,3595.96
             8233.00,3595.96 8246.00,3595.96 8246.00,3595.96
             8246.00,3595.96 8256.00,3595.00 8256.00,3595.00
             8256.00,3595.00 8260.00,3595.00 8260.00,3595.00
             8260.00,3595.00 8270.00,3595.96 8270.00,3595.96
             8270.00,3595.96 8281.00,3595.96 8281.00,3595.96
             8281.00,3595.96 8291.00,3596.91 8291.00,3596.91
             8291.00,3596.91 8314.00,3599.04 8314.00,3599.04
             8314.00,3599.04 8323.00,3599.04 8323.00,3599.04
             8323.00,3599.04 8343.00,3602.06 8343.00,3602.06
             8343.00,3602.06 8352.00,3602.06 8352.00,3602.06
             8352.00,3602.06 8375.00,3605.83 8375.00,3605.83
             8399.44,3608.21 8423.30,3613.44 8447.00,3619.72
             8454.37,3621.67 8476.63,3628.11 8482.00,3632.00
             8463.55,3632.00 8460.86,3633.64 8444.00,3635.71
             8444.00,3635.71 8435.00,3636.30 8435.00,3636.30
             8435.00,3636.30 8401.00,3642.54 8401.00,3642.54
             8356.34,3650.92 8312.45,3662.54 8269.00,3675.77
             8250.54,3681.39 8232.45,3688.79 8215.00,3697.00
             8215.00,3697.00 8201.00,3704.00 8201.00,3704.00
             8199.34,3704.78 8196.08,3706.53 8194.27,3706.13
             8191.83,3705.59 8190.32,3701.08 8189.42,3699.00
             8186.40,3692.00 8182.57,3685.45 8178.53,3679.00
             8169.05,3663.89 8157.08,3648.06 8144.91,3635.00
             8144.91,3635.00 8120.00,3610.00 8120.00,3610.00 Z
           M 8022.00,3636.00
           C 8038.98,3629.46 8060.23,3623.32 8078.00,3619.34
             8082.22,3618.39 8096.49,3614.11 8100.00,3614.90
             8104.34,3615.88 8115.68,3628.86 8119.12,3632.72
             8137.90,3653.77 8147.01,3668.52 8158.60,3694.00
             8158.60,3694.00 8166.14,3713.00 8166.14,3713.00
             8167.07,3715.34 8168.71,3719.32 8167.68,3721.79
             8166.79,3723.92 8163.35,3725.72 8161.42,3727.00
             8161.42,3727.00 8146.00,3736.86 8146.00,3736.86
             8146.00,3736.86 8110.17,3760.86 8110.17,3760.86
             8110.17,3760.86 8088.00,3777.00 8088.00,3777.00
             8088.00,3777.00 8072.92,3740.00 8072.92,3740.00
             8072.92,3740.00 8050.53,3691.00 8050.53,3691.00
             8050.53,3691.00 8031.23,3655.00 8031.23,3655.00
             8027.94,3648.94 8023.29,3642.80 8022.00,3636.00 Z
           M 8221.00,3789.00
           C 8221.00,3789.00 8248.00,3784.43 8248.00,3784.43
             8248.00,3784.43 8269.00,3781.29 8269.00,3781.29
             8269.00,3781.29 8278.00,3780.58 8278.00,3780.58
             8278.00,3780.58 8301.00,3777.04 8301.00,3777.04
             8301.00,3777.04 8310.00,3777.04 8310.00,3777.04
             8317.75,3776.38 8335.69,3772.50 8342.00,3775.00
             8335.55,3775.58 8322.72,3779.95 8316.00,3781.85
             8293.80,3788.11 8272.25,3796.40 8251.00,3805.31
             8251.00,3805.31 8227.00,3816.00 8227.00,3816.00
             8227.00,3816.00 8221.00,3789.00 8221.00,3789.00 Z
           M 2831.00,3776.00
           C 2831.00,3776.00 2832.00,3776.00 2832.00,3776.00
             2832.00,3776.00 2831.00,3777.00 2831.00,3777.00
             2831.00,3777.00 2831.00,3776.00 2831.00,3776.00 Z
           M 6955.00,3786.00
           C 6955.00,3786.00 6954.00,3786.00 6954.00,3786.00
             6954.00,3786.00 6955.00,3787.00 6955.00,3787.00
             6955.00,3787.00 6955.00,3786.00 6955.00,3786.00 Z
           M 8090.00,3916.00
           C 8090.00,3916.00 8094.63,3905.00 8094.63,3905.00
             8100.50,3889.56 8104.19,3872.58 8104.00,3856.00
             8104.00,3856.00 8102.02,3835.00 8102.02,3835.00
             8101.81,3832.60 8100.87,3828.41 8102.02,3826.39
             8103.78,3823.47 8117.26,3818.66 8121.00,3817.14
             8121.00,3817.14 8158.00,3804.96 8158.00,3804.96
             8166.26,3802.44 8174.25,3799.19 8183.00,3799.00
             8183.00,3799.00 8185.56,3812.00 8185.56,3812.00
             8185.56,3812.00 8187.49,3830.00 8187.49,3830.00
             8187.49,3830.00 8185.99,3838.82 8185.99,3838.82
             8185.99,3838.82 8165.00,3855.12 8165.00,3855.12
             8165.00,3855.12 8114.00,3896.61 8114.00,3896.61
             8114.00,3896.61 8090.00,3916.00 8090.00,3916.00 Z
           M 8192.00,4011.00
           C 8192.00,4011.00 8193.00,4011.00 8193.00,4011.00
             8193.00,4011.00 8192.00,4012.00 8192.00,4012.00
             8192.00,4012.00 8192.00,4011.00 8192.00,4011.00 Z
           M 7802.00,4833.00
           C 7802.00,4833.00 7818.00,4825.12 7818.00,4825.12
             7839.38,4813.67 7858.61,4798.17 7873.58,4779.00
             7873.58,4779.00 7904.79,4735.00 7904.79,4735.00
             7911.75,4726.12 7919.34,4717.52 7930.00,4713.00
             7930.00,4713.00 7918.53,4731.00 7918.53,4731.00
             7911.54,4742.09 7902.77,4757.18 7897.31,4769.00
             7878.58,4809.50 7865.12,4852.00 7853.51,4895.00
             7853.51,4895.00 7846.75,4918.00 7846.75,4918.00
             7846.75,4918.00 7838.54,4957.00 7838.54,4957.00
             7838.54,4957.00 7836.30,4967.00 7836.30,4967.00
             7836.30,4967.00 7834.28,4984.00 7834.28,4984.00
             7834.28,4984.00 7831.00,5013.00 7831.00,5013.00
             7825.93,5006.43 7823.33,5007.71 7816.00,5005.71
             7816.00,5005.71 7782.00,4998.11 7782.00,4998.11
             7782.00,4998.11 7754.00,4992.54 7754.00,4992.54
             7754.00,4992.54 7740.00,4989.46 7740.00,4989.46
             7740.00,4989.46 7715.00,4985.56 7715.00,4985.56
             7715.00,4985.56 7700.00,4982.46 7700.00,4982.46
             7700.00,4982.46 7691.00,4981.57 7691.00,4981.57
             7691.00,4981.57 7673.00,4978.43 7673.00,4978.43
             7673.00,4978.43 7664.00,4977.72 7664.00,4977.72
             7664.00,4977.72 7645.00,4975.09 7645.00,4975.09
             7639.56,4974.72 7632.14,4975.06 7627.00,4973.00
             7665.17,4953.41 7715.02,4919.64 7747.96,4892.20
             7747.96,4892.20 7767.00,4875.07 7767.00,4875.07
             7767.00,4875.07 7794.91,4847.00 7794.91,4847.00
             7799.00,4842.59 7803.81,4839.16 7802.00,4833.00 Z
           M 8609.00,4874.00
           C 8609.00,4874.00 8626.45,4904.00 8626.45,4904.00
             8626.45,4904.00 8652.04,4943.00 8652.04,4943.00
             8689.47,4996.35 8740.44,5052.83 8796.00,5087.47
             8821.87,5103.60 8849.88,5116.03 8878.00,5127.64
             8883.07,5129.74 8894.28,5135.13 8898.72,5137.99
             8901.00,5139.46 8904.65,5142.12 8904.99,5145.01
             8905.44,5148.88 8899.71,5154.29 8897.00,5156.54
             8888.33,5163.73 8874.65,5170.27 8864.00,5174.06
             8853.54,5177.79 8827.14,5184.00 8816.09,5185.50
             8816.09,5185.50 8807.99,5186.14 8807.99,5186.14
             8807.99,5186.14 8786.00,5189.00 8786.00,5189.00
             8786.00,5189.00 8759.00,5190.91 8759.00,5190.91
             8759.00,5190.91 8730.00,5192.00 8730.00,5192.00
             8730.00,5192.00 8713.00,5193.00 8713.00,5193.00
             8713.00,5193.00 8657.00,5193.00 8657.00,5193.00
             8657.00,5193.00 8640.00,5192.00 8640.00,5192.00
             8640.00,5192.00 8613.00,5192.00 8613.00,5192.00
             8613.00,5192.00 8597.00,5191.00 8597.00,5191.00
             8597.00,5191.00 8574.00,5191.00 8574.00,5191.00
             8574.00,5191.00 8557.00,5190.00 8557.00,5190.00
             8557.00,5190.00 8533.00,5190.00 8533.00,5190.00
             8533.00,5190.00 8518.00,5189.00 8518.00,5189.00
             8518.00,5189.00 8501.00,5189.00 8501.00,5189.00
             8501.00,5189.00 8471.00,5185.94 8471.00,5185.94
             8471.00,5185.94 8463.00,5185.94 8463.00,5185.94
             8442.92,5183.24 8418.88,5177.48 8400.00,5170.26
             8379.89,5162.57 8359.85,5149.65 8343.00,5136.34
             8343.00,5136.34 8328.00,5124.00 8328.00,5124.00
             8333.01,5113.32 8344.13,5098.26 8351.58,5088.83
             8351.58,5088.83 8361.44,5076.00 8361.44,5076.00
             8371.69,5063.85 8388.65,5046.71 8401.00,5036.81
             8401.00,5036.81 8424.00,5019.50 8424.00,5019.50
             8424.00,5019.50 8449.00,5000.99 8449.00,5000.99
             8454.51,4996.96 8456.32,4994.47 8463.00,4992.00
             8463.34,4994.37 8463.63,4996.82 8464.93,4998.90
             8467.45,5002.89 8478.49,5007.77 8483.00,5010.11
             8483.00,5010.11 8542.00,5039.73 8542.00,5039.73
             8542.00,5039.73 8565.00,5050.69 8565.00,5050.69
             8565.00,5050.69 8608.00,5069.57 8608.00,5069.57
             8650.66,5087.76 8703.02,5105.90 8748.00,5116.90
             8748.00,5116.90 8796.00,5128.21 8796.00,5128.21
             8801.99,5129.48 8814.34,5132.15 8820.00,5131.00
             8820.00,5131.00 8802.00,5125.43 8802.00,5125.43
             8802.00,5125.43 8744.00,5107.74 8744.00,5107.74
             8696.87,5092.48 8652.79,5074.64 8608.00,5053.48
             8608.00,5053.48 8559.00,5029.31 8559.00,5029.31
             8559.00,5029.31 8534.00,5016.52 8534.00,5016.52
             8534.00,5016.52 8500.00,4997.55 8500.00,4997.55
             8493.31,4993.71 8479.07,4986.61 8474.00,4982.00
             8474.00,4982.00 8500.00,4962.42 8500.00,4962.42
             8500.00,4962.42 8532.00,4937.66 8532.00,4937.66
             8532.00,4937.66 8590.00,4890.27 8590.00,4890.27
             8590.00,4890.27 8609.00,4874.00 8609.00,4874.00 Z
           M 6220.00,5605.43
           C 6225.47,5604.88 6225.97,5605.69 6231.00,5605.97
             6266.40,5607.92 6296.60,5629.64 6312.25,5661.00
             6317.64,5671.81 6321.85,5685.86 6322.00,5698.00
             6322.00,5698.00 6322.00,5709.00 6322.00,5709.00
             6321.95,5720.34 6318.24,5734.83 6313.24,5745.00
             6309.13,5753.37 6305.88,5759.78 6299.70,5767.00
             6285.07,5784.10 6265.99,5795.57 6244.00,5800.34
             6244.00,5800.34 6198.00,5805.17 6198.00,5805.17
             6198.00,5805.17 6147.00,5809.83 6147.00,5809.83
             6147.00,5809.83 6115.00,5812.58 6115.00,5812.58
             6115.00,5812.58 6083.00,5815.17 6083.00,5815.17
             6083.00,5815.17 6013.00,5821.17 6013.00,5821.17
             6013.00,5821.17 5801.00,5839.83 5801.00,5839.83
             5801.00,5839.83 5724.00,5846.17 5724.00,5846.17
             5724.00,5846.17 5547.00,5861.83 5547.00,5861.83
             5547.00,5861.83 5505.00,5865.17 5505.00,5865.17
             5505.00,5865.17 5437.00,5871.17 5437.00,5871.17
             5437.00,5871.17 5414.00,5873.09 5414.00,5873.09
             5414.00,5873.09 5404.00,5874.00 5404.00,5874.00
             5404.00,5874.00 5389.00,5874.00 5389.00,5874.00
             5365.56,5873.96 5340.70,5861.96 5324.09,5845.83
             5316.85,5838.80 5310.26,5829.02 5305.75,5820.00
             5285.08,5778.64 5296.01,5728.43 5332.00,5699.31
             5361.76,5675.23 5393.37,5677.24 5429.00,5673.83
             5429.00,5673.83 5533.00,5664.83 5533.00,5664.83
             5533.00,5664.83 5568.00,5661.83 5568.00,5661.83
             5568.00,5661.83 5588.00,5659.99 5588.00,5659.99
             5588.00,5659.99 5608.00,5658.17 5608.00,5658.17
             5608.00,5658.17 5653.00,5654.17 5653.00,5654.17
             5653.00,5654.17 5765.00,5644.83 5765.00,5644.83
             5765.00,5644.83 5822.00,5639.83 5822.00,5639.83
             5822.00,5639.83 5839.00,5638.09 5839.00,5638.09
             5839.00,5638.09 5930.00,5630.17 5930.00,5630.17
             5930.00,5630.17 5961.00,5627.83 5961.00,5627.83
             5961.00,5627.83 6069.00,5618.17 6069.00,5618.17
             6069.00,5618.17 6185.00,5608.17 6185.00,5608.17
             6185.00,5608.17 6209.00,5606.09 6209.00,5606.09
             6209.00,5606.09 6220.00,5605.43 6220.00,5605.43 Z" />
</svg>
