<?xml version="1.0" encoding="UTF-8" standalone="no"?>
<!DOCTYPE svg PUBLIC "-//W3C//DTD SVG 20010904//EN"
              "http://www.w3.org/TR/2001/REC-SVG-20010904/DTD/svg10.dtd">

<svg xmlns="http://www.w3.org/2000/svg"
     width="16in" height="10.4533in"
     viewBox="0 0 9600 6272">
  <path id="Light Brown But PQ Fucked Up"
        fill="none" stroke="black" stroke-width="1"
        d="M 5822.00,342.21
           C 5822.00,342.21 5828.00,342.21 5828.00,342.21
             5855.32,341.68 5881.10,350.96 5900.91,370.17
             5927.46,395.92 5937.18,439.29 5924.56,474.00
             5914.29,502.27 5901.02,511.89 5879.00,530.25
             5879.00,530.25 5841.00,561.92 5841.00,561.92
             5841.00,561.92 5602.00,761.92 5602.00,761.92
             5602.00,761.92 5486.00,858.92 5486.00,858.92
             5486.00,858.92 5449.00,889.74 5449.00,889.74
             5449.00,889.74 5438.00,898.30 5438.00,898.30
             5438.00,898.30 5316.00,1000.92 5316.00,1000.92
             5316.00,1000.92 5279.00,1031.08 5279.00,1031.08
             5279.00,1031.08 5183.00,1111.59 5183.00,1111.59
             5183.00,1111.59 5152.00,1137.92 5152.00,1137.92
             5152.00,1137.92 5135.00,1151.41 5135.00,1151.41
             5119.12,1164.63 5108.11,1175.03 5088.00,1181.92
             5053.27,1193.84 5010.86,1184.41 4985.17,1157.91
             4965.96,1138.10 4956.68,1112.32 4957.00,1085.00
             4957.29,1060.81 4968.41,1035.37 4985.17,1018.09
             4985.17,1018.09 5010.00,996.93 5010.00,996.93
             5010.00,996.93 5054.00,959.92 5054.00,959.92
             5054.00,959.92 5139.00,889.25 5139.00,889.25
             5139.00,889.25 5615.00,491.59 5615.00,491.59
             5615.00,491.59 5693.00,426.08 5693.00,426.08
             5693.00,426.08 5728.00,397.57 5728.00,397.57
             5749.13,379.51 5771.66,357.01 5798.00,347.44
             5806.12,344.48 5813.59,343.64 5822.00,342.21 Z
           M 4082.00,3626.00
           C 4078.61,3628.43 4072.99,3632.99 4071.61,3637.00
             4071.61,3637.00 4073.00,3660.00 4073.00,3660.00
             4073.00,3660.00 4076.00,3702.00 4076.00,3702.00
             4076.00,3702.00 4078.09,3741.00 4078.09,3741.00
             4078.09,3741.00 4079.00,3752.00 4079.00,3752.00
             4079.00,3752.00 4080.00,3770.00 4080.00,3770.00
             4080.00,3770.00 4080.00,3793.00 4080.00,3793.00
             4080.00,3793.00 4081.00,3808.00 4081.00,3808.00
             4081.00,3808.00 4081.00,3828.00 4081.00,3828.00
             4081.00,3828.00 4082.00,3845.00 4082.00,3845.00
             4082.00,3845.00 4082.00,3878.00 4082.00,3878.00
             4082.00,3878.00 4081.00,3895.00 4081.00,3895.00
             4081.00,3895.00 4081.00,3910.00 4081.00,3910.00
             4081.00,3910.00 4080.00,3925.00 4080.00,3925.00
             4080.00,3925.00 4080.00,3942.00 4080.00,3942.00
             4080.00,3942.00 4079.09,3952.00 4079.09,3952.00
             4079.09,3952.00 4076.00,3982.00 4076.00,3982.00
             4076.00,3982.00 4076.00,3992.00 4076.00,3992.00
             4076.00,3992.00 4073.28,4010.00 4073.28,4010.00
             4073.28,4010.00 4072.71,4019.00 4072.71,4019.00
             4072.71,4019.00 4069.44,4037.00 4069.44,4037.00
             4069.44,4037.00 4068.56,4045.00 4068.56,4045.00
             4068.56,4045.00 4062.67,4074.00 4062.67,4074.00
             4062.67,4074.00 4054.51,4110.00 4054.51,4110.00
             4054.51,4110.00 4047.45,4131.78 4047.45,4131.78
             4045.01,4135.78 4042.11,4134.48 4039.85,4139.11
             4035.77,4147.45 4033.97,4160.17 4027.83,4171.00
             4023.70,4178.27 4020.58,4179.45 4018.05,4183.17
             4018.05,4183.17 4010.07,4200.00 4010.07,4200.00
             4010.07,4200.00 4003.96,4223.72 4003.96,4223.72
             4003.64,4227.24 4005.19,4229.58 4004.69,4233.00
             4004.28,4235.77 4001.60,4240.33 4000.25,4243.00
             4000.25,4243.00 3988.40,4264.00 3988.40,4264.00
             3986.95,4266.42 3983.62,4272.62 3981.47,4274.01
             3976.18,4277.42 3961.13,4272.70 3956.50,4261.00
             3954.25,4254.69 3954.77,4245.49 3956.50,4239.00
             3957.07,4235.98 3958.58,4233.16 3958.52,4230.00
             3958.46,4226.83 3957.01,4224.67 3957.00,4216.00
             3957.00,4216.00 3957.00,4204.00 3957.00,4204.00
             3957.00,4204.00 3956.40,4194.00 3956.40,4194.00
             3956.40,4194.00 3957.00,4184.00 3957.00,4184.00
             3957.00,4184.00 3957.00,4159.00 3957.00,4159.00
             3957.00,4159.00 3957.00,4146.00 3957.00,4146.00
             3957.00,4146.00 3958.00,4125.00 3958.00,4125.00
             3958.00,4125.00 3955.00,4088.00 3955.00,4088.00
             3954.98,4083.03 3954.45,4072.24 3952.02,4068.05
             3948.53,4062.05 3941.22,4062.51 3941.00,4051.00
             3941.00,4051.00 3942.08,4031.00 3942.08,4031.00
             3942.08,4031.00 3942.08,4021.00 3942.08,4021.00
             3942.08,4021.00 3944.53,3997.00 3944.53,3997.00
             3944.08,3993.46 3940.39,3989.54 3938.67,3986.00
             3935.93,3980.39 3935.01,3974.16 3935.00,3968.00
             3935.00,3968.00 3935.00,3955.00 3935.00,3955.00
             3935.00,3955.00 3939.00,3916.00 3939.00,3916.00
             3939.18,3900.02 3940.01,3883.84 3942.30,3868.00
             3942.30,3868.00 3948.52,3845.00 3948.52,3845.00
             3948.52,3845.00 3948.01,3833.00 3948.01,3833.00
             3948.29,3820.87 3952.26,3807.32 3956.53,3796.00
             3956.53,3796.00 3959.50,3789.00 3959.50,3789.00
             3959.50,3789.00 3961.36,3780.00 3961.36,3780.00
             3966.23,3765.79 3972.55,3751.52 3979.08,3738.00
             3981.55,3732.88 3989.11,3717.74 3989.62,3713.00
             3989.62,3713.00 3989.62,3707.00 3989.62,3707.00
             3990.28,3704.49 3994.79,3695.09 3996.41,3693.09
             3998.87,3690.06 4000.78,3689.47 4004.13,3684.99
             4004.13,3684.99 4023.72,3663.00 4023.72,3663.00
             4031.96,3653.64 4038.51,3644.47 4050.00,3638.71
             4054.95,3636.22 4057.35,3637.06 4061.00,3635.73
             4067.73,3633.29 4074.36,3624.51 4082.00,3626.00 Z
           M 6211.00,5605.42
           C 6268.40,5598.43 6322.31,5642.23 6323.00,5701.00
             6323.13,5712.15 6321.77,5723.29 6318.56,5734.00
             6316.43,5741.12 6310.75,5752.81 6306.64,5759.00
             6303.02,5764.46 6296.85,5772.30 6291.99,5776.57
             6281.29,5785.96 6268.63,5793.88 6255.00,5798.25
             6236.69,5804.13 6201.34,5805.22 6181.00,5807.17
             6181.00,5807.17 6119.00,5812.91 6119.00,5812.91
             6119.00,5812.91 5993.00,5823.83 5993.00,5823.83
             5993.00,5823.83 5962.00,5826.17 5962.00,5826.17
             5962.00,5826.17 5866.00,5834.83 5866.00,5834.83
             5866.00,5834.83 5835.00,5837.17 5835.00,5837.17
             5835.00,5837.17 5657.00,5852.83 5657.00,5852.83
             5657.00,5852.83 5626.00,5855.17 5626.00,5855.17
             5626.00,5855.17 5530.00,5863.83 5530.00,5863.83
             5530.00,5863.83 5476.00,5868.17 5476.00,5868.17
             5476.00,5868.17 5419.00,5873.17 5419.00,5873.17
             5419.00,5873.17 5397.00,5875.00 5397.00,5875.00
             5385.22,5875.02 5373.21,5873.77 5362.00,5869.92
             5319.57,5855.37 5294.49,5817.25 5295.00,5773.00
             5295.49,5731.78 5323.31,5695.35 5362.00,5682.08
             5381.79,5675.29 5413.55,5674.88 5435.00,5672.83
             5435.00,5672.83 5531.00,5664.17 5531.00,5664.17
             5531.00,5664.17 5586.00,5659.72 5586.00,5659.72
             5586.00,5659.72 5608.00,5657.83 5608.00,5657.83
             5608.00,5657.83 5689.00,5650.83 5689.00,5650.83
             5689.00,5650.83 5792.00,5641.83 5792.00,5641.83
             5792.00,5641.83 5833.00,5638.09 5833.00,5638.09
             5833.00,5638.09 5912.00,5631.17 5912.00,5631.17
             5912.00,5631.17 5943.00,5628.83 5943.00,5628.83
             5943.00,5628.83 6074.00,5617.17 6074.00,5617.17
             6074.00,5617.17 6105.00,5614.83 6105.00,5614.83
             6105.00,5614.83 6166.00,5609.17 6166.00,5609.17
             6166.00,5609.17 6201.00,5606.17 6201.00,5606.17
             6201.00,5606.17 6211.00,5605.42 6211.00,5605.42 Z" />
</svg>
