<?xml version="1.0" encoding="UTF-8" standalone="no"?>
<!DOCTYPE svg PUBLIC "-//W3C//DTD SVG 20010904//EN"
              "http://www.w3.org/TR/2001/REC-SVG-20010904/DTD/svg10.dtd">

<svg xmlns="http://www.w3.org/2000/svg"
     width="16in" height="10.4533in"
     viewBox="0 0 9600 6272">
  <path id="Medium Brown"
        fill="none" stroke="black" stroke-width="1"
        d="M 5823.00,342.42
           C 5833.14,341.19 5845.10,342.71 5855.00,345.13
             5869.27,348.61 5882.62,355.13 5894.00,364.46
             5934.84,397.95 5941.65,459.36 5909.34,501.00
             5895.62,518.67 5862.40,543.91 5844.00,559.25
             5844.00,559.25 5756.00,632.92 5756.00,632.92
             5756.00,632.92 5719.00,663.43 5719.00,663.43
             5719.00,663.43 5559.00,797.08 5559.00,797.08
             5559.00,797.08 5286.00,1025.08 5286.00,1025.08
             5286.00,1025.08 5149.00,1139.61 5149.00,1139.61
             5149.00,1139.61 5111.00,1170.30 5111.00,1170.30
             5095.63,1180.18 5081.95,1184.37 5064.00,1186.17
             5064.00,1186.17 5056.00,1186.97 5056.00,1186.97
             5045.94,1186.97 5030.33,1184.16 5021.00,1180.40
             5007.53,1174.96 4994.04,1166.65 4984.09,1156.00
             4948.78,1118.22 4948.56,1060.79 4982.29,1022.00
             4989.72,1013.45 4999.29,1006.19 5008.00,998.92
             5008.00,998.92 5049.00,964.59 5049.00,964.59
             5049.00,964.59 5176.00,858.58 5176.00,858.58
             5176.00,858.58 5248.00,798.25 5248.00,798.25
             5248.00,798.25 5278.00,773.57 5278.00,773.57
             5278.00,773.57 5414.00,659.92 5414.00,659.92
             5414.00,659.92 5583.00,518.75 5583.00,518.75
             5583.00,518.75 5723.00,401.92 5723.00,401.92
             5739.44,388.21 5769.27,360.90 5787.00,352.26
             5799.94,345.95 5809.08,344.44 5823.00,342.42 Z
           M 5633.00,2169.46
           C 5633.00,2169.46 5642.00,2170.06 5642.00,2170.06
             5642.00,2170.06 5650.00,2170.06 5650.00,2170.06
             5667.59,2171.87 5698.90,2183.46 5715.00,2191.26
             5715.00,2191.26 5729.00,2198.74 5729.00,2198.74
             5738.85,2203.82 5752.46,2209.74 5761.00,2216.24
             5771.95,2224.57 5785.83,2245.87 5786.00,2260.00
             5786.06,2265.15 5786.05,2267.97 5784.56,2273.00
             5777.08,2298.38 5754.30,2303.73 5732.00,2311.69
             5732.00,2311.69 5699.00,2323.77 5699.00,2323.77
             5690.24,2326.78 5687.18,2325.01 5682.00,2327.80
             5682.00,2327.80 5662.00,2340.80 5662.00,2340.80
             5662.00,2340.80 5650.22,2347.41 5650.22,2347.41
             5647.16,2350.23 5646.63,2354.52 5644.64,2358.00
             5639.85,2366.33 5633.21,2369.21 5624.00,2368.99
             5621.40,2368.92 5619.48,2368.78 5617.00,2367.87
             5601.43,2362.16 5601.70,2346.14 5599.28,2340.00
             5598.29,2337.49 5596.28,2335.06 5594.56,2333.00
             5594.56,2333.00 5585.90,2323.00 5585.90,2323.00
             5585.90,2323.00 5567.71,2299.00 5567.71,2299.00
             5567.71,2299.00 5551.00,2282.00 5551.00,2282.00
             5551.00,2282.00 5529.00,2260.00 5529.00,2260.00
             5523.41,2254.46 5518.14,2250.08 5514.32,2243.00
             5513.06,2240.65 5511.86,2237.26 5510.30,2235.32
             5510.30,2235.32 5503.53,2228.91 5503.53,2228.91
             5498.80,2223.18 5497.68,2214.87 5500.48,2208.00
             5506.37,2193.60 5523.83,2191.03 5537.00,2187.29
             5537.00,2187.29 5587.00,2173.25 5587.00,2173.25
             5595.05,2171.85 5609.02,2170.04 5617.00,2170.00
             5617.00,2170.00 5633.00,2169.46 5633.00,2169.46 Z
           M 3912.00,2437.00
           C 3921.04,2437.82 3941.00,2446.66 3950.00,2450.58
             3971.76,2460.04 3993.42,2471.94 4012.00,2486.81
             4012.00,2486.81 4069.00,2536.87 4069.00,2536.87
             4078.19,2543.73 4089.87,2550.14 4101.00,2553.12
             4104.94,2554.17 4119.07,2556.20 4121.07,2558.56
             4122.49,2560.25 4124.21,2569.28 4124.87,2572.00
             4124.87,2572.00 4133.00,2603.00 4133.00,2603.00
             4127.76,2604.01 4125.83,2602.48 4121.00,2600.68
             4107.31,2595.58 4106.66,2593.97 4095.00,2587.78
             4074.44,2576.86 4053.63,2566.85 4032.00,2558.20
             4025.19,2555.48 4008.74,2548.78 4002.00,2549.00
             4026.23,2568.67 4050.59,2581.11 4078.00,2595.26
             4078.00,2595.26 4101.00,2607.75 4101.00,2607.75
             4108.32,2611.41 4115.89,2614.36 4124.00,2615.72
             4127.04,2616.22 4135.21,2616.61 4137.16,2618.60
             4138.51,2619.97 4141.99,2630.42 4142.95,2633.00
             4142.95,2633.00 4156.00,2668.00 4156.00,2668.00
             4147.04,2670.17 4134.05,2666.60 4125.00,2664.66
             4102.02,2659.75 4092.87,2654.60 4072.00,2646.61
             4072.00,2646.61 4049.00,2639.00 4049.00,2639.00
             4067.73,2665.27 4101.19,2676.97 4132.00,2681.84
             4138.48,2682.73 4143.56,2684.04 4150.00,2681.84
             4154.37,2680.53 4157.82,2677.50 4160.30,2679.05
             4161.93,2680.06 4166.88,2691.53 4168.06,2694.00
             4168.06,2694.00 4180.25,2719.00 4180.25,2719.00
             4183.06,2724.63 4186.54,2729.83 4188.00,2736.00
             4176.14,2739.63 4163.22,2738.95 4151.00,2740.17
             4151.00,2740.17 4125.00,2745.00 4125.00,2745.00
             4128.00,2747.65 4130.34,2748.36 4134.00,2749.80
             4147.82,2755.23 4159.69,2754.73 4174.00,2751.58
             4174.00,2751.58 4191.98,2746.70 4191.98,2746.70
             4193.83,2746.78 4195.02,2747.61 4195.99,2749.15
             4197.17,2751.02 4197.69,2755.72 4197.95,2758.00
             4198.32,2761.22 4200.00,2767.22 4198.74,2769.90
             4197.28,2772.98 4192.86,2774.78 4190.00,2776.43
             4184.72,2779.48 4178.45,2783.95 4174.00,2788.09
             4169.03,2792.72 4164.44,2797.97 4161.26,2804.00
             4161.26,2804.00 4153.30,2819.49 4153.30,2819.49
             4150.97,2821.93 4144.35,2823.07 4141.00,2823.79
             4141.00,2823.79 4118.00,2829.37 4118.00,2829.37
             4115.78,2829.94 4109.91,2831.74 4108.04,2831.67
             4104.33,2831.54 4102.69,2828.57 4100.54,2826.00
             4097.16,2821.95 4093.04,2817.27 4088.99,2813.94
             4086.81,2812.15 4083.09,2808.95 4080.06,2810.49
             4077.13,2811.97 4077.11,2815.27 4077.98,2818.00
             4080.15,2824.79 4086.94,2831.33 4087.85,2833.95
             4089.83,2839.68 4072.37,2842.11 4071.30,2841.65
             4069.12,2840.72 4067.83,2836.13 4066.65,2834.00
             4064.68,2830.43 4054.79,2818.13 4051.83,2815.04
             4050.06,2813.20 4046.98,2810.20 4044.15,2810.82
             4039.04,2811.95 4041.95,2820.08 4043.33,2823.00
             4047.28,2831.41 4054.81,2839.64 4064.00,2842.00
             4063.54,2843.29 4063.65,2843.85 4062.43,2844.87
             4059.83,2847.03 4047.43,2850.75 4044.63,2848.39
             4042.99,2847.00 4040.37,2841.21 4039.14,2839.00
             4035.65,2832.75 4031.52,2826.78 4029.09,2820.00
             4023.06,2803.20 4028.89,2785.29 4028.26,2768.00
             4027.38,2743.96 4022.81,2721.59 4011.74,2700.00
             4002.20,2681.39 3991.51,2667.95 3975.00,2655.01
             3958.57,2642.14 3942.47,2636.35 3932.27,2616.00
             3924.77,2601.05 3921.03,2579.68 3921.00,2563.00
             3921.00,2563.00 3920.11,2547.00 3920.11,2547.00
             3920.11,2547.00 3921.18,2532.58 3921.18,2532.58
             3921.18,2532.58 3920.00,2507.00 3920.00,2507.00
             3920.00,2507.00 3912.00,2437.00 3912.00,2437.00 Z
           M 6013.00,2664.85
           C 6014.89,2664.42 6015.92,2663.99 6017.78,2664.85
             6021.96,2667.41 6023.33,2678.47 6023.68,2683.00
             6024.46,2693.18 6019.71,2708.37 6016.34,2718.00
             6008.06,2741.74 5997.34,2761.88 5985.75,2784.00
             5966.41,2820.89 5940.42,2857.75 5915.37,2891.00
             5885.45,2930.74 5853.91,2969.51 5820.09,3006.00
             5805.18,3022.08 5790.69,3038.96 5774.00,3053.27
             5765.31,3060.72 5756.66,3068.45 5745.00,3070.54
             5742.18,3071.04 5739.82,3071.06 5737.00,3070.54
             5724.62,3068.21 5719.51,3056.53 5722.79,3045.00
             5724.06,3040.52 5727.64,3034.66 5730.52,3031.00
             5742.10,3016.24 5756.81,3003.34 5770.00,2990.00
             5770.00,2990.00 5800.84,2956.00 5800.84,2956.00
             5846.82,2904.51 5893.23,2844.69 5929.58,2786.00
             5929.58,2786.00 5977.32,2700.00 5977.32,2700.00
             5985.93,2686.34 5997.40,2670.73 6013.00,2664.85 Z
           M 5844.95,2683.17
           C 5849.33,2682.73 5849.04,2685.36 5848.33,2689.00
             5848.33,2689.00 5842.67,2708.00 5842.67,2708.00
             5834.69,2732.03 5824.39,2759.93 5812.14,2782.00
             5797.83,2807.79 5779.60,2833.97 5762.42,2858.00
             5740.44,2888.75 5717.88,2918.32 5692.09,2946.00
             5675.27,2964.05 5647.46,2991.49 5624.00,2999.91
             5620.80,3001.06 5610.46,3004.28 5607.99,3001.26
             5604.75,2997.28 5611.26,2985.68 5613.45,2982.00
             5613.45,2982.00 5653.88,2929.00 5653.88,2929.00
             5653.88,2929.00 5706.58,2858.00 5706.58,2858.00
             5736.86,2815.22 5759.57,2780.95 5794.72,2741.00
             5794.72,2741.00 5826.57,2704.00 5826.57,2704.00
             5831.51,2698.05 5838.85,2687.04 5844.95,2683.17 Z
           M 5065.88,3244.00
           C 5065.88,3244.00 5098.00,3246.00 5098.00,3246.00
             5098.00,3246.00 5114.00,3247.00 5114.00,3247.00
             5113.49,3248.57 5113.56,3249.08 5112.41,3250.49
             5112.41,3250.49 5091.00,3266.23 5091.00,3266.23
             5074.23,3278.98 5058.22,3292.41 5043.00,3306.96
             5043.00,3306.96 5034.17,3315.04 5034.17,3315.04
             4997.28,3354.04 4965.39,3395.74 4945.45,3446.00
             4945.45,3446.00 4936.88,3472.00 4936.88,3472.00
             4936.88,3472.00 4931.00,3496.00 4931.00,3496.00
             4925.70,3491.01 4923.86,3481.91 4922.13,3475.00
             4918.34,3459.91 4916.97,3448.41 4915.91,3433.00
             4915.91,3433.00 4915.01,3421.00 4915.01,3421.00
             4915.01,3421.00 4915.91,3412.00 4915.91,3412.00
             4918.42,3375.31 4926.49,3338.18 4950.46,3309.00
             4960.29,3297.04 4970.90,3288.82 4984.00,3280.81
             5001.22,3270.29 5026.23,3261.48 5046.00,3257.21
             5051.49,3256.02 5063.79,3255.14 5065.88,3249.41
             5066.28,3247.92 5066.05,3245.59 5065.88,3244.00 Z
           M 8166.00,3431.42
           C 8173.68,3430.56 8183.20,3432.71 8188.90,3438.19
             8198.81,3447.71 8198.02,3464.78 8186.96,3473.06
             8180.08,3478.21 8163.17,3479.37 8154.00,3481.20
             8154.00,3481.20 8118.00,3490.43 8118.00,3490.43
             8102.70,3495.12 8103.41,3497.21 8086.00,3497.00
             8082.49,3496.95 8080.34,3496.85 8077.00,3495.52
             8065.65,3491.01 8061.72,3478.65 8067.41,3468.00
             8069.67,3463.76 8074.14,3459.41 8078.00,3456.59
             8086.56,3450.37 8096.12,3447.81 8106.00,3444.66
             8126.35,3438.16 8144.93,3434.47 8166.00,3431.42 Z
           M 3923.00,4422.00
           C 3933.68,4399.62 3945.71,4365.94 3952.96,4342.00
             3952.96,4342.00 3963.18,4304.00 3963.18,4304.00
             3963.18,4304.00 3977.61,4280.72 3977.61,4280.72
             3977.61,4280.72 4002.82,4237.00 4002.82,4237.00
             4006.51,4229.50 4003.09,4229.83 4003.90,4223.00
             4004.29,4219.70 4009.46,4200.20 4010.90,4197.00
             4010.90,4197.00 4018.05,4182.28 4018.05,4182.28
             4020.64,4178.56 4024.63,4176.50 4028.88,4168.00
             4028.88,4168.00 4039.83,4138.22 4039.83,4138.22
             4042.06,4133.91 4045.12,4135.80 4047.90,4129.96
             4050.26,4124.98 4050.90,4120.05 4052.52,4115.00
             4052.52,4115.00 4062.67,4073.00 4062.67,4073.00
             4062.67,4073.00 4065.19,4063.00 4065.19,4063.00
             4065.19,4063.00 4069.44,4036.00 4069.44,4036.00
             4069.44,4036.00 4072.56,4019.00 4072.56,4019.00
             4072.56,4019.00 4073.28,4009.00 4073.28,4009.00
             4073.28,4009.00 4076.00,3991.00 4076.00,3991.00
             4076.00,3991.00 4076.00,3981.00 4076.00,3981.00
             4076.00,3981.00 4079.09,3951.00 4079.09,3951.00
             4079.09,3951.00 4080.00,3940.00 4080.00,3940.00
             4080.00,3940.00 4080.00,3925.00 4080.00,3925.00
             4080.00,3925.00 4081.00,3908.00 4081.00,3908.00
             4081.00,3908.00 4081.00,3893.00 4081.00,3893.00
             4081.00,3893.00 4082.00,3877.00 4082.00,3877.00
             4082.00,3877.00 4082.00,3846.00 4082.00,3846.00
             4082.00,3846.00 4081.00,3829.00 4081.00,3829.00
             4081.00,3829.00 4081.00,3810.00 4081.00,3810.00
             4081.00,3810.00 4080.00,3794.00 4080.00,3794.00
             4080.00,3794.00 4080.00,3771.00 4080.00,3771.00
             4080.00,3771.00 4079.00,3752.00 4079.00,3752.00
             4079.00,3752.00 4078.09,3742.00 4078.09,3742.00
             4078.09,3742.00 4076.91,3721.00 4076.91,3721.00
             4076.91,3721.00 4076.00,3711.00 4076.00,3711.00
             4076.00,3711.00 4076.00,3703.00 4076.00,3703.00
             4076.00,3703.00 4073.00,3661.00 4073.00,3661.00
             4073.00,3661.00 4071.17,3641.00 4071.17,3641.00
             4070.64,3634.03 4074.97,3630.60 4080.00,3626.46
             4089.69,3618.49 4100.10,3611.26 4110.72,3604.61
             4140.40,3586.00 4169.01,3574.39 4203.00,3566.35
             4203.00,3566.35 4214.00,3563.46 4214.00,3563.46
             4214.00,3563.46 4221.00,3562.54 4221.00,3562.54
             4234.32,3560.12 4250.61,3556.04 4264.00,3556.00
             4263.33,3558.46 4262.01,3561.51 4262.35,3564.00
             4262.81,3567.38 4269.91,3578.38 4272.06,3582.28
             4272.06,3582.28 4297.31,3632.00 4297.31,3632.00
             4313.89,3669.98 4327.11,3707.18 4334.46,3748.00
             4334.46,3748.00 4337.71,3766.00 4337.71,3766.00
             4337.71,3766.00 4339.09,3786.00 4339.09,3786.00
             4339.09,3786.00 4340.00,3798.00 4340.00,3798.00
             4340.00,3798.00 4340.00,3805.00 4340.00,3805.00
             4340.00,3805.00 4337.94,3827.00 4337.94,3827.00
             4337.94,3827.00 4337.94,3837.00 4337.94,3837.00
             4334.10,3866.35 4326.17,3895.10 4316.74,3923.00
             4288.37,4006.97 4232.43,4090.84 4192.35,4171.00
             4178.68,4198.34 4166.27,4226.75 4157.34,4256.00
             4157.34,4256.00 4149.40,4285.91 4149.40,4285.91
             4148.49,4289.86 4148.75,4295.34 4146.27,4298.49
             4143.14,4302.45 4128.02,4311.58 4123.00,4314.88
             4123.00,4314.88 4075.00,4345.26 4075.00,4345.26
             4075.00,4345.26 4015.00,4379.04 4015.00,4379.04
             4015.00,4379.04 3970.00,4401.42 3970.00,4401.42
             3970.00,4401.42 3940.00,4415.62 3940.00,4415.62
             3934.80,4418.10 3928.82,4421.99 3923.00,4422.00 Z
           M 6155.00,3647.00
           C 6142.78,3650.53 6128.70,3652.15 6116.00,3652.00
             6090.68,3651.70 6082.66,3625.73 6098.04,3612.33
             6107.34,3604.23 6122.33,3605.41 6134.00,3603.20
             6149.90,3600.18 6156.95,3597.68 6172.00,3592.67
             6177.91,3590.70 6188.03,3586.68 6194.00,3587.19
             6207.65,3588.33 6216.55,3599.62 6215.96,3613.00
             6215.51,3623.31 6209.17,3625.95 6205.15,3641.00
             6200.29,3659.23 6196.51,3678.27 6194.28,3697.00
             6193.00,3707.79 6193.70,3719.74 6183.91,3727.37
             6174.81,3734.46 6161.23,3733.60 6153.53,3724.82
             6148.50,3719.09 6147.04,3712.37 6147.00,3705.00
             6146.90,3684.09 6151.19,3667.23 6155.00,3647.00 Z
           M 8253.00,3641.00
           C 8253.00,3641.00 8238.00,3641.00 8238.00,3641.00
             8238.00,3641.00 8222.00,3640.00 8222.00,3640.00
             8222.00,3640.00 8143.00,3640.00 8143.00,3640.00
             8132.43,3640.02 8103.47,3644.27 8093.00,3646.89
             8080.00,3650.16 8074.79,3653.82 8060.00,3654.00
             8048.26,3654.13 8035.75,3657.69 8026.18,3648.67
             8016.48,3639.53 8017.34,3623.09 8027.09,3614.33
             8033.70,3608.39 8040.47,3607.01 8049.00,3607.00
             8068.95,3606.97 8066.68,3604.26 8084.00,3600.23
             8094.75,3597.74 8128.28,3593.02 8139.00,3593.00
             8139.00,3593.00 8229.00,3593.00 8229.00,3593.00
             8229.00,3593.00 8244.00,3594.00 8244.00,3594.00
             8244.00,3594.00 8272.00,3595.00 8272.00,3595.00
             8272.00,3595.00 8288.00,3596.00 8288.00,3596.00
             8288.00,3596.00 8317.00,3596.00 8317.00,3596.00
             8317.00,3596.00 8334.00,3597.00 8334.00,3597.00
             8334.00,3597.00 8379.00,3599.00 8379.00,3599.00
             8379.00,3599.00 8393.00,3600.00 8393.00,3600.00
             8402.07,3600.04 8414.27,3600.23 8423.00,3602.48
             8433.61,3605.21 8436.06,3609.08 8440.00,3610.42
             8443.44,3611.58 8446.68,3610.28 8452.00,3612.11
             8466.62,3617.12 8473.10,3635.51 8463.58,3648.00
             8457.19,3656.39 8449.92,3657.98 8440.00,3658.00
             8440.00,3658.00 8391.00,3658.00 8391.00,3658.00
             8374.73,3658.19 8348.31,3665.05 8332.00,3669.13
             8310.46,3674.51 8285.32,3679.65 8265.00,3688.01
             8241.14,3697.82 8229.53,3706.41 8208.00,3718.99
             8208.00,3718.99 8176.00,3737.40 8176.00,3737.40
             8176.00,3737.40 8146.00,3757.08 8146.00,3757.08
             8146.00,3757.08 8108.00,3777.72 8108.00,3777.72
             8104.56,3779.69 8097.91,3783.67 8095.22,3786.32
             8092.92,3788.60 8091.78,3792.71 8087.95,3792.24
             8078.59,3791.10 8072.72,3779.60 8073.21,3771.00
             8074.02,3756.58 8085.58,3744.39 8096.00,3735.59
             8122.99,3712.81 8150.77,3697.12 8181.00,3679.58
             8181.00,3679.58 8215.00,3659.31 8215.00,3659.31
             8215.00,3659.31 8237.00,3648.31 8237.00,3648.31
             8242.66,3645.72 8247.62,3644.39 8253.00,3641.00 Z
           M 6917.00,3770.00
           C 6900.33,3778.03 6884.37,3791.55 6865.00,3791.99
             6859.61,3792.11 6854.75,3791.67 6850.02,3788.78
             6838.68,3781.85 6841.43,3768.46 6849.10,3760.00
             6857.11,3751.17 6869.89,3743.37 6880.00,3736.95
             6880.00,3736.95 6911.00,3717.86 6911.00,3717.86
             6911.00,3717.86 6941.00,3701.72 6941.00,3701.72
             6950.55,3696.28 6964.70,3684.37 6976.00,3687.64
             6985.42,3690.35 6989.27,3698.79 6987.67,3708.00
             6987.67,3708.00 6985.61,3715.00 6985.61,3715.00
             6984.51,3719.35 6985.64,3721.73 6983.52,3730.00
             6983.52,3730.00 6973.03,3758.00 6973.03,3758.00
             6970.51,3764.79 6973.44,3766.14 6973.91,3773.00
             6974.31,3778.81 6972.90,3784.63 6970.80,3790.00
             6964.74,3805.45 6955.17,3818.91 6943.91,3831.00
             6943.91,3831.00 6921.33,3854.00 6921.33,3854.00
             6910.57,3867.02 6909.75,3876.98 6894.00,3890.82
             6886.98,3896.99 6879.22,3900.48 6870.00,3901.63
             6867.13,3902.30 6862.82,3903.38 6860.43,3901.63
             6857.50,3898.94 6857.05,3890.67 6857.00,3887.00
             6856.71,3861.75 6870.57,3844.53 6883.42,3824.00
             6883.42,3824.00 6906.58,3789.00 6906.58,3789.00
             6906.58,3789.00 6917.00,3770.00 6917.00,3770.00 Z
           M 8125.00,3836.00
           C 8112.58,3840.34 8100.82,3847.67 8087.00,3844.47
             8080.25,3842.91 8069.95,3835.46 8078.06,3828.76
             8086.15,3822.08 8100.62,3814.94 8110.00,3810.02
             8110.00,3810.02 8121.00,3803.27 8121.00,3803.27
             8128.89,3799.26 8140.46,3795.51 8149.00,3792.67
             8149.00,3792.67 8168.00,3785.28 8168.00,3785.28
             8176.26,3783.66 8188.52,3790.24 8195.00,3788.51
             8195.00,3788.51 8212.00,3781.81 8212.00,3781.81
             8212.00,3781.81 8228.00,3776.34 8228.00,3776.34
             8250.60,3769.12 8273.71,3763.78 8297.00,3759.39
             8305.18,3757.85 8318.33,3754.09 8326.00,3754.00
             8337.11,3753.88 8347.37,3756.87 8347.96,3770.00
             8348.43,3780.54 8342.83,3786.30 8334.00,3791.10
             8325.32,3795.83 8297.59,3803.98 8287.00,3806.85
             8243.68,3818.58 8213.52,3827.77 8177.00,3855.65
             8163.51,3865.96 8150.08,3877.07 8138.00,3889.00
             8130.00,3896.91 8120.43,3908.52 8110.00,3912.53
             8089.98,3920.23 8076.22,3904.60 8082.04,3885.00
             8084.86,3875.51 8092.19,3867.82 8099.00,3861.00
             8099.00,3861.00 8125.00,3836.00 8125.00,3836.00 Z
           M 7988.00,4073.00
           C 7988.00,4073.00 8020.00,4059.57 8020.00,4059.57
             8020.00,4059.57 8039.00,4051.69 8039.00,4051.69
             8039.00,4051.69 8053.00,4047.51 8053.00,4047.51
             8059.68,4046.11 8059.86,4047.56 8067.00,4043.81
             8067.00,4043.81 8115.00,4017.75 8115.00,4017.75
             8124.09,4013.21 8131.41,4008.61 8142.00,4009.04
             8153.91,4009.52 8164.59,4018.29 8163.47,4031.00
             8161.86,4049.42 8147.48,4053.82 8134.00,4061.42
             8109.77,4075.08 8072.56,4093.58 8051.00,4109.63
             8031.53,4124.12 8015.65,4144.22 8000.39,4163.00
             7968.11,4202.72 7944.03,4240.10 7919.69,4285.00
             7914.90,4293.85 7910.25,4301.38 7903.57,4308.99
             7898.03,4315.30 7894.15,4315.39 7891.00,4323.00
             7906.73,4319.19 7917.51,4331.92 7916.49,4347.00
             7915.26,4365.12 7900.85,4380.77 7898.00,4401.00
             7898.00,4401.00 7911.00,4390.00 7911.00,4390.00
             7906.56,4400.32 7896.95,4420.01 7897.47,4431.00
             7897.47,4431.00 7899.00,4439.00 7899.00,4439.00
             7899.00,4439.00 7901.00,4439.00 7901.00,4439.00
             7904.02,4433.35 7909.14,4427.48 7914.00,4423.30
             7916.97,4420.75 7921.80,4417.94 7923.73,4414.82
             7923.73,4414.82 7932.37,4396.00 7932.37,4396.00
             7933.47,4392.12 7932.40,4390.32 7934.21,4386.00
             7937.91,4377.19 7945.21,4369.73 7950.56,4362.00
             7956.52,4353.39 7953.19,4352.23 7955.68,4348.01
             7957.35,4345.18 7970.54,4334.25 7974.00,4330.96
             7982.44,4322.93 7992.65,4312.58 8005.00,4312.04
             8018.03,4311.47 8026.52,4318.96 8027.48,4332.00
             8028.22,4341.98 8021.49,4351.17 8014.96,4358.00
             8014.96,4358.00 7987.00,4383.28 7987.00,4383.28
             7982.44,4387.25 7975.14,4392.98 7972.21,4398.00
             7972.21,4398.00 7952.69,4440.00 7952.69,4440.00
             7952.69,4440.00 7930.43,4487.00 7930.43,4487.00
             7930.43,4487.00 7917.58,4523.00 7917.58,4523.00
             7917.58,4523.00 7901.86,4559.00 7901.86,4559.00
             7901.86,4559.00 7892.42,4583.00 7892.42,4583.00
             7892.42,4583.00 7880.05,4629.00 7880.05,4629.00
             7877.75,4635.16 7873.71,4641.81 7866.00,4640.62
             7858.38,4639.44 7857.03,4633.48 7857.00,4627.00
             7857.00,4627.00 7857.00,4618.00 7857.00,4618.00
             7857.15,4605.75 7863.29,4588.87 7866.98,4577.00
             7866.98,4577.00 7890.81,4506.00 7890.81,4506.00
             7890.81,4506.00 7901.20,4480.00 7901.20,4480.00
             7903.15,4475.13 7905.67,4470.28 7906.00,4465.00
             7906.00,4465.00 7896.42,4482.00 7896.42,4482.00
             7892.18,4489.51 7886.96,4501.53 7879.01,4505.53
             7879.01,4505.53 7874.42,4507.00 7874.42,4507.00
             7870.22,4508.46 7867.89,4512.13 7862.00,4510.35
             7854.27,4508.00 7850.34,4492.01 7846.74,4485.00
             7840.93,4473.67 7833.65,4462.17 7829.75,4450.00
             7824.16,4432.59 7824.79,4416.94 7825.00,4399.00
             7825.00,4399.00 7830.00,4350.00 7830.00,4350.00
             7830.00,4350.00 7831.00,4340.00 7831.00,4340.00
             7831.00,4340.00 7831.00,4331.00 7831.00,4331.00
             7832.03,4317.17 7835.05,4303.04 7839.69,4290.00
             7856.39,4243.13 7882.06,4213.80 7914.00,4177.00
             7904.72,4175.45 7903.04,4170.64 7903.00,4162.00
             7903.00,4162.00 7903.00,4146.00 7903.00,4146.00
             7903.02,4130.22 7907.72,4114.82 7912.67,4100.00
             7916.61,4088.18 7922.80,4071.61 7929.01,4061.00
             7932.72,4054.66 7941.47,4041.68 7947.01,4037.42
             7952.80,4032.96 7955.59,4035.45 7960.00,4033.02
             7965.37,4030.07 7972.22,4020.24 7984.00,4018.32
             7994.18,4016.67 8005.50,4023.23 8008.89,4033.00
             8010.03,4036.28 8010.07,4039.57 8009.99,4043.00
             8009.65,4056.67 7996.76,4064.27 7988.00,4073.00 Z
           M 998.00,4905.00
           C 1000.84,4899.92 1006.08,4897.55 1011.00,4894.77
             1011.00,4894.77 1036.00,4882.00 1036.00,4882.00
             1054.00,4874.23 1073.44,4866.83 1093.00,4864.29
             1093.00,4864.29 1112.00,4862.91 1112.00,4862.91
             1112.00,4862.91 1143.00,4860.17 1143.00,4860.17
             1143.00,4860.17 1157.00,4858.92 1157.00,4858.92
             1187.12,4853.64 1210.58,4841.60 1237.00,4826.86
             1264.66,4811.42 1292.03,4794.38 1318.00,4776.23
             1318.00,4776.23 1365.91,4743.00 1365.91,4743.00
             1365.91,4743.00 1480.00,4658.74 1480.00,4658.74
             1480.00,4658.74 1696.00,4492.51 1696.00,4492.51
             1696.00,4492.51 1736.96,4461.12 1736.96,4461.12
             1736.96,4461.12 1825.00,4392.42 1825.00,4392.42
             1825.00,4392.42 1912.00,4325.50 1912.00,4325.50
             1912.00,4325.50 2037.00,4229.90 2037.00,4229.90
             2037.00,4229.90 2088.83,4191.34 2088.83,4191.34
             2088.83,4191.34 2146.00,4148.63 2146.00,4148.63
             2146.00,4148.63 2179.00,4125.00 2179.00,4125.00
             2179.00,4125.00 2168.03,4164.00 2168.03,4164.00
             2168.03,4164.00 2145.52,4236.00 2145.52,4236.00
             2145.52,4236.00 2127.20,4291.00 2127.20,4291.00
             2107.26,4347.03 2085.06,4402.55 2061.09,4457.00
             2061.09,4457.00 2014.26,4558.00 2014.26,4558.00
             2014.26,4558.00 1994.74,4598.00 1994.74,4598.00
             1994.74,4598.00 1933.44,4712.00 1933.44,4712.00
             1933.44,4712.00 1902.69,4766.00 1902.69,4766.00
             1902.69,4766.00 1838.28,4872.09 1838.28,4872.09
             1807.37,4922.45 1775.18,4971.78 1742.52,5021.00
             1742.52,5021.00 1695.86,5089.17 1695.86,5089.17
             1695.86,5089.17 1635.35,5173.00 1635.35,5173.00
             1635.35,5173.00 1567.53,5260.17 1567.53,5260.17
             1547.08,5284.65 1525.25,5308.77 1499.00,5327.23
             1460.94,5354.01 1415.62,5369.01 1370.00,5376.44
             1362.42,5377.67 1361.92,5379.07 1357.00,5380.30
             1357.00,5380.30 1329.00,5384.00 1329.00,5384.00
             1320.85,5384.04 1316.18,5384.30 1308.00,5382.92
             1308.00,5382.92 1295.00,5380.57 1295.00,5380.57
             1288.70,5381.27 1281.22,5390.02 1289.22,5397.61
             1289.22,5397.61 1334.00,5426.00 1334.00,5426.00
             1334.00,5426.00 1311.00,5436.04 1311.00,5436.04
             1306.00,5437.77 1303.94,5436.14 1299.00,5438.21
             1299.00,5438.21 1257.83,5461.71 1257.83,5461.71
             1257.83,5461.71 1196.00,5497.01 1196.00,5497.01
             1196.00,5497.01 1163.00,5515.85 1163.00,5515.85
             1157.75,5518.78 1151.49,5520.52 1148.28,5526.04
             1146.09,5529.78 1145.92,5535.61 1144.87,5540.00
             1144.87,5540.00 1139.29,5569.00 1139.29,5569.00
             1139.29,5569.00 1138.25,5579.00 1138.25,5579.00
             1138.25,5579.00 1135.06,5597.00 1135.06,5597.00
             1135.06,5597.00 1135.06,5608.00 1135.06,5608.00
             1135.06,5608.00 1131.91,5639.00 1131.91,5639.00
             1131.91,5639.00 1131.00,5651.00 1131.00,5651.00
             1131.00,5651.00 1131.00,5676.00 1131.00,5676.00
             1131.00,5676.00 1131.91,5688.00 1131.91,5688.00
             1131.91,5688.00 1134.72,5717.00 1134.72,5717.00
             1134.72,5717.00 1135.43,5727.00 1135.43,5727.00
             1135.43,5727.00 1139.00,5749.00 1139.00,5749.00
             1126.03,5747.95 1103.82,5742.03 1091.00,5738.20
             1030.44,5720.11 989.65,5693.65 945.00,5649.00
             907.10,5611.10 877.86,5565.77 854.04,5518.00
             831.89,5473.60 815.32,5426.36 804.49,5378.00
             804.49,5378.00 801.67,5368.00 801.67,5368.00
             801.67,5368.00 797.39,5344.00 797.39,5344.00
             797.39,5344.00 791.29,5307.00 791.29,5307.00
             791.29,5307.00 790.72,5296.00 790.72,5296.00
             790.72,5296.00 787.00,5257.00 787.00,5257.00
             787.00,5257.00 787.00,5240.00 787.00,5240.00
             787.00,5240.00 786.00,5225.00 786.00,5225.00
             786.00,5225.00 786.00,5179.00 786.00,5179.00
             786.00,5179.00 787.00,5164.00 787.00,5164.00
             787.00,5164.00 787.00,5141.00 787.00,5141.00
             787.00,5141.00 790.96,5097.00 790.96,5097.00
             791.21,5091.19 791.57,5074.78 794.17,5070.17
             795.89,5067.14 803.80,5062.18 807.00,5059.91
             807.00,5059.91 839.72,5037.58 839.72,5037.58
             839.72,5037.58 907.00,4991.43 907.00,4991.43
             907.00,4991.43 959.00,4955.51 959.00,4955.51
             959.00,4955.51 988.00,4935.62 988.00,4935.62
             996.26,4929.39 994.52,4927.22 997.47,4925.17
             1000.26,4923.22 1008.51,4923.01 1012.00,4923.00
             1006.33,4930.92 1003.80,4930.68 995.86,4943.00
             988.44,4954.51 980.57,4977.45 977.72,4991.00
             975.91,4999.58 972.37,5007.44 980.19,5014.52
             982.14,5016.28 984.34,5017.58 987.00,5017.82
             989.83,5018.06 993.24,5016.72 996.00,5016.00
             993.96,5023.17 992.06,5024.28 990.47,5034.00
             989.27,5041.31 993.11,5056.45 998.00,5062.00
             998.83,5055.65 1002.27,5049.96 1004.47,5044.00
             1008.37,5033.45 1010.92,5022.27 1011.00,5011.00
             1011.02,5007.59 1010.74,5005.36 1013.31,5002.75
             1016.24,4999.78 1024.86,4995.77 1023.29,4990.04
             1022.82,4988.30 1021.43,4986.95 1019.94,4986.02
             1013.51,4982.00 1004.82,4989.05 1000.00,4992.98
             1000.00,4992.98 996.00,4996.00 996.00,4996.00
             996.97,4990.54 998.74,4985.25 1000.49,4980.00
             1005.82,4963.93 1008.09,4955.45 1019.44,4942.00
             1026.91,4933.14 1029.86,4932.39 1036.98,4925.83
             1039.39,4923.61 1042.55,4920.54 1042.38,4917.00
             1042.08,4910.63 1036.16,4908.54 1031.00,4907.58
             1013.44,4904.29 1015.58,4905.00 998.00,4905.00 Z
           M 7898.00,4401.00
           C 7898.00,4401.00 7897.00,4401.00 7897.00,4401.00
             7897.00,4401.00 7898.00,4402.00 7898.00,4402.00
             7898.00,4402.00 7898.00,4401.00 7898.00,4401.00 Z
           M 2753.00,4411.00
           C 2753.00,4411.00 2768.89,4431.00 2768.89,4431.00
             2781.30,4447.12 2795.13,4467.38 2810.00,4480.83
             2810.00,4480.83 2847.00,4508.37 2847.00,4508.37
             2856.81,4516.30 2864.83,4525.83 2876.00,4532.13
             2879.75,4534.24 2886.78,4536.97 2891.00,4537.68
             2896.66,4538.62 2898.52,4536.86 2904.00,4540.53
             2904.00,4540.53 2940.00,4569.79 2940.00,4569.79
             2940.00,4569.79 2961.00,4585.50 2961.00,4585.50
             2981.92,4601.45 3003.45,4617.27 3026.00,4630.87
             3051.67,4646.35 3077.04,4658.64 3105.00,4669.39
             3105.00,4669.39 3136.00,4680.56 3136.00,4680.56
             3140.90,4682.29 3143.39,4682.02 3148.00,4685.00
             3148.00,4685.00 3134.00,4687.04 3134.00,4687.04
             3134.00,4687.04 3125.00,4687.04 3125.00,4687.04
             3125.00,4687.04 3103.00,4690.00 3103.00,4690.00
             3103.00,4690.00 3093.00,4690.00 3093.00,4690.00
             3093.00,4690.00 3051.00,4694.00 3051.00,4694.00
             3051.00,4694.00 3011.00,4697.00 3011.00,4697.00
             3011.00,4697.00 2982.00,4697.00 2982.00,4697.00
             2973.65,4696.99 2965.26,4695.57 2957.00,4694.42
             2928.12,4690.44 2900.01,4682.80 2873.00,4671.70
             2856.25,4664.81 2842.55,4657.03 2829.00,4644.83
             2814.87,4632.12 2797.13,4606.50 2786.77,4590.00
             2771.42,4565.55 2758.17,4544.20 2750.26,4516.00
             2750.26,4516.00 2747.46,4506.00 2747.46,4506.00
             2743.74,4485.89 2744.96,4476.64 2746.83,4457.00
             2746.83,4457.00 2749.39,4434.00 2749.39,4434.00
             2750.76,4426.35 2750.56,4418.38 2753.00,4411.00 Z
           M 7827.00,4598.76
           C 7838.72,4598.42 7835.73,4614.83 7826.00,4616.34
             7819.91,4617.28 7818.15,4610.73 7819.43,4606.00
             7820.56,4601.85 7823.25,4600.18 7827.00,4598.76 Z
           M 7786.00,5008.00
           C 7786.00,5008.00 7786.00,4998.00 7786.00,4998.00
             7786.00,4998.00 7785.18,4986.00 7785.18,4986.00
             7785.18,4986.00 7786.00,4968.00 7786.00,4968.00
             7786.01,4958.88 7788.74,4938.35 7790.42,4929.00
             7796.01,4898.04 7809.92,4857.97 7824.26,4830.00
             7836.48,4806.16 7848.78,4788.86 7863.66,4767.00
             7872.78,4753.59 7890.85,4725.42 7901.01,4715.00
             7907.22,4708.64 7912.55,4702.45 7922.00,4702.04
             7934.06,4701.51 7940.87,4709.33 7941.00,4721.00
             7941.14,4734.92 7934.66,4746.58 7927.31,4758.00
             7927.31,4758.00 7894.66,4806.00 7894.66,4806.00
             7891.35,4810.85 7881.62,4824.26 7879.84,4829.00
             7878.49,4832.60 7879.22,4837.96 7878.83,4842.00
             7878.83,4842.00 7874.99,4862.00 7874.99,4862.00
             7874.99,4862.00 7859.80,4927.00 7859.80,4927.00
             7859.80,4927.00 7854.20,4964.00 7854.20,4964.00
             7852.64,4972.07 7849.55,4982.49 7844.47,4989.00
             7838.34,4996.85 7833.94,4995.40 7833.16,5001.04
             7833.16,5001.04 7835.00,5019.00 7835.00,5019.00
             7835.00,5019.00 7813.00,5012.89 7813.00,5012.89
             7813.00,5012.89 7786.00,5008.00 7786.00,5008.00 Z
           M 8444.00,4981.85
           C 8450.13,4980.53 8455.89,4984.51 8461.00,4987.61
             8461.00,4987.61 8497.00,5012.86 8497.00,5012.86
             8520.29,5029.47 8544.55,5045.61 8570.00,5058.74
             8570.00,5058.74 8600.00,5073.69 8600.00,5073.69
             8600.00,5073.69 8638.00,5091.86 8638.00,5091.86
             8650.82,5099.06 8660.92,5106.41 8670.19,5118.00
             8672.86,5121.34 8679.42,5129.37 8672.85,5132.42
             8670.00,5133.74 8662.34,5133.85 8659.00,5134.17
             8643.58,5135.66 8627.93,5133.63 8613.00,5129.42
             8590.87,5123.18 8565.29,5110.31 8545.00,5099.31
             8517.81,5084.57 8493.17,5068.82 8468.00,5050.86
             8458.00,5043.72 8434.27,5027.55 8427.52,5019.00
             8424.28,5014.90 8418.74,5006.46 8420.61,5001.00
             8421.99,4996.99 8428.59,4992.26 8432.00,4989.65
             8435.80,4986.75 8439.69,4983.94 8444.00,4981.85 Z
           M 6214.00,5605.21
           C 6214.00,5605.21 6220.00,5605.21 6220.00,5605.21
             6264.74,5604.48 6303.24,5630.20 6317.92,5673.00
             6320.59,5680.77 6321.36,5687.93 6322.17,5696.00
             6322.17,5696.00 6322.97,5704.00 6322.97,5704.00
             6322.97,5704.00 6322.17,5712.00 6322.17,5712.00
             6318.33,5750.39 6298.31,5778.52 6263.00,5794.69
             6247.32,5801.87 6230.84,5802.56 6214.00,5804.17
             6214.00,5804.17 6168.00,5808.09 6168.00,5808.09
             6168.00,5808.09 6094.00,5814.83 6094.00,5814.83
             6094.00,5814.83 5993.00,5823.17 5993.00,5823.17
             5993.00,5823.17 5701.00,5848.83 5701.00,5848.83
             5701.00,5848.83 5612.00,5856.17 5612.00,5856.17
             5612.00,5856.17 5504.00,5865.83 5504.00,5865.83
             5504.00,5865.83 5462.00,5869.17 5462.00,5869.17
             5462.00,5869.17 5417.00,5873.17 5417.00,5873.17
             5417.00,5873.17 5396.00,5875.00 5396.00,5875.00
             5339.85,5875.63 5294.76,5831.24 5295.00,5775.00
             5295.04,5765.20 5297.70,5751.22 5301.05,5742.00
             5311.42,5713.48 5334.80,5690.52 5364.00,5681.72
             5380.39,5676.78 5397.15,5676.44 5414.00,5674.83
             5414.00,5674.83 5477.00,5669.17 5477.00,5669.17
             5477.00,5669.17 5508.00,5666.58 5508.00,5666.58
             5508.00,5666.58 5564.00,5661.83 5564.00,5661.83
             5564.00,5661.83 5668.00,5652.83 5668.00,5652.83
             5668.00,5652.83 5750.00,5645.83 5750.00,5645.83
             5750.00,5645.83 6065.00,5618.17 6065.00,5618.17
             6065.00,5618.17 6170.00,5609.17 6170.00,5609.17
             6170.00,5609.17 6204.00,5606.17 6204.00,5606.17
             6204.00,5606.17 6214.00,5605.21 6214.00,5605.21 Z" />
</svg>
