<?xml version="1.0" encoding="UTF-8" standalone="no"?>
<!DOCTYPE svg PUBLIC "-//W3C//DTD SVG 20010904//EN"
              "http://www.w3.org/TR/2001/REC-SVG-20010904/DTD/svg10.dtd">

<svg xmlns="http://www.w3.org/2000/svg"
     width="16in" height="10.4533in"
     viewBox="0 0 9600 6272">
  <path id="Orange Eyes"
        fill="none" stroke="black" stroke-width="1"
        d="M 5822.00,342.21
           C 5822.00,342.21 5828.00,342.21 5828.00,342.21
             5855.32,341.68 5881.10,350.96 5900.91,370.17
             5927.46,395.92 5937.18,439.29 5924.56,474.00
             5914.29,502.27 5901.02,511.89 5879.00,530.25
             5879.00,530.25 5841.00,561.92 5841.00,561.92
             5841.00,561.92 5602.00,761.92 5602.00,761.92
             5602.00,761.92 5486.00,858.92 5486.00,858.92
             5486.00,858.92 5449.00,889.74 5449.00,889.74
             5449.00,889.74 5438.00,898.30 5438.00,898.30
             5438.00,898.30 5316.00,1000.92 5316.00,1000.92
             5316.00,1000.92 5279.00,1031.08 5279.00,1031.08
             5279.00,1031.08 5183.00,1111.59 5183.00,1111.59
             5183.00,1111.59 5152.00,1137.92 5152.00,1137.92
             5152.00,1137.92 5135.00,1151.41 5135.00,1151.41
             5119.12,1164.63 5108.11,1175.03 5088.00,1181.92
             5053.27,1193.84 5010.86,1184.41 4985.17,1157.91
             4965.96,1138.10 4956.68,1112.32 4957.00,1085.00
             4957.29,1060.81 4968.41,1035.37 4985.17,1018.09
             4985.17,1018.09 5010.00,996.93 5010.00,996.93
             5010.00,996.93 5054.00,959.92 5054.00,959.92
             5054.00,959.92 5139.00,889.25 5139.00,889.25
             5139.00,889.25 5615.00,491.59 5615.00,491.59
             5615.00,491.59 5693.00,426.08 5693.00,426.08
             5693.00,426.08 5728.00,397.57 5728.00,397.57
             5749.13,379.51 5771.66,357.01 5798.00,347.44
             5806.12,344.48 5813.59,343.64 5822.00,342.21 Z
           M 7633.00,3707.00
           C 7652.83,3695.76 7682.67,3695.97 7705.00,3696.00
             7705.00,3696.00 7717.00,3696.91 7717.00,3696.91
             7717.00,3696.91 7743.00,3699.30 7743.00,3699.30
             7743.00,3699.30 7774.00,3705.33 7774.00,3705.33
             7774.00,3705.33 7797.00,3710.15 7797.00,3710.15
             7827.66,3718.33 7875.63,3737.14 7903.00,3752.85
             7928.76,3767.64 7948.93,3783.53 7963.23,3810.00
             7965.59,3814.37 7968.25,3819.33 7969.91,3824.00
             7975.15,3838.73 7973.76,3848.26 7975.17,3863.00
             7975.17,3863.00 7978.00,3898.00 7978.00,3898.00
             7977.96,3923.25 7964.54,3951.44 7952.15,3973.00
             7943.75,3987.61 7932.87,3998.40 7919.00,4007.84
             7915.34,4010.33 7911.09,4013.95 7907.00,4015.39
             7902.82,4016.86 7898.37,4016.99 7894.00,4017.00
             7894.00,4017.00 7877.00,4017.00 7877.00,4017.00
             7877.00,4017.00 7847.00,4014.00 7847.00,4014.00
             7847.00,4014.00 7839.00,4014.00 7839.00,4014.00
             7839.00,4014.00 7826.00,4011.44 7826.00,4011.44
             7826.00,4011.44 7818.00,4010.54 7818.00,4010.54
             7818.00,4010.54 7793.00,4004.52 7793.00,4004.52
             7793.00,4004.52 7782.00,4003.39 7782.00,4003.39
             7782.00,4003.39 7774.00,4000.56 7774.00,4000.56
             7748.53,3992.60 7723.26,3982.24 7699.00,3971.16
             7670.66,3958.21 7637.35,3940.13 7620.50,3912.99
             7614.10,3902.68 7607.34,3885.97 7605.32,3874.00
             7605.32,3874.00 7604.00,3862.00 7604.00,3862.00
             7604.00,3862.00 7602.32,3839.00 7602.32,3839.00
             7602.32,3839.00 7603.00,3827.00 7603.00,3827.00
             7603.00,3827.00 7604.72,3811.00 7604.72,3811.00
             7604.72,3811.00 7605.29,3803.00 7605.29,3803.00
             7607.55,3785.65 7614.21,3760.73 7619.75,3744.00
             7619.75,3744.00 7627.33,3723.00 7627.33,3723.00
             7628.99,3719.06 7632.89,3710.91 7633.00,3707.00 Z
           M 7832.00,4618.00
           C 7828.59,4627.09 7817.48,4627.48 7811.09,4630.65
             7806.49,4632.93 7803.38,4639.76 7791.00,4645.29
             7791.00,4645.29 7765.00,4654.95 7765.00,4654.95
             7765.00,4654.95 7755.43,4658.01 7755.43,4658.01
             7753.11,4659.68 7752.80,4663.39 7751.90,4666.00
             7751.90,4666.00 7747.09,4678.00 7747.09,4678.00
             7747.09,4678.00 7744.96,4687.00 7744.96,4687.00
             7740.84,4700.86 7732.72,4708.39 7720.00,4714.73
             7697.91,4725.75 7664.19,4729.29 7641.00,4720.08
             7635.00,4717.69 7628.40,4713.14 7623.00,4709.51
             7621.19,4708.29 7616.71,4704.85 7614.83,4704.46
             7609.33,4703.31 7602.93,4711.87 7598.91,4715.11
             7590.61,4721.79 7580.70,4725.87 7570.00,4726.00
             7564.31,4726.06 7558.57,4725.74 7553.00,4724.49
             7542.29,4722.09 7516.73,4709.95 7508.00,4703.34
             7501.09,4698.09 7491.43,4685.50 7486.00,4683.40
             7469.17,4676.89 7468.26,4686.71 7443.00,4687.00
             7432.02,4687.12 7419.35,4684.50 7410.00,4678.60
             7406.39,4676.33 7401.67,4673.02 7399.94,4668.99
             7398.32,4665.22 7399.87,4661.76 7400.54,4658.00
             7400.54,4658.00 7401.46,4650.00 7401.46,4650.00
             7401.46,4650.00 7403.87,4640.00 7403.87,4640.00
             7403.87,4640.00 7408.75,4618.00 7408.75,4618.00
             7412.78,4602.82 7419.42,4583.42 7425.58,4569.00
             7437.77,4540.48 7456.21,4511.40 7481.04,4492.37
             7496.60,4480.45 7512.98,4473.56 7532.00,4469.49
             7543.76,4466.98 7542.10,4466.15 7555.00,4466.00
             7555.00,4466.00 7575.00,4465.00 7575.00,4465.00
             7575.00,4465.00 7588.00,4466.00 7588.00,4466.00
             7603.82,4466.18 7624.89,4471.46 7640.00,4476.41
             7657.29,4482.08 7668.70,4487.21 7685.00,4495.00
             7689.78,4497.28 7700.28,4501.80 7703.00,4506.00
             7707.87,4506.65 7711.92,4509.86 7716.00,4512.50
             7716.00,4512.50 7740.00,4528.85 7740.00,4528.85
             7756.66,4541.07 7782.04,4562.16 7795.91,4577.00
             7795.91,4577.00 7818.85,4602.42 7818.85,4602.42
             7823.65,4608.08 7826.14,4612.75 7832.00,4618.00 Z
           M 6211.00,5605.42
           C 6268.40,5598.43 6322.31,5642.23 6323.00,5701.00
             6323.13,5712.15 6321.77,5723.29 6318.56,5734.00
             6316.43,5741.12 6310.75,5752.81 6306.64,5759.00
             6303.02,5764.46 6296.85,5772.30 6291.99,5776.57
             6281.29,5785.96 6268.63,5793.88 6255.00,5798.25
             6236.69,5804.13 6201.34,5805.22 6181.00,5807.17
             6181.00,5807.17 6119.00,5812.91 6119.00,5812.91
             6119.00,5812.91 5993.00,5823.83 5993.00,5823.83
             5993.00,5823.83 5962.00,5826.17 5962.00,5826.17
             5962.00,5826.17 5866.00,5834.83 5866.00,5834.83
             5866.00,5834.83 5835.00,5837.17 5835.00,5837.17
             5835.00,5837.17 5657.00,5852.83 5657.00,5852.83
             5657.00,5852.83 5626.00,5855.17 5626.00,5855.17
             5626.00,5855.17 5530.00,5863.83 5530.00,5863.83
             5530.00,5863.83 5476.00,5868.17 5476.00,5868.17
             5476.00,5868.17 5419.00,5873.17 5419.00,5873.17
             5419.00,5873.17 5397.00,5875.00 5397.00,5875.00
             5385.22,5875.02 5373.21,5873.77 5362.00,5869.92
             5319.57,5855.37 5294.49,5817.25 5295.00,5773.00
             5295.49,5731.78 5323.31,5695.35 5362.00,5682.08
             5381.79,5675.29 5413.55,5674.88 5435.00,5672.83
             5435.00,5672.83 5531.00,5664.17 5531.00,5664.17
             5531.00,5664.17 5586.00,5659.72 5586.00,5659.72
             5586.00,5659.72 5608.00,5657.83 5608.00,5657.83
             5608.00,5657.83 5689.00,5650.83 5689.00,5650.83
             5689.00,5650.83 5792.00,5641.83 5792.00,5641.83
             5792.00,5641.83 5833.00,5638.09 5833.00,5638.09
             5833.00,5638.09 5912.00,5631.17 5912.00,5631.17
             5912.00,5631.17 5943.00,5628.83 5943.00,5628.83
             5943.00,5628.83 6074.00,5617.17 6074.00,5617.17
             6074.00,5617.17 6105.00,5614.83 6105.00,5614.83
             6105.00,5614.83 6166.00,5609.17 6166.00,5609.17
             6166.00,5609.17 6201.00,5606.17 6201.00,5606.17
             6201.00,5606.17 6211.00,5605.42 6211.00,5605.42 Z" />
</svg>
