<?xml version="1.0" encoding="UTF-8" standalone="no"?>
<!DOCTYPE svg PUBLIC "-//W3C//DTD SVG 20010904//EN"
              "http://www.w3.org/TR/2001/REC-SVG-20010904/DTD/svg10.dtd">

<svg xmlns="http://www.w3.org/2000/svg"
     width="16in" height="10.4533in"
     viewBox="0 0 9600 6272">
  <path id="Orange"
        fill="none" stroke="black" stroke-width="1"
        d="M 5823.00,342.42
           C 5833.14,341.19 5845.10,342.71 5855.00,345.13
             5869.27,348.61 5882.62,355.13 5894.00,364.46
             5934.84,397.95 5941.65,459.36 5909.34,501.00
             5895.62,518.67 5862.40,543.91 5844.00,559.25
             5844.00,559.25 5756.00,632.92 5756.00,632.92
             5756.00,632.92 5719.00,663.43 5719.00,663.43
             5719.00,663.43 5559.00,797.08 5559.00,797.08
             5559.00,797.08 5286.00,1025.08 5286.00,1025.08
             5286.00,1025.08 5149.00,1139.61 5149.00,1139.61
             5149.00,1139.61 5111.00,1170.30 5111.00,1170.30
             5095.63,1180.18 5081.95,1184.37 5064.00,1186.17
             5064.00,1186.17 5056.00,1186.97 5056.00,1186.97
             5045.94,1186.97 5030.33,1184.16 5021.00,1180.40
             5007.53,1174.96 4994.04,1166.65 4984.09,1156.00
             4948.78,1118.22 4948.56,1060.79 4982.29,1022.00
             4989.72,1013.45 4999.29,1006.19 5008.00,998.92
             5008.00,998.92 5049.00,964.59 5049.00,964.59
             5049.00,964.59 5176.00,858.58 5176.00,858.58
             5176.00,858.58 5248.00,798.25 5248.00,798.25
             5248.00,798.25 5278.00,773.57 5278.00,773.57
             5278.00,773.57 5414.00,659.92 5414.00,659.92
             5414.00,659.92 5583.00,518.75 5583.00,518.75
             5583.00,518.75 5723.00,401.92 5723.00,401.92
             5739.44,388.21 5769.27,360.90 5787.00,352.26
             5799.94,345.95 5809.08,344.44 5823.00,342.42 Z
           M 7868.00,2939.00
           C 7879.98,2939.04 7890.37,2941.27 7902.00,2943.39
             7935.40,2949.46 7967.02,2961.46 7998.00,2975.14
             8032.84,2990.53 8066.83,3005.93 8097.00,3029.72
             8097.00,3029.72 8128.00,3055.13 8128.00,3055.13
             8128.00,3055.13 8148.00,3072.35 8148.00,3072.35
             8152.38,3075.71 8162.35,3084.89 8167.85,3080.53
             8174.63,3075.16 8167.06,3063.34 8164.80,3057.00
             8159.23,3041.43 8154.82,3026.44 8152.72,3010.00
             8152.10,3005.21 8149.75,2997.40 8151.00,2993.00
             8151.00,2993.00 8159.48,3010.00 8159.48,3010.00
             8167.29,3024.80 8180.01,3043.60 8191.17,3056.00
             8216.38,3084.01 8252.94,3111.28 8288.00,3125.55
             8308.61,3133.94 8330.35,3138.82 8352.00,3143.51
             8352.00,3143.51 8363.00,3146.33 8363.00,3146.33
             8363.00,3146.33 8371.00,3147.46 8371.00,3147.46
             8371.00,3147.46 8385.00,3150.54 8385.00,3150.54
             8385.00,3150.54 8393.00,3151.44 8393.00,3151.44
             8393.00,3151.44 8406.00,3153.94 8406.00,3153.94
             8406.00,3153.94 8415.00,3153.94 8415.00,3153.94
             8415.00,3153.94 8430.00,3155.96 8430.00,3155.96
             8430.00,3155.96 8448.00,3155.96 8448.00,3155.96
             8446.04,3162.87 8438.85,3169.60 8434.16,3175.00
             8434.16,3175.00 8420.09,3193.00 8420.09,3193.00
             8406.85,3209.41 8387.30,3238.70 8376.09,3257.00
             8376.09,3257.00 8361.48,3281.00 8361.48,3281.00
             8359.75,3283.96 8358.11,3287.86 8353.98,3287.04
             8353.98,3287.04 8339.00,3279.75 8339.00,3279.75
             8339.00,3279.75 8304.00,3262.00 8304.00,3262.00
             8304.00,3262.00 8261.00,3241.48 8261.00,3241.48
             8261.00,3241.48 8236.00,3230.56 8236.00,3230.56
             8236.00,3230.56 8179.00,3206.74 8179.00,3206.74
             8124.74,3186.00 8069.79,3167.81 8013.00,3155.49
             8013.00,3155.49 8002.00,3152.66 8002.00,3152.66
             8002.00,3152.66 7956.00,3144.57 7956.00,3144.57
             7956.00,3144.57 7942.17,3141.77 7942.17,3141.77
             7942.17,3141.77 7934.99,3141.77 7934.99,3141.77
             7934.99,3141.77 7911.00,3138.00 7911.00,3138.00
             7911.00,3138.00 7900.00,3138.00 7900.00,3138.00
             7900.00,3138.00 7867.00,3135.00 7867.00,3135.00
             7867.00,3135.00 7850.00,3134.00 7850.00,3134.00
             7850.00,3134.00 7816.00,3134.00 7816.00,3134.00
             7816.00,3134.00 7797.00,3135.00 7797.00,3135.00
             7797.00,3135.00 7765.00,3138.00 7765.00,3138.00
             7765.00,3138.00 7755.00,3138.00 7755.00,3138.00
             7755.00,3138.00 7730.04,3141.54 7730.04,3141.54
             7730.04,3141.54 7721.96,3142.12 7721.96,3142.12
             7721.96,3142.12 7708.00,3144.57 7708.00,3144.57
             7708.00,3144.57 7652.00,3154.99 7652.00,3154.99
             7558.18,3175.32 7470.00,3207.70 7383.00,3248.12
             7383.00,3248.12 7304.00,3287.31 7304.00,3287.31
             7269.69,3305.87 7236.16,3325.90 7204.09,3348.14
             7204.09,3348.14 7175.00,3369.61 7175.00,3369.61
             7169.20,3374.30 7163.13,3380.63 7156.00,3383.00
             7156.00,3383.00 7167.94,3348.00 7167.94,3348.00
             7167.94,3348.00 7188.25,3286.00 7188.25,3286.00
             7188.25,3286.00 7199.74,3241.00 7199.74,3241.00
             7199.74,3241.00 7213.08,3197.00 7213.08,3197.00
             7213.08,3197.00 7220.11,3172.00 7220.11,3172.00
             7220.11,3172.00 7226.35,3144.00 7226.35,3144.00
             7227.91,3137.19 7227.17,3128.37 7232.14,3123.62
             7232.14,3123.62 7241.00,3116.72 7241.00,3116.72
             7241.00,3116.72 7251.00,3108.62 7251.00,3108.62
             7259.64,3102.58 7274.88,3096.87 7285.00,3093.49
             7285.00,3093.49 7294.00,3090.52 7294.00,3090.52
             7300.84,3089.09 7303.56,3092.64 7316.00,3089.49
             7316.00,3089.49 7359.00,3073.95 7359.00,3073.95
             7359.00,3073.95 7441.00,3046.43 7441.00,3046.43
             7441.00,3046.43 7495.00,3029.57 7495.00,3029.57
             7523.25,3021.06 7552.22,3013.77 7581.00,3007.34
             7581.00,3007.34 7591.00,3004.67 7591.00,3004.67
             7591.00,3004.67 7613.00,3000.34 7613.00,3000.34
             7613.00,3000.34 7625.00,2997.46 7625.00,2997.46
             7625.00,2997.46 7653.00,2992.96 7653.00,2992.96
             7653.00,2992.96 7667.00,2990.29 7667.00,2990.29
             7667.00,2990.29 7675.00,2989.72 7675.00,2989.72
             7675.00,2989.72 7706.00,2985.96 7706.00,2985.96
             7706.00,2985.96 7719.00,2985.96 7719.00,2985.96
             7719.00,2985.96 7729.00,2985.00 7729.00,2985.00
             7729.00,2985.00 7761.00,2985.00 7761.00,2985.00
             7761.00,2985.00 7773.00,2985.96 7773.00,2985.96
             7773.00,2985.96 7790.00,2985.96 7790.00,2985.96
             7790.00,2985.96 7827.00,2989.72 7827.00,2989.72
             7827.00,2989.72 7838.00,2990.29 7838.00,2990.29
             7838.00,2990.29 7875.00,2996.39 7875.00,2996.39
             7875.00,2996.39 7910.00,3003.34 7910.00,3003.34
             7910.00,3003.34 7920.00,3005.29 7920.00,3005.29
             7920.00,3005.29 7947.00,3011.65 7947.00,3011.65
             7953.54,3013.20 7956.91,3015.36 7964.00,3014.96
             7967.97,3014.73 7972.97,3013.03 7971.63,3008.00
             7969.88,3001.46 7953.84,2990.46 7948.00,2986.15
             7931.45,2973.94 7914.14,2963.33 7896.00,2953.64
             7889.52,2950.18 7872.11,2942.96 7868.00,2939.00 Z
           M 6991.00,3716.00
           C 6993.85,3694.45 7008.06,3648.53 7015.58,3627.00
             7036.74,3566.37 7064.02,3509.50 7105.56,3460.00
             7105.56,3460.00 7127.17,3435.09 7127.17,3435.09
             7134.58,3427.51 7137.36,3430.13 7141.78,3425.77
             7145.87,3421.73 7144.32,3418.77 7150.05,3413.17
             7162.46,3401.04 7183.74,3384.78 7198.00,3374.11
             7239.89,3342.74 7280.23,3320.20 7326.00,3295.53
             7326.00,3295.53 7376.00,3270.70 7376.00,3270.70
             7433.57,3243.37 7498.07,3216.13 7559.00,3197.57
             7559.00,3197.57 7588.00,3189.23 7588.00,3189.23
             7588.00,3189.23 7623.00,3179.50 7623.00,3179.50
             7623.00,3179.50 7643.00,3175.11 7643.00,3175.11
             7668.50,3169.24 7694.03,3163.95 7720.00,3160.71
             7720.00,3160.71 7736.00,3158.00 7736.00,3158.00
             7736.00,3158.00 7744.00,3158.00 7744.00,3158.00
             7744.00,3158.00 7778.00,3153.96 7778.00,3153.96
             7778.00,3153.96 7792.00,3153.96 7792.00,3153.96
             7792.00,3153.96 7802.00,3153.00 7802.00,3153.00
             7802.00,3153.00 7844.00,3152.00 7844.00,3152.00
             7844.00,3152.00 7859.00,3153.00 7859.00,3153.00
             7859.00,3153.00 7886.00,3154.00 7886.00,3154.00
             7886.00,3154.00 7922.00,3158.06 7922.00,3158.06
             7922.00,3158.06 7930.00,3158.06 7930.00,3158.06
             7930.00,3158.06 7945.00,3160.71 7945.00,3160.71
             7945.00,3160.71 7953.00,3161.44 7953.00,3161.44
             7953.00,3161.44 7968.00,3164.56 7968.00,3164.56
             8028.88,3174.37 8105.51,3196.66 8163.00,3219.25
             8163.00,3219.25 8219.00,3242.14 8219.00,3242.14
             8267.69,3262.44 8318.45,3287.96 8365.00,3312.88
             8365.00,3312.88 8385.00,3324.12 8385.00,3324.12
             8385.00,3324.12 8441.00,3355.66 8441.00,3355.66
             8446.95,3359.20 8459.68,3365.68 8464.00,3370.00
             8464.00,3370.00 8445.00,3366.46 8445.00,3366.46
             8445.00,3366.46 8437.00,3365.56 8437.00,3365.56
             8437.00,3365.56 8425.00,3363.29 8425.00,3363.29
             8425.00,3363.29 8417.00,3362.72 8417.00,3362.72
             8417.00,3362.72 8383.00,3359.00 8383.00,3359.00
             8383.00,3359.00 8346.00,3359.00 8346.00,3359.00
             8346.00,3359.00 8312.00,3362.71 8312.00,3362.71
             8312.00,3362.71 8304.00,3363.29 8304.00,3363.29
             8304.00,3363.29 8292.00,3365.56 8292.00,3365.56
             8292.00,3365.56 8235.00,3377.75 8235.00,3377.75
             8235.00,3377.75 8207.00,3385.21 8207.00,3385.21
             8207.00,3385.21 8181.00,3392.00 8181.00,3392.00
             8178.11,3379.90 8171.14,3379.69 8162.00,3374.81
             8162.00,3374.81 8143.00,3364.25 8143.00,3364.25
             8120.89,3353.11 8101.22,3348.18 8077.00,3344.25
             8077.00,3344.25 8057.00,3341.00 8057.00,3341.00
             8057.00,3341.00 8046.00,3341.00 8046.00,3341.00
             8046.00,3341.00 8019.00,3339.00 8019.00,3339.00
             8019.00,3339.00 8003.00,3338.00 8003.00,3338.00
             8003.00,3338.00 7946.00,3338.00 7946.00,3338.00
             7946.00,3338.00 7931.00,3339.00 7931.00,3339.00
             7931.00,3339.00 7905.00,3341.04 7905.00,3341.04
             7905.00,3341.04 7895.00,3341.04 7895.00,3341.04
             7863.85,3344.14 7833.35,3351.29 7803.00,3358.50
             7772.58,3365.73 7742.49,3374.01 7713.00,3384.54
             7713.00,3384.54 7647.00,3412.56 7647.00,3412.56
             7647.00,3412.56 7572.00,3445.94 7572.00,3445.94
             7572.00,3445.94 7545.00,3461.09 7545.00,3461.09
             7545.00,3461.09 7519.00,3478.00 7519.00,3478.00
             7519.00,3478.00 7524.00,3465.00 7524.00,3465.00
             7496.23,3482.33 7484.23,3503.28 7467.47,3530.00
             7439.57,3574.48 7422.87,3620.33 7414.56,3672.00
             7414.56,3672.00 7412.29,3684.00 7412.29,3684.00
             7412.29,3684.00 7411.71,3692.00 7411.71,3692.00
             7411.71,3692.00 7409.27,3705.00 7409.27,3705.00
             7409.27,3705.00 7407.72,3720.00 7407.72,3720.00
             7405.40,3739.28 7405.00,3735.45 7405.00,3756.00
             7401.34,3753.27 7400.04,3748.13 7398.40,3744.00
             7394.40,3733.93 7390.74,3723.64 7388.69,3713.00
             7388.69,3713.00 7385.44,3699.00 7385.44,3699.00
             7385.44,3699.00 7384.72,3690.00 7384.72,3690.00
             7380.28,3652.66 7384.19,3620.46 7396.50,3585.00
             7401.60,3570.32 7409.29,3557.67 7416.41,3544.00
             7418.80,3539.40 7423.15,3532.10 7419.40,3527.15
             7414.50,3520.69 7409.37,3528.80 7405.00,3530.98
             7402.00,3532.48 7399.25,3531.53 7393.00,3534.35
             7385.06,3537.92 7369.68,3550.57 7362.00,3556.34
             7362.00,3556.34 7323.00,3583.23 7323.00,3583.23
             7301.72,3597.59 7281.78,3614.41 7262.00,3630.75
             7217.15,3667.82 7184.93,3698.40 7153.54,3748.00
             7141.63,3766.83 7130.81,3786.95 7121.10,3807.00
             7121.10,3807.00 7108.96,3833.00 7108.96,3833.00
             7108.96,3833.00 7097.99,3858.00 7097.99,3858.00
             7096.06,3862.39 7095.19,3866.31 7092.00,3870.00
             7092.00,3870.00 7092.00,3851.00 7092.00,3851.00
             7092.00,3851.00 7095.83,3810.00 7095.83,3810.00
             7101.27,3753.15 7115.51,3706.58 7139.94,3655.00
             7147.75,3638.51 7161.77,3613.49 7171.53,3598.00
             7179.17,3585.88 7192.55,3567.73 7197.00,3555.00
             7191.84,3551.72 7191.21,3548.61 7181.00,3556.92
             7178.36,3559.08 7173.36,3564.92 7170.00,3562.00
             7164.16,3565.04 7157.93,3567.69 7153.11,3572.30
             7148.68,3576.53 7149.63,3578.84 7144.27,3582.30
             7144.27,3582.30 7136.00,3586.72 7136.00,3586.72
             7136.00,3586.72 7128.00,3593.56 7128.00,3593.56
             7128.00,3593.56 7114.00,3604.25 7114.00,3604.25
             7092.30,3619.84 7070.78,3635.85 7052.01,3655.00
             7052.01,3655.00 7043.91,3664.00 7043.91,3664.00
             7043.91,3664.00 7032.25,3676.09 7032.25,3676.09
             7032.25,3676.09 7021.96,3688.00 7021.96,3688.00
             7021.96,3688.00 7002.17,3706.20 7002.17,3706.20
             6997.53,3710.40 6996.60,3712.17 6991.00,3716.00 Z
           M 8122.00,3437.00
           C 8124.25,3433.53 8127.36,3432.83 8131.00,3431.01
             8131.00,3431.01 8153.00,3421.57 8153.00,3421.57
             8181.87,3409.28 8214.49,3399.71 8245.00,3392.50
             8245.00,3392.50 8285.00,3383.46 8285.00,3383.46
             8285.00,3383.46 8294.00,3382.39 8294.00,3382.39
             8294.00,3382.39 8310.00,3379.29 8310.00,3379.29
             8310.00,3379.29 8319.00,3378.72 8319.00,3378.72
             8319.00,3378.72 8345.00,3376.00 8345.00,3376.00
             8345.00,3376.00 8365.00,3375.01 8365.00,3375.01
             8365.00,3375.01 8383.00,3376.00 8383.00,3376.00
             8398.38,3376.18 8420.55,3380.08 8436.00,3382.56
             8464.33,3387.12 8492.68,3393.62 8520.00,3402.48
             8559.24,3415.22 8590.79,3428.97 8625.00,3452.49
             8638.57,3461.83 8649.12,3469.26 8661.00,3481.00
             8724.99,3544.25 8764.92,3623.84 8798.91,3706.00
             8825.28,3769.75 8848.51,3837.50 8862.66,3905.00
             8862.66,3905.00 8869.54,3936.00 8869.54,3936.00
             8869.54,3936.00 8873.44,3962.00 8873.44,3962.00
             8873.44,3962.00 8880.06,4005.00 8880.06,4005.00
             8880.06,4005.00 8880.06,4016.00 8880.06,4016.00
             8880.06,4016.00 8884.00,4054.00 8884.00,4054.00
             8884.00,4054.00 8884.00,4138.00 8884.00,4138.00
             8884.00,4138.00 8876.56,4207.00 8876.56,4207.00
             8876.56,4207.00 8873.44,4223.00 8873.44,4223.00
             8873.44,4223.00 8865.54,4269.00 8865.54,4269.00
             8865.54,4269.00 8862.46,4283.00 8862.46,4283.00
             8862.46,4283.00 8858.70,4310.00 8858.70,4310.00
             8858.70,4310.00 8856.27,4323.00 8856.27,4323.00
             8856.27,4323.00 8852.91,4356.00 8852.91,4356.00
             8852.91,4356.00 8852.00,4366.00 8852.00,4366.00
             8852.00,4366.00 8852.00,4401.00 8852.00,4401.00
             8852.02,4413.19 8855.80,4437.60 8858.20,4450.00
             8858.20,4450.00 8862.51,4472.00 8862.51,4472.00
             8862.51,4472.00 8865.25,4481.00 8865.25,4481.00
             8872.04,4506.51 8881.45,4530.50 8893.53,4554.00
             8907.55,4581.28 8928.34,4610.54 8954.00,4627.91
             8965.47,4635.67 8985.10,4642.83 8999.00,4643.00
             9004.06,4643.06 9012.54,4642.23 9017.00,4644.00
             9006.57,4647.63 8989.92,4651.98 8979.00,4652.00
             8979.00,4652.00 8963.00,4652.00 8963.00,4652.00
             8954.37,4651.99 8950.22,4650.83 8942.00,4648.88
             8917.95,4643.17 8898.02,4633.59 8879.00,4617.56
             8869.11,4609.23 8862.82,4601.12 8855.12,4591.00
             8847.86,4581.47 8841.51,4571.41 8835.58,4561.00
             8833.93,4558.10 8828.80,4548.79 8828.28,4546.00
             8828.28,4546.00 8829.00,4531.00 8829.00,4531.00
             8829.00,4531.00 8829.00,4502.00 8829.00,4502.00
             8829.00,4502.00 8825.28,4471.00 8825.28,4471.00
             8824.17,4462.31 8821.30,4443.54 8818.00,4436.00
             8818.00,4479.53 8814.96,4535.69 8801.48,4577.00
             8785.55,4625.82 8757.89,4669.07 8727.48,4710.00
             8671.62,4785.17 8612.33,4842.48 8541.00,4902.56
             8541.00,4902.56 8499.00,4936.63 8499.00,4936.63
             8499.00,4936.63 8490.00,4943.20 8490.00,4943.20
             8487.17,4944.88 8485.92,4944.95 8483.00,4947.27
             8483.00,4947.27 8463.00,4964.57 8463.00,4964.57
             8463.00,4964.57 8436.96,4984.85 8436.96,4984.85
             8413.20,5002.96 8386.16,5021.30 8365.42,5042.80
             8343.77,5065.26 8333.92,5079.71 8316.64,5105.00
             8310.91,5113.38 8307.17,5112.87 8304.45,5118.04
             8302.81,5121.16 8303.20,5124.73 8302.03,5128.00
             8302.03,5128.00 8296.98,5138.00 8296.98,5138.00
             8296.98,5138.00 8293.42,5149.00 8293.42,5149.00
             8293.42,5149.00 8284.86,5168.00 8284.86,5168.00
             8279.15,5181.81 8272.07,5203.38 8269.46,5218.00
             8269.46,5218.00 8266.00,5248.00 8266.00,5248.00
             8265.49,5291.78 8282.69,5336.07 8310.00,5369.99
             8326.31,5390.25 8347.03,5407.01 8370.00,5419.11
             8370.00,5419.11 8399.00,5431.00 8399.00,5431.00
             8399.00,5431.00 8384.00,5432.00 8384.00,5432.00
             8384.00,5432.00 8347.00,5432.00 8347.00,5432.00
             8347.00,5432.00 8315.00,5430.00 8315.00,5430.00
             8297.84,5429.97 8271.52,5425.95 8254.00,5423.43
             8254.00,5423.43 8246.00,5422.71 8246.00,5422.71
             8246.00,5422.71 8233.00,5420.25 8233.00,5420.25
             8233.00,5420.25 8211.00,5416.45 8211.00,5416.45
             8211.00,5416.45 8193.00,5412.76 8193.00,5412.76
             8183.10,5409.31 8163.18,5397.17 8154.00,5391.14
             8131.54,5376.37 8110.39,5356.25 8098.27,5332.00
             8095.20,5325.87 8093.05,5319.47 8090.86,5313.00
             8090.86,5313.00 8085.30,5289.02 8085.30,5289.02
             8083.70,5285.36 8080.15,5282.59 8076.00,5283.47
             8068.41,5285.08 8068.50,5291.92 8069.17,5298.00
             8070.22,5307.51 8077.19,5328.04 8081.31,5337.00
             8096.48,5370.01 8128.38,5396.45 8159.00,5414.69
             8159.00,5414.69 8197.00,5435.00 8197.00,5435.00
             8197.00,5435.00 8155.00,5430.43 8155.00,5430.43
             8127.16,5426.39 8099.23,5419.85 8073.00,5409.45
             8060.98,5404.68 8039.27,5395.78 8029.01,5388.76
             8022.04,5383.99 8024.61,5382.32 8020.59,5377.00
             8020.59,5377.00 8002.00,5357.43 8002.00,5357.43
             7995.50,5352.71 7992.93,5357.88 7989.00,5358.01
             7986.20,5358.11 7983.89,5355.73 7982.00,5353.96
             7961.59,5334.85 7946.07,5311.36 7932.70,5287.00
             7916.77,5257.99 7902.94,5226.51 7892.74,5195.00
             7892.74,5195.00 7884.25,5162.00 7884.25,5162.00
             7884.25,5162.00 7868.17,5106.01 7868.17,5106.01
             7868.17,5106.01 7863.54,5083.00 7863.54,5083.00
             7863.54,5083.00 7857.46,5054.00 7857.46,5054.00
             7857.46,5054.00 7856.54,5046.00 7856.54,5046.00
             7856.54,5046.00 7850.26,5013.00 7850.26,5013.00
             7850.26,5013.00 7853.06,4983.00 7853.06,4983.00
             7853.06,4983.00 7853.06,4975.00 7853.06,4975.00
             7853.06,4975.00 7856.54,4959.00 7856.54,4959.00
             7860.97,4934.44 7867.31,4910.90 7874.43,4887.00
             7884.87,4851.97 7894.69,4816.21 7910.32,4783.00
             7910.32,4783.00 7932.50,4746.00 7932.50,4746.00
             7932.50,4746.00 7939.73,4730.00 7939.73,4730.00
             7939.73,4730.00 7948.58,4714.00 7948.58,4714.00
             7950.28,4710.84 7953.08,4703.74 7955.41,4701.70
             7957.50,4699.88 7965.96,4697.08 7969.00,4695.95
             7969.00,4695.95 7989.00,4687.00 7989.00,4687.00
             7976.60,4680.84 7959.84,4682.49 7947.00,4686.44
             7929.97,4691.66 7913.90,4699.43 7901.01,4712.04
             7887.02,4725.74 7877.94,4743.35 7866.51,4759.00
             7844.78,4788.76 7819.82,4808.03 7785.00,4820.08
             7773.63,4824.01 7761.12,4827.85 7749.00,4828.00
             7725.89,4828.27 7710.91,4821.21 7691.00,4810.47
             7691.00,4810.47 7679.00,4804.00 7679.00,4804.00
             7684.20,4803.50 7694.25,4805.79 7700.00,4806.79
             7700.00,4806.79 7719.00,4806.79 7719.00,4806.79
             7725.08,4806.93 7731.06,4805.59 7737.00,4804.40
             7756.53,4800.50 7771.97,4796.19 7789.00,4785.14
             7813.00,4769.56 7829.46,4743.96 7842.26,4719.00
             7858.62,4687.07 7872.03,4654.11 7885.74,4621.00
             7885.74,4621.00 7910.43,4561.00 7910.43,4561.00
             7910.43,4561.00 7949.68,4474.00 7949.68,4474.00
             7964.45,4442.70 7991.17,4388.44 8010.09,4361.00
             8010.09,4361.00 8020.45,4348.72 8020.45,4348.72
             8020.45,4348.72 8027.65,4335.00 8027.65,4335.00
             8027.65,4335.00 8038.70,4318.91 8038.70,4318.91
             8038.70,4318.91 8044.68,4308.39 8044.68,4308.39
             8046.96,4305.80 8054.67,4301.98 8058.00,4300.14
             8058.00,4300.14 8087.00,4285.04 8087.00,4285.04
             8119.32,4268.88 8153.05,4256.12 8187.00,4243.86
             8187.00,4243.86 8228.00,4230.00 8228.00,4230.00
             8228.00,4230.00 8217.00,4230.91 8217.00,4230.91
             8192.85,4232.56 8169.33,4234.54 8146.00,4241.57
             8122.23,4248.73 8099.22,4259.84 8077.00,4270.74
             8058.00,4280.07 8038.79,4290.00 8021.00,4301.50
             8021.00,4301.50 8006.00,4311.00 8006.00,4311.00
             8001.88,4313.07 7997.30,4313.73 7992.17,4316.90
             7987.81,4319.59 7981.05,4326.08 7977.00,4329.58
             7974.09,4332.09 7964.24,4340.07 7963.22,4343.00
             7961.85,4346.06 7964.01,4348.07 7963.22,4352.00
             7962.54,4357.23 7957.56,4360.54 7954.00,4364.01
             7947.75,4370.12 7941.47,4376.84 7936.44,4384.00
             7932.07,4390.23 7928.51,4398.51 7927.09,4406.00
             7927.09,4406.00 7925.26,4419.96 7925.26,4419.96
             7923.19,4425.05 7917.79,4425.76 7913.00,4426.00
             7912.56,4433.79 7909.59,4438.69 7901.00,4437.89
             7898.83,4437.69 7897.00,4437.15 7895.21,4435.85
             7891.67,4433.29 7888.15,4423.31 7888.26,4419.00
             7888.39,4413.95 7893.67,4400.46 7895.49,4395.00
             7895.49,4395.00 7900.14,4380.05 7900.14,4380.05
             7902.45,4376.09 7905.17,4376.25 7907.36,4371.95
             7907.36,4371.95 7909.61,4366.00 7909.61,4366.00
             7914.93,4352.43 7915.05,4352.60 7916.09,4338.00
             7916.09,4338.00 7917.49,4325.96 7917.49,4325.96
             7918.25,4320.33 7920.73,4314.92 7915.77,4310.30
             7914.12,4308.76 7912.26,4307.99 7910.00,4308.01
             7907.96,4308.02 7904.19,4309.42 7902.00,4310.00
             7902.00,4310.00 7918.35,4289.00 7918.35,4289.00
             7918.35,4289.00 7948.25,4249.00 7948.25,4249.00
             7979.01,4207.08 8009.76,4164.72 8048.00,4129.09
             8088.60,4091.26 8132.89,4062.55 8182.00,4037.11
             8206.56,4024.38 8238.77,4008.94 8265.00,4000.77
             8265.00,4000.77 8301.00,3990.89 8301.00,3990.89
             8311.30,3988.56 8312.42,3990.08 8324.00,3985.00
             8324.00,3985.00 8315.00,3980.85 8315.00,3980.85
             8306.18,3977.97 8289.27,3978.93 8280.00,3980.30
             8267.00,3982.22 8274.03,3983.79 8256.00,3984.00
             8256.00,3984.00 8209.00,3990.71 8209.00,3990.71
             8160.25,3997.28 8112.20,4010.43 8067.00,4030.04
             8067.00,4030.04 8036.00,4043.67 8036.00,4043.67
             8032.22,4045.30 8024.11,4048.37 8021.09,4050.65
             8016.39,4054.19 8007.33,4067.61 8003.66,4073.00
             7999.78,4078.68 7993.90,4086.05 7986.05,4081.83
             7981.01,4079.11 7980.58,4073.84 7982.48,4069.00
             7984.54,4063.73 7993.39,4051.95 7997.13,4047.00
             7999.70,4043.60 8004.04,4037.92 8007.04,4035.13
             8010.31,4032.09 8012.22,4031.71 8015.24,4027.95
             8015.24,4027.95 8035.52,3999.00 8035.52,3999.00
             8050.10,3979.91 8058.22,3971.78 8075.00,3955.00
             8092.31,3937.69 8111.28,3922.28 8130.00,3906.56
             8149.59,3890.12 8168.80,3873.15 8190.00,3858.75
             8222.44,3836.70 8264.61,3816.73 8302.00,3804.75
             8340.33,3792.46 8379.65,3783.91 8419.00,3775.66
             8419.00,3775.66 8441.00,3771.33 8441.00,3771.33
             8441.00,3771.33 8452.00,3768.45 8452.00,3768.45
             8452.00,3768.45 8481.00,3762.00 8481.00,3762.00
             8481.00,3762.00 8446.00,3758.85 8446.00,3758.85
             8446.00,3758.85 8434.00,3756.46 8434.00,3756.46
             8434.00,3756.46 8410.00,3754.00 8410.00,3754.00
             8410.00,3754.00 8388.00,3754.00 8388.00,3754.00
             8388.00,3754.00 8373.00,3755.00 8373.00,3755.00
             8373.00,3755.00 8343.00,3756.00 8343.00,3756.00
             8333.22,3755.98 8332.35,3753.82 8327.00,3754.18
             8327.00,3754.18 8304.00,3758.54 8304.00,3758.54
             8304.00,3758.54 8277.00,3762.71 8277.00,3762.71
             8277.00,3762.71 8268.00,3763.29 8268.00,3763.29
             8268.00,3763.29 8231.00,3769.39 8231.00,3769.39
             8231.00,3769.39 8222.00,3770.61 8222.00,3770.61
             8207.05,3773.28 8192.22,3777.65 8178.00,3782.95
             8178.00,3782.95 8151.00,3793.43 8151.00,3793.43
             8151.00,3793.43 8137.00,3799.99 8137.00,3799.99
             8137.00,3799.99 8126.00,3804.46 8126.00,3804.46
             8126.00,3804.46 8118.00,3807.03 8118.00,3807.03
             8118.00,3807.03 8105.00,3813.04 8105.00,3813.04
             8105.00,3813.04 8098.00,3817.00 8098.00,3817.00
             8098.00,3817.00 8090.00,3819.35 8090.00,3819.35
             8083.42,3822.03 8075.81,3828.26 8069.28,3821.72
             8064.90,3817.35 8065.69,3810.70 8070.22,3806.79
             8070.22,3806.79 8079.00,3801.30 8079.00,3801.30
             8079.00,3801.30 8087.00,3795.63 8087.00,3795.63
             8087.00,3795.63 8114.00,3775.05 8114.00,3775.05
             8114.00,3775.05 8147.00,3756.69 8147.00,3756.69
             8147.00,3756.69 8170.00,3742.60 8170.00,3742.60
             8193.93,3726.95 8225.18,3710.44 8252.00,3700.53
             8252.00,3700.53 8312.00,3682.26 8312.00,3682.26
             8312.00,3682.26 8353.00,3671.49 8353.00,3671.49
             8353.00,3671.49 8364.00,3668.51 8364.00,3668.51
             8379.48,3665.15 8413.77,3657.15 8428.00,3656.80
             8431.50,3656.97 8440.11,3657.25 8443.00,3656.80
             8443.00,3656.80 8449.00,3654.40 8449.00,3654.40
             8449.00,3654.40 8463.00,3651.17 8463.00,3651.17
             8463.00,3651.17 8482.00,3650.00 8482.00,3650.00
             8482.00,3650.00 8497.00,3649.00 8497.00,3649.00
             8497.00,3649.00 8525.00,3648.00 8525.00,3648.00
             8525.00,3648.00 8544.00,3647.17 8544.00,3647.17
             8548.87,3647.63 8558.68,3649.39 8562.75,3646.15
             8566.71,3642.99 8562.85,3639.23 8559.96,3637.25
             8553.38,3632.74 8545.84,3631.01 8538.00,3631.00
             8538.00,3631.00 8523.00,3631.00 8523.00,3631.00
             8514.30,3630.89 8509.75,3627.61 8502.00,3624.33
             8502.00,3624.33 8481.00,3616.54 8481.00,3616.54
             8453.18,3606.61 8432.09,3600.77 8403.00,3595.61
             8403.00,3595.61 8394.00,3594.56 8394.00,3594.56
             8394.00,3594.56 8376.00,3591.43 8376.00,3591.43
             8376.00,3591.43 8367.00,3590.71 8367.00,3590.71
             8367.00,3590.71 8351.00,3588.06 8351.00,3588.06
             8351.00,3588.06 8343.00,3588.06 8343.00,3588.06
             8343.00,3588.06 8316.00,3584.04 8316.00,3584.04
             8316.00,3584.04 8306.00,3584.04 8306.00,3584.04
             8306.00,3584.04 8270.00,3581.00 8270.00,3581.00
             8270.00,3581.00 8238.00,3581.00 8238.00,3581.00
             8238.00,3581.00 8226.00,3581.91 8226.00,3581.91
             8226.00,3581.91 8202.00,3584.00 8202.00,3584.00
             8202.00,3584.00 8191.00,3584.00 8191.00,3584.00
             8191.00,3584.00 8172.00,3586.87 8172.00,3586.87
             8172.00,3586.87 8158.00,3588.43 8158.00,3588.43
             8158.00,3588.43 8124.00,3594.39 8124.00,3594.39
             8124.00,3594.39 8114.00,3595.44 8114.00,3595.44
             8114.00,3595.44 8101.00,3598.04 8101.00,3598.04
             8101.00,3598.04 8090.00,3599.43 8090.00,3599.43
             8090.00,3599.43 8077.00,3602.77 8077.00,3602.77
             8077.00,3602.77 8067.00,3605.91 8067.00,3605.91
             8067.00,3605.91 8041.00,3608.89 8041.00,3608.89
             8036.94,3610.44 8034.35,3614.01 8031.00,3616.61
             8028.04,3618.90 8024.37,3620.39 8021.00,3622.00
             8022.71,3615.01 8028.18,3608.16 8031.94,3602.00
             8039.67,3589.34 8045.98,3578.53 8055.57,3567.00
             8075.93,3542.51 8098.28,3527.40 8124.00,3509.43
             8124.00,3509.43 8169.00,3480.50 8169.00,3480.50
             8169.00,3480.50 8183.00,3473.33 8183.00,3473.33
             8183.00,3473.33 8193.00,3467.31 8193.00,3467.31
             8193.00,3467.31 8219.00,3455.16 8219.00,3455.16
             8219.00,3455.16 8268.00,3436.43 8268.00,3436.43
             8280.82,3432.49 8297.74,3428.14 8306.00,3417.00
             8285.21,3414.26 8272.77,3418.56 8253.00,3424.44
             8245.41,3426.70 8232.27,3432.33 8225.00,3431.82
             8225.00,3431.82 8214.00,3431.00 8214.00,3431.00
             8214.00,3431.00 8175.00,3431.00 8175.00,3431.00
             8175.00,3431.00 8148.00,3434.06 8148.00,3434.06
             8148.00,3434.06 8137.00,3434.06 8137.00,3434.06
             8137.00,3434.06 8122.00,3437.00 8122.00,3437.00 Z
           M 8806.00,3376.00
           C 8806.00,3376.00 8855.80,3446.17 8855.80,3446.17
             8887.10,3493.27 8919.02,3551.50 8940.08,3604.00
             8957.59,3647.63 8970.68,3693.50 8977.43,3740.00
             8977.43,3740.00 8979.70,3752.00 8979.70,3752.00
             8979.70,3752.00 8980.29,3761.00 8980.29,3761.00
             8980.29,3761.00 8984.00,3791.00 8984.00,3791.00
             8984.00,3791.00 8986.04,3823.00 8986.04,3823.00
             8986.04,3823.00 8987.00,3836.00 8987.00,3836.00
             8987.00,3836.00 8987.00,3894.00 8987.00,3894.00
             8987.00,3894.00 8986.09,3906.00 8986.09,3906.00
             8986.09,3906.00 8984.91,3928.00 8984.91,3928.00
             8984.91,3928.00 8984.00,3938.00 8984.00,3938.00
             8984.00,3938.00 8980.06,3976.00 8980.06,3976.00
             8980.06,3976.00 8980.06,3985.00 8980.06,3985.00
             8980.06,3985.00 8977.29,4002.00 8977.29,4002.00
             8977.29,4002.00 8976.71,4010.00 8976.71,4010.00
             8976.71,4010.00 8970.44,4047.00 8970.44,4047.00
             8970.44,4047.00 8969.54,4055.00 8969.54,4055.00
             8969.54,4055.00 8966.46,4069.00 8966.46,4069.00
             8966.46,4069.00 8956.23,4118.00 8956.23,4118.00
             8941.00,4183.28 8928.71,4224.09 8902.00,4286.00
             8902.00,4286.00 8881.27,4328.00 8881.27,4328.00
             8878.45,4332.95 8876.00,4340.09 8871.00,4343.00
             8871.00,4343.00 8874.72,4316.00 8874.72,4316.00
             8874.72,4316.00 8875.29,4308.00 8875.29,4308.00
             8875.29,4308.00 8878.56,4290.00 8878.56,4290.00
             8878.56,4290.00 8882.44,4263.00 8882.44,4263.00
             8882.44,4263.00 8885.39,4249.00 8885.39,4249.00
             8885.39,4249.00 8886.44,4240.00 8886.44,4240.00
             8886.44,4240.00 8888.56,4229.00 8888.56,4229.00
             8888.56,4229.00 8890.08,4217.00 8890.08,4217.00
             8890.08,4217.00 8892.71,4203.00 8892.71,4203.00
             8892.71,4203.00 8893.29,4195.00 8893.29,4195.00
             8893.29,4195.00 8895.71,4180.00 8895.71,4180.00
             8895.71,4180.00 8898.00,4156.00 8898.00,4156.00
             8898.00,4156.00 8903.49,4133.00 8903.49,4133.00
             8903.49,4133.00 8907.51,4113.00 8907.51,4113.00
             8907.51,4113.00 8910.33,4102.00 8910.33,4102.00
             8910.33,4102.00 8914.46,4078.00 8914.46,4078.00
             8914.46,4078.00 8917.54,4064.00 8917.54,4064.00
             8917.54,4064.00 8921.62,4034.99 8921.62,4034.99
             8921.62,4034.99 8924.94,4016.00 8924.94,4016.00
             8924.94,4016.00 8924.94,4007.00 8924.94,4007.00
             8924.94,4007.00 8929.00,3973.00 8929.00,3973.00
             8929.00,3973.00 8930.00,3948.00 8930.00,3948.00
             8930.00,3948.00 8931.00,3933.00 8931.00,3933.00
             8931.00,3933.00 8931.00,3900.00 8931.00,3900.00
             8931.00,3900.00 8930.00,3885.00 8930.00,3885.00
             8930.00,3885.00 8929.00,3861.00 8929.00,3861.00
             8929.00,3861.00 8924.94,3827.00 8924.94,3827.00
             8924.94,3827.00 8924.94,3819.00 8924.94,3819.00
             8924.94,3819.00 8921.43,3800.00 8921.43,3800.00
             8921.43,3800.00 8920.54,3792.00 8920.54,3792.00
             8920.54,3792.00 8918.46,3783.00 8918.46,3783.00
             8918.46,3783.00 8917.54,3775.00 8917.54,3775.00
             8917.54,3775.00 8914.51,3763.00 8914.51,3763.00
             8914.51,3763.00 8910.49,3743.00 8910.49,3743.00
             8910.49,3743.00 8907.50,3733.00 8907.50,3733.00
             8901.09,3706.07 8889.18,3671.67 8878.55,3646.00
             8855.85,3591.16 8823.34,3538.00 8784.72,3493.00
             8784.72,3493.00 8741.00,3446.00 8741.00,3446.00
             8735.82,3440.82 8721.59,3428.47 8719.00,3423.00
             8719.00,3423.00 8753.00,3407.31 8753.00,3407.31
             8753.00,3407.31 8806.00,3376.00 8806.00,3376.00 Z
           M 7525.00,3464.00
           C 7525.00,3464.00 7524.00,3464.00 7524.00,3464.00
             7524.00,3464.00 7525.00,3465.00 7525.00,3465.00
             7525.00,3465.00 7525.00,3464.00 7525.00,3464.00 Z
           M 7674.00,3697.21
           C 7674.00,3697.21 7691.00,3697.21 7691.00,3697.21
             7716.70,3697.00 7734.70,3698.65 7760.00,3703.39
             7760.00,3703.39 7801.00,3712.15 7801.00,3712.15
             7818.08,3716.77 7834.59,3723.24 7851.00,3729.80
             7872.39,3738.36 7889.26,3745.26 7909.00,3757.58
             7918.76,3763.67 7933.80,3774.29 7941.91,3782.17
             7952.86,3792.79 7966.39,3814.24 7970.57,3829.00
             7973.05,3837.75 7973.96,3846.94 7974.00,3856.00
             7974.00,3856.00 7975.72,3873.00 7975.72,3873.00
             7975.72,3873.00 7977.00,3893.00 7977.00,3893.00
             7977.27,3916.67 7971.97,3929.97 7962.31,3951.00
             7956.65,3963.33 7950.50,3975.34 7942.00,3986.00
             7934.61,3995.26 7928.46,3999.98 7919.00,4006.85
             7915.87,4009.12 7908.47,4014.17 7905.00,4015.30
             7902.48,4016.13 7899.63,4016.00 7897.00,4016.00
             7897.00,4016.00 7864.00,4016.00 7864.00,4016.00
             7864.00,4016.00 7847.00,4014.13 7847.00,4014.13
             7847.00,4014.13 7833.00,4012.57 7833.00,4012.57
             7833.00,4012.57 7799.00,4005.50 7799.00,4005.50
             7799.00,4005.50 7789.00,4003.32 7789.00,4003.32
             7784.92,4002.64 7783.98,4003.18 7779.00,4001.84
             7779.00,4001.84 7750.00,3991.53 7750.00,3991.53
             7728.66,3983.64 7707.36,3975.27 7687.00,3965.09
             7659.55,3951.36 7634.16,3935.11 7618.28,3908.00
             7609.35,3892.76 7603.03,3866.68 7603.00,3849.00
             7603.00,3849.00 7603.00,3830.00 7603.00,3830.00
             7603.03,3809.70 7611.13,3774.89 7616.86,3755.00
             7616.86,3755.00 7628.18,3722.00 7628.18,3722.00
             7629.33,3718.81 7633.14,3708.90 7635.42,3706.97
             7637.91,3704.85 7642.83,3703.64 7646.00,3702.66
             7655.22,3699.80 7664.52,3698.78 7674.00,3697.21 Z
           M 7562.00,4465.42
           C 7576.52,4463.66 7607.40,4468.05 7622.00,4471.50
             7622.00,4471.50 7631.00,4474.26 7631.00,4474.26
             7684.51,4489.17 7741.55,4525.00 7781.00,4563.79
             7794.19,4576.76 7807.97,4589.33 7819.35,4604.00
             7821.66,4606.97 7830.12,4615.82 7829.89,4618.96
             7829.45,4625.05 7814.47,4627.82 7810.04,4630.28
             7807.01,4631.96 7804.73,4635.06 7801.96,4637.33
             7797.42,4641.06 7791.44,4644.33 7786.00,4646.55
             7786.00,4646.55 7765.00,4653.97 7765.00,4653.97
             7762.24,4654.84 7756.40,4655.83 7754.51,4657.58
             7752.48,4659.47 7751.26,4665.16 7750.19,4668.00
             7750.19,4668.00 7746.35,4678.00 7746.35,4678.00
             7743.91,4685.35 7743.89,4689.95 7739.53,4697.00
             7731.01,4710.81 7708.68,4720.39 7693.00,4722.70
             7684.04,4724.03 7675.04,4724.10 7666.00,4724.00
             7653.73,4723.85 7642.54,4720.67 7632.00,4714.40
             7628.50,4712.31 7616.62,4703.25 7613.72,4703.27
             7608.56,4703.29 7601.84,4711.50 7598.00,4714.67
             7590.83,4720.59 7580.34,4724.89 7571.00,4725.00
             7553.05,4725.21 7547.90,4722.36 7532.00,4715.42
             7524.35,4712.09 7515.63,4708.01 7509.00,4702.96
             7504.66,4699.66 7499.79,4695.08 7496.18,4691.00
             7493.30,4687.74 7492.17,4684.99 7487.96,4683.25
             7485.83,4682.37 7477.10,4679.88 7475.00,4679.90
             7472.31,4679.92 7467.97,4682.03 7465.00,4682.84
             7459.40,4684.38 7450.78,4685.93 7445.00,4686.00
             7432.25,4686.15 7423.45,4684.99 7412.00,4678.69
             7407.88,4676.42 7402.33,4672.44 7400.47,4668.00
             7398.38,4663.02 7402.03,4652.52 7402.87,4647.00
             7405.88,4627.18 7413.85,4601.96 7420.66,4583.00
             7435.00,4543.09 7462.39,4498.50 7502.00,4479.89
             7526.07,4468.58 7537.17,4468.95 7562.00,4465.42 Z
           M 6743.00,5522.00
           C 6744.81,5528.39 6743.99,5543.61 6744.00,5551.00
             6744.03,5571.44 6755.83,5591.99 6772.04,5604.09
             6787.41,5615.56 6803.43,5621.77 6822.00,5625.66
             6822.00,5625.66 6831.00,5627.70 6831.00,5627.70
             6831.00,5627.70 6839.00,5628.28 6839.00,5628.28
             6839.00,5628.28 6859.00,5630.00 6859.00,5630.00
             6903.12,5630.07 6953.65,5617.84 6989.00,5590.42
             7009.97,5574.16 7026.12,5555.96 7033.79,5530.00
             7033.79,5530.00 7035.88,5520.00 7035.88,5520.00
             7037.16,5514.30 7039.22,5501.56 7038.91,5496.00
             7036.58,5454.94 7017.90,5416.62 6986.00,5390.46
             6974.40,5380.96 6955.64,5370.94 6942.00,5364.26
             6915.94,5351.48 6870.55,5334.70 6851.43,5313.91
             6836.67,5297.87 6831.15,5283.83 6826.58,5263.00
             6824.83,5255.04 6824.01,5253.45 6824.00,5245.00
             6824.00,5245.00 6824.00,5215.00 6824.00,5215.00
             6824.12,5205.03 6827.99,5189.85 6830.52,5180.00
             6837.87,5151.43 6853.08,5122.42 6872.30,5100.00
             6872.30,5100.00 6886.00,5086.00 6886.00,5086.00
             6886.00,5086.00 6902.00,5070.30 6902.00,5070.30
             6927.56,5048.40 6958.02,5031.99 6989.00,5019.27
             7007.85,5011.53 7033.91,5004.02 7054.00,5000.46
             7054.00,5000.46 7062.00,4999.54 7062.00,4999.54
             7076.12,4997.04 7078.23,4996.17 7093.00,4996.00
             7093.00,4996.00 7106.00,4994.96 7106.00,4994.96
             7106.00,4994.96 7121.00,4994.96 7121.00,4994.96
             7121.00,4994.96 7133.00,4994.04 7133.00,4994.04
             7133.00,4994.04 7144.00,4994.04 7144.00,4994.04
             7144.00,4994.04 7154.00,4995.00 7154.00,4995.00
             7154.00,4995.00 7217.00,4995.00 7217.00,4995.00
             7217.00,4995.00 7234.00,4994.00 7234.00,4994.00
             7234.00,4994.00 7253.00,4994.00 7253.00,4994.00
             7253.00,4994.00 7269.00,4993.00 7269.00,4993.00
             7269.00,4993.00 7299.00,4993.00 7299.00,4993.00
             7299.00,4993.00 7314.00,4992.00 7314.00,4992.00
             7314.00,4992.00 7339.00,4991.00 7339.00,4991.00
             7339.00,4991.00 7354.00,4990.00 7354.00,4990.00
             7354.00,4990.00 7373.00,4989.00 7373.00,4989.00
             7373.00,4989.00 7394.00,4989.00 7394.00,4989.00
             7394.00,4989.00 7407.00,4988.00 7407.00,4988.00
             7407.00,4988.00 7436.00,4987.00 7436.00,4987.00
             7436.00,4987.00 7453.00,4986.00 7453.00,4986.00
             7453.00,4986.00 7538.00,4986.00 7538.00,4986.00
             7538.00,4986.00 7555.00,4987.00 7555.00,4987.00
             7555.00,4987.00 7578.00,4988.09 7578.00,4988.09
             7578.00,4988.09 7588.00,4989.00 7588.00,4989.00
             7588.00,4989.00 7598.00,4989.00 7598.00,4989.00
             7598.00,4989.00 7634.00,4993.00 7634.00,4993.00
             7634.00,4993.00 7644.00,4993.00 7644.00,4993.00
             7644.00,4993.00 7661.00,4995.71 7661.00,4995.71
             7661.00,4995.71 7670.00,4996.29 7670.00,4996.29
             7670.00,4996.29 7689.00,4999.57 7689.00,4999.57
             7689.00,4999.57 7716.00,5003.44 7716.00,5003.44
             7716.00,5003.44 7756.00,5011.13 7756.00,5011.13
             7756.00,5011.13 7767.00,5013.54 7767.00,5013.54
             7767.00,5013.54 7805.00,5021.51 7805.00,5021.51
             7810.05,5022.60 7820.27,5026.50 7824.99,5024.91
             7827.60,5024.02 7829.87,5021.71 7832.00,5020.00
             7833.39,5024.89 7832.95,5027.09 7833.00,5032.00
             7833.00,5032.00 7837.67,5064.00 7837.67,5064.00
             7837.67,5064.00 7850.23,5109.00 7850.23,5109.00
             7850.23,5109.00 7858.75,5142.00 7858.75,5142.00
             7858.75,5142.00 7872.08,5188.00 7872.08,5188.00
             7872.08,5188.00 7879.20,5220.00 7879.20,5220.00
             7880.05,5224.44 7880.77,5232.03 7882.26,5236.00
             7885.49,5244.61 7890.21,5240.60 7894.10,5248.02
             7894.10,5248.02 7908.50,5279.00 7908.50,5279.00
             7908.50,5279.00 7929.00,5316.00 7929.00,5316.00
             7906.31,5333.51 7882.38,5331.37 7856.00,5326.61
             7816.60,5319.51 7760.03,5297.47 7721.00,5283.54
             7721.00,5283.54 7707.00,5279.11 7707.00,5279.11
             7675.90,5268.71 7644.41,5259.78 7612.00,5254.56
             7612.00,5254.56 7595.00,5251.43 7595.00,5251.43
             7595.00,5251.43 7586.00,5250.72 7586.00,5250.72
             7586.00,5250.72 7566.00,5247.96 7566.00,5247.96
             7566.00,5247.96 7556.00,5247.96 7556.00,5247.96
             7556.00,5247.96 7530.00,5245.91 7530.00,5245.91
             7530.00,5245.91 7518.00,5245.00 7518.00,5245.00
             7518.00,5245.00 7469.00,5245.00 7469.00,5245.00
             7469.00,5245.00 7454.00,5246.00 7454.00,5246.00
             7454.00,5246.00 7420.00,5248.00 7420.00,5248.00
             7420.00,5248.00 7359.00,5255.30 7359.00,5255.30
             7356.03,5255.76 7353.49,5256.52 7351.10,5258.42
             7348.38,5260.59 7347.46,5263.53 7343.90,5263.69
             7343.90,5263.69 7316.00,5259.17 7316.00,5259.17
             7316.00,5259.17 7280.00,5255.91 7280.00,5255.91
             7280.00,5255.91 7268.00,5255.00 7268.00,5255.00
             7268.00,5255.00 7249.00,5255.00 7249.00,5255.00
             7249.00,5255.00 7230.00,5254.00 7230.00,5254.00
             7230.00,5254.00 7201.00,5251.28 7201.00,5251.28
             7201.00,5251.28 7192.00,5250.71 7192.00,5250.71
             7176.15,5248.65 7156.95,5242.70 7145.00,5231.83
             7136.23,5223.84 7128.61,5212.47 7123.04,5202.00
             7123.04,5202.00 7119.00,5194.00 7119.00,5194.00
             7119.29,5200.13 7121.78,5209.32 7124.15,5215.00
             7127.68,5223.45 7132.53,5232.43 7139.04,5238.96
             7157.05,5257.04 7183.84,5261.77 7208.00,5265.13
             7218.28,5266.56 7225.46,5267.88 7236.00,5268.00
             7236.00,5268.00 7266.00,5271.04 7266.00,5271.04
             7266.00,5271.04 7276.00,5271.04 7276.00,5271.04
             7276.00,5271.04 7299.00,5274.57 7299.00,5274.57
             7299.00,5274.57 7324.00,5278.52 7324.00,5278.52
             7324.00,5278.52 7333.00,5281.11 7333.00,5281.11
             7367.12,5289.69 7403.87,5305.63 7431.00,5328.32
             7431.00,5328.32 7443.00,5340.00 7443.00,5340.00
             7443.00,5340.00 7456.00,5353.09 7456.00,5353.09
             7473.39,5373.41 7490.05,5403.59 7498.51,5429.00
             7501.56,5438.15 7506.90,5458.72 7507.96,5468.00
             7507.96,5468.00 7507.96,5477.00 7507.96,5477.00
             7507.96,5477.00 7509.00,5487.00 7509.00,5487.00
             7509.33,5515.90 7505.77,5545.31 7493.96,5572.00
             7467.55,5631.72 7409.23,5670.85 7351.00,5695.48
             7331.03,5703.93 7310.07,5710.49 7289.00,5715.50
             7282.89,5716.95 7273.02,5721.20 7267.00,5719.00
             7295.64,5707.35 7329.13,5681.96 7344.50,5655.00
             7350.00,5645.34 7353.87,5634.70 7356.73,5624.00
             7359.00,5615.55 7360.79,5606.79 7360.99,5598.00
             7361.07,5594.19 7360.91,5588.37 7359.02,5585.02
             7354.90,5577.75 7346.42,5578.35 7341.44,5584.30
             7341.44,5584.30 7322.67,5620.00 7322.67,5620.00
             7312.06,5638.61 7299.32,5651.95 7282.00,5664.41
             7250.48,5687.08 7207.91,5699.34 7170.00,5705.44
             7170.00,5705.44 7158.00,5707.94 7158.00,5707.94
             7158.00,5707.94 7150.00,5707.94 7150.00,5707.94
             7150.00,5707.94 7114.00,5712.00 7114.00,5712.00
             7114.00,5712.00 7039.00,5712.00 7039.00,5712.00
             7039.00,5712.00 7000.00,5708.00 7000.00,5708.00
             7000.00,5708.00 6992.00,5708.00 6992.00,5708.00
             6992.00,5708.00 6976.00,5705.28 6976.00,5705.28
             6943.88,5701.18 6911.79,5693.72 6881.00,5683.74
             6881.00,5683.74 6864.00,5678.14 6864.00,5678.14
             6826.86,5663.13 6785.57,5645.15 6761.00,5612.04
             6756.39,5605.82 6753.61,5602.27 6750.31,5595.00
             6742.55,5577.92 6740.91,5558.50 6741.00,5540.00
             6741.02,5536.39 6741.81,5524.99 6743.00,5522.00 Z
           M 6214.00,5605.21
           C 6214.00,5605.21 6220.00,5605.21 6220.00,5605.21
             6264.74,5604.48 6303.24,5630.20 6317.92,5673.00
             6320.59,5680.77 6321.36,5687.93 6322.17,5696.00
             6322.17,5696.00 6322.97,5704.00 6322.97,5704.00
             6322.97,5704.00 6322.17,5712.00 6322.17,5712.00
             6318.33,5750.39 6298.31,5778.52 6263.00,5794.69
             6247.32,5801.87 6230.84,5802.56 6214.00,5804.17
             6214.00,5804.17 6168.00,5808.09 6168.00,5808.09
             6168.00,5808.09 6094.00,5814.83 6094.00,5814.83
             6094.00,5814.83 5993.00,5823.17 5993.00,5823.17
             5993.00,5823.17 5701.00,5848.83 5701.00,5848.83
             5701.00,5848.83 5612.00,5856.17 5612.00,5856.17
             5612.00,5856.17 5504.00,5865.83 5504.00,5865.83
             5504.00,5865.83 5462.00,5869.17 5462.00,5869.17
             5462.00,5869.17 5417.00,5873.17 5417.00,5873.17
             5417.00,5873.17 5396.00,5875.00 5396.00,5875.00
             5339.85,5875.63 5294.76,5831.24 5295.00,5775.00
             5295.04,5765.20 5297.70,5751.22 5301.05,5742.00
             5311.42,5713.48 5334.80,5690.52 5364.00,5681.72
             5380.39,5676.78 5397.15,5676.44 5414.00,5674.83
             5414.00,5674.83 5477.00,5669.17 5477.00,5669.17
             5477.00,5669.17 5508.00,5666.58 5508.00,5666.58
             5508.00,5666.58 5564.00,5661.83 5564.00,5661.83
             5564.00,5661.83 5668.00,5652.83 5668.00,5652.83
             5668.00,5652.83 5750.00,5645.83 5750.00,5645.83
             5750.00,5645.83 6065.00,5618.17 6065.00,5618.17
             6065.00,5618.17 6170.00,5609.17 6170.00,5609.17
             6170.00,5609.17 6204.00,5606.17 6204.00,5606.17
             6204.00,5606.17 6214.00,5605.21 6214.00,5605.21 Z" />
</svg>
