<?xml version="1.0" encoding="UTF-8" standalone="no"?>
<!DOCTYPE svg PUBLIC "-//W3C//DTD SVG 20010904//EN"
              "http://www.w3.org/TR/2001/REC-SVG-20010904/DTD/svg10.dtd">

<svg xmlns="http://www.w3.org/2000/svg"
     width="16in" height="10.4533in"
     viewBox="0 0 9600 6272">
  <path id="pink"
        fill="none" stroke="black" stroke-width="1"
        d="M 5823.00,342.21
           C 5823.00,342.21 5833.00,342.21 5833.00,342.21
             5898.94,342.77 5946.28,409.72 5924.92,472.00
             5914.78,501.58 5896.98,515.09 5874.00,534.25
             5874.00,534.25 5840.00,562.59 5840.00,562.59
             5840.00,562.59 5182.00,1112.25 5182.00,1112.25
             5182.00,1112.25 5135.00,1151.25 5135.00,1151.25
             5119.06,1164.53 5108.24,1174.90 5088.00,1181.65
             5040.45,1197.48 4987.46,1176.15 4966.31,1130.00
             4960.22,1116.70 4956.83,1100.62 4957.00,1086.00
             4957.26,1064.31 4966.22,1040.45 4980.30,1024.00
             4988.93,1013.92 5009.95,997.14 5021.00,987.92
             5021.00,987.92 5138.00,890.25 5138.00,890.25
             5138.00,890.25 5453.00,627.08 5453.00,627.08
             5453.00,627.08 5612.00,494.57 5612.00,494.57
             5612.00,494.57 5727.00,398.58 5727.00,398.58
             5742.48,385.50 5770.00,360.55 5787.00,352.26
             5799.94,345.95 5809.08,344.44 5823.00,342.21 Z
           M 5159.00,2531.00
           C 5157.80,2526.08 5158.02,2524.92 5158.00,2520.00
             5157.93,2506.18 5149.94,2471.25 5146.08,2457.00
             5130.69,2400.16 5097.86,2342.47 5062.12,2296.04
             5062.12,2296.04 5055.21,2287.96 5055.21,2287.96
             5055.21,2287.96 5044.21,2274.09 5044.21,2274.09
             5032.15,2259.89 5012.63,2239.78 4999.00,2227.09
             4999.00,2227.09 4976.00,2206.44 4976.00,2206.44
             4971.17,2202.37 4964.56,2198.16 4961.09,2192.99
             4948.41,2174.08 4931.00,2138.25 4920.74,2117.00
             4897.01,2067.85 4874.60,2006.63 4864.54,1953.00
             4864.54,1953.00 4861.44,1938.00 4861.44,1938.00
             4861.44,1938.00 4855.91,1886.00 4855.91,1886.00
             4855.91,1886.00 4855.09,1879.00 4855.09,1879.00
             4855.09,1879.00 4854.18,1852.00 4854.18,1852.00
             4854.18,1852.00 4855.00,1830.00 4855.00,1830.00
             4855.00,1830.00 4858.00,1800.00 4858.00,1800.00
             4858.00,1800.00 4858.00,1790.00 4858.00,1790.00
             4858.00,1790.00 4860.57,1775.00 4860.57,1775.00
             4860.57,1775.00 4861.29,1767.00 4861.29,1767.00
             4861.29,1767.00 4864.39,1751.00 4864.39,1751.00
             4864.39,1751.00 4868.67,1728.00 4868.67,1728.00
             4868.67,1728.00 4871.50,1718.00 4871.50,1718.00
             4897.38,1608.58 4955.79,1503.00 5028.65,1417.83
             5028.65,1417.83 5046.17,1397.00 5046.17,1397.00
             5046.17,1397.00 5055.91,1387.00 5055.91,1387.00
             5055.91,1387.00 5077.04,1364.00 5077.04,1364.00
             5077.04,1364.00 5100.00,1341.96 5100.00,1341.96
             5100.00,1341.96 5125.00,1318.17 5125.00,1318.17
             5125.00,1318.17 5142.00,1303.72 5142.00,1303.72
             5187.78,1264.11 5236.77,1229.61 5288.00,1197.47
             5388.13,1134.67 5515.35,1080.20 5630.00,1051.26
             5630.00,1051.26 5655.00,1044.65 5655.00,1044.65
             5655.00,1044.65 5710.00,1033.39 5710.00,1033.39
             5710.00,1033.39 5742.00,1027.44 5742.00,1027.44
             5742.00,1027.44 5751.00,1026.57 5751.00,1026.57
             5751.00,1026.57 5812.00,1019.00 5812.00,1019.00
             5812.00,1019.00 5839.00,1017.00 5839.00,1017.00
             5839.00,1017.00 5847.00,1017.00 5847.00,1017.00
             5847.00,1017.00 5858.00,1016.00 5858.00,1016.00
             5858.00,1016.00 5936.00,1016.00 5936.00,1016.00
             5936.00,1016.00 5977.00,1019.00 5977.00,1019.00
             5977.00,1019.00 6012.00,1022.72 6012.00,1022.72
             6012.00,1022.72 6021.00,1023.29 6021.00,1023.29
             6021.00,1023.29 6040.00,1026.56 6040.00,1026.56
             6040.00,1026.56 6049.00,1027.44 6049.00,1027.44
             6049.00,1027.44 6081.00,1033.54 6081.00,1033.54
             6197.65,1055.42 6293.49,1102.40 6400.00,1151.31
             6459.85,1178.79 6518.89,1208.37 6581.00,1230.54
             6602.23,1238.12 6623.71,1244.85 6646.00,1248.44
             6654.00,1249.72 6661.84,1251.90 6670.00,1252.00
             6691.01,1252.24 6705.30,1251.78 6725.00,1242.86
             6767.89,1223.42 6793.21,1177.95 6800.44,1133.00
             6800.44,1133.00 6803.17,1111.00 6803.17,1111.00
             6803.17,1111.00 6803.92,1104.00 6803.92,1104.00
             6803.92,1104.00 6803.09,1096.00 6803.09,1096.00
             6801.90,1078.95 6798.83,1062.02 6792.69,1046.00
             6784.67,1025.08 6766.71,998.66 6751.83,982.00
             6751.83,982.00 6741.09,971.00 6741.09,971.00
             6741.09,971.00 6721.00,950.04 6721.00,950.04
             6721.00,950.04 6712.00,941.96 6712.00,941.96
             6712.00,941.96 6697.00,927.17 6697.00,927.17
             6697.00,927.17 6676.00,908.84 6676.00,908.84
             6676.00,908.84 6657.00,891.17 6657.00,891.17
             6657.00,891.17 6633.00,869.91 6633.00,869.91
             6578.01,818.69 6531.62,765.57 6510.44,692.00
             6506.37,677.85 6500.17,649.32 6500.00,635.00
             6499.84,621.10 6499.33,606.76 6501.28,593.00
             6501.28,593.00 6503.56,581.00 6503.56,581.00
             6503.56,581.00 6504.52,574.00 6504.52,574.00
             6514.43,528.24 6547.92,483.00 6584.00,454.34
             6584.00,454.34 6594.00,446.36 6594.00,446.36
             6618.82,429.44 6645.13,414.64 6676.00,415.00
             6689.99,415.17 6706.13,420.92 6704.67,438.00
             6703.28,454.36 6689.33,475.80 6679.91,489.00
             6658.82,518.56 6634.39,545.93 6615.50,577.00
             6603.01,597.53 6590.50,624.75 6599.46,649.00
             6611.74,682.22 6650.93,711.83 6678.00,733.80
             6678.00,733.80 6690.00,744.39 6690.00,744.39
             6690.00,744.39 6723.00,771.44 6723.00,771.44
             6723.00,771.44 6732.00,779.56 6732.00,779.56
             6732.00,779.56 6747.96,792.59 6747.96,792.59
             6747.96,792.59 6815.00,852.17 6815.00,852.17
             6815.00,852.17 6839.00,876.00 6839.00,876.00
             6839.00,876.00 6865.91,903.00 6865.91,903.00
             6865.91,903.00 6907.00,950.96 6907.00,950.96
             6949.80,1003.04 6990.73,1060.92 7008.25,1127.00
             7012.85,1144.36 7015.97,1164.06 7016.00,1182.00
             7016.00,1182.00 7017.00,1202.00 7017.00,1202.00
             7017.00,1202.00 7016.04,1212.00 7016.04,1212.00
             7016.04,1212.00 7016.04,1224.00 7016.04,1224.00
             7016.04,1224.00 7013.28,1247.00 7013.28,1247.00
             7010.33,1270.12 7003.08,1296.16 6994.88,1318.00
             6963.75,1400.95 6898.13,1475.56 6816.00,1510.57
             6797.00,1518.67 6777.15,1524.44 6757.00,1528.66
             6741.82,1531.85 6726.29,1535.46 6710.72,1535.84
             6710.72,1535.84 6679.00,1538.00 6679.00,1538.00
             6679.00,1538.00 6659.00,1538.00 6659.00,1538.00
             6659.00,1538.00 6624.00,1536.00 6624.00,1536.00
             6624.00,1536.00 6601.00,1533.13 6601.00,1533.13
             6601.00,1533.13 6587.00,1531.56 6587.00,1531.56
             6587.00,1531.56 6556.00,1525.51 6556.00,1525.51
             6556.00,1525.51 6549.00,1524.49 6549.00,1524.49
             6549.00,1524.49 6519.00,1517.25 6519.00,1517.25
             6445.90,1497.87 6377.93,1462.85 6311.00,1428.42
             6242.75,1393.32 6171.65,1354.75 6098.00,1332.57
             6068.07,1323.55 6037.10,1316.82 6006.00,1313.83
             6006.00,1313.83 5982.00,1310.96 5982.00,1310.96
             5982.00,1310.96 5970.00,1310.96 5970.00,1310.96
             5970.00,1310.96 5960.00,1309.96 5960.00,1309.96
             5960.00,1309.96 5947.00,1309.96 5947.00,1309.96
             5947.00,1309.96 5935.00,1309.00 5935.00,1309.00
             5935.00,1309.00 5930.00,1309.00 5930.00,1309.00
             5930.00,1309.00 5916.00,1310.00 5916.00,1310.00
             5916.00,1310.00 5884.00,1311.00 5884.00,1311.00
             5884.00,1311.00 5859.00,1314.00 5859.00,1314.00
             5859.00,1314.00 5851.00,1314.00 5851.00,1314.00
             5851.00,1314.00 5830.00,1317.57 5830.00,1317.57
             5830.00,1317.57 5804.00,1321.46 5804.00,1321.46
             5804.00,1321.46 5791.00,1324.54 5791.00,1324.54
             5791.00,1324.54 5746.00,1335.25 5746.00,1335.25
             5675.12,1354.11 5606.56,1381.77 5542.00,1416.69
             5470.81,1455.20 5406.29,1497.98 5344.96,1550.92
             5344.96,1550.92 5324.00,1569.09 5324.00,1569.09
             5324.00,1569.09 5295.00,1598.00 5295.00,1598.00
             5233.71,1659.29 5180.66,1735.35 5155.43,1819.00
             5150.11,1836.65 5145.29,1854.75 5142.44,1873.00
             5142.44,1873.00 5141.57,1883.00 5141.57,1883.00
             5140.15,1892.87 5138.12,1903.01 5138.00,1913.00
             5138.00,1913.00 5138.00,1958.00 5138.00,1958.00
             5138.00,1958.00 5141.72,1993.00 5141.72,1993.00
             5141.72,1993.00 5142.29,2001.00 5142.29,2001.00
             5142.29,2001.00 5144.56,2013.00 5144.56,2013.00
             5148.45,2037.14 5154.42,2060.78 5162.11,2084.00
             5162.11,2084.00 5177.91,2128.00 5177.91,2128.00
             5195.69,2170.96 5222.69,2219.55 5250.15,2257.00
             5266.91,2279.85 5285.15,2301.98 5304.17,2323.00
             5304.17,2323.00 5313.83,2333.00 5313.83,2333.00
             5313.83,2333.00 5334.17,2356.00 5334.17,2356.00
             5334.17,2356.00 5351.83,2375.00 5351.83,2375.00
             5374.01,2399.64 5396.85,2427.06 5414.72,2455.00
             5436.88,2489.66 5448.88,2521.68 5459.74,2561.00
             5459.74,2561.00 5470.44,2610.00 5470.44,2610.00
             5470.44,2610.00 5473.57,2626.00 5473.57,2626.00
             5473.57,2626.00 5475.00,2641.00 5475.00,2641.00
             5475.00,2641.00 5429.00,2622.48 5429.00,2622.48
             5422.15,2619.58 5415.10,2614.62 5409.00,2621.00
             5409.00,2621.00 5406.00,2621.00 5406.00,2621.00
             5398.53,2608.02 5385.84,2600.24 5372.00,2595.31
             5349.95,2587.46 5320.40,2585.73 5297.00,2586.00
             5297.00,2586.00 5265.00,2589.00 5265.00,2589.00
             5265.00,2589.00 5256.00,2589.00 5256.00,2589.00
             5252.68,2589.49 5240.62,2592.19 5238.41,2591.34
             5236.55,2590.62 5235.14,2587.65 5234.11,2586.00
             5231.05,2581.10 5228.84,2577.43 5225.00,2573.01
             5212.43,2558.59 5199.66,2549.74 5184.00,2539.19
             5180.18,2536.62 5169.30,2529.63 5165.00,2529.65
             5163.42,2529.65 5160.64,2530.58 5159.00,2531.00 Z
           M 3601.00,879.00
           C 3615.43,902.96 3633.23,922.61 3654.00,941.16
             3701.55,983.63 3759.75,1008.94 3822.00,1020.61
             3822.00,1020.61 3872.00,1027.09 3872.00,1027.09
             3872.00,1027.09 3882.00,1028.00 3882.00,1028.00
             3882.00,1028.00 3901.00,1029.00 3901.00,1029.00
             3901.00,1029.00 3921.00,1029.00 3921.00,1029.00
             3921.00,1029.00 3940.00,1028.00 3940.00,1028.00
             3940.00,1028.00 3950.00,1026.96 3950.00,1026.96
             3950.00,1026.96 3959.00,1026.96 3959.00,1026.96
             3982.92,1024.55 4006.91,1020.35 4030.00,1013.71
             4058.20,1005.60 4085.01,993.70 4107.00,973.83
             4141.12,943.01 4145.34,905.24 4163.31,866.00
             4171.96,847.10 4184.42,830.56 4200.00,816.85
             4211.69,806.56 4219.01,801.13 4232.00,792.69
             4234.97,790.76 4240.91,785.35 4244.04,785.78
             4250.96,786.73 4267.87,800.66 4272.57,806.01
             4278.28,812.53 4282.75,818.99 4286.13,827.00
             4297.41,853.81 4283.41,885.70 4268.25,908.00
             4261.20,918.39 4252.99,927.61 4244.72,937.00
             4234.91,948.13 4219.78,960.74 4208.00,970.00
             4159.11,1008.43 4100.28,1032.82 4040.00,1046.65
             4017.33,1051.85 3994.20,1055.47 3971.00,1057.09
             3971.00,1057.09 3961.00,1058.00 3961.00,1058.00
             3961.00,1058.00 3940.00,1059.00 3940.00,1059.00
             3940.00,1059.00 3917.00,1059.00 3917.00,1059.00
             3917.00,1059.00 3896.00,1058.00 3896.00,1058.00
             3896.00,1058.00 3886.00,1057.09 3886.00,1057.09
             3886.00,1057.09 3852.00,1053.27 3852.00,1053.27
             3810.53,1047.29 3765.48,1033.98 3728.00,1015.25
             3704.33,1003.41 3678.18,987.25 3659.00,969.00
             3659.00,969.00 3649.04,959.96 3649.04,959.96
             3632.88,943.80 3618.96,924.41 3608.75,904.00
             3606.78,900.06 3599.60,885.82 3599.67,882.11
             3599.70,880.33 3600.18,880.24 3601.00,879.00 Z
           M 4826.00,1146.00
           C 4828.93,1153.39 4824.48,1165.94 4824.03,1174.00
             4824.03,1174.00 4820.29,1199.00 4820.29,1199.00
             4820.29,1199.00 4819.71,1207.00 4819.71,1207.00
             4819.71,1207.00 4817.30,1220.00 4817.30,1220.00
             4817.30,1220.00 4816.57,1228.00 4816.57,1228.00
             4816.57,1228.00 4810.07,1264.83 4810.07,1264.83
             4810.07,1264.83 4805.20,1295.00 4805.20,1295.00
             4805.20,1295.00 4802.46,1307.00 4802.46,1307.00
             4802.46,1307.00 4780.49,1415.00 4780.49,1415.00
             4780.49,1415.00 4778.24,1423.00 4778.24,1423.00
             4778.24,1423.00 4762.49,1490.00 4762.49,1490.00
             4762.49,1490.00 4752.90,1528.00 4752.90,1528.00
             4752.90,1528.00 4741.33,1581.00 4741.33,1581.00
             4741.33,1581.00 4735.02,1608.72 4735.02,1608.72
             4735.02,1608.72 4730.20,1636.00 4730.20,1636.00
             4730.20,1636.00 4727.44,1649.00 4727.44,1649.00
             4727.44,1649.00 4723.57,1678.00 4723.57,1678.00
             4723.57,1678.00 4720.00,1700.00 4720.00,1700.00
             4720.00,1700.00 4720.00,1708.00 4720.00,1708.00
             4720.00,1708.00 4717.04,1731.00 4717.04,1731.00
             4717.04,1731.00 4717.04,1744.00 4717.04,1744.00
             4717.04,1744.00 4716.04,1754.00 4716.04,1754.00
             4716.04,1754.00 4716.04,1767.00 4716.04,1767.00
             4716.04,1767.00 4715.00,1782.00 4715.00,1782.00
             4715.00,1782.00 4716.00,1811.00 4716.00,1811.00
             4716.00,1811.00 4716.96,1821.00 4716.96,1821.00
             4716.96,1821.00 4716.96,1833.00 4716.96,1833.00
             4716.96,1833.00 4720.00,1858.00 4720.00,1858.00
             4720.00,1858.00 4720.00,1867.00 4720.00,1867.00
             4720.00,1867.00 4723.57,1889.00 4723.57,1889.00
             4723.57,1889.00 4724.29,1897.00 4724.29,1897.00
             4724.29,1897.00 4726.56,1909.00 4726.56,1909.00
             4726.56,1909.00 4731.46,1939.00 4731.46,1939.00
             4731.46,1939.00 4734.34,1951.00 4734.34,1951.00
             4734.34,1951.00 4748.25,2010.00 4748.25,2010.00
             4748.25,2010.00 4760.37,2054.17 4760.37,2054.17
             4760.37,2054.17 4770.80,2087.00 4770.80,2087.00
             4773.54,2094.71 4778.80,2107.32 4780.00,2115.00
             4780.00,2115.00 4771.00,2115.00 4771.00,2115.00
             4762.96,2115.01 4757.72,2116.32 4750.00,2117.56
             4719.25,2122.51 4688.88,2135.04 4663.00,2152.46
             4652.18,2159.74 4638.64,2169.01 4630.32,2179.00
             4628.53,2181.15 4624.72,2186.18 4624.73,2189.00
             4624.75,2196.00 4635.76,2197.80 4641.00,2197.99
             4641.00,2197.99 4652.00,2198.68 4652.00,2198.68
             4669.08,2197.40 4679.20,2198.36 4696.00,2201.39
             4737.56,2208.87 4771.66,2226.62 4798.39,2260.00
             4813.40,2278.75 4822.55,2301.83 4827.89,2325.00
             4827.89,2325.00 4830.70,2337.00 4830.70,2337.00
             4830.70,2337.00 4832.04,2357.00 4832.04,2357.00
             4832.04,2357.00 4832.82,2365.00 4832.82,2365.00
             4832.82,2365.00 4830.93,2385.00 4830.93,2385.00
             4830.93,2385.00 4830.93,2394.00 4830.93,2394.00
             4830.93,2394.00 4827.50,2407.00 4827.50,2407.00
             4822.15,2430.18 4809.78,2458.89 4790.00,2473.22
             4773.72,2485.01 4755.46,2487.03 4736.00,2487.00
             4736.00,2487.00 4717.00,2486.00 4717.00,2486.00
             4717.17,2488.10 4717.11,2489.85 4718.60,2491.57
             4719.83,2492.99 4733.12,2498.02 4736.00,2499.30
             4756.76,2508.60 4775.53,2517.78 4793.96,2531.42
             4816.70,2548.25 4836.47,2570.36 4841.54,2599.00
             4842.99,2607.23 4843.01,2618.55 4843.00,2627.00
             4843.00,2627.00 4842.00,2646.00 4842.00,2646.00
             4836.01,2644.98 4837.59,2642.67 4832.96,2640.31
             4829.56,2638.58 4823.84,2639.02 4820.00,2639.00
             4812.18,2638.96 4807.72,2637.43 4800.28,2635.99
             4776.09,2631.29 4752.26,2621.46 4737.16,2601.00
             4729.53,2590.67 4722.06,2576.08 4722.00,2563.00
             4722.00,2563.00 4722.00,2549.00 4722.00,2549.00
             4722.00,2549.00 4723.00,2531.00 4723.00,2531.00
             4723.00,2528.62 4723.13,2525.21 4722.26,2523.02
             4719.04,2514.90 4707.05,2516.00 4700.00,2516.00
             4701.32,2507.40 4695.97,2502.78 4691.14,2496.00
             4691.14,2496.00 4666.74,2459.00 4666.74,2459.00
             4638.57,2413.41 4616.60,2364.12 4597.87,2314.00
             4595.05,2306.46 4587.05,2288.23 4589.40,2281.00
             4589.40,2281.00 4604.41,2251.00 4604.41,2251.00
             4606.42,2246.96 4609.74,2240.64 4608.07,2236.05
             4606.28,2231.12 4602.11,2231.59 4598.00,2230.87
             4592.51,2229.91 4591.67,2226.63 4587.00,2227.47
             4578.20,2229.05 4570.41,2241.56 4564.62,2231.98
             4559.97,2224.27 4556.05,2211.72 4553.26,2203.00
             4553.26,2203.00 4539.11,2150.00 4539.11,2150.00
             4539.11,2150.00 4536.51,2140.00 4536.51,2140.00
             4536.51,2140.00 4535.33,2132.00 4535.33,2132.00
             4535.33,2132.00 4529.46,2105.00 4529.46,2105.00
             4529.46,2105.00 4528.54,2097.00 4528.54,2097.00
             4528.54,2097.00 4522.44,2063.00 4522.44,2063.00
             4522.44,2063.00 4521.57,2054.00 4521.57,2054.00
             4521.57,2054.00 4518.28,2034.00 4518.28,2034.00
             4518.28,2034.00 4517.58,2025.00 4517.58,2025.00
             4517.58,2025.00 4515.00,2009.00 4515.00,2009.00
             4515.00,2009.00 4515.00,2000.00 4515.00,2000.00
             4515.00,2000.00 4511.00,1967.00 4511.00,1967.00
             4511.00,1967.00 4509.91,1943.00 4509.91,1943.00
             4509.91,1943.00 4508.00,1917.00 4508.00,1917.00
             4508.00,1917.00 4508.00,1861.00 4508.00,1861.00
             4508.00,1861.00 4508.91,1849.00 4508.91,1849.00
             4508.91,1849.00 4510.09,1829.00 4510.09,1829.00
             4510.09,1829.00 4511.00,1819.00 4511.00,1819.00
             4511.20,1801.50 4517.58,1763.90 4521.34,1746.00
             4532.18,1694.28 4547.86,1648.32 4573.86,1602.00
             4610.53,1536.68 4661.57,1480.60 4705.00,1419.91
             4751.72,1354.63 4778.93,1297.76 4804.52,1222.00
             4804.52,1222.00 4818.74,1175.00 4818.74,1175.00
             4821.42,1165.41 4824.66,1155.90 4826.00,1146.00 Z
           M 4292.00,2138.00
           C 4295.12,2142.38 4298.00,2156.13 4299.77,2162.00
             4299.77,2162.00 4313.19,2205.00 4313.19,2205.00
             4313.19,2205.00 4335.91,2268.00 4335.91,2268.00
             4335.91,2268.00 4347.60,2298.00 4347.60,2298.00
             4347.60,2298.00 4345.00,2327.00 4345.00,2327.00
             4345.00,2327.00 4345.00,2343.00 4345.00,2343.00
             4345.00,2343.00 4344.18,2353.00 4344.18,2353.00
             4344.18,2353.00 4344.98,2361.00 4344.98,2361.00
             4344.98,2361.00 4344.98,2378.00 4344.98,2378.00
             4345.04,2387.12 4347.12,2396.04 4348.56,2405.00
             4352.80,2431.35 4360.29,2454.08 4372.25,2478.00
             4374.89,2483.29 4383.74,2501.46 4387.26,2504.69
             4389.00,2506.28 4389.88,2506.37 4392.00,2507.00
             4392.00,2507.00 4394.72,2539.00 4394.72,2539.00
             4394.72,2539.00 4395.29,2547.00 4395.29,2547.00
             4395.29,2547.00 4398.39,2563.00 4398.39,2563.00
             4398.39,2563.00 4402.52,2585.00 4402.52,2585.00
             4402.52,2585.00 4405.08,2593.00 4405.08,2593.00
             4405.08,2593.00 4414.08,2623.00 4414.08,2623.00
             4414.08,2623.00 4429.00,2660.00 4429.00,2660.00
             4429.00,2660.00 4436.00,2677.00 4436.00,2677.00
             4418.78,2684.31 4413.77,2687.46 4398.00,2696.86
             4398.00,2696.86 4382.00,2706.93 4382.00,2706.93
             4376.99,2708.27 4376.79,2703.07 4369.00,2703.62
             4343.81,2705.39 4313.12,2711.49 4290.00,2721.71
             4279.02,2726.56 4268.24,2732.59 4259.00,2740.28
             4259.00,2740.28 4242.99,2755.40 4242.99,2755.40
             4240.28,2757.17 4236.24,2757.27 4233.00,2758.21
             4227.10,2759.90 4215.46,2763.73 4210.00,2764.00
             4209.28,2756.47 4211.26,2755.38 4210.96,2748.00
             4210.73,2742.32 4208.26,2734.42 4204.52,2730.10
             4201.12,2726.17 4198.64,2726.17 4195.53,2720.98
             4188.08,2708.59 4175.17,2679.34 4169.10,2665.17
             4169.10,2665.17 4151.95,2620.00 4151.95,2620.00
             4151.95,2620.00 4150.32,2613.00 4150.32,2613.00
             4150.32,2613.00 4144.89,2598.00 4144.89,2598.00
             4144.89,2598.00 4133.46,2552.00 4133.46,2552.00
             4133.46,2552.00 4132.39,2543.00 4132.39,2543.00
             4132.39,2543.00 4129.17,2524.00 4129.17,2524.00
             4129.17,2524.00 4127.96,2501.00 4127.96,2501.00
             4127.96,2501.00 4127.00,2489.00 4127.00,2489.00
             4127.00,2489.00 4127.00,2479.00 4127.00,2479.00
             4127.00,2479.00 4127.96,2468.00 4127.96,2468.00
             4127.96,2468.00 4129.17,2445.00 4129.17,2445.00
             4129.17,2445.00 4132.39,2427.00 4132.39,2427.00
             4136.87,2402.13 4143.55,2378.09 4154.03,2355.00
             4170.44,2318.83 4194.26,2286.36 4216.96,2254.00
             4216.96,2254.00 4262.69,2185.00 4262.69,2185.00
             4262.69,2185.00 4292.00,2138.00 4292.00,2138.00 Z
           M 5599.00,5321.00
           C 5594.78,5321.76 5592.36,5322.35 5588.00,5321.53
             5575.17,5319.13 5557.12,5301.13 5548.00,5292.00
             5548.00,5292.00 5521.91,5264.00 5521.91,5264.00
             5499.00,5239.41 5474.36,5216.24 5446.00,5198.09
             5389.88,5162.16 5312.79,5138.31 5251.00,5109.39
             5209.47,5089.94 5166.59,5062.80 5132.00,5032.71
             5116.76,5019.45 5102.65,5004.77 5088.91,4990.00
             5059.68,4958.57 5031.24,4915.21 5021.50,4873.00
             5021.50,4873.00 5018.30,4860.00 5018.30,4860.00
             5017.00,4850.90 5016.90,4841.20 5017.00,4832.00
             5017.39,4799.13 5034.02,4768.53 5053.34,4742.83
             5070.34,4720.23 5082.65,4707.19 5101.96,4687.00
             5101.96,4687.00 5130.00,4658.01 5130.00,4658.01
             5130.00,4658.01 5141.00,4647.99 5141.00,4647.99
             5212.26,4578.45 5299.67,4492.63 5324.49,4393.00
             5329.10,4374.49 5331.83,4355.04 5332.91,4336.00
             5332.91,4336.00 5330.08,4307.00 5330.08,4307.00
             5327.36,4290.41 5323.70,4276.36 5316.55,4261.00
             5302.64,4231.10 5278.65,4206.60 5253.00,4186.52
             5253.00,4186.52 5232.00,4171.97 5232.00,4171.97
             5185.58,4140.45 5117.92,4111.98 5065.00,4092.13
             5065.00,4092.13 5031.00,4079.06 5031.00,4079.06
             5031.00,4079.06 5015.00,4073.53 5015.00,4073.53
             5015.00,4073.53 5006.00,4068.84 5006.00,4068.84
             5006.00,4068.84 4998.00,4067.21 4998.00,4067.21
             4998.00,4067.21 4991.00,4064.54 4991.00,4064.54
             4991.00,4064.54 4975.00,4059.07 4975.00,4059.07
             4975.00,4059.07 4861.00,4017.47 4861.00,4017.47
             4861.00,4017.47 4791.00,3989.58 4791.00,3989.58
             4686.72,3947.33 4579.80,3891.20 4498.00,3812.96
             4498.00,3812.96 4466.72,3779.00 4466.72,3779.00
             4403.41,3706.09 4359.91,3613.07 4339.49,3519.00
             4339.49,3519.00 4336.51,3508.00 4336.51,3508.00
             4336.51,3508.00 4332.39,3483.00 4332.39,3483.00
             4332.39,3483.00 4329.29,3468.00 4329.29,3468.00
             4329.29,3468.00 4328.71,3460.00 4328.71,3460.00
             4328.71,3460.00 4326.00,3443.00 4326.00,3443.00
             4326.00,3443.00 4326.00,3434.00 4326.00,3434.00
             4326.00,3434.00 4322.91,3401.00 4322.91,3401.00
             4322.91,3401.00 4322.00,3389.00 4322.00,3389.00
             4322.00,3389.00 4322.00,3337.00 4322.00,3337.00
             4322.00,3337.00 4323.04,3327.00 4323.04,3327.00
             4323.04,3327.00 4323.04,3318.00 4323.04,3318.00
             4323.04,3318.00 4326.00,3294.00 4326.00,3294.00
             4326.00,3294.00 4326.00,3283.00 4326.00,3283.00
             4326.00,3283.00 4328.71,3265.00 4328.71,3265.00
             4328.71,3265.00 4329.43,3255.00 4329.43,3255.00
             4329.43,3255.00 4332.56,3238.00 4332.56,3238.00
             4332.56,3238.00 4336.46,3213.00 4336.46,3213.00
             4336.46,3213.00 4339.54,3200.00 4339.54,3200.00
             4339.54,3200.00 4340.52,3193.00 4340.52,3193.00
             4340.52,3193.00 4350.08,3156.00 4350.08,3156.00
             4370.47,3081.57 4403.39,3010.33 4453.44,2951.00
             4491.21,2906.22 4541.78,2863.40 4591.00,2831.54
             4591.00,2831.54 4607.58,2821.17 4607.58,2821.17
             4607.58,2821.17 4614.00,2818.27 4614.00,2818.27
             4614.00,2818.27 4628.00,2808.45 4628.00,2808.45
             4674.35,2780.95 4731.78,2753.35 4782.00,2733.66
             4782.00,2733.66 4818.00,2719.54 4818.00,2719.54
             4818.00,2719.54 4833.00,2715.13 4833.00,2715.13
             4833.00,2715.13 4840.00,2711.92 4840.00,2711.92
             4840.00,2711.92 4857.00,2705.80 4857.00,2705.80
             4857.00,2705.80 4872.00,2701.26 4872.00,2701.26
             4893.85,2694.18 4915.58,2688.19 4938.00,2683.33
             4938.00,2683.33 4948.00,2680.67 4948.00,2680.67
             4959.88,2678.13 4993.53,2673.02 5005.00,2673.00
             5005.00,2673.00 5044.00,2673.00 5044.00,2673.00
             5052.31,2673.01 5057.84,2674.28 5065.83,2675.82
             5065.83,2675.82 5075.00,2677.24 5075.00,2677.24
             5091.43,2681.00 5107.47,2687.33 5122.00,2695.86
             5122.00,2695.86 5142.00,2709.42 5142.00,2709.42
             5142.00,2709.42 5150.00,2715.30 5150.00,2715.30
             5150.00,2715.30 5156.00,2718.00 5156.00,2718.00
             5156.00,2718.00 5133.00,2727.86 5133.00,2727.86
             5133.00,2727.86 5104.00,2741.46 5104.00,2741.46
             5104.00,2741.46 5094.00,2743.92 5094.00,2743.92
             5094.00,2743.92 5069.00,2750.74 5069.00,2750.74
             5069.00,2750.74 5051.00,2756.43 5051.00,2756.43
             5051.00,2756.43 5002.00,2772.09 5002.00,2772.09
             4932.87,2796.88 4863.20,2827.73 4802.00,2868.65
             4802.00,2868.65 4772.00,2889.51 4772.00,2889.51
             4772.00,2889.51 4730.00,2924.17 4730.00,2924.17
             4730.00,2924.17 4710.00,2944.00 4710.00,2944.00
             4710.00,2944.00 4689.17,2965.00 4689.17,2965.00
             4666.49,2990.07 4645.58,3017.50 4627.44,3046.00
             4627.44,3046.00 4606.14,3083.00 4606.14,3083.00
             4579.05,3131.94 4558.62,3193.56 4551.71,3249.00
             4551.71,3249.00 4549.04,3266.00 4549.04,3266.00
             4549.04,3266.00 4549.04,3276.00 4549.04,3276.00
             4549.04,3276.00 4547.00,3301.00 4547.00,3301.00
             4547.00,3301.00 4547.00,3336.00 4547.00,3336.00
             4547.00,3336.00 4549.04,3359.00 4549.04,3359.00
             4549.04,3359.00 4549.04,3369.00 4549.04,3369.00
             4549.04,3369.00 4551.71,3386.00 4551.71,3386.00
             4551.71,3386.00 4552.29,3394.00 4552.29,3394.00
             4552.29,3394.00 4555.54,3410.00 4555.54,3410.00
             4555.54,3410.00 4566.08,3455.00 4566.08,3455.00
             4573.75,3483.19 4588.27,3522.44 4602.14,3548.00
             4624.16,3588.56 4645.38,3621.97 4677.09,3656.00
             4739.68,3723.19 4829.44,3772.57 4911.00,3813.35
             4911.00,3813.35 5016.00,3864.26 5016.00,3864.26
             5067.29,3889.08 5118.06,3915.28 5168.00,3942.70
             5236.57,3980.34 5317.01,4030.32 5371.20,4086.56
             5405.28,4121.94 5432.49,4158.87 5448.11,4206.00
             5451.85,4217.28 5457.18,4240.23 5458.94,4252.00
             5458.94,4252.00 5458.94,4261.00 5458.94,4261.00
             5458.94,4261.00 5461.00,4281.00 5461.00,4281.00
             5461.00,4281.00 5461.00,4308.00 5461.00,4308.00
             5461.00,4308.00 5458.94,4327.00 5458.94,4327.00
             5458.94,4327.00 5458.94,4336.00 5458.94,4336.00
             5458.94,4336.00 5448.41,4387.00 5448.41,4387.00
             5448.41,4387.00 5445.75,4395.00 5445.75,4395.00
             5429.87,4451.33 5399.61,4508.08 5363.49,4554.00
             5352.40,4568.10 5340.42,4581.05 5328.04,4594.00
             5328.04,4594.00 5312.00,4610.91 5312.00,4610.91
             5312.00,4610.91 5256.00,4661.71 5256.00,4661.71
             5256.00,4661.71 5243.00,4672.29 5243.00,4672.29
             5243.00,4672.29 5230.91,4683.25 5230.91,4683.25
             5198.38,4712.11 5171.77,4737.89 5162.34,4782.00
             5160.79,4789.23 5159.09,4796.57 5159.00,4804.00
             5158.75,4825.70 5160.42,4840.03 5166.44,4861.00
             5171.00,4876.85 5176.68,4892.30 5184.26,4907.00
             5231.35,4998.32 5326.22,5049.32 5410.00,5101.91
             5410.00,5101.91 5470.00,5141.96 5470.00,5141.96
             5503.43,5165.43 5540.41,5194.94 5565.66,5227.00
             5577.82,5242.44 5588.65,5259.00 5594.43,5278.00
             5600.24,5297.09 5599.00,5301.78 5599.00,5321.00 Z
           M 4587.00,2818.00
           C 4587.00,2818.00 4550.17,2843.67 4550.17,2843.67
             4519.89,2866.23 4491.40,2890.96 4465.01,2918.00
             4454.78,2928.49 4440.51,2945.34 4431.42,2957.00
             4428.45,2960.82 4417.37,2976.04 4414.70,2978.01
             4414.70,2978.01 4384.00,2992.64 4384.00,2992.64
             4384.00,2992.64 4329.00,3020.10 4329.00,3020.10
             4277.29,3046.76 4226.05,3077.73 4179.00,3111.92
             4159.87,3125.82 4140.84,3140.77 4123.00,3156.29
             4123.00,3156.29 4114.00,3164.72 4114.00,3164.72
             4114.00,3164.72 4090.00,3186.09 4090.00,3186.09
             4073.12,3201.81 4057.19,3218.81 4041.84,3236.00
             4041.84,3236.00 4007.21,3276.01 4007.21,3276.01
             3963.72,3330.15 3926.62,3389.51 3896.36,3452.00
             3880.24,3485.28 3867.13,3519.94 3855.49,3555.00
             3846.94,3580.73 3840.22,3606.54 3834.49,3633.00
             3834.49,3633.00 3831.46,3645.00 3831.46,3645.00
             3831.46,3645.00 3826.92,3672.00 3826.92,3672.00
             3826.92,3672.00 3820.00,3722.00 3820.00,3722.00
             3820.00,3722.00 3818.00,3754.00 3818.00,3754.00
             3818.00,3754.00 3817.00,3771.00 3817.00,3771.00
             3817.00,3771.00 3817.00,3806.00 3817.00,3806.00
             3817.00,3806.00 3818.00,3826.00 3818.00,3826.00
             3818.00,3826.00 3820.00,3858.00 3820.00,3858.00
             3820.00,3858.00 3824.00,3903.00 3824.00,3903.00
             3824.00,3903.00 3824.00,3914.00 3824.00,3914.00
             3824.00,3914.00 3828.00,3943.00 3828.00,3943.00
             3828.00,3943.00 3828.00,3952.00 3828.00,3952.00
             3828.00,3952.00 3831.00,3972.00 3831.00,3972.00
             3831.00,3972.00 3831.00,3981.00 3831.00,3981.00
             3831.00,3981.00 3834.94,4008.00 3834.94,4008.00
             3834.94,4008.00 3834.94,4018.00 3834.94,4018.00
             3834.94,4018.00 3838.00,4039.00 3838.00,4039.00
             3838.00,4039.00 3838.00,4050.00 3838.00,4050.00
             3838.00,4050.00 3842.00,4089.00 3842.00,4089.00
             3842.00,4089.00 3845.00,4131.00 3845.00,4131.00
             3845.00,4131.00 3845.00,4140.00 3845.00,4140.00
             3845.00,4140.00 3846.00,4158.00 3846.00,4158.00
             3846.00,4158.00 3847.04,4172.00 3847.04,4172.00
             3847.04,4172.00 3847.04,4186.00 3847.04,4186.00
             3847.04,4186.00 3848.00,4198.00 3848.00,4198.00
             3848.00,4198.00 3848.00,4218.00 3848.00,4218.00
             3848.00,4218.00 3847.00,4240.00 3847.00,4240.00
             3847.00,4240.00 3844.96,4262.00 3844.96,4262.00
             3844.96,4262.00 3844.96,4272.00 3844.96,4272.00
             3844.96,4272.00 3842.29,4289.00 3842.29,4289.00
             3842.29,4289.00 3841.56,4298.00 3841.56,4298.00
             3841.56,4298.00 3838.46,4312.00 3838.46,4312.00
             3834.98,4330.44 3829.99,4348.37 3823.47,4366.00
             3785.74,4468.10 3700.18,4554.89 3616.09,4620.85
             3514.73,4700.35 3401.41,4774.64 3275.00,4806.41
             3275.00,4806.41 3235.00,4814.61 3235.00,4814.61
             3235.00,4814.61 3219.00,4817.71 3219.00,4817.71
             3219.00,4817.71 3211.00,4818.42 3211.00,4818.42
             3211.00,4818.42 3195.00,4821.00 3195.00,4821.00
             3195.00,4821.00 3185.00,4821.00 3185.00,4821.00
             3185.00,4821.00 3161.00,4823.96 3161.00,4823.96
             3161.00,4823.96 3152.00,4823.96 3152.00,4823.96
             3152.00,4823.96 3140.00,4825.00 3140.00,4825.00
             3140.00,4825.00 3078.00,4825.00 3078.00,4825.00
             3078.00,4825.00 3068.00,4824.09 3068.00,4824.09
             3068.00,4824.09 3046.00,4822.83 3046.00,4822.83
             3046.00,4822.83 3022.00,4821.00 3022.00,4821.00
             3022.00,4821.00 2997.00,4818.00 2997.00,4818.00
             2997.00,4818.00 2989.00,4818.00 2989.00,4818.00
             2989.00,4818.00 2965.00,4814.29 2965.00,4814.29
             2965.00,4814.29 2957.00,4813.71 2957.00,4813.71
             2957.00,4813.71 2939.00,4810.44 2939.00,4810.44
             2939.00,4810.44 2931.00,4809.70 2931.00,4809.70
             2931.00,4809.70 2920.00,4807.44 2920.00,4807.44
             2920.00,4807.44 2912.00,4806.56 2912.00,4806.56
             2912.00,4806.56 2897.00,4803.46 2897.00,4803.46
             2897.00,4803.46 2889.00,4802.56 2889.00,4802.56
             2889.00,4802.56 2854.00,4796.44 2854.00,4796.44
             2854.00,4796.44 2845.00,4795.57 2845.00,4795.57
             2845.00,4795.57 2830.00,4792.94 2830.00,4792.94
             2830.00,4792.94 2821.00,4792.94 2821.00,4792.94
             2821.00,4792.94 2790.00,4789.91 2790.00,4789.91
             2790.00,4789.91 2780.00,4789.00 2780.00,4789.00
             2743.54,4788.58 2708.86,4794.97 2675.00,4808.54
             2675.00,4808.54 2638.00,4823.42 2638.00,4823.42
             2634.81,4824.72 2624.30,4828.16 2621.23,4827.09
             2616.20,4825.35 2619.94,4820.33 2622.06,4818.00
             2629.09,4810.27 2633.47,4807.05 2641.83,4801.23
             2660.53,4788.21 2681.62,4779.42 2704.00,4775.39
             2711.64,4774.01 2714.98,4773.01 2723.00,4773.00
             2723.00,4773.00 2745.00,4773.00 2745.00,4773.00
             2745.00,4773.00 2770.00,4776.00 2770.00,4776.00
             2770.00,4776.00 2778.00,4776.00 2778.00,4776.00
             2778.00,4776.00 2800.00,4779.71 2800.00,4779.71
             2800.00,4779.71 2808.00,4780.29 2808.00,4780.29
             2808.00,4780.29 2832.00,4784.00 2832.00,4784.00
             2832.00,4784.00 2840.00,4784.00 2840.00,4784.00
             2840.00,4784.00 2875.00,4787.00 2875.00,4787.00
             2875.00,4787.00 2907.00,4789.00 2907.00,4789.00
             2907.00,4789.00 2955.00,4789.00 2955.00,4789.00
             2955.00,4789.00 2967.00,4788.09 2967.00,4788.09
             2967.00,4788.09 2993.00,4787.00 2993.00,4787.00
             2993.00,4787.00 3045.00,4780.44 3045.00,4780.44
             3045.00,4780.44 3075.00,4775.54 3075.00,4775.54
             3075.00,4775.54 3083.00,4773.51 3083.00,4773.51
             3083.00,4773.51 3126.00,4762.74 3126.00,4762.74
             3155.14,4754.62 3184.02,4744.53 3212.00,4732.99
             3212.00,4732.99 3242.00,4719.71 3242.00,4719.71
             3243.91,4718.86 3249.12,4716.77 3251.00,4716.41
             3254.23,4715.79 3256.75,4716.71 3259.91,4715.07
             3263.24,4713.33 3266.15,4708.43 3271.17,4705.50
             3271.17,4705.50 3308.00,4684.91 3308.00,4684.91
             3338.51,4666.61 3385.35,4632.94 3410.15,4608.05
             3410.15,4608.05 3441.56,4576.00 3441.56,4576.00
             3477.45,4533.44 3501.66,4485.67 3501.00,4429.00
             3500.88,4419.42 3499.08,4408.51 3497.59,4399.00
             3497.59,4399.00 3496.54,4390.00 3496.54,4390.00
             3491.98,4364.47 3484.23,4339.79 3476.77,4315.00
             3476.77,4315.00 3451.57,4237.00 3451.57,4237.00
             3443.36,4209.65 3436.02,4181.89 3430.01,4154.00
             3430.01,4154.00 3421.56,4107.00 3421.56,4107.00
             3421.56,4107.00 3419.29,4095.00 3419.29,4095.00
             3419.29,4095.00 3418.57,4087.00 3418.57,4087.00
             3418.57,4087.00 3415.29,4068.00 3415.29,4068.00
             3415.29,4068.00 3414.72,4058.00 3414.72,4058.00
             3414.72,4058.00 3412.00,4040.00 3412.00,4040.00
             3412.00,4040.00 3412.00,4029.00 3412.00,4029.00
             3412.00,4029.00 3408.00,3986.00 3408.00,3986.00
             3408.00,3986.00 3408.00,3967.00 3408.00,3967.00
             3408.00,3967.00 3407.00,3952.00 3407.00,3952.00
             3407.00,3952.00 3407.00,3896.00 3407.00,3896.00
             3407.00,3896.00 3408.00,3881.00 3408.00,3881.00
             3408.00,3881.00 3408.00,3860.00 3408.00,3860.00
             3408.00,3860.00 3408.91,3849.00 3408.91,3849.00
             3408.91,3849.00 3412.00,3809.00 3412.00,3809.00
             3412.00,3809.00 3415.00,3785.00 3415.00,3785.00
             3415.00,3785.00 3415.00,3777.00 3415.00,3777.00
             3415.00,3777.00 3418.57,3755.00 3418.57,3755.00
             3418.57,3755.00 3419.29,3746.00 3419.29,3746.00
             3419.29,3746.00 3421.71,3733.00 3421.71,3733.00
             3421.71,3733.00 3422.44,3725.00 3422.44,3725.00
             3422.44,3725.00 3425.56,3709.00 3425.56,3709.00
             3436.01,3644.06 3454.40,3570.49 3475.11,3508.00
             3475.11,3508.00 3479.89,3492.00 3479.89,3492.00
             3479.89,3492.00 3504.37,3423.00 3504.37,3423.00
             3540.94,3324.89 3591.48,3221.30 3655.00,3137.91
             3655.00,3137.91 3677.44,3109.00 3677.44,3109.00
             3677.44,3109.00 3701.00,3082.01 3701.00,3082.01
             3701.00,3082.01 3722.58,3060.20 3722.58,3060.20
             3722.58,3060.20 3747.00,3036.16 3747.00,3036.16
             3860.47,2934.41 4008.31,2864.52 4157.00,2833.34
             4157.00,2833.34 4186.96,2826.70 4186.96,2826.70
             4186.96,2826.70 4238.00,2818.71 4238.00,2818.71
             4238.00,2818.71 4254.00,2816.00 4254.00,2816.00
             4254.00,2816.00 4262.00,2816.00 4262.00,2816.00
             4262.00,2816.00 4294.00,2812.00 4294.00,2812.00
             4294.00,2812.00 4328.00,2809.91 4328.00,2809.91
             4328.00,2809.91 4340.00,2809.00 4340.00,2809.00
             4340.00,2809.00 4369.00,2809.00 4369.00,2809.00
             4369.00,2809.00 4384.00,2808.00 4384.00,2808.00
             4384.00,2808.00 4428.00,2808.00 4428.00,2808.00
             4428.00,2808.00 4445.00,2809.00 4445.00,2809.00
             4445.00,2809.00 4477.00,2809.00 4477.00,2809.00
             4477.00,2809.00 4489.00,2810.00 4489.00,2810.00
             4489.00,2810.00 4498.00,2810.00 4498.00,2810.00
             4498.00,2810.00 4518.00,2811.96 4518.00,2811.96
             4518.00,2811.96 4531.00,2811.96 4531.00,2811.96
             4531.00,2811.96 4570.00,2815.83 4570.00,2815.83
             4576.28,2816.43 4581.06,2814.97 4587.00,2818.00 Z
           M 4334.00,3914.00
           C 4336.50,3920.31 4331.89,3935.64 4331.05,3943.00
             4331.05,3943.00 4327.46,3961.00 4327.46,3961.00
             4322.50,3987.29 4315.70,4012.77 4306.69,4038.00
             4282.30,4106.33 4233.76,4175.61 4213.77,4242.00
             4202.55,4279.27 4201.82,4302.83 4202.00,4341.00
             4202.00,4341.00 4202.83,4350.99 4202.83,4350.99
             4202.83,4350.99 4202.83,4357.28 4202.83,4357.28
             4203.14,4365.97 4207.29,4386.02 4209.35,4395.00
             4221.03,4445.91 4242.40,4486.95 4275.80,4527.04
             4275.80,4527.04 4293.01,4547.00 4293.01,4547.00
             4308.87,4563.25 4325.46,4578.95 4343.00,4593.39
             4349.78,4598.96 4367.70,4611.29 4372.00,4617.00
             4372.00,4617.00 4360.00,4614.46 4360.00,4614.46
             4319.74,4607.15 4281.30,4590.71 4250.91,4562.72
             4250.91,4562.72 4240.04,4552.96 4240.04,4552.96
             4219.32,4532.24 4202.17,4507.16 4189.09,4481.00
             4177.55,4457.93 4169.61,4433.13 4164.34,4408.00
             4161.33,4393.66 4158.02,4378.75 4158.00,4364.00
             4158.00,4364.00 4158.00,4326.00 4158.00,4326.00
             4158.01,4317.09 4159.64,4311.45 4160.72,4303.00
             4164.10,4276.53 4172.52,4250.65 4182.55,4226.00
             4206.97,4165.95 4239.72,4111.80 4270.47,4055.00
             4270.47,4055.00 4300.14,3998.00 4300.14,3998.00
             4300.14,3998.00 4311.88,3972.00 4311.88,3972.00
             4317.52,3959.79 4331.54,3926.08 4334.00,3914.00 Z
           M 4722.00,3976.00
           C 4729.74,3976.43 4741.40,3983.33 4749.00,3986.58
             4749.00,3986.58 4808.00,4011.36 4808.00,4011.36
             4808.00,4011.36 4933.00,4058.49 4933.00,4058.49
             4933.00,4058.49 4999.00,4082.00 4999.00,4082.00
             4997.35,4094.52 4995.02,4107.36 4995.00,4120.00
             4995.00,4120.00 4995.00,4165.00 4995.00,4165.00
             4995.00,4165.00 4998.71,4198.00 4998.71,4198.00
             4998.71,4198.00 4999.44,4207.00 4999.44,4207.00
             5005.22,4243.91 5019.25,4281.06 5040.34,4311.96
             5051.06,4327.66 5064.12,4341.22 5078.00,4354.09
             5094.10,4369.01 5112.86,4381.05 5133.00,4389.83
             5152.37,4398.28 5182.97,4406.13 5204.00,4408.94
             5204.00,4408.94 5214.00,4408.94 5214.00,4408.94
             5214.00,4408.94 5236.00,4411.00 5236.00,4411.00
             5236.00,4411.00 5251.00,4412.00 5251.00,4412.00
             5251.00,4412.00 5272.00,4411.00 5272.00,4411.00
             5280.58,4410.90 5297.85,4409.12 5306.00,4407.00
             5303.56,4416.04 5294.98,4436.51 5290.54,4445.00
             5288.84,4448.26 5285.70,4455.35 5283.39,4457.69
             5280.88,4460.24 5278.15,4459.85 5275.00,4460.96
             5275.00,4460.96 5256.00,4468.91 5256.00,4468.91
             5234.00,4477.50 5211.84,4485.99 5189.00,4492.08
             5189.00,4492.08 5180.00,4493.90 5180.00,4493.90
             5180.00,4493.90 5146.00,4500.43 5146.00,4500.43
             5146.00,4500.43 5131.00,4503.00 5131.00,4503.00
             5131.00,4503.00 5121.00,4503.00 5121.00,4503.00
             5121.00,4503.00 5093.00,4505.00 5093.00,4505.00
             5093.00,4505.00 5079.00,4505.96 5079.00,4505.96
             5079.00,4505.96 5066.00,4505.00 5066.00,4505.00
             5066.00,4505.00 5039.00,4503.00 5039.00,4503.00
             5039.00,4503.00 5029.00,4503.00 5029.00,4503.00
             5029.00,4503.00 4992.00,4496.46 4992.00,4496.46
             4930.27,4484.81 4869.42,4457.30 4822.00,4415.71
             4770.70,4370.73 4734.00,4297.92 4712.08,4234.00
             4712.08,4234.00 4703.43,4205.00 4703.43,4205.00
             4697.82,4186.18 4693.16,4167.30 4689.54,4148.00
             4688.18,4140.76 4684.51,4125.96 4685.11,4119.00
             4685.55,4113.82 4689.24,4108.66 4691.56,4104.00
             4695.89,4095.33 4699.82,4086.17 4702.93,4077.00
             4710.08,4055.89 4715.23,4035.05 4718.43,4013.00
             4720.99,3995.32 4722.00,3994.84 4722.00,3976.00 Z
           M 5728.00,4400.00
           C 5728.36,4392.22 5730.20,4388.26 5731.79,4381.00
             5732.29,4378.73 5732.70,4374.60 5735.30,4373.78
             5737.44,4373.11 5749.14,4377.40 5752.00,4378.33
             5752.00,4378.33 5794.00,4390.52 5794.00,4390.52
             5794.00,4390.52 5829.00,4398.51 5829.00,4398.51
             5829.00,4398.51 5858.00,4404.56 5858.00,4404.56
             5858.00,4404.56 5867.00,4405.59 5867.00,4405.59
             5867.00,4405.59 5887.00,4409.00 5887.00,4409.00
             5887.00,4409.00 5895.00,4409.00 5895.00,4409.00
             5895.00,4409.00 5932.00,4412.00 5932.00,4412.00
             5932.00,4412.00 5932.00,4414.00 5932.00,4414.00
             5932.00,4414.00 5913.00,4417.56 5913.00,4417.56
             5913.00,4417.56 5905.00,4418.17 5905.00,4418.17
             5905.00,4418.17 5875.00,4421.00 5875.00,4421.00
             5875.00,4421.00 5854.00,4421.00 5854.00,4421.00
             5854.00,4421.00 5822.00,4418.00 5822.00,4418.00
             5822.00,4418.00 5814.00,4418.00 5814.00,4418.00
             5814.00,4418.00 5754.00,4406.50 5754.00,4406.50
             5754.00,4406.50 5728.00,4400.00 5728.00,4400.00 Z
           M 6214.00,5605.21
           C 6214.00,5605.21 6221.00,5605.21 6221.00,5605.21
             6275.80,5604.74 6322.34,5645.90 6323.00,5702.00
             6323.12,5712.56 6321.33,5723.89 6318.28,5734.00
             6315.73,5742.45 6311.86,5750.65 6307.00,5758.00
             6301.50,5766.31 6297.34,5771.11 6290.00,5777.91
             6260.94,5804.84 6226.41,5802.69 6190.00,5806.17
             6190.00,5806.17 6117.00,5812.83 6117.00,5812.83
             6117.00,5812.83 6028.00,5820.17 6028.00,5820.17
             6028.00,5820.17 5701.00,5848.83 5701.00,5848.83
             5701.00,5848.83 5647.00,5853.17 5647.00,5853.17
             5647.00,5853.17 5539.00,5862.83 5539.00,5862.83
             5539.00,5862.83 5485.00,5867.17 5485.00,5867.17
             5485.00,5867.17 5429.00,5872.17 5429.00,5872.17
             5429.00,5872.17 5406.00,5874.09 5406.00,5874.09
             5406.00,5874.09 5395.00,5875.00 5395.00,5875.00
             5338.67,5875.24 5294.35,5830.22 5295.00,5774.00
             5295.45,5735.30 5320.19,5699.11 5356.00,5684.60
             5371.01,5678.52 5386.11,5677.35 5402.00,5675.83
             5402.00,5675.83 5448.00,5671.91 5448.00,5671.91
             5448.00,5671.91 5488.00,5668.17 5488.00,5668.17
             5488.00,5668.17 5541.00,5663.83 5541.00,5663.83
             5541.00,5663.83 5586.00,5659.96 5586.00,5659.96
             5586.00,5659.96 5604.00,5658.17 5604.00,5658.17
             5604.00,5658.17 5649.00,5654.17 5649.00,5654.17
             5649.00,5654.17 5750.00,5645.83 5750.00,5645.83
             5750.00,5645.83 5836.00,5638.09 5836.00,5638.09
             5836.00,5638.09 5938.00,5629.17 5938.00,5629.17
             5938.00,5629.17 5969.00,5626.83 5969.00,5626.83
             5969.00,5626.83 6065.00,5618.17 6065.00,5618.17
             6065.00,5618.17 6170.00,5609.17 6170.00,5609.17
             6170.00,5609.17 6204.00,5606.17 6204.00,5606.17
             6204.00,5606.17 6214.00,5605.21 6214.00,5605.21 Z" />
</svg>
