<?xml version="1.0" encoding="UTF-8" standalone="no"?>
<!DOCTYPE svg PUBLIC "-//W3C//DTD SVG 20010904//EN"
              "http://www.w3.org/TR/2001/REC-SVG-20010904/DTD/svg10.dtd">

<svg xmlns="http://www.w3.org/2000/svg"
     width="16in" height="10.4533in"
     viewBox="0 0 9600 6272">
  <path id="pupils and snoot"
        fill="none" stroke="black" stroke-width="1"
        d="M 5822.00,342.21
           C 5822.00,342.21 5828.00,342.21 5828.00,342.21
             5855.32,341.68 5881.10,350.96 5900.91,370.17
             5927.46,395.92 5937.18,439.29 5924.56,474.00
             5914.29,502.27 5901.02,511.89 5879.00,530.25
             5879.00,530.25 5841.00,561.92 5841.00,561.92
             5841.00,561.92 5602.00,761.92 5602.00,761.92
             5602.00,761.92 5486.00,858.92 5486.00,858.92
             5486.00,858.92 5449.00,889.74 5449.00,889.74
             5449.00,889.74 5438.00,898.30 5438.00,898.30
             5438.00,898.30 5316.00,1000.92 5316.00,1000.92
             5316.00,1000.92 5279.00,1031.08 5279.00,1031.08
             5279.00,1031.08 5183.00,1111.59 5183.00,1111.59
             5183.00,1111.59 5152.00,1137.92 5152.00,1137.92
             5152.00,1137.92 5135.00,1151.41 5135.00,1151.41
             5119.12,1164.63 5108.11,1175.03 5088.00,1181.92
             5053.27,1193.84 5010.86,1184.41 4985.17,1157.91
             4965.96,1138.10 4956.68,1112.32 4957.00,1085.00
             4957.29,1060.81 4968.41,1035.37 4985.17,1018.09
             4985.17,1018.09 5010.00,996.93 5010.00,996.93
             5010.00,996.93 5054.00,959.92 5054.00,959.92
             5054.00,959.92 5139.00,889.25 5139.00,889.25
             5139.00,889.25 5615.00,491.59 5615.00,491.59
             5615.00,491.59 5693.00,426.08 5693.00,426.08
             5693.00,426.08 5728.00,397.57 5728.00,397.57
             5749.13,379.51 5771.66,357.01 5798.00,347.44
             5806.12,344.48 5813.59,343.64 5822.00,342.21 Z
           M 7682.00,3845.42
           C 7696.84,3843.62 7712.15,3845.83 7727.00,3846.00
             7750.05,3846.27 7788.23,3856.48 7810.00,3864.68
             7810.00,3864.68 7832.00,3874.64 7832.00,3874.64
             7836.20,3876.68 7841.36,3878.36 7844.96,3881.39
             7849.01,3884.80 7851.65,3891.41 7845.86,3894.57
             7843.04,3896.11 7838.17,3896.00 7835.00,3896.00
             7835.00,3896.00 7813.00,3895.00 7813.00,3895.00
             7788.53,3894.96 7752.66,3889.89 7729.00,3883.51
             7729.00,3883.51 7702.00,3874.74 7702.00,3874.74
             7702.00,3874.74 7683.00,3869.43 7683.00,3869.43
             7677.41,3867.73 7655.71,3858.82 7651.02,3856.06
             7651.02,3856.06 7648.31,3854.25 7648.31,3854.25
             7647.10,3853.12 7646.27,3851.82 7646.46,3850.09
             7646.98,3845.44 7653.68,3846.01 7657.00,3846.00
             7657.00,3846.00 7682.00,3845.42 7682.00,3845.42 Z
           M 7592.00,3963.00
           C 7598.77,3966.20 7613.07,3981.73 7618.54,3987.91
             7637.64,4009.49 7651.15,4026.70 7665.28,4052.00
             7678.18,4075.09 7687.24,4099.91 7691.44,4126.00
             7691.44,4126.00 7693.83,4139.00 7693.83,4139.00
             7693.83,4139.00 7695.99,4174.00 7695.99,4174.00
             7695.99,4174.00 7695.00,4191.00 7695.00,4191.00
             7694.88,4201.17 7693.04,4211.01 7691.44,4221.00
             7682.60,4275.96 7654.82,4328.88 7614.00,4366.91
             7573.87,4404.30 7516.45,4428.21 7463.00,4438.46
             7463.00,4438.46 7454.00,4440.72 7454.00,4440.72
             7454.00,4440.72 7439.00,4443.00 7439.00,4443.00
             7441.46,4439.31 7448.70,4438.42 7453.00,4437.28
             7453.00,4437.28 7487.00,4426.86 7487.00,4426.86
             7518.14,4415.89 7558.00,4396.04 7582.58,4374.11
             7623.00,4338.04 7648.46,4288.03 7661.47,4236.00
             7664.79,4222.76 7670.84,4193.99 7671.04,4181.00
             7671.04,4181.00 7671.04,4171.00 7671.04,4171.00
             7671.04,4171.00 7672.00,4161.00 7672.00,4161.00
             7672.00,4161.00 7671.00,4140.00 7671.00,4140.00
             7670.97,4133.59 7669.77,4128.27 7668.75,4122.00
             7668.75,4122.00 7667.54,4112.00 7667.54,4112.00
             7667.54,4112.00 7664.90,4102.00 7664.90,4102.00
             7661.86,4089.49 7658.05,4078.05 7653.47,4066.00
             7645.50,4045.03 7629.23,4016.56 7616.49,3998.00
             7616.49,3998.00 7601.21,3977.00 7601.21,3977.00
             7597.79,3972.64 7593.57,3968.39 7592.00,3963.00 Z
           M 7582.00,4525.00
           C 7582.00,4525.00 7585.27,4518.96 7585.27,4518.96
             7588.45,4512.43 7589.07,4507.42 7596.00,4503.15
             7600.27,4500.51 7606.22,4500.02 7607.68,4506.02
             7609.02,4511.53 7604.84,4515.64 7602.37,4520.00
             7602.37,4520.00 7598.00,4530.00 7598.00,4530.00
             7602.41,4530.82 7606.97,4532.66 7611.00,4534.66
             7613.09,4535.70 7616.11,4537.72 7618.42,4537.72
             7628.20,4537.71 7633.67,4527.03 7643.00,4525.48
             7651.43,4524.08 7653.95,4529.50 7648.32,4535.79
             7643.69,4540.96 7638.13,4539.83 7629.00,4545.00
             7645.82,4549.43 7644.18,4549.55 7662.00,4550.82
             7673.34,4551.62 7677.80,4543.65 7688.00,4542.55
             7694.37,4541.87 7705.93,4546.10 7709.94,4551.10
             7714.88,4557.25 7714.23,4567.32 7706.98,4571.44
             7693.73,4578.99 7679.08,4567.19 7668.00,4567.00
             7663.83,4566.93 7657.79,4566.64 7654.00,4568.23
             7650.42,4569.72 7647.98,4572.17 7645.28,4574.85
             7643.72,4576.40 7637.66,4581.63 7637.20,4583.13
             7636.20,4586.39 7644.36,4592.01 7647.00,4593.20
             7649.75,4594.09 7652.17,4593.21 7655.00,4593.20
             7661.96,4593.77 7673.61,4598.41 7675.25,4606.00
             7675.72,4608.19 7675.13,4610.04 7674.08,4611.96
             7669.85,4619.70 7657.14,4619.19 7650.00,4616.15
             7641.96,4612.72 7641.53,4605.93 7637.73,4602.80
             7636.25,4601.59 7631.91,4599.55 7630.00,4598.58
             7614.63,4590.74 7608.29,4590.73 7592.00,4588.72
             7588.89,4588.33 7578.67,4586.17 7576.51,4587.77
             7575.24,4588.70 7574.53,4590.57 7574.06,4592.01
             7570.04,4604.13 7578.38,4605.51 7578.96,4617.00
             7580.07,4639.15 7551.88,4630.90 7546.30,4620.00
             7540.59,4608.85 7550.64,4599.66 7552.07,4596.72
             7552.85,4595.10 7553.67,4588.08 7553.83,4586.00
             7553.97,4584.17 7554.04,4582.01 7552.98,4580.42
             7551.00,4577.43 7536.92,4573.99 7533.00,4573.20
             7517.05,4569.98 7511.99,4569.97 7496.00,4570.00
             7496.00,4570.00 7481.00,4571.59 7481.00,4571.59
             7481.00,4571.59 7475.00,4570.21 7475.00,4570.21
             7471.02,4569.65 7466.92,4570.48 7463.00,4569.37
             7456.16,4567.42 7447.40,4559.68 7454.57,4552.65
             7458.04,4549.24 7467.20,4547.37 7472.00,4547.09
             7484.76,4546.36 7496.24,4554.48 7512.00,4550.00
             7508.95,4548.36 7500.44,4541.91 7505.60,4538.04
             7508.06,4536.19 7511.82,4538.44 7514.00,4539.69
             7518.65,4542.38 7521.39,4544.17 7527.00,4543.06
             7529.73,4542.52 7537.67,4539.84 7539.79,4538.28
             7542.70,4536.15 7542.25,4534.84 7547.04,4531.93
             7548.97,4530.76 7555.10,4527.32 7557.00,4526.69
             7562.40,4524.91 7576.56,4523.69 7582.00,4525.00 Z
           M 6211.00,5605.42
           C 6268.40,5598.43 6322.31,5642.23 6323.00,5701.00
             6323.13,5712.15 6321.77,5723.29 6318.56,5734.00
             6316.43,5741.12 6310.75,5752.81 6306.64,5759.00
             6303.02,5764.46 6296.85,5772.30 6291.99,5776.57
             6281.29,5785.96 6268.63,5793.88 6255.00,5798.25
             6236.69,5804.13 6201.34,5805.22 6181.00,5807.17
             6181.00,5807.17 6119.00,5812.91 6119.00,5812.91
             6119.00,5812.91 5993.00,5823.83 5993.00,5823.83
             5993.00,5823.83 5962.00,5826.17 5962.00,5826.17
             5962.00,5826.17 5866.00,5834.83 5866.00,5834.83
             5866.00,5834.83 5835.00,5837.17 5835.00,5837.17
             5835.00,5837.17 5657.00,5852.83 5657.00,5852.83
             5657.00,5852.83 5626.00,5855.17 5626.00,5855.17
             5626.00,5855.17 5530.00,5863.83 5530.00,5863.83
             5530.00,5863.83 5476.00,5868.17 5476.00,5868.17
             5476.00,5868.17 5419.00,5873.17 5419.00,5873.17
             5419.00,5873.17 5397.00,5875.00 5397.00,5875.00
             5385.22,5875.02 5373.21,5873.77 5362.00,5869.92
             5319.57,5855.37 5294.49,5817.25 5295.00,5773.00
             5295.49,5731.78 5323.31,5695.35 5362.00,5682.08
             5381.79,5675.29 5413.55,5674.88 5435.00,5672.83
             5435.00,5672.83 5531.00,5664.17 5531.00,5664.17
             5531.00,5664.17 5586.00,5659.72 5586.00,5659.72
             5586.00,5659.72 5608.00,5657.83 5608.00,5657.83
             5608.00,5657.83 5689.00,5650.83 5689.00,5650.83
             5689.00,5650.83 5792.00,5641.83 5792.00,5641.83
             5792.00,5641.83 5833.00,5638.09 5833.00,5638.09
             5833.00,5638.09 5912.00,5631.17 5912.00,5631.17
             5912.00,5631.17 5943.00,5628.83 5943.00,5628.83
             5943.00,5628.83 6074.00,5617.17 6074.00,5617.17
             6074.00,5617.17 6105.00,5614.83 6105.00,5614.83
             6105.00,5614.83 6166.00,5609.17 6166.00,5609.17
             6166.00,5609.17 6201.00,5606.17 6201.00,5606.17
             6201.00,5606.17 6211.00,5605.42 6211.00,5605.42 Z" />
</svg>
