<?xml version="1.0" encoding="UTF-8" standalone="no"?>
<!DOCTYPE svg PUBLIC "-//W3C//DTD SVG 20010904//EN"
              "http://www.w3.org/TR/2001/REC-SVG-20010904/DTD/svg10.dtd">

<svg xmlns="http://www.w3.org/2000/svg"
     width="16in" height="10.4533in"
     viewBox="0 0 9600 6272">
  <path id="purple"
        fill="none" stroke="black" stroke-width="1"
        d="M 4236.00,785.00
           C 4205.78,801.89 4176.40,828.71 4160.96,860.00
             4141.08,900.31 4138.91,939.05 4103.00,971.16
             4098.71,975.00 4096.93,976.88 4092.00,980.26
             4068.11,996.60 4041.89,1006.12 4014.00,1012.90
             4014.00,1012.90 4004.00,1015.54 4004.00,1015.54
             4004.00,1015.54 3997.00,1016.46 3997.00,1016.46
             3997.00,1016.46 3986.00,1018.71 3986.00,1018.71
             3986.00,1018.71 3978.00,1019.29 3978.00,1019.29
             3978.00,1019.29 3945.00,1023.00 3945.00,1023.00
             3945.00,1023.00 3930.00,1023.00 3930.00,1023.00
             3930.00,1023.00 3920.00,1023.95 3920.00,1023.95
             3920.00,1023.95 3905.00,1023.95 3905.00,1023.95
             3905.00,1023.95 3892.00,1023.00 3892.00,1023.00
             3892.00,1023.00 3878.00,1023.00 3878.00,1023.00
             3866.78,1022.98 3831.07,1017.77 3819.00,1015.54
             3819.00,1015.54 3809.00,1012.90 3809.00,1012.90
             3809.00,1012.90 3774.00,1003.91 3774.00,1003.91
             3735.15,991.12 3697.69,971.51 3666.00,945.54
             3666.00,945.54 3649.00,930.09 3649.00,930.09
             3631.39,913.74 3615.60,894.88 3603.58,874.00
             3600.51,868.67 3593.62,855.52 3591.90,850.00
             3590.00,843.90 3587.01,820.75 3587.00,814.00
             3587.00,814.00 3587.00,786.00 3587.00,786.00
             3587.12,776.02 3592.25,741.42 3594.51,731.00
             3594.51,731.00 3600.26,709.00 3600.26,709.00
             3615.66,653.45 3641.25,601.84 3673.26,554.00
             3766.89,414.05 3912.87,307.33 4078.00,270.34
             4078.00,270.34 4088.00,267.67 4088.00,267.67
             4088.00,267.67 4111.00,263.54 4111.00,263.54
             4111.00,263.54 4127.00,260.29 4127.00,260.29
             4127.00,260.29 4135.00,259.57 4135.00,259.57
             4135.00,259.57 4156.00,256.00 4156.00,256.00
             4156.00,256.00 4166.00,256.00 4166.00,256.00
             4166.00,256.00 4196.00,253.00 4196.00,253.00
             4196.00,253.00 4212.00,253.00 4212.00,253.00
             4212.00,253.00 4228.00,252.00 4228.00,252.00
             4228.00,252.00 4247.00,252.00 4247.00,252.00
             4247.00,252.00 4263.00,253.00 4263.00,253.00
             4263.00,253.00 4281.00,253.00 4281.00,253.00
             4281.00,253.00 4309.00,256.00 4309.00,256.00
             4309.00,256.00 4318.00,256.00 4318.00,256.00
             4318.00,256.00 4340.00,259.57 4340.00,259.57
             4340.00,259.57 4348.00,260.44 4348.00,260.44
             4348.00,260.44 4379.00,266.54 4379.00,266.54
             4413.50,272.81 4447.15,283.23 4480.00,295.47
             4569.55,328.84 4657.05,386.32 4716.33,462.00
             4757.48,514.53 4786.26,576.34 4805.43,640.00
             4805.43,640.00 4813.74,672.00 4813.74,672.00
             4819.32,694.18 4824.14,716.37 4827.43,739.00
             4827.43,739.00 4830.57,756.00 4830.57,756.00
             4830.57,756.00 4831.29,765.00 4831.29,765.00
             4831.29,765.00 4834.94,787.00 4834.94,787.00
             4834.94,787.00 4834.94,796.00 4834.94,796.00
             4834.94,796.00 4838.00,829.00 4838.00,829.00
             4838.00,829.00 4839.96,851.00 4839.96,851.00
             4839.96,851.00 4839.96,860.00 4839.96,860.00
             4839.96,860.00 4841.00,875.00 4841.00,875.00
             4841.00,875.00 4842.00,892.00 4842.00,892.00
             4842.00,892.00 4842.00,967.00 4842.00,967.00
             4842.00,967.00 4841.00,982.00 4841.00,982.00
             4841.00,982.00 4838.91,1022.00 4838.91,1022.00
             4838.91,1022.00 4838.00,1032.00 4838.00,1032.00
             4838.00,1032.00 4838.00,1041.00 4838.00,1041.00
             4838.00,1041.00 4834.94,1072.00 4834.94,1072.00
             4834.94,1072.00 4834.94,1080.00 4834.94,1080.00
             4834.94,1080.00 4831.46,1096.00 4831.46,1096.00
             4831.46,1096.00 4817.75,1156.00 4817.75,1156.00
             4802.17,1215.14 4782.46,1273.15 4755.03,1328.00
             4691.29,1455.49 4576.66,1544.25 4531.74,1683.00
             4521.58,1714.40 4514.30,1746.39 4509.57,1779.00
             4509.57,1779.00 4506.00,1801.00 4506.00,1801.00
             4506.00,1801.00 4506.00,1810.00 4506.00,1810.00
             4506.00,1810.00 4503.00,1839.00 4503.00,1839.00
             4503.00,1839.00 4503.00,1855.00 4503.00,1855.00
             4503.00,1855.00 4502.00,1871.00 4502.00,1871.00
             4502.00,1871.00 4502.00,1904.00 4502.00,1904.00
             4502.00,1904.00 4503.00,1919.00 4503.00,1919.00
             4503.00,1919.00 4503.00,1938.00 4503.00,1938.00
             4503.00,1938.00 4506.00,1975.00 4506.00,1975.00
             4506.00,1975.00 4509.94,2010.00 4509.94,2010.00
             4509.94,2010.00 4509.94,2018.00 4509.94,2018.00
             4509.94,2018.00 4512.71,2035.00 4512.71,2035.00
             4512.71,2035.00 4513.29,2043.00 4513.29,2043.00
             4513.29,2043.00 4516.57,2062.00 4516.57,2062.00
             4522.82,2105.03 4531.10,2148.03 4542.74,2190.00
             4542.74,2190.00 4553.50,2222.00 4553.50,2222.00
             4553.50,2222.00 4562.00,2241.00 4562.00,2241.00
             4562.00,2241.00 4550.28,2248.42 4550.28,2248.42
             4550.28,2248.42 4517.00,2271.50 4517.00,2271.50
             4474.42,2304.01 4430.64,2348.53 4410.45,2399.00
             4401.97,2420.19 4396.89,2442.40 4394.15,2465.00
             4394.15,2465.00 4392.00,2488.00 4392.00,2488.00
             4391.98,2492.29 4392.60,2496.96 4391.00,2501.00
             4391.00,2501.00 4379.58,2480.00 4379.58,2480.00
             4366.54,2454.48 4357.27,2427.48 4353.72,2399.00
             4353.72,2399.00 4351.00,2376.00 4351.00,2376.00
             4351.00,2376.00 4351.00,2329.00 4351.00,2329.00
             4351.06,2324.30 4351.50,2315.86 4354.00,2312.00
             4354.00,2312.00 4388.00,2385.00 4388.00,2385.00
             4390.58,2390.40 4398.86,2410.07 4406.40,2398.94
             4408.85,2395.32 4407.04,2392.38 4405.29,2389.00
             4405.29,2389.00 4394.10,2367.00 4394.10,2367.00
             4394.10,2367.00 4361.99,2296.00 4361.99,2296.00
             4361.99,2296.00 4351.69,2271.00 4351.69,2271.00
             4351.69,2271.00 4333.80,2223.00 4333.80,2223.00
             4319.72,2183.43 4307.85,2142.78 4297.90,2102.00
             4291.38,2075.30 4286.84,2048.11 4282.56,2021.00
             4282.56,2021.00 4276.00,1970.00 4276.00,1970.00
             4276.00,1970.00 4274.09,1945.00 4274.09,1945.00
             4274.09,1945.00 4273.00,1914.00 4273.00,1914.00
             4273.00,1914.00 4272.09,1899.00 4272.09,1899.00
             4272.09,1899.00 4273.00,1887.00 4273.00,1887.00
             4273.00,1887.00 4276.00,1842.00 4276.00,1842.00
             4276.00,1842.00 4276.00,1833.00 4276.00,1833.00
             4276.00,1833.00 4279.41,1812.00 4279.41,1812.00
             4279.41,1812.00 4280.44,1803.00 4280.44,1803.00
             4280.44,1803.00 4286.00,1775.00 4286.00,1775.00
             4299.70,1707.40 4322.50,1642.40 4346.94,1578.00
             4346.94,1578.00 4397.69,1445.00 4397.69,1445.00
             4397.69,1445.00 4411.12,1409.00 4411.12,1409.00
             4424.58,1369.61 4437.09,1330.23 4447.75,1290.00
             4447.75,1290.00 4458.51,1248.00 4458.51,1248.00
             4458.51,1248.00 4464.33,1224.00 4464.33,1224.00
             4469.25,1201.28 4473.48,1178.07 4476.28,1155.00
             4476.28,1155.00 4479.00,1138.00 4479.00,1138.00
             4479.00,1138.00 4479.00,1129.00 4479.00,1129.00
             4479.00,1129.00 4482.09,1096.00 4482.09,1096.00
             4482.09,1096.00 4483.00,1086.00 4483.00,1086.00
             4483.00,1086.00 4483.00,1050.00 4483.00,1050.00
             4483.00,1050.00 4482.09,1038.00 4482.09,1038.00
             4482.09,1038.00 4478.94,1007.00 4478.94,1007.00
             4478.94,1007.00 4478.94,999.00 4478.94,999.00
             4478.94,999.00 4476.29,984.00 4476.29,984.00
             4468.48,924.71 4451.91,866.25 4429.01,811.00
             4405.92,755.28 4377.59,704.30 4338.59,658.00
             4305.06,618.20 4265.29,583.84 4216.00,565.47
             4204.11,561.04 4183.56,555.15 4171.00,554.84
             4171.00,554.84 4154.00,554.84 4154.00,554.84
             4154.00,554.84 4139.00,554.84 4139.00,554.84
             4122.28,555.20 4090.73,565.16 4075.00,571.78
             4021.66,594.21 3969.79,638.87 3936.80,686.00
             3916.92,714.39 3895.42,754.56 3895.00,790.00
             3894.93,796.05 3895.40,807.38 3897.04,813.00
             3909.35,855.24 3952.80,871.11 3992.00,878.46
             3992.00,878.46 4008.00,881.94 4008.00,881.94
             4008.00,881.94 4016.00,881.94 4016.00,881.94
             4016.00,881.94 4043.00,885.00 4043.00,885.00
             4043.00,885.00 4088.00,885.00 4088.00,885.00
             4080.55,893.94 4062.62,904.04 4052.00,909.35
             4026.63,922.02 3998.93,929.37 3971.00,933.43
             3971.00,933.43 3944.00,937.00 3944.00,937.00
             3940.43,937.04 3935.27,936.46 3932.34,938.74
             3927.39,942.59 3928.66,950.42 3938.00,950.96
             3947.47,951.50 3968.04,947.76 3978.00,946.30
             4015.98,940.70 4058.48,926.56 4088.83,902.42
             4094.65,897.79 4108.76,883.41 4113.87,877.58
             4130.36,858.76 4145.68,829.14 4161.53,808.00
             4174.52,790.67 4188.82,777.14 4212.00,778.04
             4218.39,778.29 4229.82,780.99 4236.00,783.00
             4236.00,783.00 4236.00,785.00 4236.00,785.00 Z
           M 5823.00,342.21
           C 5823.00,342.21 5833.00,342.21 5833.00,342.21
             5898.94,342.77 5946.28,409.72 5924.92,472.00
             5914.78,501.58 5896.98,515.09 5874.00,534.25
             5874.00,534.25 5840.00,562.59 5840.00,562.59
             5840.00,562.59 5182.00,1112.25 5182.00,1112.25
             5182.00,1112.25 5135.00,1151.25 5135.00,1151.25
             5119.06,1164.53 5108.24,1174.90 5088.00,1181.65
             5040.45,1197.48 4987.46,1176.15 4966.31,1130.00
             4960.22,1116.70 4956.83,1100.62 4957.00,1086.00
             4957.26,1064.31 4966.22,1040.45 4980.30,1024.00
             4988.93,1013.92 5009.95,997.14 5021.00,987.92
             5021.00,987.92 5138.00,890.25 5138.00,890.25
             5138.00,890.25 5453.00,627.08 5453.00,627.08
             5453.00,627.08 5612.00,494.57 5612.00,494.57
             5612.00,494.57 5727.00,398.58 5727.00,398.58
             5742.48,385.50 5770.00,360.55 5787.00,352.26
             5799.94,345.95 5809.08,344.44 5823.00,342.21 Z
           M 6710.00,443.00
           C 6710.00,443.00 6712.00,443.00 6712.00,443.00
             6712.00,443.00 6712.00,462.00 6712.00,462.00
             6711.97,482.88 6696.44,506.83 6684.09,522.91
             6668.13,543.70 6640.31,572.57 6640.00,600.00
             6639.81,617.17 6645.49,625.99 6656.00,639.00
             6669.23,655.37 6694.13,673.59 6712.00,685.21
             6796.36,740.11 6869.83,777.31 6947.91,844.80
             6947.91,844.80 6955.30,851.88 6955.30,851.88
             6978.22,872.78 7000.44,894.48 7020.72,918.00
             7057.29,960.42 7092.09,1015.25 7111.46,1068.00
             7121.42,1095.14 7128.58,1122.59 7133.61,1151.00
             7136.70,1168.39 7139.97,1186.29 7140.00,1204.00
             7140.00,1204.00 7141.00,1221.00 7141.00,1221.00
             7141.00,1221.00 7141.00,1262.00 7141.00,1262.00
             7141.00,1262.00 7140.00,1279.00 7140.00,1279.00
             7140.00,1279.00 7137.17,1308.00 7137.17,1308.00
             7134.11,1339.43 7125.61,1375.86 7116.03,1406.00
             7094.26,1474.49 7062.82,1532.93 7016.44,1588.00
             7006.17,1600.19 6995.69,1612.02 6984.00,1622.91
             6984.00,1622.91 6967.00,1637.44 6967.00,1637.44
             6928.66,1669.61 6884.91,1695.41 6836.04,1707.82
             6836.04,1707.82 6812.00,1712.61 6812.00,1712.61
             6797.93,1715.11 6776.09,1717.98 6762.00,1718.00
             6762.00,1718.00 6733.00,1718.00 6733.00,1718.00
             6733.00,1718.00 6702.00,1716.00 6702.00,1716.00
             6702.00,1716.00 6675.00,1712.29 6675.00,1712.29
             6675.00,1712.29 6666.00,1711.56 6666.00,1711.56
             6666.00,1711.56 6605.00,1698.50 6605.00,1698.50
             6511.61,1676.31 6418.04,1634.67 6332.00,1592.58
             6258.70,1556.72 6186.50,1517.01 6108.00,1493.43
             6080.37,1485.13 6057.77,1479.30 6029.00,1475.71
             6014.65,1473.93 6014.44,1473.18 5999.00,1473.00
             5999.00,1473.00 5984.00,1472.00 5984.00,1472.00
             5984.00,1472.00 5952.00,1472.00 5952.00,1472.00
             5952.00,1472.00 5930.00,1473.00 5930.00,1473.00
             5930.00,1473.00 5907.00,1475.72 5907.00,1475.72
             5907.00,1475.72 5899.00,1476.29 5899.00,1476.29
             5899.00,1476.29 5883.00,1479.39 5883.00,1479.39
             5883.00,1479.39 5859.00,1483.90 5859.00,1483.90
             5859.00,1483.90 5835.00,1490.42 5835.00,1490.42
             5766.44,1508.59 5701.25,1537.07 5641.00,1574.58
             5599.74,1600.26 5550.53,1638.98 5517.04,1674.00
             5517.04,1674.00 5479.00,1718.00 5479.00,1718.00
             5433.12,1775.62 5399.31,1843.96 5387.56,1917.00
             5387.56,1917.00 5384.06,1936.00 5384.06,1936.00
             5384.06,1936.00 5384.06,1945.00 5384.06,1945.00
             5384.06,1945.00 5381.00,1993.00 5381.00,1993.00
             5381.00,1993.00 5384.06,2025.00 5384.06,2025.00
             5384.06,2025.00 5384.06,2033.00 5384.06,2033.00
             5384.06,2033.00 5387.54,2051.00 5387.54,2051.00
             5397.55,2106.53 5418.52,2151.03 5455.58,2193.83
             5474.61,2215.82 5498.94,2237.38 5521.00,2256.42
             5521.00,2256.42 5536.00,2270.91 5536.00,2270.91
             5538.46,2273.21 5542.49,2276.12 5543.98,2279.01
             5545.27,2281.53 5545.00,2285.20 5545.00,2287.94
             5546.60,2287.89 5549.55,2287.52 5551.00,2287.94
             5555.88,2289.10 5564.22,2299.81 5567.37,2304.00
             5581.77,2323.16 5590.37,2341.12 5597.23,2364.00
             5597.23,2364.00 5601.10,2377.00 5601.10,2377.00
             5602.98,2384.58 5601.91,2390.32 5611.00,2393.00
             5609.42,2399.64 5606.73,2401.61 5603.09,2407.00
             5603.09,2407.00 5592.58,2424.00 5592.58,2424.00
             5584.00,2438.28 5572.36,2463.27 5566.53,2479.00
             5565.76,2481.08 5564.23,2484.86 5564.61,2487.00
             5565.06,2489.49 5567.42,2491.72 5568.89,2495.00
             5570.44,2499.04 5569.80,2501.91 5568.89,2506.00
             5563.19,2535.83 5553.61,2564.88 5545.14,2594.00
             5543.84,2598.47 5539.74,2610.06 5537.73,2614.00
             5537.73,2614.00 5531.03,2625.00 5531.03,2625.00
             5531.03,2625.00 5528.00,2643.00 5528.00,2643.00
             5528.00,2643.00 5526.98,2657.00 5526.98,2657.00
             5526.92,2658.48 5526.90,2660.98 5525.40,2661.84
             5523.56,2662.88 5516.34,2658.86 5514.00,2657.94
             5514.00,2657.94 5479.00,2643.00 5479.00,2643.00
             5479.00,2643.00 5479.00,2642.00 5479.00,2642.00
             5479.00,2642.00 5481.00,2640.00 5481.00,2640.00
             5473.17,2636.25 5473.01,2631.81 5473.00,2624.00
             5473.00,2624.00 5473.00,2595.00 5473.00,2595.00
             5472.83,2580.85 5468.50,2576.62 5468.00,2566.00
             5468.00,2566.00 5474.00,2569.00 5474.00,2569.00
             5474.00,2569.00 5478.00,2560.00 5478.00,2560.00
             5471.83,2558.71 5471.16,2560.02 5468.00,2565.00
             5468.00,2565.00 5453.49,2521.00 5453.49,2521.00
             5445.15,2497.64 5431.90,2470.81 5418.20,2450.17
             5373.76,2383.20 5312.44,2329.50 5263.50,2266.00
             5223.63,2214.28 5193.20,2155.43 5171.46,2094.00
             5163.83,2072.44 5157.78,2050.45 5153.54,2028.00
             5153.54,2028.00 5150.44,2014.00 5150.44,2014.00
             5148.35,2000.77 5144.02,1965.46 5144.00,1953.00
             5144.00,1953.00 5144.00,1919.00 5144.00,1919.00
             5144.00,1919.00 5147.06,1891.00 5147.06,1891.00
             5147.06,1891.00 5147.06,1882.00 5147.06,1882.00
             5147.06,1882.00 5149.56,1870.00 5149.56,1870.00
             5160.64,1801.15 5192.14,1736.30 5232.74,1680.00
             5232.74,1680.00 5248.13,1659.96 5248.13,1659.96
             5248.13,1659.96 5257.30,1648.00 5257.30,1648.00
             5257.30,1648.00 5268.41,1635.72 5268.41,1635.72
             5275.62,1626.86 5271.29,1623.08 5281.17,1612.00
             5293.85,1597.77 5310.12,1587.72 5324.96,1576.11
             5324.96,1576.11 5336.00,1566.15 5336.00,1566.15
             5336.00,1566.15 5353.00,1551.71 5353.00,1551.71
             5394.78,1515.14 5440.75,1483.48 5488.00,1454.39
             5555.45,1412.86 5633.26,1375.80 5709.00,1352.44
             5742.05,1342.24 5774.97,1333.68 5809.00,1327.54
             5809.00,1327.54 5824.00,1324.44 5824.00,1324.44
             5824.00,1324.44 5833.00,1323.57 5833.00,1323.57
             5833.00,1323.57 5889.00,1317.00 5889.00,1317.00
             5889.00,1317.00 5902.00,1317.00 5902.00,1317.00
             5902.00,1317.00 5918.00,1316.00 5918.00,1316.00
             5918.00,1316.00 5951.00,1316.00 5951.00,1316.00
             5951.00,1316.00 5964.00,1317.00 5964.00,1317.00
             5964.00,1317.00 5976.00,1317.00 5976.00,1317.00
             5976.00,1317.00 6008.00,1320.94 6008.00,1320.94
             6008.00,1320.94 6016.00,1320.94 6016.00,1320.94
             6016.00,1320.94 6030.00,1323.56 6030.00,1323.56
             6030.00,1323.56 6038.00,1324.46 6038.00,1324.46
             6059.21,1328.22 6090.68,1336.27 6111.00,1343.29
             6197.28,1373.11 6270.98,1415.74 6352.00,1456.25
             6385.33,1472.91 6419.10,1489.31 6454.00,1502.47
             6492.92,1517.14 6532.94,1528.82 6574.00,1535.44
             6574.00,1535.44 6591.00,1538.71 6591.00,1538.71
             6591.00,1538.71 6599.00,1539.29 6599.00,1539.29
             6599.00,1539.29 6616.00,1541.96 6616.00,1541.96
             6616.00,1541.96 6626.00,1541.96 6626.00,1541.96
             6626.00,1541.96 6651.00,1544.00 6651.00,1544.00
             6651.00,1544.00 6689.00,1544.00 6689.00,1544.00
             6689.00,1544.00 6699.00,1543.09 6699.00,1543.09
             6699.00,1543.09 6719.00,1541.83 6719.00,1541.83
             6719.00,1541.83 6755.00,1535.66 6755.00,1535.66
             6788.72,1528.59 6819.97,1517.27 6850.00,1500.13
             6875.08,1485.81 6897.64,1467.36 6918.00,1447.00
             6918.00,1447.00 6934.66,1429.83 6934.66,1429.83
             6968.55,1391.05 6993.99,1344.24 7008.96,1295.00
             7008.96,1295.00 7013.90,1275.00 7013.90,1275.00
             7013.90,1275.00 7020.21,1243.00 7020.21,1243.00
             7022.54,1225.12 7023.21,1207.02 7023.00,1189.00
             7023.00,1189.00 7020.94,1169.00 7020.94,1169.00
             7020.94,1169.00 7020.94,1160.00 7020.94,1160.00
             7020.94,1160.00 7017.46,1143.00 7017.46,1143.00
             7009.44,1100.33 6990.17,1060.57 6967.23,1024.00
             6934.10,971.21 6878.00,905.08 6833.00,862.04
             6833.00,862.04 6758.00,794.29 6758.00,794.29
             6758.00,794.29 6670.00,720.29 6670.00,720.29
             6670.00,720.29 6644.00,698.04 6644.00,698.04
             6628.35,683.13 6614.79,671.77 6606.50,651.00
             6604.03,644.81 6603.09,643.90 6603.00,637.00
             6603.00,637.00 6603.00,625.00 6603.00,625.00
             6603.22,607.45 6618.48,582.31 6628.12,568.00
             6628.12,568.00 6684.72,492.00 6684.72,492.00
             6694.53,477.98 6706.55,459.93 6710.00,443.00 Z
           M 3910.00,2423.00
           C 3909.37,2415.25 3907.74,2407.49 3905.75,2400.00
             3901.54,2384.09 3896.67,2369.57 3882.00,2359.96
             3867.27,2350.31 3848.03,2349.08 3831.00,2347.91
             3816.85,2346.94 3803.07,2344.00 3790.00,2351.93
             3790.00,2351.93 3773.00,2365.25 3773.00,2365.25
             3763.82,2371.44 3753.39,2375.80 3745.00,2383.18
             3742.60,2385.29 3734.84,2394.09 3732.91,2394.70
             3731.03,2395.30 3729.52,2394.43 3728.00,2393.41
             3725.32,2391.61 3718.80,2384.71 3716.00,2382.04
             3716.00,2382.04 3699.00,2366.00 3699.00,2366.00
             3699.00,2366.00 3671.96,2338.00 3671.96,2338.00
             3671.96,2338.00 3660.17,2326.00 3660.17,2326.00
             3660.17,2326.00 3642.25,2305.04 3642.25,2305.04
             3588.40,2242.71 3539.05,2167.97 3511.46,2090.00
             3499.48,2056.14 3489.42,2014.97 3489.00,1979.00
             3489.00,1979.00 3488.00,1963.00 3488.00,1963.00
             3488.00,1963.00 3489.00,1946.00 3489.00,1946.00
             3489.00,1946.00 3491.06,1928.00 3491.06,1928.00
             3491.06,1928.00 3491.06,1919.00 3491.06,1919.00
             3493.33,1902.36 3497.05,1886.22 3501.11,1870.00
             3511.95,1826.64 3530.00,1783.69 3552.42,1745.00
             3552.42,1745.00 3575.92,1708.00 3575.92,1708.00
             3590.39,1685.98 3606.66,1665.90 3623.87,1646.00
             3623.87,1646.00 3649.01,1618.00 3649.01,1618.00
             3649.01,1618.00 3684.00,1585.87 3684.00,1585.87
             3702.02,1570.28 3720.48,1555.47 3740.00,1541.77
             3799.28,1500.15 3873.54,1466.56 3942.00,1443.08
             3942.00,1443.08 3980.00,1431.43 3980.00,1431.43
             4019.49,1419.54 4059.46,1409.90 4100.00,1402.54
             4100.00,1402.54 4132.00,1396.30 4132.00,1396.30
             4132.00,1396.30 4140.00,1395.56 4140.00,1395.56
             4140.00,1395.56 4179.00,1389.29 4179.00,1389.29
             4179.00,1389.29 4188.00,1388.72 4188.00,1388.72
             4188.00,1388.72 4212.00,1385.00 4212.00,1385.00
             4212.00,1385.00 4222.00,1385.00 4222.00,1385.00
             4222.00,1385.00 4247.00,1382.00 4247.00,1382.00
             4247.00,1382.00 4289.00,1378.91 4289.00,1378.91
             4289.00,1378.91 4301.00,1378.00 4301.00,1378.00
             4301.00,1378.00 4349.00,1377.00 4349.00,1377.00
             4349.00,1377.00 4366.00,1376.00 4366.00,1376.00
             4366.00,1376.00 4384.00,1376.00 4384.00,1376.00
             4384.00,1376.00 4407.00,1377.00 4407.00,1377.00
             4407.00,1377.00 4399.56,1400.00 4399.56,1400.00
             4399.56,1400.00 4388.37,1431.00 4388.37,1431.00
             4388.37,1431.00 4374.91,1467.00 4374.91,1467.00
             4374.91,1467.00 4324.37,1599.00 4324.37,1599.00
             4324.37,1599.00 4302.26,1663.00 4302.26,1663.00
             4302.26,1663.00 4296.77,1679.00 4296.77,1679.00
             4296.77,1679.00 4289.56,1703.00 4289.56,1703.00
             4289.56,1703.00 4284.00,1719.00 4284.00,1719.00
             4282.51,1717.18 4281.08,1715.14 4278.95,1713.97
             4275.10,1712.01 4263.50,1713.18 4259.00,1713.97
             4259.00,1713.97 4250.00,1713.97 4250.00,1713.97
             4250.00,1713.97 4226.00,1716.00 4226.00,1716.00
             4226.00,1716.00 4202.00,1719.00 4202.00,1719.00
             4202.00,1719.00 4194.00,1719.00 4194.00,1719.00
             4194.00,1719.00 4173.00,1722.57 4173.00,1722.57
             4173.00,1722.57 4146.00,1726.44 4146.00,1726.44
             4146.00,1726.44 4114.04,1733.08 4114.04,1733.08
             4017.63,1753.55 3920.05,1794.61 3851.91,1868.00
             3851.91,1868.00 3837.79,1883.09 3837.79,1883.09
             3815.50,1909.54 3797.32,1938.69 3782.77,1970.00
             3774.56,1987.67 3768.25,2005.21 3763.25,2024.00
             3763.25,2024.00 3760.51,2033.00 3760.51,2033.00
             3760.51,2033.00 3759.33,2040.00 3759.33,2040.00
             3759.33,2040.00 3757.32,2048.00 3757.32,2048.00
             3757.32,2048.00 3756.56,2055.00 3756.56,2055.00
             3755.29,2063.08 3753.10,2071.81 3753.00,2080.00
             3753.00,2080.00 3752.00,2109.00 3752.00,2109.00
             3752.00,2109.00 3753.00,2122.00 3753.00,2122.00
             3753.00,2122.00 3753.00,2130.00 3753.00,2130.00
             3753.13,2140.66 3757.15,2158.26 3759.49,2169.00
             3768.56,2210.59 3790.45,2252.55 3826.00,2277.43
             3836.97,2285.11 3849.45,2290.13 3862.00,2294.56
             3869.32,2297.15 3890.17,2301.69 3898.00,2302.71
             3898.00,2302.71 3907.00,2303.28 3907.00,2303.28
             3907.00,2303.28 3936.00,2306.09 3936.00,2306.09
             3936.00,2306.09 3948.00,2307.00 3948.00,2307.00
             3948.00,2307.00 3977.00,2307.00 3977.00,2307.00
             3977.00,2307.00 3992.00,2308.00 3992.00,2308.00
             4002.07,2308.11 4021.73,2309.45 4031.00,2312.34
             4041.73,2315.69 4046.29,2316.53 4045.99,2329.00
             4045.75,2338.69 4038.63,2350.91 4033.53,2359.00
             4017.59,2384.30 3994.56,2403.87 3968.00,2417.41
             3961.94,2420.50 3943.96,2429.64 3938.00,2430.32
             3931.57,2431.04 3919.58,2423.87 3910.00,2423.00 Z
           M 4792.00,1426.00
           C 4800.85,1427.97 4817.26,1439.15 4825.00,1444.72
             4851.46,1463.76 4871.50,1483.83 4884.98,1514.00
             4889.70,1524.58 4896.30,1543.73 4898.54,1555.00
             4900.09,1562.79 4899.23,1570.93 4908.00,1574.00
             4906.75,1580.89 4898.68,1596.48 4895.42,1604.00
             4895.42,1604.00 4874.51,1658.00 4874.51,1658.00
             4865.76,1684.16 4858.09,1710.97 4852.51,1738.00
             4852.51,1738.00 4848.25,1764.00 4848.25,1764.00
             4848.25,1764.00 4841.96,1815.00 4841.96,1815.00
             4841.96,1815.00 4841.96,1830.00 4841.96,1830.00
             4841.96,1830.00 4841.00,1840.00 4841.00,1840.00
             4841.00,1840.00 4841.00,1865.00 4841.00,1865.00
             4841.00,1865.00 4841.96,1877.00 4841.96,1877.00
             4841.96,1877.00 4841.96,1890.00 4841.96,1890.00
             4841.96,1890.00 4845.06,1917.00 4845.06,1917.00
             4845.06,1917.00 4845.06,1925.00 4845.06,1925.00
             4845.06,1925.00 4848.56,1943.00 4848.56,1943.00
             4855.66,1987.13 4871.58,2036.53 4888.45,2078.00
             4888.45,2078.00 4914.11,2135.00 4914.11,2135.00
             4914.11,2135.00 4933.00,2173.00 4933.00,2173.00
             4933.00,2173.00 4907.00,2156.87 4907.00,2156.87
             4886.59,2145.13 4866.22,2134.99 4844.00,2127.09
             4837.69,2124.84 4819.43,2119.80 4813.00,2118.87
             4809.25,2118.33 4798.10,2116.87 4795.70,2114.44
             4793.92,2112.64 4792.19,2106.63 4791.19,2104.00
             4791.19,2104.00 4781.76,2076.00 4781.76,2076.00
             4769.02,2040.25 4758.14,1997.21 4750.34,1960.00
             4750.34,1960.00 4740.46,1911.00 4740.46,1911.00
             4740.46,1911.00 4739.41,1902.00 4739.41,1902.00
             4739.41,1902.00 4736.29,1884.00 4736.29,1884.00
             4736.29,1884.00 4735.71,1875.00 4735.71,1875.00
             4735.71,1875.00 4733.00,1858.00 4733.00,1858.00
             4733.00,1858.00 4733.00,1848.00 4733.00,1848.00
             4733.00,1848.00 4730.00,1821.00 4730.00,1821.00
             4730.00,1821.00 4730.00,1813.00 4730.00,1813.00
             4730.00,1813.00 4729.00,1803.00 4729.00,1803.00
             4729.00,1803.00 4729.00,1767.00 4729.00,1767.00
             4729.00,1767.00 4730.00,1755.00 4730.00,1755.00
             4730.00,1755.00 4730.00,1746.00 4730.00,1746.00
             4730.00,1746.00 4733.00,1720.00 4733.00,1720.00
             4733.00,1720.00 4733.00,1709.00 4733.00,1709.00
             4733.00,1709.00 4735.72,1691.00 4735.72,1691.00
             4735.72,1691.00 4736.29,1683.00 4736.29,1683.00
             4736.29,1683.00 4739.39,1666.00 4739.39,1666.00
             4739.39,1666.00 4740.44,1656.00 4740.44,1656.00
             4740.44,1656.00 4743.54,1641.00 4743.54,1641.00
             4743.54,1641.00 4761.51,1552.00 4761.51,1552.00
             4761.51,1552.00 4764.34,1542.00 4764.34,1542.00
             4764.34,1542.00 4792.00,1426.00 4792.00,1426.00 Z
           M 4583.00,2294.00
           C 4583.00,2294.00 4585.00,2294.00 4585.00,2294.00
             4585.00,2294.00 4591.31,2313.00 4591.31,2313.00
             4591.31,2313.00 4608.67,2357.00 4608.67,2357.00
             4608.67,2357.00 4618.31,2380.00 4618.31,2380.00
             4631.64,2409.11 4646.38,2437.93 4663.53,2465.00
             4663.53,2465.00 4690.51,2504.78 4690.51,2504.78
             4694.09,2508.53 4705.28,2511.20 4701.15,2520.96
             4697.27,2530.11 4682.56,2527.27 4676.00,2523.03
             4672.67,2520.88 4671.45,2518.95 4669.58,2517.59
             4667.07,2515.77 4663.89,2515.65 4661.00,2514.79
             4661.00,2514.79 4645.00,2508.74 4645.00,2508.74
             4630.07,2501.48 4614.15,2486.76 4603.91,2473.83
             4597.15,2465.30 4591.62,2455.71 4586.75,2446.00
             4569.19,2410.95 4563.65,2376.77 4569.30,2338.00
             4571.26,2324.56 4582.09,2298.55 4583.00,2294.00 Z
           M 5674.00,3068.00
           C 5674.00,3068.00 5665.00,3069.46 5665.00,3069.46
             5665.00,3069.46 5653.00,3072.33 5653.00,3072.33
             5653.00,3072.33 5644.00,3073.67 5644.00,3073.67
             5644.00,3073.67 5539.00,3094.66 5539.00,3094.66
             5539.00,3094.66 5510.00,3101.33 5510.00,3101.33
             5510.00,3101.33 5489.00,3105.51 5489.00,3105.51
             5489.00,3105.51 5465.00,3111.49 5465.00,3111.49
             5412.02,3123.35 5359.48,3138.19 5308.00,3155.52
             5268.68,3168.74 5230.46,3185.20 5193.00,3202.94
             5193.00,3202.94 5152.00,3225.00 5152.00,3225.00
             5152.00,3225.00 5133.00,3235.81 5133.00,3235.81
             5128.79,3236.85 5128.79,3234.14 5121.00,3234.00
             5121.00,3234.00 5101.00,3234.00 5101.00,3234.00
             5101.00,3234.00 5071.00,3230.29 5071.00,3230.29
             5034.91,3225.79 4996.13,3213.10 4969.00,3187.91
             4945.95,3166.51 4932.45,3135.13 4925.50,3105.00
             4925.50,3105.00 4922.44,3092.00 4922.44,3092.00
             4922.44,3092.00 4921.71,3084.00 4921.71,3084.00
             4921.71,3084.00 4919.00,3060.00 4919.00,3060.00
             4919.00,3060.00 4919.00,3039.00 4919.00,3039.00
             4919.03,3021.74 4924.69,2990.92 4929.29,2974.00
             4940.36,2933.27 4961.59,2894.27 4987.14,2860.91
             4987.14,2860.91 4994.46,2851.00 4994.46,2851.00
             5039.71,2795.58 5101.04,2751.62 5169.00,2728.89
             5190.57,2721.67 5223.38,2714.26 5246.00,2714.00
             5246.00,2714.00 5261.00,2713.00 5261.00,2713.00
             5261.00,2713.00 5296.00,2713.00 5296.00,2713.00
             5296.00,2713.00 5310.00,2714.00 5310.00,2714.00
             5328.18,2714.08 5346.12,2717.69 5364.00,2720.56
             5396.13,2725.73 5436.35,2735.89 5467.00,2746.80
             5467.00,2746.80 5487.00,2753.95 5487.00,2753.95
             5487.00,2753.95 5520.00,2767.00 5520.00,2767.00
             5520.00,2767.00 5515.48,2799.00 5515.48,2799.00
             5515.48,2799.00 5513.52,2806.00 5513.52,2806.00
             5513.52,2806.00 5512.24,2815.00 5512.24,2815.00
             5505.18,2843.00 5492.73,2871.57 5479.12,2897.00
             5479.12,2897.00 5460.86,2928.00 5460.86,2928.00
             5460.86,2928.00 5437.16,2963.00 5437.16,2963.00
             5435.01,2966.16 5429.89,2974.04 5425.91,2974.36
             5422.59,2974.63 5414.07,2969.76 5411.00,2968.00
             5401.02,2962.28 5391.37,2955.00 5386.92,2944.00
             5382.09,2932.07 5382.42,2923.23 5380.00,2918.00
             5379.26,2926.86 5377.95,2924.32 5378.00,2936.00
             5378.09,2957.16 5393.71,2972.65 5411.00,2982.62
             5438.95,2998.73 5472.53,3004.64 5504.00,3009.56
             5504.00,3009.56 5518.00,3011.25 5518.00,3011.25
             5518.00,3011.25 5531.00,3013.71 5531.00,3013.71
             5531.00,3013.71 5543.00,3015.21 5543.00,3015.21
             5543.00,3015.21 5574.00,3021.00 5574.00,3021.00
             5574.00,3021.00 5568.00,3037.00 5568.00,3037.00
             5568.00,3037.00 5575.00,3033.70 5575.00,3033.70
             5578.49,3031.70 5584.41,3026.78 5588.00,3026.38
             5591.90,3025.94 5606.64,3032.12 5611.00,3033.87
             5624.08,3039.13 5643.70,3048.96 5656.00,3056.00
             5661.78,3059.30 5669.64,3063.05 5674.00,3068.00 Z
           M 5606.00,5317.00
           C 5606.00,5309.30 5604.54,5293.35 5602.76,5286.00
             5589.17,5229.81 5535.70,5185.44 5492.00,5151.58
             5471.12,5135.40 5449.10,5120.93 5427.00,5106.50
             5372.05,5070.63 5314.16,5039.15 5264.00,4996.43
             5264.00,4996.43 5241.01,4975.99 5241.01,4975.99
             5219.45,4954.42 5197.84,4923.87 5185.30,4896.00
             5179.42,4882.94 5174.82,4870.97 5171.50,4857.00
             5171.50,4857.00 5168.67,4847.00 5168.67,4847.00
             5166.53,4836.98 5164.88,4818.35 5165.00,4808.00
             5165.08,4801.26 5166.50,4794.63 5167.56,4788.00
             5176.62,4731.71 5222.13,4698.05 5263.00,4663.56
             5263.00,4663.56 5272.00,4655.29 5272.00,4655.29
             5272.00,4655.29 5289.00,4640.83 5289.00,4640.83
             5289.00,4640.83 5314.00,4616.99 5314.00,4616.99
             5332.00,4599.22 5349.76,4580.83 5365.49,4561.00
             5407.13,4508.52 5443.18,4439.70 5457.51,4374.00
             5457.51,4374.00 5460.54,4362.00 5460.54,4362.00
             5460.54,4362.00 5467.09,4310.00 5467.09,4310.00
             5467.09,4310.00 5468.00,4300.00 5468.00,4300.00
             5468.24,4278.85 5465.11,4249.65 5460.49,4229.00
             5447.66,4171.65 5413.62,4121.49 5372.96,4080.01
             5372.96,4080.01 5363.00,4070.96 5363.00,4070.96
             5294.02,4005.01 5196.80,3950.50 5112.00,3906.74
             5112.00,3906.74 5057.00,3878.42 5057.00,3878.42
             5057.00,3878.42 4881.00,3791.96 4881.00,3791.96
             4805.61,3753.63 4725.73,3704.24 4669.92,3639.96
             4623.39,3586.37 4587.81,3515.53 4569.75,3447.00
             4569.75,3447.00 4560.96,3405.83 4560.96,3405.83
             4560.96,3405.83 4558.29,3392.00 4558.29,3392.00
             4558.29,3392.00 4557.71,3384.00 4557.71,3384.00
             4557.71,3384.00 4554.00,3352.00 4554.00,3352.00
             4554.00,3352.00 4554.00,3342.00 4554.00,3342.00
             4554.00,3342.00 4553.00,3326.00 4553.00,3326.00
             4553.00,3326.00 4554.00,3282.00 4554.00,3282.00
             4554.00,3282.00 4557.72,3251.00 4557.72,3251.00
             4561.94,3216.24 4570.82,3181.82 4583.12,3149.00
             4614.64,3064.82 4663.34,2995.09 4729.00,2933.91
             4729.00,2933.91 4741.00,2922.29 4741.00,2922.29
             4792.95,2877.10 4853.26,2841.45 4916.00,2813.44
             4955.94,2795.60 4996.31,2780.22 5038.00,2766.97
             5038.00,2766.97 5071.00,2756.99 5071.00,2756.99
             5074.92,2756.09 5079.01,2753.92 5083.00,2755.00
             5021.20,2795.37 4971.93,2846.64 4938.75,2913.00
             4929.40,2931.70 4921.87,2950.87 4916.26,2971.00
             4916.26,2971.00 4913.51,2980.00 4913.51,2980.00
             4910.93,2991.50 4906.02,3014.87 4906.00,3026.00
             4906.00,3026.00 4905.00,3049.00 4905.00,3049.00
             4905.00,3049.00 4905.96,3061.00 4905.96,3061.00
             4905.96,3061.00 4905.96,3072.00 4905.96,3072.00
             4906.10,3080.13 4908.23,3088.03 4909.57,3096.00
             4915.85,3133.44 4932.86,3172.73 4961.00,3198.91
             4978.61,3215.29 5003.26,3227.10 5026.00,3234.48
             5026.00,3234.48 5053.00,3242.00 5053.00,3242.00
             5053.00,3242.00 5029.00,3248.49 5029.00,3248.49
             5017.01,3251.78 4998.98,3258.64 4988.00,3264.39
             4969.74,3273.94 4954.08,3285.18 4940.79,3301.09
             4924.14,3321.03 4911.10,3353.45 4906.46,3379.00
             4906.46,3379.00 4905.57,3387.00 4905.57,3387.00
             4904.14,3396.87 4902.12,3407.02 4902.00,3417.00
             4901.45,3464.11 4915.45,3513.90 4948.09,3549.00
             4976.59,3579.65 5014.97,3599.33 5053.00,3615.48
             5086.78,3629.83 5121.21,3642.76 5156.00,3654.35
             5156.00,3654.35 5171.58,3659.97 5171.58,3659.97
             5236.69,3680.98 5302.51,3700.96 5365.00,3729.15
             5512.99,3795.92 5628.19,3933.66 5685.06,4084.00
             5693.38,4105.98 5700.07,4128.16 5705.50,4151.00
             5705.50,4151.00 5708.34,4161.00 5708.34,4161.00
             5708.34,4161.00 5716.29,4207.00 5716.29,4207.00
             5717.99,4220.65 5719.98,4227.45 5720.00,4242.00
             5720.00,4242.00 5721.00,4259.00 5721.00,4259.00
             5721.00,4259.00 5721.00,4296.00 5721.00,4296.00
             5721.00,4296.00 5720.00,4317.00 5720.00,4317.00
             5720.00,4317.00 5716.29,4344.00 5716.29,4344.00
             5716.29,4344.00 5715.70,4351.00 5715.70,4351.00
             5715.70,4351.00 5713.61,4361.00 5713.61,4361.00
             5710.05,4380.64 5704.90,4400.09 5698.52,4419.00
             5675.84,4486.16 5640.52,4547.63 5593.71,4601.00
             5593.71,4601.00 5583.17,4612.00 5583.17,4612.00
             5583.17,4612.00 5551.00,4644.09 5551.00,4644.09
             5551.00,4644.09 5541.00,4653.71 5541.00,4653.71
             5541.00,4653.71 5526.09,4665.63 5526.09,4665.63
             5526.09,4665.63 5517.99,4672.53 5517.99,4672.53
             5495.12,4690.10 5471.10,4706.09 5447.00,4721.92
             5423.12,4737.61 5399.05,4752.75 5376.91,4770.88
             5376.91,4770.88 5358.04,4787.04 5358.04,4787.04
             5340.40,4804.67 5326.82,4826.70 5325.09,4852.00
             5324.41,4861.94 5327.46,4875.53 5330.50,4885.00
             5338.19,4908.98 5356.82,4936.07 5373.29,4955.00
             5373.29,4955.00 5381.83,4964.00 5381.83,4964.00
             5381.83,4964.00 5398.04,4982.00 5398.04,4982.00
             5414.67,4999.38 5438.98,5020.60 5458.00,5035.58
             5497.01,5066.28 5535.51,5093.90 5570.04,5130.00
             5581.53,5142.02 5593.16,5154.28 5602.65,5168.00
             5626.49,5202.44 5652.76,5247.93 5631.35,5289.96
             5626.22,5300.02 5617.06,5313.33 5606.00,5317.00 Z
           M 4406.00,2989.00
           C 4406.48,2993.59 4399.19,3002.88 4396.50,3007.00
             4396.50,3007.00 4373.92,3046.00 4373.92,3046.00
             4349.68,3093.82 4330.63,3141.84 4317.90,3194.00
             4317.90,3194.00 4313.34,3216.00 4313.34,3216.00
             4313.34,3216.00 4310.46,3228.00 4310.46,3228.00
             4310.46,3228.00 4309.54,3236.00 4309.54,3236.00
             4309.54,3236.00 4306.44,3251.00 4306.44,3251.00
             4306.44,3251.00 4305.57,3260.00 4305.57,3260.00
             4305.57,3260.00 4303.00,3275.00 4303.00,3275.00
             4303.00,3275.00 4303.00,3283.00 4303.00,3283.00
             4303.00,3283.00 4299.91,3314.00 4299.91,3314.00
             4299.91,3314.00 4299.00,3326.00 4299.00,3326.00
             4299.00,3326.00 4299.00,3383.00 4299.00,3383.00
             4299.00,3383.00 4303.06,3425.00 4303.06,3425.00
             4303.06,3425.00 4303.06,3434.00 4303.06,3434.00
             4303.06,3434.00 4305.71,3449.00 4305.71,3449.00
             4305.71,3449.00 4306.44,3458.00 4306.44,3458.00
             4306.44,3458.00 4309.56,3473.00 4309.56,3473.00
             4309.56,3473.00 4314.23,3499.09 4314.23,3499.09
             4314.23,3499.09 4324.00,3541.00 4324.00,3541.00
             4272.82,3541.00 4215.68,3546.13 4167.00,3562.52
             4081.24,3591.37 4010.22,3662.56 3971.11,3743.00
             3957.34,3771.32 3946.71,3804.22 3940.21,3835.00
             3937.83,3846.27 3932.05,3881.53 3932.00,3892.00
             3932.00,3892.00 3930.96,3912.00 3930.96,3912.00
             3930.96,3912.00 3930.00,3925.00 3930.00,3925.00
             3930.00,3925.00 3930.00,3949.00 3930.00,3949.00
             3930.00,3949.00 3932.00,3984.00 3932.00,3984.00
             3932.16,3997.12 3936.47,4016.75 3938.56,4030.00
             3938.56,4030.00 3942.80,4057.00 3942.80,4057.00
             3942.80,4057.00 3952.54,4105.00 3952.54,4105.00
             3952.54,4105.00 3953.61,4114.00 3953.61,4114.00
             3953.61,4114.00 3960.00,4158.00 3960.00,4158.00
             3960.00,4158.00 3961.00,4177.00 3961.00,4177.00
             3961.00,4177.00 3961.00,4212.00 3961.00,4212.00
             3961.00,4212.00 3959.68,4235.00 3959.68,4235.00
             3959.68,4235.00 3957.17,4246.00 3957.17,4246.00
             3957.17,4246.00 3956.54,4259.00 3956.54,4259.00
             3940.89,4348.05 3898.71,4428.46 3852.25,4505.00
             3798.20,4594.05 3733.48,4677.04 3650.83,4741.28
             3586.44,4791.33 3504.75,4827.32 3427.00,4850.96
             3427.00,4850.96 3394.00,4859.75 3394.00,4859.75
             3394.00,4859.75 3356.00,4869.33 3356.00,4869.33
             3356.00,4869.33 3294.00,4880.44 3294.00,4880.44
             3294.00,4880.44 3277.00,4883.57 3277.00,4883.57
             3277.00,4883.57 3263.00,4885.13 3263.00,4885.13
             3263.00,4885.13 3246.09,4887.90 3246.09,4887.90
             3246.09,4887.90 3237.99,4887.90 3237.99,4887.90
             3237.99,4887.90 3218.00,4891.00 3218.00,4891.00
             3218.00,4891.00 3207.00,4891.00 3207.00,4891.00
             3207.00,4891.00 3165.00,4895.00 3165.00,4895.00
             3165.00,4895.00 3152.00,4895.00 3152.00,4895.00
             3152.00,4895.00 3133.00,4896.00 3133.00,4896.00
             3133.00,4896.00 3116.00,4897.00 3116.00,4897.00
             3116.00,4897.00 3094.00,4897.00 3094.00,4897.00
             3094.00,4897.00 3077.00,4898.00 3077.00,4898.00
             3077.00,4898.00 3059.00,4898.00 3059.00,4898.00
             3059.00,4898.00 3043.00,4897.00 3043.00,4897.00
             3043.00,4897.00 3017.00,4897.00 3017.00,4897.00
             3017.00,4897.00 3000.00,4896.00 3000.00,4896.00
             3000.00,4896.00 2980.00,4895.00 2980.00,4895.00
             2980.00,4895.00 2962.00,4895.00 2962.00,4895.00
             2962.00,4895.00 2908.00,4891.00 2908.00,4891.00
             2908.00,4891.00 2872.00,4888.00 2872.00,4888.00
             2872.00,4888.00 2836.00,4884.00 2836.00,4884.00
             2836.00,4884.00 2827.00,4884.00 2827.00,4884.00
             2827.00,4884.00 2803.00,4880.28 2803.00,4880.28
             2803.00,4880.28 2795.00,4879.71 2795.00,4879.71
             2795.00,4879.71 2754.00,4873.44 2754.00,4873.44
             2754.00,4873.44 2739.00,4871.40 2739.00,4871.40
             2739.00,4871.40 2726.00,4869.56 2726.00,4869.56
             2726.00,4869.56 2711.00,4866.46 2711.00,4866.46
             2711.00,4866.46 2703.00,4865.54 2703.00,4865.54
             2703.00,4865.54 2694.00,4863.46 2694.00,4863.46
             2694.00,4863.46 2640.00,4851.80 2640.00,4851.80
             2633.86,4850.28 2616.12,4844.23 2613.09,4838.82
             2611.82,4836.29 2612.55,4833.66 2613.09,4831.00
             2615.86,4831.88 2619.23,4833.62 2622.00,4833.83
             2626.78,4834.19 2636.41,4830.69 2641.00,4828.91
             2641.00,4828.91 2675.00,4815.33 2675.00,4815.33
             2697.36,4805.87 2735.77,4796.29 2760.00,4796.00
             2760.00,4796.00 2786.00,4796.00 2786.00,4796.00
             2786.00,4796.00 2826.00,4799.83 2826.00,4799.83
             2826.00,4799.83 2881.00,4807.44 2881.00,4807.44
             2881.00,4807.44 2897.00,4810.56 2897.00,4810.56
             2897.00,4810.56 2923.00,4814.44 2923.00,4814.44
             2923.00,4814.44 2938.00,4817.56 2938.00,4817.56
             2938.00,4817.56 2947.00,4818.29 2947.00,4818.29
             2947.00,4818.29 2960.00,4820.71 2960.00,4820.71
             2960.00,4820.71 2968.00,4821.28 2968.00,4821.28
             2968.00,4821.28 2993.00,4825.00 2993.00,4825.00
             2993.00,4825.00 3001.00,4825.00 3001.00,4825.00
             3001.00,4825.00 3027.00,4828.00 3027.00,4828.00
             3027.00,4828.00 3075.00,4831.00 3075.00,4831.00
             3075.00,4831.00 3091.00,4832.00 3091.00,4832.00
             3091.00,4832.00 3131.00,4832.00 3131.00,4832.00
             3131.00,4832.00 3150.00,4831.00 3150.00,4831.00
             3150.00,4831.00 3181.00,4828.00 3181.00,4828.00
             3181.00,4828.00 3191.00,4828.00 3191.00,4828.00
             3191.00,4828.00 3208.00,4825.29 3208.00,4825.29
             3208.00,4825.29 3216.00,4824.71 3216.00,4824.71
             3216.00,4824.71 3233.00,4821.44 3233.00,4821.44
             3233.00,4821.44 3257.00,4817.33 3257.00,4817.33
             3354.54,4796.20 3449.46,4747.49 3531.00,4690.77
             3563.01,4668.50 3594.82,4646.19 3625.00,4621.46
             3625.00,4621.46 3661.00,4591.71 3661.00,4591.71
             3661.00,4591.71 3670.00,4583.17 3670.00,4583.17
             3736.96,4522.60 3797.69,4452.70 3829.63,4367.00
             3836.39,4348.86 3840.71,4331.85 3844.66,4313.00
             3844.66,4313.00 3847.56,4300.00 3847.56,4300.00
             3847.56,4300.00 3848.29,4292.00 3848.29,4292.00
             3848.29,4292.00 3851.00,4276.00 3851.00,4276.00
             3851.00,4276.00 3851.00,4266.00 3851.00,4266.00
             3851.00,4266.00 3853.09,4242.00 3853.09,4242.00
             3853.09,4242.00 3854.00,4230.00 3854.00,4230.00
             3854.00,4230.00 3854.00,4184.00 3854.00,4184.00
             3854.00,4184.00 3853.00,4164.00 3853.00,4164.00
             3853.00,4164.00 3852.09,4154.00 3852.09,4154.00
             3852.09,4154.00 3851.00,4127.00 3851.00,4127.00
             3851.00,4127.00 3848.00,4090.00 3848.00,4090.00
             3848.00,4090.00 3843.96,4046.00 3843.96,4046.00
             3843.96,4046.00 3843.96,4036.00 3843.96,4036.00
             3843.96,4036.00 3841.00,4015.00 3841.00,4015.00
             3841.00,4015.00 3841.00,4006.00 3841.00,4006.00
             3841.00,4006.00 3837.00,3978.00 3837.00,3978.00
             3837.00,3978.00 3837.00,3970.00 3837.00,3970.00
             3837.00,3970.00 3833.04,3942.00 3833.04,3942.00
             3833.04,3942.00 3833.04,3933.00 3833.04,3933.00
             3833.04,3933.00 3830.00,3907.00 3830.00,3907.00
             3830.00,3907.00 3827.17,3875.00 3827.17,3875.00
             3827.17,3875.00 3826.00,3851.00 3826.00,3851.00
             3826.00,3851.00 3825.00,3837.00 3825.00,3837.00
             3825.00,3837.00 3824.00,3818.00 3824.00,3818.00
             3824.00,3818.00 3824.00,3761.00 3824.00,3761.00
             3824.00,3761.00 3826.00,3732.00 3826.00,3732.00
             3826.16,3717.63 3828.05,3710.56 3829.71,3697.00
             3829.71,3697.00 3830.29,3688.00 3830.29,3688.00
             3830.29,3688.00 3836.54,3654.00 3836.54,3654.00
             3841.07,3628.88 3847.41,3604.57 3854.26,3580.00
             3890.03,3451.66 3962.28,3332.38 4051.17,3234.00
             4051.17,3234.00 4070.85,3214.05 4070.85,3214.05
             4070.85,3214.05 4104.00,3181.09 4104.00,3181.09
             4104.00,3181.09 4131.00,3157.43 4131.00,3157.43
             4191.49,3105.64 4259.72,3063.58 4330.00,3026.48
             4330.00,3026.48 4389.00,2996.96 4389.00,2996.96
             4389.00,2996.96 4406.00,2989.00 4406.00,2989.00 Z
           M 4273.00,3557.00
           C 4273.00,3557.00 4292.00,3556.00 4292.00,3556.00
             4292.00,3556.00 4321.00,3556.00 4321.00,3556.00
             4323.51,3556.01 4327.28,3555.64 4329.15,3557.60
             4329.15,3557.60 4334.88,3574.00 4334.88,3574.00
             4334.88,3574.00 4347.46,3608.00 4347.46,3608.00
             4369.16,3661.74 4397.89,3715.34 4433.88,3760.91
             4433.88,3760.91 4475.04,3809.00 4475.04,3809.00
             4519.05,3855.02 4571.52,3892.29 4626.00,3924.80
             4626.00,3924.80 4689.00,3959.00 4689.00,3959.00
             4689.00,3959.00 4703.98,3966.14 4703.98,3966.14
             4706.42,3967.41 4708.67,3968.12 4709.15,3971.12
             4709.15,3971.12 4707.00,3994.00 4707.00,3994.00
             4707.00,3994.00 4705.71,4008.00 4705.71,4008.00
             4705.71,4008.00 4699.90,4038.00 4699.90,4038.00
             4692.43,4068.77 4686.05,4088.76 4669.11,4116.00
             4664.65,4123.18 4660.23,4130.54 4654.70,4137.00
             4654.70,4137.00 4641.00,4151.00 4641.00,4151.00
             4641.00,4151.00 4624.00,4167.83 4624.00,4167.83
             4624.00,4167.83 4575.00,4206.51 4575.00,4206.51
             4554.16,4222.68 4533.31,4239.07 4514.00,4257.09
             4507.00,4263.62 4499.74,4272.58 4493.57,4280.00
             4470.25,4308.03 4453.15,4342.37 4445.49,4378.00
             4445.49,4378.00 4442.06,4393.00 4442.06,4393.00
             4442.06,4393.00 4442.06,4402.00 4442.06,4402.00
             4442.06,4402.00 4441.00,4411.00 4441.00,4411.00
             4440.57,4448.15 4452.11,4475.46 4485.00,4495.20
             4491.98,4499.39 4502.28,4504.20 4510.00,4506.80
             4514.21,4508.21 4521.31,4509.52 4524.00,4513.00
             4524.00,4513.00 4505.00,4513.88 4505.00,4513.88
             4505.00,4513.88 4482.00,4513.88 4482.00,4513.88
             4482.00,4513.88 4475.00,4513.88 4475.00,4513.88
             4470.87,4513.85 4466.36,4517.51 4467.66,4522.00
             4469.07,4526.90 4473.62,4527.86 4477.99,4528.00
             4477.99,4528.00 4510.00,4528.00 4510.00,4528.00
             4517.87,4527.96 4521.63,4526.62 4529.00,4525.44
             4558.93,4520.62 4585.71,4506.99 4609.00,4487.75
             4609.00,4487.75 4623.00,4475.84 4623.00,4475.84
             4634.80,4465.30 4649.82,4451.33 4667.00,4457.66
             4681.72,4463.08 4691.43,4477.63 4696.02,4492.00
             4704.85,4519.66 4699.26,4554.02 4679.71,4575.99
             4667.06,4590.20 4643.93,4600.16 4626.00,4605.57
             4611.99,4609.79 4597.50,4613.29 4583.00,4615.56
             4583.00,4615.56 4573.00,4616.43 4573.00,4616.43
             4560.26,4618.26 4549.98,4619.85 4537.00,4620.00
             4537.00,4620.00 4527.00,4620.91 4527.00,4620.91
             4527.00,4620.91 4505.00,4622.00 4505.00,4622.00
             4505.00,4622.00 4488.00,4623.00 4488.00,4623.00
             4488.00,4623.00 4430.00,4623.00 4430.00,4623.00
             4430.00,4623.00 4398.00,4620.17 4398.00,4620.17
             4394.58,4619.84 4388.97,4620.38 4386.09,4619.28
             4383.56,4618.31 4380.27,4615.02 4377.99,4613.23
             4377.99,4613.23 4364.72,4603.34 4364.72,4603.34
             4364.72,4603.34 4322.54,4567.88 4322.54,4567.88
             4309.63,4555.75 4296.55,4543.34 4284.92,4529.96
             4254.09,4494.50 4230.39,4452.59 4218.52,4407.00
             4215.73,4396.26 4213.13,4386.03 4211.72,4375.00
             4211.72,4375.00 4208.00,4347.00 4208.00,4347.00
             4208.00,4347.00 4208.00,4310.00 4208.00,4310.00
             4208.03,4292.67 4214.61,4260.88 4219.72,4244.00
             4231.07,4206.51 4249.75,4171.67 4267.64,4137.00
             4287.39,4098.73 4304.37,4065.07 4318.11,4024.00
             4327.22,3996.78 4335.10,3959.50 4339.56,3931.00
             4339.56,3931.00 4341.13,3917.00 4341.13,3917.00
             4341.13,3917.00 4343.83,3900.00 4343.83,3900.00
             4343.83,3900.00 4345.17,3875.00 4345.17,3875.00
             4345.17,3875.00 4350.39,3848.00 4350.39,3848.00
             4350.39,3848.00 4354.00,3810.00 4354.00,3810.00
             4354.00,3810.00 4354.00,3793.00 4354.00,3793.00
             4353.97,3775.92 4350.48,3758.72 4347.46,3742.00
             4347.46,3742.00 4346.33,3734.00 4346.33,3734.00
             4338.34,3696.55 4321.15,3648.25 4304.04,3614.00
             4304.04,3614.00 4286.43,3580.00 4286.43,3580.00
             4286.43,3580.00 4273.00,3557.00 4273.00,3557.00 Z
           M 5825.00,3686.00
           C 5825.00,3686.00 5893.00,3671.66 5893.00,3671.66
             5893.00,3671.66 5915.00,3667.11 5915.00,3667.11
             5915.00,3667.11 5942.00,3660.51 5942.00,3660.51
             5942.00,3660.51 5961.00,3656.49 5961.00,3656.49
             5961.00,3656.49 5971.00,3653.66 5971.00,3653.66
             5971.00,3653.66 5993.00,3648.96 5993.00,3648.96
             5993.00,3648.96 6038.00,3637.58 6038.00,3637.58
             6041.63,3636.58 6052.72,3632.93 6055.79,3634.78
             6058.34,3636.32 6063.63,3646.87 6065.25,3650.00
             6072.52,3663.96 6079.15,3678.13 6084.34,3693.00
             6090.13,3709.55 6096.97,3734.56 6097.00,3752.00
             6097.00,3752.00 6097.00,3764.00 6097.00,3764.00
             6096.99,3771.53 6096.44,3772.80 6095.00,3780.00
             6089.10,3809.51 6072.82,3828.22 6054.66,3851.00
             6026.68,3886.12 6007.11,3907.39 5991.54,3951.00
             5977.83,3989.40 5970.23,4043.63 6008.00,4071.39
             6013.18,4075.19 6020.91,4078.44 6027.00,4080.56
             6031.60,4082.17 6049.88,4084.87 6055.00,4084.99
             6070.68,4085.34 6088.60,4080.35 6104.00,4077.58
             6109.18,4076.64 6118.57,4073.52 6121.26,4080.06
             6124.03,4086.77 6116.63,4103.21 6112.91,4109.00
             6096.70,4134.28 6074.27,4139.86 6046.00,4137.17
             6046.00,4137.17 6035.00,4136.38 6035.00,4136.38
             5976.87,4125.92 5916.82,4085.68 5885.14,4036.00
             5870.58,4013.17 5860.04,3986.36 5860.00,3959.00
             5860.00,3959.00 5860.00,3947.00 5860.00,3947.00
             5860.34,3918.48 5876.82,3878.06 5882.46,3848.00
             5883.84,3840.66 5885.91,3833.53 5886.00,3826.00
             5886.00,3826.00 5886.00,3815.00 5886.00,3815.00
             5885.95,3785.34 5868.41,3748.45 5852.50,3724.00
             5852.50,3724.00 5835.33,3700.00 5835.33,3700.00
             5831.09,3694.61 5827.59,3692.62 5825.00,3686.00 Z
           M 5009.00,4087.00
           C 5015.05,4087.77 5038.07,4096.80 5045.00,4099.55
             5045.00,4099.55 5057.00,4103.74 5057.00,4103.74
             5057.00,4103.74 5100.00,4120.94 5100.00,4120.94
             5100.00,4120.94 5123.00,4130.69 5123.00,4130.69
             5125.51,4131.81 5130.54,4133.29 5131.99,4135.56
             5133.66,4138.14 5131.56,4143.91 5131.16,4147.00
             5129.51,4159.53 5128.85,4162.05 5129.00,4175.00
             5129.07,4180.81 5129.71,4181.71 5130.56,4187.00
             5135.22,4215.97 5149.92,4241.57 5181.00,4246.75
             5185.42,4247.49 5188.44,4248.14 5193.00,4247.96
             5210.52,4247.28 5232.29,4240.19 5248.00,4232.59
             5248.00,4232.59 5264.00,4224.46 5264.00,4224.46
             5266.27,4223.26 5269.04,4221.41 5271.71,4222.34
             5274.28,4223.24 5279.56,4229.75 5281.39,4232.00
             5287.69,4239.73 5295.41,4250.24 5300.10,4259.01
             5314.79,4286.49 5318.05,4310.34 5318.00,4341.00
             5318.00,4341.00 5316.17,4361.00 5316.17,4361.00
             5315.05,4372.54 5311.99,4391.71 5307.00,4402.00
             5304.34,4400.31 5302.21,4398.56 5299.00,4398.16
             5299.00,4398.16 5267.00,4401.00 5267.00,4401.00
             5233.13,4401.39 5195.58,4399.51 5163.00,4389.79
             5144.78,4384.35 5127.06,4377.21 5111.00,4366.91
             5057.65,4332.70 5022.71,4275.92 5011.46,4214.00
             5005.95,4183.66 5005.64,4152.77 5006.00,4122.00
             5006.00,4122.00 5009.00,4087.00 5009.00,4087.00 Z
           M 5745.00,4300.00
           C 5745.00,4300.00 5764.00,4309.14 5764.00,4309.14
             5764.00,4309.14 5781.00,4316.54 5781.00,4316.54
             5798.36,4323.19 5816.47,4326.21 5835.00,4326.00
             5835.00,4326.00 5845.00,4324.90 5845.00,4324.90
             5845.00,4324.90 5854.00,4324.90 5854.00,4324.90
             5854.00,4324.90 5868.00,4321.80 5868.00,4321.80
             5868.00,4321.80 5939.00,4306.72 5939.00,4306.72
             5939.00,4306.72 5954.00,4305.00 5954.00,4305.00
             5973.06,4304.78 5992.22,4310.24 6006.00,4324.00
             6015.21,4333.20 6020.48,4342.84 6016.70,4356.00
             6015.40,4360.51 6013.65,4364.08 6011.05,4368.00
             6003.16,4379.89 5987.70,4391.79 5975.00,4398.24
             5971.83,4399.85 5964.24,4403.81 5961.00,4404.19
             5961.00,4404.19 5937.00,4402.00 5937.00,4402.00
             5919.27,4401.97 5908.28,4400.36 5891.00,4398.28
             5891.00,4398.28 5881.00,4397.71 5881.00,4397.71
             5881.00,4397.71 5827.00,4387.66 5827.00,4387.66
             5799.71,4381.75 5761.60,4372.24 5736.00,4362.00
             5736.00,4362.00 5742.83,4325.00 5742.83,4325.00
             5742.83,4325.00 5745.00,4300.00 5745.00,4300.00 Z
           M 6214.00,5605.21
           C 6214.00,5605.21 6221.00,5605.21 6221.00,5605.21
             6275.80,5604.74 6322.34,5645.90 6323.00,5702.00
             6323.12,5712.56 6321.33,5723.89 6318.28,5734.00
             6315.73,5742.45 6311.86,5750.65 6307.00,5758.00
             6301.50,5766.31 6297.34,5771.11 6290.00,5777.91
             6260.94,5804.84 6226.41,5802.69 6190.00,5806.17
             6190.00,5806.17 6117.00,5812.83 6117.00,5812.83
             6117.00,5812.83 6028.00,5820.17 6028.00,5820.17
             6028.00,5820.17 5701.00,5848.83 5701.00,5848.83
             5701.00,5848.83 5647.00,5853.17 5647.00,5853.17
             5647.00,5853.17 5539.00,5862.83 5539.00,5862.83
             5539.00,5862.83 5485.00,5867.17 5485.00,5867.17
             5485.00,5867.17 5429.00,5872.17 5429.00,5872.17
             5429.00,5872.17 5406.00,5874.09 5406.00,5874.09
             5406.00,5874.09 5395.00,5875.00 5395.00,5875.00
             5338.67,5875.24 5294.35,5830.22 5295.00,5774.00
             5295.45,5735.30 5320.19,5699.11 5356.00,5684.60
             5371.01,5678.52 5386.11,5677.35 5402.00,5675.83
             5402.00,5675.83 5448.00,5671.91 5448.00,5671.91
             5448.00,5671.91 5488.00,5668.17 5488.00,5668.17
             5488.00,5668.17 5541.00,5663.83 5541.00,5663.83
             5541.00,5663.83 5586.00,5659.96 5586.00,5659.96
             5586.00,5659.96 5604.00,5658.17 5604.00,5658.17
             5604.00,5658.17 5649.00,5654.17 5649.00,5654.17
             5649.00,5654.17 5750.00,5645.83 5750.00,5645.83
             5750.00,5645.83 5836.00,5638.09 5836.00,5638.09
             5836.00,5638.09 5938.00,5629.17 5938.00,5629.17
             5938.00,5629.17 5969.00,5626.83 5969.00,5626.83
             5969.00,5626.83 6065.00,5618.17 6065.00,5618.17
             6065.00,5618.17 6170.00,5609.17 6170.00,5609.17
             6170.00,5609.17 6204.00,5606.17 6204.00,5606.17
             6204.00,5606.17 6214.00,5605.21 6214.00,5605.21 Z" />
</svg>
