<?xml version="1.0" encoding="UTF-8" standalone="no"?>
<!DOCTYPE svg PUBLIC "-//W3C//DTD SVG 20010904//EN"
              "http://www.w3.org/TR/2001/REC-SVG-20010904/DTD/svg10.dtd">

<svg xmlns="http://www.w3.org/2000/svg"
     width="16in" height="10.4533in"
     viewBox="0 0 9600 6272">
  <path id="Red"
        fill="none" stroke="black" stroke-width="1"
        d="M 5823.00,342.21
           C 5823.00,342.21 5833.00,342.21 5833.00,342.21
             5898.94,342.77 5946.28,409.72 5924.92,472.00
             5914.78,501.58 5896.98,515.09 5874.00,534.25
             5874.00,534.25 5840.00,562.59 5840.00,562.59
             5840.00,562.59 5182.00,1112.25 5182.00,1112.25
             5182.00,1112.25 5135.00,1151.25 5135.00,1151.25
             5119.06,1164.53 5108.24,1174.90 5088.00,1181.65
             5040.45,1197.48 4987.46,1176.15 4966.31,1130.00
             4960.22,1116.70 4956.83,1100.62 4957.00,1086.00
             4957.26,1064.31 4966.22,1040.45 4980.30,1024.00
             4988.93,1013.92 5009.95,997.14 5021.00,987.92
             5021.00,987.92 5138.00,890.25 5138.00,890.25
             5138.00,890.25 5453.00,627.08 5453.00,627.08
             5453.00,627.08 5612.00,494.57 5612.00,494.57
             5612.00,494.57 5727.00,398.58 5727.00,398.58
             5742.48,385.50 5770.00,360.55 5787.00,352.26
             5799.94,345.95 5809.08,344.44 5823.00,342.21 Z
           M 5160.00,2541.00
           C 5160.00,2541.00 5170.00,2546.60 5170.00,2546.60
             5170.00,2546.60 5178.00,2550.10 5178.00,2550.10
             5186.70,2555.10 5204.50,2568.89 5211.25,2576.17
             5215.28,2580.52 5221.07,2587.85 5223.96,2593.00
             5225.46,2595.68 5227.22,2601.52 5229.42,2602.98
             5231.57,2604.41 5238.25,2604.03 5241.00,2604.00
             5241.00,2604.00 5279.00,2600.04 5279.00,2600.04
             5279.00,2600.04 5289.00,2600.04 5289.00,2600.04
             5289.00,2600.04 5301.00,2599.00 5301.00,2599.00
             5316.99,2598.98 5339.55,2600.11 5355.00,2603.65
             5375.89,2608.44 5377.12,2611.88 5395.00,2620.75
             5395.00,2620.75 5426.00,2634.90 5426.00,2634.90
             5426.00,2634.90 5435.00,2640.10 5435.00,2640.10
             5435.00,2640.10 5453.00,2647.55 5453.00,2647.55
             5453.00,2647.55 5505.00,2668.80 5505.00,2668.80
             5505.00,2668.80 5517.00,2673.52 5517.00,2673.52
             5519.28,2674.17 5522.52,2674.60 5524.14,2676.65
             5525.63,2678.89 5524.76,2683.43 5524.14,2686.00
             5524.14,2686.00 5524.14,2702.00 5524.14,2702.00
             5524.14,2702.00 5523.00,2716.00 5523.00,2716.00
             5523.00,2716.00 5521.91,2741.00 5521.91,2741.00
             5521.91,2741.00 5521.00,2752.00 5521.00,2752.00
             5521.00,2752.00 5499.00,2743.42 5499.00,2743.42
             5499.00,2743.42 5448.00,2725.72 5448.00,2725.72
             5401.21,2711.63 5351.86,2701.09 5303.00,2698.96
             5303.00,2698.96 5290.00,2698.00 5290.00,2698.00
             5290.00,2698.00 5266.00,2698.00 5266.00,2698.00
             5266.00,2698.00 5254.00,2698.91 5254.00,2698.91
             5237.54,2700.04 5221.23,2701.20 5205.00,2704.66
             5205.00,2704.66 5183.00,2709.88 5183.00,2709.88
             5179.60,2710.78 5174.28,2712.93 5171.00,2712.57
             5163.26,2711.71 5155.58,2702.99 5150.00,2698.32
             5147.96,2696.61 5143.17,2693.60 5142.03,2691.54
             5140.54,2688.83 5142.89,2683.04 5143.58,2680.00
             5143.58,2680.00 5150.39,2649.00 5150.39,2649.00
             5156.87,2613.31 5160.00,2577.23 5160.00,2541.00 Z
           M 4441.00,2686.00
           C 4446.64,2689.38 4448.34,2694.52 4451.60,2700.00
             4451.60,2700.00 4464.07,2719.00 4464.07,2719.00
             4464.07,2719.00 4468.99,2728.86 4468.99,2728.86
             4468.99,2728.86 4479.00,2737.00 4479.00,2737.00
             4489.97,2747.26 4498.65,2755.46 4512.00,2762.69
             4535.60,2775.48 4559.61,2781.12 4586.00,2784.28
             4586.00,2784.28 4606.00,2786.00 4606.00,2786.00
             4614.18,2786.01 4631.10,2785.05 4638.00,2788.00
             4638.00,2788.00 4607.00,2805.47 4607.00,2805.47
             4607.00,2805.47 4580.00,2803.17 4580.00,2803.17
             4580.00,2803.17 4561.00,2801.83 4561.00,2801.83
             4561.00,2801.83 4524.00,2799.00 4524.00,2799.00
             4524.00,2799.00 4514.00,2798.00 4514.00,2798.00
             4514.00,2798.00 4505.00,2798.00 4505.00,2798.00
             4505.00,2798.00 4491.00,2797.00 4491.00,2797.00
             4491.00,2797.00 4474.00,2796.00 4474.00,2796.00
             4474.00,2796.00 4422.00,2795.00 4422.00,2795.00
             4422.00,2795.00 4408.00,2794.02 4408.00,2794.02
             4408.00,2794.02 4392.00,2795.00 4392.00,2795.00
             4392.00,2795.00 4342.00,2796.00 4342.00,2796.00
             4342.00,2796.00 4330.00,2796.00 4330.00,2796.00
             4332.35,2787.76 4338.54,2778.42 4343.00,2771.00
             4357.98,2746.08 4375.83,2726.88 4400.00,2710.67
             4406.84,2706.08 4415.64,2700.95 4423.00,2697.25
             4429.64,2693.91 4436.24,2691.85 4441.00,2686.00 Z
           M 4232.00,2773.00
           C 4232.00,2773.00 4222.48,2794.00 4222.48,2794.00
             4221.23,2797.65 4221.47,2801.34 4225.76,2802.69
             4231.00,2804.35 4234.01,2796.64 4235.69,2793.00
             4241.74,2779.94 4249.19,2767.54 4259.28,2757.17
             4280.22,2735.64 4307.70,2727.54 4336.00,2721.12
             4343.87,2719.33 4362.70,2715.93 4370.00,2718.00
             4370.00,2718.00 4370.00,2720.00 4370.00,2720.00
             4357.02,2728.78 4337.52,2756.86 4329.43,2771.00
             4329.43,2771.00 4320.76,2787.00 4320.76,2787.00
             4319.27,2789.92 4317.44,2794.33 4314.79,2796.26
             4311.81,2798.44 4301.89,2798.94 4298.00,2799.00
             4298.00,2799.00 4274.00,2801.16 4274.00,2801.16
             4274.00,2801.16 4254.00,2803.42 4254.00,2803.42
             4254.00,2803.42 4236.01,2805.93 4236.01,2805.93
             4236.01,2805.93 4228.83,2805.93 4228.83,2805.93
             4228.83,2805.93 4216.00,2808.91 4216.00,2808.91
             4216.00,2808.91 4184.00,2814.42 4184.00,2814.42
             4184.00,2814.42 4169.00,2817.00 4169.00,2817.00
             4172.62,2797.71 4198.05,2783.64 4215.00,2777.32
             4221.64,2774.85 4224.72,2773.34 4232.00,2773.00 Z
           M 7209.00,3983.13
           C 7218.01,3983.63 7219.98,3989.39 7224.06,3996.00
             7231.77,4008.47 7233.29,4009.87 7238.80,4024.00
             7243.62,4036.39 7248.84,4064.70 7249.00,4078.00
             7249.10,4087.22 7247.91,4095.16 7245.28,4104.00
             7242.14,4114.52 7235.93,4127.83 7229.92,4137.00
             7227.39,4140.86 7218.99,4151.71 7217.92,4155.00
             7216.93,4157.81 7217.80,4161.05 7217.92,4164.00
             7217.92,4164.00 7219.00,4183.00 7219.00,4183.00
             7219.00,4183.00 7221.96,4215.00 7221.96,4215.00
             7222.44,4226.07 7219.58,4241.85 7215.14,4252.00
             7205.65,4273.69 7193.12,4286.12 7173.00,4298.20
             7169.24,4300.46 7158.88,4308.04 7155.00,4307.02
             7153.01,4306.49 7149.81,4303.96 7148.00,4302.74
             7145.40,4300.99 7141.60,4299.00 7139.65,4296.67
             7134.79,4290.87 7136.05,4281.91 7135.03,4275.00
             7129.97,4240.65 7125.95,4234.51 7126.17,4197.50
             7126.17,4197.50 7126.17,4183.00 7126.17,4183.00
             7126.05,4172.27 7130.04,4155.34 7131.92,4144.00
             7131.92,4144.00 7137.72,4113.00 7137.72,4113.00
             7142.62,4096.57 7144.05,4096.57 7149.55,4083.00
             7149.55,4083.00 7157.54,4063.00 7157.54,4063.00
             7157.54,4063.00 7160.35,4055.00 7160.35,4055.00
             7165.20,4044.07 7172.17,4033.78 7178.96,4024.00
             7178.96,4024.00 7198.15,3994.00 7198.15,3994.00
             7201.33,3989.65 7203.86,3985.16 7209.00,3983.13 Z
           M 6214.00,5605.21
           C 6214.00,5605.21 6221.00,5605.21 6221.00,5605.21
             6275.80,5604.74 6322.34,5645.90 6323.00,5702.00
             6323.12,5712.56 6321.33,5723.89 6318.28,5734.00
             6315.73,5742.45 6311.86,5750.65 6307.00,5758.00
             6301.50,5766.31 6297.34,5771.11 6290.00,5777.91
             6260.94,5804.84 6226.41,5802.69 6190.00,5806.17
             6190.00,5806.17 6117.00,5812.83 6117.00,5812.83
             6117.00,5812.83 6028.00,5820.17 6028.00,5820.17
             6028.00,5820.17 5701.00,5848.83 5701.00,5848.83
             5701.00,5848.83 5647.00,5853.17 5647.00,5853.17
             5647.00,5853.17 5539.00,5862.83 5539.00,5862.83
             5539.00,5862.83 5485.00,5867.17 5485.00,5867.17
             5485.00,5867.17 5429.00,5872.17 5429.00,5872.17
             5429.00,5872.17 5406.00,5874.09 5406.00,5874.09
             5406.00,5874.09 5395.00,5875.00 5395.00,5875.00
             5338.67,5875.24 5294.35,5830.22 5295.00,5774.00
             5295.45,5735.30 5320.19,5699.11 5356.00,5684.60
             5371.01,5678.52 5386.11,5677.35 5402.00,5675.83
             5402.00,5675.83 5448.00,5671.91 5448.00,5671.91
             5448.00,5671.91 5488.00,5668.17 5488.00,5668.17
             5488.00,5668.17 5541.00,5663.83 5541.00,5663.83
             5541.00,5663.83 5586.00,5659.96 5586.00,5659.96
             5586.00,5659.96 5604.00,5658.17 5604.00,5658.17
             5604.00,5658.17 5649.00,5654.17 5649.00,5654.17
             5649.00,5654.17 5750.00,5645.83 5750.00,5645.83
             5750.00,5645.83 5836.00,5638.09 5836.00,5638.09
             5836.00,5638.09 5938.00,5629.17 5938.00,5629.17
             5938.00,5629.17 5969.00,5626.83 5969.00,5626.83
             5969.00,5626.83 6065.00,5618.17 6065.00,5618.17
             6065.00,5618.17 6170.00,5609.17 6170.00,5609.17
             6170.00,5609.17 6204.00,5606.17 6204.00,5606.17
             6204.00,5606.17 6214.00,5605.21 6214.00,5605.21 Z" />
</svg>
