<?xml version="1.0" encoding="UTF-8" standalone="no"?>
<!DOCTYPE svg PUBLIC "-//W3C//DTD SVG 20010904//EN"
              "http://www.w3.org/TR/2001/REC-SVG-20010904/DTD/svg10.dtd">

<svg xmlns="http://www.w3.org/2000/svg"
     width="16in" height="10.4533in"
     viewBox="0 0 9600 6272">
  <path id="White Eyes and Teefs"
        fill="none" stroke="black" stroke-width="1"
        d="M 5823.00,342.21
           C 5823.00,342.21 5833.00,342.21 5833.00,342.21
             5898.94,342.77 5946.28,409.72 5924.92,472.00
             5914.78,501.58 5896.98,515.09 5874.00,534.25
             5874.00,534.25 5840.00,562.59 5840.00,562.59
             5840.00,562.59 5182.00,1112.25 5182.00,1112.25
             5182.00,1112.25 5135.00,1151.25 5135.00,1151.25
             5119.06,1164.53 5108.24,1174.90 5088.00,1181.65
             5040.45,1197.48 4987.46,1176.15 4966.31,1130.00
             4960.22,1116.70 4956.83,1100.62 4957.00,1086.00
             4957.26,1064.31 4966.22,1040.45 4980.30,1024.00
             4988.93,1013.92 5009.95,997.14 5021.00,987.92
             5021.00,987.92 5138.00,890.25 5138.00,890.25
             5138.00,890.25 5453.00,627.08 5453.00,627.08
             5453.00,627.08 5612.00,494.57 5612.00,494.57
             5612.00,494.57 5727.00,398.58 5727.00,398.58
             5742.48,385.50 5770.00,360.55 5787.00,352.26
             5799.94,345.95 5809.08,344.44 5823.00,342.21 Z
           M 7840.00,3503.42
           C 7870.77,3499.68 7888.85,3517.55 7906.66,3540.00
             7931.52,3571.33 7954.81,3606.95 7975.91,3641.00
             7998.42,3677.33 8023.28,3722.34 8038.92,3762.00
             8038.92,3762.00 8051.04,3798.00 8051.04,3798.00
             8051.04,3798.00 8055.49,3810.00 8055.49,3810.00
             8057.46,3817.76 8062.31,3842.69 8061.91,3850.00
             8061.91,3850.00 8061.34,3856.00 8061.34,3856.00
             8061.34,3856.00 8062.00,3865.00 8062.00,3865.00
             8062.00,3865.00 8061.00,3878.00 8061.00,3878.00
             8061.00,3878.00 8061.00,3887.00 8061.00,3887.00
             8061.00,3887.00 8056.96,3905.00 8056.96,3905.00
             8049.47,3929.66 8036.64,3944.91 8020.27,3964.00
             8008.08,3978.22 7990.81,3991.08 7974.00,3999.34
             7956.18,4008.11 7923.84,4015.97 7904.00,4016.00
             7904.00,4016.00 7865.00,4016.00 7865.00,4016.00
             7865.00,4016.00 7843.00,4013.42 7843.00,4013.42
             7843.00,4013.42 7833.00,4012.57 7833.00,4012.57
             7833.00,4012.57 7819.00,4009.67 7819.00,4009.67
             7819.00,4009.67 7811.00,4008.54 7811.00,4008.54
             7811.00,4008.54 7792.00,4003.90 7792.00,4003.90
             7792.00,4003.90 7779.00,4001.71 7779.00,4001.71
             7779.00,4001.71 7770.00,3998.52 7770.00,3998.52
             7770.00,3998.52 7733.00,3984.92 7733.00,3984.92
             7713.61,3977.17 7694.31,3969.24 7676.00,3959.14
             7656.18,3948.21 7636.58,3934.74 7623.44,3916.00
             7613.28,3901.50 7604.08,3874.74 7604.00,3857.00
             7604.00,3857.00 7604.00,3849.00 7604.00,3849.00
             7604.00,3849.00 7603.34,3840.00 7603.34,3840.00
             7603.34,3840.00 7604.00,3831.00 7604.00,3831.00
             7604.00,3831.00 7604.00,3822.00 7604.00,3822.00
             7604.01,3813.51 7605.91,3805.32 7607.39,3797.00
             7607.39,3797.00 7608.46,3789.00 7608.46,3789.00
             7611.31,3773.31 7616.21,3758.13 7621.12,3743.00
             7641.35,3680.63 7678.60,3617.40 7725.00,3571.00
             7736.84,3559.16 7760.99,3537.43 7775.00,3528.87
             7775.00,3528.87 7792.00,3520.36 7792.00,3520.36
             7804.10,3514.16 7817.53,3507.01 7831.00,3504.47
             7831.00,3504.47 7840.00,3503.42 7840.00,3503.42 Z
           M 7308.00,3880.00
           C 7312.66,3874.60 7319.52,3867.92 7326.00,3865.00
             7326.00,3865.00 7327.17,3879.00 7327.17,3879.00
             7327.17,3879.00 7329.00,3891.00 7329.00,3891.00
             7329.00,3891.00 7308.00,3880.00 7308.00,3880.00 Z
           M 7255.00,3930.00
           C 7259.41,3923.78 7273.11,3909.02 7280.00,3907.00
             7283.14,3912.89 7286.65,3916.12 7290.96,3921.00
             7292.44,3922.68 7294.97,3925.21 7293.83,3927.69
             7292.74,3930.06 7287.34,3930.43 7285.00,3930.72
             7279.02,3931.44 7260.42,3931.54 7255.00,3930.00 Z
           M 7211.00,3980.00
           C 7213.29,3976.38 7219.33,3967.95 7222.17,3965.06
             7223.85,3963.35 7226.11,3961.13 7228.71,3962.17
             7230.91,3963.04 7235.08,3968.93 7236.57,3971.00
             7242.80,3979.68 7248.10,3989.38 7250.00,4000.00
             7240.95,3996.48 7229.72,3983.82 7211.00,3980.00 Z
           M 7285.00,4003.00
           C 7289.84,3992.76 7302.79,3987.53 7313.00,3984.34
             7318.79,3982.53 7321.97,3981.31 7328.00,3983.00
             7328.00,3983.00 7324.00,4005.00 7324.00,4005.00
             7318.07,4002.66 7314.78,4000.34 7308.00,4000.04
             7301.67,3999.76 7291.76,4002.10 7285.00,4003.00 Z
           M 7186.00,4013.00
           C 7190.64,4015.91 7195.45,4020.11 7198.00,4025.00
             7198.00,4025.00 7182.00,4022.00 7182.00,4022.00
             7182.00,4022.00 7186.00,4013.00 7186.00,4013.00 Z
           M 7147.00,4090.00
           C 7148.74,4083.38 7151.08,4078.20 7153.86,4072.00
             7154.80,4069.91 7156.36,4066.23 7158.39,4065.06
             7161.37,4063.35 7166.98,4066.10 7170.00,4067.12
             7180.17,4070.54 7197.40,4080.30 7202.00,4090.00
             7202.00,4090.00 7147.00,4090.00 7147.00,4090.00 Z
           M 7282.00,4087.00
           C 7293.15,4082.65 7311.83,4072.59 7322.00,4071.00
             7322.00,4071.00 7323.43,4086.00 7323.43,4086.00
             7323.43,4086.00 7326.57,4103.00 7326.57,4103.00
             7326.57,4103.00 7328.00,4117.00 7328.00,4117.00
             7321.15,4115.00 7298.28,4100.74 7292.00,4096.00
             7287.85,4092.87 7284.45,4091.65 7282.00,4087.00 Z
           M 7275.00,4130.00
           C 7284.91,4126.29 7295.38,4124.03 7306.00,4124.03
             7306.00,4124.03 7329.00,4126.00 7329.00,4126.00
             7329.00,4126.00 7328.00,4148.00 7328.00,4148.00
             7308.10,4138.74 7307.12,4141.43 7289.00,4135.23
             7283.66,4133.40 7279.77,4133.41 7275.00,4130.00 Z
           M 7134.00,4132.00
           C 7139.28,4133.29 7143.43,4136.58 7148.00,4139.42
             7148.00,4139.42 7169.00,4152.37 7169.00,4152.37
             7173.33,4155.10 7178.44,4157.44 7181.00,4162.00
             7174.83,4163.11 7162.34,4164.03 7156.00,4164.00
             7156.00,4164.00 7145.00,4163.09 7145.00,4163.09
             7141.30,4162.82 7133.31,4162.95 7130.87,4159.57
             7129.47,4157.27 7130.39,4153.56 7130.87,4151.00
             7130.87,4151.00 7134.00,4132.00 7134.00,4132.00 Z
           M 7271.00,4152.00
           C 7271.00,4152.00 7287.00,4155.20 7287.00,4155.20
             7287.00,4155.20 7301.00,4157.46 7301.00,4157.46
             7301.00,4157.46 7317.00,4159.96 7317.00,4159.96
             7317.00,4159.96 7326.00,4158.00 7326.00,4158.00
             7324.30,4164.88 7321.92,4168.24 7318.07,4174.00
             7316.52,4176.33 7314.84,4179.47 7311.96,4180.30
             7308.98,4181.15 7302.83,4177.87 7300.00,4176.52
             7291.82,4172.60 7275.14,4159.95 7271.00,4152.00 Z
           M 7128.00,4194.00
           C 7135.61,4196.91 7145.51,4204.61 7149.00,4212.00
             7149.00,4212.00 7128.00,4214.00 7128.00,4214.00
             7128.00,4214.00 7128.00,4194.00 7128.00,4194.00 Z
           M 7262.00,4203.00
           C 7262.00,4203.00 7276.00,4199.39 7276.00,4199.39
             7276.00,4199.39 7303.00,4195.00 7303.00,4195.00
             7300.38,4200.87 7295.87,4207.71 7292.39,4213.28
             7291.09,4215.38 7289.49,4219.24 7286.79,4219.56
             7284.34,4219.86 7280.97,4217.46 7279.00,4216.16
             7279.00,4216.16 7262.00,4203.00 7262.00,4203.00 Z
           M 7251.00,4236.00
           C 7251.00,4236.00 7277.00,4239.00 7277.00,4239.00
             7277.00,4239.00 7269.00,4257.00 7269.00,4257.00
             7260.68,4253.06 7255.21,4243.87 7251.00,4236.00 Z
           M 7131.00,4247.00
           C 7131.00,4247.00 7143.00,4252.83 7143.00,4252.83
             7143.00,4252.83 7168.00,4261.00 7168.00,4261.00
             7163.16,4269.03 7143.70,4270.86 7135.00,4273.00
             7132.60,4263.97 7131.01,4256.39 7131.00,4247.00 Z
           M 7227.00,4294.00
           C 7227.00,4294.00 7256.00,4284.00 7256.00,4284.00
             7256.00,4284.00 7246.00,4311.00 7246.00,4311.00
             7240.26,4308.55 7228.84,4299.96 7227.00,4294.00 Z
           M 7142.00,4305.00
           C 7149.74,4308.28 7157.93,4315.78 7164.17,4321.46
             7168.44,4325.35 7172.50,4328.71 7175.00,4334.00
             7175.00,4334.00 7150.00,4338.00 7150.00,4338.00
             7150.00,4338.00 7142.00,4305.00 7142.00,4305.00 Z
           M 7210.00,4339.00
           C 7221.41,4340.18 7214.16,4342.00 7234.00,4342.00
             7234.00,4342.00 7228.00,4364.00 7228.00,4364.00
             7221.26,4360.74 7212.16,4346.24 7210.00,4339.00 Z
           M 7158.00,4363.00
           C 7163.90,4366.95 7171.99,4374.62 7175.00,4381.00
             7175.00,4381.00 7164.00,4383.00 7164.00,4383.00
             7164.00,4383.00 7158.00,4363.00 7158.00,4363.00 Z
           M 7178.00,4422.00
           C 7178.00,4422.00 7184.00,4422.00 7184.00,4422.00
             7184.00,4422.00 7180.00,4428.00 7180.00,4428.00
             7180.00,4428.00 7178.00,4422.00 7178.00,4422.00 Z
           M 7740.00,4840.00
           C 7736.89,4846.04 7730.25,4849.46 7725.00,4853.50
             7725.00,4853.50 7689.00,4879.08 7689.00,4879.08
             7654.59,4901.68 7619.91,4922.96 7582.00,4939.28
             7565.56,4946.36 7539.81,4955.79 7522.00,4956.00
             7519.00,4956.03 7511.53,4956.25 7509.00,4955.44
             7504.55,4954.02 7488.29,4940.94 7484.00,4937.46
             7464.82,4921.87 7448.17,4906.15 7433.59,4886.00
             7415.80,4861.41 7405.10,4832.63 7399.54,4803.00
             7399.54,4803.00 7397.29,4792.00 7397.29,4792.00
             7397.29,4792.00 7396.72,4784.00 7396.72,4784.00
             7396.72,4784.00 7394.00,4754.00 7394.00,4754.00
             7394.00,4754.00 7393.01,4739.00 7393.01,4739.00
             7393.01,4739.00 7394.00,4725.00 7394.00,4725.00
             7394.00,4725.00 7394.00,4718.00 7394.00,4718.00
             7394.00,4718.00 7395.84,4699.00 7395.84,4699.00
             7395.84,4699.00 7400.44,4659.00 7400.44,4659.00
             7400.44,4659.00 7403.54,4645.00 7403.54,4645.00
             7408.69,4617.71 7417.10,4588.11 7429.10,4563.00
             7441.81,4536.41 7457.14,4512.28 7480.28,4493.43
             7494.78,4481.62 7518.57,4471.75 7537.00,4468.46
             7537.00,4468.46 7545.00,4467.57 7545.00,4467.57
             7545.00,4467.57 7568.00,4465.00 7568.00,4465.00
             7621.13,4464.38 7679.71,4487.60 7723.00,4517.44
             7737.12,4527.17 7751.19,4536.72 7764.04,4548.13
             7764.04,4548.13 7794.00,4575.00 7794.00,4575.00
             7794.00,4575.00 7817.17,4601.00 7817.17,4601.00
             7827.12,4612.08 7838.91,4626.11 7842.32,4641.00
             7843.09,4644.34 7842.85,4645.87 7843.17,4649.00
             7843.52,4652.53 7844.12,4654.17 7843.91,4658.00
             7843.91,4658.00 7842.54,4674.00 7842.54,4674.00
             7840.20,4687.23 7829.78,4707.13 7823.00,4719.00
             7817.58,4728.48 7812.26,4738.39 7805.48,4747.00
             7792.30,4763.77 7774.71,4775.40 7755.00,4783.08
             7736.14,4790.42 7714.52,4791.32 7695.00,4796.13
             7695.00,4796.13 7681.00,4798.68 7681.00,4798.68
             7679.52,4799.05 7676.89,4799.78 7676.34,4801.43
             7675.23,4804.69 7685.52,4813.56 7688.00,4815.71
             7700.96,4826.96 7722.92,4837.73 7740.00,4840.00 Z
           M 6214.00,5605.21
           C 6214.00,5605.21 6221.00,5605.21 6221.00,5605.21
             6275.80,5604.74 6322.34,5645.90 6323.00,5702.00
             6323.12,5712.56 6321.33,5723.89 6318.28,5734.00
             6315.73,5742.45 6311.86,5750.65 6307.00,5758.00
             6301.50,5766.31 6297.34,5771.11 6290.00,5777.91
             6260.94,5804.84 6226.41,5802.69 6190.00,5806.17
             6190.00,5806.17 6117.00,5812.83 6117.00,5812.83
             6117.00,5812.83 6028.00,5820.17 6028.00,5820.17
             6028.00,5820.17 5701.00,5848.83 5701.00,5848.83
             5701.00,5848.83 5647.00,5853.17 5647.00,5853.17
             5647.00,5853.17 5539.00,5862.83 5539.00,5862.83
             5539.00,5862.83 5485.00,5867.17 5485.00,5867.17
             5485.00,5867.17 5429.00,5872.17 5429.00,5872.17
             5429.00,5872.17 5406.00,5874.09 5406.00,5874.09
             5406.00,5874.09 5395.00,5875.00 5395.00,5875.00
             5338.67,5875.24 5294.35,5830.22 5295.00,5774.00
             5295.45,5735.30 5320.19,5699.11 5356.00,5684.60
             5371.01,5678.52 5386.11,5677.35 5402.00,5675.83
             5402.00,5675.83 5448.00,5671.91 5448.00,5671.91
             5448.00,5671.91 5488.00,5668.17 5488.00,5668.17
             5488.00,5668.17 5541.00,5663.83 5541.00,5663.83
             5541.00,5663.83 5586.00,5659.96 5586.00,5659.96
             5586.00,5659.96 5604.00,5658.17 5604.00,5658.17
             5604.00,5658.17 5649.00,5654.17 5649.00,5654.17
             5649.00,5654.17 5750.00,5645.83 5750.00,5645.83
             5750.00,5645.83 5836.00,5638.09 5836.00,5638.09
             5836.00,5638.09 5938.00,5629.17 5938.00,5629.17
             5938.00,5629.17 5969.00,5626.83 5969.00,5626.83
             5969.00,5626.83 6065.00,5618.17 6065.00,5618.17
             6065.00,5618.17 6170.00,5609.17 6170.00,5609.17
             6170.00,5609.17 6204.00,5606.17 6204.00,5606.17
             6204.00,5606.17 6214.00,5605.21 6214.00,5605.21 Z" />
</svg>
