<?xml version="1.0" encoding="UTF-8" standalone="no"?>
<!DOCTYPE svg PUBLIC "-//W3C//DTD SVG 20010904//EN"
              "http://www.w3.org/TR/2001/REC-SVG-20010904/DTD/svg10.dtd">

<svg xmlns="http://www.w3.org/2000/svg"
     width="16in" height="10.4533in"
     viewBox="0 0 9600 6272">
  <path id="yellow"
        fill="none" stroke="black" stroke-width="1"
        d="M 5823.00,342.21
           C 5823.00,342.21 5833.00,342.21 5833.00,342.21
             5898.94,342.77 5946.28,409.72 5924.92,472.00
             5914.76,501.64 5897.01,515.07 5874.00,534.25
             5874.00,534.25 5840.00,562.59 5840.00,562.59
             5840.00,562.59 5182.00,1112.25 5182.00,1112.25
             5182.00,1112.25 5135.00,1151.25 5135.00,1151.25
             5119.06,1164.53 5108.24,1174.90 5088.00,1181.65
             5040.45,1197.48 4987.46,1176.15 4966.31,1130.00
             4960.22,1116.70 4956.83,1100.62 4957.00,1086.00
             4957.26,1064.31 4966.22,1040.45 4980.30,1024.00
             4988.93,1013.92 5009.95,997.14 5021.00,987.92
             5021.00,987.92 5138.00,890.25 5138.00,890.25
             5138.00,890.25 5407.00,665.43 5407.00,665.43
             5407.00,665.43 5537.00,557.08 5537.00,557.08
             5537.00,557.08 5607.00,498.73 5607.00,498.73
             5607.00,498.73 5726.00,399.41 5726.00,399.41
             5742.33,385.70 5768.97,361.05 5787.00,352.26
             5799.94,345.95 5809.08,344.44 5823.00,342.21 Z
           M 3383.98,2692.00
           C 3386.93,2696.04 3385.33,2700.49 3383.98,2705.00
             3380.66,2715.85 3372.95,2725.04 3372.84,2734.42
             3372.76,2741.76 3378.71,2759.65 3382.47,2766.00
             3386.17,2772.23 3390.72,2775.85 3393.00,2783.00
             3390.80,2782.48 3386.13,2780.43 3384.31,2781.24
             3381.73,2782.40 3382.02,2786.66 3382.00,2789.00
             3381.94,2797.92 3382.32,2798.41 3383.75,2807.00
             3387.51,2829.51 3393.99,2849.74 3394.96,2873.00
             3394.96,2873.00 3393.17,2896.00 3393.17,2896.00
             3390.71,2921.35 3385.45,2958.00 3377.81,2982.00
             3370.83,3003.88 3364.38,3014.18 3354.43,3034.00
             3341.42,3059.94 3330.69,3081.17 3313.57,3105.00
             3313.57,3105.00 3278.61,3147.00 3278.61,3147.00
             3278.61,3147.00 3236.58,3202.00 3236.58,3202.00
             3236.58,3202.00 3210.00,3237.00 3210.00,3237.00
             3207.80,3236.58 3205.23,3235.77 3203.00,3236.04
             3199.35,3236.49 3192.25,3241.23 3189.00,3243.34
             3179.71,3249.37 3164.03,3257.52 3153.00,3252.00
             3142.41,3246.71 3136.16,3232.09 3130.69,3222.00
             3130.69,3222.00 3120.31,3204.00 3120.31,3204.00
             3113.48,3191.40 3109.21,3177.62 3104.98,3164.00
             3102.10,3154.74 3098.12,3142.64 3098.00,3133.00
             3098.00,3133.00 3098.00,3100.00 3098.00,3100.00
             3098.02,3089.15 3100.14,3076.79 3101.73,3066.00
             3106.92,3030.75 3121.53,2989.06 3138.86,2958.00
             3147.93,2941.74 3160.03,2923.98 3172.29,2910.00
             3172.29,2910.00 3208.91,2872.00 3208.91,2872.00
             3208.91,2872.00 3231.72,2847.00 3231.72,2847.00
             3231.72,2847.00 3253.04,2823.17 3253.04,2823.17
             3267.39,2809.59 3285.70,2794.71 3302.00,2783.51
             3312.71,2776.14 3337.79,2760.22 3345.83,2752.57
             3353.21,2745.55 3352.58,2742.35 3356.55,2737.00
             3356.55,2737.00 3367.24,2725.00 3367.24,2725.00
             3376.25,2712.97 3379.18,2705.92 3383.98,2692.00 Z
           M 2966.00,3261.00
           C 2976.49,3265.96 2988.37,3281.90 2997.01,3289.72
             3012.01,3303.26 3021.67,3314.34 3034.20,3330.00
             3040.46,3337.82 3048.95,3348.32 3053.69,3357.00
             3057.94,3364.78 3061.35,3373.54 3063.98,3382.00
             3071.60,3406.63 3068.38,3432.77 3072.27,3458.00
             3074.26,3470.84 3077.71,3483.47 3083.78,3495.00
             3083.78,3495.00 3091.00,3508.00 3091.00,3508.00
             3091.00,3508.00 3090.00,3509.00 3090.00,3509.00
             3090.00,3509.00 3076.00,3503.69 3076.00,3503.69
             3061.89,3498.67 3049.40,3495.20 3037.00,3486.12
             3024.16,3476.70 3014.50,3463.86 3005.29,3451.00
             2996.14,3438.22 2987.29,3426.54 2980.86,3412.00
             2971.07,3389.84 2968.61,3364.90 2967.09,3341.00
             2967.09,3341.00 2971.43,3293.00 2971.43,3293.00
             2971.43,3279.70 2967.65,3273.64 2965.00,3262.00
             2965.00,3262.00 2966.00,3261.00 2966.00,3261.00 Z
           M 3396.00,3416.00
           C 3396.00,3416.00 3398.00,3416.00 3398.00,3416.00
             3398.89,3424.02 3393.93,3432.56 3401.00,3437.00
             3399.15,3442.06 3397.14,3442.33 3395.48,3447.00
             3395.48,3447.00 3390.12,3471.00 3390.12,3471.00
             3390.12,3471.00 3380.42,3500.00 3380.42,3500.00
             3375.91,3515.38 3372.62,3531.71 3363.08,3545.00
             3350.01,3563.20 3332.98,3572.34 3314.00,3582.86
             3303.24,3588.82 3288.31,3595.97 3276.00,3597.00
             3277.17,3590.75 3278.71,3590.11 3280.22,3585.00
             3280.22,3585.00 3282.29,3574.00 3282.29,3574.00
             3282.29,3574.00 3284.99,3564.00 3284.99,3564.00
             3284.99,3564.00 3291.74,3529.00 3291.74,3529.00
             3296.18,3513.00 3303.38,3499.53 3314.29,3487.00
             3328.61,3470.54 3339.07,3465.95 3355.00,3453.76
             3355.00,3453.76 3370.96,3439.99 3370.96,3439.99
             3370.96,3439.99 3377.66,3432.41 3377.66,3432.41
             3377.66,3432.41 3387.00,3426.47 3387.00,3426.47
             3391.12,3423.28 3393.15,3420.21 3396.00,3416.00 Z
           M 6214.00,5605.21
           C 6214.00,5605.21 6221.00,5605.21 6221.00,5605.21
             6275.80,5604.74 6322.34,5645.90 6323.00,5702.00
             6323.12,5712.56 6321.33,5723.89 6318.28,5734.00
             6315.73,5742.45 6311.86,5750.65 6307.00,5758.00
             6301.50,5766.31 6297.34,5771.11 6290.00,5777.91
             6260.94,5804.84 6226.41,5802.69 6190.00,5806.17
             6190.00,5806.17 6117.00,5812.83 6117.00,5812.83
             6117.00,5812.83 6028.00,5820.17 6028.00,5820.17
             6028.00,5820.17 5701.00,5848.83 5701.00,5848.83
             5701.00,5848.83 5647.00,5853.17 5647.00,5853.17
             5647.00,5853.17 5539.00,5862.83 5539.00,5862.83
             5539.00,5862.83 5485.00,5867.17 5485.00,5867.17
             5485.00,5867.17 5429.00,5872.17 5429.00,5872.17
             5429.00,5872.17 5406.00,5874.09 5406.00,5874.09
             5406.00,5874.09 5395.00,5875.00 5395.00,5875.00
             5338.67,5875.24 5294.35,5830.22 5295.00,5774.00
             5295.45,5735.30 5320.19,5699.11 5356.00,5684.60
             5371.01,5678.52 5386.11,5677.35 5402.00,5675.83
             5402.00,5675.83 5448.00,5671.91 5448.00,5671.91
             5448.00,5671.91 5488.00,5668.17 5488.00,5668.17
             5488.00,5668.17 5541.00,5663.83 5541.00,5663.83
             5541.00,5663.83 5586.00,5659.96 5586.00,5659.96
             5586.00,5659.96 5604.00,5658.17 5604.00,5658.17
             5604.00,5658.17 5649.00,5654.17 5649.00,5654.17
             5649.00,5654.17 5738.00,5646.83 5738.00,5646.83
             5738.00,5646.83 5795.00,5641.83 5795.00,5641.83
             5795.00,5641.83 5836.00,5638.09 5836.00,5638.09
             5836.00,5638.09 5938.00,5629.17 5938.00,5629.17
             5938.00,5629.17 5969.00,5626.83 5969.00,5626.83
             5969.00,5626.83 6065.00,5618.17 6065.00,5618.17
             6065.00,5618.17 6170.00,5609.17 6170.00,5609.17
             6170.00,5609.17 6204.00,5606.17 6204.00,5606.17
             6204.00,5606.17 6214.00,5605.21 6214.00,5605.21 Z" />
</svg>
